<svg xmlns="http://www.w3.org/2000/svg" xmlns:xlink="http://www.w3.org/1999/xlink" width="711" zoomAndPan="magnify" viewBox="0 0 533.25 436.499995" height="582" preserveAspectRatio="xMidYMid meet" version="1.0"><defs><clipPath id="10e257bd5e"><path d="M 203 377 L 255 377 L 255 398.496094 L 203 398.496094 Z M 203 377 " clip-rule="nonzero"/></clipPath><clipPath id="4f668f63e8"><path d="M 203 391 L 255 391 L 255 398.496094 L 203 398.496094 Z M 203 391 " clip-rule="nonzero"/></clipPath></defs><path fill="#a3e635" d="M 326.132812 11.574219 C 319.589844 8.644531 311.355469 7.765625 300.753906 9.410156 C 300.609375 9.429688 300.464844 9.441406 300.324219 9.441406 C 300.25 9.441406 300.179688 9.472656 300.128906 9.519531 L 300.105469 9.511719 C 300.019531 9.535156 299.933594 9.558594 299.847656 9.574219 L 299.84375 9.578125 C 272.746094 14.890625 243.882812 21.453125 227.484375 35.820312 C 222.242188 40.414062 217.210938 45.453125 213.261719 51.632812 C 182.8125 99.28125 163.011719 128.066406 153.078125 136.476562 C 153.027344 136.523438 152.992188 136.585938 152.980469 136.652344 L 152.964844 136.644531 C 146.003906 146.082031 113.667969 172.902344 58.253906 218.234375 C 47.046875 227.40625 39.472656 236.050781 33.808594 242.519531 C 33.097656 243.328125 32.726562 243.753906 32.058594 244.511719 L 32.058594 244.515625 C 4.867188 275.347656 0.0820312 306.035156 17.195312 338.160156 C 25.425781 353.605469 38.082031 365.332031 55.382812 373.078125 C 74.988281 381.855469 100.546875 385.515625 132.390625 383.707031 C 154.910156 382.425781 175.15625 380.054688 192.664062 375.117188 C 244.289062 360.566406 316.03125 343.558594 408.171875 324.628906 C 425.925781 320.984375 440.410156 315.628906 452.121094 310.546875 C 510.582031 285.164062 531.976562 252.5625 517.417969 213.714844 C 514.289062 205.367188 507.554688 197.59375 497.820312 192.691406 C 446.65625 166.925781 415.972656 151.214844 410.085938 142.429688 L 410.070312 142.421875 C 410.058594 142.363281 410.027344 142.304688 409.980469 142.261719 C 402.566406 135.535156 394.359375 127.035156 388.589844 115.15625 C 363.144531 62.730469 346.4375 31.699219 337.820312 20.839844 C 334.636719 16.828125 330.828125 13.675781 326.132812 11.574219 Z M 326.132812 11.574219 " fill-opacity="1" fill-rule="nonzero"/><path fill="#000000" d="M 210.660156 32.765625 C 189.109375 46.132812 166.535156 61.101562 157.164062 78.679688 C 154.15625 84.316406 151.488281 90.25 150.113281 96.800781 C 139.355469 147.996094 131.65625 179.277344 125.816406 189.496094 L 126.09375 188.796875 C 123.730469 198.515625 104.554688 232.261719 71.109375 290.1875 C 64.476562 301.675781 60.789062 311.535156 58.023438 318.925781 C 57.746094 319.671875 57.429688 320.515625 57.171875 321.207031 C 43.871094 356.414062 49.714844 384.1875 74.738281 406.121094 C 100.402344 428.621094 137.816406 430.148438 188.117188 407.785156 C 207.023438 399.382812 223.613281 390.78125 237.019531 380.878906 C 276.613281 351.628906 332.671875 313.742188 405.621094 267.585938 C 419.65625 258.707031 430.339844 249.421875 438.730469 241.265625 C 480.644531 200.535156 488.296875 165.773438 463.335938 137.320312 C 457.988281 131.222656 449.742188 126.761719 439.859375 125.722656 C 386.472656 120.097656 354.683594 116.535156 347.613281 110.621094 L 348.355469 111.058594 C 339.71875 107.675781 329.738281 103.019531 320.785156 94.554688 C 281.921875 57.804688 257.53125 36.617188 246.640625 30.109375 C 237.066406 24.390625 226.046875 24.027344 211.378906 32.332031 C 210.089844 33.0625 208.449219 32.609375 207.71875 31.320312 C 206.988281 30.03125 207.445312 28.394531 208.734375 27.664062 C 224.6875 18.628906 237.808594 18.582031 249.394531 25.503906 C 260.910156 32.382812 285.785156 54.070312 324.472656 90.652344 C 332.6875 98.417969 341.917969 102.769531 350.3125 106.0625 C 350.582031 106.167969 350.835938 106.316406 351.054688 106.503906 C 356.472656 111.035156 385.460938 114.59375 440.421875 120.382812 C 451.574219 121.558594 461.085938 126.613281 467.371094 133.78125 C 495.324219 165.644531 484.960938 203.824219 442.46875 245.117188 C 433.898438 253.449219 422.925781 262.992188 408.492188 272.125 C 335.601562 318.242188 279.65625 356.054688 240.207031 385.199219 C 226.339844 395.445312 209.332031 404.230469 190.296875 412.691406 C 139.195312 435.410156 99.179688 434.6875 71.199219 410.160156 C 44.234375 386.523438 38.1875 356.269531 52.148438 319.308594 C 52.414062 318.609375 52.710938 317.8125 52.996094 317.046875 C 55.773438 309.621094 59.589844 299.40625 66.460938 287.503906 C 100.269531 228.945312 118.753906 196.257812 120.878906 187.527344 C 120.9375 187.285156 121.03125 187.050781 121.15625 186.832031 C 126.460938 177.550781 133.996094 147.402344 144.859375 95.695312 C 146.386719 88.433594 149.316406 81.980469 152.425781 76.15625 C 162.609375 57.058594 186.609375 41.367188 207.832031 28.203125 C 209.09375 27.421875 210.746094 27.8125 211.527344 29.070312 C 212.308594 30.332031 211.921875 31.984375 210.660156 32.765625 Z M 210.660156 32.765625 " fill-opacity="1" fill-rule="nonzero"/><path fill="#dd6859" d="M 211.855469 156.929688 C 211.855469 156.929688 225.621094 154.242188 232.851562 133.886719 L 214.09375 111.09375 L 207.171875 124.582031 Z M 211.855469 156.929688 " fill-opacity="1" fill-rule="evenodd"/><path fill="#2b4464" d="M 229.265625 72.382812 C 231.457031 70.988281 235.375 68.476562 235.417969 68.53125 L 225.074219 132.679688 L 202.992188 116.375 L 222.738281 77.484375 C 224.21875 75.808594 225.945312 74.4375 227.914062 73.378906 " fill-opacity="1" fill-rule="evenodd"/><path fill="#f69b86" d="M 197.15625 68.386719 C 197.308594 63.601562 198.539062 56.710938 189.0625 51.136719 L 189.0625 50.996094 C 185.890625 41.019531 185.460938 35.347656 182.203125 35.632812 C 179.167969 35.875 180.933594 37.5625 183.214844 51.773438 C 181.019531 53.550781 181.25 53.96875 182.28125 56.589844 C 180.964844 57.789062 180.296875 57.789062 180.988281 60.671875 C 180.757812 60.828125 178.046875 61.640625 180.363281 66.027344 C 182.917969 70.84375 184.332031 70.320312 185.398438 78.097656 L 185.398438 78.03125 C 187.808594 94.492188 187.425781 94.492188 190.289062 110.777344 C 191.96875 120.347656 195.148438 157.140625 211.132812 157.378906 C 216.78125 157.457031 220.53125 154.273438 221.652344 152.167969 C 228.441406 139.296875 195.015625 80.492188 197.265625 68.421875 Z M 197.15625 68.386719 " fill-opacity="1" fill-rule="evenodd"/><path fill="#f69b86" d="M 194.546875 66.171875 C 196.101562 54.167969 199.140625 53.003906 202.289062 50.621094 C 192.242188 42.832031 186.867188 66.6875 193.515625 66.851562 " fill-opacity="1" fill-rule="evenodd"/><path fill="#200b3e" d="M 191.628906 56.503906 C 191.507812 56.503906 191.402344 56.460938 191.316406 56.375 C 191.230469 56.289062 191.1875 56.1875 191.1875 56.066406 C 191.101562 55.265625 191.335938 54.574219 191.890625 53.992188 L 192.011719 53.816406 C 192.085938 53.714844 192.183594 53.65625 192.304688 53.636719 C 192.425781 53.617188 192.535156 53.644531 192.636719 53.714844 C 192.734375 53.789062 192.792969 53.882812 192.8125 54.003906 C 192.832031 54.121094 192.808594 54.230469 192.734375 54.332031 L 192.59375 54.484375 C 192.152344 54.914062 191.976562 55.433594 192.066406 56.042969 C 192.074219 56.167969 192.03125 56.277344 191.945312 56.367188 C 191.859375 56.457031 191.753906 56.503906 191.628906 56.503906 Z M 191.628906 56.503906 " fill-opacity="1" fill-rule="nonzero"/><path fill="#080504" d="M 189.007812 51.003906 L 189.007812 51.09375 L 189.070312 51.09375 C 189.070312 51.09375 189.015625 51.050781 189.007812 51.003906 Z M 189.007812 51.003906 " fill-opacity="1" fill-rule="evenodd"/><path fill="#200b3e" d="M 189.226562 68.089844 C 187.808594 68.089844 186.023438 66.992188 184.53125 66.160156 C 184.046875 65.84375 183.539062 65.574219 183.003906 65.347656 C 182.90625 65.300781 182.832031 65.226562 182.785156 65.128906 C 182.738281 65.027344 182.730469 64.921875 182.757812 64.816406 C 182.789062 64.710938 182.851562 64.625 182.941406 64.5625 C 183.035156 64.503906 183.136719 64.476562 183.246094 64.492188 C 183.855469 64.738281 184.433594 65.039062 184.980469 65.402344 C 186.40625 66.238281 188.546875 67.5 189.652344 67.148438 C 189.9375 67.058594 190.136719 66.875 190.246094 66.597656 C 190.367188 66.324219 190.367188 66.050781 190.246094 65.777344 C 189.566406 63.976562 185.242188 62.042969 183.402344 61.222656 L 182.785156 60.949219 C 182.675781 60.894531 182.597656 60.8125 182.558594 60.699219 C 182.515625 60.582031 182.519531 60.472656 182.570312 60.359375 C 182.625 60.25 182.707031 60.171875 182.820312 60.132812 C 182.9375 60.089844 183.046875 60.09375 183.160156 60.148438 L 183.761719 60.421875 C 185.867188 61.363281 190.265625 63.316406 191.078125 65.457031 C 191.296875 65.957031 191.296875 66.460938 191.078125 66.960938 C 190.871094 67.472656 190.503906 67.816406 189.980469 67.992188 C 189.734375 68.066406 189.484375 68.101562 189.226562 68.089844 Z M 189.226562 68.089844 " fill-opacity="1" fill-rule="nonzero"/><path fill="#200b3e" d="M 190.191406 64.625 C 189.992188 64.625 189.859375 64.53125 189.785156 64.347656 C 189.734375 64.238281 189.734375 64.125 189.785156 64.011719 C 189.832031 63.898438 189.910156 63.820312 190.027344 63.777344 C 190.3125 63.65625 191.253906 63.195312 191.179688 62.429688 C 190.925781 60.234375 186.855469 58.523438 184.890625 57.699219 L 184.144531 57.371094 C 184.035156 57.324219 183.953125 57.242188 183.910156 57.125 C 183.867188 57.011719 183.875 56.898438 183.925781 56.789062 C 183.972656 56.675781 184.054688 56.597656 184.171875 56.554688 C 184.285156 56.511719 184.398438 56.515625 184.507812 56.570312 L 185.242188 56.875 C 187.515625 57.84375 191.75 59.628906 192.054688 62.363281 C 192.210938 63.746094 190.792969 64.449219 190.367188 64.625 C 190.308594 64.632812 190.25 64.632812 190.191406 64.625 Z M 190.191406 64.625 " fill-opacity="1" fill-rule="nonzero"/><path fill="#200b3e" d="M 191.15625 60.828125 C 191.042969 60.828125 190.949219 60.792969 190.863281 60.71875 C 190.78125 60.644531 190.730469 60.554688 190.71875 60.441406 C 190.699219 60.320312 190.730469 60.210938 190.804688 60.117188 C 190.882812 60.019531 190.980469 59.964844 191.101562 59.949219 C 191.671875 59.898438 192.152344 59.667969 192.550781 59.257812 C 192.730469 58.992188 192.785156 58.703125 192.714844 58.390625 C 192.441406 56.875 188.46875 54.5625 185.144531 53.046875 L 185.519531 52.234375 L 185.332031 52.640625 L 185.519531 52.234375 C 187.808594 53.332031 193.195312 55.964844 193.582031 58.238281 C 193.699219 58.800781 193.59375 59.316406 193.261719 59.785156 C 192.726562 60.425781 192.042969 60.792969 191.210938 60.882812 Z M 191.15625 60.828125 " fill-opacity="1" fill-rule="nonzero"/><path fill="#200b3e" d="M 182.90625 66.652344 C 182.683594 66.652344 182.539062 66.542969 182.480469 66.324219 C 182.449219 66.207031 182.464844 66.09375 182.527344 65.988281 C 182.589844 65.882812 182.679688 65.816406 182.796875 65.785156 L 183.050781 65.722656 C 183.40625 65.640625 183.738281 65.503906 184.046875 65.304688 C 184.15625 65.242188 184.269531 65.230469 184.386719 65.265625 C 184.503906 65.300781 184.59375 65.371094 184.652344 65.480469 C 184.710938 65.585938 184.722656 65.695312 184.691406 65.8125 C 184.65625 65.929688 184.582031 66.015625 184.476562 66.070312 C 184.105469 66.316406 183.703125 66.484375 183.269531 66.578125 L 183.015625 66.644531 Z M 182.90625 66.652344 " fill-opacity="1" fill-rule="nonzero"/><g clip-path="url(#10e257bd5e)"><path fill="#2b4464" d="M 251.535156 378.636719 C 251.535156 378.636719 243.929688 384.78125 230.988281 377.910156 C 230.988281 377.910156 207.238281 385.691406 203.5625 392.175781 C 203.5625 392.175781 202.640625 397.210938 207.371094 398.472656 L 253.957031 396.851562 C 253.957031 396.851562 257.425781 385.449219 251.535156 378.636719 Z M 251.535156 378.636719 " fill-opacity="1" fill-rule="evenodd"/></g><g clip-path="url(#4f668f63e8)"><path fill="#e2e7f4" d="M 203.5625 392.976562 C 203.503906 393.589844 203.550781 394.195312 203.707031 394.792969 C 203.867188 395.386719 204.121094 395.9375 204.476562 396.441406 C 204.832031 396.945312 205.265625 397.371094 205.773438 397.71875 C 206.285156 398.066406 206.835938 398.316406 207.433594 398.464844 L 253.957031 396.851562 C 254.476562 394.964844 254.796875 393.042969 254.914062 391.089844 Z M 203.5625 392.976562 " fill-opacity="1" fill-rule="evenodd"/></g><path fill="#e2e7f4" d="M 204.976562 394.304688 C 204.894531 394.320312 204.808594 394.320312 204.726562 394.304688 C 204.554688 394.234375 204.433594 394.117188 204.363281 393.945312 C 204.292969 393.777344 204.292969 393.609375 204.363281 393.4375 C 206.558594 388.136719 213.554688 385.515625 227.519531 380.269531 L 229.570312 379.5 C 229.800781 379.417969 230.015625 379.453125 230.207031 379.601562 C 232.585938 381.46875 235.25 382.722656 238.207031 383.363281 C 240.265625 383.746094 242.332031 383.796875 244.40625 383.511719 C 246.480469 383.226562 248.457031 382.621094 250.335938 381.695312 L 250.941406 381.421875 C 251.109375 381.351562 251.277344 381.347656 251.449219 381.414062 C 251.617188 381.484375 251.738281 381.601562 251.8125 381.773438 C 251.882812 381.941406 251.882812 382.109375 251.8125 382.28125 C 251.746094 382.449219 251.625 382.570312 251.457031 382.640625 L 250.898438 382.890625 C 248.898438 383.871094 246.792969 384.511719 244.589844 384.816406 C 242.382812 385.117188 240.1875 385.070312 237.996094 384.671875 C 234.945312 384.03125 232.179688 382.765625 229.703125 380.875 L 227.980469 381.511719 C 214.378906 386.601562 207.542969 389.191406 205.59375 393.929688 C 205.464844 394.1875 205.261719 394.3125 204.976562 394.304688 Z M 204.976562 394.304688 " fill-opacity="1" fill-rule="nonzero"/><path fill="#2b4464" d="M 306.679688 378.074219 C 306.679688 378.074219 298.878906 383.957031 286.132812 376.691406 C 286.132812 376.691406 262.152344 383.726562 258.3125 390.078125 C 258.3125 390.078125 257.214844 395.074219 261.933594 396.488281 L 308.519531 396.402344 C 308.519531 396.402344 312.351562 385.066406 306.679688 378.074219 Z M 306.679688 378.074219 " fill-opacity="1" fill-rule="evenodd"/><path fill="#e2e7f4" d="M 258.234375 390.890625 C 258.160156 391.503906 258.191406 392.109375 258.332031 392.707031 C 258.472656 393.308594 258.710938 393.863281 259.050781 394.378906 C 259.390625 394.890625 259.8125 395.328125 260.308594 395.691406 C 260.804688 396.054688 261.351562 396.320312 261.945312 396.488281 L 308.53125 396.402344 C 309.09375 394.527344 309.460938 392.621094 309.628906 390.671875 Z M 258.234375 390.890625 " fill-opacity="1" fill-rule="evenodd"/><path fill="#e2e7f4" d="M 259.671875 392.273438 C 259.578125 392.273438 259.484375 392.25 259.398438 392.207031 C 259.230469 392.132812 259.113281 392.011719 259.050781 391.839844 C 258.984375 391.667969 258.992188 391.496094 259.070312 391.332031 C 261.417969 386.097656 268.503906 383.648438 282.632812 378.921875 L 284.738281 378.195312 C 284.96875 378.113281 285.175781 378.152344 285.363281 378.304688 C 287.679688 380.25 290.304688 381.589844 293.242188 382.320312 C 295.289062 382.773438 297.355469 382.890625 299.4375 382.667969 C 301.523438 382.449219 303.519531 381.90625 305.429688 381.039062 L 306.042969 380.785156 C 306.214844 380.714844 306.382812 380.71875 306.550781 380.789062 C 306.722656 380.863281 306.839844 380.988281 306.90625 381.160156 C 306.972656 381.332031 306.964844 381.5 306.890625 381.667969 C 306.8125 381.835938 306.6875 381.953125 306.515625 382.015625 L 305.945312 382.257812 C 303.910156 383.183594 301.785156 383.769531 299.5625 384.015625 C 297.34375 384.257812 295.140625 384.148438 292.957031 383.683594 C 289.929688 382.945312 287.207031 381.589844 284.792969 379.621094 L 283.0625 380.203125 C 269.292969 384.867188 262.382812 387.203125 260.277344 391.914062 C 260.148438 392.15625 259.949219 392.277344 259.671875 392.273438 Z M 259.671875 392.273438 " fill-opacity="1" fill-rule="nonzero"/><path fill="#573c3a" d="M 231.109375 177.527344 C 225.171875 208.789062 218.207031 352.605469 221.398438 381.511719 L 254.78125 382.125 L 270.960938 231.898438 L 274.121094 381.300781 L 309.410156 381.113281 C 312.449219 349.949219 325.863281 202.710938 308.246094 174.015625 Z M 231.109375 177.527344 " fill-opacity="1" fill-rule="evenodd"/><path fill="#200b3e" d="M 270.621094 231.429688 C 270.453125 231.425781 270.308594 231.371094 270.183594 231.261719 C 270.058594 231.148438 269.984375 231.011719 269.960938 230.847656 C 268.066406 215.878906 267.769531 210.449219 267.386719 202.207031 L 267.242188 199.222656 C 267.234375 199.039062 267.289062 198.882812 267.410156 198.746094 C 267.535156 198.609375 267.6875 198.539062 267.867188 198.53125 C 268.046875 198.523438 268.207031 198.582031 268.339844 198.703125 C 268.472656 198.824219 268.546875 198.976562 268.558594 199.15625 L 268.710938 202.140625 C 269.117188 210.347656 269.390625 215.769531 271.277344 230.671875 C 271.296875 230.851562 271.25 231.015625 271.136719 231.15625 C 271.027344 231.300781 270.878906 231.382812 270.699219 231.40625 Z M 270.621094 231.429688 " fill-opacity="1" fill-rule="nonzero"/><path fill="#200b3e" d="M 268.152344 207.398438 L 268.03125 207.398438 C 267.210938 207.261719 266.386719 207.203125 265.554688 207.222656 C 263.917969 207.222656 262.503906 207.222656 262.074219 204.246094 C 261.472656 200.433594 261.058594 196.601562 260.835938 192.746094 C 260.769531 191.738281 260.691406 190.554688 260.582031 189.050781 C 260.574219 188.867188 260.628906 188.707031 260.746094 188.570312 C 260.867188 188.429688 261.015625 188.355469 261.199219 188.335938 C 261.378906 188.324219 261.539062 188.378906 261.675781 188.496094 C 261.8125 188.617188 261.886719 188.769531 261.898438 188.949219 C 262.007812 190.453125 262.085938 191.640625 262.152344 192.660156 C 262.371094 196.488281 262.785156 200.296875 263.390625 204.082031 C 263.65625 205.925781 263.941406 205.925781 265.585938 205.925781 C 266.5 205.90625 267.40625 205.972656 268.304688 206.136719 C 268.488281 206.164062 268.628906 206.257812 268.734375 206.40625 C 268.839844 206.558594 268.878906 206.722656 268.84375 206.902344 C 268.800781 207.058594 268.714844 207.179688 268.585938 207.273438 C 268.457031 207.367188 268.3125 207.40625 268.152344 207.398438 Z M 268.152344 207.398438 " fill-opacity="1" fill-rule="nonzero"/><path fill="#200b3e" d="M 302.09375 193.746094 C 290.136719 192.648438 286.492188 184.277344 284.792969 178.109375 C 284.738281 177.984375 284.738281 177.859375 284.796875 177.734375 C 284.851562 177.609375 284.949219 177.527344 285.082031 177.488281 C 285.214844 177.453125 285.335938 177.472656 285.453125 177.546875 C 285.566406 177.625 285.632812 177.730469 285.648438 177.867188 C 287.414062 184.289062 290.894531 191.792969 302.179688 192.867188 C 302.300781 192.878906 302.402344 192.933594 302.480469 193.027344 C 302.554688 193.121094 302.589844 193.230469 302.574219 193.351562 C 302.566406 193.472656 302.515625 193.574219 302.417969 193.652344 C 302.324219 193.730469 302.214844 193.761719 302.09375 193.746094 Z M 302.09375 193.746094 " fill-opacity="1" fill-rule="nonzero"/><path fill="#a9aca9" d="M 315.53125 71.054688 L 315.847656 193.84375 C 289.28125 195.941406 250.886719 189.90625 223.78125 191.125 L 226.105469 74.445312 C 252.707031 54.945312 284.847656 54.648438 315.53125 71.054688 Z M 315.53125 71.054688 " fill-opacity="1" fill-rule="evenodd"/><path fill="#2b4464" d="M 262.21875 215.296875 C 251.25 214.628906 231.558594 212.257812 222.078125 210.710938 C 219.316406 165.488281 221.839844 119.632812 226.105469 74.464844 C 234.160156 68.476562 243.035156 64.207031 252.738281 61.648438 Z M 262.21875 215.296875 " fill-opacity="1" fill-rule="evenodd"/><path fill="#2b4464" d="M 285.890625 60.519531 C 295.472656 62.277344 304.597656 65.386719 313.261719 69.847656 C 314.585938 70.726562 315.277344 71.285156 315.277344 71.285156 C 319.886719 117.371094 322.246094 165.480469 319.0625 218.578125 L 279.375 216.449219 Z M 285.890625 60.519531 " fill-opacity="1" fill-rule="evenodd"/><path fill="#f3fafc" d="M 245.394531 86.257812 L 289.222656 76.121094 L 303.832031 139.316406 L 260 149.453125 Z M 245.394531 86.257812 " fill-opacity="1" fill-rule="nonzero"/><path fill="#f6b269" d="M 278.15625 77.417969 C 278.394531 77.378906 278.628906 77.382812 278.867188 77.429688 C 279.101562 77.480469 279.320312 77.574219 279.519531 77.707031 C 279.71875 77.84375 279.886719 78.007812 280.019531 78.207031 C 280.15625 78.40625 280.25 78.625 280.300781 78.859375 C 280.351562 79.097656 280.355469 79.332031 280.316406 79.570312 C 280.277344 79.808594 280.191406 80.027344 280.066406 80.234375 C 279.941406 80.4375 279.78125 80.613281 279.585938 80.757812 C 279.394531 80.898438 279.179688 81 278.945312 81.0625 L 257.335938 85.8125 C 257.09375 85.867188 256.851562 85.871094 256.605469 85.828125 C 256.363281 85.785156 256.136719 85.695312 255.929688 85.5625 C 255.71875 85.425781 255.542969 85.257812 255.402344 85.054688 C 255.261719 84.851562 255.164062 84.628906 255.109375 84.386719 C 255.054688 84.144531 255.050781 83.902344 255.09375 83.65625 C 255.140625 83.414062 255.226562 83.1875 255.363281 82.976562 C 255.496094 82.769531 255.664062 82.59375 255.867188 82.453125 C 256.070312 82.308594 256.292969 82.210938 256.535156 82.160156 Z M 278.15625 77.417969 " fill-opacity="1" fill-rule="evenodd"/><path fill="#f3fafc" d="M 283.640625 60.148438 L 283.640625 61.066406 C 283.632812 61.96875 283.535156 62.855469 283.351562 63.734375 C 283.167969 64.617188 282.898438 65.46875 282.546875 66.296875 C 282.195312 67.121094 281.765625 67.90625 281.257812 68.648438 C 280.75 69.390625 280.175781 70.078125 279.535156 70.707031 C 278.894531 71.335938 278.195312 71.894531 277.445312 72.386719 C 276.691406 72.878906 275.898438 73.292969 275.066406 73.628906 C 274.234375 73.964844 273.375 74.214844 272.492188 74.382812 C 271.609375 74.550781 270.71875 74.628906 269.820312 74.621094 C 268.007812 74.597656 266.269531 74.226562 264.605469 73.507812 C 262.941406 72.789062 261.480469 71.777344 260.222656 70.472656 C 258.976562 69.183594 258.019531 67.707031 257.351562 66.042969 C 256.683594 64.378906 256.351562 62.652344 256.359375 60.859375 C 265.410156 59 274.503906 58.761719 283.640625 60.148438 Z M 283.640625 60.148438 " fill-opacity="1" fill-rule="evenodd"/><path fill="#573c3a" d="M 269.535156 70.132812 L 276.730469 78.121094 C 276.730469 78.121094 285.792969 70.375 283.980469 59.464844 C 283.3125 58.703125 282.535156 58.066406 281.65625 57.554688 C 280.78125 57.042969 279.84375 56.679688 278.847656 56.472656 C 277.855469 56.265625 276.851562 56.21875 275.84375 56.332031 C 274.832031 56.449219 273.867188 56.722656 272.945312 57.152344 Z M 269.535156 70.132812 " fill-opacity="1" fill-rule="evenodd"/><path fill="#573c3a" d="M 269.667969 70.175781 L 262.984375 77.660156 C 261.722656 76.695312 260.613281 75.578125 259.652344 74.308594 C 258.691406 73.039062 257.917969 71.667969 257.332031 70.1875 C 256.746094 68.707031 256.367188 67.179688 256.195312 65.597656 C 256.027344 64.015625 256.070312 62.441406 256.328125 60.871094 C 256.328125 60.871094 260.945312 55.132812 266.78125 56.679688 Z M 269.667969 70.175781 " fill-opacity="1" fill-rule="evenodd"/><path fill="#f69b86" d="M 279.375 43.511719 C 279.375 43.511719 279.230469 53.648438 279.132812 61.507812 C 279.144531 62.117188 279.09375 62.71875 278.984375 63.316406 C 278.875 63.914062 278.707031 64.496094 278.480469 65.058594 C 278.253906 65.625 277.972656 66.160156 277.640625 66.667969 C 277.304688 67.175781 276.925781 67.644531 276.496094 68.078125 C 276.066406 68.507812 275.597656 68.894531 275.09375 69.230469 C 274.585938 69.566406 274.054688 69.851562 273.492188 70.082031 C 272.925781 70.308594 272.347656 70.480469 271.75 70.59375 C 271.152344 70.707031 270.550781 70.761719 269.941406 70.753906 C 269.335938 70.742188 268.734375 70.675781 268.140625 70.546875 C 267.546875 70.417969 266.96875 70.230469 266.414062 69.984375 C 265.855469 69.742188 265.328125 69.445312 264.832031 69.09375 C 264.335938 68.742188 263.878906 68.347656 263.460938 67.902344 C 263.046875 67.460938 262.675781 66.980469 262.355469 66.464844 C 262.035156 65.949219 261.769531 65.40625 261.558594 64.835938 C 261.347656 64.265625 261.195312 63.679688 261.101562 63.078125 C 261.007812 62.476562 260.972656 61.875 261 61.265625 C 261.089844 54.890625 261.1875 47.484375 261.1875 47.484375 C 262.6875 45.765625 264.453125 44.386719 266.484375 43.347656 Z M 279.375 43.511719 " fill-opacity="1" fill-rule="evenodd"/><path fill="#dd6859" d="M 261 61.222656 L 261.1875 47.441406 C 262.6875 45.722656 264.453125 44.34375 266.484375 43.300781 L 279.121094 43.445312 L 278.15625 49.65625 C 277.058594 51.609375 275.359375 55.527344 273.253906 57.6875 C 269.949219 60.925781 266.160156 63.414062 261.878906 65.160156 C 261.28125 63.914062 260.988281 62.601562 261 61.222656 Z M 261 61.222656 " fill-opacity="1" fill-rule="evenodd"/><path fill="#f69b86" d="M 264.664062 58.28125 C 264 58.472656 263.320312 58.585938 262.628906 58.613281 C 261.9375 58.640625 261.253906 58.582031 260.578125 58.445312 C 259.898438 58.304688 259.25 58.085938 258.625 57.785156 C 258 57.488281 257.421875 57.117188 256.886719 56.679688 C 252.214844 52.882812 250.808594 46.113281 251.402344 38.023438 C 252.226562 25.710938 254.121094 15.671875 266.144531 16.230469 C 274.710938 16.625 281.570312 26.21875 281.402344 38.265625 C 281.375 42.125 280.601562 45.824219 279.078125 49.371094 C 278.617188 50.417969 277.933594 51.285156 277.027344 51.984375 C 273.300781 54.855469 269.179688 56.953125 264.664062 58.28125 Z M 264.664062 58.28125 " fill-opacity="1" fill-rule="evenodd"/><path fill="#200b3e" d="M 253.925781 24.132812 C 261.8125 25.703125 264.894531 24.757812 271.761719 19.875 C 271.398438 25.359375 271.015625 27.0625 275.734375 31.757812 C 277.785156 33.8125 277.816406 38.277344 277.925781 38.871094 C 278.902344 48.546875 286.042969 43.664062 289.433594 35.71875 C 291.628906 30.605469 292.902344 15.058594 282.359375 9.945312 C 279.417969 8.527344 281.03125 6.574219 276.378906 4.203125 C 268.207031 0.0351562 263.65625 4.050781 257.730469 6.804688 C 255.351562 7.902344 248.023438 10.582031 247.574219 18.171875 C 247.246094 23.550781 250.183594 24.308594 252.246094 30.015625 C 252.597656 28.0625 253.132812 26.160156 253.847656 24.308594 " fill-opacity="1" fill-rule="evenodd"/><path fill="#f69b86" d="M 277.796875 38.308594 C 280.84375 31.011719 286.78125 32.144531 286.328125 37.453125 C 285.78125 44.039062 276.457031 47.660156 276.773438 42.511719 " fill-opacity="1" fill-rule="evenodd"/><path fill="#1d093e" d="M 280.132812 41.820312 C 279.992188 41.820312 279.878906 41.765625 279.792969 41.65625 C 279.707031 41.570312 279.667969 41.46875 279.667969 41.347656 C 279.667969 41.230469 279.707031 41.128906 279.792969 41.042969 C 280.527344 40.425781 280.527344 40.425781 280.097656 39.539062 L 280.03125 39.394531 C 279.832031 38.941406 279.761719 38.464844 279.820312 37.972656 C 279.882812 37.476562 280.066406 37.035156 280.371094 36.640625 C 280.675781 36.195312 281.070312 35.855469 281.558594 35.621094 C 282.042969 35.386719 282.554688 35.292969 283.09375 35.335938 C 283.792969 35.464844 284.328125 35.832031 284.707031 36.433594 C 284.902344 36.800781 285 37.195312 285 37.613281 C 285 38.03125 284.902344 38.421875 284.707031 38.792969 C 284.660156 38.90625 284.578125 38.984375 284.46875 39.03125 C 284.355469 39.078125 284.242188 39.078125 284.128906 39.03125 C 284.015625 38.984375 283.9375 38.902344 283.890625 38.789062 C 283.847656 38.675781 283.847656 38.566406 283.894531 38.453125 C 284.15625 37.929688 284.15625 37.40625 283.894531 36.882812 C 283.671875 36.527344 283.359375 36.300781 282.949219 36.203125 C 282.570312 36.175781 282.210938 36.25 281.871094 36.417969 C 281.527344 36.585938 281.253906 36.828125 281.042969 37.148438 C 280.832031 37.410156 280.703125 37.707031 280.65625 38.039062 C 280.613281 38.371094 280.65625 38.691406 280.789062 39 L 280.855469 39.144531 C 281.359375 40.242188 281.523438 40.703125 280.316406 41.710938 C 280.265625 41.761719 280.203125 41.800781 280.132812 41.820312 Z M 280.132812 41.820312 " fill-opacity="1" fill-rule="nonzero"/><path fill="#1d093e" d="M 282.46875 41.316406 L 282.347656 41.316406 C 282.230469 41.28125 282.140625 41.210938 282.082031 41.105469 C 282.023438 40.996094 282.007812 40.886719 282.039062 40.769531 C 282.457031 39.296875 282.402344 38.574219 280.945312 37.707031 C 280.828125 37.652344 280.75 37.5625 280.714844 37.441406 C 280.675781 37.316406 280.6875 37.199219 280.753906 37.089844 C 280.816406 36.980469 280.914062 36.910156 281.035156 36.882812 C 281.160156 36.855469 281.277344 36.875 281.382812 36.949219 C 283.300781 38.046875 283.402344 39.273438 282.90625 41.007812 C 282.835938 41.21875 282.691406 41.324219 282.46875 41.316406 Z M 282.46875 41.316406 " fill-opacity="1" fill-rule="nonzero"/><path fill="#1d093e" d="M 262.964844 46.15625 C 261.722656 46.121094 260.648438 45.683594 259.738281 44.839844 C 259.417969 44.429688 259.304688 43.96875 259.398438 43.457031 C 259.59375 42.886719 259.914062 42.398438 260.363281 41.996094 C 260.941406 41.460938 261.402344 40.835938 261.738281 40.121094 C 262.074219 39.410156 262.269531 38.660156 262.316406 37.871094 C 262.316406 37.75 262.359375 37.644531 262.445312 37.558594 C 262.53125 37.476562 262.632812 37.433594 262.753906 37.433594 C 262.878906 37.433594 262.980469 37.480469 263.066406 37.566406 C 263.152344 37.65625 263.195312 37.757812 263.195312 37.882812 C 263.144531 38.777344 262.933594 39.632812 262.554688 40.441406 C 262.175781 41.253906 261.65625 41.96875 261 42.578125 C 260.683594 42.875 260.433594 43.21875 260.253906 43.609375 C 260.199219 43.863281 260.253906 44.09375 260.40625 44.300781 C 261.160156 44.9375 262.03125 45.265625 263.019531 45.277344 C 263.140625 45.289062 263.238281 45.34375 263.316406 45.4375 C 263.394531 45.53125 263.425781 45.640625 263.414062 45.761719 C 263.40625 45.875 263.355469 45.972656 263.269531 46.050781 C 263.183594 46.125 263.082031 46.160156 262.964844 46.15625 Z M 262.964844 46.15625 " fill-opacity="1" fill-rule="nonzero"/><path fill="#1d093e" d="M 271.574219 35.238281 L 271.453125 35.46875 L 271.300781 35.535156 C 270.3125 35.894531 269.480469 35.039062 268.601562 34.808594 C 267.921875 34.683594 267.269531 34.765625 266.640625 35.050781 C 266.550781 35.074219 266.464844 35.074219 266.375 35.050781 L 266.1875 34.875 C 266.171875 34.789062 266.171875 34.699219 266.1875 34.613281 C 266.253906 34.457031 266.277344 34.46875 266.441406 34.402344 C 268.953125 33.304688 269.863281 34.886719 270.828125 35.117188 C 271.003906 35.152344 271.179688 35.152344 271.355469 35.117188 Z M 271.574219 35.238281 " fill-opacity="1" fill-rule="evenodd"/><path fill="#1d093e" d="M 268.285156 34.238281 C 268.507812 34.3125 268.691406 34.445312 268.832031 34.636719 C 268.96875 34.828125 269.039062 35.042969 269.039062 35.28125 C 269.039062 35.519531 268.96875 35.734375 268.832031 35.925781 C 268.691406 36.117188 268.507812 36.25 268.285156 36.324219 C 268.058594 36.25 267.878906 36.117188 267.738281 35.925781 C 267.597656 35.734375 267.53125 35.519531 267.53125 35.28125 C 267.53125 35.042969 267.597656 34.828125 267.738281 34.636719 C 267.878906 34.445312 268.058594 34.3125 268.285156 34.238281 Z M 268.285156 34.238281 " fill-opacity="1" fill-rule="evenodd"/><path fill="#1d093e" d="M 254.496094 34.347656 C 254.578125 34.320312 254.664062 34.300781 254.746094 34.28125 C 254.746094 34.28125 254.746094 34.28125 255.054688 34.371094 C 255.898438 34.523438 256.722656 33.558594 258.226562 33.898438 C 258.757812 34.035156 259.25 34.265625 259.695312 34.589844 C 259.835938 34.6875 259.859375 34.675781 259.890625 34.851562 L 259.890625 35.105469 C 259.816406 35.105469 259.761719 35.226562 259.671875 35.25 C 259.585938 35.269531 259.507812 35.25 259.367188 35.148438 C 257.445312 33.875 256.667969 35.027344 255.417969 34.90625 C 255.128906 34.886719 254.867188 34.789062 254.636719 34.613281 C 254.515625 34.480469 254.539062 34.46875 254.496094 34.347656 Z M 254.496094 34.347656 " fill-opacity="1" fill-rule="evenodd"/><path fill="#1d093e" d="M 257.929688 34.050781 C 257.664062 34.027344 257.425781 34.09375 257.210938 34.257812 C 257 34.417969 256.875 34.632812 256.832031 34.898438 C 256.78125 35.15625 256.828125 35.394531 256.976562 35.613281 C 257.125 35.832031 257.328125 35.96875 257.589844 36.019531 C 257.847656 36.070312 258.085938 36.019531 258.304688 35.871094 C 258.523438 35.722656 258.660156 35.519531 258.707031 35.257812 C 258.738281 35.128906 258.738281 34.996094 258.714844 34.863281 C 258.691406 34.730469 258.644531 34.605469 258.570312 34.492188 C 258.496094 34.378906 258.40625 34.285156 258.292969 34.207031 C 258.183594 34.132812 258.0625 34.078125 257.929688 34.050781 Z M 257.929688 34.050781 " fill-opacity="1" fill-rule="evenodd"/><path fill="#f3fafc" d="M 258.992188 48.746094 C 261.316406 48.804688 263.640625 48.742188 265.957031 48.558594 C 266.085938 49.027344 266.101562 49.496094 266.003906 49.96875 C 265.902344 50.445312 265.703125 50.871094 265.398438 51.246094 C 263.710938 53.363281 258.039062 52.785156 258.761719 49.050781 " fill-opacity="1" fill-rule="evenodd"/><path fill="#200b3e" d="M 272.070312 30.816406 C 271.980469 30.902344 271.894531 31 271.792969 31.089844 L 271.445312 31.089844 C 270.902344 31.097656 270.371094 31.023438 269.851562 30.871094 C 269.554688 30.796875 269.261719 30.710938 268.976562 30.605469 C 268.652344 30.4375 268.308594 30.390625 267.949219 30.460938 C 267.59375 30.53125 267.292969 30.703125 267.054688 30.980469 C 266.714844 31.308594 266.648438 31.1875 266.199219 30.980469 L 266.003906 30.550781 C 266.003906 30.246094 266.003906 30.246094 266.253906 30.015625 C 266.449219 29.777344 266.679688 29.582031 266.941406 29.425781 C 267.203125 29.269531 267.484375 29.160156 267.78125 29.097656 C 268.082031 29.039062 268.382812 29.027344 268.683594 29.070312 C 268.988281 29.113281 269.273438 29.203125 269.546875 29.34375 C 270.277344 29.78125 271.039062 30.144531 271.839844 30.441406 C 272.003906 30.585938 271.9375 30.671875 272.070312 30.816406 Z M 272.070312 30.816406 " fill-opacity="1" fill-rule="evenodd"/><path fill="#200b3e" d="M 254.320312 29.816406 C 254.582031 29.617188 254.570312 29.585938 254.660156 29.585938 C 255.460938 29.371094 256.246094 29.117188 257.019531 28.816406 C 257.292969 28.734375 257.570312 28.699219 257.855469 28.707031 C 258.140625 28.714844 258.417969 28.769531 258.683594 28.867188 C 258.953125 28.964844 259.195312 29.105469 259.417969 29.285156 C 259.640625 29.464844 259.828125 29.675781 259.980469 29.914062 C 260.132812 30.15625 260.167969 30.15625 260.121094 30.429688 L 259.871094 30.824219 C 259.726562 30.824219 259.574219 30.957031 259.421875 30.925781 C 259.070312 30.925781 259.125 30.769531 258.882812 30.519531 C 258.214844 29.828125 257.632812 30.058594 256.984375 30.144531 C 256.1875 30.324219 255.390625 30.324219 254.59375 30.144531 C 254.429688 29.980469 254.441406 29.96875 254.320312 29.816406 Z M 254.320312 29.816406 " fill-opacity="1" fill-rule="evenodd"/><path fill="#dd6859" d="M 346.269531 149.238281 C 346.269531 149.238281 354.222656 139 342.800781 117.492188 L 322.34375 123.617188 Z M 346.269531 149.238281 " fill-opacity="1" fill-rule="evenodd"/><path fill="#2b4464" d="M 322.871094 124.714844 L 344.492188 118.226562 C 344.492188 118.226562 329.714844 82.34375 325.6875 76.574219 L 315.167969 70.945312 L 314.871094 123.800781 Z M 322.871094 124.714844 " fill-opacity="1" fill-rule="evenodd"/><path fill="#f69b86" d="M 275.394531 106.894531 C 276.984375 107.640625 278.761719 108.394531 280.878906 109.164062 C 285.066406 110.359375 301.0625 114.9375 332.765625 125.503906 C 347.78125 130.519531 349.066406 137.574219 349.371094 139.320312 C 350.074219 143.269531 347.816406 149.195312 347.464844 149.5 C 336.976562 158.421875 311.351562 142.128906 310.078125 141.402344 C 289.949219 129.816406 280.351562 122.816406 273.40625 120.160156 C 272.824219 119.941406 272.308594 119.742188 271.71875 119.578125 C 271.125 119.414062 270.402344 118.984375 269.820312 118.742188 C 270.667969 114.355469 271.808594 110.046875 273.242188 105.816406 C 273.910156 106.167969 274.636719 106.53125 275.394531 106.894531 Z M 275.394531 106.894531 " fill-opacity="1" fill-rule="evenodd"/><path fill="#f69b86" d="M 275.394531 106.894531 C 276.324219 107.464844 277.433594 108.101562 278.804688 108.855469 C 277.160156 114.34375 277.335938 114.421875 274.363281 119.402344 L 273.386719 120.160156 C 272.804688 119.941406 272.289062 119.742188 271.695312 119.578125 C 271.105469 119.414062 270.378906 118.984375 269.796875 118.742188 C 262.886719 115.878906 262.710938 117.996094 255.066406 117.460938 C 248.144531 116.976562 250.601562 114.507812 250.777344 114.3125 C 250.953125 114.113281 248.582031 113.214844 248.472656 112.421875 C 248.242188 111.074219 249.820312 109.898438 250.0625 109.769531 C 249.832031 109.65625 247.398438 108.089844 247.519531 107.441406 C 247.714844 106.34375 249.933594 105.980469 250.140625 105.9375 C 250.578125 105.839844 247.035156 104.359375 247.804688 103.742188 C 251.226562 100.8125 262.492188 102.074219 264.675781 102.25 C 264.378906 101.660156 262.359375 98.585938 263.5 96.371094 C 264.742188 93.964844 264.796875 94.625 266.308594 96.742188 C 270.71875 102.867188 270.960938 104.148438 275.394531 106.894531 Z M 275.394531 106.894531 " fill-opacity="1" fill-rule="evenodd"/><path fill="#200b3e" d="M 260.320312 106.5625 L 260.265625 106.5625 C 257.070312 106.085938 253.867188 106.007812 250.65625 106.332031 C 250.535156 106.34375 250.425781 106.308594 250.335938 106.230469 C 250.242188 106.152344 250.1875 106.054688 250.179688 105.933594 C 250.167969 105.8125 250.203125 105.703125 250.28125 105.609375 C 250.359375 105.519531 250.457031 105.464844 250.578125 105.457031 C 253.851562 105.117188 257.113281 105.195312 260.363281 105.6875 C 260.484375 105.703125 260.582031 105.757812 260.660156 105.855469 C 260.734375 105.949219 260.769531 106.058594 260.757812 106.179688 C 260.742188 106.289062 260.695312 106.378906 260.609375 106.453125 C 260.527344 106.523438 260.429688 106.5625 260.320312 106.5625 Z M 260.320312 106.5625 " fill-opacity="1" fill-rule="nonzero"/><path fill="#200b3e" d="M 259.726562 110.449219 C 256.707031 110.078125 253.675781 110.03125 250.644531 110.304688 C 250.527344 110.308594 250.421875 110.273438 250.332031 110.195312 C 250.238281 110.117188 250.1875 110.019531 250.171875 109.898438 C 250.164062 109.777344 250.199219 109.667969 250.277344 109.574219 C 250.355469 109.480469 250.457031 109.429688 250.578125 109.417969 C 253.664062 109.144531 256.742188 109.195312 259.816406 109.570312 C 259.9375 109.570312 260.039062 109.613281 260.125 109.699219 C 260.210938 109.785156 260.253906 109.886719 260.253906 110.007812 C 260.253906 110.128906 260.210938 110.234375 260.125 110.320312 C 260.039062 110.40625 259.9375 110.449219 259.816406 110.449219 Z M 259.726562 110.449219 " fill-opacity="1" fill-rule="nonzero"/><path fill="#200b3e" d="M 251.09375 114.835938 C 250.871094 114.835938 250.726562 114.726562 250.667969 114.507812 C 250.640625 114.390625 250.65625 114.277344 250.71875 114.175781 C 250.777344 114.070312 250.867188 114.003906 250.984375 113.96875 C 254.167969 113.136719 254.5625 113.203125 256.808594 113.542969 L 257.601562 113.664062 C 257.71875 113.683594 257.816406 113.742188 257.890625 113.839844 C 257.960938 113.9375 257.988281 114.046875 257.972656 114.167969 C 257.953125 114.289062 257.894531 114.382812 257.796875 114.453125 C 257.695312 114.523438 257.585938 114.550781 257.46875 114.53125 L 256.679688 114.421875 C 254.484375 114.082031 254.210938 114.035156 251.195312 114.828125 Z M 251.09375 114.835938 " fill-opacity="1" fill-rule="nonzero"/><path fill="#200b3e" d="M 267.320312 105.015625 C 267.238281 105.015625 267.167969 104.996094 267.097656 104.949219 L 266.363281 104.542969 C 265.695312 104.226562 265.152344 103.757812 264.742188 103.140625 L 264.410156 102.746094 C 264.335938 102.652344 264.300781 102.546875 264.3125 102.425781 C 264.324219 102.304688 264.375 102.207031 264.46875 102.128906 C 264.550781 102.042969 264.652344 102 264.773438 102 C 264.894531 102 264.996094 102.042969 265.082031 102.128906 L 265.421875 102.535156 C 265.765625 103.0625 266.222656 103.457031 266.792969 103.722656 L 267.539062 104.148438 C 267.644531 104.210938 267.714844 104.296875 267.746094 104.417969 C 267.777344 104.535156 267.765625 104.648438 267.703125 104.753906 C 267.625 104.914062 267.496094 105 267.320312 105.015625 Z M 267.320312 105.015625 " fill-opacity="1" fill-rule="nonzero"/><path fill="#2b4464" d="M 281.007812 108.023438 C 281.5 108.167969 281.867188 108.46875 282.105469 108.921875 C 282.335938 109.367188 282.375 109.828125 282.214844 110.304688 L 278.574219 121.5 C 278.5 121.726562 278.382812 121.933594 278.226562 122.117188 C 278.070312 122.300781 277.886719 122.449219 277.667969 122.558594 C 277.453125 122.667969 277.226562 122.730469 276.984375 122.75 C 276.746094 122.765625 276.511719 122.738281 276.28125 122.660156 L 274.84375 122.199219 C 274.617188 122.125 274.410156 122.007812 274.230469 121.851562 C 274.046875 121.691406 273.902344 121.507812 273.792969 121.292969 C 273.683594 121.078125 273.621094 120.851562 273.601562 120.609375 C 273.582031 120.371094 273.609375 120.136719 273.679688 119.90625 C 274.601562 117.097656 276.414062 111.535156 277.324219 108.714844 C 277.476562 108.222656 277.78125 107.859375 278.234375 107.617188 C 278.679688 107.390625 279.140625 107.355469 279.617188 107.507812 Z M 281.007812 108.023438 " fill-opacity="1" fill-rule="evenodd"/><path fill="#f3fafc" d="M 277.851562 111.742188 C 278.34375 111.75 278.820312 111.855469 279.273438 112.050781 C 279.730469 112.25 280.128906 112.527344 280.472656 112.882812 C 280.816406 113.242188 281.082031 113.648438 281.261719 114.109375 C 281.445312 114.570312 281.53125 115.050781 281.523438 115.546875 C 281.515625 116.042969 281.414062 116.519531 281.214844 116.972656 C 281.019531 117.425781 280.742188 117.828125 280.386719 118.171875 C 280.03125 118.515625 279.621094 118.78125 279.160156 118.964844 C 278.699219 119.144531 278.222656 119.234375 277.726562 119.226562 C 277.230469 119.21875 276.753906 119.117188 276.300781 118.917969 C 275.84375 118.722656 275.445312 118.445312 275.097656 118.089844 C 274.753906 117.734375 274.488281 117.324219 274.308594 116.863281 C 274.125 116.402344 274.035156 115.925781 274.042969 115.429688 C 274.050781 114.933594 274.152344 114.453125 274.347656 113.996094 C 274.542969 113.539062 274.820312 113.140625 275.179688 112.792969 C 275.535156 112.445312 275.945312 112.183594 276.410156 112 C 276.871094 111.820312 277.351562 111.734375 277.851562 111.742188 Z M 277.851562 111.742188 " fill-opacity="1" fill-rule="evenodd"/><path fill="#2b4464" d="M 277.804688 120.09375 L 277.742188 120.09375 C 277.4375 120.089844 277.136719 120.054688 276.839844 119.992188 C 276.542969 119.929688 276.257812 119.839844 275.976562 119.71875 C 275.699219 119.597656 275.433594 119.453125 275.183594 119.28125 C 274.933594 119.109375 274.703125 118.914062 274.492188 118.699219 C 274.28125 118.480469 274.09375 118.246094 273.925781 117.988281 C 273.761719 117.734375 273.625 117.46875 273.511719 117.1875 C 273.398438 116.902344 273.316406 116.613281 273.257812 116.316406 C 273.203125 116.015625 273.179688 115.714844 273.183594 115.414062 C 273.1875 115.109375 273.21875 114.808594 273.28125 114.511719 C 273.347656 114.214844 273.4375 113.929688 273.558594 113.648438 C 273.675781 113.371094 273.824219 113.105469 273.992188 112.855469 C 274.164062 112.605469 274.359375 112.375 274.578125 112.164062 C 274.792969 111.953125 275.03125 111.765625 275.285156 111.597656 C 275.539062 111.433594 275.808594 111.296875 276.089844 111.183594 C 276.371094 111.070312 276.660156 110.984375 276.957031 110.929688 C 277.257812 110.875 277.558594 110.851562 277.859375 110.855469 C 278.164062 110.855469 278.464844 110.882812 278.761719 110.941406 C 279.058594 111.003906 279.347656 111.089844 279.628906 111.207031 C 279.910156 111.320312 280.175781 111.464844 280.425781 111.632812 C 280.679688 111.800781 280.910156 111.992188 281.125 112.207031 C 281.339844 112.421875 281.53125 112.65625 281.699219 112.90625 C 281.871094 113.160156 282.011719 113.425781 282.128906 113.707031 C 282.242188 113.984375 282.332031 114.273438 282.390625 114.574219 C 282.449219 114.871094 282.480469 115.171875 282.480469 115.472656 C 282.480469 115.777344 282.449219 116.078125 282.390625 116.375 C 282.332031 116.671875 282.242188 116.960938 282.128906 117.242188 C 282.011719 117.523438 281.871094 117.789062 281.699219 118.039062 C 281.53125 118.292969 281.339844 118.527344 281.125 118.742188 C 280.910156 118.953125 280.679688 119.144531 280.425781 119.316406 C 280.175781 119.484375 279.910156 119.625 279.628906 119.742188 C 279.347656 119.859375 279.058594 119.945312 278.761719 120.003906 C 278.464844 120.0625 278.164062 120.09375 277.859375 120.09375 Z M 277.804688 112.621094 C 277.230469 112.617188 276.703125 112.773438 276.222656 113.089844 C 275.742188 113.410156 275.390625 113.832031 275.164062 114.363281 C 274.941406 114.890625 274.882812 115.441406 274.988281 116.003906 C 275.097656 116.570312 275.351562 117.058594 275.753906 117.472656 C 276.304688 118.042969 276.976562 118.328125 277.773438 118.328125 C 278.152344 118.332031 278.515625 118.265625 278.867188 118.125 C 279.21875 117.984375 279.53125 117.785156 279.804688 117.519531 C 280.074219 117.253906 280.285156 116.949219 280.433594 116.601562 C 280.585938 116.253906 280.664062 115.890625 280.667969 115.511719 C 280.671875 115.132812 280.605469 114.769531 280.464844 114.417969 C 280.324219 114.066406 280.121094 113.753906 279.859375 113.480469 C 279.59375 113.210938 279.289062 113 278.941406 112.851562 C 278.589844 112.703125 278.226562 112.625 277.851562 112.621094 Z M 277.804688 112.621094 " fill-opacity="1" fill-rule="nonzero"/><path fill="#2b4464" d="M 289.773438 109.582031 L 282.546875 128.433594 C 282.546875 128.433594 314.476562 147.757812 329.550781 152.144531 C 329.550781 152.144531 343.261719 156.261719 348.582031 149.566406 C 349.570312 147.269531 350.1875 144.875 350.441406 142.382812 C 350.699219 139.894531 350.574219 137.425781 350.074219 134.972656 L 344.390625 118.207031 L 314.882812 119.414062 Z M 289.773438 109.582031 " fill-opacity="1" fill-rule="evenodd"/><path fill="#2b4464" d="M 184.410156 86.308594 L 202.257812 81.3125 L 211.660156 107.519531 L 225.109375 130.5625 L 224.722656 150.839844 C 224.722656 150.839844 214.117188 165.347656 201.949219 153.59375 C 201.949219 153.496094 191.769531 153.035156 184.410156 86.308594 Z M 184.410156 86.308594 " fill-opacity="1" fill-rule="evenodd"/><path fill="#200b3e" d="M 223.8125 151.664062 L 223.726562 151.664062 C 223.542969 151.636719 223.398438 151.550781 223.289062 151.40625 C 223.175781 151.261719 223.132812 151.097656 223.15625 150.917969 C 223.230469 150.304688 223.308594 149.820312 223.375 149.304688 C 223.671875 147.253906 223.957031 145.308594 224.757812 135.039062 C 224.789062 134.871094 224.871094 134.734375 225.007812 134.628906 C 225.144531 134.523438 225.296875 134.476562 225.46875 134.492188 C 225.640625 134.507812 225.785156 134.578125 225.902344 134.703125 C 226.019531 134.828125 226.082031 134.976562 226.082031 135.148438 C 225.273438 145.464844 224.988281 147.417969 224.691406 149.492188 C 224.613281 149.984375 224.546875 150.480469 224.472656 151.09375 C 224.445312 151.257812 224.371094 151.390625 224.246094 151.5 C 224.121094 151.609375 223.976562 151.664062 223.8125 151.664062 Z M 223.8125 151.664062 " fill-opacity="1" fill-rule="nonzero"/><path fill="#200b3e" d="M 328.769531 124.382812 C 328.664062 124.386719 328.558594 124.359375 328.464844 124.308594 C 319.085938 119.511719 309.925781 116.734375 298 113.335938 C 297.808594 113.296875 297.660156 113.195312 297.558594 113.027344 C 297.457031 112.859375 297.429688 112.683594 297.484375 112.496094 C 297.539062 112.304688 297.652344 112.167969 297.824219 112.078125 C 298 111.992188 298.179688 111.980469 298.363281 112.050781 C 310.351562 115.472656 319.578125 118.273438 329.078125 123.132812 C 329.242188 123.214844 329.355469 123.339844 329.410156 123.515625 C 329.464844 123.691406 329.449219 123.859375 329.363281 124.023438 C 329.246094 124.269531 329.046875 124.390625 328.769531 124.382812 Z M 328.769531 124.382812 " fill-opacity="1" fill-rule="nonzero"/><path fill="#200b3e" d="M 315.75 147.011719 C 315.664062 147.03125 315.574219 147.03125 315.488281 147.011719 C 311.152344 145.253906 306.949219 143.230469 302.871094 140.941406 L 302.125 140.527344 C 301.96875 140.433594 301.863281 140.296875 301.816406 140.121094 C 301.765625 139.945312 301.785156 139.777344 301.875 139.613281 C 301.960938 139.457031 302.09375 139.351562 302.269531 139.300781 C 302.445312 139.253906 302.613281 139.273438 302.773438 139.363281 L 303.519531 139.789062 C 307.558594 142.050781 311.722656 144.050781 316.011719 145.792969 C 316.183594 145.867188 316.300781 145.988281 316.371094 146.160156 C 316.4375 146.332031 316.4375 146.5 316.363281 146.671875 C 316.230469 146.914062 316.027344 147.027344 315.75 147.011719 Z M 315.75 147.011719 " fill-opacity="1" fill-rule="nonzero"/></svg>