<svg xmlns="http://www.w3.org/2000/svg" xmlns:xlink="http://www.w3.org/1999/xlink" width="666" zoomAndPan="magnify" viewBox="0 0 499.5 473.999983" height="632" preserveAspectRatio="xMidYMid meet" version="1.0"><defs><clipPath id="fb7b104723"><path d="M 318 160 L 382.71875 160 L 382.71875 299 L 318 299 Z M 318 160 " clip-rule="nonzero"/></clipPath></defs><path fill="#a3e635" d="M 31.507812 353.277344 C 33.453125 361.941406 38.410156 371.441406 46.621094 381.800781 C 46.8125 382.039062 46.949219 382.300781 47.035156 382.574219 C 47.058594 382.640625 47.101562 382.691406 47.15625 382.722656 L 47.160156 382.738281 C 67.917969 406.535156 102.023438 439.542969 137.664062 455.804688 C 171.550781 471.265625 199.582031 473.035156 222 462.558594 L 222.003906 462.554688 C 229.078125 459.25 236.515625 455.585938 243.277344 449.855469 C 284.734375 414.726562 310.234375 393.785156 320.144531 389.191406 C 320.222656 389.152344 320.277344 389.082031 320.289062 389 L 320.292969 389.015625 C 320.480469 388.753906 320.679688 388.558594 320.816406 388.429688 L 320.859375 388.378906 L 320.859375 388.390625 C 324.734375 384.894531 354.511719 372.800781 408.179688 351.007812 L 413.148438 348.992188 L 440.554688 337.855469 C 456.246094 331.472656 468.511719 323.027344 476.175781 313.269531 C 492.144531 292.929688 497.992188 272.625 493.617188 253.125 C 490.324219 238.457031 481.257812 224.273438 466.425781 210.898438 C 454.773438 200.390625 436.410156 194.691406 413.324219 191.019531 C 412.847656 190.945312 412.421875 190.730469 412.082031 190.421875 L 412.085938 190.441406 C 412.046875 190.359375 411.96875 190.300781 411.875 190.292969 C 407.953125 189.878906 394.972656 189.851562 372.078125 189.84375 L 372.015625 189.84375 C 352.777344 189.839844 326.90625 189.832031 294.425781 189.515625 C 269.304688 189.269531 249.460938 183.058594 234.414062 176.957031 C 219.78125 171.023438 203.847656 162.792969 190.316406 148.273438 L 186.285156 143.945312 L 182.425781 139.800781 C 127.351562 80.691406 98.714844 50.28125 92.671875 48.300781 L 92.675781 48.320312 C 92.628906 48.269531 92.558594 48.238281 92.480469 48.238281 C 91.976562 48.253906 91.480469 48.105469 91.0625 47.824219 C 67.226562 31.636719 47.378906 27.234375 31.761719 34.730469 C 10.777344 44.800781 0.40625 64.273438 0.925781 92.230469 C 1.023438 97.566406 1.5625 102.804688 2.691406 107.84375 C 3.289062 110.507812 4.054688 113.113281 5.003906 115.648438 C 24.308594 167.105469 35.480469 202.40625 39.761719 221.488281 C 40.464844 224.625 40.980469 227.3125 41.320312 229.570312 L 41.324219 229.589844 C 41.324219 229.601562 41.324219 229.613281 41.328125 229.625 C 44.050781 247.980469 38.6875 284.496094 34.644531 311.984375 L 34.578125 312.449219 L 34.574219 312.449219 L 34.5625 312.53125 C 32.285156 328.039062 30.46875 340.464844 30.566406 345.6875 C 30.613281 348.140625 30.921875 350.671875 31.507812 353.277344 Z M 31.507812 353.277344 " fill-opacity="1" fill-rule="nonzero"/><path fill="#000000" d="M 32.234375 328.746094 C 44.144531 356.539062 65.726562 397.09375 93.703125 422.546875 C 120.0625 446.53125 145.046875 456.289062 168.457031 453.300781 C 175.882812 452.351562 183.707031 451.1875 191.519531 447.953125 C 242.09375 426.996094 272.03125 415.171875 280.910156 414.949219 L 279.296875 419.460938 C 278.304688 418.609375 277.769531 416.886719 278.980469 415.480469 L 278.984375 415.480469 C 279.40625 414.988281 279.917969 414.722656 280.191406 414.59375 C 284.75 412.445312 317.3125 410.035156 376.035156 405.589844 L 404.285156 403.445312 C 420.4375 402.214844 434.050781 398.101562 443.847656 391.472656 C 479.726562 367.191406 487.164062 334.011719 464.808594 295.574219 C 457.289062 282.648438 442.261719 272.109375 422.285156 262.015625 C 421.285156 261.511719 420.726562 260.417969 420.90625 259.3125 C 421.085938 258.207031 421.960938 257.34375 423.066406 257.179688 C 424.132812 257.023438 420.8125 257.109375 421.226562 259.90625 C 421.40625 261.140625 422.433594 261.621094 422.050781 261.371094 C 420.378906 260.269531 408.367188 256.382812 385.035156 248.898438 C 367.460938 243.261719 343.890625 235.699219 314.300781 225.894531 C 291.417969 218.316406 275.105469 206.828125 263.148438 196.851562 C 251.523438 187.148438 239.367188 174.960938 231.246094 157.707031 L 228.835938 152.585938 L 226.523438 147.675781 C 193.070312 76.597656 175.867188 40.585938 171.292969 37.941406 C 171.28125 37.9375 171.363281 37.984375 171.511719 38.019531 C 170.953125 37.882812 170.457031 37.5625 170.101562 37.109375 C 153.109375 15.402344 136.375 5.671875 120.070312 7.925781 C 98.105469 10.960938 83.015625 25.601562 75.335938 51.183594 C 73.09375 58.648438 71.859375 66.203125 72.222656 73.65625 C 75.210938 134.945312 74.542969 172.996094 72.03125 188.292969 C 69.125 205.976562 53.371094 238.023438 41.636719 261.9375 C 35 275.464844 29.707031 286.273438 28.277344 291.046875 C 25.375 300.71875 26.566406 313.136719 32.359375 328.523438 C 32.859375 329.851562 32.1875 331.332031 30.859375 331.832031 C 29.53125 332.332031 28.050781 331.660156 27.550781 330.335938 C 21.5625 314.425781 19.996094 300.761719 23.355469 289.570312 C 24.945312 284.269531 30.527344 272.917969 37.023438 259.675781 C 48.957031 235.355469 64.210938 204.191406 66.960938 187.460938 C 69.371094 172.789062 70.082031 135.269531 67.089844 73.90625 C 66.691406 65.722656 68.054688 57.570312 70.414062 49.707031 C 78.523438 22.695312 94.941406 6.210938 119.367188 2.835938 C 138.460938 0.195312 156.8125 11.792969 174.148438 33.941406 L 172.738281 33.03125 C 173.171875 33.136719 173.550781 33.3125 173.863281 33.492188 C 180.289062 37.207031 198.5 76.070312 231.171875 145.488281 L 233.484375 150.394531 L 235.894531 155.519531 C 243.558594 171.804688 255.078125 183.425781 266.441406 192.90625 C 278.097656 202.628906 293.847656 213.707031 315.917969 221.019531 C 345.503906 230.820312 369.011719 238.363281 386.605469 244.007812 C 409.203125 251.253906 422.429688 255.464844 424.878906 257.082031 C 424.875 257.078125 426.101562 257.761719 426.308594 259.15625 C 426.75 262.140625 423.210938 262.351562 423.816406 262.265625 L 424.601562 257.429688 C 444.703125 267.585938 460.925781 278.6875 469.25 292.992188 C 492.925781 333.699219 484.90625 369.886719 446.726562 395.726562 C 435.964844 403.007812 421.402344 407.292969 404.675781 408.566406 L 376.421875 410.710938 C 316.605469 415.242188 285.800781 417.628906 282.386719 419.242188 C 282.316406 419.273438 282.585938 419.167969 282.871094 418.839844 L 282.871094 418.835938 C 283.875 417.675781 283.367188 416.191406 282.652344 415.574219 C 283.457031 416.265625 283.75 417.382812 283.394531 418.382812 C 283.035156 419.382812 282.101562 420.058594 281.039062 420.085938 C 273.414062 420.277344 244.835938 431.421875 193.484375 452.699219 C 184.984375 456.222656 176.558594 457.445312 169.109375 458.398438 C 143.65625 461.648438 117.230469 450.902344 90.246094 426.347656 C 61.4375 400.140625 39.503906 358.757812 27.511719 330.769531 C 26.953125 329.464844 27.558594 327.957031 28.863281 327.398438 C 30.167969 326.839844 31.675781 327.441406 32.234375 328.746094 Z M 32.234375 328.746094 " fill-opacity="1" fill-rule="nonzero"/><path fill="#f6b28d" d="M 186.476562 309 C 186.476562 309 189.640625 311.203125 195.09375 313.851562 C 201.296875 319.644531 195.992188 323.113281 195.992188 323.113281 C 195.992188 323.113281 167.558594 344.070312 183.390625 384.675781 C 183.390625 384.675781 190.472656 401.867188 201.699219 388.8125 C 201.699219 388.8125 211.585938 346.210938 254.839844 323.8125 C 254.839844 323.8125 278.007812 313.480469 291.785156 295.960938 C 294.871094 292.925781 297.777344 289.605469 300.238281 286.003906 L 323.347656 286.003906 L 323.347656 174.980469 L 298.835938 174.980469 C 298.835938 174.980469 293.664062 170.277344 277.8125 164.84375 C 277.8125 164.84375 221.875 142.054688 169.199219 156.746094 L 169.199219 303.242188 L 186.476562 309 " fill-opacity="1" fill-rule="nonzero"/><path fill="#e89a81" d="M 172.238281 158.605469 C 172.238281 158.605469 166.917969 169.085938 188.609375 169.933594 C 197.152344 170.84375 209.289062 171.09375 215.820312 171.601562 C 223.722656 172.226562 229.550781 171.585938 233.757812 179.042969 C 236.707031 184.296875 236.796875 189.285156 235.679688 195 C 234.769531 199.570312 231.085938 201.175781 230.65625 205.761719 C 232.296875 210.824219 232.964844 216.285156 232.460938 221.582031 C 232.207031 224.054688 231.667969 226.4375 230.9375 228.789062 C 230.015625 231.71875 227.925781 233.699219 229.582031 236.824219 C 230.953125 239.402344 232.234375 241.351562 233.039062 244.28125 C 237.855469 261.726562 226.210938 262.085938 230.402344 269.914062 C 255.136719 316.191406 168.230469 306.039062 168.230469 306.039062 C 168.230469 306.039062 116.03125 306.171875 138.4375 265.878906 C 138.4375 265.878906 133.519531 264.332031 133.5625 256.234375 C 133.5625 253.777344 138.363281 233.507812 139.035156 230.679688 C 139.035156 230.679688 138.125 153.664062 172.238281 158.605469 " fill-opacity="1" fill-rule="nonzero"/><path fill="#f6b28d" d="M 171.671875 171.765625 C 191.113281 177.390625 216.953125 176.765625 216.953125 176.765625 C 227.152344 177.703125 227.792969 189.597656 227.792969 189.597656 C 227.792969 204.867188 211.855469 204.617188 211.855469 204.617188 C 171.984375 206.492188 151.722656 197.589844 151.722656 197.589844 C 151.722656 197.589844 135.652344 192.664062 140.734375 175.828125 C 140.734375 175.828125 141.851562 160.617188 179.53125 154.664062 C 179.53125 154.664062 156.046875 164.441406 170.660156 171.511719 " fill-opacity="1" fill-rule="nonzero"/><path fill="#f6b28d" d="M 142.972656 196.933594 C 172.300781 211.269531 211.855469 207.769531 211.855469 207.769531 C 226.839844 209.347656 225.570312 222.402344 225.570312 222.402344 C 225.585938 234.949219 207.710938 234.832031 207.710938 234.832031 C 166.917969 234.949219 142.628906 228.355469 142.628906 228.355469 C 132.714844 224.113281 136.261719 209.363281 136.261719 209.363281 C 136.261719 209.363281 139.140625 199.167969 142.972656 196.933594 " fill-opacity="1" fill-rule="nonzero"/><path fill="#f6b28d" d="M 139.035156 230.679688 C 171.089844 243.894531 212.761719 237.554688 212.761719 237.554688 C 228.746094 238.238281 228.269531 252.171875 228.269531 252.171875 C 229.132812 265.449219 210.167969 266.503906 210.167969 266.503906 C 166.945312 269.363281 140.78125 263.988281 140.78125 263.988281 C 130 260.148438 132.773438 244.28125 132.773438 244.28125 C 132.773438 244.28125 135.128906 233.296875 139.035156 230.679688 " fill-opacity="1" fill-rule="nonzero"/><path fill="#f6b28d" d="M 138.4375 265.878906 C 170.941406 277.980469 212.359375 270.183594 212.359375 270.183594 C 228.375 270.300781 228.375 284.234375 228.375 284.234375 C 229.714844 297.480469 210.796875 299.207031 210.796875 299.207031 C 167.707031 303.566406 141.347656 299.101562 141.347656 299.101562 C 130.449219 295.648438 132.652344 279.691406 132.652344 279.691406 C 132.652344 279.691406 134.636719 268.632812 138.4375 265.878906 " fill-opacity="1" fill-rule="nonzero"/><g clip-path="url(#fb7b104723)"><path fill="#173651" d="M 382.808594 160.648438 L 382.808594 298.074219 L 318.351562 298.074219 L 318.351562 160.648438 L 382.808594 160.648438 " fill-opacity="1" fill-rule="nonzero"/></g><path fill="#ffffff" d="M 350.589844 175.859375 C 355.375 175.859375 359.25 179.726562 359.25 184.507812 C 359.25 189.285156 355.375 193.167969 350.589844 193.167969 C 345.800781 193.167969 341.910156 189.285156 341.910156 184.507812 C 341.910156 179.726562 345.800781 175.859375 350.589844 175.859375 " fill-opacity="1" fill-rule="nonzero"/></svg>