<svg xmlns="http://www.w3.org/2000/svg" xmlns:xlink="http://www.w3.org/1999/xlink" width="1072" zoomAndPan="magnify" viewBox="0 0 804 546.000001" height="728" preserveAspectRatio="xMidYMid meet" version="1.0"><defs><clipPath id="676ca0fc68"><path d="M 599 0.121094 L 706 0.121094 L 706 93 L 599 93 Z M 599 0.121094 " clip-rule="nonzero"/></clipPath><clipPath id="6740766d74"><path d="M 123 385 L 307 385 L 307 544.371094 L 123 544.371094 Z M 123 385 " clip-rule="nonzero"/></clipPath><clipPath id="88e31700aa"><path d="M 615 142 L 802.515625 142 L 802.515625 306 L 615 306 Z M 615 142 " clip-rule="nonzero"/></clipPath><clipPath id="365afd3bf1"><path d="M 539 206 L 757.894531 206 L 757.894531 449 L 539 449 Z M 539 206 " clip-rule="nonzero"/></clipPath><clipPath id="03f6d55f58"><path d="M 528 534 L 556 534 L 556 544.253906 L 528 544.253906 Z M 528 534 " clip-rule="nonzero"/></clipPath><clipPath id="2698dd1ca9"><path d="M 263 534 L 292 534 L 292 544.253906 L 263 544.253906 Z M 263 534 " clip-rule="nonzero"/></clipPath></defs><path fill="#a3e635" d="M 325.195312 293.191406 L 190.738281 293.191406 L 123.511719 409.859375 L 190.738281 526.527344 L 325.195312 526.527344 L 392.421875 409.859375 Z M 325.195312 293.191406 " fill-opacity="1" fill-rule="nonzero"/><path fill="#a3e635" d="M 689.269531 106.910156 L 554.8125 106.910156 L 487.582031 223.578125 L 554.8125 340.246094 L 689.269531 340.246094 L 756.496094 223.578125 Z M 689.269531 106.910156 " fill-opacity="1" fill-rule="nonzero"/><path fill="#a3e635" d="M 95.515625 363.34375 L 42.328125 363.34375 L 15.738281 409.492188 L 42.328125 455.640625 L 95.515625 455.640625 L 122.105469 409.492188 Z M 95.515625 363.34375 " fill-opacity="1" fill-rule="nonzero"/><path fill="#a3e635" d="M 711.613281 371.15625 L 658.429688 371.15625 L 631.835938 417.304688 L 658.429688 463.453125 L 711.613281 463.453125 L 738.203125 417.304688 Z M 711.613281 371.15625 " fill-opacity="1" fill-rule="nonzero"/><g clip-path="url(#676ca0fc68)"><path fill="#a3e635" d="M 679.117188 0.00390625 L 625.933594 0.00390625 L 599.339844 46.152344 L 625.933594 92.300781 L 679.117188 92.300781 L 705.710938 46.152344 Z M 679.117188 0.00390625 " fill-opacity="1" fill-rule="nonzero"/></g><g clip-path="url(#6740766d74)"><path fill="#000000" d="M 306.570312 464.921875 L 260.789062 544.371094 L 169.203125 544.371094 L 123.425781 464.921875 L 169.203125 385.476562 L 260.789062 385.476562 Z M 255.734375 535.617188 L 296.46875 464.921875 L 255.734375 394.226562 L 174.273438 394.226562 L 133.535156 464.921875 L 174.273438 535.617188 Z M 255.734375 535.617188 " fill-opacity="1" fill-rule="nonzero"/></g><path fill="#000000" d="M 428.75 286.507812 L 382.96875 365.957031 L 291.394531 365.957031 L 245.613281 286.507812 L 291.394531 207.0625 L 382.96875 207.0625 Z M 377.910156 357.203125 L 418.648438 286.507812 L 377.910156 215.8125 L 296.453125 215.8125 L 255.714844 286.507812 L 296.453125 357.203125 Z M 377.910156 357.203125 " fill-opacity="1" fill-rule="nonzero"/><g clip-path="url(#88e31700aa)"><path fill="#000000" d="M 802.398438 224 L 755.660156 305.101562 L 662.179688 305.101562 L 615.441406 224 L 662.179688 142.894531 L 755.660156 142.894531 Z M 750.605469 296.347656 L 792.296875 224 L 750.605469 151.644531 L 667.234375 151.644531 L 625.542969 223.992188 L 667.234375 296.347656 Z M 750.605469 296.347656 " fill-opacity="1" fill-rule="nonzero"/></g><path fill="#ffffff" d="M 482.464844 342.503906 L 394.664062 342.503906 L 350.765625 418.691406 L 394.664062 494.875 L 482.464844 494.875 L 526.367188 418.691406 Z M 482.464844 342.503906 " fill-opacity="1" fill-rule="nonzero"/><path fill="#ffffff" d="M 132.824219 197.953125 L 45.023438 197.953125 L 1.121094 274.136719 L 45.023438 350.320312 L 132.824219 350.320312 L 176.722656 274.136719 Z M 132.824219 197.953125 " fill-opacity="1" fill-rule="nonzero"/><path fill="#ffffff" d="M 609.84375 234.414062 L 522.042969 234.414062 L 478.144531 310.601562 L 522.042969 386.785156 L 609.84375 386.785156 L 653.742188 310.601562 Z M 609.84375 234.414062 " fill-opacity="1" fill-rule="nonzero"/><path fill="#403129" d="M 340.976562 501.285156 C 336.972656 504.578125 334.125 509.023438 332.789062 514.089844 L 331.011719 520.757812 C 330.386719 523.246094 332.078125 525.738281 334.660156 526.003906 L 339.996094 526.449219 C 343.910156 526.804688 347.914062 525.914062 351.296875 524.046875 L 371.046875 513.023438 C 373.273438 511.777344 375.140625 510.089844 376.476562 507.957031 L 379.410156 503.332031 L 381.191406 502.53125 L 381.191406 489.105469 L 351.207031 492.75 Z M 340.976562 501.285156 " fill-opacity="1" fill-rule="nonzero"/><path fill="#231f20" d="M 376.476562 502.796875 C 375.140625 504.933594 373.273438 506.710938 371.046875 507.867188 L 351.296875 518.890625 C 347.824219 520.847656 343.910156 521.648438 339.996094 521.292969 L 334.660156 520.847656 C 333.324219 520.757812 332.167969 519.957031 331.457031 518.890625 L 330.921875 520.757812 C 330.296875 523.246094 331.988281 525.738281 334.570312 526.003906 L 339.90625 526.449219 C 343.824219 526.804688 347.824219 525.914062 351.207031 524.046875 L 370.957031 513.023438 C 373.183594 511.777344 375.050781 510.089844 376.386719 507.957031 L 379.320312 503.332031 L 381.101562 502.53125 L 381.101562 497.464844 L 379.320312 498.265625 Z M 376.476562 502.796875 " fill-opacity="0.2" fill-rule="nonzero"/><path fill="#232324" d="M 341.6875 500.664062 L 345.335938 501.375 C 351.386719 502.621094 357.523438 500.84375 362.0625 496.753906 L 368.734375 490.617188 L 351.117188 492.75 Z M 341.6875 500.664062 " fill-opacity="1" fill-rule="nonzero"/><path fill="#403129" d="M 465.800781 514 C 464.46875 509.023438 461.621094 504.578125 457.617188 501.199219 L 447.472656 492.75 L 417.492188 489.105469 L 417.492188 502.53125 L 419.269531 503.332031 L 422.207031 507.957031 C 423.539062 510.089844 425.410156 511.867188 427.632812 513.023438 L 447.382812 524.046875 C 450.855469 526.003906 454.769531 526.804688 458.683594 526.449219 L 464.023438 526.003906 C 466.601562 525.738281 468.382812 523.246094 467.671875 520.757812 Z M 465.800781 514 " fill-opacity="1" fill-rule="nonzero"/><path fill="#231f20" d="M 467.046875 518.890625 C 466.425781 519.957031 465.269531 520.757812 463.84375 520.847656 L 458.507812 521.292969 C 454.589844 521.648438 450.585938 520.757812 447.207031 518.890625 L 427.542969 507.867188 C 425.320312 506.621094 423.453125 504.933594 422.117188 502.796875 L 419.179688 498.175781 L 417.402344 497.375 L 417.402344 502.441406 L 419.179688 503.242188 L 422.117188 507.867188 C 423.453125 510 425.320312 511.777344 427.542969 512.933594 L 447.296875 523.957031 C 450.765625 525.914062 454.679688 526.714844 458.59375 526.359375 L 463.933594 525.914062 C 466.511719 525.648438 468.292969 523.160156 467.582031 520.667969 Z M 467.046875 518.890625 " fill-opacity="0.2" fill-rule="nonzero"/><path fill="#232324" d="M 429.855469 490.617188 L 436.53125 496.753906 C 441.066406 500.84375 447.296875 502.621094 453.257812 501.375 L 456.90625 500.664062 L 447.472656 492.75 Z M 429.855469 490.617188 " fill-opacity="1" fill-rule="nonzero"/><path fill="#292929" d="M 446.851562 231.984375 L 359.035156 231.984375 L 353.429688 353.167969 C 353.34375 354.320312 353.253906 355.566406 353.164062 356.722656 L 348.804688 493.375 L 382.347656 493.375 L 395.335938 357.257812 L 397.738281 296.621094 L 408.148438 296.621094 L 409.484375 357.257812 L 415.445312 493.375 L 449.074219 493.375 L 451.746094 356.722656 C 451.65625 355.566406 451.65625 354.320312 451.476562 353.167969 Z M 446.851562 231.984375 " fill-opacity="1" fill-rule="nonzero"/><path fill="#231f20" d="M 446.851562 231.984375 L 359.035156 231.984375 L 358.148438 240.964844 L 397.738281 296.710938 L 408.148438 296.710938 L 409.484375 357.34375 L 415.445312 493.464844 L 449.074219 493.464844 L 451.746094 356.8125 C 451.65625 355.65625 451.65625 354.410156 451.476562 353.253906 Z M 446.851562 231.984375 " fill-opacity="0.2" fill-rule="nonzero"/><path fill="#a37e69" d="M 374.960938 234.03125 L 362.59375 234.03125 C 361.972656 234.03125 361.4375 234.5625 361.4375 235.183594 L 361.4375 239.984375 C 361.4375 240.609375 361.972656 241.140625 362.59375 241.140625 L 374.960938 241.140625 C 375.585938 241.140625 376.117188 240.609375 376.117188 239.984375 L 376.117188 235.183594 C 376.117188 234.5625 375.585938 234.03125 374.960938 234.03125 Z M 374.960938 234.03125 " fill-opacity="1" fill-rule="nonzero"/><path fill="#a37e69" d="M 391.6875 234.03125 L 379.320312 234.03125 C 378.699219 234.03125 378.164062 234.5625 378.164062 235.183594 L 378.164062 239.984375 C 378.164062 240.609375 378.699219 241.140625 379.320312 241.140625 L 391.6875 241.140625 C 392.3125 241.140625 392.84375 240.609375 392.84375 239.984375 L 392.84375 235.183594 C 392.84375 234.5625 392.3125 234.03125 391.6875 234.03125 Z M 391.6875 234.03125 " fill-opacity="1" fill-rule="nonzero"/><path fill="#a37e69" d="M 425.941406 234.03125 L 413.574219 234.03125 C 412.953125 234.03125 412.417969 234.5625 412.417969 235.183594 L 412.417969 239.984375 C 412.417969 240.609375 412.953125 241.140625 413.574219 241.140625 L 425.941406 241.140625 C 426.566406 241.140625 427.097656 240.609375 427.097656 239.984375 L 427.097656 235.183594 C 427.097656 234.5625 426.566406 234.03125 425.941406 234.03125 Z M 425.941406 234.03125 " fill-opacity="1" fill-rule="nonzero"/><path fill="#a37e69" d="M 443.292969 234.03125 L 430.925781 234.03125 C 430.300781 234.03125 429.769531 234.5625 429.769531 235.183594 L 429.769531 239.984375 C 429.769531 240.609375 430.300781 241.140625 430.925781 241.140625 L 443.292969 241.140625 C 443.914062 241.140625 444.449219 240.609375 444.449219 239.984375 L 444.449219 235.183594 C 444.539062 234.5625 444.003906 234.03125 443.292969 234.03125 Z M 443.292969 234.03125 " fill-opacity="1" fill-rule="nonzero"/><path fill="#ffffff" d="M 407.527344 237.050781 L 398.539062 237.050781 C 398.09375 237.050781 397.738281 237.40625 397.738281 237.851562 C 397.738281 238.296875 398.09375 238.652344 398.539062 238.652344 L 407.527344 238.652344 C 407.96875 238.652344 408.328125 238.296875 408.328125 237.851562 C 408.328125 237.40625 407.96875 237.050781 407.527344 237.050781 Z M 407.527344 237.050781 " fill-opacity="1" fill-rule="nonzero"/><path fill="#fed7d0" d="M 415.890625 81.195312 L 414.464844 63.414062 L 401.921875 56.214844 L 389.285156 63.414062 L 387.863281 81.195312 C 387.773438 82.796875 386.527344 84.128906 384.925781 84.484375 L 371.402344 87.066406 L 371.402344 106.359375 L 401.832031 116.492188 L 432.257812 106.359375 L 432.257812 87.066406 L 418.734375 84.484375 C 417.222656 84.128906 416.066406 82.796875 415.890625 81.195312 Z M 415.890625 81.195312 " fill-opacity="1" fill-rule="nonzero"/><path fill="#fec6bc" d="M 415.890625 81.195312 L 414.464844 63.414062 L 401.921875 56.214844 L 389.285156 63.414062 L 388.574219 72.21875 L 424.964844 108.582031 L 432.257812 100.132812 L 432.257812 86.976562 L 418.734375 84.398438 C 417.222656 84.128906 416.066406 82.796875 415.890625 81.195312 Z M 415.890625 81.195312 " fill-opacity="1" fill-rule="nonzero"/><path fill="#fec6bc" d="M 429.414062 43.765625 C 428.34375 41.722656 426.03125 40.566406 423.808594 41.097656 L 423.628906 41.097656 C 420.335938 43.234375 420.160156 59.414062 420.160156 59.414062 L 421.582031 59.414062 C 423.453125 59.414062 425.230469 58.347656 426.03125 56.746094 L 430.125 47.945312 C 430.570312 47.054688 430.480469 45.988281 430.125 45.101562 Z M 429.414062 43.765625 " fill-opacity="1" fill-rule="nonzero"/><path fill="#fec6bc" d="M 380.035156 41.1875 L 379.855469 41.1875 C 377.542969 40.65625 375.230469 41.808594 374.25 43.855469 L 373.539062 45.1875 C 373.09375 46.078125 373.09375 47.144531 373.539062 48.035156 L 377.632812 56.835938 C 378.519531 58.523438 380.210938 59.503906 382.078125 59.503906 L 383.503906 59.503906 C 383.503906 59.414062 383.324219 43.234375 380.035156 41.1875 Z M 380.035156 41.1875 " fill-opacity="1" fill-rule="nonzero"/><path fill="#fed7d0" d="M 421.492188 25.453125 L 382.347656 25.453125 L 380.835938 47.234375 C 380.746094 48.121094 380.835938 48.921875 380.921875 49.8125 L 382.078125 61.191406 C 382.523438 65.105469 384.480469 68.75 387.507812 71.238281 L 394.980469 77.285156 C 396.226562 78.261719 397.828125 78.886719 399.429688 78.886719 L 404.324219 78.886719 C 405.925781 78.886719 407.527344 78.351562 408.769531 77.285156 L 416.246094 71.238281 C 419.359375 68.75 421.316406 65.105469 421.671875 61.191406 L 422.828125 49.8125 C 422.917969 48.921875 422.917969 48.121094 422.917969 47.234375 Z M 421.492188 25.453125 " fill-opacity="1" fill-rule="nonzero"/><path fill="#fec6bc" d="M 421.492188 25.453125 L 401.386719 25.453125 L 401.386719 78.707031 L 404.410156 78.707031 C 406.011719 78.707031 407.613281 78.171875 408.859375 77.105469 L 416.332031 71.0625 C 419.449219 68.570312 421.40625 64.925781 421.761719 61.015625 L 422.917969 49.632812 C 423.007812 48.746094 423.007812 47.945312 423.007812 47.054688 Z M 421.492188 25.453125 " fill-opacity="1" fill-rule="nonzero"/><path fill="#faa191" d="M 398.71875 61.28125 L 401.386719 62.527344 L 404.234375 61.191406 L 404.234375 59.949219 L 398.71875 59.949219 Z M 398.71875 61.28125 " fill-opacity="1" fill-rule="nonzero"/><path fill="#382812" d="M 417.667969 3.3125 C 413.929688 1.710938 409.039062 0.558594 402.808594 0.378906 C 392.042969 0.203125 383.859375 2.691406 378.519531 5.089844 C 374.339844 6.957031 372.027344 11.492188 373.003906 16.027344 L 376.5625 32.832031 L 381.101562 44.746094 L 384.304688 31.675781 L 384.304688 25.453125 L 399.25 28.742188 C 401.03125 29.097656 402.808594 29.097656 404.589844 28.742188 L 420.425781 25.453125 L 420.425781 32.386719 L 423.007812 47.234375 L 428.789062 28.386719 L 428.789062 20.117188 C 428.699219 12.828125 424.339844 6.246094 417.667969 3.3125 Z M 417.667969 3.3125 " fill-opacity="1" fill-rule="nonzero"/><path fill="#24200c" d="M 401.921875 24.5625 C 380.835938 24.296875 375.585938 13.449219 374.25 8.824219 C 372.914062 10.871094 372.472656 13.449219 373.003906 16.027344 L 376.5625 32.832031 L 381.101562 44.746094 L 384.304688 31.675781 L 384.304688 25.453125 L 399.25 28.742188 C 401.03125 29.097656 402.808594 29.097656 404.589844 28.742188 L 420.425781 25.453125 L 420.425781 32.386719 L 423.007812 47.234375 L 428.789062 28.386719 L 428.789062 20.207031 C 425.054688 22.339844 417.402344 24.738281 401.921875 24.5625 Z M 401.921875 24.5625 " fill-opacity="1" fill-rule="nonzero"/><path fill="#e6e7e8" d="M 418.023438 80.394531 L 402.007812 90.175781 L 382.96875 83.773438 L 375.40625 84.308594 L 386.441406 173.925781 L 400.675781 180.417969 L 428.699219 93.554688 L 426.476562 86.265625 Z M 418.023438 80.394531 " fill-opacity="1" fill-rule="nonzero"/><path fill="#d82544" d="M 402.097656 90.265625 L 402.097656 90 L 402.007812 90.085938 L 401.921875 90 L 401.921875 90.265625 L 394.179688 97.734375 L 399.25 105.378906 L 396.671875 190.820312 C 396.671875 191.175781 396.761719 191.53125 396.9375 191.886719 L 401.566406 197.933594 C 402.367188 199.355469 404.410156 199.175781 405.035156 197.667969 L 408.238281 191.265625 C 408.328125 190.996094 408.414062 190.730469 408.414062 190.464844 L 404.855469 105.289062 L 409.929688 97.644531 Z M 402.097656 90.265625 " fill-opacity="1" fill-rule="nonzero"/><path fill="#ffffff" d="M 380.300781 84.21875 L 391.332031 100.578125 C 391.957031 101.46875 393.378906 101.554688 394.003906 100.667969 L 401.921875 90.175781 L 388.308594 78.707031 Z M 380.300781 84.21875 " fill-opacity="1" fill-rule="nonzero"/><path fill="#ffffff" d="M 402.007812 90.175781 L 409.929688 100.667969 C 410.640625 101.554688 411.972656 101.554688 412.597656 100.578125 L 423.628906 84.21875 L 415.621094 78.617188 Z M 402.007812 90.175781 " fill-opacity="1" fill-rule="nonzero"/><path fill="#333333" d="M 460.285156 94.355469 L 431.636719 85.285156 C 430.035156 84.929688 428.433594 85.910156 427.898438 87.507812 L 403.878906 190.640625 C 403.609375 192.152344 401.476562 192.152344 401.121094 190.640625 L 377.363281 86.351562 C 376.832031 84.753906 374.785156 83.773438 373.183594 84.308594 L 344.980469 93.820312 C 344.800781 93.820312 344.625 93.910156 344.445312 93.910156 C 341.597656 94.710938 339.550781 97.289062 339.195312 100.3125 L 330.386719 144.765625 L 347.113281 151.078125 L 355.386719 202.554688 L 347.914062 279.550781 C 347.46875 282.839844 349.785156 285.863281 353.164062 286.21875 L 392.402344 290.484375 C 395.335938 290.839844 398.003906 288.886719 398.71875 286.039062 L 402.453125 271.015625 L 406.191406 286.039062 C 406.902344 288.886719 409.660156 290.753906 412.507812 290.484375 L 451.746094 286.21875 C 455.035156 285.863281 457.4375 282.839844 456.992188 279.550781 L 451.566406 200.777344 L 457.882812 151.078125 L 473.71875 145.742188 L 465.625 98.976562 C 464.824219 96.578125 462.777344 94.886719 460.285156 94.355469 Z M 460.285156 94.355469 " fill-opacity="1" fill-rule="nonzero"/><path fill="#58595b" d="M 382.96875 81.820312 C 381.8125 79.507812 378.789062 78.707031 376.652344 80.128906 L 368.378906 85.554688 L 363.394531 123.871094 C 363.21875 125.117188 364.285156 126.273438 365.53125 126.183594 L 376.476562 125.5625 L 366.421875 133.207031 C 365.710938 133.742188 365.441406 134.808594 365.796875 135.609375 C 377.1875 161.835938 401.207031 190.554688 401.207031 190.554688 L 377.453125 86.265625 Z M 382.96875 81.820312 " fill-opacity="1" fill-rule="nonzero"/><path fill="#58595b" d="M 435.550781 85.554688 L 427.277344 80.128906 C 425.054688 78.707031 422.117188 79.507812 420.960938 81.820312 L 426.476562 86.265625 L 403.96875 190.554688 C 403.96875 190.554688 426.65625 161.835938 438.042969 135.609375 C 438.398438 134.71875 438.132812 133.742188 437.417969 133.207031 L 427.367188 125.5625 L 438.308594 126.183594 C 439.554688 126.273438 440.621094 125.117188 440.445312 123.871094 Z M 435.550781 85.554688 " fill-opacity="1" fill-rule="nonzero"/><path fill="#231f20" d="M 355.566406 202.46875 L 348.09375 279.460938 C 347.648438 282.75 349.960938 285.773438 353.34375 286.128906 L 392.578125 290.398438 C 395.515625 290.753906 398.183594 288.796875 398.894531 285.953125 L 402.632812 270.925781 L 406.367188 285.953125 C 407.082031 288.796875 409.839844 290.664062 412.6875 290.398438 L 451.921875 286.128906 C 452.722656 286.039062 453.433594 285.863281 454.058594 285.507812 L 347.914062 154.902344 Z M 355.566406 202.46875 " fill-opacity="0.1" fill-rule="nonzero"/><path fill="#ffffff" d="M 402.898438 202.734375 C 401.121094 202.734375 399.695312 204.15625 399.695312 205.933594 C 399.695312 207.710938 401.121094 209.136719 402.898438 209.136719 C 404.679688 209.136719 406.101562 207.710938 406.101562 205.933594 C 406.101562 204.066406 404.679688 202.734375 402.898438 202.734375 Z M 402.898438 202.734375 " fill-opacity="1" fill-rule="nonzero"/><path fill="#ffffff" d="M 402.898438 228.160156 C 401.121094 228.160156 399.695312 229.585938 399.695312 231.363281 C 399.695312 233.140625 401.121094 234.5625 402.898438 234.5625 C 404.679688 234.5625 406.101562 233.140625 406.101562 231.363281 C 406.101562 229.585938 404.679688 228.160156 402.898438 228.160156 Z M 402.898438 228.160156 " fill-opacity="1" fill-rule="nonzero"/><path fill="#ffffff" d="M 402.898438 253.679688 C 401.121094 253.679688 399.695312 255.101562 399.695312 256.878906 C 399.695312 258.65625 401.121094 260.078125 402.898438 260.078125 C 404.679688 260.078125 406.101562 258.65625 406.101562 256.878906 C 406.101562 255.101562 404.679688 253.679688 402.898438 253.679688 Z M 402.898438 253.679688 " fill-opacity="1" fill-rule="nonzero"/><path fill="#fed7d0" d="M 446.316406 91.066406 C 446.316406 91.066406 461.53125 104.847656 456.726562 138.71875 L 450.945312 168.148438 C 450.945312 168.148438 378.609375 158.992188 376.917969 158.101562 C 375.761719 157.480469 371.046875 152.144531 367.933594 148.679688 C 366.332031 146.8125 363.75 146.011719 361.351562 146.542969 L 353.34375 148.320312 L 357.789062 168.238281 L 455.125 195.445312 C 459.75 197.132812 464.734375 194.730469 466.425781 190.285156 C 463.042969 197.933594 463.398438 104.667969 467.3125 113.648438 C 459.128906 94.445312 446.316406 91.066406 446.316406 91.066406 Z M 446.316406 91.066406 " fill-opacity="1" fill-rule="nonzero"/><path fill="#333333" d="M 465.800781 98.890625 C 465.800781 98.890625 448.097656 89.554688 446.226562 91.066406 C 446.226562 91.066406 452.277344 130.453125 452.546875 134.984375 C 452.8125 139.609375 452.546875 148.054688 452.546875 148.054688 L 448.808594 167.792969 L 377.007812 156.679688 L 371.492188 175.972656 L 461.53125 197.042969 C 461.53125 197.042969 467.492188 197.222656 469.984375 190.554688 C 472.472656 183.886719 474.519531 158.8125 473.988281 145.65625 C 473.453125 132.496094 465.800781 98.890625 465.800781 98.890625 Z M 465.800781 98.890625 " fill-opacity="1" fill-rule="nonzero"/><path fill="#231f20" d="M 402.988281 180.773438 L 451.921875 169.570312 L 439.734375 169.570312 Z M 402.988281 180.773438 " fill-opacity="0.1" fill-rule="nonzero"/><path fill="#fed7d0" d="M 357.878906 168.148438 L 352.097656 138.71875 C 353.34375 105.378906 362.152344 90.621094 362.152344 90.621094 C 362.152344 90.621094 342.84375 97.734375 340.707031 122.273438 C 339.375 138.097656 336.703125 172.328125 342.132812 189.753906 C 343.644531 194.554688 348.894531 197.132812 353.609375 195.445312 L 451.476562 162.28125 L 438.132812 151.078125 Z M 357.878906 168.148438 " fill-opacity="1" fill-rule="nonzero"/><path fill="#fec6bc" d="M 357.878906 165.304688 L 368.824219 165.304688 L 353.429688 148.144531 Z M 357.878906 165.304688 " fill-opacity="1" fill-rule="nonzero"/><path fill="#fed7d0" d="M 456.371094 151.789062 C 454.859375 148.945312 451.566406 147.433594 448.363281 148.234375 L 435.640625 151.433594 L 439.734375 166.105469 L 450.945312 168.058594 L 452.988281 171.082031 C 454.324219 173.039062 457.171875 172.859375 458.328125 170.816406 L 461.710938 164.769531 C 462.242188 163.792969 462.242188 162.726562 461.710938 161.746094 Z M 456.371094 151.789062 " fill-opacity="1" fill-rule="nonzero"/><path fill="#333333" d="M 360.015625 165.304688 C 360.015625 165.304688 353.964844 139.34375 353.34375 133.832031 C 352.71875 128.316406 363.308594 90 363.308594 90 L 361.351562 88.398438 L 339.285156 100.222656 C 339.285156 100.222656 332.167969 134.71875 330.476562 146.722656 C 328.785156 158.8125 337.238281 195.886719 337.238281 195.886719 C 337.238281 195.886719 345.867188 200.867188 347.824219 201.132812 C 349.871094 201.398438 441.601562 167.972656 441.601562 167.972656 L 432.257812 150.632812 Z M 360.015625 165.304688 " fill-opacity="1" fill-rule="nonzero"/><path fill="#fed7d0" d="M 490.714844 259.191406 C 487.511719 256.878906 484.308594 254.121094 480.394531 253.234375 L 474.789062 251.1875 C 474.164062 251.011719 473.632812 251.277344 473.273438 251.722656 C 472.652344 252.523438 473.007812 253.679688 473.988281 254.035156 L 478.703125 257.589844 L 458.773438 259.992188 C 457.882812 260.167969 457.171875 260.96875 457.171875 261.945312 C 457.171875 263.101562 458.238281 263.992188 459.394531 263.902344 L 470.25 262.570312 C 470.515625 262.570312 470.871094 262.746094 470.871094 263.011719 C 470.960938 263.371094 470.695312 263.726562 470.429688 263.726562 L 457.171875 266.125 C 456.105469 266.304688 455.390625 267.371094 455.570312 268.4375 C 455.746094 269.503906 456.726562 270.125 457.792969 270.039062 L 471.316406 268.171875 C 471.496094 268.171875 471.671875 268.171875 471.761719 268.347656 L 472.207031 268.792969 L 459.574219 271.460938 C 458.683594 271.636719 458.0625 272.617188 458.328125 273.503906 C 458.507812 274.304688 459.308594 274.839844 460.109375 274.75 L 473.097656 273.328125 L 473.273438 274.214844 L 462.242188 275.371094 C 461.441406 275.460938 460.910156 276.171875 460.996094 276.972656 C 461.085938 277.683594 461.621094 278.214844 462.332031 278.214844 L 474.789062 278.75 C 474.789062 278.75 477.457031 278.75 480.75 279.015625 C 483.683594 279.285156 492.402344 277.328125 494.449219 276.882812 C 494.71875 276.792969 494.894531 276.617188 494.894531 276.351562 L 495.605469 263.28125 C 495.605469 263.101562 495.519531 262.835938 495.339844 262.746094 Z M 490.714844 259.191406 " fill-opacity="1" fill-rule="nonzero"/><path fill="#ffffff" d="M 493.382812 278.574219 L 497.742188 278.304688 L 497.742188 257.5 L 493.5625 257.679688 Z M 493.382812 278.574219 " fill-opacity="1" fill-rule="nonzero"/><path fill="#004370" d="M 633.421875 227.363281 L 577.371094 253.234375 L 496.40625 255.722656 L 495.695312 280.882812 C 495.695312 280.882812 559.753906 283.019531 577.371094 281.683594 C 581.996094 281.328125 586.535156 280.351562 590.894531 278.75 C 609.578125 271.816406 643.03125 257.945312 643.03125 257.945312 C 661.894531 251.8125 657 235.984375 657 235.984375 C 650.417969 220.070312 633.421875 227.363281 633.421875 227.363281 Z M 633.421875 227.363281 " fill-opacity="1" fill-rule="nonzero"/><path fill="#403129" d="M 397.5625 492.484375 C 388.574219 494.261719 380.300781 505.375 380.300781 505.375 L 379.945312 507.957031 C 379.765625 509.554688 380.921875 510.976562 382.4375 511.246094 L 427.988281 516.847656 C 427.988281 516.847656 430.746094 515.246094 433.949219 515.601562 C 437.152344 515.957031 437.777344 518.089844 437.777344 518.089844 L 447.207031 519.246094 C 448.808594 519.425781 450.230469 518.269531 450.5 516.757812 L 452.988281 496.929688 L 453.167969 495.242188 L 453.789062 490.441406 L 421.671875 486.4375 C 415.976562 493.640625 406.546875 490.617188 397.5625 492.484375 Z M 397.5625 492.484375 " fill-opacity="1" fill-rule="nonzero"/><path fill="#232324" d="M 447.742188 515.777344 L 438.308594 514.625 C 438.308594 514.625 437.6875 512.578125 434.484375 512.132812 C 431.28125 511.777344 428.523438 513.378906 428.523438 513.378906 L 382.96875 507.777344 C 381.636719 507.601562 380.566406 506.53125 380.390625 505.199219 C 380.300781 505.289062 380.300781 505.289062 380.300781 505.289062 L 379.945312 507.867188 C 379.765625 509.464844 380.921875 510.890625 382.4375 511.15625 L 427.988281 516.757812 C 427.988281 516.757812 430.746094 515.15625 433.949219 515.511719 C 437.152344 515.867188 437.777344 518 437.777344 518 L 447.207031 519.15625 C 448.808594 519.335938 450.230469 518.179688 450.5 516.667969 L 450.945312 513.289062 C 450.765625 514.890625 449.253906 515.957031 447.742188 515.777344 Z M 447.742188 515.777344 " fill-opacity="1" fill-rule="nonzero"/><path fill="#2b211c" d="M 406.726562 491.683594 L 407.882812 495.863281 C 408.328125 497.464844 409.660156 498.53125 411.261719 498.621094 C 416.601562 498.886719 428.078125 498.175781 431.546875 487.507812 L 421.671875 486.261719 C 417.933594 491.152344 412.507812 491.507812 406.726562 491.683594 Z M 406.726562 491.683594 " fill-opacity="1" fill-rule="nonzero"/><path fill="#003254" d="M 608.601562 359.210938 L 497.921875 364.636719 C 495.160156 364.457031 492.492188 365.703125 490.714844 367.925781 L 421.671875 486.351562 L 452.722656 500.21875 L 505.125 407.578125 C 506.105469 406.421875 507.707031 405.890625 509.21875 406.246094 C 524.078125 409.179688 603.707031 424.027344 623.371094 407.84375 C 645.167969 389.972656 637.871094 362.5 637.871094 362.5 Z M 608.601562 359.210938 " fill-opacity="1" fill-rule="nonzero"/><path fill="#004370" d="M 604.417969 246.210938 C 598.722656 259.8125 585.734375 295.730469 588.046875 335.828125 C 590.984375 386.863281 617.851562 326.316406 617.851562 326.316406 L 620.433594 231.183594 L 611.890625 237.140625 C 608.511719 239.453125 605.929688 242.566406 604.417969 246.210938 Z M 604.417969 246.210938 " fill-opacity="1" fill-rule="nonzero"/><path fill="#003254" d="M 613.046875 236.339844 L 617.320312 236.339844 L 610.289062 244.34375 L 605.21875 276.351562 L 627.285156 231.273438 L 621.589844 228.160156 Z M 613.046875 236.339844 " fill-opacity="1" fill-rule="nonzero"/><path fill="#403129" d="M 429.855469 517.558594 C 421.136719 520.402344 414.199219 532.316406 414.199219 532.316406 L 414.199219 534.894531 C 414.199219 536.496094 415.445312 537.828125 417.046875 537.828125 L 462.867188 538.183594 C 462.867188 538.183594 465.445312 536.226562 468.648438 536.226562 C 471.941406 536.226562 472.742188 538.273438 472.742188 538.273438 L 482.261719 538.363281 C 483.863281 538.363281 485.199219 537.117188 485.199219 535.515625 L 485.375 515.511719 L 485.375 509.023438 L 452.988281 508.753906 C 448.363281 516.578125 438.578125 514.710938 429.855469 517.558594 Z M 429.855469 517.558594 " fill-opacity="1" fill-rule="nonzero"/><path fill="#232324" d="M 482.351562 534.984375 L 472.832031 534.894531 C 472.832031 534.894531 472.03125 532.9375 468.738281 532.847656 C 465.445312 532.847656 462.953125 534.804688 462.953125 534.804688 L 417.132812 534.449219 C 415.710938 534.449219 414.644531 533.472656 414.289062 532.136719 C 414.199219 532.226562 414.199219 532.316406 414.199219 532.316406 L 414.199219 534.894531 C 414.199219 536.496094 415.445312 537.828125 417.046875 537.828125 L 462.867188 538.183594 C 462.867188 538.183594 465.445312 536.226562 468.648438 536.226562 C 471.941406 536.226562 472.742188 538.273438 472.742188 538.273438 L 482.261719 538.363281 C 483.863281 538.363281 485.199219 537.117188 485.199219 535.515625 L 485.199219 532.136719 C 485.285156 533.738281 483.953125 534.984375 482.351562 534.984375 Z M 482.351562 534.984375 " fill-opacity="1" fill-rule="nonzero"/><path fill="#2b211c" d="M 438.933594 515.777344 L 440.535156 519.78125 C 441.15625 521.292969 442.582031 522.269531 444.269531 522.089844 C 449.609375 521.734375 460.910156 519.78125 463.132812 508.753906 L 453.167969 508.667969 C 449.964844 513.910156 444.625 514.890625 438.933594 515.777344 Z M 438.933594 515.777344 " fill-opacity="1" fill-rule="nonzero"/><path fill="#003254" d="M 624.082031 358.144531 L 514.734375 376.28125 C 511.976562 376.460938 509.398438 377.972656 507.972656 380.371094 L 454.859375 508.132812 L 487.332031 519.511719 L 526.746094 418.15625 C 527.636719 416.914062 529.058594 416.203125 530.660156 416.378906 C 545.785156 417.625 626.574219 423.226562 644.277344 404.910156 C 663.851562 384.640625 653.53125 358.234375 653.53125 358.234375 L 624.082031 358.234375 Z M 624.082031 358.144531 " fill-opacity="1" fill-rule="nonzero"/><path fill="#fed7d0" d="M 630.664062 203.265625 C 639.027344 224.515625 627.195312 235.898438 627.195312 235.898438 L 634.222656 238.5625 L 660.558594 216.070312 C 656.910156 211.003906 656.023438 189.042969 656.023438 189.042969 Z M 630.664062 203.265625 " fill-opacity="1" fill-rule="nonzero"/><path fill="#f15a29" d="M 627.996094 220.335938 C 622.570312 224.515625 619.367188 231.007812 619.277344 237.851562 C 619.277344 237.851562 597.035156 276.261719 599.96875 291.910156 C 602.816406 307.554688 636.003906 224.339844 636.003906 224.339844 L 629.953125 218.828125 Z M 627.996094 220.335938 " fill-opacity="1" fill-rule="nonzero"/><path fill="#fec6bc" d="M 631.734375 202.644531 C 631.820312 204.777344 632.175781 206.46875 632.976562 207.535156 L 659.582031 214.023438 C 656.824219 206.734375 656.109375 189.132812 656.109375 189.132812 Z M 631.734375 202.644531 " fill-opacity="1" fill-rule="nonzero"/><path fill="#fed7d0" d="M 659.136719 155.257812 L 620.789062 155.257812 L 619.367188 176.59375 C 619.277344 177.394531 619.367188 178.285156 619.453125 179.085938 L 620.609375 190.199219 C 620.878906 192.6875 621.234375 198.464844 621.410156 202.378906 C 621.5 204.777344 623.457031 206.734375 625.859375 206.914062 C 630.308594 207.269531 629.332031 207.355469 629.332031 207.355469 L 633.601562 207.355469 C 635.203125 207.355469 637.25 206.824219 638.496094 205.84375 L 655.132812 193.132812 C 658.15625 190.730469 659.046875 193.933594 659.492188 190.109375 L 660.648438 178.996094 C 660.738281 178.195312 660.738281 177.304688 660.648438 176.507812 Z M 659.136719 155.257812 " fill-opacity="1" fill-rule="nonzero"/><path fill="#f7941e" d="M 654.597656 137.03125 C 646.058594 134.363281 615.894531 128.851562 609.847656 134.628906 C 603.796875 140.410156 607.445312 156.5 620.609375 158.011719 L 631.464844 156.679688 C 638.050781 155.878906 644.632812 157.570312 649.972656 161.390625 L 647.835938 169.480469 C 646.679688 173.925781 648.015625 178.640625 651.304688 181.75 L 652.640625 183.085938 L 655.933594 197.667969 C 659.3125 197.667969 660.914062 194.289062 662.605469 191.355469 C 665.1875 186.820312 672.035156 180.238281 672.480469 168.148438 C 673.371094 147.34375 663.140625 139.699219 654.597656 137.03125 Z M 654.597656 137.03125 " fill-opacity="1" fill-rule="nonzero"/><path fill="#bf7317" d="M 637.070312 150.8125 C 612.160156 153.566406 607 142.097656 607 142.097656 C 606.910156 148.855469 611.445312 156.945312 620.609375 158.011719 L 631.464844 156.679688 C 638.050781 155.878906 644.632812 157.570312 649.972656 161.390625 L 647.835938 169.480469 C 646.679688 173.925781 648.015625 178.640625 651.304688 181.75 L 652.640625 183.085938 L 654.953125 193.398438 C 665.1875 187.085938 669.1875 172.503906 668.476562 167.257812 C 667.675781 160.859375 662.070312 148.054688 637.070312 150.8125 Z M 637.070312 150.8125 " fill-opacity="1" fill-rule="nonzero"/><path fill="#fed7d0" d="M 658.957031 164.769531 C 652.820312 166.191406 653.261719 168.859375 653.261719 168.859375 L 647.925781 183.617188 C 647.925781 183.617188 649.527344 188.953125 653.886719 188.507812 C 658.246094 188.0625 661.359375 178.460938 663.140625 175.527344 C 664.917969 172.59375 665.097656 163.347656 658.957031 164.769531 Z M 658.957031 164.769531 " fill-opacity="1" fill-rule="nonzero"/><path fill="#fed7d0" d="M 620.523438 168.949219 L 616.074219 186.109375 C 615.628906 187.621094 616.875 189.132812 618.476562 189.132812 L 620.609375 189.132812 L 627.371094 187.796875 L 627.371094 173.570312 Z M 620.523438 168.949219 " fill-opacity="1" fill-rule="nonzero"/><path fill="#faa191" d="M 622.035156 186.910156 L 615.984375 186.910156 C 616.164062 188.0625 617.140625 189.042969 618.386719 189.042969 L 620.34375 189.042969 C 620.433594 189.042969 620.523438 189.042969 620.609375 188.953125 L 621.769531 188.597656 C 622.210938 188.417969 622.570312 187.976562 622.570312 187.441406 C 622.65625 187.175781 622.390625 186.910156 622.035156 186.910156 Z M 622.035156 186.910156 " fill-opacity="1" fill-rule="nonzero"/><path fill="#ffffff" d="M 629.953125 232.960938 L 658.511719 208.867188 L 658.511719 204.777344 L 629.953125 215.179688 Z M 629.953125 232.960938 " fill-opacity="1" fill-rule="nonzero"/><path fill="#004370" d="M 660.648438 212.246094 C 645.699219 214.738281 627.285156 235.898438 627.285156 235.898438 C 618.296875 244.964844 606.464844 272.4375 606.464844 272.4375 L 593.207031 312.359375 C 589.382812 323.828125 587.425781 335.828125 587.425781 347.921875 L 587.425781 389.707031 C 587.425781 393.441406 590.449219 396.464844 594.1875 396.464844 L 657.445312 399.84375 C 661.183594 399.84375 664.117188 396.730469 663.941406 392.996094 L 653.621094 347.121094 L 686.183594 273.503906 C 687.429688 268.082031 697.039062 251.8125 685.558594 237.140625 Z M 660.648438 212.246094 " fill-opacity="1" fill-rule="nonzero"/><path fill="#003254" d="M 604.597656 278.039062 C 603.082031 281.59375 601.75 285.507812 600.683594 289.773438 Z M 604.597656 278.039062 " fill-opacity="1" fill-rule="nonzero"/><path fill="#003254" d="M 606.464844 272.4375 L 604.597656 277.949219 C 616.429688 250.65625 640.007812 245.855469 640.007812 245.855469 L 632.800781 234.03125 L 647.925781 239.71875 L 664.207031 215.714844 L 657.980469 207.445312 C 620.878906 220.515625 606.464844 272.4375 606.464844 272.4375 Z M 606.464844 272.4375 " fill-opacity="1" fill-rule="nonzero"/><path fill="#fed7d0" d="M 518.292969 225.851562 C 515.089844 223.449219 511.886719 220.691406 508.0625 219.804688 L 502.457031 217.671875 C 501.925781 217.492188 501.300781 217.757812 500.945312 218.203125 C 500.324219 219.003906 500.679688 220.160156 501.65625 220.515625 L 506.285156 224.160156 L 486.355469 226.292969 C 485.464844 226.472656 484.753906 227.273438 484.753906 228.160156 C 484.753906 229.316406 485.730469 230.296875 486.886719 230.117188 L 497.832031 228.960938 C 498.097656 228.960938 498.453125 229.140625 498.453125 229.40625 C 498.542969 229.761719 498.277344 230.027344 497.921875 230.117188 L 484.664062 232.339844 C 483.597656 232.519531 482.882812 233.585938 483.0625 234.652344 C 483.238281 235.71875 484.21875 236.339844 485.285156 236.253906 L 498.808594 234.5625 C 498.988281 234.5625 499.164062 234.5625 499.253906 234.742188 L 499.699219 235.183594 L 487.066406 237.765625 C 486.175781 237.941406 485.554688 238.917969 485.820312 239.808594 C 486 240.609375 486.800781 241.140625 487.597656 241.054688 L 500.589844 239.808594 L 500.765625 240.699219 L 489.734375 241.675781 C 488.933594 241.765625 488.398438 242.476562 488.398438 243.277344 C 488.488281 243.988281 489.023438 244.519531 489.734375 244.519531 L 502.191406 245.230469 C 502.191406 245.230469 504.859375 245.230469 508.152344 245.585938 C 511.089844 245.941406 519.894531 244.074219 521.941406 243.632812 C 522.210938 243.542969 522.386719 243.363281 522.386719 243.097656 L 523.277344 230.027344 C 523.277344 229.851562 523.1875 229.585938 523.011719 229.496094 Z M 518.292969 225.851562 " fill-opacity="1" fill-rule="nonzero"/><path fill="#ffffff" d="M 518.917969 245.054688 L 523.097656 246.210938 L 529.683594 226.472656 L 525.679688 225.316406 Z M 518.917969 245.054688 " fill-opacity="1" fill-rule="nonzero"/><path fill="#004370" d="M 667.945312 240.875 L 606.554688 247.632812 L 528.972656 224.339844 L 520.339844 247.988281 C 520.339844 247.988281 580.484375 270.304688 597.566406 274.660156 C 602.105469 275.816406 606.644531 276.261719 611.359375 276.171875 C 631.289062 275.460938 667.410156 272.972656 667.410156 272.972656 C 687.25 273.148438 687.605469 256.523438 687.605469 256.523438 C 686.273438 239.363281 667.945312 240.875 667.945312 240.875 Z M 667.945312 240.875 " fill-opacity="1" fill-rule="nonzero"/><path fill="#fed7d0" d="M 369.714844 269.949219 C 368.914062 268.527344 367.398438 267.726562 365.886719 267.816406 L 336.171875 268.613281 L 336.703125 282.484375 L 339.640625 282.484375 L 347.292969 287.109375 C 347.824219 287.464844 348.359375 287.640625 348.984375 287.640625 L 359.75 288.796875 C 360.550781 288.886719 361.351562 288.707031 362.152344 288.351562 L 362.953125 287.90625 C 364.464844 287.109375 365.351562 285.417969 365.085938 283.730469 L 370.515625 283.730469 L 373.714844 287.464844 L 373.714844 294.929688 C 373.714844 295.820312 374.429688 296.53125 375.316406 296.53125 C 376.207031 296.53125 376.917969 295.820312 376.917969 294.929688 L 376.917969 283.816406 L 373.359375 276.527344 Z M 369.714844 269.949219 " fill-opacity="1" fill-rule="nonzero"/><path fill="#ffffff" d="M 331.988281 265.769531 L 336.703125 265.769531 L 336.703125 283.816406 L 331.988281 283.816406 Z M 331.988281 265.769531 " fill-opacity="1" fill-rule="nonzero"/><path fill="#004370" d="M 215.972656 215.980469 L 217.394531 258.480469 L 257.34375 286.308594 L 334.125 284.796875 L 334.125 265.058594 L 261.703125 259.546875 Z M 215.972656 215.980469 " fill-opacity="1" fill-rule="nonzero"/><path fill="#403129" d="M 305.566406 495.6875 C 297.023438 492.484375 287.148438 493.996094 282.789062 485.90625 L 250.402344 484.839844 L 250.226562 489.640625 L 250.136719 491.328125 L 249.511719 511.332031 C 249.425781 512.933594 250.757812 514.269531 252.359375 514.355469 L 261.878906 514.625 C 261.878906 514.625 262.769531 512.667969 266.0625 512.757812 C 269.355469 512.84375 271.757812 514.890625 271.757812 514.890625 L 317.574219 516.402344 C 319.175781 516.492188 320.511719 515.15625 320.601562 513.554688 L 320.691406 510.976562 C 320.601562 511.066406 314.105469 498.886719 305.566406 495.6875 Z M 305.566406 495.6875 " fill-opacity="1" fill-rule="nonzero"/><path fill="#232324" d="M 317.574219 513.113281 L 271.757812 511.601562 C 271.757812 511.601562 269.265625 509.554688 266.0625 509.464844 C 262.769531 509.378906 261.878906 511.332031 261.878906 511.332031 L 252.359375 511.066406 C 250.757812 510.976562 249.511719 509.644531 249.511719 508.042969 L 249.425781 511.421875 C 249.335938 513.023438 250.667969 514.355469 252.269531 514.445312 L 261.792969 514.710938 C 261.792969 514.710938 262.679688 512.757812 265.972656 512.84375 C 269.265625 512.933594 271.667969 514.980469 271.667969 514.980469 L 317.488281 516.492188 C 319.089844 516.578125 320.421875 515.246094 320.511719 513.644531 L 320.601562 511.066406 C 320.601562 511.066406 320.601562 510.976562 320.511719 510.890625 C 320.15625 512.222656 319 513.199219 317.574219 513.113281 Z M 317.574219 513.113281 " fill-opacity="1" fill-rule="nonzero"/><path fill="#2b211c" d="M 282.699219 485.996094 L 272.734375 485.640625 C 274.515625 496.664062 285.722656 499.152344 291.0625 499.6875 C 292.664062 499.863281 294.175781 498.976562 294.886719 497.464844 L 296.667969 493.550781 C 290.882812 492.484375 285.636719 491.328125 282.699219 485.996094 Z M 282.699219 485.996094 " fill-opacity="1" fill-rule="nonzero"/><path fill="#003254" d="M 279.320312 375.304688 L 170.328125 359.125 L 141.058594 362.5 C 141.058594 362.5 133.851562 389.972656 155.558594 407.84375 C 175.222656 424.027344 236.34375 414.15625 251.203125 411.222656 C 252.714844 410.957031 251.203125 490.261719 251.203125 490.261719 L 283.320312 486.261719 L 286.4375 378.503906 C 284.746094 376.371094 282.078125 375.214844 279.320312 375.304688 Z M 279.320312 375.304688 " fill-opacity="1" fill-rule="nonzero"/><path fill="#004370" d="M 221.132812 237.496094 L 182.25 324.359375 C 182.25 324.359375 180.203125 390.597656 204.9375 345.785156 C 224.335938 310.667969 228.25 272.617188 228.960938 257.945312 C 229.140625 253.945312 228.25 250.03125 226.292969 246.566406 Z M 221.132812 237.496094 " fill-opacity="1" fill-rule="nonzero"/><path fill="#003254" d="M 221.308594 234.296875 L 214.902344 234.5625 L 215.347656 284.796875 L 224.601562 253.765625 L 221.664062 243.453125 L 225.578125 245.320312 Z M 221.308594 234.296875 " fill-opacity="1" fill-rule="nonzero"/><path fill="#403129" d="M 275.046875 517.558594 C 266.328125 514.710938 256.628906 516.578125 251.828125 508.753906 L 219.441406 509.023438 L 219.441406 515.511719 L 219.617188 535.515625 C 219.617188 537.117188 220.953125 538.449219 222.554688 538.363281 L 232.074219 538.273438 C 232.074219 538.273438 232.875 536.316406 236.167969 536.226562 C 239.460938 536.226562 241.949219 538.183594 241.949219 538.183594 L 287.769531 537.828125 C 289.371094 537.828125 290.707031 536.496094 290.617188 534.894531 L 290.617188 532.316406 C 290.707031 532.316406 283.765625 520.402344 275.046875 517.558594 Z M 275.046875 517.558594 " fill-opacity="1" fill-rule="nonzero"/><path fill="#232324" d="M 290.617188 532.136719 C 290.351562 533.472656 289.195312 534.449219 287.769531 534.449219 L 241.949219 534.804688 C 241.949219 534.804688 239.371094 532.847656 236.167969 532.847656 C 232.875 532.847656 232.074219 534.894531 232.074219 534.894531 L 222.554688 534.984375 C 220.953125 534.984375 219.617188 533.738281 219.617188 532.136719 L 219.617188 535.515625 C 219.617188 537.117188 220.953125 538.449219 222.554688 538.363281 L 232.074219 538.273438 C 232.074219 538.273438 232.875 536.316406 236.167969 536.226562 C 239.460938 536.226562 241.949219 538.183594 241.949219 538.183594 L 287.769531 537.828125 C 289.371094 537.828125 290.707031 536.496094 290.617188 534.894531 L 290.617188 532.316406 C 290.707031 532.316406 290.617188 532.226562 290.617188 532.136719 Z M 290.617188 532.136719 " fill-opacity="1" fill-rule="nonzero"/><path fill="#2b211c" d="M 251.828125 508.753906 L 241.863281 508.84375 C 244.085938 519.78125 255.386719 521.824219 260.722656 522.179688 C 262.324219 522.269531 263.835938 521.292969 264.460938 519.867188 L 266.0625 515.867188 C 260.277344 514.890625 254.941406 513.910156 251.828125 508.753906 Z M 251.828125 508.753906 " fill-opacity="1" fill-rule="nonzero"/><path fill="#003254" d="M 264.105469 376.28125 L 154.757812 358.144531 L 125.21875 358.144531 C 125.21875 358.144531 114.898438 384.640625 134.472656 404.820312 C 152.179688 423.136719 236.703125 401.886719 229.050781 430.070312 L 217.574219 510.800781 L 251.914062 508.753906 L 270.957031 380.371094 C 269.355469 377.972656 266.863281 376.460938 264.105469 376.28125 Z M 264.105469 376.28125 " fill-opacity="1" fill-rule="nonzero"/><path fill="#fed7d0" d="M 191.414062 206.46875 L 205.472656 238.121094 L 212.945312 238.742188 C 212.945312 238.742188 207.25 223.359375 223.976562 207.800781 L 207.25 184.0625 C 207.164062 184.152344 196.84375 203.535156 191.414062 206.46875 Z M 191.414062 206.46875 " fill-opacity="1" fill-rule="nonzero"/><path fill="#f15a29" d="M 218.90625 224.425781 L 217.839844 222.292969 L 210.011719 224.695312 C 210.011719 224.695312 203.871094 314.046875 213.214844 301.15625 C 222.554688 288.261719 219.261719 244.074219 219.261719 244.074219 C 222.109375 237.761719 222.019531 230.5625 218.90625 224.425781 Z M 218.90625 224.425781 " fill-opacity="1" fill-rule="nonzero"/><path fill="#fec6bc" d="M 193.285156 205.046875 L 220.0625 210.734375 C 221.308594 210.203125 222.378906 208.78125 223.265625 206.914062 L 207.164062 184.242188 C 207.164062 184.152344 198.886719 199.621094 193.285156 205.046875 Z M 193.285156 205.046875 " fill-opacity="1" fill-rule="nonzero"/><path fill="#fed7d0" d="M 229.941406 155.789062 L 213.390625 150.8125 L 205.828125 170.816406 C 205.5625 171.617188 205.292969 172.417969 205.117188 173.214844 L 202.980469 184.152344 C 202.269531 187.976562 204.050781 185.128906 206.273438 188.332031 L 218.550781 205.222656 C 219.441406 206.558594 221.308594 207.625 222.820312 208.070312 L 223.355469 208.246094 L 226.824219 209.3125 C 226.824219 209.3125 225.9375 208.957031 230.296875 209.847656 C 232.699219 210.378906 235.101562 209.046875 235.902344 206.734375 C 237.234375 203 239.191406 197.578125 240.171875 195.265625 L 244.53125 184.953125 C 244.886719 184.152344 245.152344 183.351562 245.332031 182.550781 L 250.136719 161.746094 L 233.585938 156.769531 Z M 229.941406 155.789062 " fill-opacity="1" fill-rule="nonzero"/><path fill="#4c302e" d="M 222.910156 134.628906 C 214.015625 134.808594 201.914062 139.074219 196.753906 159.167969 C 193.726562 170.90625 198.355469 179.085938 199.511719 184.242188 C 200.222656 187.53125 200.847656 191.175781 204.050781 192.152344 L 211.34375 179.171875 L 213.035156 178.285156 C 217.128906 176.238281 219.796875 172.0625 219.886719 167.527344 L 220.152344 159.167969 C 226.378906 157.035156 233.230469 157.300781 239.28125 159.96875 L 249.335938 164.414062 C 262.414062 166.816406 270.597656 152.410156 266.417969 145.121094 C 262.324219 137.917969 231.898438 134.453125 222.910156 134.628906 Z M 222.910156 134.628906 " fill-opacity="1" fill-rule="nonzero"/><path fill="#33201f" d="M 235.722656 152.855469 C 212.589844 143.078125 203.515625 153.65625 200.847656 159.4375 C 198.621094 164.238281 198.265625 179.351562 206.273438 188.332031 L 211.433594 179.085938 L 213.125 178.195312 C 217.214844 176.148438 219.886719 171.972656 219.976562 167.4375 L 220.242188 159.078125 C 226.46875 156.945312 233.320312 157.214844 239.371094 159.878906 L 249.425781 164.324219 C 258.5 166.015625 265.171875 159.523438 267.039062 153.035156 C 267.039062 153.125 258.855469 162.636719 235.722656 152.855469 Z M 235.722656 152.855469 " fill-opacity="1" fill-rule="nonzero"/><path fill="#fed7d0" d="M 210.8125 159.878906 C 205.382812 156.769531 202.890625 165.660156 203.691406 169.039062 C 204.492188 172.417969 204.761719 182.460938 208.765625 184.152344 C 212.769531 185.839844 215.882812 181.21875 215.882812 181.21875 L 215.082031 165.570312 C 215.082031 165.480469 216.238281 162.992188 210.8125 159.878906 Z M 210.8125 159.878906 " fill-opacity="1" fill-rule="nonzero"/><path fill="#fed7d0" d="M 234.476562 191.085938 L 240.527344 194.289062 L 242.574219 194.910156 C 244.085938 195.355469 245.6875 194.289062 245.6875 192.6875 L 246.308594 174.996094 L 238.480469 177.574219 Z M 234.476562 191.085938 " fill-opacity="1" fill-rule="nonzero"/><path fill="#faa191" d="M 239.015625 192.152344 C 238.835938 192.597656 239.015625 193.132812 239.460938 193.488281 L 240.4375 194.199219 C 240.527344 194.289062 240.617188 194.289062 240.703125 194.375 L 242.574219 194.910156 C 243.820312 195.265625 245.066406 194.644531 245.507812 193.578125 L 239.726562 191.796875 C 239.460938 191.710938 239.105469 191.886719 239.015625 192.152344 Z M 239.015625 192.152344 " fill-opacity="1" fill-rule="nonzero"/><path fill="#ffffff" d="M 196.488281 200.867188 L 211.789062 235.007812 L 219.441406 218.914062 L 198.175781 197.222656 Z M 196.488281 200.867188 " fill-opacity="1" fill-rule="nonzero"/><path fill="#004370" d="M 193.105469 203 L 159.832031 214.824219 C 143.105469 223.09375 144.707031 241.941406 143.546875 247.277344 L 141.058594 327.738281 L 111.875 364.636719 C 110.09375 367.925781 111.429688 372.015625 114.8125 373.613281 L 173.265625 397.886719 C 176.644531 399.488281 180.648438 398.066406 182.25 394.6875 L 200.3125 356.988281 C 205.5625 346.054688 209.03125 334.40625 210.542969 322.402344 L 215.792969 280.707031 C 215.792969 280.707031 217.039062 250.832031 212.855469 238.742188 C 212.945312 238.742188 205.5625 211.714844 193.105469 203 Z M 193.105469 203 " fill-opacity="1" fill-rule="nonzero"/><path fill="#003254" d="M 188.300781 204.691406 L 192.570312 233.316406 L 208.675781 234.742188 L 197.019531 242.296875 C 197.019531 242.296875 216.148438 256.789062 215.082031 286.394531 L 215.792969 280.707031 C 215.792969 280.707031 225.3125 227.628906 197.464844 199.890625 Z M 188.300781 204.691406 " fill-opacity="1" fill-rule="nonzero"/><path fill="#003254" d="M 215.082031 286.394531 L 213.480469 298.84375 C 214.457031 294.398438 214.992188 290.308594 215.082031 286.394531 Z M 215.082031 286.394531 " fill-opacity="1" fill-rule="nonzero"/><path fill="#fed7d0" d="M 357.167969 226.292969 L 344.179688 223.003906 C 343.824219 222.914062 343.644531 222.558594 343.734375 222.203125 C 343.824219 221.9375 344.089844 221.761719 344.445312 221.761719 L 355.210938 223.804688 C 356.367188 223.984375 357.433594 223.183594 357.523438 222.027344 C 357.613281 221.050781 356.988281 220.25 356.101562 219.980469 L 336.4375 216.246094 L 341.421875 213.046875 C 342.398438 212.78125 342.84375 211.625 342.308594 210.734375 C 341.953125 210.203125 341.421875 209.933594 340.796875 210.113281 L 335.015625 211.800781 C 331.097656 212.425781 327.71875 214.914062 324.335938 217.046875 L 319.265625 220.25 C 319.089844 220.335938 319 220.515625 319 220.78125 L 318.820312 233.851562 C 318.820312 234.117188 319 234.386719 319.265625 234.472656 C 321.3125 235.097656 329.855469 237.675781 332.789062 237.585938 C 336.171875 237.496094 338.75 237.675781 338.75 237.675781 L 351.207031 237.941406 C 351.917969 237.941406 352.542969 237.496094 352.628906 236.785156 C 352.808594 235.984375 352.273438 235.273438 351.472656 235.097656 L 340.53125 233.230469 L 340.796875 232.339844 L 353.609375 234.652344 C 354.410156 234.828125 355.210938 234.296875 355.476562 233.585938 C 355.746094 232.695312 355.300781 231.71875 354.320312 231.449219 L 341.953125 227.894531 L 342.488281 227.539062 C 342.664062 227.449219 342.84375 227.363281 342.933594 227.449219 L 356.277344 230.207031 C 357.257812 230.382812 358.324219 229.761719 358.589844 228.785156 C 358.859375 227.71875 358.234375 226.5625 357.167969 226.292969 Z M 357.167969 226.292969 " fill-opacity="1" fill-rule="nonzero"/><path fill="#ffffff" d="M 312.773438 216.78125 L 317.753906 236.964844 L 322.023438 236.164062 L 316.863281 215.980469 Z M 312.773438 216.78125 " fill-opacity="1" fill-rule="nonzero"/><path fill="#004370" d="M 234.476562 231.71875 L 173.796875 220.070312 C 173.796875 220.070312 155.558594 217.136719 152.980469 234.03125 C 152.980469 234.03125 152 250.566406 171.839844 251.988281 C 171.839844 251.988281 207.695312 257.414062 227.539062 259.636719 C 232.164062 260.167969 236.789062 259.992188 241.328125 259.28125 C 258.675781 256.34375 320.421875 238.832031 320.421875 238.832031 L 313.75 214.648438 Z M 234.476562 231.71875 " fill-opacity="1" fill-rule="nonzero"/><path fill="#bcbec0" d="M 619.632812 441.363281 L 639.382812 441.363281 L 639.382812 497.554688 L 619.632812 497.554688 Z M 619.632812 441.363281 " fill-opacity="1" fill-rule="nonzero"/><path fill="#808285" d="M 625.328125 441.363281 L 633.777344 441.363281 L 633.777344 497.554688 L 625.328125 497.554688 Z M 625.328125 441.363281 " fill-opacity="1" fill-rule="nonzero"/><path fill="#58595b" d="M 631.289062 441.363281 L 633.777344 441.363281 L 633.777344 497.554688 L 631.289062 497.554688 Z M 631.289062 441.363281 " fill-opacity="1" fill-rule="nonzero"/><path fill="#414042" d="M 639.296875 491.507812 L 620.789062 491.507812 C 617.410156 491.507812 614.648438 494.261719 614.648438 497.640625 L 614.648438 509.910156 C 614.648438 511.601562 616.074219 513.023438 617.765625 513.023438 L 642.320312 513.023438 C 644.011719 513.023438 645.433594 511.601562 645.433594 509.910156 L 645.433594 497.640625 C 645.433594 494.261719 642.675781 491.507812 639.296875 491.507812 Z M 639.296875 491.507812 " fill-opacity="1" fill-rule="nonzero"/><path fill="#414042" d="M 698.816406 519.246094 L 640.183594 509.734375 L 639.027344 509.554688 L 633.777344 507.957031 L 633.777344 505.289062 L 629.417969 506.621094 L 625.058594 505.289062 L 625.058594 507.957031 L 619.808594 509.554688 L 618.652344 509.734375 L 560.023438 519.246094 C 556.375 519.867188 553.617188 523.070312 553.617188 526.804688 L 553.617188 538.539062 L 558.507812 538.539062 L 558.507812 532.847656 C 558.507812 528.671875 561.890625 525.203125 566.160156 525.203125 L 692.945312 525.203125 C 697.125 525.203125 700.597656 528.582031 700.597656 532.847656 L 700.597656 538.539062 L 705.488281 538.539062 L 705.488281 526.804688 C 705.222656 522.980469 702.464844 519.78125 698.816406 519.246094 Z M 698.816406 519.246094 " fill-opacity="1" fill-rule="nonzero"/><path fill="#231f20" d="M 554.949219 531.695312 C 551.835938 531.695312 549.257812 534.273438 549.257812 537.382812 C 549.257812 540.496094 551.835938 543.074219 554.949219 543.074219 C 558.066406 543.074219 560.644531 540.496094 560.644531 537.382812 C 560.644531 534.273438 558.152344 531.695312 554.949219 531.695312 Z M 554.949219 531.695312 " fill-opacity="1" fill-rule="nonzero"/><path fill="#231f20" d="M 703.265625 531.695312 C 700.152344 531.695312 697.570312 534.273438 697.570312 537.382812 C 697.570312 540.496094 700.152344 543.074219 703.265625 543.074219 C 706.378906 543.074219 708.960938 540.496094 708.960938 537.382812 C 708.960938 534.273438 706.378906 531.695312 703.265625 531.695312 Z M 703.265625 531.695312 " fill-opacity="1" fill-rule="nonzero"/><g clip-path="url(#365afd3bf1)"><path fill="#231f20" d="M 737.164062 207 C 720.082031 206.023438 676.039062 275.636719 667.765625 333.25 C 659.492188 390.863281 658.957031 416.203125 658.957031 416.203125 L 572.300781 416.203125 C 572.300781 416.203125 539.203125 410.777344 539.824219 441.363281 C 539.824219 445.1875 542.941406 448.296875 546.765625 448.296875 L 679.242188 448.296875 C 681.734375 448.296875 683.957031 446.964844 685.113281 445.007812 C 685.738281 444.296875 686.273438 443.496094 686.539062 442.609375 L 757.359375 226.382812 C 757.894531 224.871094 757.894531 223.273438 757.359375 221.847656 C 757.449219 221.761719 754.335938 207.980469 737.164062 207 Z M 737.164062 207 " fill-opacity="1" fill-rule="nonzero"/></g><path fill="#6d6e71" d="M 672.214844 367.835938 L 592.320312 367.835938 C 578.617188 367.835938 567.496094 378.949219 567.496094 392.640625 L 567.496094 421.535156 C 567.496094 424.828125 570.164062 427.492188 573.457031 427.492188 C 576.75 427.492188 579.417969 424.828125 579.417969 421.535156 L 579.417969 392.640625 C 579.417969 385.527344 585.199219 379.839844 592.230469 379.839844 L 672.125 379.839844 C 675.417969 379.839844 678.085938 377.171875 678.085938 373.882812 C 678.175781 370.503906 675.507812 367.835938 672.214844 367.835938 Z M 672.214844 367.835938 " fill-opacity="1" fill-rule="nonzero"/><path fill="#bcbec0" d="M 137.945312 441.363281 L 157.695312 441.363281 L 157.695312 497.554688 L 137.945312 497.554688 Z M 137.945312 441.363281 " fill-opacity="1" fill-rule="nonzero"/><path fill="#808285" d="M 143.636719 441.363281 L 152.089844 441.363281 L 152.089844 497.554688 L 143.636719 497.554688 Z M 143.636719 441.363281 " fill-opacity="1" fill-rule="nonzero"/><path fill="#58595b" d="M 143.636719 441.363281 L 146.128906 441.363281 L 146.128906 497.554688 L 143.636719 497.554688 Z M 143.636719 441.363281 " fill-opacity="1" fill-rule="nonzero"/><path fill="#414042" d="M 156.628906 491.507812 L 138.121094 491.507812 C 134.742188 491.507812 131.984375 494.261719 131.984375 497.640625 L 131.984375 509.910156 C 131.984375 511.601562 133.40625 513.023438 135.097656 513.023438 L 159.652344 513.023438 C 161.34375 513.023438 162.765625 511.601562 162.765625 509.910156 L 162.765625 497.640625 C 162.765625 494.261719 160.007812 491.507812 156.628906 491.507812 Z M 156.628906 491.507812 " fill-opacity="1" fill-rule="nonzero"/><path fill="#414042" d="M 217.484375 519.246094 L 158.851562 509.734375 L 157.695312 509.554688 L 152.445312 507.957031 L 152.445312 505.289062 L 148.085938 506.621094 L 143.726562 505.289062 L 143.726562 507.957031 L 138.476562 509.554688 L 137.320312 509.734375 L 78.6875 519.246094 C 75.039062 519.867188 72.28125 523.070312 72.28125 526.804688 L 72.28125 538.539062 L 77.175781 538.539062 L 77.175781 532.847656 C 77.175781 528.671875 80.558594 525.203125 84.828125 525.203125 L 211.613281 525.203125 C 215.792969 525.203125 219.261719 528.582031 219.261719 532.847656 L 219.261719 538.539062 L 224.15625 538.539062 L 224.15625 526.804688 C 223.890625 522.980469 221.21875 519.78125 217.484375 519.246094 Z M 217.484375 519.246094 " fill-opacity="1" fill-rule="nonzero"/><path fill="#231f20" d="M 222.464844 531.695312 C 219.351562 531.695312 216.773438 534.273438 216.773438 537.382812 C 216.773438 540.496094 219.351562 543.074219 222.464844 543.074219 C 225.578125 543.074219 228.160156 540.496094 228.160156 537.382812 C 228.160156 534.273438 225.578125 531.695312 222.464844 531.695312 Z M 222.464844 531.695312 " fill-opacity="1" fill-rule="nonzero"/><path fill="#231f20" d="M 74.152344 531.695312 C 71.039062 531.695312 68.457031 534.273438 68.457031 537.382812 C 68.457031 540.496094 71.039062 543.074219 74.152344 543.074219 C 77.265625 543.074219 79.84375 540.496094 79.84375 537.382812 C 79.84375 534.273438 77.355469 531.695312 74.152344 531.695312 Z M 74.152344 531.695312 " fill-opacity="1" fill-rule="nonzero"/><path fill="#231f20" d="M 205.117188 416.203125 L 118.457031 416.203125 C 118.457031 416.203125 127 381.882812 118.636719 324.269531 C 110.273438 266.660156 83.761719 201.042969 66.675781 202.023438 C 49.59375 203 46.480469 216.78125 46.480469 216.78125 C 46.035156 218.203125 45.949219 219.804688 46.480469 221.316406 L 90.878906 442.519531 C 91.234375 443.40625 91.679688 444.296875 92.300781 444.917969 C 93.546875 446.875 95.683594 448.210938 98.171875 448.210938 L 230.652344 448.210938 C 234.476562 448.210938 237.589844 445.097656 237.589844 441.273438 C 238.214844 410.777344 205.117188 416.203125 205.117188 416.203125 Z M 205.117188 416.203125 " fill-opacity="1" fill-rule="nonzero"/><path fill="#6d6e71" d="M 185.1875 367.835938 L 105.203125 367.835938 C 101.910156 367.835938 99.242188 370.503906 99.242188 373.792969 C 99.242188 377.082031 101.910156 379.75 105.203125 379.75 L 185.097656 379.75 C 192.214844 379.75 197.910156 385.527344 197.910156 392.550781 L 197.910156 421.449219 C 197.910156 424.738281 200.578125 427.40625 203.871094 427.40625 C 207.164062 427.40625 209.832031 424.738281 209.832031 421.449219 L 209.832031 392.550781 C 210.011719 378.949219 198.886719 367.835938 185.1875 367.835938 Z M 185.1875 367.835938 " fill-opacity="1" fill-rule="nonzero"/><path fill="#493322" d="M 501.65625 310.847656 L 537.15625 310.847656 L 537.15625 326.316406 L 501.65625 326.316406 Z M 501.65625 310.847656 " fill-opacity="1" fill-rule="nonzero"/><path fill="#493322" d="M 513.667969 324.003906 L 534.398438 539.25 L 549.789062 539.25 L 527.28125 324.003906 Z M 513.667969 324.003906 " fill-opacity="1" fill-rule="nonzero"/><g clip-path="url(#03f6d55f58)"><path fill="#725a47" d="M 528.613281 534.359375 L 555.839844 534.359375 L 555.839844 544.050781 L 528.613281 544.050781 Z M 528.613281 534.359375 " fill-opacity="1" fill-rule="nonzero"/></g><path fill="#493322" d="M 282.609375 310.847656 L 318.109375 310.847656 L 318.109375 326.316406 L 282.609375 326.316406 Z M 282.609375 310.847656 " fill-opacity="1" fill-rule="nonzero"/><path fill="#493322" d="M 269.976562 539.25 L 285.367188 539.25 L 306.097656 324.003906 L 292.484375 324.003906 Z M 269.976562 539.25 " fill-opacity="1" fill-rule="nonzero"/><g clip-path="url(#2698dd1ca9)"><path fill="#725a47" d="M 263.925781 534.359375 L 291.152344 534.359375 L 291.152344 544.050781 L 263.925781 544.050781 Z M 263.925781 534.359375 " fill-opacity="1" fill-rule="nonzero"/></g><path fill="#725a47" d="M 543.5625 303.023438 L 268.019531 303.023438 C 266.683594 303.023438 265.617188 304.089844 265.617188 305.421875 L 265.617188 310.402344 C 265.617188 311.734375 266.683594 312.800781 268.019531 312.800781 L 543.5625 312.800781 C 544.898438 312.800781 545.964844 311.734375 545.964844 310.402344 L 545.964844 305.421875 C 545.964844 304.089844 544.898438 303.023438 543.5625 303.023438 Z M 543.5625 303.023438 " fill-opacity="1" fill-rule="nonzero"/><path fill="#9a7a60" d="M 554.503906 297.6875 L 257.074219 297.6875 C 255.742188 297.6875 254.671875 298.753906 254.671875 300.089844 L 254.671875 303.824219 C 254.671875 305.15625 255.742188 306.222656 257.074219 306.222656 L 554.503906 306.222656 C 555.839844 306.222656 556.90625 305.15625 556.90625 303.824219 L 556.90625 300.089844 C 556.90625 298.753906 555.839844 297.6875 554.503906 297.6875 Z M 554.503906 297.6875 " fill-opacity="1" fill-rule="nonzero"/><path fill="#6d6e71" d="M 451.921875 291.640625 L 461.351562 291.640625 L 461.351562 294.753906 L 451.921875 294.753906 Z M 451.921875 291.640625 " fill-opacity="1" fill-rule="nonzero"/><path fill="#6d6e71" d="M 462.777344 291.640625 L 472.207031 291.640625 L 472.207031 294.753906 L 462.777344 294.753906 Z M 462.777344 291.640625 " fill-opacity="1" fill-rule="nonzero"/><path fill="#6d6e71" d="M 473.542969 291.640625 L 482.972656 291.640625 L 482.972656 294.753906 L 473.542969 294.753906 Z M 473.542969 291.640625 " fill-opacity="1" fill-rule="nonzero"/><path fill="#6d6e71" d="M 484.308594 291.640625 L 493.738281 291.640625 L 493.738281 294.753906 L 484.308594 294.753906 Z M 484.308594 291.640625 " fill-opacity="1" fill-rule="nonzero"/><path fill="#a7a9ac" d="M 422.207031 226.472656 C 419.714844 227.273438 418.292969 229.941406 419.09375 232.429688 L 438.933594 296.175781 C 439.289062 297.152344 440.179688 297.867188 441.246094 297.867188 L 513.3125 297.867188 C 514.734375 297.867188 515.890625 296.710938 515.890625 295.289062 L 515.890625 293.066406 L 443.023438 293.066406 Z M 422.207031 226.472656 " fill-opacity="1" fill-rule="nonzero"/><path fill="#6d6e71" d="M 441.691406 288.261719 C 438.933594 288.261719 436.707031 290.484375 436.707031 293.242188 C 436.707031 296 438.933594 298.222656 441.691406 298.222656 C 444.449219 298.222656 446.671875 296 446.671875 293.242188 C 446.671875 290.484375 444.359375 288.261719 441.691406 288.261719 Z M 441.691406 288.261719 " fill-opacity="1" fill-rule="nonzero"/><path fill="#ffffff" d="M 441.691406 290.308594 C 440 290.308594 438.664062 291.640625 438.664062 293.332031 C 438.664062 295.019531 440 296.355469 441.691406 296.355469 C 443.382812 296.355469 444.714844 295.019531 444.714844 293.332031 C 444.625 291.640625 443.292969 290.308594 441.691406 290.308594 Z M 441.691406 290.308594 " fill-opacity="1" fill-rule="nonzero"/><path fill="#d1d3d4" d="M 455.480469 294.929688 L 453.167969 294.929688 C 452.8125 294.929688 452.546875 295.199219 452.546875 295.554688 L 452.546875 295.910156 C 452.546875 296.265625 452.8125 296.53125 453.167969 296.53125 L 455.480469 296.53125 C 455.835938 296.53125 456.105469 296.265625 456.105469 295.910156 L 456.105469 295.554688 C 456.015625 295.199219 455.746094 294.929688 455.480469 294.929688 Z M 455.480469 294.929688 " fill-opacity="1" fill-rule="nonzero"/><path fill="#d1d3d4" d="M 460.019531 294.929688 L 457.707031 294.929688 C 457.347656 294.929688 457.082031 295.199219 457.082031 295.554688 L 457.082031 295.910156 C 457.082031 296.265625 457.347656 296.53125 457.707031 296.53125 L 460.019531 296.53125 C 460.375 296.53125 460.640625 296.265625 460.640625 295.910156 L 460.640625 295.554688 C 460.640625 295.199219 460.375 294.929688 460.019531 294.929688 Z M 460.019531 294.929688 " fill-opacity="1" fill-rule="nonzero"/><path fill="#d1d3d4" d="M 464.554688 294.929688 L 462.242188 294.929688 C 461.886719 294.929688 461.621094 295.199219 461.621094 295.554688 L 461.621094 295.910156 C 461.621094 296.265625 461.886719 296.53125 462.242188 296.53125 L 464.554688 296.53125 C 464.910156 296.53125 465.179688 296.265625 465.179688 295.910156 L 465.179688 295.554688 C 465.179688 295.199219 464.910156 294.929688 464.554688 294.929688 Z M 464.554688 294.929688 " fill-opacity="1" fill-rule="nonzero"/><path fill="#6d6e71" d="M 350.671875 291.640625 L 360.105469 291.640625 L 360.105469 294.753906 L 350.671875 294.753906 Z M 350.671875 291.640625 " fill-opacity="1" fill-rule="nonzero"/><path fill="#6d6e71" d="M 339.90625 291.640625 L 349.339844 291.640625 L 349.339844 294.753906 L 339.90625 294.753906 Z M 339.90625 291.640625 " fill-opacity="1" fill-rule="nonzero"/><path fill="#6d6e71" d="M 329.054688 291.640625 L 338.484375 291.640625 L 338.484375 294.753906 L 329.054688 294.753906 Z M 329.054688 291.640625 " fill-opacity="1" fill-rule="nonzero"/><path fill="#6d6e71" d="M 318.289062 291.640625 L 327.71875 291.640625 L 327.71875 294.753906 L 318.289062 294.753906 Z M 318.289062 291.640625 " fill-opacity="1" fill-rule="nonzero"/><path fill="#a7a9ac" d="M 389.820312 226.472656 L 369.089844 293.152344 L 296.222656 293.152344 L 296.222656 295.375 C 296.222656 296.796875 297.378906 297.953125 298.804688 297.953125 L 370.871094 297.953125 C 371.9375 297.953125 372.828125 297.242188 373.183594 296.265625 L 393.023438 232.519531 C 393.644531 229.941406 392.3125 227.273438 389.820312 226.472656 Z M 389.820312 226.472656 " fill-opacity="1" fill-rule="nonzero"/><path fill="#6d6e71" d="M 370.335938 288.261719 C 367.578125 288.261719 365.351562 290.484375 365.351562 293.242188 C 365.351562 296 367.578125 298.222656 370.335938 298.222656 C 373.09375 298.222656 375.316406 296 375.316406 293.242188 C 375.316406 290.484375 373.09375 288.261719 370.335938 288.261719 Z M 370.335938 288.261719 " fill-opacity="1" fill-rule="nonzero"/><path fill="#ffffff" d="M 370.335938 290.308594 C 368.644531 290.308594 367.3125 291.640625 367.3125 293.332031 C 367.3125 295.019531 368.644531 296.355469 370.335938 296.355469 C 372.027344 296.355469 373.359375 295.019531 373.359375 293.332031 C 373.359375 291.640625 372.027344 290.308594 370.335938 290.308594 Z M 370.335938 290.308594 " fill-opacity="1" fill-rule="nonzero"/><path fill="#d1d3d4" d="M 358.859375 294.929688 L 356.546875 294.929688 C 356.1875 294.929688 355.921875 295.199219 355.921875 295.554688 L 355.921875 295.910156 C 355.921875 296.265625 356.1875 296.53125 356.546875 296.53125 L 358.859375 296.53125 C 359.214844 296.53125 359.480469 296.265625 359.480469 295.910156 L 359.480469 295.554688 C 359.480469 295.199219 359.214844 294.929688 358.859375 294.929688 Z M 358.859375 294.929688 " fill-opacity="1" fill-rule="nonzero"/><path fill="#d1d3d4" d="M 354.320312 294.929688 L 352.007812 294.929688 C 351.652344 294.929688 351.386719 295.199219 351.386719 295.554688 L 351.386719 295.910156 C 351.386719 296.265625 351.652344 296.53125 352.007812 296.53125 L 354.320312 296.53125 C 354.675781 296.53125 354.945312 296.265625 354.945312 295.910156 L 354.945312 295.554688 C 354.945312 295.199219 354.675781 294.929688 354.320312 294.929688 Z M 354.320312 294.929688 " fill-opacity="1" fill-rule="nonzero"/><path fill="#d1d3d4" d="M 349.785156 294.929688 L 347.46875 294.929688 C 347.113281 294.929688 346.847656 295.199219 346.847656 295.554688 L 346.847656 295.910156 C 346.847656 296.265625 347.113281 296.53125 347.46875 296.53125 L 349.785156 296.53125 C 350.140625 296.53125 350.40625 296.265625 350.40625 295.910156 L 350.40625 295.554688 C 350.316406 295.199219 350.050781 294.929688 349.785156 294.929688 Z M 349.785156 294.929688 " fill-opacity="1" fill-rule="nonzero"/></svg>