<svg xmlns="http://www.w3.org/2000/svg" xmlns:xlink="http://www.w3.org/1999/xlink" width="595" zoomAndPan="magnify" viewBox="0 0 446.25 466.499994" height="622" preserveAspectRatio="xMidYMid meet" version="1.0"><defs><clipPath id="b170ba816d"><path d="M 270 223 L 381.496094 223 L 381.496094 424 L 270 424 Z M 270 223 " clip-rule="nonzero"/></clipPath></defs><path fill="#a3e635" d="M 40.03125 285.039062 C 36.648438 253.695312 34.292969 222.203125 32.96875 190.566406 C 30.910156 139.5 32.085938 86.964844 51.65625 39.433594 C 58.132812 23.539062 68.582031 7.058594 85.652344 2.789062 C 96.539062 0.140625 108.167969 3.085938 118.171875 7.792969 C 146.722656 21.480469 165.265625 49 180.125 76.371094 C 194.988281 103.742188 208.382812 132.730469 231.632812 153.921875 C 253.707031 174.230469 282.84375 185.5625 311.539062 195.125 C 340.234375 204.839844 369.960938 213.519531 395.273438 229.707031 C 420.582031 246.042969 441.773438 271.648438 443.539062 300.933594 C 444.71875 320.800781 437.066406 340.519531 425.585938 357.148438 C 393.507812 403.355469 335.820312 425.578125 280.339844 440.292969 C 242.523438 450.300781 202.199219 458.097656 164.378906 448.089844 C 125.238281 437.644531 93.304688 408.800781 72.996094 374.953125 C 52.6875 341.109375 47.09375 329.039062 40.769531 290.191406 Z M 40.03125 285.039062 " fill-opacity="1" fill-rule="nonzero"/><path stroke-linecap="round" transform="matrix(1.471583, 0, 0, 1.471583, 1.476548, 1.760527)" fill="none" stroke-linejoin="round" d="M 6.29903 196.300362 C 4.000273 175.001021 2.399637 153.60081 1.499777 132.09973 C 0.100879 97.400703 0.89987 61.700946 14.198686 29.499761 C 18.599771 18.698786 25.700437 7.499643 37.300402 4.600979 C 44.600152 2.70039 52.499808 4.699194 59.30052 7.998681 C 78.699272 17.299889 91.299967 36.00052 101.400165 54.600281 C 111.500364 73.200042 120.599834 92.898748 136.399146 107.299163 C 151.399467 121.099671 171.199042 128.800243 190.701318 135.301002 C 210.20094 141.899975 230.398683 147.800827 247.599547 158.800886 C 264.800411 169.899159 279.200825 187.299107 280.400639 207.199552 C 281.19963 220.700106 275.999553 234.099792 268.200767 245.399804 C 246.399733 276.799344 207.198752 291.900535 169.500191 301.899864 C 143.799764 308.700576 116.400487 313.998867 90.70006 307.20081 C 64.099773 300.100144 42.399609 280.499653 28.599101 257.498807 C 14.801247 234.500614 11.000069 226.200136 6.699853 199.798933 Z M 6.29903 196.300362 " stroke="#000000" stroke-width="2" stroke-opacity="1" stroke-miterlimit="10"/><path fill="#ffc3ab" d="M 192.1875 178.554688 C 192.1875 178.554688 193.003906 215.109375 187.429688 220.675781 C 181.859375 226.246094 155.886719 235.527344 155.886719 235.527344 L 214.34375 279.15625 L 281.785156 234.777344 C 281.785156 234.777344 256.082031 224.386719 255.175781 214.179688 C 254.273438 203.96875 254.875 177.207031 254.875 177.207031 Z M 192.1875 178.554688 " fill-opacity="1" fill-rule="nonzero"/><path fill="#bf8f8b" d="M 220.085938 240.714844 L 218.835938 422.164062 L 47.296875 430.976562 C 47.296875 430.976562 37.828125 359.261719 94.652344 256.832031 C 98.332031 250.191406 131.863281 238.019531 153.523438 229.675781 C 169.199219 223.640625 182.265625 219.15625 182.265625 219.15625 C 191.285156 226.375 220.085938 240.714844 220.085938 240.714844 Z M 220.085938 240.714844 " fill-opacity="1" fill-rule="nonzero"/><path fill="#bf8f8b" d="M 258.070312 219.15625 C 258.070312 219.15625 330.121094 246.3125 339.207031 255.699219 C 365.320312 282.765625 380.285156 422.164062 380.285156 422.164062 L 212.480469 422.164062 L 218.4375 241.171875 C 218.4375 241.171875 249.050781 226.375 258.070312 219.15625 Z M 258.070312 219.15625 " fill-opacity="1" fill-rule="nonzero"/><path fill="#bf8f8b" d="M 254.523438 200.011719 C 254.523438 200.011719 248.320312 214.933594 241.941406 220.464844 L 220.191406 239.335938 C 220.191406 239.335938 232.40625 260.882812 237.324219 261.367188 C 242.242188 261.851562 273.046875 228.777344 271.886719 224.832031 C 270.722656 220.886719 254.523438 200.011719 254.523438 200.011719 Z M 254.523438 200.011719 " fill-opacity="1" fill-rule="nonzero"/><path fill="#bf8f8b" d="M 191.792969 200.011719 C 191.792969 200.011719 195.078125 212.15625 201.042969 218.128906 C 207.007812 224.101562 220.191406 239.339844 220.191406 239.339844 C 220.191406 239.339844 206.542969 258.1875 201.609375 258.320312 C 196.671875 258.457031 171.746094 226.886719 173.183594 223.03125 C 174.621094 219.175781 191.792969 200.011719 191.792969 200.011719 Z M 191.792969 200.011719 " fill-opacity="1" fill-rule="nonzero"/><path fill="#424242" d="M 237.382812 262.488281 L 237.214844 262.488281 C 231.957031 261.972656 221.300781 243.574219 219.210938 239.890625 C 219.078125 239.65625 219.035156 239.40625 219.082031 239.144531 C 219.128906 238.878906 219.25 238.65625 219.457031 238.484375 L 241.203125 219.613281 C 247.304688 214.324219 253.417969 199.746094 253.472656 199.582031 C 253.636719 199.183594 253.933594 198.953125 254.359375 198.898438 C 254.785156 198.847656 255.132812 198.992188 255.398438 199.324219 C 257.070312 201.480469 271.757812 220.472656 272.925781 224.511719 C 273.136719 225.222656 273.625 226.894531 265.914062 236.238281 C 259.472656 244.050781 242.242188 262.488281 237.382812 262.488281 Z M 221.609375 239.574219 C 226.601562 248.246094 234.507812 259.953125 237.382812 260.238281 C 238.171875 260.238281 241.722656 258.203125 249.652344 250.433594 C 261.003906 239.328125 270.683594 227.28125 270.683594 225.09375 C 269.835938 222.417969 261.070312 210.484375 254.6875 202.203125 C 252.8125 206.378906 247.8125 216.765625 242.570312 221.3125 Z M 221.609375 239.574219 " fill-opacity="1" fill-rule="nonzero"/><path fill="#424242" d="M 201.589844 259.4375 C 197.152344 259.4375 184.03125 243.167969 178.707031 235.710938 C 171.179688 225.195312 171.867188 223.324219 172.125 222.621094 C 173.597656 218.683594 189.183594 201.234375 190.957031 199.246094 C 191.253906 198.910156 191.621094 198.796875 192.058594 198.902344 C 192.492188 199.003906 192.769531 199.273438 192.886719 199.703125 C 192.914062 199.828125 196.15625 211.628906 201.84375 217.3125 C 207.765625 223.234375 220.914062 238.425781 221.042969 238.582031 C 221.214844 238.777344 221.308594 239.007812 221.320312 239.269531 C 221.332031 239.53125 221.261719 239.765625 221.109375 239.976562 C 218.773438 243.203125 206.867188 259.261719 201.636719 259.425781 Z M 174.226562 223.382812 C 173.976562 225.445312 181.984375 237.441406 191.402344 248.058594 C 197.828125 255.28125 200.832031 257.183594 201.542969 257.183594 C 204.464844 257.105469 213.152344 246.96875 218.71875 239.386719 C 216.097656 236.371094 205.371094 224.070312 200.210938 218.933594 C 195.503906 214.230469 192.472656 206.03125 191.261719 202.28125 C 184.519531 209.890625 175.246094 220.816406 174.226562 223.382812 Z M 174.226562 223.382812 " fill-opacity="1" fill-rule="nonzero"/><path fill="#424242" d="M 191.957031 201.113281 C 191.808594 201.113281 191.664062 201.082031 191.527344 201.027344 C 191.386719 200.96875 191.265625 200.886719 191.160156 200.78125 C 191.054688 200.675781 190.972656 200.554688 190.917969 200.414062 C 190.859375 200.277344 190.832031 200.132812 190.832031 199.984375 L 190.832031 190.960938 C 190.832031 190.8125 190.859375 190.667969 190.917969 190.53125 C 190.972656 190.390625 191.054688 190.269531 191.160156 190.164062 C 191.265625 190.058594 191.386719 189.976562 191.527344 189.917969 C 191.664062 189.863281 191.808594 189.832031 191.957031 189.832031 C 192.105469 189.832031 192.25 189.863281 192.390625 189.917969 C 192.527344 189.976562 192.648438 190.058594 192.753906 190.164062 C 192.859375 190.269531 192.941406 190.390625 193 190.53125 C 193.058594 190.667969 193.085938 190.8125 193.085938 190.960938 L 193.085938 199.984375 C 193.085938 200.132812 193.058594 200.277344 193 200.417969 C 192.945312 200.554688 192.863281 200.675781 192.757812 200.785156 C 192.652344 200.890625 192.527344 200.96875 192.390625 201.027344 C 192.25 201.085938 192.109375 201.113281 191.957031 201.113281 Z M 191.957031 201.113281 " fill-opacity="1" fill-rule="nonzero"/><path fill="#424242" d="M 254.261719 201.683594 C 254.109375 201.691406 253.960938 201.664062 253.816406 201.609375 C 253.671875 201.554688 253.546875 201.476562 253.4375 201.367188 C 253.328125 201.261719 253.242188 201.140625 253.183594 200.996094 C 253.121094 200.855469 253.09375 200.710938 253.09375 200.558594 L 253.09375 189.792969 C 253.09375 189.644531 253.121094 189.5 253.179688 189.359375 C 253.234375 189.222656 253.316406 189.101562 253.421875 188.996094 C 253.527344 188.890625 253.648438 188.808594 253.789062 188.75 C 253.925781 188.695312 254.070312 188.664062 254.21875 188.664062 C 254.371094 188.664062 254.511719 188.695312 254.652344 188.75 C 254.789062 188.808594 254.910156 188.890625 255.015625 188.996094 C 255.121094 189.101562 255.203125 189.222656 255.261719 189.359375 C 255.320312 189.5 255.347656 189.644531 255.347656 189.792969 L 255.347656 200.558594 C 255.347656 200.703125 255.320312 200.84375 255.265625 200.980469 C 255.210938 201.117188 255.132812 201.238281 255.03125 201.339844 C 254.933594 201.445312 254.8125 201.53125 254.679688 201.589844 C 254.546875 201.648438 254.40625 201.679688 254.261719 201.683594 Z M 254.261719 201.683594 " fill-opacity="1" fill-rule="nonzero"/><path fill="#ffc3ab" d="M 291.90625 106.53125 C 287.277344 101.902344 283.222656 102.40625 280.304688 104.105469 C 280.617188 99.429688 280.753906 96.550781 280.753906 96.550781 C 280.753906 96.550781 286.625 29.632812 234.984375 24.941406 C 183.339844 20.25 161.050781 46.070312 162.8125 100.660156 C 162.8125 100.660156 162.847656 102.328125 163.007812 105.191406 C 160.085938 102.785156 155.363281 101.015625 149.851562 106.53125 C 140.460938 115.921875 149.851562 145.246094 166.277344 138.214844 C 166.574219 138.085938 166.863281 137.941406 167.117188 137.808594 C 170.003906 151.964844 174.800781 166.832031 182.761719 175.792969 C 201.539062 196.929688 213.273438 199.269531 226.183594 199.269531 C 239.09375 199.269531 264.847656 176.101562 270.191406 164.640625 C 272.976562 158.667969 275.085938 148.921875 276.65625 138.648438 C 292.347656 143.808594 301.066406 115.695312 291.90625 106.53125 Z M 291.90625 106.53125 " fill-opacity="1" fill-rule="nonzero"/><path fill="#efecec" d="M 238.308594 158.558594 C 237.578125 161.175781 236.074219 164.535156 233.003906 166.863281 C 230.804688 168.519531 227.816406 169.644531 223.726562 169.589844 C 221.980469 169.582031 220.3125 169.207031 218.730469 168.472656 C 217.144531 167.734375 215.785156 166.703125 214.652344 165.371094 C 213.726562 164.324219 212.933594 163.179688 212.277344 161.949219 C 211.816406 161.09375 211.414062 160.214844 211.066406 159.3125 C 210.960938 159.03125 210.921875 158.742188 210.945312 158.445312 C 210.964844 158.148438 211.050781 157.871094 211.195312 157.609375 C 211.339844 157.347656 211.53125 157.128906 211.773438 156.953125 C 212.015625 156.777344 212.28125 156.660156 212.574219 156.601562 C 212.945312 156.523438 213.308594 156.539062 213.671875 156.648438 C 218.261719 158.015625 226.472656 159.453125 235.328125 156.207031 L 235.484375 156.15625 C 235.847656 156.007812 236.21875 155.960938 236.605469 156.023438 C 236.992188 156.082031 237.332031 156.238281 237.632812 156.492188 C 237.929688 156.746094 238.136719 157.058594 238.261719 157.429688 C 238.382812 157.800781 238.398438 158.175781 238.308594 158.558594 Z M 238.308594 158.558594 " fill-opacity="1" fill-rule="nonzero"/><path fill="#424242" d="M 183.132812 104.140625 C 182.785156 104.144531 182.5 104.011719 182.277344 103.75 C 182.179688 103.636719 182.109375 103.511719 182.0625 103.371094 C 182.011719 103.226562 181.996094 103.082031 182.003906 102.933594 C 182.015625 102.785156 182.054688 102.644531 182.121094 102.511719 C 182.1875 102.378906 182.277344 102.261719 182.390625 102.164062 C 182.851562 101.769531 193.738281 92.589844 209.792969 99.652344 C 209.929688 99.714844 210.050781 99.796875 210.15625 99.90625 C 210.257812 100.015625 210.335938 100.136719 210.390625 100.277344 C 210.445312 100.417969 210.472656 100.5625 210.46875 100.714844 C 210.464844 100.863281 210.433594 101.007812 210.371094 101.144531 C 210.3125 101.28125 210.226562 101.402344 210.121094 101.503906 C 210.011719 101.609375 209.886719 101.6875 209.746094 101.742188 C 209.605469 101.796875 209.460938 101.820312 209.3125 101.816406 C 209.164062 101.816406 209.019531 101.78125 208.882812 101.722656 C 194.171875 95.242188 184.28125 103.515625 183.867188 103.871094 C 183.65625 104.050781 183.410156 104.140625 183.132812 104.140625 Z M 183.132812 104.140625 " fill-opacity="1" fill-rule="nonzero"/><path fill="#424242" d="M 262.707031 104.140625 C 262.429688 104.140625 262.183594 104.050781 261.972656 103.871094 C 261.550781 103.503906 251.660156 95.246094 236.957031 101.722656 C 236.820312 101.78125 236.675781 101.8125 236.527344 101.816406 C 236.378906 101.820312 236.234375 101.792969 236.09375 101.738281 C 235.953125 101.683594 235.832031 101.605469 235.722656 101.5 C 235.613281 101.398438 235.53125 101.277344 235.46875 101.140625 C 235.410156 101.003906 235.378906 100.859375 235.375 100.710938 C 235.371094 100.558594 235.398438 100.414062 235.453125 100.277344 C 235.507812 100.136719 235.585938 100.011719 235.691406 99.90625 C 235.792969 99.796875 235.914062 99.714844 236.050781 99.652344 C 252.105469 92.589844 262.992188 101.769531 263.449219 102.164062 C 263.628906 102.320312 263.75 102.511719 263.808594 102.738281 C 263.867188 102.96875 263.855469 103.191406 263.769531 103.414062 C 263.6875 103.636719 263.550781 103.8125 263.355469 103.945312 C 263.160156 104.078125 262.945312 104.144531 262.707031 104.140625 Z M 262.707031 104.140625 " fill-opacity="1" fill-rule="nonzero"/><path fill="#424242" d="M 224.851562 149.476562 C 224.621094 149.476562 224.40625 149.414062 224.214844 149.285156 C 224.019531 149.152344 223.882812 148.980469 223.796875 148.761719 C 223.710938 148.546875 223.695312 148.324219 223.746094 148.097656 C 223.796875 147.871094 223.910156 147.675781 224.082031 147.519531 C 224.117188 147.488281 227.585938 144.292969 228.796875 142.179688 C 229.164062 141.546875 228.765625 140.753906 227.628906 138.800781 C 226.296875 136.667969 225.242188 134.402344 224.46875 132.011719 C 223.472656 128.832031 223.542969 114.53125 223.832031 111.101562 C 223.84375 110.953125 223.882812 110.808594 223.949219 110.675781 C 224.019531 110.542969 224.109375 110.429688 224.226562 110.332031 C 224.339844 110.234375 224.46875 110.164062 224.609375 110.117188 C 224.753906 110.070312 224.898438 110.054688 225.050781 110.066406 C 225.199219 110.078125 225.339844 110.121094 225.472656 110.1875 C 225.605469 110.257812 225.722656 110.347656 225.816406 110.464844 C 225.914062 110.578125 225.984375 110.707031 226.03125 110.847656 C 226.078125 110.992188 226.09375 111.136719 226.078125 111.289062 C 225.78125 114.792969 225.800781 128.707031 226.617188 131.335938 C 227.34375 133.566406 228.328125 135.671875 229.574219 137.65625 C 230.835938 139.792969 231.832031 141.484375 230.742188 143.316406 C 229.332031 145.726562 225.765625 149.039062 225.617188 149.160156 C 225.402344 149.363281 225.148438 149.46875 224.851562 149.476562 Z M 224.851562 149.476562 " fill-opacity="1" fill-rule="nonzero"/><path fill="#424242" d="M 211.078125 126.710938 C 210.820312 126.710938 210.589844 126.628906 210.390625 126.46875 C 199.738281 118.148438 190.386719 126.089844 189.996094 126.433594 C 189.882812 126.535156 189.753906 126.605469 189.613281 126.652344 C 189.472656 126.703125 189.324219 126.71875 189.175781 126.710938 C 189.027344 126.699219 188.886719 126.660156 188.753906 126.59375 C 188.617188 126.527344 188.503906 126.4375 188.402344 126.328125 C 188.304688 126.214844 188.234375 126.085938 188.183594 125.945312 C 188.136719 125.804688 188.117188 125.65625 188.128906 125.507812 C 188.136719 125.359375 188.175781 125.21875 188.242188 125.082031 C 188.308594 124.949219 188.398438 124.832031 188.511719 124.734375 C 188.621094 124.640625 199.609375 115.203125 211.773438 124.695312 C 211.960938 124.84375 212.089844 125.03125 212.160156 125.261719 C 212.226562 125.492188 212.222656 125.722656 212.144531 125.949219 C 212.066406 126.175781 211.929688 126.359375 211.734375 126.5 C 211.535156 126.640625 211.320312 126.710938 211.078125 126.710938 Z M 211.078125 126.710938 " fill-opacity="1" fill-rule="nonzero"/><path fill="#424242" d="M 239.765625 126.710938 C 239.527344 126.710938 239.308594 126.640625 239.113281 126.5 C 238.917969 126.359375 238.78125 126.175781 238.699219 125.949219 C 238.621094 125.722656 238.617188 125.492188 238.683594 125.261719 C 238.753906 125.03125 238.882812 124.84375 239.070312 124.695312 C 251.210938 115.210938 262.222656 124.640625 262.332031 124.734375 C 262.445312 124.832031 262.535156 124.949219 262.601562 125.082031 C 262.667969 125.21875 262.707031 125.359375 262.71875 125.507812 C 262.726562 125.65625 262.707031 125.804688 262.660156 125.945312 C 262.613281 126.085938 262.539062 126.214844 262.441406 126.328125 C 262.34375 126.4375 262.226562 126.527344 262.09375 126.59375 C 261.957031 126.660156 261.816406 126.699219 261.667969 126.710938 C 261.519531 126.71875 261.375 126.703125 261.230469 126.652344 C 261.089844 126.605469 260.960938 126.535156 260.851562 126.433594 C 260.457031 126.089844 251.105469 118.148438 240.457031 126.46875 C 240.253906 126.632812 240.023438 126.710938 239.765625 126.710938 Z M 239.765625 126.710938 " fill-opacity="1" fill-rule="nonzero"/><path fill="#424242" d="M 224.011719 170.71875 L 223.707031 170.71875 C 217.601562 170.636719 212.738281 166.734375 210.007812 159.722656 C 209.789062 159.167969 209.738281 158.597656 209.847656 158.011719 C 209.957031 157.425781 210.214844 156.914062 210.621094 156.476562 C 211.050781 156.015625 211.566406 155.703125 212.175781 155.539062 C 212.78125 155.375 213.386719 155.382812 213.988281 155.566406 C 218.078125 156.792969 226.3125 158.359375 235.085938 155.097656 C 235.667969 154.875 236.265625 154.824219 236.878906 154.9375 C 237.488281 155.050781 238.027344 155.316406 238.488281 155.734375 C 238.921875 156.125 239.21875 156.601562 239.378906 157.160156 C 239.542969 157.722656 239.542969 158.285156 239.382812 158.84375 C 238.148438 163.332031 234.503906 170.71875 224.011719 170.71875 Z M 213.023438 157.679688 C 212.730469 157.683594 212.480469 157.792969 212.28125 158.007812 C 212.03125 158.269531 211.976562 158.566406 212.113281 158.902344 C 213.789062 163.214844 217.171875 168.375 223.738281 168.464844 L 224.007812 168.464844 C 232.5625 168.464844 235.910156 162.929688 237.21875 158.261719 C 237.316406 157.921875 237.234375 157.640625 236.96875 157.414062 C 236.820312 157.277344 236.648438 157.1875 236.449219 157.152344 C 236.25 157.117188 236.058594 157.136719 235.871094 157.214844 C 226.484375 160.71875 217.726562 159.03125 213.34375 157.726562 C 213.238281 157.699219 213.132812 157.683594 213.023438 157.679688 Z M 213.023438 157.679688 " fill-opacity="1" fill-rule="nonzero"/><path fill="#424242" d="M 226.183594 200.398438 C 220.148438 200.398438 213.554688 199.925781 206.195312 196.476562 C 198.53125 192.890625 190.8125 186.542969 181.914062 176.542969 C 172.726562 166.203125 167.257812 143.117188 165.335938 133.675781 C 165.300781 133.527344 165.296875 133.375 165.320312 133.226562 C 165.347656 133.074219 165.398438 132.933594 165.480469 132.804688 C 165.5625 132.675781 165.667969 132.570312 165.792969 132.480469 C 165.921875 132.394531 166.058594 132.335938 166.207031 132.304688 C 166.359375 132.277344 166.507812 132.277344 166.65625 132.304688 C 166.808594 132.335938 166.945312 132.394531 167.070312 132.480469 C 167.199219 132.570312 167.300781 132.675781 167.382812 132.804688 C 167.464844 132.933594 167.519531 133.074219 167.546875 133.226562 C 169.433594 142.488281 174.777344 165.109375 183.605469 175.042969 C 202.585938 196.40625 214.117188 198.144531 226.183594 198.144531 C 238.394531 198.144531 263.929688 175.394531 269.167969 164.160156 C 271.796875 158.539062 275.011719 146.34375 276.605469 135.796875 C 276.628906 135.648438 276.679688 135.511719 276.753906 135.382812 C 276.832031 135.253906 276.929688 135.144531 277.050781 135.058594 C 277.171875 134.96875 277.304688 134.90625 277.449219 134.871094 C 277.597656 134.835938 277.742188 134.828125 277.890625 134.851562 C 278.039062 134.871094 278.175781 134.921875 278.304688 135 C 278.433594 135.078125 278.542969 135.175781 278.628906 135.296875 C 278.71875 135.417969 278.78125 135.550781 278.816406 135.695312 C 278.851562 135.839844 278.859375 135.988281 278.835938 136.136719 C 277.167969 147.039062 273.960938 159.230469 271.214844 165.121094 C 268.46875 171.011719 260.863281 179.570312 251.742188 187.121094 C 246.921875 191.113281 234.789062 200.398438 226.183594 200.398438 Z M 226.183594 200.398438 " fill-opacity="1" fill-rule="nonzero"/><path fill="#424242" d="M 279.859375 140.214844 C 279.148438 140.214844 278.398438 140.179688 277.621094 140.109375 C 277.324219 140.066406 277.082031 139.929688 276.894531 139.695312 C 276.707031 139.460938 276.628906 139.191406 276.65625 138.894531 C 276.683594 138.59375 276.808594 138.34375 277.03125 138.144531 C 277.257812 137.949219 277.519531 137.855469 277.820312 137.867188 C 289.148438 138.847656 292.828125 131.542969 294.761719 125.066406 C 297.570312 115.71875 293.535156 111.078125 293.492188 111.042969 C 293.398438 110.929688 293.324219 110.804688 293.277344 110.664062 C 293.230469 110.523438 293.214844 110.382812 293.222656 110.234375 C 293.230469 110.085938 293.269531 109.945312 293.332031 109.8125 C 293.398438 109.679688 293.484375 109.566406 293.59375 109.46875 C 293.703125 109.367188 293.828125 109.292969 293.96875 109.246094 C 294.105469 109.195312 294.25 109.171875 294.394531 109.179688 C 294.542969 109.183594 294.683594 109.21875 294.816406 109.28125 C 294.953125 109.34375 295.070312 109.425781 295.171875 109.535156 C 295.375 109.761719 300.089844 115.164062 296.921875 125.726562 C 295.03125 132.039062 291.203125 140.214844 279.859375 140.214844 Z M 279.859375 140.214844 " fill-opacity="1" fill-rule="nonzero"/><path fill="#424242" d="M 118.234375 423.289062 C 118.085938 423.289062 117.941406 423.261719 117.804688 423.207031 C 117.664062 423.148438 117.542969 423.070312 117.4375 422.964844 C 117.332031 422.859375 117.25 422.738281 117.191406 422.597656 C 117.136719 422.460938 117.105469 422.316406 117.105469 422.167969 L 117.105469 370.890625 C 117.105469 370.738281 117.136719 370.597656 117.191406 370.457031 C 117.25 370.320312 117.332031 370.199219 117.4375 370.09375 C 117.542969 369.984375 117.664062 369.90625 117.804688 369.847656 C 117.941406 369.789062 118.085938 369.761719 118.234375 369.761719 C 118.382812 369.761719 118.527344 369.789062 118.664062 369.847656 C 118.804688 369.90625 118.925781 369.984375 119.03125 370.09375 C 119.136719 370.199219 119.21875 370.320312 119.277344 370.457031 C 119.332031 370.597656 119.363281 370.738281 119.363281 370.890625 L 119.363281 422.167969 C 119.363281 422.316406 119.332031 422.460938 119.277344 422.597656 C 119.21875 422.738281 119.136719 422.859375 119.03125 422.964844 C 118.925781 423.070312 118.804688 423.148438 118.664062 423.207031 C 118.527344 423.261719 118.382812 423.289062 118.234375 423.289062 Z M 118.234375 423.289062 " fill-opacity="1" fill-rule="nonzero"/><path fill="#424242" d="M 161.582031 140.496094 C 159.113281 140.476562 156.839844 139.8125 154.75 138.496094 C 148.867188 134.902344 144.941406 127.054688 144.988281 118.972656 C 145.058594 107.203125 150.699219 104.230469 150.9375 104.105469 C 151.070312 104.039062 151.210938 103.996094 151.359375 103.984375 C 151.507812 103.972656 151.65625 103.992188 151.796875 104.035156 C 151.941406 104.082031 152.070312 104.15625 152.183594 104.25 C 152.296875 104.347656 152.386719 104.464844 152.457031 104.597656 C 152.523438 104.730469 152.5625 104.871094 152.574219 105.019531 C 152.589844 105.171875 152.570312 105.316406 152.523438 105.457031 C 152.480469 105.601562 152.40625 105.730469 152.308594 105.84375 C 152.214844 105.957031 152.097656 106.046875 151.964844 106.117188 C 151.867188 106.167969 147.292969 108.785156 147.246094 118.972656 C 147.203125 126.292969 150.691406 133.359375 155.925781 136.554688 C 156.707031 137.066406 157.542969 137.464844 158.429688 137.746094 C 159.320312 138.03125 160.230469 138.191406 161.160156 138.226562 C 162.09375 138.261719 163.011719 138.175781 163.921875 137.960938 C 164.828125 137.75 165.691406 137.417969 166.511719 136.972656 C 166.644531 136.902344 166.785156 136.859375 166.933594 136.847656 C 167.082031 136.832031 167.230469 136.847656 167.371094 136.894531 C 167.515625 136.9375 167.644531 137.007812 167.757812 137.101562 C 167.875 137.199219 167.964844 137.3125 168.035156 137.445312 C 168.105469 137.578125 168.144531 137.71875 168.160156 137.871094 C 168.171875 138.019531 168.15625 138.164062 168.113281 138.308594 C 168.066406 138.449219 167.996094 138.578125 167.898438 138.695312 C 167.804688 138.808594 167.691406 138.902344 167.558594 138.96875 C 165.691406 139.96875 163.699219 140.480469 161.582031 140.496094 Z M 161.582031 140.496094 " fill-opacity="1" fill-rule="nonzero"/><g clip-path="url(#b170ba816d)"><path fill="#424242" d="M 380.285156 423.289062 C 380.003906 423.289062 379.761719 423.199219 379.546875 423.015625 C 379.335938 422.832031 379.210938 422.601562 379.167969 422.324219 C 379.070312 421.636719 369.238281 352.902344 360.792969 312.894531 C 352.792969 274.914062 340.703125 259.199219 339.585938 257.8125 C 337.804688 256.5625 315.757812 241.503906 271.738281 226.109375 C 271.59375 226.066406 271.464844 225.992188 271.347656 225.894531 C 271.234375 225.792969 271.140625 225.675781 271.074219 225.539062 C 271.007812 225.402344 270.96875 225.257812 270.957031 225.105469 C 270.949219 224.953125 270.96875 224.808594 271.019531 224.664062 C 271.070312 224.519531 271.148438 224.390625 271.25 224.277344 C 271.351562 224.167969 271.472656 224.078125 271.609375 224.015625 C 271.75 223.949219 271.894531 223.914062 272.046875 223.910156 C 272.199219 223.90625 272.34375 223.929688 272.488281 223.984375 C 318.554688 240.089844 340.796875 255.902344 341.015625 256.058594 C 341.089844 256.113281 341.15625 256.175781 341.214844 256.242188 C 341.753906 256.871094 354.503906 272.105469 363 312.433594 C 371.441406 352.511719 381.300781 421.316406 381.402344 422.003906 C 381.421875 422.152344 381.414062 422.300781 381.375 422.445312 C 381.339844 422.589844 381.277344 422.722656 381.1875 422.84375 C 381.097656 422.960938 380.988281 423.058594 380.859375 423.136719 C 380.730469 423.214844 380.589844 423.261719 380.441406 423.285156 Z M 380.285156 423.289062 " fill-opacity="1" fill-rule="nonzero"/></g><path fill="#7a6562" d="M 294.652344 368.597656 C 294.976562 328.625 293.078125 288.753906 288.960938 248.988281 C 287.957031 241.433594 289.070312 239.9375 281.332031 236.753906 C 271.261719 233.070312 261.527344 228.394531 253.027344 228.378906 C 225.683594 231.808594 133.210938 243.574219 109.082031 246.621094 C 108.707031 246.667969 108.34375 246.753906 107.992188 246.871094 C 107.636719 246.992188 107.296875 247.144531 106.972656 247.335938 C 106.648438 247.523438 106.347656 247.742188 106.066406 247.992188 C 105.789062 248.238281 105.535156 248.515625 105.3125 248.816406 C 105.085938 249.113281 104.894531 249.433594 104.734375 249.773438 C 104.574219 250.113281 104.449219 250.464844 104.359375 250.828125 C 104.269531 251.191406 104.21875 251.558594 104.203125 251.933594 C 104.191406 252.308594 104.210938 252.679688 104.273438 253.050781 C 114.09375 313.71875 107.945312 406.660156 106.136719 430.324219 C 106.109375 430.6875 106.117188 431.046875 106.164062 431.40625 C 106.210938 431.765625 106.292969 432.117188 106.414062 432.460938 C 106.53125 432.800781 106.683594 433.128906 106.867188 433.441406 C 107.054688 433.75 107.269531 434.039062 107.515625 434.308594 C 107.757812 434.574219 108.027344 434.816406 108.320312 435.027344 C 108.617188 435.238281 108.925781 435.417969 109.257812 435.566406 C 109.589844 435.714844 109.929688 435.828125 110.285156 435.90625 C 110.636719 435.984375 110.996094 436.023438 111.359375 436.03125 L 135.703125 436.316406 L 136.015625 436.316406 C 135.257812 441.386719 137.910156 446.699219 143.699219 446.070312 L 282.371094 428.683594 C 283.820312 428.503906 285.164062 428.027344 286.40625 427.257812 C 287.648438 426.492188 288.671875 425.5 289.480469 424.285156 C 292.957031 416.6875 292.214844 408.191406 293.378906 399.738281 C 294.148438 389.390625 294.503906 378.964844 294.652344 368.597656 Z M 294.652344 368.597656 " fill-opacity="1" fill-rule="nonzero"/><path fill="#424242" d="M 142.777344 447.238281 C 141.746094 447.261719 140.753906 447.078125 139.796875 446.683594 C 138.84375 446.289062 138.011719 445.71875 137.296875 444.976562 C 136.375 443.9375 135.695312 442.761719 135.257812 441.449219 C 134.820312 440.132812 134.660156 438.785156 134.773438 437.402344 L 111.347656 437.128906 C 110.457031 437.117188 109.605469 436.929688 108.792969 436.566406 C 107.980469 436.203125 107.273438 435.691406 106.671875 435.035156 C 106.070312 434.382812 105.625 433.636719 105.335938 432.796875 C 105.046875 431.957031 104.9375 431.09375 105.007812 430.210938 C 107.023438 403.835938 112.855469 313.117188 103.152344 253.203125 C 103.078125 252.757812 103.054688 252.3125 103.070312 251.863281 C 103.089844 251.410156 103.152344 250.96875 103.261719 250.53125 C 103.371094 250.09375 103.519531 249.671875 103.710938 249.265625 C 103.90625 248.859375 104.136719 248.476562 104.40625 248.117188 C 104.675781 247.757812 104.980469 247.425781 105.316406 247.128906 C 105.652344 246.828125 106.015625 246.566406 106.402344 246.339844 C 106.792969 246.113281 107.199219 245.929688 107.625 245.785156 C 108.050781 245.640625 108.488281 245.539062 108.933594 245.484375 C 143.570312 241.082031 226.9375 230.492188 252.882812 227.238281 L 253.023438 227.238281 C 259.9375 227.238281 267.445312 230.160156 275.394531 233.269531 C 277.457031 234.078125 279.589844 234.90625 281.710938 235.683594 C 288.675781 238.546875 289.152344 240.292969 289.738281 245.910156 C 289.832031 246.769531 289.929688 247.738281 290.078125 248.832031 C 294.191406 288.660156 296.089844 328.589844 295.773438 368.628906 C 295.609375 380.257812 295.1875 390.449219 294.492188 399.792969 C 294.492188 399.792969 294.492188 399.839844 294.492188 399.863281 C 294.136719 402.441406 293.960938 405.070312 293.785156 407.613281 C 293.402344 413.363281 292.996094 419.300781 290.507812 424.75 C 290.484375 424.804688 290.453125 424.859375 290.421875 424.910156 C 289.519531 426.261719 288.378906 427.367188 286.996094 428.222656 C 285.617188 429.078125 284.117188 429.605469 282.503906 429.804688 L 143.851562 447.179688 C 143.492188 447.21875 143.136719 447.238281 142.777344 447.238281 Z M 253.09375 229.507812 C 227.074219 232.773438 143.851562 243.34375 109.226562 247.738281 C 108.929688 247.777344 108.640625 247.84375 108.359375 247.9375 C 108.074219 248.035156 107.804688 248.15625 107.546875 248.308594 C 107.289062 248.457031 107.046875 248.632812 106.824219 248.828125 C 106.601562 249.027344 106.402344 249.246094 106.222656 249.484375 C 106.042969 249.722656 105.886719 249.976562 105.761719 250.246094 C 105.632812 250.515625 105.53125 250.796875 105.460938 251.085938 C 105.386719 251.375 105.34375 251.671875 105.332031 251.96875 C 105.320312 252.265625 105.335938 252.5625 105.382812 252.859375 C 115.125 313.046875 109.285156 403.960938 107.261719 430.402344 C 107.242188 430.6875 107.25 430.96875 107.285156 431.25 C 107.320312 431.53125 107.386719 431.808594 107.480469 432.078125 C 107.570312 432.34375 107.691406 432.601562 107.835938 432.847656 C 107.980469 433.089844 108.148438 433.320312 108.339844 433.527344 C 108.53125 433.738281 108.742188 433.925781 108.972656 434.09375 C 109.203125 434.261719 109.445312 434.402344 109.707031 434.519531 C 109.964844 434.636719 110.234375 434.726562 110.511719 434.789062 C 110.789062 434.851562 111.070312 434.886719 111.351562 434.890625 L 136.011719 435.183594 C 136.351562 435.183594 136.632812 435.316406 136.851562 435.578125 C 137.074219 435.839844 137.160156 436.136719 137.109375 436.472656 C 136.699219 439.179688 137.390625 441.839844 138.898438 443.410156 C 139.503906 444.03125 140.222656 444.476562 141.046875 444.746094 C 141.871094 445.015625 142.714844 445.082031 143.570312 444.941406 C 143.695312 444.910156 143.820312 444.890625 143.949219 444.875 L 282.226562 427.542969 C 283.496094 427.386719 284.679688 426.972656 285.773438 426.300781 C 286.863281 425.632812 287.769531 424.765625 288.488281 423.707031 C 290.773438 418.660156 291.140625 413.1875 291.53125 407.4375 C 291.707031 404.863281 291.886719 402.210938 292.25 399.566406 C 292.945312 390.277344 293.359375 380.144531 293.515625 368.59375 C 293.835938 328.660156 291.941406 288.828125 287.832031 249.105469 C 287.691406 248.019531 287.589844 247.027344 287.496094 246.183594 C 286.984375 241.304688 286.910156 240.289062 280.894531 237.820312 C 278.796875 237.058594 276.652344 236.222656 274.578125 235.414062 C 266.859375 232.382812 259.570312 229.542969 253.09375 229.507812 Z M 294.652344 368.585938 Z M 294.652344 368.585938 " fill-opacity="1" fill-rule="nonzero"/><path fill="#efecec" d="M 269.636719 238.515625 C 233.46875 243.886719 161.375 253.910156 139.988281 256.859375 C 139.582031 256.917969 139.1875 257.015625 138.800781 257.148438 C 138.414062 257.28125 138.042969 257.453125 137.6875 257.65625 C 137.332031 257.863281 137 258.097656 136.691406 258.367188 C 136.382812 258.636719 136.101562 258.929688 135.847656 259.253906 C 135.59375 259.574219 135.375 259.917969 135.1875 260.28125 C 135 260.648438 134.847656 261.027344 134.734375 261.417969 C 134.617188 261.8125 134.539062 262.210938 134.503906 262.621094 C 134.464844 263.027344 134.464844 263.4375 134.503906 263.84375 C 143.605469 358.511719 136.769531 427.636719 135.933594 435.382812 L 135.351562 436.285156 L 112.867188 436.019531 C 114.261719 413.558594 121.550781 326.972656 114.09375 258.789062 C 114.050781 258.417969 114.046875 258.046875 114.078125 257.675781 C 114.109375 257.304688 114.175781 256.9375 114.28125 256.578125 C 114.382812 256.21875 114.519531 255.875 114.6875 255.542969 C 114.859375 255.210938 115.058594 254.898438 115.289062 254.601562 C 115.519531 254.308594 115.773438 254.042969 116.058594 253.796875 C 116.339844 253.554688 116.644531 253.339844 116.96875 253.15625 C 117.292969 252.96875 117.632812 252.820312 117.984375 252.699219 C 118.339844 252.582031 118.699219 252.496094 119.070312 252.449219 L 251.265625 234.855469 C 253.011719 234.621094 254.738281 234.722656 256.445312 235.152344 Z M 269.636719 238.515625 " fill-opacity="1" fill-rule="nonzero"/><path fill="#424242" d="M 136.015625 437.433594 L 135.953125 437.433594 C 135.804688 437.421875 135.664062 437.386719 135.53125 437.324219 C 135.398438 437.261719 135.285156 437.175781 135.183594 437.066406 C 135.085938 436.957031 135.011719 436.832031 134.960938 436.691406 C 134.910156 436.554688 134.890625 436.410156 134.894531 436.261719 C 134.925781 435.714844 138.113281 380.746094 138.03125 363.019531 C 137.949219 345.289062 135.113281 282.601562 134.257812 273.871094 L 134.183594 273.113281 C 133.398438 264.960938 132.65625 257.265625 141.597656 255.886719 C 149.640625 254.644531 268.28125 237.601562 269.476562 237.429688 C 269.625 237.414062 269.769531 237.421875 269.914062 237.460938 C 270.054688 237.5 270.183594 237.5625 270.304688 237.652344 C 270.421875 237.742188 270.515625 237.851562 270.589844 237.976562 C 270.667969 238.105469 270.714844 238.242188 270.734375 238.390625 C 270.757812 238.535156 270.75 238.679688 270.714844 238.824219 C 270.675781 238.96875 270.617188 239.097656 270.527344 239.21875 C 270.441406 239.335938 270.332031 239.433594 270.207031 239.511719 C 270.082031 239.589844 269.945312 239.640625 269.800781 239.664062 C 268.601562 239.832031 149.972656 256.878906 141.941406 258.117188 C 135.410156 259.121094 135.5625 263.875 136.433594 272.894531 L 136.5 273.65625 C 137.335938 282.421875 140.207031 345.300781 140.289062 363.007812 C 140.367188 380.710938 137.171875 435.84375 137.144531 436.398438 C 137.121094 436.691406 137 436.9375 136.78125 437.136719 C 136.566406 437.335938 136.3125 437.433594 136.015625 437.433594 Z M 136.015625 437.433594 " fill-opacity="1" fill-rule="nonzero"/><path fill="#ffc3ab" d="M 233.027344 365.164062 C 233.027344 365.164062 248.378906 347.96875 252.835938 342.371094 C 257.292969 336.773438 267.441406 325.425781 269.523438 320.582031 C 272.410156 313.882812 283.441406 288.511719 286.464844 313.40625 C 287.863281 324.800781 276.621094 348.992188 276.621094 348.992188 L 292.816406 344.679688 C 292.816406 344.679688 294.019531 333.164062 294.183594 329.953125 C 294.46875 324.273438 307.964844 332.582031 314.535156 340.527344 C 320.085938 347.234375 318.140625 355.105469 318.140625 355.105469 C 318.140625 355.105469 323.8125 363.660156 317.1875 372.402344 C 317.1875 372.402344 322.070312 380.421875 314.300781 386.632812 C 314.300781 386.632812 317.078125 394.347656 303.203125 400.984375 C 289.328125 407.625 257.46875 409.328125 247.707031 408.371094 C 237.945312 407.414062 222.640625 413.628906 222.640625 413.628906 L 211.617188 371.800781 C 211.617188 371.800781 228.625 367.332031 233.027344 365.164062 Z M 233.027344 365.164062 " fill-opacity="1" fill-rule="nonzero"/><path fill="#424242" d="M 222.714844 414.757812 C 222.539062 414.757812 222.371094 414.71875 222.210938 414.640625 C 221.90625 414.488281 221.714844 414.246094 221.628906 413.917969 L 210.574219 372.09375 C 210.496094 371.789062 210.535156 371.503906 210.691406 371.234375 C 210.847656 370.964844 211.074219 370.792969 211.375 370.714844 C 211.546875 370.667969 227.828125 366.371094 232.359375 364.238281 C 233.960938 362.453125 247.828125 346.882812 251.980469 341.660156 C 253.152344 340.222656 254.65625 338.386719 256.28125 336.441406 C 261.070312 330.707031 267.03125 323.585938 268.519531 320.121094 C 274.28125 306.765625 278.511719 301.050781 282.207031 301.582031 C 284.984375 301.980469 286.710938 305.671875 287.632812 313.269531 C 288.804688 322.941406 281.40625 341.027344 278.667969 347.292969 L 291.828125 343.785156 C 292.097656 341.15625 292.996094 332.554688 293.109375 329.894531 C 293.101562 329.59375 293.140625 329.292969 293.230469 329.003906 C 293.316406 328.710938 293.449219 328.441406 293.625 328.195312 C 293.800781 327.945312 294.007812 327.730469 294.253906 327.550781 C 294.5 327.371094 294.765625 327.230469 295.054688 327.136719 C 299.492188 325.660156 310.492188 333.804688 315.453125 339.808594 C 316.300781 340.851562 317.027344 341.972656 317.636719 343.175781 C 318.242188 344.375 318.71875 345.628906 319.054688 346.929688 C 319.394531 348.234375 319.59375 349.554688 319.648438 350.902344 C 319.703125 352.246094 319.617188 353.582031 319.386719 354.90625 C 320.429688 356.78125 324.128906 364.5625 318.5625 372.507812 C 319.570312 374.664062 322 381.472656 315.640625 387.054688 C 316.03125 389.363281 315.96875 396.167969 303.792969 402 C 289.773438 408.714844 257.953125 410.503906 247.710938 409.492188 C 238.363281 408.574219 223.335938 414.613281 223.175781 414.675781 C 223.027344 414.734375 222.875 414.761719 222.714844 414.757812 Z M 213.039062 372.601562 L 223.484375 412.121094 C 227.324219 410.671875 239.457031 406.425781 247.894531 407.25 C 257.671875 408.214844 289.371094 406.402344 302.804688 399.96875 C 315.460938 393.90625 313.402344 387.28125 313.320312 387 C 313.25 386.773438 313.246094 386.546875 313.3125 386.320312 C 313.378906 386.09375 313.5 385.902344 313.683594 385.75 C 320.558594 380.25 316.480469 373.28125 316.304688 372.988281 C 316.1875 372.789062 316.132812 372.578125 316.144531 372.347656 C 316.15625 372.117188 316.230469 371.910156 316.371094 371.726562 C 322.410156 363.75 317.492188 356.046875 317.28125 355.726562 C 317.105469 355.449219 317.054688 355.148438 317.128906 354.832031 C 317.128906 354.761719 318.847656 347.410156 313.746094 341.246094 C 308.128906 334.453125 298.402344 328.386719 295.789062 329.277344 C 295.644531 329.328125 295.421875 329.398438 295.390625 330.011719 C 295.230469 333.210938 294.066406 344.324219 294.019531 344.796875 C 293.996094 345.03125 293.90625 345.234375 293.753906 345.414062 C 293.601562 345.589844 293.410156 345.707031 293.183594 345.765625 L 276.992188 350.066406 C 276.777344 350.125 276.570312 350.121094 276.359375 350.054688 C 276.152344 349.988281 275.976562 349.871094 275.835938 349.703125 C 275.695312 349.535156 275.609375 349.34375 275.582031 349.125 C 275.550781 348.910156 275.582031 348.699219 275.675781 348.503906 C 275.789062 348.261719 286.777344 324.472656 285.425781 313.535156 C 284.363281 304.832031 282.46875 303.898438 281.921875 303.816406 C 280.824219 303.65625 277.527344 305.019531 270.625 321.011719 C 269.003906 324.765625 262.929688 332.039062 258.050781 337.882812 C 256.433594 339.820312 254.910156 341.648438 253.78125 343.0625 C 249.359375 348.636719 234.082031 365.742188 233.917969 365.910156 C 233.820312 366.019531 233.707031 366.109375 233.574219 366.171875 C 229.679688 368.074219 216.875 371.566406 213.011719 372.601562 Z M 233.054688 365.164062 Z M 233.054688 365.164062 " fill-opacity="1" fill-rule="nonzero"/><path fill="#424242" d="M 276.640625 350.109375 C 276.347656 350.117188 276.09375 350.023438 275.875 349.832031 C 275.65625 349.636719 275.527344 349.398438 275.496094 349.109375 C 275.464844 348.816406 275.53125 348.554688 275.703125 348.320312 C 275.875 348.082031 276.105469 347.9375 276.390625 347.878906 C 295.21875 343.582031 298.003906 341.011719 298.300781 340.664062 C 298.402344 340.40625 298.578125 340.210938 298.828125 340.078125 C 299.074219 339.949219 299.335938 339.914062 299.609375 339.980469 C 299.882812 340.042969 300.101562 340.1875 300.265625 340.414062 C 300.429688 340.640625 300.5 340.894531 300.476562 341.175781 C 300.234375 344.136719 287.519531 347.648438 276.890625 350.078125 C 276.808594 350.097656 276.726562 350.109375 276.640625 350.109375 Z M 298.226562 340.980469 Z M 298.226562 340.980469 Z M 298.226562 340.980469 Z M 298.226562 340.980469 Z M 298.226562 340.980469 Z M 298.226562 340.980469 " fill-opacity="1" fill-rule="nonzero"/><path fill="#424242" d="M 294.195312 364.117188 C 293.90625 364.113281 293.652344 364.011719 293.441406 363.8125 C 293.230469 363.613281 293.109375 363.371094 293.085938 363.078125 C 293.0625 362.789062 293.140625 362.53125 293.320312 362.300781 C 293.496094 362.070312 293.726562 361.929688 294.015625 361.878906 C 313.988281 358.664062 317.246094 354.21875 317.277344 354.171875 C 317.34375 354.027344 317.441406 353.90625 317.5625 353.800781 C 317.683594 353.699219 317.820312 353.625 317.972656 353.578125 C 318.125 353.535156 318.28125 353.523438 318.4375 353.542969 C 318.59375 353.5625 318.742188 353.617188 318.878906 353.699219 C 319.015625 353.78125 319.128906 353.886719 319.21875 354.019531 C 319.308594 354.148438 319.367188 354.292969 319.398438 354.449219 C 319.429688 354.605469 319.425781 354.761719 319.390625 354.917969 C 319.351562 355.070312 319.289062 355.210938 319.191406 355.339844 C 318.859375 355.878906 315.3125 360.710938 294.375 364.105469 C 294.316406 364.113281 294.253906 364.117188 294.195312 364.117188 Z M 294.195312 364.117188 " fill-opacity="1" fill-rule="nonzero"/><path fill="#424242" d="M 291.484375 378.859375 C 291.339844 378.863281 291.195312 378.84375 291.058594 378.792969 C 290.921875 378.742188 290.796875 378.667969 290.691406 378.570312 C 290.582031 378.46875 290.496094 378.355469 290.433594 378.222656 C 290.367188 378.089844 290.332031 377.953125 290.320312 377.804688 C 290.3125 377.660156 290.332031 377.515625 290.378906 377.378906 C 290.421875 377.238281 290.492188 377.113281 290.589844 377.003906 C 290.683594 376.890625 290.796875 376.800781 290.925781 376.734375 C 291.054688 376.664062 291.191406 376.625 291.339844 376.609375 C 302.707031 375.101562 316.78125 371.351562 316.917969 371.316406 C 317.0625 371.277344 317.210938 371.269531 317.359375 371.289062 C 317.507812 371.308594 317.644531 371.355469 317.777344 371.429688 C 317.90625 371.503906 318.015625 371.601562 318.105469 371.71875 C 318.199219 371.835938 318.261719 371.96875 318.300781 372.113281 C 318.339844 372.257812 318.347656 372.40625 318.328125 372.554688 C 318.308594 372.703125 318.261719 372.839844 318.1875 372.96875 C 318.113281 373.101562 318.015625 373.210938 317.898438 373.300781 C 317.78125 373.390625 317.648438 373.457031 317.503906 373.496094 C 317.359375 373.53125 303.152344 377.316406 291.628906 378.847656 Z M 291.484375 378.859375 " fill-opacity="1" fill-rule="nonzero"/><path fill="#424242" d="M 290.355469 393.832031 C 290.0625 393.832031 289.804688 393.730469 289.589844 393.53125 C 289.371094 393.328125 289.253906 393.082031 289.230469 392.785156 C 289.210938 392.492188 289.292969 392.226562 289.476562 391.996094 C 289.660156 391.765625 289.902344 391.628906 290.195312 391.589844 C 298.289062 390.296875 306.199219 388.292969 313.933594 385.574219 C 314.074219 385.523438 314.21875 385.5 314.367188 385.503906 C 314.519531 385.511719 314.660156 385.546875 314.796875 385.609375 C 314.933594 385.671875 315.050781 385.757812 315.152344 385.867188 C 315.253906 385.976562 315.332031 386.101562 315.382812 386.242188 C 315.433594 386.382812 315.457031 386.527344 315.453125 386.675781 C 315.445312 386.824219 315.414062 386.96875 315.351562 387.105469 C 315.289062 387.238281 315.203125 387.359375 315.09375 387.460938 C 314.980469 387.5625 314.859375 387.636719 314.71875 387.691406 C 306.835938 390.457031 298.773438 392.5 290.527344 393.820312 Z M 290.355469 393.832031 " fill-opacity="1" fill-rule="nonzero"/><path fill="#bf8f8b" d="M 254.183594 420.199219 C 252.339844 420.566406 236.917969 426.785156 230.144531 429.28125 C 198.476562 440.96875 139.21875 453.734375 115.875 457.582031 C 87.546875 462.257812 49.910156 453.0625 47.035156 428.988281 C 44.160156 404.910156 87.027344 376.265625 102.320312 373.402344 C 113.769531 371.261719 175.582031 354.421875 218.421875 347.410156 C 226.089844 346.148438 240.496094 342.9375 244.789062 342.863281 C 251.21875 342.746094 255.210938 350.96875 255.976562 354.246094 C 259.34375 368.726562 272.65625 416.5 254.183594 420.199219 Z M 254.183594 420.199219 " fill-opacity="1" fill-rule="nonzero"/><path fill="#424242" d="M 100.433594 459.460938 C 94.960938 459.480469 89.519531 459.078125 84.105469 458.246094 C 70.152344 456.0625 59.382812 451.066406 52.96875 443.796875 C 39.867188 428.933594 43.855469 405.011719 52.71875 360.5 C 61.644531 315.621094 91.234375 260.777344 91.53125 260.226562 C 91.601562 260.089844 91.691406 259.972656 91.808594 259.871094 C 91.925781 259.769531 92.054688 259.699219 92.203125 259.652344 C 92.347656 259.605469 92.496094 259.589844 92.648438 259.605469 C 92.800781 259.617188 92.945312 259.664062 93.082031 259.734375 C 93.214844 259.808594 93.328125 259.90625 93.425781 260.023438 C 93.519531 260.144531 93.589844 260.277344 93.628906 260.425781 C 93.671875 260.574219 93.679688 260.722656 93.660156 260.875 C 93.640625 261.027344 93.589844 261.171875 93.511719 261.300781 C 93.214844 261.847656 63.789062 316.398438 54.957031 360.9375 C 46.246094 404.730469 42.28125 428.238281 54.695312 442.300781 C 67.105469 456.359375 97.558594 461 130.367188 453.792969 C 163.863281 446.40625 243.332031 428.082031 257.71875 417.347656 C 261.730469 414.355469 263.660156 407.078125 263.308594 396.308594 C 262.625 375.195312 253.589844 349.132812 248.703125 345.984375 C 243.597656 342.664062 221.367188 347.632812 197.816406 352.890625 C 184.964844 355.761719 171.699219 358.734375 159.058594 360.914062 C 122.253906 367.277344 94.796875 377.171875 94.503906 377.277344 C 94.363281 377.339844 94.214844 377.371094 94.058594 377.371094 C 93.902344 377.371094 93.753906 377.339844 93.609375 377.277344 C 93.46875 377.21875 93.34375 377.128906 93.238281 377.015625 C 93.128906 376.902344 93.050781 376.773438 92.996094 376.628906 C 92.945312 376.484375 92.921875 376.332031 92.929688 376.175781 C 92.941406 376.023438 92.980469 375.875 93.050781 375.734375 C 93.117188 375.597656 93.214844 375.476562 93.332031 375.378906 C 93.453125 375.277344 93.585938 375.207031 93.734375 375.160156 C 94.007812 375.0625 121.640625 365.09375 158.671875 358.695312 C 171.265625 356.519531 184.515625 353.558594 197.328125 350.699219 C 223.421875 344.855469 244.0625 340.261719 249.933594 344.097656 C 256.441406 348.320312 264.898438 376.585938 265.535156 396.246094 C 265.914062 407.933594 263.730469 415.664062 259.039062 419.164062 C 244.84375 429.765625 172.621094 446.800781 130.835938 456.007812 C 120.828125 458.257812 110.691406 459.40625 100.433594 459.460938 Z M 100.433594 459.460938 " fill-opacity="1" fill-rule="nonzero"/><path fill="#424242" d="M 112.8125 247.019531 C 112.539062 247.019531 112.300781 246.933594 112.089844 246.757812 C 111.878906 246.582031 111.75 246.359375 111.703125 246.089844 C 111.65625 245.824219 111.699219 245.570312 111.835938 245.332031 C 111.96875 245.09375 112.164062 244.929688 112.421875 244.835938 L 174.082031 221.960938 C 174.222656 221.910156 174.371094 221.886719 174.523438 221.894531 C 174.671875 221.898438 174.816406 221.933594 174.953125 222 C 175.089844 222.0625 175.210938 222.148438 175.3125 222.261719 C 175.417969 222.371094 175.492188 222.5 175.546875 222.640625 C 175.597656 222.78125 175.621094 222.929688 175.617188 223.082031 C 175.609375 223.230469 175.574219 223.375 175.511719 223.515625 C 175.449219 223.652344 175.359375 223.769531 175.25 223.875 C 175.140625 223.976562 175.011719 224.054688 174.871094 224.105469 L 113.203125 246.949219 C 113.078125 246.996094 112.949219 247.019531 112.8125 247.019531 Z M 112.8125 247.019531 " fill-opacity="1" fill-rule="nonzero"/><path fill="#424242" d="M 320.425781 423.289062 C 320.136719 423.292969 319.882812 423.195312 319.667969 423 C 319.453125 422.808594 319.332031 422.566406 319.304688 422.277344 L 317.113281 400.914062 C 317.09375 400.765625 317.109375 400.617188 317.148438 400.472656 C 317.191406 400.328125 317.261719 400.199219 317.355469 400.082031 C 317.449219 399.960938 317.5625 399.867188 317.695312 399.796875 C 317.828125 399.726562 317.96875 399.679688 318.117188 399.667969 C 318.269531 399.652344 318.414062 399.664062 318.558594 399.707031 C 318.703125 399.753906 318.832031 399.820312 318.949219 399.917969 C 319.066406 400.015625 319.160156 400.128906 319.230469 400.261719 C 319.300781 400.394531 319.34375 400.535156 319.355469 400.6875 L 321.546875 422.050781 C 321.5625 422.199219 321.546875 422.347656 321.503906 422.488281 C 321.464844 422.632812 321.394531 422.761719 321.300781 422.878906 C 321.207031 422.996094 321.09375 423.089844 320.960938 423.160156 C 320.832031 423.230469 320.691406 423.273438 320.542969 423.289062 Z M 320.425781 423.289062 " fill-opacity="1" fill-rule="nonzero"/><path fill="#7a6562" d="M 166.839844 100.21875 L 165.015625 123.429688 C 153.917969 113.738281 144.722656 93.628906 143.898438 80.632812 C 143.367188 72.222656 150.003906 46.382812 179.253906 24.941406 C 208.5 3.5 221.3125 17.800781 221.3125 17.800781 C 221.3125 17.800781 234.820312 5.007812 248.183594 5.550781 C 261.550781 6.09375 297.050781 43.566406 304.378906 74.1875 C 311.703125 104.808594 277.304688 124.308594 277.304688 124.308594 L 278.660156 104.90625 C 239.894531 101.445312 224.09375 58.894531 224.09375 58.894531 C 224.09375 58.894531 206.503906 52.125 184.152344 68.828125 C 177.574219 73.742188 173.574219 77.910156 170.5 85.113281 C 168.464844 89.949219 167.242188 94.988281 166.839844 100.21875 Z M 166.839844 100.21875 " fill-opacity="1" fill-rule="nonzero"/><path fill="#424242" d="M 248.671875 94.101562 C 248.429688 94.101562 248.214844 94.03125 248.023438 93.890625 C 229.421875 80.730469 221.96875 55.773438 221.65625 54.738281 C 221.605469 54.59375 221.585938 54.441406 221.597656 54.289062 C 221.605469 54.132812 221.648438 53.988281 221.71875 53.847656 C 221.789062 53.710938 221.882812 53.59375 222.003906 53.496094 C 222.121094 53.394531 222.257812 53.324219 222.40625 53.28125 C 222.554688 53.238281 222.703125 53.226562 222.859375 53.246094 C 223.011719 53.265625 223.15625 53.3125 223.289062 53.390625 C 223.421875 53.46875 223.535156 53.570312 223.628906 53.695312 C 223.71875 53.820312 223.785156 53.957031 223.820312 54.105469 C 223.894531 54.359375 231.378906 79.375 249.324219 92.089844 C 249.527344 92.234375 249.667969 92.421875 249.746094 92.65625 C 249.824219 92.886719 249.824219 93.121094 249.75 93.359375 C 249.675781 93.59375 249.539062 93.78125 249.339844 93.925781 C 249.140625 94.074219 248.917969 94.144531 248.671875 94.140625 Z M 248.671875 94.101562 " fill-opacity="1" fill-rule="nonzero"/><path fill="#424242" d="M 165.390625 119.773438 C 165.242188 119.773438 165.097656 119.746094 164.960938 119.6875 C 164.820312 119.632812 164.699219 119.550781 164.59375 119.445312 C 164.488281 119.339844 164.40625 119.21875 164.347656 119.082031 C 164.292969 118.945312 164.261719 118.800781 164.261719 118.652344 C 164.261719 117.382812 164.261719 87.386719 178.761719 71.753906 C 194.171875 55.128906 216.769531 56.484375 217.71875 56.5625 C 217.871094 56.566406 218.015625 56.605469 218.152344 56.667969 C 218.292969 56.734375 218.410156 56.824219 218.511719 56.9375 C 218.613281 57.050781 218.6875 57.175781 218.738281 57.320312 C 218.789062 57.464844 218.808594 57.613281 218.796875 57.765625 C 218.789062 57.917969 218.75 58.058594 218.679688 58.195312 C 218.613281 58.332031 218.519531 58.449219 218.402344 58.546875 C 218.289062 58.644531 218.15625 58.71875 218.011719 58.765625 C 217.867188 58.808594 217.71875 58.824219 217.566406 58.8125 C 217.347656 58.8125 195.078125 57.484375 180.421875 73.304688 C 166.539062 88.277344 166.515625 118.351562 166.515625 118.652344 C 166.519531 118.800781 166.488281 118.945312 166.433594 119.082031 C 166.375 119.222656 166.296875 119.34375 166.191406 119.449219 C 166.085938 119.558594 165.964844 119.640625 165.828125 119.695312 C 165.6875 119.753906 165.542969 119.785156 165.394531 119.785156 Z M 165.390625 119.773438 " fill-opacity="1" fill-rule="nonzero"/><path fill="#424242" d="M 270.085938 68.898438 L 269.894531 68.898438 C 262.457031 67.605469 254.914062 57.988281 248.277344 49.507812 C 244.644531 44.875 241.214844 40.496094 238.832031 39.019531 C 232.640625 35.171875 224.425781 38.8125 224.34375 38.847656 C 224.207031 38.910156 224.066406 38.945312 223.914062 38.949219 C 223.765625 38.953125 223.621094 38.929688 223.480469 38.878906 C 223.339844 38.824219 223.214844 38.746094 223.105469 38.644531 C 222.996094 38.542969 222.910156 38.425781 222.851562 38.289062 C 222.789062 38.152344 222.753906 38.007812 222.75 37.859375 C 222.746094 37.710938 222.769531 37.5625 222.820312 37.425781 C 222.875 37.285156 222.949219 37.160156 223.050781 37.050781 C 223.15625 36.941406 223.273438 36.855469 223.410156 36.792969 C 223.789062 36.621094 232.796875 32.613281 240.023438 37.101562 C 242.742188 38.789062 246.128906 43.109375 250.046875 48.113281 C 256.136719 55.871094 263.707031 65.53125 270.289062 66.675781 C 270.578125 66.726562 270.808594 66.871094 270.988281 67.101562 C 271.164062 67.332031 271.242188 67.59375 271.214844 67.882812 C 271.191406 68.175781 271.070312 68.417969 270.855469 68.617188 C 270.640625 68.8125 270.390625 68.914062 270.097656 68.914062 Z M 270.085938 68.898438 " fill-opacity="1" fill-rule="nonzero"/><path fill="#424242" d="M 275.507812 45.605469 L 275.390625 45.605469 C 267.925781 44.867188 260.492188 38.09375 253.9375 32.117188 C 250.371094 28.867188 247.003906 25.800781 244.632812 24.796875 C 238.464844 22.183594 230.027344 27.980469 229.921875 28.039062 C 229.800781 28.128906 229.664062 28.191406 229.519531 28.226562 C 229.371094 28.261719 229.222656 28.265625 229.070312 28.242188 C 228.921875 28.214844 228.78125 28.164062 228.652344 28.082031 C 228.523438 28 228.417969 27.898438 228.332031 27.773438 C 228.242188 27.648438 228.183594 27.511719 228.152344 27.363281 C 228.121094 27.210938 228.121094 27.0625 228.148438 26.914062 C 228.179688 26.765625 228.234375 26.625 228.320312 26.5 C 228.40625 26.375 228.511719 26.269531 228.636719 26.1875 C 229.023438 25.917969 238.214844 19.628906 245.507812 22.714844 C 248.238281 23.882812 251.585938 26.921875 255.441406 30.453125 C 261.421875 35.902344 268.875 42.695312 275.59375 43.359375 C 275.890625 43.390625 276.140625 43.519531 276.335938 43.746094 C 276.53125 43.972656 276.621094 44.234375 276.605469 44.535156 C 276.59375 44.835938 276.476562 45.085938 276.261719 45.296875 C 276.046875 45.503906 275.789062 45.609375 275.488281 45.609375 Z M 275.507812 45.605469 " fill-opacity="1" fill-rule="nonzero"/><path fill="#424242" d="M 167.042969 62.066406 C 166.699219 62.066406 166.417969 61.941406 166.195312 61.679688 C 166.097656 61.566406 166.023438 61.441406 165.976562 61.300781 C 165.929688 61.160156 165.910156 61.011719 165.917969 60.863281 C 165.929688 60.714844 165.96875 60.574219 166.035156 60.441406 C 166.097656 60.304688 166.1875 60.191406 166.300781 60.089844 C 166.429688 59.984375 178.878906 49.121094 191.140625 39.3125 C 203.035156 29.792969 214.144531 39.707031 214.257812 39.808594 C 214.359375 39.910156 214.441406 40.027344 214.5 40.160156 C 214.558594 40.296875 214.589844 40.4375 214.59375 40.582031 C 214.597656 40.726562 214.578125 40.871094 214.527344 41.007812 C 214.472656 41.144531 214.398438 41.265625 214.300781 41.375 C 214.203125 41.484375 214.085938 41.570312 213.957031 41.632812 C 213.824219 41.695312 213.683594 41.730469 213.539062 41.742188 C 213.394531 41.75 213.25 41.730469 213.113281 41.683594 C 212.972656 41.636719 212.847656 41.566406 212.738281 41.472656 C 212.324219 41.097656 202.90625 32.785156 192.554688 41.070312 C 180.328125 50.851562 167.90625 61.679688 167.800781 61.792969 C 167.585938 61.980469 167.332031 62.070312 167.042969 62.066406 Z M 167.042969 62.066406 " fill-opacity="1" fill-rule="nonzero"/></svg>