<svg xmlns="http://www.w3.org/2000/svg" xmlns:xlink="http://www.w3.org/1999/xlink" width="511" zoomAndPan="magnify" viewBox="0 0 383.25 473.999983" height="632" preserveAspectRatio="xMidYMid meet" version="1.0"><defs><clipPath id="e8528a6554"><path d="M 1 0.460938 L 381.753906 0.460938 L 381.753906 472.789062 L 1 472.789062 Z M 1 0.460938 " clip-rule="nonzero"/></clipPath></defs><g clip-path="url(#e8528a6554)"><path fill="#a3e635" d="M 322.671875 10 C 307.234375 2.847656 289.925781 0.433594 272.914062 0.804688 C 255.90625 1.175781 239.074219 4.234375 222.394531 7.605469 C 201.027344 11.921875 179.488281 16.871094 160.164062 26.964844 C 140.84375 37.058594 123.710938 52.953125 116.390625 73.488281 C 111.730469 86.554688 111.253906 100.691406 110.890625 114.5625 C 110.523438 128.429688 110.175781 142.550781 105.746094 155.699219 C 101.722656 167.632812 94.46875 178.273438 85.960938 187.558594 C 77.453125 196.839844 67.679688 204.863281 57.875 212.761719 C 48.066406 220.660156 38.160156 228.496094 29.328125 237.46875 C 20.492188 246.441406 12.703125 256.640625 7.839844 268.257812 C 0.460938 285.878906 0.234375 305.859375 3.957031 324.601562 C 7.675781 343.339844 15.136719 361.105469 22.808594 378.601562 C 32.40625 400.484375 42.625 422.53125 58.34375 440.527344 C 66.203125 449.527344 75.410156 457.433594 85.898438 463.164062 C 96.382812 468.890625 108.175781 472.398438 120.121094 472.558594 C 139.453125 472.816406 158.34375 464.167969 172.335938 450.828125 C 186.332031 437.492188 195.671875 419.765625 200.941406 401.167969 C 206.347656 382.089844 207.660156 362.136719 210.640625 342.535156 C 213.625 322.933594 218.546875 303.039062 230.089844 286.917969 C 242.675781 269.339844 261.945312 257.859375 281.234375 248.105469 C 300.523438 238.351562 320.683594 229.632812 337.222656 215.714844 C 351.386719 203.792969 362.433594 188.324219 369.757812 171.320312 C 377.082031 154.320312 380.730469 135.820312 381.113281 117.3125 C 381.554688 95.761719 377.511719 73.917969 367.730469 54.710938 C 357.953125 35.5 342.230469 19.0625 322.671875 10 Z M 322.671875 10 " fill-opacity="1" fill-rule="nonzero"/></g><path fill="#244876" d="M 263.375 460.621094 C 262.855469 455.328125 228.371094 439.277344 228.371094 439.277344 L 205.128906 439.03125 C 205.128906 439.03125 199.066406 457.902344 202.253906 462.085938 C 205.441406 466.265625 263.894531 465.914062 263.375 460.621094 Z M 263.375 460.621094 " fill-opacity="1" fill-rule="nonzero"/><path fill="#152d3e" d="M 231.605469 449.996094 C 232.210938 452.875 241.867188 456.101562 243.753906 454.96875 C 245.632812 453.835938 247.585938 448.230469 247.585938 448.230469 C 247.585938 448.230469 239.710938 442.570312 235.179688 442.269531 L 235.179688 442.257812 C 235.179688 442.257812 231.011719 447.109375 231.605469 449.996094 Z M 231.605469 449.996094 " fill-opacity="1" fill-rule="nonzero"/><path fill="#152d3e" d="M 263.375 460.632812 C 263.328125 460.195312 263.042969 459.6875 262.582031 459.121094 C 259.933594 459.96875 253.566406 461.59375 242.304688 462.160156 C 228.183594 462.859375 209.355469 462.707031 201.339844 458.46875 L 201.339844 458.480469 C 201.394531 460.046875 201.660156 461.320312 202.253906 462.09375 C 205.441406 466.273438 263.894531 465.925781 263.375 460.632812 Z M 263.375 460.632812 " fill-opacity="1" fill-rule="nonzero"/><path fill="#1aa7d4" d="M 209.433594 424.160156 C 204.640625 425.261719 203.621094 425.359375 203.1875 428.960938 C 202.753906 432.566406 203.246094 435.746094 202.367188 439.851562 C 201.5 443.957031 204.941406 444.523438 212.28125 445.703125 C 219.617188 446.882812 231.050781 442.269531 231.804688 440.144531 C 232.550781 438.019531 231.023438 434.886719 231.171875 432.839844 C 231.324219 430.792969 233.003906 428.207031 232.570312 426.386719 C 232.136719 424.566406 229.003906 423.648438 229.003906 423.648438 L 229.011719 423.660156 C 221.789062 421.800781 214.222656 423.054688 209.433594 424.160156 Z M 209.433594 424.160156 " fill-opacity="1" fill-rule="nonzero"/><path fill="#ffc1a0" d="M 229.105469 427.613281 C 232.492188 399.765625 230.957031 371.125 230.785156 368.851562 C 230.785156 368.851562 215.042969 369.523438 199.8125 373.125 C 205.46875 383.476562 204.160156 408.445312 205.394531 428.460938 C 209.902344 430.398438 219.117188 430.773438 229.105469 427.613281 Z M 229.105469 427.613281 " fill-opacity="1" fill-rule="nonzero"/><path fill="#244876" d="M 179.53125 467.671875 C 180.597656 462.460938 152.398438 436.925781 152.398438 436.925781 L 130.269531 429.820312 C 130.269531 429.820312 118.898438 446.054688 120.710938 450.992188 C 122.519531 455.929688 178.460938 472.882812 179.53125 467.671875 Z M 179.53125 467.671875 " fill-opacity="1" fill-rule="nonzero"/><path fill="#1aa7d4" d="M 130.984375 419.5 C 129.503906 422.816406 129.03125 426 126.980469 429.660156 C 124.941406 433.324219 128.0625 434.882812 134.722656 438.183594 C 141.386719 441.480469 153.667969 440.453125 155.019531 438.648438 C 156.355469 436.839844 155.824219 433.394531 156.570312 431.484375 C 157.320312 429.570312 159.6875 427.597656 159.8125 425.730469 C 159.9375 423.863281 157.214844 422.0625 157.214844 422.0625 L 157.222656 422.074219 C 150.871094 418.160156 143.273438 417.121094 138.367188 416.757812 C 133.464844 416.394531 132.464844 416.183594 130.984375 419.5 Z M 130.984375 419.5 " fill-opacity="1" fill-rule="nonzero"/><path fill="#ffc1a0" d="M 156.496094 425.988281 C 167.960938 400.386719 174.953125 372.570312 175.464844 370.347656 C 175.464844 370.347656 160.226562 366.332031 144.609375 365.269531 C 146.957031 376.832031 138.324219 400.296875 133.589844 419.785156 C 137.328125 422.964844 146.019531 426.050781 156.496094 425.988281 Z M 156.496094 425.988281 " fill-opacity="1" fill-rule="nonzero"/><path fill="#224966" d="M 234.71875 378.605469 C 231.304688 325.230469 228.386719 318.058594 228.386719 318.058594 L 143.742188 316.71875 C 143.742188 316.71875 134.199219 368.496094 138.160156 377.753906 C 168.570312 383.671875 178.179688 380.671875 178.179688 380.671875 C 178.179688 380.671875 178.992188 362.175781 188.140625 363.730469 C 197.289062 365.289062 196.695312 380.832031 196.695312 380.832031 C 196.695312 380.832031 223.644531 385.371094 234.71875 378.601562 Z M 234.71875 378.605469 " fill-opacity="1" fill-rule="nonzero"/><path fill="#1aa7d4" d="M 253.1875 246.316406 C 239.808594 231.992188 230.535156 227.554688 212.757812 222.714844 C 194.945312 217.871094 176.4375 221.167969 168.34375 221.898438 C 165.820312 222.101562 163.503906 222.671875 161.183594 223.445312 L 161.144531 223.445312 C 160.289062 222.875 131.980469 204.078125 132.550781 204.851562 C 133.121094 205.621094 113.921875 236.386719 113.921875 236.386719 L 123.398438 244.402344 L 149.105469 266.132812 L 148.941406 270 L 149.1875 270 C 149.0625 270.566406 148.984375 271.136719 148.902344 271.707031 C 143.613281 300.964844 140.5625 318.910156 140.5625 318.910156 C 140.5625 318.910156 201.371094 335.796875 235.863281 315.371094 C 232.28125 288.226562 227.199219 268.003906 227.199219 268.003906 C 227.199219 268.003906 249.691406 256.121094 253.1875 246.316406 Z M 253.1875 246.316406 " fill-opacity="1" fill-rule="nonzero"/><path fill="#fefefe" d="M 196.324219 259.46875 L 190.121094 248.09375 L 183.914062 259.46875 L 171.183594 261.859375 L 180.078125 271.277344 L 178.414062 284.132812 L 190.121094 278.574219 L 201.824219 284.132812 L 200.160156 271.277344 L 209.058594 261.859375 Z M 196.324219 259.46875 " fill-opacity="1" fill-rule="nonzero"/><path fill="#244876" d="M 205.96875 221.246094 C 200.441406 220.332031 194.972656 220.058594 189.917969 220.132812 L 189.90625 220.132812 C 180.75 220.265625 172.902344 221.492188 168.34375 221.90625 C 167.597656 221.972656 166.863281 222.074219 166.136719 222.179688 C 168.46875 227.257812 173.222656 233.496094 182.671875 234.476562 C 195.925781 235.851562 203.535156 229.9375 205.96875 221.246094 Z M 205.96875 221.246094 " fill-opacity="1" fill-rule="nonzero"/><path fill="#ffa778" d="M 200.726562 223.558594 L 170.222656 221.132812 C 170.222656 221.132812 171.636719 230.152344 183.398438 231.644531 C 195.160156 233.136719 200.726562 223.558594 200.726562 223.558594 Z M 200.726562 223.558594 " fill-opacity="1" fill-rule="nonzero"/><path fill="#152d3e" d="M 152.3125 448.121094 C 152.039062 451.050781 160.3125 456.988281 162.449219 456.464844 C 164.578125 455.941406 168.097656 451.164062 168.097656 451.164062 C 168.097656 451.164062 162.25 443.425781 158.011719 441.796875 L 158.015625 441.789062 C 158.015625 441.789062 152.597656 445.1875 152.3125 448.121094 Z M 152.3125 448.121094 " fill-opacity="1" fill-rule="nonzero"/><path fill="#152d3e" d="M 179.527344 467.679688 C 179.609375 467.253906 179.492188 466.679688 179.21875 466.003906 C 176.433594 466.03125 169.871094 465.699219 158.945312 462.910156 C 145.25 459.398438 127.308594 453.6875 120.902344 447.269531 L 120.902344 447.277344 C 120.492188 448.789062 120.367188 450.085938 120.707031 451 C 122.515625 455.9375 178.457031 472.890625 179.527344 467.679688 Z M 179.527344 467.679688 " fill-opacity="1" fill-rule="nonzero"/><path fill="#7a2121" d="M 112.660156 176.265625 L 244.597656 173.113281 C 244.597656 173.113281 267.445312 162.171875 269.097656 140.535156 C 270.730469 118.921875 257.210938 119.40625 257.210938 119.40625 C 257.210938 119.40625 270.53125 116.863281 270.5 104.109375 C 270.464844 91.359375 247.859375 82.609375 247.859375 82.609375 C 247.859375 82.609375 270.117188 78.457031 263.136719 64.464844 C 256.160156 50.46875 233.34375 52.816406 233.34375 52.816406 C 233.34375 52.816406 249.296875 41.453125 227.019531 36.097656 L 226.976562 36.148438 C 204.675781 30.792969 104.300781 50.214844 117.453125 83.832031 C 76.09375 114.695312 112.660156 176.265625 112.660156 176.265625 Z M 112.660156 176.265625 " fill-opacity="1" fill-rule="nonzero"/><path fill="#ffc1a0" d="M 136.324219 188.484375 L 135.3125 170.855469 C 135.3125 170.855469 125.230469 153.769531 114.625 160.667969 C 104.015625 167.566406 109.542969 187.925781 119.898438 191.078125 C 130.253906 194.230469 136.324219 188.484375 136.324219 188.484375 Z M 136.324219 188.484375 " fill-opacity="1" fill-rule="nonzero"/><path fill="#ff8e52" d="M 128.957031 182.695312 L 128.410156 173.035156 C 128.410156 173.035156 122.890625 163.65625 117.054688 167.449219 C 111.242188 171.222656 114.261719 182.402344 119.941406 184.121094 C 125.621094 185.84375 128.957031 182.695312 128.957031 182.695312 Z M 128.957031 182.695312 " fill-opacity="1" fill-rule="nonzero"/><path fill="#ffc1a0" d="M 254 197.03125 C 267.324219 193.785156 275.808594 168.457031 262.871094 158.96875 C 249.9375 149.484375 235.957031 170.351562 235.957031 170.351562 L 233.398438 192.558594 C 233.398438 192.558594 240.671875 200.253906 254 197.03125 Z M 254 197.03125 " fill-opacity="1" fill-rule="nonzero"/><path fill="#ff8e52" d="M 254.070312 169.207031 L 254.046875 169.210938 C 248.453125 165.105469 242.402344 174.140625 242.402344 174.140625 L 241.300781 183.765625 C 241.300781 183.765625 244.445312 187.101562 250.21875 185.683594 C 255.988281 184.269531 259.664062 173.3125 254.070312 169.207031 Z M 254.070312 169.207031 " fill-opacity="1" fill-rule="nonzero"/><path fill="#ffc1a0" d="M 129.867188 200.855469 L 129.863281 200.855469 C 140.71875 218.964844 161.929688 228.339844 187.238281 229.0625 C 212.546875 229.785156 234.25 221.640625 246.136719 204.175781 C 252.757812 194.449219 252.769531 172.914062 250.984375 149.675781 C 249.398438 128.902344 255.292969 113.5 235.839844 100.507812 C 223.648438 92.386719 211.132812 101.5625 195.992188 102.449219 C 179.726562 103.40625 157.199219 91.359375 144.234375 106.9375 C 127.652344 126.835938 132.910156 136.535156 132.246094 155.121094 C 131.519531 175.429688 123.886719 190.871094 129.867188 200.855469 Z M 129.867188 200.855469 " fill-opacity="1" fill-rule="nonzero"/><path fill="#00bfff" d="M 174.214844 96.203125 C 174.214844 90.640625 164.144531 79.515625 164.144531 79.515625 C 164.144531 79.515625 154.074219 90.640625 154.074219 96.203125 C 154.074219 101.769531 158.582031 106.28125 164.144531 106.28125 C 169.707031 106.28125 174.214844 101.769531 174.214844 96.203125 Z M 174.214844 96.203125 " fill-opacity="0.992" fill-rule="nonzero"/><path fill="#00bfff" d="M 144.824219 117.757812 C 144.824219 114.171875 138.328125 106.996094 138.328125 106.996094 C 138.328125 106.996094 131.832031 114.171875 131.832031 117.757812 C 131.832031 121.347656 134.742188 124.257812 138.328125 124.257812 C 141.914062 124.257812 144.824219 121.347656 144.824219 117.757812 Z M 144.824219 117.757812 " fill-opacity="0.992" fill-rule="nonzero"/><path fill="#632d28" d="M 189.332031 210.390625 C 199.140625 210.644531 207.480469 216.320312 213.042969 212.695312 L 213.078125 212.695312 C 216.773438 210.277344 216.042969 200.835938 207.957031 194.683594 C 203.96875 191.683594 198.261719 189.488281 190.429688 189.304688 C 181.648438 189.085938 175.429688 191.5 171.257812 194.867188 C 164.085938 200.578125 163.246094 209.109375 166.648438 211.558594 C 171.988281 215.441406 179.453125 210.167969 189.332031 210.390625 Z M 189.332031 210.390625 " fill-opacity="1" fill-rule="nonzero"/><path fill="#fefefe" d="M 181.539062 195.601562 L 182.089844 201.566406 C 184.578125 202.300781 187.320312 202.664062 190.175781 202.59375 C 193.90625 202.480469 197.675781 201.605469 201.078125 199.992188 C 202.726562 199.222656 204.1875 198.273438 205.578125 197.101562 C 205.761719 196.953125 207.003906 195.710938 207.957031 194.683594 C 203.96875 191.683594 198.261719 189.488281 190.429688 189.304688 C 181.648438 189.085938 175.429688 191.5 171.257812 194.867188 C 172.832031 197.066406 174.550781 198.566406 177.734375 199.921875 Z M 181.539062 195.601562 " fill-opacity="1" fill-rule="nonzero"/><path fill="#d84141" d="M 187.710938 205.894531 C 181.96875 205.875 173.960938 208.652344 173.21875 212.867188 C 177.652344 212.359375 182.996094 210.25 189.324219 210.40625 C 194.015625 210.519531 198.359375 211.867188 202.234375 212.855469 C 200.808594 208.019531 193.382812 205.910156 187.710938 205.894531 Z M 187.710938 205.894531 " fill-opacity="1" fill-rule="nonzero"/><path fill="#7a2121" d="M 151.578125 140.335938 C 155.285156 140.355469 159.519531 139.003906 162.441406 136.972656 C 164.136719 135.789062 165.765625 134.425781 166.136719 132.273438 C 166.316406 131.210938 166.003906 130.003906 165.101562 129.402344 C 164.472656 128.980469 163.652344 128.917969 162.929688 129.09375 C 161.960938 129.3125 160.847656 129.867188 160.152344 130.582031 C 159.1875 131.589844 158.230469 132.5625 157.292969 133.582031 C 155.429688 135.585938 153.089844 136.464844 150.511719 137.613281 C 149.957031 137.867188 149.324219 138.179688 149.15625 138.683594 C 149.101562 138.839844 149.105469 139 149.136719 139.167969 C 149.21875 139.492188 149.480469 139.808594 149.835938 140 C 150.339844 140.273438 150.972656 140.324219 151.578125 140.335938 Z M 151.578125 140.335938 " fill-opacity="1" fill-rule="nonzero"/><path fill="#7a2121" d="M 240.511719 134.328125 C 240.542969 134.152344 240.53125 134 240.464844 133.84375 C 240.261719 133.34375 239.628906 133.066406 239.0625 132.859375 C 236.402344 131.855469 234.035156 131.132812 232.058594 129.230469 C 231.066406 128.261719 230.074219 127.378906 229.046875 126.417969 C 228.316406 125.734375 227.167969 125.257812 226.183594 125.085938 C 225.429688 124.949219 224.621094 125.0625 224.019531 125.507812 C 223.167969 126.15625 222.910156 127.394531 223.152344 128.429688 C 223.65625 130.5625 225.351562 131.828125 227.113281 132.914062 C 230.132812 134.773438 234.441406 135.882812 238.136719 135.65625 C 238.742188 135.636719 239.382812 135.523438 239.863281 135.222656 C 240.207031 135 240.445312 134.679688 240.511719 134.328125 Z M 240.511719 134.328125 " fill-opacity="1" fill-rule="nonzero"/><path fill="#fefefe" d="M 163.351562 182.761719 C 171.324219 183.445312 180.660156 178.871094 181.414062 168.164062 C 182.164062 157.453125 175.972656 149.765625 166.394531 148.898438 C 155.246094 146.667969 144.816406 154.136719 146.390625 166.300781 C 147.730469 176.59375 155.359375 182.101562 163.351562 182.761719 Z M 163.351562 182.761719 " fill-opacity="1" fill-rule="nonzero"/><path fill="#7a2121" d="M 180.621094 158.773438 C 172.574219 139.667969 150.695312 144.21875 148.214844 155.476562 C 148.214844 155.476562 164.5625 137.878906 180.621094 158.773438 Z M 180.621094 158.773438 " fill-opacity="1" fill-rule="nonzero"/><path fill="#7a2121" d="M 178.761719 167.929688 L 178.757812 167.90625 C 178.921875 161.777344 174.117188 156.683594 167.988281 156.496094 C 161.863281 156.335938 156.773438 161.144531 156.585938 167.273438 C 156.421875 173.402344 161.230469 178.496094 167.355469 178.683594 C 173.484375 178.867188 178.574219 174.035156 178.761719 167.929688 Z M 178.761719 167.929688 " fill-opacity="1" fill-rule="nonzero"/><path fill="#1d0703" d="M 172.703125 167.738281 C 172.789062 164.957031 170.601562 162.644531 167.820312 162.554688 C 165.039062 162.46875 162.726562 164.660156 162.640625 167.441406 C 162.554688 170.222656 164.742188 172.535156 167.523438 172.625 C 170.304688 172.710938 172.617188 170.519531 172.703125 167.738281 Z M 172.703125 167.738281 " fill-opacity="1" fill-rule="nonzero"/><path fill="#fefefe" d="M 174.902344 163.367188 C 174.976562 161.125 173.191406 159.257812 170.953125 159.1875 C 168.714844 159.113281 166.847656 160.898438 166.773438 163.136719 C 166.699219 165.378906 168.484375 167.246094 170.726562 167.320312 C 172.964844 167.390625 174.832031 165.605469 174.902344 163.367188 Z M 174.902344 163.367188 " fill-opacity="1" fill-rule="nonzero"/><path fill="#fefefe" d="M 166.324219 172.601562 C 166.351562 171.542969 165.523438 170.675781 164.460938 170.625 C 163.398438 170.570312 162.535156 171.425781 162.480469 172.488281 C 162.453125 173.546875 163.285156 174.4375 164.34375 174.46875 C 165.40625 174.496094 166.269531 173.664062 166.324219 172.601562 Z M 166.324219 172.601562 " fill-opacity="1" fill-rule="nonzero"/><path fill="#ff8e52" d="M 211.78125 178.101562 C 211.339844 175.515625 203.015625 177.089844 200.429688 180.144531 C 200.429688 180.144531 206.097656 178.617188 208.515625 180.070312 C 210.84375 181.464844 208.433594 185.175781 208.25 185.449219 C 212.492188 182.507812 211.964844 179.148438 211.78125 178.101562 Z M 211.78125 178.101562 " fill-opacity="1" fill-rule="nonzero"/><path fill="#ff8e52" d="M 208.214844 185.5 C 208.214844 185.5 208.242188 185.460938 208.25 185.449219 C 208.234375 185.457031 208.226562 185.46875 208.214844 185.476562 Z M 208.214844 185.5 " fill-opacity="1" fill-rule="nonzero"/><path fill="#f2957c" d="M 162.777344 191.363281 C 162.867188 188.25 159.25 185.628906 154.675781 185.507812 C 150.105469 185.367188 146.324219 187.789062 146.257812 190.902344 C 146.167969 194.011719 149.789062 196.636719 154.359375 196.753906 C 158.929688 196.894531 162.710938 194.472656 162.777344 191.363281 Z M 162.777344 191.363281 " fill-opacity="1" fill-rule="nonzero"/><path fill="#f2957c" d="M 243.082031 189.75 C 243.171875 186.636719 239.550781 184.011719 234.980469 183.894531 C 230.410156 183.753906 226.628906 186.175781 226.5625 189.285156 C 226.472656 192.398438 230.117188 195.023438 234.664062 195.140625 C 239.234375 195.28125 243.015625 192.859375 243.082031 189.75 Z M 243.082031 189.75 " fill-opacity="1" fill-rule="nonzero"/><path fill="#fefefe" d="M 246.691406 165.144531 C 248.960938 153.074219 238.984375 145.027344 227.71875 146.617188 C 218.117188 146.953125 211.488281 154.257812 211.632812 165.003906 C 211.777344 175.75 220.820312 180.839844 228.828125 180.628906 C 236.835938 180.414062 244.78125 175.359375 246.691406 165.144531 Z M 246.691406 165.144531 " fill-opacity="1" fill-rule="nonzero"/><path fill="#7a2121" d="M 245.480469 154.253906 C 243.648438 142.882812 222.035156 137.578125 212.941406 155.695312 C 230.15625 135.761719 245.480469 154.253906 245.480469 154.253906 Z M 245.480469 154.253906 " fill-opacity="1" fill-rule="nonzero"/><path fill="#7a2121" d="M 236.636719 166.324219 L 236.613281 166.328125 C 236.777344 160.199219 231.96875 155.105469 225.863281 154.917969 C 219.738281 154.753906 214.648438 159.5625 214.460938 165.691406 C 214.296875 171.820312 219.105469 176.914062 225.234375 177.101562 C 231.359375 177.265625 236.449219 172.457031 236.636719 166.324219 Z M 236.636719 166.324219 " fill-opacity="1" fill-rule="nonzero"/><path fill="#1d0703" d="M 230.558594 166.160156 C 230.644531 163.375 228.453125 161.0625 225.671875 160.976562 C 222.890625 160.890625 220.582031 163.078125 220.492188 165.863281 C 220.40625 168.644531 222.597656 170.957031 225.378906 171.042969 C 228.160156 171.132812 230.46875 168.941406 230.558594 166.160156 Z M 230.558594 166.160156 " fill-opacity="1" fill-rule="nonzero"/><path fill="#fefefe" d="M 226.703125 161.621094 C 226.773438 159.378906 224.988281 157.511719 222.75 157.4375 C 220.511719 157.367188 218.644531 159.152344 218.570312 161.390625 C 218.5 163.632812 220.285156 165.5 222.523438 165.574219 C 224.761719 165.644531 226.628906 163.859375 226.703125 161.621094 Z M 226.703125 161.621094 " fill-opacity="1" fill-rule="nonzero"/><path fill="#fefefe" d="M 230.421875 171.203125 C 230.449219 170.144531 229.621094 169.277344 228.558594 169.222656 C 227.496094 169.195312 226.632812 170.027344 226.578125 171.085938 C 226.550781 172.148438 227.378906 173.015625 228.441406 173.066406 C 229.503906 173.097656 230.367188 172.265625 230.421875 171.203125 Z M 230.421875 171.203125 " fill-opacity="1" fill-rule="nonzero"/><path fill="#ffc1a0" d="M 111.816406 141.109375 C 111.082031 143.941406 111.046875 146.570312 111.046875 146.570312 C 111.046875 146.570312 111.714844 143.792969 111.816406 141.109375 Z M 111.816406 141.109375 " fill-opacity="1" fill-rule="nonzero"/><path fill="#ffc1a0" d="M 105.429688 143.367188 C 104.828125 146.164062 104.605469 148.71875 104.605469 148.71875 C 104.605469 148.71875 105.253906 146.097656 105.429688 143.367188 Z M 105.429688 143.367188 " fill-opacity="1" fill-rule="nonzero"/><path fill="#ffc1a0" d="M 102.816406 137.257812 C 98.164062 137.257812 97.804688 147.285156 98.519531 153.730469 C 99.238281 160.175781 108.902344 174.140625 108.902344 174.140625 C 108.902344 174.140625 98.164062 203.503906 98.519531 211.742188 C 98.878906 219.976562 117.527344 231.800781 117.527344 231.800781 L 131.078125 207.984375 L 136.820312 173.425781 C 136.820312 173.425781 135.03125 158.386719 130.375 154.089844 C 125.722656 149.792969 126.796875 143.347656 125.722656 139.050781 C 124.648438 134.75 120.710938 135.824219 118.566406 144.421875 C 119.515625 137.808594 117.511719 133.132812 114.777344 135.550781 C 113.246094 136.90625 112.347656 139.0625 111.816406 141.109375 C 111.714844 143.792969 111.046875 146.570312 111.046875 146.570312 C 111.046875 146.570312 111.082031 143.941406 111.816406 141.109375 C 111.910156 138.605469 111.519531 136.183594 109.617188 136.183594 C 107.457031 136.183594 106.160156 139.957031 105.429688 143.367188 C 105.253906 146.097656 104.605469 148.71875 104.605469 148.71875 C 104.605469 148.71875 104.828125 146.164062 105.429688 143.367188 C 105.621094 140.378906 105.246094 137.257812 102.816406 137.257812 Z M 102.816406 137.257812 " fill-opacity="1" fill-rule="nonzero"/><path fill="#f69d73" d="M 132.203125 202.003906 C 132.144531 202.003906 132.082031 201.996094 132.027344 201.984375 C 131.601562 201.886719 131.339844 201.464844 131.4375 201.042969 C 131.488281 200.839844 136.128906 180.644531 134.269531 169.742188 C 132.421875 158.875 127.574219 151.664062 127.527344 151.59375 C 127.28125 151.234375 127.375 150.746094 127.730469 150.503906 C 128.085938 150.265625 128.574219 150.351562 128.820312 150.710938 C 129.023438 151.011719 133.902344 158.253906 135.816406 169.480469 C 137.722656 180.695312 133.160156 200.558594 132.964844 201.398438 C 132.878906 201.761719 132.558594 202.003906 132.203125 202.003906 Z M 132.203125 202.003906 " fill-opacity="1" fill-rule="nonzero"/><path fill="#ffc1a0" d="M 274.074219 271.179688 C 273.398438 267.417969 248.335938 251.199219 248.335938 251.199219 L 227.199219 268.003906 C 227.199219 268.003906 251.628906 286.144531 260.117188 285.214844 C 268.605469 284.285156 274.75 274.941406 274.074219 271.179688 Z M 274.074219 271.179688 " fill-opacity="1" fill-rule="nonzero"/><path fill="#ffc1a0" d="M 223.183594 233.621094 L 250.863281 273.707031 C 255.625 280.605469 265.980469 280.472656 272.222656 274.878906 C 278.460938 269.285156 278.941406 259.792969 273.394531 253.511719 L 248.085938 224.855469 C 248.519531 224.746094 248.917969 224.648438 248.917969 224.648438 C 250.769531 222.695312 254.324219 218.488281 253.988281 211.121094 C 253.828125 207.691406 253.421875 196.980469 249.390625 197.277344 C 245.992188 197.527344 245.59375 213.785156 245.59375 213.785156 C 245.59375 213.785156 245.867188 197.886719 241.433594 197.769531 C 237.65625 197.671875 237.054688 209.765625 236.953125 213.65625 C 236.945312 213.652344 236.941406 213.652344 236.9375 213.648438 C 236.957031 210.066406 236.65625 199.699219 232.308594 200.046875 C 228.945312 200.3125 228.625 207.558594 228.71875 211.738281 C 228.5625 211.761719 228.40625 211.773438 228.25 211.804688 C 227.410156 207.734375 225.816406 202.488281 223.191406 202.875 C 218.796875 203.527344 221.113281 212.453125 220.773438 217.386719 C 218.675781 221.503906 218.890625 227.402344 223.183594 233.621094 Z M 223.183594 233.621094 " fill-opacity="1" fill-rule="nonzero"/><path fill="#f69d73" d="M 247.722656 269.945312 C 247.472656 269.945312 247.230469 269.828125 247.078125 269.609375 L 222.539062 234.066406 C 218.507812 228.226562 217.585938 222.082031 220 217.179688 C 220.074219 215.878906 219.96875 214.296875 219.859375 212.628906 C 219.546875 207.960938 219.195312 202.675781 223.074219 202.101562 C 225.058594 201.8125 226.722656 203.6875 228.011719 207.710938 C 228.296875 203.410156 229.359375 199.496094 232.246094 199.265625 C 233.191406 199.191406 234.035156 199.496094 234.753906 200.164062 C 235.796875 201.132812 236.484375 202.820312 236.929688 204.753906 C 236.964844 204.527344 237.003906 204.300781 237.042969 204.078125 C 237.910156 199.308594 239.332031 196.984375 241.382812 196.984375 C 241.40625 196.984375 241.429688 196.984375 241.453125 196.988281 C 243.789062 197.046875 245.027344 200.167969 245.679688 203.742188 C 246.320312 199.957031 247.429688 196.636719 249.332031 196.496094 C 250.164062 196.433594 250.882812 196.699219 251.527344 197.273438 C 253.945312 199.421875 254.523438 205.679688 254.757812 210.894531 C 255.140625 219.222656 250.882812 223.710938 249.484375 225.1875 C 249.382812 225.296875 249.25 225.375 249.105469 225.410156 L 248.277344 225.613281 C 247.859375 225.71875 247.433594 225.464844 247.328125 225.050781 C 247.222656 224.628906 247.476562 224.203125 247.894531 224.097656 L 248.503906 223.945312 C 249.921875 222.4375 253.535156 218.347656 253.203125 211.160156 C 253.078125 208.359375 252.71875 200.425781 250.488281 198.445312 C 250.164062 198.152344 249.824219 198.03125 249.449219 198.058594 C 248.011719 198.164062 246.578125 205.523438 246.378906 213.804688 C 246.367188 214.238281 246.105469 214.617188 245.578125 214.570312 C 245.148438 214.5625 244.804688 214.207031 244.8125 213.773438 C 244.917969 207.492188 243.933594 198.617188 241.414062 198.550781 C 240.261719 198.554688 239.257812 200.640625 238.585938 204.355469 C 237.96875 207.753906 237.789062 211.652344 237.734375 213.675781 C 237.730469 213.921875 237.605469 214.148438 237.402344 214.292969 C 237.203125 214.433594 236.941406 214.476562 236.710938 214.398438 C 236.589844 214.359375 236.472656 214.289062 236.386719 214.203125 C 236.238281 214.054688 236.152344 213.851562 236.15625 213.644531 C 236.191406 207.390625 235.269531 202.78125 233.6875 201.3125 C 233.292969 200.941406 232.882812 200.792969 232.371094 200.824219 C 230.449219 200.980469 229.351562 205.152344 229.5 211.722656 C 229.511719 212.121094 229.21875 212.460938 228.824219 212.515625 L 228.398438 212.570312 C 227.964844 212.65625 227.566406 212.382812 227.480469 211.960938 C 226.363281 206.535156 224.847656 203.441406 223.304688 203.652344 C 221.03125 203.988281 221.089844 207.542969 221.421875 212.523438 C 221.539062 214.316406 221.652344 216.007812 221.550781 217.441406 C 221.546875 217.542969 221.515625 217.648438 221.46875 217.742188 C 219.230469 222.140625 220.09375 227.765625 223.828125 233.175781 L 248.367188 268.71875 C 248.613281 269.074219 248.523438 269.5625 248.167969 269.808594 C 248.03125 269.902344 247.875 269.945312 247.722656 269.945312 Z M 247.722656 269.945312 " fill-opacity="1" fill-rule="nonzero"/></svg>