<svg xmlns="http://www.w3.org/2000/svg" xmlns:xlink="http://www.w3.org/1999/xlink" width="711" zoomAndPan="magnify" viewBox="0 0 533.25 428.250001" height="571" preserveAspectRatio="xMidYMid meet" version="1.0"><defs><clipPath id="8bde9b1c34"><path d="M 83.03125 360 L 449 360 L 449 375.144531 L 83.03125 375.144531 Z M 83.03125 360 " clip-rule="nonzero"/></clipPath></defs><path fill="#a3e635" d="M 182.578125 17.65625 C 162.519531 21.96875 141.769531 32.101562 120.378906 47.867188 L 120.378906 47.871094 C 120.289062 47.933594 120.207031 47.988281 120.113281 48.046875 C 120.039062 48.089844 119.984375 48.15625 119.957031 48.230469 L 119.933594 48.234375 C 77.75 95.675781 20.113281 185.175781 18.253906 255.863281 C 16.347656 328.421875 36.496094 380.21875 76.265625 409.644531 C 93.773438 422.597656 113.785156 426.847656 134.757812 424.679688 C 139.992188 424.140625 145.214844 423.527344 150.3125 422.429688 C 154.109375 421.613281 157.847656 420.527344 161.476562 419.003906 C 203.796875 401.269531 234.9375 389.625 255.269531 385.253906 C 257.535156 384.765625 259.664062 384.371094 261.660156 384.066406 C 272.566406 382.398438 287.316406 380.28125 305.542969 382.554688 C 375.460938 391.28125 413.710938 394.625 422.367188 393.691406 C 428.699219 393.011719 434.839844 392.078125 440.761719 390.804688 C 458.398438 387.011719 474.136719 380.183594 487.441406 367.886719 C 514.765625 342.632812 529.152344 310.589844 530.4375 272.980469 C 531.746094 234.726562 518.933594 204.804688 493.648438 182.972656 C 484.910156 175.425781 476.207031 168.898438 466.304688 166.191406 C 399.863281 148.023438 359.414062 135.363281 347.625 124.816406 L 347.601562 124.820312 C 347.570312 124.738281 347.507812 124.667969 347.421875 124.628906 C 328.261719 115.003906 298.089844 83.625 254.375 33.96875 C 247.351562 25.996094 238.644531 21.183594 230.261719 18.824219 L 230.257812 18.824219 C 230.246094 18.820312 230.234375 18.816406 230.222656 18.8125 C 214.824219 14.492188 198.933594 14.136719 182.578125 17.65625 Z M 182.578125 17.65625 " fill-opacity="0.996" fill-rule="nonzero"/><path fill="#000000" d="M 158.914062 22.183594 C 202.296875 2.636719 240.929688 0.0703125 273.421875 17.210938 C 281.714844 21.585938 289.820312 28.632812 295.425781 38.648438 C 327.066406 95.207031 348.660156 129.761719 363.71875 141.660156 C 363.964844 141.851562 364.175781 142.082031 364.347656 142.339844 C 371.585938 153.089844 405.402344 172.597656 466.277344 204.191406 C 476.285156 209.386719 483.820312 218.230469 490.578125 227.183594 C 511.140625 254.414062 517.371094 287.035156 508 324.363281 C 498.796875 361.015625 477.808594 389.605469 445.566406 408.683594 C 423.988281 421.449219 400.371094 423.199219 375.460938 420.585938 C 366.261719 419.617188 330 408.359375 266.195312 386.082031 C 250.230469 380.503906 236.53125 379.539062 225.992188 378.902344 C 207.398438 377.78125 174.292969 382.371094 125.730469 391.460938 C 116.074219 393.269531 106.515625 392.421875 97.710938 391.457031 C 76.300781 389.117188 56.90625 380.503906 41.949219 363.519531 C 8.710938 325.773438 0.398438 270.628906 17.164062 201.558594 C 33.847656 132.820312 108.542969 58.609375 158.210938 22.441406 C 159.550781 21.46875 161.425781 21.761719 162.402344 23.101562 C 163.375 24.441406 163.082031 26.316406 161.742188 27.289062 C 112.300781 63.289062 39.144531 136.417969 22.988281 202.976562 C 6.480469 271 14.996094 323.835938 46.449219 359.554688 C 60.273438 375.253906 78.207031 383.292969 98.363281 385.496094 C 107.171875 386.460938 115.933594 387.195312 124.628906 385.566406 C 173.015625 376.507812 206.882812 371.742188 226.351562 372.917969 C 236.988281 373.558594 251.382812 374.554688 268.175781 380.417969 C 332.414062 402.851562 367.777344 413.75 376.085938 414.621094 C 400.367188 417.167969 422.496094 415.363281 442.511719 403.519531 C 473.339844 385.28125 493.359375 358.042969 502.183594 322.902344 C 511.160156 287.160156 505.15625 256.4375 485.792969 230.796875 C 479.078125 221.90625 472.234375 214.039062 463.515625 209.515625 C 403.621094 178.433594 367.714844 158.074219 359.375 145.6875 L 360.003906 146.367188 C 343.773438 133.546875 321.550781 97.628906 290.191406 41.574219 C 285.214844 32.679688 278.011719 26.410156 270.621094 22.515625 C 240.34375 6.542969 203.777344 8.546875 161.378906 27.652344 C 159.867188 28.332031 158.09375 27.660156 157.410156 26.152344 C 156.730469 24.640625 157.402344 22.867188 158.914062 22.183594 Z M 158.914062 22.183594 " fill-opacity="0.996" fill-rule="nonzero"/><path fill="#1d083e" d="M 306.179688 251.671875 L 352.820312 368.550781 L 362.949219 369.628906 L 325.550781 252.484375 Z M 306.179688 251.671875 " fill-opacity="1" fill-rule="evenodd"/><path fill="#1d083e" d="M 284.910156 251.671875 L 238.285156 368.550781 L 228.167969 369.628906 L 265.542969 252.484375 Z M 284.910156 251.671875 " fill-opacity="1" fill-rule="evenodd"/><path fill="#33537d" d="M 302.320312 100.84375 C 327.390625 92.894531 365.574219 105.679688 363.117188 181.578125 C 361.351562 236.300781 356.476562 258.351562 327.339844 262.730469 C 299.988281 266.828125 244.78125 265.800781 237.097656 252.179688 C 228.183594 236.347656 249.003906 229.199219 251.097656 228.414062 C 284.464844 216.863281 294.507812 217.359375 299.625 155.210938 C 301.789062 128.902344 293.382812 107.664062 302.320312 100.84375 Z M 302.320312 100.84375 " fill-opacity="1" fill-rule="evenodd"/><path fill="#3a4143" d="M 264.417969 244.71875 C 306.96875 273.976562 312.328125 227.566406 320.746094 211.03125 C 328.492188 195.816406 330.039062 195.972656 329.847656 178.820312 C 329.847656 176.960938 340.019531 113.507812 315.789062 118.03125 C 297.410156 121.453125 320.011719 160.835938 287.851562 196.191406 C 276.175781 209.023438 265.84375 215.917969 264.550781 238.34375 " fill-opacity="0.26" fill-rule="evenodd"/><path fill="#5f9ded" d="M 268.871094 116.023438 C 268.871094 116.023438 300 91.648438 338.230469 112.914062 L 340.40625 207.476562 L 266.195312 207.28125 Z M 268.871094 116.023438 " fill-opacity="1" fill-rule="evenodd"/><path fill="#f89c87" d="M 312.277344 92.109375 C 312.277344 92.109375 311.988281 101.785156 311.769531 109.296875 C 311.742188 109.863281 311.65625 110.421875 311.519531 110.972656 C 311.382812 111.527344 311.191406 112.058594 310.949219 112.570312 C 310.707031 113.085938 310.417969 113.574219 310.082031 114.03125 C 309.746094 114.488281 309.371094 114.910156 308.953125 115.296875 C 308.535156 115.679688 308.085938 116.023438 307.601562 116.320312 C 307.117188 116.617188 306.609375 116.863281 306.078125 117.0625 C 305.542969 117.261719 305 117.410156 304.4375 117.503906 C 303.878906 117.59375 303.3125 117.632812 302.746094 117.617188 C 302.175781 117.601562 301.617188 117.53125 301.0625 117.40625 C 300.507812 117.277344 299.972656 117.101562 299.449219 116.871094 C 298.929688 116.644531 298.4375 116.367188 297.972656 116.039062 C 297.507812 115.714844 297.078125 115.347656 296.683594 114.941406 C 296.285156 114.53125 295.933594 114.089844 295.625 113.613281 C 295.316406 113.136719 295.058594 112.632812 294.847656 112.105469 C 294.632812 111.578125 294.476562 111.035156 294.371094 110.476562 C 294.265625 109.921875 294.210938 109.355469 294.214844 108.789062 C 294.398438 102.742188 294.601562 95.640625 294.601562 95.640625 C 296.082031 94.015625 297.808594 92.71875 299.78125 91.746094 Z M 312.277344 92.109375 " fill-opacity="1" fill-rule="evenodd"/><path fill="#dd695a" d="M 294.214844 108.863281 L 294.601562 95.640625 C 296.082031 94.015625 297.808594 92.71875 299.78125 91.746094 L 312.023438 92.074219 L 310.960938 98.023438 C 309.917969 99.886719 308.175781 103.613281 306.121094 105.65625 C 302.867188 108.714844 299.15625 111.050781 294.988281 112.660156 C 294.441406 111.453125 294.183594 110.1875 294.214844 108.863281 Z M 294.214844 108.863281 " fill-opacity="1" fill-rule="evenodd"/><path fill="#f89c87" d="M 298.777344 105.777344 C 297.84375 106.0625 296.886719 106.203125 295.910156 106.195312 C 294.933594 106.1875 293.976562 106.035156 293.046875 105.734375 C 292.117188 105.4375 291.253906 105.003906 290.457031 104.441406 C 289.660156 103.875 288.964844 103.203125 288.371094 102.425781 C 285.46875 98.59375 284.65625 92.957031 285.203125 86.460938 C 286.195312 74.644531 288.191406 65.050781 299.816406 65.765625 C 308.117188 66.273438 314.601562 75.585938 314.273438 87.152344 C 314.1875 90.699219 313.441406 94.101562 312.035156 97.359375 C 311.488281 98.617188 310.660156 99.644531 309.542969 100.445312 C 306.246094 102.808594 302.65625 104.585938 298.777344 105.777344 Z M 298.777344 105.777344 " fill-opacity="1" fill-rule="evenodd"/><path fill="#1d083e" d="M 310.1875 85.601562 C 308.480469 85.128906 308.457031 82.226562 308.457031 81.902344 C 305.964844 81.417969 306.207031 80.511719 305.757812 79.398438 C 303.035156 78.636719 303.277344 78.1875 301.996094 75.914062 C 301.894531 75.675781 301.730469 75.5 301.503906 75.378906 C 301.277344 75.261719 301.035156 75.230469 300.785156 75.285156 C 300.1875 75.496094 299.574219 75.578125 298.941406 75.53125 C 298.3125 75.484375 297.714844 75.3125 297.15625 75.019531 C 294.324219 76.589844 293.527344 76.480469 292.460938 73.6875 C 291.105469 75.394531 291.25 74.316406 289.050781 74.535156 C 288.15625 74.621094 284.839844 75.636719 283.773438 71.257812 C 283.074219 68.425781 284.984375 67.714844 284.621094 67.070312 C 281.34375 60.820312 285.527344 60.382812 288.480469 59.707031 C 287.949219 55.992188 292.703125 51.734375 296.199219 55.558594 C 296.332031 55.714844 299.464844 54.082031 301.449219 54.347656 C 304.039062 54.757812 304.488281 57.976562 304.535156 58.144531 C 305.152344 57.792969 310.667969 54.203125 311.03125 60.042969 C 311.09375 61.144531 317.359375 59.390625 314.953125 66.371094 C 317.734375 66.453125 318.582031 66.78125 318.957031 69.429688 C 318.957031 69.757812 320.289062 71.050781 320.289062 72.152344 C 320.289062 73.796875 319.816406 73.601562 318.835938 74.96875 C 320.203125 77.484375 320.578125 77.933594 318.484375 79.941406 C 319.003906 84.113281 318.402344 84.125 317.457031 84.78125 C 316.851562 85.25 317.554688 86.714844 315.847656 87.332031 C 313.632812 88.140625 313.984375 90.585938 311.40625 89 " fill-opacity="1" fill-rule="evenodd"/><path fill="#200a3e" d="M 289.523438 88.636719 C 289.238281 88.613281 288.960938 88.558594 288.683594 88.476562 C 288.410156 88.398438 288.148438 88.292969 287.894531 88.160156 C 287.640625 88.03125 287.40625 87.875 287.179688 87.699219 C 286.957031 87.523438 286.753906 87.324219 286.566406 87.109375 C 286.382812 86.890625 286.21875 86.660156 286.078125 86.410156 C 285.9375 86.164062 285.824219 85.90625 285.734375 85.632812 C 285.644531 85.363281 285.578125 85.085938 285.542969 84.804688 C 285.503906 84.523438 285.496094 84.238281 285.511719 83.953125 C 285.53125 83.667969 285.574219 83.390625 285.648438 83.113281 C 285.71875 82.839844 285.816406 82.570312 285.941406 82.316406 C 286.0625 82.058594 286.210938 81.816406 286.382812 81.585938 C 286.550781 81.359375 286.742188 81.148438 286.953125 80.957031 C 287.164062 80.765625 287.390625 80.59375 287.632812 80.445312 C 287.878906 80.296875 288.132812 80.175781 288.402344 80.078125 C 288.667969 79.976562 288.941406 79.90625 289.222656 79.859375 C 289.503906 79.816406 289.789062 79.796875 290.074219 79.804688 C 290.359375 79.816406 290.640625 79.851562 290.917969 79.914062 C 291.195312 79.976562 291.464844 80.066406 291.726562 80.183594 C 291.984375 80.296875 292.234375 80.4375 292.46875 80.601562 C 292.699219 80.761719 292.917969 80.945312 293.113281 81.152344 C 293.3125 81.355469 293.488281 81.578125 293.644531 81.816406 C 293.800781 82.054688 293.933594 82.308594 294.039062 82.574219 C 294.144531 82.835938 294.226562 83.109375 294.28125 83.386719 C 294.335938 83.667969 294.359375 83.949219 294.359375 84.234375 C 294.34375 84.539062 294.300781 84.835938 294.226562 85.132812 C 294.152344 85.425781 294.050781 85.710938 293.921875 85.984375 C 293.792969 86.257812 293.636719 86.515625 293.457031 86.761719 C 293.273438 87.003906 293.074219 87.230469 292.847656 87.433594 C 292.625 87.636719 292.382812 87.816406 292.121094 87.972656 C 291.863281 88.132812 291.589844 88.261719 291.304688 88.363281 C 291.019531 88.46875 290.726562 88.542969 290.425781 88.589844 C 290.125 88.632812 289.824219 88.652344 289.523438 88.636719 Z M 289.523438 80.824219 C 289.082031 80.878906 288.667969 81.011719 288.277344 81.226562 C 287.886719 81.4375 287.554688 81.71875 287.273438 82.058594 C 286.992188 82.402344 286.785156 82.789062 286.652344 83.210938 C 286.519531 83.632812 286.472656 84.066406 286.507812 84.507812 C 286.542969 84.953125 286.660156 85.371094 286.859375 85.769531 C 287.054688 86.164062 287.320312 86.511719 287.652344 86.804688 C 287.984375 87.097656 288.359375 87.320312 288.777344 87.46875 C 289.195312 87.621094 289.625 87.683594 290.070312 87.667969 C 290.511719 87.648438 290.9375 87.550781 291.34375 87.367188 C 291.746094 87.1875 292.101562 86.933594 292.410156 86.613281 C 292.71875 86.296875 292.953125 85.929688 293.121094 85.519531 C 293.285156 85.105469 293.367188 84.679688 293.367188 84.234375 C 293.339844 83.753906 293.222656 83.296875 293.011719 82.863281 C 292.800781 82.429688 292.515625 82.050781 292.152344 81.730469 C 291.792969 81.410156 291.382812 81.171875 290.929688 81.015625 C 290.472656 80.859375 290.003906 80.792969 289.523438 80.824219 Z M 289.523438 80.824219 " fill-opacity="1" fill-rule="nonzero"/><path fill="#200a3e" d="M 300.761719 88.203125 C 300.476562 88.175781 300.199219 88.121094 299.929688 88.039062 C 299.65625 87.960938 299.394531 87.855469 299.144531 87.722656 C 298.890625 87.589844 298.65625 87.4375 298.433594 87.261719 C 298.210938 87.082031 298.007812 86.886719 297.824219 86.671875 C 297.640625 86.457031 297.476562 86.222656 297.335938 85.976562 C 297.199219 85.730469 297.082031 85.472656 296.996094 85.203125 C 296.90625 84.933594 296.839844 84.65625 296.804688 84.375 C 296.769531 84.09375 296.757812 83.8125 296.777344 83.527344 C 296.796875 83.246094 296.839844 82.964844 296.910156 82.691406 C 296.984375 82.417969 297.082031 82.152344 297.203125 81.894531 C 297.328125 81.640625 297.472656 81.398438 297.644531 81.171875 C 297.8125 80.941406 298.003906 80.734375 298.210938 80.542969 C 298.421875 80.351562 298.648438 80.183594 298.890625 80.035156 C 299.132812 79.886719 299.386719 79.765625 299.65625 79.667969 C 299.921875 79.570312 300.195312 79.496094 300.472656 79.449219 C 300.753906 79.40625 301.035156 79.386719 301.320312 79.394531 C 301.605469 79.402344 301.882812 79.441406 302.160156 79.503906 C 302.4375 79.566406 302.707031 79.652344 302.964844 79.769531 C 303.226562 79.882812 303.472656 80.019531 303.707031 80.183594 C 303.9375 80.34375 304.152344 80.527344 304.351562 80.730469 C 304.550781 80.933594 304.726562 81.15625 304.882812 81.394531 C 305.035156 81.632812 305.167969 81.882812 305.273438 82.144531 C 305.382812 82.40625 305.460938 82.679688 305.515625 82.957031 C 305.574219 83.234375 305.601562 83.515625 305.601562 83.800781 C 305.585938 84.101562 305.539062 84.402344 305.464844 84.695312 C 305.390625 84.988281 305.289062 85.273438 305.160156 85.546875 C 305.03125 85.824219 304.875 86.082031 304.695312 86.324219 C 304.515625 86.570312 304.3125 86.792969 304.085938 86.996094 C 303.863281 87.203125 303.621094 87.382812 303.359375 87.539062 C 303.101562 87.695312 302.828125 87.824219 302.542969 87.929688 C 302.257812 88.03125 301.964844 88.105469 301.664062 88.152344 C 301.367188 88.199219 301.0625 88.214844 300.761719 88.203125 Z M 300.761719 80.402344 C 300.320312 80.457031 299.90625 80.59375 299.519531 80.808594 C 299.132812 81.027344 298.800781 81.304688 298.523438 81.652344 C 298.246094 81.996094 298.039062 82.378906 297.910156 82.804688 C 297.78125 83.226562 297.734375 83.660156 297.773438 84.101562 C 297.8125 84.542969 297.929688 84.960938 298.128906 85.359375 C 298.328125 85.753906 298.597656 86.097656 298.929688 86.390625 C 299.261719 86.683594 299.636719 86.902344 300.054688 87.050781 C 300.472656 87.195312 300.90625 87.261719 301.347656 87.242188 C 301.789062 87.222656 302.214844 87.121094 302.617188 86.9375 C 303.019531 86.753906 303.375 86.5 303.683594 86.179688 C 303.988281 85.859375 304.222656 85.492188 304.386719 85.082031 C 304.550781 84.671875 304.632812 84.242188 304.632812 83.800781 C 304.605469 83.316406 304.488281 82.855469 304.277344 82.417969 C 304.0625 81.980469 303.777344 81.601562 303.414062 81.277344 C 303.050781 80.957031 302.636719 80.71875 302.175781 80.5625 C 301.71875 80.40625 301.246094 80.34375 300.761719 80.378906 Z M 300.761719 80.402344 " fill-opacity="1" fill-rule="nonzero"/><path fill="#200a3e" d="M 294.277344 83.882812 C 294.152344 83.878906 294.042969 83.832031 293.953125 83.746094 C 293.863281 83.660156 293.816406 83.554688 293.804688 83.433594 C 293.792969 83.308594 293.824219 83.195312 293.898438 83.09375 C 293.972656 82.996094 294.070312 82.933594 294.191406 82.90625 L 294.457031 82.90625 C 295.015625 82.78125 295.570312 82.78125 296.128906 82.90625 C 296.265625 82.921875 296.375 82.988281 296.457031 83.097656 C 296.542969 83.207031 296.574219 83.332031 296.554688 83.46875 C 296.539062 83.605469 296.472656 83.714844 296.363281 83.796875 C 296.253906 83.882812 296.132812 83.914062 295.996094 83.898438 C 295.542969 83.792969 295.089844 83.792969 294.640625 83.898438 L 294.371094 83.957031 Z M 294.277344 83.882812 " fill-opacity="1" fill-rule="nonzero"/><path fill="#200a3e" d="M 305.371094 83.777344 C 305.242188 83.78125 305.128906 83.746094 305.027344 83.664062 C 304.925781 83.582031 304.867188 83.476562 304.851562 83.347656 C 304.835938 83.21875 304.863281 83.101562 304.9375 82.996094 C 305.011719 82.890625 305.109375 82.824219 305.238281 82.796875 L 305.441406 82.796875 C 308.445312 81.925781 308.988281 81.753906 311.648438 82.058594 C 311.789062 82.074219 311.902344 82.136719 311.988281 82.246094 C 312.074219 82.351562 312.113281 82.476562 312.097656 82.613281 C 312.074219 82.75 312.011719 82.859375 311.90625 82.941406 C 311.796875 83.023438 311.675781 83.0625 311.539062 83.050781 C 309.121094 82.773438 308.636719 82.90625 305.722656 83.75 L 305.515625 83.8125 Z M 305.371094 83.777344 " fill-opacity="1" fill-rule="nonzero"/><path fill="#1d083e" d="M 285.515625 93.925781 C 287.9375 93.597656 287.632812 94.457031 289.144531 94.261719 C 292.085938 93.925781 291.734375 94.671875 294.664062 94.261719 C 295.960938 94.25 297.25 94.160156 298.535156 93.996094 C 299.570312 93.554688 300.609375 93.554688 301.644531 93.996094 C 304.0625 94.660156 303.097656 93.332031 306.191406 91.578125 C 309.289062 89.824219 308.214844 88.976562 311.734375 84.550781 C 310.984375 87.066406 312.15625 88.179688 312.945312 90.523438 C 314.976562 96.800781 308.347656 100.273438 308.105469 101.703125 C 307.816406 103.683594 306.894531 103.550781 304.933594 103.976562 C 302.976562 104.398438 303.554688 105.691406 300.808594 106.164062 C 299.238281 106.441406 299.199219 107.871094 297.179688 107.191406 C 296.199219 106.867188 294.699219 108.269531 293.355469 106.78125 C 292.253906 105.570312 290.9375 106.441406 290.417969 104.96875 C 290.113281 104.207031 289.789062 104.410156 289.28125 103.757812 C 288.839844 103.1875 288.316406 102.710938 287.707031 102.332031 C 286.558594 101.460938 286.90625 101.121094 286.773438 99.644531 C 286.703125 98.980469 285.457031 98.796875 285.566406 97.417969 C 285.566406 96.5 285.433594 96.546875 285.070312 95.714844 C 284.921875 95.136719 284.972656 94.574219 285.226562 94.03125 " fill-opacity="1" fill-rule="evenodd"/><path fill="#f89c87" d="M 310.789062 87.125 C 313.851562 80.171875 319.585938 81.355469 319.066406 86.449219 C 318.4375 92.761719 309.316406 96.125 309.726562 91.140625 " fill-opacity="1" fill-rule="evenodd"/><path fill="#1d083e" d="M 313.042969 90.609375 C 312.882812 90.609375 312.753906 90.550781 312.652344 90.429688 C 312.566406 90.320312 312.53125 90.199219 312.542969 90.0625 C 312.558594 89.925781 312.617188 89.8125 312.726562 89.726562 C 313.402344 89.183594 313.402344 89.183594 313.027344 88.359375 L 313.027344 88.238281 C 312.835938 87.789062 312.769531 87.324219 312.835938 86.839844 C 312.902344 86.355469 313.085938 85.921875 313.390625 85.542969 C 313.707031 85.113281 314.109375 84.789062 314.597656 84.574219 C 315.085938 84.359375 315.59375 84.277344 316.125 84.332031 C 316.820312 84.480469 317.351562 84.859375 317.710938 85.46875 C 317.902344 85.832031 317.996094 86.21875 317.996094 86.628906 C 317.996094 87.039062 317.902344 87.429688 317.710938 87.792969 C 317.652344 87.910156 317.5625 87.996094 317.4375 88.039062 C 317.3125 88.085938 317.1875 88.082031 317.066406 88.027344 C 316.945312 87.976562 316.855469 87.886719 316.804688 87.761719 C 316.753906 87.640625 316.753906 87.515625 316.804688 87.390625 C 317.074219 86.929688 317.101562 86.457031 316.886719 85.964844 C 316.6875 85.636719 316.402344 85.425781 316.03125 85.324219 C 315.671875 85.292969 315.335938 85.355469 315.011719 85.507812 C 314.6875 85.664062 314.425781 85.886719 314.226562 86.183594 C 314.03125 86.421875 313.910156 86.691406 313.863281 86.992188 C 313.816406 87.296875 313.847656 87.589844 313.960938 87.875 L 314.019531 87.996094 C 314.492188 89.023438 314.675781 89.570312 313.453125 90.550781 C 313.324219 90.628906 313.1875 90.648438 313.042969 90.609375 Z M 313.042969 90.609375 " fill-opacity="1" fill-rule="nonzero"/><path fill="#1d083e" d="M 315.304688 90.148438 L 315.160156 90.148438 C 315.027344 90.109375 314.925781 90.027344 314.863281 89.90625 C 314.796875 89.78125 314.789062 89.652344 314.832031 89.519531 C 315.265625 88.105469 315.183594 87.453125 313.828125 86.65625 C 313.722656 86.578125 313.660156 86.476562 313.636719 86.351562 C 313.609375 86.226562 313.628906 86.109375 313.695312 86 C 313.761719 85.890625 313.855469 85.816406 313.980469 85.78125 C 314.101562 85.742188 314.21875 85.753906 314.335938 85.808594 C 316.222656 86.921875 316.285156 88.226562 315.777344 89.824219 C 315.695312 90.042969 315.539062 90.152344 315.304688 90.148438 Z M 315.304688 90.148438 " fill-opacity="1" fill-rule="nonzero"/><path fill="#1d083e" d="M 294.542969 94.675781 C 293.285156 94.625 292.195312 94.167969 291.277344 93.308594 C 290.960938 92.894531 290.863281 92.433594 290.972656 91.929688 C 291.183594 91.359375 291.515625 90.882812 291.976562 90.488281 C 292.558594 90 293.023438 89.417969 293.371094 88.742188 C 293.71875 88.066406 293.925781 87.351562 293.984375 86.59375 C 293.980469 86.453125 294.03125 86.335938 294.132812 86.238281 C 294.234375 86.140625 294.355469 86.097656 294.492188 86.109375 C 294.632812 86.109375 294.75 86.160156 294.84375 86.261719 C 294.941406 86.359375 294.984375 86.480469 294.976562 86.617188 C 294.914062 87.496094 294.683594 88.332031 294.289062 89.121094 C 293.894531 89.910156 293.367188 90.597656 292.703125 91.179688 C 292.398438 91.449219 292.144531 91.761719 291.953125 92.121094 C 291.894531 92.339844 291.933594 92.535156 292.074219 92.714844 C 292.816406 93.335938 293.671875 93.65625 294.640625 93.683594 Z M 294.542969 94.675781 " fill-opacity="1" fill-rule="nonzero"/><path fill="#1d083e" d="M 303.421875 84.164062 C 303.421875 84.246094 303.339844 84.34375 303.289062 84.417969 C 302.992188 84.539062 302.683594 84.582031 302.363281 84.550781 C 302.042969 84.515625 301.75 84.40625 301.488281 84.222656 C 301.058594 83.921875 300.585938 83.75 300.066406 83.699219 C 299.546875 83.648438 299.046875 83.730469 298.570312 83.945312 C 298.402344 84.003906 298.390625 84.042969 298.207031 83.945312 L 298.015625 83.726562 C 297.996094 83.628906 297.996094 83.535156 298.015625 83.4375 C 298.085938 83.269531 298.125 83.28125 298.292969 83.207031 C 300.847656 82.179688 301.742188 83.714844 302.648438 83.96875 C 302.828125 84.011719 303.011719 84.011719 303.191406 83.96875 Z M 303.421875 84.164062 " fill-opacity="1" fill-rule="evenodd"/><path fill="#1d083e" d="M 300.132812 83.171875 C 300.265625 83.167969 300.394531 83.195312 300.519531 83.242188 C 300.644531 83.292969 300.753906 83.367188 300.851562 83.460938 C 300.945312 83.554688 301.019531 83.664062 301.070312 83.789062 C 301.121094 83.910156 301.148438 84.039062 301.148438 84.175781 C 301.148438 84.308594 301.121094 84.4375 301.070312 84.5625 C 301.019531 84.6875 300.945312 84.792969 300.847656 84.890625 C 300.753906 84.984375 300.644531 85.054688 300.519531 85.105469 C 300.394531 85.15625 300.265625 85.179688 300.132812 85.179688 C 299.996094 85.175781 299.867188 85.148438 299.746094 85.097656 C 299.621094 85.042969 299.515625 84.96875 299.421875 84.871094 C 299.328125 84.773438 299.257812 84.664062 299.207031 84.539062 C 299.160156 84.414062 299.136719 84.285156 299.140625 84.152344 C 299.140625 84.019531 299.164062 83.894531 299.214844 83.773438 C 299.265625 83.652344 299.339844 83.546875 299.429688 83.453125 C 299.523438 83.363281 299.632812 83.292969 299.753906 83.242188 C 299.875 83.191406 300 83.167969 300.132812 83.171875 Z M 300.132812 83.171875 " fill-opacity="1" fill-rule="evenodd"/><path fill="#1d083e" d="M 286.292969 83.074219 L 286.570312 83 C 286.859375 83.113281 287.148438 83.113281 287.441406 83 C 288.089844 82.640625 288.78125 82.484375 289.523438 82.539062 C 290.261719 82.589844 290.929688 82.84375 291.519531 83.292969 C 291.675781 83.414062 291.710938 83.402344 291.734375 83.582031 L 291.675781 83.871094 C 291.589844 83.871094 291.53125 84.003906 291.433594 84.03125 C 291.335938 84.054688 291.226562 84.03125 291.035156 83.898438 C 289.183594 82.6875 288.394531 83.800781 287.136719 83.628906 C 286.878906 83.601562 286.640625 83.511719 286.425781 83.363281 C 286.375 83.269531 286.328125 83.171875 286.292969 83.074219 Z M 286.292969 83.074219 " fill-opacity="1" fill-rule="evenodd"/><path fill="#1d083e" d="M 289.738281 82.855469 C 289.472656 82.808594 289.226562 82.859375 289.003906 83.015625 C 288.78125 83.167969 288.640625 83.375 288.589844 83.644531 C 288.550781 83.769531 288.539062 83.902344 288.554688 84.03125 C 288.574219 84.164062 288.613281 84.289062 288.683594 84.402344 C 288.75 84.519531 288.835938 84.613281 288.945312 84.691406 C 289.054688 84.769531 289.171875 84.824219 289.304688 84.851562 C 289.4375 84.882812 289.570312 84.886719 289.703125 84.863281 C 289.835938 84.839844 289.960938 84.789062 290.074219 84.714844 C 290.1875 84.640625 290.285156 84.546875 290.359375 84.433594 C 290.4375 84.324219 290.488281 84.199219 290.511719 84.066406 C 290.550781 83.933594 290.558594 83.800781 290.535156 83.664062 C 290.515625 83.53125 290.46875 83.40625 290.394531 83.289062 C 290.320312 83.175781 290.226562 83.078125 290.113281 83.003906 C 290 82.929688 289.875 82.878906 289.738281 82.855469 Z M 289.738281 82.855469 " fill-opacity="1" fill-rule="evenodd"/><path fill="#e1e5ff" d="M 291.746094 97.660156 C 294.238281 97.578125 294.410156 97.550781 297.664062 97.261719 C 297.785156 97.59375 297.804688 97.929688 297.722656 98.273438 C 297.640625 98.617188 297.472656 98.90625 297.214844 99.148438 C 295.824219 100.699219 290.984375 100.503906 291.554688 97.84375 " fill-opacity="1" fill-rule="evenodd"/><path fill="#1d083e" d="M 303.992188 79.917969 C 303.882812 80.003906 303.796875 80.121094 303.6875 80.207031 C 303.546875 80.21875 303.40625 80.21875 303.265625 80.207031 C 302.742188 80.214844 302.222656 80.148438 301.71875 80.015625 C 301.421875 79.945312 301.132812 79.859375 300.847656 79.761719 C 300.539062 79.597656 300.210938 79.542969 299.871094 79.597656 C 299.527344 79.65625 299.234375 79.808594 298.996094 80.0625 C 298.582031 80.414062 298.511719 80.28125 298.015625 80.0625 L 297.820312 79.578125 C 297.828125 79.34375 297.921875 79.152344 298.097656 79 C 298.304688 78.769531 298.539062 78.578125 298.808594 78.429688 C 299.074219 78.277344 299.359375 78.175781 299.664062 78.117188 C 299.964844 78.0625 300.265625 78.054688 300.570312 78.097656 C 300.875 78.140625 301.164062 78.230469 301.4375 78.367188 C 302.160156 78.828125 302.917969 79.234375 303.699219 79.578125 C 303.917969 79.664062 303.847656 79.746094 303.992188 79.917969 Z M 303.992188 79.917969 " fill-opacity="1" fill-rule="evenodd"/><path fill="#1d083e" d="M 286.171875 78.707031 C 286.472656 78.476562 286.472656 78.453125 286.558594 78.441406 C 287.464844 78.320312 288.179688 77.8125 288.917969 77.691406 C 289.199219 77.613281 289.488281 77.585938 289.78125 77.601562 C 290.070312 77.617188 290.355469 77.679688 290.625 77.789062 C 290.898438 77.898438 291.144531 78.050781 291.367188 78.238281 C 291.589844 78.429688 291.777344 78.648438 291.929688 78.902344 C 292.230469 79.371094 292.109375 79.433594 291.808594 79.917969 L 291.289062 80.039062 C 290.902344 79.964844 290.960938 79.855469 290.683594 79.578125 C 290.054688 78.960938 289.472656 79.191406 288.878906 79.253906 C 288.066406 79.378906 287.257812 79.339844 286.460938 79.132812 C 286.304688 78.890625 286.316406 78.878906 286.171875 78.707031 Z M 286.171875 78.707031 " fill-opacity="1" fill-rule="evenodd"/><path fill="#f89c87" d="M 293.984375 176.863281 C 297.191406 176.585938 301.765625 176.390625 308.285156 176.292969 L 310.160156 187.398438 C 307.21875 187.355469 304.289062 187.167969 301.367188 186.828125 C 299.644531 186.628906 297.925781 186.652344 296.210938 186.902344 C 292.085938 187.710938 291.519531 193.664062 289.195312 190.105469 C 288.734375 190.496094 287.257812 192.851562 285.3125 190.601562 C 283.277344 191.5 283.304688 191.523438 283.109375 191.570312 C 281.707031 191.933594 274.640625 190.992188 274.640625 190.90625 C 274.640625 190.820312 283.242188 179.753906 287.695312 177.964844 C 289.738281 177.300781 291.835938 176.933594 293.984375 176.863281 Z M 293.984375 176.863281 " fill-opacity="1" fill-rule="evenodd"/><path fill="#dd695a" d="M 301.367188 186.816406 L 293.984375 176.851562 C 297.191406 176.574219 301.765625 176.378906 308.285156 176.28125 L 310.160156 187.386719 C 307.21875 187.34375 304.289062 187.15625 301.367188 186.816406 Z M 301.367188 186.816406 " fill-opacity="1" fill-rule="evenodd"/><path fill="#5f9ded" d="M 304.136719 192.164062 L 300.421875 172.300781 L 349.566406 163.59375 L 338.4375 146.066406 L 337.40625 112.515625 C 337.40625 112.515625 364.386719 138 370.535156 156.347656 C 370.535156 156.347656 386.84375 179.160156 359.101562 188.015625 Z M 304.136719 192.164062 " fill-opacity="1" fill-rule="evenodd"/><path fill="#5f9ded" d="M 269.472656 115.527344 L 202.617188 180.84375 L 218.636719 192.152344 C 218.636719 192.152344 261.269531 163.230469 268.398438 148.777344 Z M 269.472656 115.527344 " fill-opacity="1" fill-rule="evenodd"/><path fill="#20428b" d="M 285.902344 333.101562 C 285.902344 333.101562 287.925781 351.910156 288.734375 359.382812 C 288.820312 360.210938 288.601562 360.949219 288.082031 361.597656 C 287.558594 362.25 286.882812 362.617188 286.050781 362.699219 L 243.039062 367.039062 C 242.800781 367.0625 242.566406 367.042969 242.335938 366.984375 C 242.105469 366.921875 241.894531 366.820312 241.699219 366.683594 C 241.507812 366.542969 241.34375 366.375 241.210938 366.175781 C 241.078125 365.976562 240.988281 365.761719 240.933594 365.527344 C 240.160156 361.816406 239.953125 352.816406 254.300781 347.6875 C 254.300781 347.6875 264.222656 344.132812 263.183594 329.121094 L 285.433594 327.160156 Z M 285.902344 333.101562 " fill-opacity="1" fill-rule="evenodd"/><path fill="#e2e9fc" d="M 242.144531 362.878906 C 241.761719 362.925781 241.40625 363.042969 241.070312 363.230469 C 240.734375 363.417969 240.449219 363.660156 240.210938 363.964844 C 239.976562 364.265625 239.804688 364.601562 239.699219 364.972656 C 239.597656 365.339844 239.570312 365.714844 239.613281 366.097656 C 239.660156 366.480469 239.777344 366.839844 239.964844 367.171875 C 240.15625 367.507812 240.402344 367.796875 240.703125 368.03125 C 241.007812 368.269531 241.34375 368.441406 241.714844 368.542969 C 242.085938 368.644531 242.464844 368.671875 242.84375 368.625 L 287.511719 363.289062 C 287.894531 363.246094 288.253906 363.128906 288.585938 362.941406 C 288.921875 362.753906 289.207031 362.507812 289.445312 362.207031 C 289.683594 361.90625 289.851562 361.570312 289.957031 361.199219 C 290.058594 360.828125 290.085938 360.453125 290.042969 360.074219 C 289.996094 359.691406 289.875 359.332031 289.6875 359 C 289.5 358.664062 289.253906 358.378906 288.949219 358.140625 C 288.648438 357.90625 288.308594 357.734375 287.941406 357.632812 C 287.570312 357.527344 287.191406 357.5 286.8125 357.546875 Z M 242.144531 362.878906 " fill-opacity="1" fill-rule="evenodd"/><path fill="#e2e9fc" d="M 264.816406 346.296875 C 264.648438 346.296875 264.492188 346.257812 264.34375 346.175781 L 263.484375 345.703125 C 262.21875 344.925781 260.859375 344.378906 259.40625 344.058594 C 259.152344 343.980469 258.957031 343.824219 258.828125 343.589844 C 258.695312 343.355469 258.664062 343.109375 258.730469 342.847656 C 258.804688 342.589844 258.957031 342.390625 259.195312 342.261719 C 259.429688 342.128906 259.679688 342.097656 259.941406 342.171875 C 261.535156 342.53125 263.03125 343.132812 264.429688 343.984375 L 265.289062 344.457031 C 265.527344 344.589844 265.683594 344.789062 265.757812 345.050781 C 265.832031 345.3125 265.804688 345.5625 265.675781 345.800781 C 265.484375 346.128906 265.195312 346.292969 264.816406 346.296875 Z M 264.816406 346.296875 " fill-opacity="1" fill-rule="nonzero"/><path fill="#e2e9fc" d="M 262.566406 348.570312 C 262.375 348.566406 262.195312 348.511719 262.035156 348.414062 C 261.671875 348.183594 261.378906 347.964844 261.101562 347.773438 C 259.929688 346.914062 258.625 346.359375 257.195312 346.113281 C 257.066406 346.082031 256.945312 346.027344 256.839844 345.949219 C 256.734375 345.871094 256.644531 345.777344 256.574219 345.664062 C 256.507812 345.550781 256.460938 345.425781 256.441406 345.296875 C 256.417969 345.164062 256.425781 345.035156 256.457031 344.90625 C 256.488281 344.777344 256.542969 344.660156 256.621094 344.550781 C 256.699219 344.445312 256.796875 344.359375 256.910156 344.289062 C 257.023438 344.222656 257.144531 344.179688 257.277344 344.160156 C 257.40625 344.140625 257.539062 344.148438 257.664062 344.179688 C 259.347656 344.476562 260.875 345.132812 262.25 346.140625 C 262.492188 346.320312 262.773438 346.515625 263.097656 346.71875 C 263.210938 346.789062 263.304688 346.878906 263.378906 346.984375 C 263.457031 347.09375 263.507812 347.210938 263.539062 347.339844 C 263.566406 347.464844 263.570312 347.59375 263.550781 347.726562 C 263.527344 347.855469 263.484375 347.976562 263.414062 348.085938 C 263.21875 348.402344 262.9375 348.5625 262.566406 348.570312 Z M 262.566406 348.570312 " fill-opacity="1" fill-rule="nonzero"/><path fill="#e2e9fc" d="M 259.710938 350.613281 C 259.496094 350.617188 259.300781 350.550781 259.128906 350.421875 L 258.234375 349.753906 C 257.101562 348.84375 255.820312 348.265625 254.386719 348.015625 C 254.125 347.941406 253.929688 347.785156 253.792969 347.550781 C 253.660156 347.316406 253.628906 347.066406 253.699219 346.804688 C 253.773438 346.546875 253.929688 346.347656 254.164062 346.214844 C 254.398438 346.082031 254.644531 346.046875 254.90625 346.113281 C 256.585938 346.4375 258.09375 347.128906 259.433594 348.195312 L 260.277344 348.824219 C 260.457031 348.949219 260.578125 349.113281 260.648438 349.320312 C 260.71875 349.527344 260.71875 349.734375 260.652344 349.9375 C 260.585938 350.144531 260.464844 350.3125 260.289062 350.4375 C 260.113281 350.566406 259.914062 350.628906 259.699219 350.625 Z M 259.710938 350.613281 " fill-opacity="1" fill-rule="nonzero"/><path fill="#e2e9fc" d="M 256.867188 352.707031 C 256.675781 352.695312 256.503906 352.636719 256.347656 352.527344 L 255.765625 352.089844 C 254.503906 351.039062 253.09375 350.261719 251.53125 349.753906 C 251.277344 349.675781 251.085938 349.519531 250.957031 349.285156 C 250.832031 349.050781 250.804688 348.804688 250.878906 348.546875 C 250.957031 348.289062 251.113281 348.097656 251.347656 347.96875 C 251.582031 347.839844 251.828125 347.808594 252.089844 347.882812 C 253.871094 348.460938 255.484375 349.347656 256.929688 350.542969 C 257.085938 350.675781 257.25 350.800781 257.425781 350.917969 C 257.648438 351.078125 257.785156 351.292969 257.832031 351.5625 C 257.882812 351.832031 257.832031 352.078125 257.679688 352.308594 C 257.476562 352.578125 257.203125 352.710938 256.867188 352.707031 Z M 256.867188 352.707031 " fill-opacity="1" fill-rule="nonzero"/><path fill="#e2e9fc" d="M 266.679688 343.890625 C 266.507812 343.886719 266.34375 343.84375 266.195312 343.757812 C 262.941406 341.941406 262.941406 341.941406 260.472656 341.761719 C 260.199219 341.738281 259.96875 341.621094 259.789062 341.410156 C 259.613281 341.203125 259.53125 340.960938 259.554688 340.683594 C 259.5625 340.554688 259.597656 340.429688 259.65625 340.3125 C 259.714844 340.195312 259.796875 340.09375 259.894531 340.007812 C 259.996094 339.921875 260.109375 339.859375 260.234375 339.820312 C 260.359375 339.78125 260.488281 339.765625 260.617188 339.777344 C 263.460938 339.996094 263.789062 340.140625 267.164062 342.027344 C 267.277344 342.089844 267.378906 342.171875 267.460938 342.273438 C 267.542969 342.375 267.601562 342.492188 267.636719 342.617188 C 267.675781 342.742188 267.683594 342.871094 267.671875 343 C 267.65625 343.132812 267.613281 343.253906 267.550781 343.371094 C 267.363281 343.710938 267.070312 343.886719 266.679688 343.890625 Z M 266.679688 343.890625 " fill-opacity="1" fill-rule="nonzero"/><path fill="#e2e9fc" d="M 268.613281 341.640625 C 266.859375 341.640625 264.488281 340.613281 262.226562 338.082031 C 262.058594 337.894531 261.976562 337.671875 261.976562 337.417969 C 261.976562 337.164062 262.058594 336.941406 262.226562 336.753906 C 262.238281 336.527344 262.320312 336.324219 262.464844 336.152344 C 262.609375 335.976562 262.792969 335.863281 263.011719 335.808594 C 264.488281 335.496094 268.117188 334.949219 270.054688 336.632812 C 270.5 337.023438 270.828125 337.492188 271.042969 338.042969 C 271.253906 338.597656 271.328125 339.164062 271.265625 339.753906 C 271.21875 340.160156 271.066406 340.515625 270.800781 340.828125 C 270.535156 341.140625 270.207031 341.347656 269.8125 341.457031 C 269.425781 341.589844 269.023438 341.652344 268.613281 341.640625 Z M 264.5 337.574219 C 265.585938 338.777344 266.933594 339.472656 268.542969 339.65625 C 268.785156 339.664062 269.019531 339.625 269.246094 339.535156 C 269.328125 338.976562 269.164062 338.503906 268.75 338.121094 C 267.949219 337.40625 266.183594 337.320312 264.5 337.550781 Z M 264.5 337.574219 " fill-opacity="1" fill-rule="nonzero"/><path fill="#e2e9fc" d="M 256.890625 340.890625 C 256.5 340.894531 256.125 340.8125 255.765625 340.648438 C 255.34375 340.417969 255.007812 340.097656 254.761719 339.683594 C 254.519531 339.265625 254.398438 338.820312 254.398438 338.335938 C 254.472656 337.785156 254.65625 337.273438 254.945312 336.800781 C 255.234375 336.324219 255.609375 335.929688 256.070312 335.617188 C 257.519531 334.574219 259.578125 334.515625 262.117188 335.433594 C 262.242188 335.476562 262.355469 335.542969 262.453125 335.632812 C 262.550781 335.722656 262.628906 335.824219 262.683594 335.945312 C 262.742188 336.0625 262.773438 336.1875 262.78125 336.320312 C 262.785156 336.453125 262.769531 336.582031 262.722656 336.703125 C 262.667969 336.851562 262.582031 336.980469 262.46875 337.089844 C 262.53125 337.285156 262.535156 337.480469 262.480469 337.679688 C 262.421875 337.875 262.3125 338.039062 262.15625 338.167969 C 259.976562 339.984375 258.246094 340.890625 256.890625 340.890625 Z M 256.394531 338.46875 C 256.394531 338.578125 256.46875 338.832031 256.636719 338.90625 C 256.808594 338.980469 257.679688 339.269531 260.484375 337.042969 C 259.425781 336.675781 258.382812 336.722656 257.363281 337.1875 C 256.851562 337.457031 256.511719 337.871094 256.347656 338.421875 Z M 256.394531 338.46875 " fill-opacity="1" fill-rule="nonzero"/><path fill="#e2e9fc" d="M 277.519531 358.792969 C 277.046875 356.546875 277.199219 354.34375 277.980469 352.1875 C 278.316406 351.316406 278.765625 350.511719 279.332031 349.769531 C 279.894531 349.027344 280.554688 348.378906 281.304688 347.824219 C 282.050781 347.269531 282.863281 346.828125 283.738281 346.507812 C 284.613281 346.183594 285.519531 345.988281 286.449219 345.921875 C 286.582031 345.894531 286.714844 345.894531 286.851562 345.921875 C 286.984375 345.949219 287.109375 346 287.222656 346.074219 C 287.335938 346.152344 287.429688 346.246094 287.503906 346.359375 C 287.582031 346.472656 287.632812 346.597656 287.660156 346.730469 C 287.683594 346.859375 287.683594 346.984375 287.65625 347.113281 C 287.628906 347.238281 287.582031 347.355469 287.507812 347.460938 C 287.4375 347.570312 287.34375 347.65625 287.238281 347.726562 C 287.128906 347.796875 287.011719 347.84375 286.882812 347.867188 L 286.691406 347.867188 C 285.945312 347.917969 285.21875 348.074219 284.515625 348.332031 C 283.8125 348.585938 283.160156 348.9375 282.554688 349.378906 C 281.949219 349.820312 281.421875 350.339844 280.964844 350.929688 C 280.507812 351.523438 280.140625 352.167969 279.867188 352.863281 C 279.222656 354.660156 279.097656 356.488281 279.492188 358.355469 Z M 277.519531 358.792969 " fill-opacity="1" fill-rule="nonzero"/><path fill="#20428b" d="M 203.753906 310.011719 L 190.589844 332.929688 C 190.175781 333.660156 189.5625 334.132812 188.753906 334.347656 C 187.945312 334.5625 187.183594 334.457031 186.464844 334.03125 L 149.128906 312.320312 C 148.929688 312.199219 148.753906 312.050781 148.605469 311.867188 C 148.460938 311.683594 148.347656 311.484375 148.273438 311.261719 C 148.199219 311.039062 148.164062 310.8125 148.167969 310.578125 C 148.175781 310.34375 148.21875 310.117188 148.308594 309.902344 C 149.867188 306.441406 154.984375 299.015625 169.613281 303.332031 C 169.613281 303.332031 179.726562 306.273438 187.761719 293.523438 L 206.914062 305.015625 Z M 203.753906 310.011719 " fill-opacity="1" fill-rule="evenodd"/><path fill="#e2e9fc" d="M 150.847656 308.378906 C 150.511719 308.199219 150.15625 308.089844 149.777344 308.050781 C 149.398438 308.011719 149.027344 308.046875 148.664062 308.152344 C 148.296875 308.257812 147.964844 308.433594 147.667969 308.667969 C 147.371094 308.90625 147.128906 309.191406 146.945312 309.523438 C 146.757812 309.855469 146.644531 310.210938 146.597656 310.585938 C 146.550781 310.964844 146.578125 311.335938 146.679688 311.703125 C 146.777344 312.070312 146.945312 312.402344 147.175781 312.707031 C 147.40625 313.007812 147.6875 313.253906 148.015625 313.445312 L 187.300781 335.386719 C 187.636719 335.550781 187.988281 335.648438 188.359375 335.675781 C 188.730469 335.707031 189.09375 335.664062 189.449219 335.554688 C 189.804688 335.445312 190.128906 335.269531 190.417969 335.035156 C 190.707031 334.800781 190.941406 334.519531 191.125 334.195312 C 191.304688 333.867188 191.417969 333.519531 191.464844 333.152344 C 191.511719 332.78125 191.492188 332.417969 191.398438 332.054688 C 191.304688 331.695312 191.144531 331.363281 190.925781 331.0625 C 190.703125 330.761719 190.4375 330.515625 190.121094 330.316406 Z M 150.847656 308.378906 " fill-opacity="1" fill-rule="evenodd"/><path fill="#e2e9fc" d="M 179.496094 308.460938 C 179.078125 308.460938 178.78125 308.269531 178.601562 307.894531 L 178.214844 307.046875 C 177.636719 305.664062 176.855469 304.410156 175.867188 303.285156 C 175.789062 303.179688 175.730469 303.066406 175.695312 302.9375 C 175.660156 302.8125 175.652344 302.683594 175.671875 302.550781 C 175.6875 302.421875 175.726562 302.300781 175.792969 302.183594 C 175.859375 302.070312 175.945312 301.972656 176.050781 301.894531 C 176.152344 301.8125 176.269531 301.757812 176.394531 301.722656 C 176.523438 301.6875 176.652344 301.679688 176.78125 301.695312 C 176.914062 301.714844 177.035156 301.753906 177.148438 301.820312 C 177.261719 301.886719 177.359375 301.972656 177.441406 302.074219 C 178.515625 303.320312 179.371094 304.703125 180.003906 306.222656 L 180.40625 307.058594 C 180.460938 307.179688 180.492188 307.304688 180.496094 307.433594 C 180.5 307.566406 180.480469 307.695312 180.4375 307.816406 C 180.390625 307.941406 180.324219 308.050781 180.234375 308.148438 C 180.144531 308.246094 180.039062 308.320312 179.921875 308.378906 C 179.785156 308.4375 179.644531 308.464844 179.496094 308.460938 Z M 179.496094 308.460938 " fill-opacity="1" fill-rule="nonzero"/><path fill="#e2e9fc" d="M 176.363281 308.980469 C 176.160156 308.984375 175.972656 308.925781 175.804688 308.8125 C 175.636719 308.695312 175.515625 308.542969 175.445312 308.351562 C 175.285156 307.953125 175.164062 307.601562 175.058594 307.277344 C 174.621094 305.894531 173.894531 304.683594 172.878906 303.648438 C 172.789062 303.546875 172.71875 303.433594 172.675781 303.308594 C 172.632812 303.179688 172.613281 303.050781 172.621094 302.914062 C 172.628906 302.78125 172.664062 302.652344 172.726562 302.535156 C 172.785156 302.414062 172.867188 302.308594 172.96875 302.222656 C 173.074219 302.136719 173.1875 302.070312 173.316406 302.03125 C 173.445312 301.992188 173.578125 301.980469 173.710938 301.992188 C 173.84375 302.003906 173.972656 302.046875 174.089844 302.109375 C 174.207031 302.175781 174.308594 302.261719 174.390625 302.367188 C 175.578125 303.589844 176.425781 305.019531 176.933594 306.648438 C 177.039062 306.9375 177.136719 307.253906 177.28125 307.628906 C 177.332031 307.75 177.355469 307.875 177.355469 308.007812 C 177.351562 308.136719 177.324219 308.265625 177.273438 308.386719 C 177.222656 308.503906 177.148438 308.609375 177.050781 308.703125 C 176.957031 308.792969 176.847656 308.863281 176.726562 308.910156 C 176.609375 308.957031 176.488281 308.980469 176.363281 308.980469 Z M 176.363281 308.980469 " fill-opacity="1" fill-rule="nonzero"/><path fill="#e2e9fc" d="M 172.867188 308.980469 C 172.652344 308.980469 172.460938 308.914062 172.289062 308.792969 C 172.117188 308.667969 171.992188 308.503906 171.921875 308.304688 C 171.789062 307.894531 171.691406 307.542969 171.597656 307.238281 C 171.207031 305.851562 170.511719 304.644531 169.503906 303.613281 C 169.398438 303.511719 169.324219 303.394531 169.269531 303.261719 C 169.21875 303.128906 169.195312 302.988281 169.203125 302.847656 C 169.210938 302.703125 169.246094 302.566406 169.3125 302.441406 C 169.378906 302.3125 169.46875 302.207031 169.582031 302.117188 C 169.695312 302.027344 169.820312 301.96875 169.960938 301.933594 C 170.101562 301.902344 170.242188 301.898438 170.382812 301.925781 C 170.523438 301.953125 170.652344 302.007812 170.769531 302.089844 C 170.886719 302.175781 170.980469 302.277344 171.050781 302.402344 C 172.21875 303.648438 173.023438 305.097656 173.472656 306.746094 C 173.554688 307.035156 173.652344 307.359375 173.785156 307.75 C 173.859375 308 173.835938 308.246094 173.710938 308.476562 C 173.589844 308.710938 173.40625 308.871094 173.15625 308.957031 C 173.0625 308.980469 172.964844 308.988281 172.867188 308.980469 Z M 172.867188 308.980469 " fill-opacity="1" fill-rule="nonzero"/><path fill="#e2e9fc" d="M 169.320312 308.980469 C 169.113281 308.980469 168.921875 308.917969 168.75 308.796875 C 168.578125 308.675781 168.460938 308.515625 168.390625 308.316406 C 168.316406 308.125 168.257812 307.894531 168.171875 307.628906 C 167.777344 306.03125 167.089844 304.574219 166.117188 303.25 C 165.953125 303.027344 165.890625 302.785156 165.929688 302.511719 C 165.964844 302.242188 166.09375 302.023438 166.308594 301.859375 C 166.414062 301.777344 166.53125 301.71875 166.65625 301.683594 C 166.785156 301.652344 166.914062 301.640625 167.046875 301.660156 C 167.175781 301.679688 167.300781 301.722656 167.414062 301.789062 C 167.527344 301.855469 167.621094 301.945312 167.699219 302.050781 C 168.835938 303.566406 169.640625 305.238281 170.121094 307.070312 C 170.171875 307.269531 170.230469 307.46875 170.300781 307.664062 C 170.375 307.914062 170.351562 308.15625 170.234375 308.390625 C 170.113281 308.625 169.929688 308.785156 169.683594 308.871094 C 169.570312 308.933594 169.449219 308.96875 169.320312 308.980469 Z M 169.320312 308.980469 " fill-opacity="1" fill-rule="nonzero"/><path fill="#e2e9fc" d="M 182.449219 307.628906 C 182.253906 307.628906 182.078125 307.574219 181.914062 307.46875 C 181.753906 307.363281 181.632812 307.222656 181.554688 307.046875 C 179.992188 303.671875 179.992188 303.671875 178.082031 302.0625 C 177.980469 301.976562 177.898438 301.875 177.839844 301.757812 C 177.78125 301.640625 177.746094 301.515625 177.734375 301.382812 C 177.726562 301.253906 177.738281 301.125 177.78125 301 C 177.824219 300.871094 177.886719 300.761719 177.972656 300.660156 C 178.054688 300.558594 178.15625 300.476562 178.273438 300.417969 C 178.386719 300.355469 178.511719 300.320312 178.644531 300.308594 C 178.773438 300.296875 178.902344 300.3125 179.027344 300.351562 C 179.152344 300.390625 179.265625 300.453125 179.363281 300.539062 C 181.554688 302.402344 181.785156 302.703125 183.355469 306.210938 C 183.410156 306.332031 183.441406 306.457031 183.449219 306.589844 C 183.453125 306.71875 183.433594 306.847656 183.386719 306.972656 C 183.34375 307.09375 183.273438 307.207031 183.1875 307.300781 C 183.097656 307.398438 182.992188 307.476562 182.871094 307.53125 C 182.738281 307.589844 182.597656 307.625 182.449219 307.628906 Z M 182.449219 307.628906 " fill-opacity="1" fill-rule="nonzero"/><path fill="#e2e9fc" d="M 186.527344 307.386719 C 186.273438 307.378906 186.027344 307.339844 185.789062 307.265625 C 184.046875 306.71875 182.160156 304.300781 181.6875 300.089844 C 181.746094 299.882812 181.839844 299.6875 181.96875 299.511719 C 182.09375 299.332031 182.25 299.183594 182.429688 299.058594 C 182.609375 298.933594 182.804688 298.847656 183.015625 298.789062 C 183.226562 298.734375 183.441406 298.71875 183.660156 298.738281 C 185.039062 299.339844 188.304688 301.035156 188.875 303.574219 C 189 304.152344 188.980469 304.722656 188.824219 305.289062 C 188.664062 305.855469 188.382812 306.351562 187.976562 306.78125 C 187.589844 307.207031 187.105469 307.410156 186.527344 307.386719 Z M 183.828125 301.023438 C 183.992188 302.636719 184.675781 303.992188 185.871094 305.085938 C 186.050781 305.25 186.261719 305.351562 186.503906 305.390625 C 186.90625 304.996094 187.050781 304.527344 186.9375 303.972656 C 186.695312 302.933594 185.269531 301.796875 183.828125 301.023438 Z M 183.828125 301.023438 " fill-opacity="1" fill-rule="nonzero"/><path fill="#e2e9fc" d="M 180.125 300.226562 C 177.320312 300.226562 175.636719 299.621094 174.972656 298.398438 C 174.761719 297.96875 174.679688 297.511719 174.722656 297.035156 C 174.761719 296.558594 174.921875 296.125 175.203125 295.738281 C 176.023438 294.925781 177.011719 294.519531 178.167969 294.527344 C 179.957031 294.527344 181.652344 295.738281 183.199219 297.960938 C 183.273438 298.070312 183.328125 298.1875 183.355469 298.316406 C 183.382812 298.445312 183.386719 298.574219 183.363281 298.707031 C 183.339844 298.835938 183.289062 298.957031 183.21875 299.066406 C 183.144531 299.175781 183.054688 299.269531 182.945312 299.339844 C 182.417969 299.496094 181.980469 299.78125 181.625 300.199219 C 181.070312 300.199219 180.5625 300.226562 180.125 300.226562 Z M 176.773438 296.957031 C 176.695312 297.128906 176.695312 297.296875 176.773438 297.46875 C 176.773438 297.5625 177.402344 298.363281 180.972656 298.21875 C 180.335938 297.292969 179.464844 296.71875 178.359375 296.5 C 177.761719 296.433594 177.222656 296.585938 176.75 296.957031 Z M 176.773438 296.957031 " fill-opacity="1" fill-rule="nonzero"/><path fill="#e2e9fc" d="M 182.761719 327.269531 C 182.625 327.265625 182.492188 327.238281 182.363281 327.183594 C 182.113281 327.074219 181.9375 326.886719 181.839844 326.628906 C 181.738281 326.375 181.746094 326.121094 181.855469 325.867188 C 182.808594 323.777344 184.230469 322.082031 186.125 320.785156 C 186.910156 320.28125 187.75 319.898438 188.644531 319.628906 C 189.539062 319.363281 190.449219 319.226562 191.382812 319.21875 C 192.316406 319.210938 193.230469 319.335938 194.128906 319.585938 C 195.027344 319.839844 195.871094 320.210938 196.664062 320.703125 C 196.914062 320.824219 197.082031 321.015625 197.179688 321.277344 C 197.273438 321.535156 197.261719 321.792969 197.148438 322.042969 C 197.09375 322.164062 197.019531 322.269531 196.925781 322.355469 C 196.828125 322.445312 196.71875 322.511719 196.59375 322.558594 C 196.472656 322.601562 196.34375 322.621094 196.214844 322.613281 C 196.082031 322.605469 195.960938 322.574219 195.84375 322.515625 L 195.671875 322.417969 C 195.039062 322.019531 194.363281 321.714844 193.640625 321.507812 C 192.921875 321.296875 192.1875 321.195312 191.4375 321.195312 C 190.6875 321.195312 189.953125 321.296875 189.234375 321.507812 C 188.515625 321.714844 187.835938 322.019531 187.203125 322.417969 C 185.625 323.492188 184.441406 324.898438 183.660156 326.640625 C 183.589844 326.828125 183.472656 326.980469 183.308594 327.09375 C 183.144531 327.210938 182.964844 327.269531 182.761719 327.269531 Z M 182.761719 327.269531 " fill-opacity="1" fill-rule="nonzero"/><path fill="#373954" d="M 249.875 229.152344 L 258.984375 337.660156 L 287.925781 335.59375 C 287.925781 335.59375 279.890625 258.3125 291.191406 256.972656 C 291.191406 256.972656 301.039062 247.5 322.960938 253.246094 C 322.960938 253.246094 287.367188 200.425781 249.875 229.152344 Z M 249.875 229.152344 " fill-opacity="1" fill-rule="evenodd"/><path fill="#1d083e" d="M 258.574219 329.847656 C 258.4375 329.847656 258.320312 329.796875 258.222656 329.703125 C 258.125 329.605469 258.078125 329.488281 258.078125 329.351562 C 258.078125 329.214844 258.125 329.097656 258.222656 329 C 258.320312 328.902344 258.4375 328.855469 258.574219 328.855469 L 287.234375 326.21875 C 287.371094 326.207031 287.492188 326.246094 287.597656 326.332031 C 287.703125 326.417969 287.761719 326.53125 287.78125 326.664062 C 287.789062 326.804688 287.75 326.925781 287.660156 327.03125 C 287.570312 327.136719 287.457031 327.195312 287.320312 327.210938 L 258.65625 329.847656 Z M 258.574219 329.847656 " fill-opacity="1" fill-rule="nonzero"/><path fill="#373954" d="M 179.050781 295.882812 L 209.597656 310.53125 L 249.984375 244.476562 C 249.984375 244.476562 255.644531 226.441406 272.742188 226.152344 C 274.464844 226.132812 276.171875 226.300781 277.863281 226.65625 C 279.550781 227.015625 281.179688 227.550781 282.746094 228.269531 C 284.316406 228.988281 285.789062 229.871094 287.160156 230.914062 C 288.535156 231.960938 289.777344 233.140625 290.886719 234.460938 C 300.871094 246.339844 327.183594 273.058594 341.183594 243.277344 C 341.183594 243.277344 349.652344 226.707031 339.621094 206.253906 C 336.367188 201.765625 231.085938 191.328125 234.21875 200.425781 C 235.066406 202.710938 179.050781 295.882812 179.050781 295.882812 Z M 179.050781 295.882812 " fill-opacity="1" fill-rule="evenodd"/><path fill="#1d083e" d="M 326.121094 256.972656 C 322.769531 256.972656 318.363281 255.917969 312.425781 253.257812 C 304.960938 249.917969 301.535156 244.792969 298.234375 239.832031 C 294.929688 234.871094 291.808594 230.15625 284.839844 228.136719 C 269.570312 223.625 258.367188 235.210938 252.984375 240.773438 L 252.390625 241.378906 C 252.296875 241.476562 252.179688 241.527344 252.042969 241.53125 C 251.90625 241.53125 251.789062 241.488281 251.691406 241.390625 C 251.589844 241.296875 251.539062 241.179688 251.539062 241.042969 C 251.535156 240.90625 251.582031 240.789062 251.675781 240.691406 L 252.269531 240.085938 C 257.785156 234.375 269.28125 222.5 285.117188 227.191406 C 292.4375 229.355469 295.65625 234.183594 299.054688 239.289062 C 302.285156 244.125 305.625 249.132812 312.835938 252.363281 C 328.105469 259.195312 332.449219 255.230469 335.894531 250.171875 C 335.972656 250.058594 336.078125 249.988281 336.210938 249.964844 C 336.347656 249.9375 336.472656 249.964844 336.585938 250.039062 C 336.699219 250.117188 336.769531 250.222656 336.792969 250.359375 C 336.820312 250.492188 336.796875 250.617188 336.71875 250.730469 C 334.492188 253.933594 331.769531 256.972656 326.121094 256.972656 Z M 326.121094 256.972656 " fill-opacity="1" fill-rule="nonzero"/><path fill="#1d083e" d="M 344.230469 190.6875 C 344.550781 190.671875 344.871094 190.6875 345.191406 190.738281 C 345.507812 190.785156 345.816406 190.867188 346.117188 190.976562 C 346.421875 191.089844 346.707031 191.230469 346.980469 191.398438 C 347.253906 191.570312 347.503906 191.765625 347.738281 191.988281 C 347.972656 192.207031 348.179688 192.449219 348.363281 192.714844 C 348.546875 192.980469 348.703125 193.257812 348.828125 193.554688 C 348.957031 193.847656 349.050781 194.152344 349.117188 194.46875 C 349.179688 194.785156 349.214844 195.101562 349.214844 195.421875 C 349.214844 195.746094 349.179688 196.0625 349.117188 196.378906 C 349.050781 196.691406 348.957031 196.996094 348.828125 197.292969 C 348.703125 197.589844 348.546875 197.867188 348.363281 198.132812 C 348.179688 198.394531 347.972656 198.636719 347.738281 198.859375 C 347.503906 199.082031 347.253906 199.277344 346.980469 199.445312 C 346.707031 199.617188 346.421875 199.757812 346.117188 199.871094 C 345.816406 199.980469 345.507812 200.0625 345.191406 200.109375 C 344.871094 200.160156 344.550781 200.175781 344.230469 200.160156 L 148.984375 200.160156 C 148.683594 200.144531 148.386719 200.101562 148.09375 200.027344 C 147.800781 199.957031 147.519531 199.859375 147.246094 199.730469 C 146.96875 199.605469 146.710938 199.457031 146.464844 199.28125 C 146.21875 199.105469 145.996094 198.910156 145.785156 198.691406 C 145.578125 198.472656 145.394531 198.234375 145.230469 197.980469 C 145.070312 197.730469 144.929688 197.460938 144.820312 197.183594 C 144.707031 196.902344 144.625 196.613281 144.566406 196.320312 C 144.507812 196.023438 144.480469 195.722656 144.480469 195.421875 C 144.480469 195.121094 144.507812 194.824219 144.566406 194.527344 C 144.625 194.230469 144.707031 193.945312 144.820312 193.664062 C 144.929688 193.382812 145.070312 193.117188 145.230469 192.863281 C 145.394531 192.609375 145.578125 192.375 145.785156 192.15625 C 145.996094 191.9375 146.21875 191.742188 146.464844 191.566406 C 146.710938 191.390625 146.96875 191.242188 147.246094 191.113281 C 147.519531 190.988281 147.800781 190.890625 148.09375 190.820312 C 148.386719 190.746094 148.683594 190.703125 148.984375 190.6875 Z M 344.230469 190.6875 " fill-opacity="1" fill-rule="evenodd"/><path fill="#e2e9fc" d="M 201.359375 126.496094 C 201.816406 126.484375 202.265625 126.539062 202.710938 126.660156 C 203.152344 126.78125 203.566406 126.960938 203.957031 127.203125 C 204.34375 127.445312 204.691406 127.738281 204.996094 128.082031 C 205.296875 128.421875 205.546875 128.804688 205.738281 129.21875 C 211.4375 141.59375 234.132812 190.808594 234.132812 190.808594 L 158.265625 191.246094 L 128.839844 135.183594 C 128.746094 135.007812 128.667969 134.828125 128.597656 134.640625 C 128.527344 134.457031 128.46875 134.265625 128.425781 134.074219 C 128.378906 133.882812 128.347656 133.6875 128.324219 133.488281 C 128.304688 133.292969 128.296875 133.097656 128.300781 132.898438 C 128.304688 132.699219 128.324219 132.503906 128.351562 132.308594 C 128.382812 132.113281 128.425781 131.917969 128.476562 131.730469 C 128.53125 131.539062 128.597656 131.351562 128.675781 131.171875 C 128.753906 130.988281 128.84375 130.8125 128.941406 130.640625 C 129.042969 130.46875 129.152344 130.304688 129.273438 130.148438 C 129.394531 129.992188 129.527344 129.84375 129.664062 129.703125 C 129.804688 129.566406 129.953125 129.433594 130.109375 129.3125 C 130.265625 129.191406 130.429688 129.082031 130.601562 128.980469 C 130.769531 128.878906 130.945312 128.789062 131.128906 128.710938 C 131.3125 128.632812 131.496094 128.566406 131.6875 128.515625 C 131.878906 128.460938 132.070312 128.417969 132.265625 128.386719 C 132.460938 128.359375 132.660156 128.339844 132.855469 128.335938 Z M 201.359375 126.496094 " fill-opacity="1" fill-rule="evenodd"/><path fill="#d3d9f2" d="M 158.238281 191.207031 L 128.839844 135.183594 C 128.746094 135.007812 128.667969 134.828125 128.597656 134.640625 C 128.527344 134.457031 128.46875 134.265625 128.425781 134.074219 C 128.378906 133.882812 128.347656 133.6875 128.324219 133.488281 C 128.304688 133.292969 128.296875 133.097656 128.300781 132.898438 C 128.304688 132.699219 128.324219 132.503906 128.351562 132.308594 C 128.382812 132.113281 128.425781 131.917969 128.476562 131.730469 C 128.53125 131.539062 128.597656 131.351562 128.675781 131.171875 C 128.753906 130.988281 128.84375 130.8125 128.941406 130.640625 C 129.042969 130.46875 129.152344 130.304688 129.273438 130.148438 C 129.394531 129.992188 129.527344 129.84375 129.664062 129.703125 C 129.804688 129.566406 129.953125 129.433594 130.109375 129.3125 C 130.265625 129.191406 130.429688 129.082031 130.601562 128.980469 C 130.769531 128.878906 130.945312 128.789062 131.128906 128.710938 C 131.3125 128.632812 131.496094 128.566406 131.6875 128.515625 C 131.878906 128.460938 132.070312 128.417969 132.265625 128.386719 C 132.460938 128.359375 132.660156 128.339844 132.855469 128.335938 L 201.359375 126.496094 C 202.027344 126.480469 202.671875 126.601562 203.289062 126.863281 C 203.910156 127.121094 204.445312 127.496094 204.902344 127.984375 Z M 158.238281 191.207031 " fill-opacity="1" fill-rule="evenodd"/><path fill="#e2e9fc" d="M 272.304688 183.1875 C 272.800781 183.191406 273.28125 183.285156 273.738281 183.476562 C 274.199219 183.667969 274.601562 183.9375 274.953125 184.289062 C 275.304688 184.640625 275.578125 185.046875 275.765625 185.503906 C 275.957031 185.964844 276.054688 186.441406 276.054688 186.9375 L 276.054688 190.628906 L 230.613281 190.628906 L 230.613281 183.1875 Z M 272.304688 183.1875 " fill-opacity="1" fill-rule="evenodd"/><path fill="#1d083e" d="M 180.804688 153.253906 C 172.175781 159.566406 175.261719 167.246094 180.914062 170.1875 C 181.53125 170.515625 182.183594 170.757812 182.867188 170.910156 C 183.550781 171.0625 184.242188 171.121094 184.945312 171.085938 C 185.644531 171.050781 186.328125 170.921875 186.992188 170.699219 C 187.65625 170.476562 188.28125 170.167969 188.859375 169.773438 C 192.285156 167.222656 191.015625 162.578125 191.015625 162.515625 C 183.199219 168.929688 177.816406 161.816406 180.5625 153.421875 " fill-opacity="1" fill-rule="evenodd"/><g clip-path="url(#8bde9b1c34)"><path fill="#373954" d="M 266.027344 360.449219 C 366.820312 360.449219 448.640625 363.75 448.640625 367.828125 C 448.640625 371.902344 366.820312 375.214844 266.027344 375.214844 C 165.234375 375.214844 83.410156 371.878906 83.410156 367.828125 C 83.410156 363.773438 165.246094 360.449219 266.027344 360.449219 Z M 266.027344 360.449219 " fill-opacity="1" fill-rule="evenodd"/></g><path fill="#1d083e" d="M 120.566406 365.925781 L 177.101562 196.335938 L 184.988281 199.503906 L 129.503906 365.925781 Z M 120.566406 365.925781 " fill-opacity="1" fill-rule="evenodd"/><path fill="#1d083e" d="M 246.582031 365.925781 L 237.628906 365.925781 L 182.265625 199.867188 L 190.167969 196.699219 Z M 246.582031 365.925781 " fill-opacity="1" fill-rule="evenodd"/><path fill="#1d083e" d="M 259.929688 365.925781 L 316.234375 196.855469 L 324.136719 200.027344 L 268.882812 365.925781 Z M 259.929688 365.925781 " fill-opacity="1" fill-rule="evenodd"/><path fill="#1d083e" d="M 385.488281 365.925781 L 376.546875 365.925781 L 321.414062 200.402344 L 329.300781 197.21875 Z M 385.488281 365.925781 " fill-opacity="1" fill-rule="evenodd"/><path fill="#1d083e" d="M 301.8125 173.28125 C 301.675781 173.289062 301.558594 173.25 301.457031 173.15625 C 301.351562 173.066406 301.296875 172.953125 301.289062 172.816406 C 301.28125 172.679688 301.320312 172.558594 301.414062 172.457031 C 301.503906 172.355469 301.617188 172.300781 301.753906 172.289062 C 303.761719 172 306.824219 171.214844 310.054688 170.367188 C 312.640625 169.691406 315.316406 169 317.832031 168.457031 C 321.460938 167.683594 323.773438 167.320312 326.300781 166.933594 C 329.277344 166.472656 332.664062 165.953125 339.027344 164.574219 C 339.164062 164.550781 339.289062 164.578125 339.402344 164.652344 C 339.515625 164.726562 339.589844 164.828125 339.621094 164.960938 C 339.648438 165.09375 339.621094 165.21875 339.546875 165.332031 C 339.472656 165.445312 339.367188 165.515625 339.234375 165.542969 C 332.847656 166.933594 329.445312 167.453125 326.445312 167.960938 C 324.027344 168.335938 321.605469 168.6875 318.085938 169.460938 C 315.59375 170.003906 312.933594 170.667969 310.355469 171.359375 C 307.089844 172.21875 304.003906 173.015625 301.886719 173.308594 Z M 301.8125 173.28125 " fill-opacity="1" fill-rule="nonzero"/><path fill="#1d083e" d="M 268.277344 149.734375 C 268.191406 149.730469 268.109375 149.707031 268.035156 149.660156 C 267.960938 149.617188 267.898438 149.558594 267.855469 149.484375 C 267.8125 149.410156 267.789062 149.328125 267.785156 149.242188 C 267.785156 149.152344 267.800781 149.070312 267.839844 148.996094 C 269.125 146.574219 270.210938 144.070312 271.109375 141.484375 C 271.578125 140.203125 272.027344 138.992188 272.558594 137.855469 C 272.625 137.746094 272.71875 137.675781 272.839844 137.640625 C 272.957031 137.601562 273.074219 137.609375 273.191406 137.664062 C 273.304688 137.714844 273.386719 137.796875 273.4375 137.914062 C 273.488281 138.027344 273.492188 138.144531 273.453125 138.265625 C 272.945312 139.367188 272.511719 140.5625 272.039062 141.835938 C 271.125 144.46875 270.015625 147.015625 268.710938 149.480469 C 268.617188 149.648438 268.472656 149.734375 268.277344 149.734375 Z M 268.277344 149.734375 " fill-opacity="1" fill-rule="nonzero"/><path fill="#1d083e" d="M 339.015625 147.410156 C 338.789062 147.414062 338.636719 147.308594 338.558594 147.097656 C 337.527344 144.457031 336.898438 143.019531 336.34375 141.75 C 335.628906 140.128906 335.023438 138.726562 333.828125 135.449219 C 333.773438 135.316406 333.773438 135.1875 333.832031 135.058594 C 333.886719 134.929688 333.984375 134.839844 334.117188 134.792969 C 334.25 134.746094 334.378906 134.753906 334.503906 134.8125 C 334.628906 134.875 334.714844 134.976562 334.757812 135.109375 C 335.96875 138.351562 336.546875 139.742188 337.25 141.351562 C 337.808594 142.632812 338.460938 144.082031 339.476562 146.734375 C 339.527344 146.859375 339.523438 146.984375 339.46875 147.109375 C 339.414062 147.234375 339.324219 147.324219 339.199219 147.375 C 339.140625 147.398438 339.078125 147.410156 339.015625 147.410156 Z M 339.015625 147.410156 " fill-opacity="1" fill-rule="nonzero"/><path fill="#1d083e" d="M 213.882812 303.792969 C 213.800781 303.816406 213.71875 303.816406 213.640625 303.792969 L 184.25 288.007812 C 184.125 287.949219 184.035156 287.847656 183.992188 287.714844 C 183.949219 287.578125 183.960938 287.449219 184.027344 287.324219 C 184.097656 287.199219 184.199219 287.117188 184.335938 287.082031 C 184.472656 287.042969 184.601562 287.0625 184.722656 287.136719 L 214.109375 302.921875 C 214.230469 302.988281 214.3125 303.085938 214.351562 303.21875 C 214.390625 303.351562 214.378906 303.476562 214.316406 303.597656 C 214.207031 303.742188 214.0625 303.808594 213.882812 303.792969 Z M 213.882812 303.792969 " fill-opacity="1" fill-rule="nonzero"/><path fill="#1d083e" d="M 302.320312 120.484375 C 300.222656 120.472656 298.339844 119.828125 296.671875 118.550781 L 296.539062 118.453125 C 296.421875 118.378906 296.351562 118.273438 296.320312 118.140625 C 296.292969 118.003906 296.316406 117.878906 296.390625 117.761719 C 296.46875 117.648438 296.574219 117.574219 296.707031 117.546875 C 296.84375 117.519531 296.96875 117.542969 297.082031 117.617188 L 297.265625 117.753906 C 297.804688 118.167969 298.390625 118.511719 299.015625 118.785156 C 299.640625 119.058594 300.289062 119.253906 300.960938 119.371094 C 301.632812 119.484375 302.308594 119.519531 302.988281 119.476562 C 303.667969 119.429688 304.332031 119.300781 304.984375 119.09375 C 308.359375 118.140625 309.144531 117.496094 311.601562 114.65625 C 311.691406 114.554688 311.804688 114.496094 311.941406 114.488281 C 312.078125 114.480469 312.199219 114.519531 312.300781 114.609375 C 312.40625 114.699219 312.460938 114.8125 312.472656 114.949219 C 312.480469 115.085938 312.441406 115.207031 312.351562 115.308594 C 309.8125 118.234375 308.855469 119.023438 305.261719 120.050781 C 304.300781 120.335938 303.324219 120.480469 302.320312 120.484375 Z M 302.320312 120.484375 " fill-opacity="1" fill-rule="nonzero"/><path fill="#1d083e" d="M 338.035156 129.011719 C 337.910156 129.011719 337.796875 128.972656 337.703125 128.886719 C 337.605469 128.800781 337.554688 128.691406 337.539062 128.566406 L 337.382812 126.871094 C 336.921875 122.25 336.839844 121.417969 337.648438 113.386719 C 337.664062 113.25 337.722656 113.136719 337.828125 113.046875 C 337.933594 112.960938 338.058594 112.925781 338.195312 112.9375 C 338.332031 112.949219 338.441406 113.011719 338.527344 113.117188 C 338.613281 113.226562 338.648438 113.347656 338.628906 113.480469 C 337.832031 121.417969 337.914062 122.238281 338.363281 126.789062 L 338.53125 128.480469 C 338.546875 128.617188 338.511719 128.738281 338.421875 128.847656 C 338.335938 128.953125 338.222656 129.011719 338.085938 129.023438 Z M 338.035156 129.011719 " fill-opacity="1" fill-rule="nonzero"/><path fill="#1d083e" d="M 271.265625 121.683594 C 271.035156 121.679688 270.882812 121.570312 270.804688 121.355469 C 270.597656 120.824219 270.441406 120.402344 270.308594 120.039062 C 269.859375 118.742188 269.242188 117.535156 268.457031 116.410156 C 268.363281 116.292969 268.328125 116.160156 268.351562 116.015625 C 268.375 115.867188 268.453125 115.753906 268.578125 115.671875 C 268.707031 115.59375 268.839844 115.578125 268.984375 115.621094 C 269.128906 115.664062 269.230469 115.753906 269.292969 115.890625 C 270.121094 117.085938 270.769531 118.371094 271.242188 119.746094 L 271.722656 121.054688 C 271.753906 121.128906 271.765625 121.210938 271.753906 121.289062 C 271.746094 121.371094 271.71875 121.445312 271.671875 121.515625 C 271.628906 121.582031 271.566406 121.636719 271.496094 121.671875 C 271.421875 121.710938 271.347656 121.730469 271.265625 121.730469 Z M 271.265625 121.683594 " fill-opacity="1" fill-rule="nonzero"/><path fill="#1d083e" d="M 303.738281 190.214844 C 303.617188 190.214844 303.507812 190.175781 303.414062 190.097656 C 303.324219 190.023438 303.265625 189.921875 303.242188 189.804688 C 302.316406 185.316406 301.707031 180.785156 301.414062 176.210938 C 301.355469 175.253906 301.28125 174.226562 301.160156 172.871094 C 301.148438 172.734375 301.191406 172.613281 301.28125 172.507812 C 301.371094 172.40625 301.484375 172.347656 301.621094 172.339844 C 301.753906 172.328125 301.875 172.367188 301.976562 172.453125 C 302.082031 172.539062 302.140625 172.652344 302.152344 172.785156 C 302.273438 174.140625 302.347656 175.207031 302.40625 176.148438 C 302.699219 180.683594 303.304688 185.175781 304.222656 189.625 C 304.246094 189.757812 304.222656 189.882812 304.144531 189.996094 C 304.066406 190.109375 303.957031 190.179688 303.820312 190.203125 Z M 303.738281 190.214844 " fill-opacity="1" fill-rule="nonzero"/></svg>