<svg xmlns="http://www.w3.org/2000/svg" xmlns:xlink="http://www.w3.org/1999/xlink" width="666" zoomAndPan="magnify" viewBox="0 0 499.5 473.999983" height="632" preserveAspectRatio="xMidYMid meet" version="1.0"><defs><clipPath id="db9a0aa144"><path d="M 135.308594 74.828125 L 363.082031 74.828125 L 363.082031 398.503906 L 135.308594 398.503906 Z M 135.308594 74.828125 " clip-rule="nonzero"/></clipPath></defs><path fill="#a3e635" d="M 31.507812 353.277344 C 33.453125 361.941406 38.410156 371.441406 46.621094 381.800781 C 46.8125 382.039062 46.949219 382.300781 47.035156 382.574219 C 47.058594 382.640625 47.101562 382.691406 47.15625 382.722656 L 47.160156 382.738281 C 67.917969 406.535156 102.023438 439.542969 137.664062 455.804688 C 171.550781 471.265625 199.582031 473.035156 222 462.558594 L 222.003906 462.554688 C 229.078125 459.25 236.515625 455.585938 243.277344 449.855469 C 284.734375 414.726562 310.234375 393.785156 320.144531 389.191406 C 320.222656 389.152344 320.277344 389.082031 320.289062 389 L 320.292969 389.015625 C 320.480469 388.753906 320.679688 388.558594 320.816406 388.429688 L 320.859375 388.378906 L 320.859375 388.390625 C 324.734375 384.894531 354.511719 372.800781 408.179688 351.007812 L 413.148438 348.992188 L 440.554688 337.855469 C 456.246094 331.472656 468.511719 323.027344 476.175781 313.269531 C 492.144531 292.929688 497.992188 272.625 493.617188 253.125 C 490.324219 238.457031 481.257812 224.273438 466.425781 210.898438 C 454.773438 200.390625 436.410156 194.691406 413.324219 191.019531 C 412.847656 190.945312 412.421875 190.730469 412.082031 190.421875 L 412.085938 190.441406 C 412.046875 190.359375 411.96875 190.300781 411.875 190.292969 C 407.953125 189.878906 394.972656 189.851562 372.078125 189.84375 L 372.015625 189.84375 C 352.777344 189.839844 326.90625 189.832031 294.425781 189.515625 C 269.304688 189.269531 249.460938 183.058594 234.414062 176.957031 C 219.78125 171.023438 203.847656 162.792969 190.316406 148.273438 L 186.285156 143.945312 L 182.425781 139.800781 C 127.351562 80.691406 98.714844 50.28125 92.671875 48.300781 L 92.675781 48.320312 C 92.628906 48.269531 92.558594 48.238281 92.480469 48.238281 C 91.976562 48.253906 91.480469 48.105469 91.0625 47.824219 C 67.226562 31.636719 47.378906 27.234375 31.761719 34.730469 C 10.777344 44.800781 0.40625 64.273438 0.925781 92.230469 C 1.023438 97.566406 1.5625 102.804688 2.691406 107.84375 C 3.289062 110.507812 4.054688 113.113281 5.003906 115.648438 C 24.308594 167.105469 35.480469 202.40625 39.761719 221.488281 C 40.464844 224.625 40.980469 227.3125 41.320312 229.570312 L 41.324219 229.589844 C 41.324219 229.601562 41.324219 229.613281 41.328125 229.625 C 44.050781 247.980469 38.6875 284.496094 34.644531 311.984375 L 34.578125 312.449219 L 34.574219 312.449219 L 34.5625 312.53125 C 32.285156 328.039062 30.46875 340.464844 30.566406 345.6875 C 30.613281 348.140625 30.921875 350.671875 31.507812 353.277344 Z M 31.507812 353.277344 " fill-opacity="1" fill-rule="nonzero"/><path fill="#000000" d="M 32.234375 328.746094 C 44.144531 356.539062 65.726562 397.09375 93.703125 422.546875 C 120.0625 446.53125 145.046875 456.289062 168.457031 453.300781 C 175.882812 452.351562 183.707031 451.1875 191.519531 447.953125 C 242.09375 426.996094 272.03125 415.171875 280.910156 414.949219 L 279.296875 419.460938 C 278.304688 418.609375 277.769531 416.886719 278.980469 415.480469 L 278.984375 415.480469 C 279.40625 414.988281 279.917969 414.722656 280.191406 414.59375 C 284.75 412.445312 317.3125 410.035156 376.035156 405.589844 L 404.285156 403.445312 C 420.4375 402.214844 434.050781 398.101562 443.847656 391.472656 C 479.726562 367.191406 487.164062 334.011719 464.808594 295.574219 C 457.289062 282.648438 442.261719 272.109375 422.285156 262.015625 C 421.285156 261.511719 420.726562 260.417969 420.90625 259.3125 C 421.085938 258.207031 421.960938 257.34375 423.066406 257.179688 C 424.132812 257.023438 420.8125 257.109375 421.226562 259.90625 C 421.40625 261.140625 422.433594 261.621094 422.050781 261.371094 C 420.378906 260.269531 408.367188 256.382812 385.035156 248.898438 C 367.460938 243.261719 343.890625 235.699219 314.300781 225.894531 C 291.417969 218.316406 275.105469 206.828125 263.148438 196.851562 C 251.523438 187.148438 239.367188 174.960938 231.246094 157.707031 L 228.835938 152.585938 L 226.523438 147.675781 C 193.070312 76.597656 175.867188 40.585938 171.292969 37.941406 C 171.28125 37.9375 171.363281 37.984375 171.511719 38.019531 C 170.953125 37.882812 170.457031 37.5625 170.101562 37.109375 C 153.109375 15.402344 136.375 5.671875 120.070312 7.925781 C 98.105469 10.960938 83.015625 25.601562 75.335938 51.183594 C 73.09375 58.648438 71.859375 66.203125 72.222656 73.65625 C 75.210938 134.945312 74.542969 172.996094 72.03125 188.292969 C 69.125 205.976562 53.371094 238.023438 41.636719 261.9375 C 35 275.464844 29.707031 286.273438 28.277344 291.046875 C 25.375 300.71875 26.566406 313.136719 32.359375 328.523438 C 32.859375 329.851562 32.1875 331.332031 30.859375 331.832031 C 29.53125 332.332031 28.050781 331.660156 27.550781 330.335938 C 21.5625 314.425781 19.996094 300.761719 23.355469 289.570312 C 24.945312 284.269531 30.527344 272.917969 37.023438 259.675781 C 48.957031 235.355469 64.210938 204.191406 66.960938 187.460938 C 69.371094 172.789062 70.082031 135.269531 67.089844 73.90625 C 66.691406 65.722656 68.054688 57.570312 70.414062 49.707031 C 78.523438 22.695312 94.941406 6.210938 119.367188 2.835938 C 138.460938 0.195312 156.8125 11.792969 174.148438 33.941406 L 172.738281 33.03125 C 173.171875 33.136719 173.550781 33.3125 173.863281 33.492188 C 180.289062 37.207031 198.5 76.070312 231.171875 145.488281 L 233.484375 150.394531 L 235.894531 155.519531 C 243.558594 171.804688 255.078125 183.425781 266.441406 192.90625 C 278.097656 202.628906 293.847656 213.707031 315.917969 221.019531 C 345.503906 230.820312 369.011719 238.363281 386.605469 244.007812 C 409.203125 251.253906 422.429688 255.464844 424.878906 257.082031 C 424.875 257.078125 426.101562 257.761719 426.308594 259.15625 C 426.75 262.140625 423.210938 262.351562 423.816406 262.265625 L 424.601562 257.429688 C 444.703125 267.585938 460.925781 278.6875 469.25 292.992188 C 492.925781 333.699219 484.90625 369.886719 446.726562 395.726562 C 435.964844 403.007812 421.402344 407.292969 404.675781 408.566406 L 376.421875 410.710938 C 316.605469 415.242188 285.800781 417.628906 282.386719 419.242188 C 282.316406 419.273438 282.585938 419.167969 282.871094 418.839844 L 282.871094 418.835938 C 283.875 417.675781 283.367188 416.191406 282.652344 415.574219 C 283.457031 416.265625 283.75 417.382812 283.394531 418.382812 C 283.035156 419.382812 282.101562 420.058594 281.039062 420.085938 C 273.414062 420.277344 244.835938 431.421875 193.484375 452.699219 C 184.984375 456.222656 176.558594 457.445312 169.109375 458.398438 C 143.65625 461.648438 117.230469 450.902344 90.246094 426.347656 C 61.4375 400.140625 39.503906 358.757812 27.511719 330.769531 C 26.953125 329.464844 27.558594 327.957031 28.863281 327.398438 C 30.167969 326.839844 31.675781 327.441406 32.234375 328.746094 Z M 32.234375 328.746094 " fill-opacity="1" fill-rule="nonzero"/><g clip-path="url(#db9a0aa144)"><path fill="#000000" d="M 341.925781 110.417969 C 347.382812 175.039062 318.273438 198.105469 297.339844 214.683594 C 287.53125 222.453125 279.734375 228.628906 279.519531 236.667969 C 279.734375 244.707031 287.527344 250.882812 297.339844 258.652344 C 318.273438 275.230469 347.382812 298.292969 341.925781 362.917969 L 354.417969 362.917969 C 356.796875 362.917969 358.96875 363.894531 360.542969 365.46875 L 360.558594 365.484375 C 362.128906 367.058594 363.105469 369.230469 363.105469 371.609375 L 363.105469 389.679688 C 363.105469 392.074219 362.128906 394.25 360.558594 395.820312 L 360.542969 395.820312 C 358.96875 397.394531 356.796875 398.371094 354.417969 398.371094 L 143.984375 398.371094 C 141.589844 398.371094 139.417969 397.394531 137.84375 395.820312 C 136.269531 394.25 135.292969 392.074219 135.292969 389.679688 L 135.292969 371.609375 C 135.292969 369.230469 136.273438 367.058594 137.84375 365.484375 L 137.84375 365.46875 C 139.417969 363.894531 141.589844 362.917969 143.984375 362.917969 L 156.476562 362.917969 C 151.019531 298.292969 180.125 275.230469 201.0625 258.652344 C 210.871094 250.882812 218.667969 244.707031 218.878906 236.667969 C 218.667969 228.628906 210.871094 222.453125 201.0625 214.683594 C 180.125 198.105469 151.019531 175.039062 156.476562 110.417969 L 143.984375 110.417969 C 141.589844 110.417969 139.417969 109.441406 137.84375 107.867188 C 136.269531 106.292969 135.292969 104.121094 135.292969 101.726562 L 135.292969 83.65625 C 135.292969 81.273438 136.273438 79.105469 137.84375 77.53125 L 137.84375 77.515625 C 139.417969 75.941406 141.589844 74.964844 143.984375 74.964844 L 354.417969 74.964844 C 356.796875 74.964844 358.96875 75.941406 360.542969 77.515625 L 360.558594 77.53125 C 362.128906 79.105469 363.105469 81.273438 363.105469 83.65625 L 363.105469 101.726562 C 363.105469 104.121094 362.128906 106.292969 360.558594 107.867188 L 360.542969 107.867188 C 358.96875 109.4375 356.796875 110.417969 354.417969 110.417969 Z M 341.925781 110.417969 " fill-opacity="1" fill-rule="evenodd"/></g><path fill="#b4b4b4" d="M 189.363281 161.925781 Z M 201.121094 179.4375 C 205.421875 184.011719 210.683594 188.21875 216 192.46875 C 227.359375 201.546875 238.949219 210.8125 243.476562 224.570312 C 244.089844 226.441406 244.570312 228.363281 244.902344 230.316406 C 245.226562 232.21875 245.410156 234.191406 245.449219 236.210938 L 245.449219 236.234375 C 245.464844 236.378906 245.472656 236.519531 245.472656 236.667969 C 245.472656 237.695312 245.890625 238.628906 246.5625 239.304688 C 247.238281 239.976562 248.171875 240.394531 249.199219 240.394531 C 250.238281 240.394531 251.171875 239.984375 251.835938 239.316406 L 251.851562 239.300781 C 252.515625 238.640625 252.925781 237.707031 252.925781 236.667969 L 252.945312 236.667969 L 252.945312 236.605469 L 252.949219 236.253906 L 252.949219 236.210938 C 252.992188 234.191406 253.175781 232.21875 253.5 230.316406 C 253.832031 228.363281 254.308594 226.441406 254.925781 224.570312 C 259.453125 210.8125 271.042969 201.550781 282.402344 192.46875 C 287.714844 188.21875 292.980469 184.011719 297.277344 179.4375 C 299.664062 176.902344 301.800781 174.25 303.691406 171.511719 C 305.632812 168.703125 307.332031 165.777344 308.789062 162.78125 C 308.800781 162.75 308.8125 162.753906 308.8125 162.75 C 308.808594 162.734375 308.804688 162.761719 308.789062 162.746094 C 308.773438 162.730469 308.804688 162.726562 308.789062 162.726562 C 308.78125 162.726562 308.789062 162.738281 308.757812 162.753906 C 280.425781 178.355469 260.179688 170.640625 240.773438 163.242188 C 224.460938 157.027344 208.796875 151.054688 189.378906 161.925781 L 189.375 161.917969 L 189.363281 161.929688 L 189.359375 161.953125 C 190.773438 165.054688 192.445312 168.074219 194.390625 170.992188 C 196.335938 173.902344 198.570312 176.726562 201.121094 179.4375 Z M 201.121094 179.4375 " fill-opacity="1" fill-rule="evenodd"/><path fill="#e5e9f7" d="M 185.445312 154.910156 C 208.148438 142.199219 225.535156 148.824219 243.636719 155.722656 C 261.34375 162.472656 279.816406 169.511719 304.890625 155.707031 C 306.425781 154.859375 308.136719 154.554688 309.796875 154.765625 C 311.460938 154.980469 313.050781 155.714844 314.324219 156.929688 C 315.601562 158.140625 316.410156 159.683594 316.707031 161.332031 C 317.003906 162.972656 316.789062 164.695312 316.023438 166.273438 C 314.394531 169.625 312.488281 172.902344 310.300781 176.074219 C 308.171875 179.152344 305.78125 182.125 303.132812 184.945312 C 298.539062 189.828125 293 194.257812 287.402344 198.730469 C 276.992188 207.050781 266.367188 215.542969 262.570312 227.085938 C 262.070312 228.601562 261.6875 230.132812 261.429688 231.671875 C 261.15625 233.257812 261.003906 234.832031 260.972656 236.371094 L 260.972656 236.390625 L 260.96875 236.667969 L 260.984375 236.667969 C 260.984375 239.898438 259.664062 242.84375 257.53125 244.980469 L 257.515625 244.996094 L 257.503906 245.003906 C 255.367188 247.132812 252.429688 248.449219 249.199219 248.449219 C 245.949219 248.449219 243 247.128906 240.871094 244.996094 C 238.738281 242.867188 237.417969 239.917969 237.417969 236.667969 L 237.429688 236.386719 L 237.429688 236.371094 C 237.398438 234.832031 237.246094 233.257812 236.972656 231.671875 C 236.710938 230.132812 236.328125 228.601562 235.832031 227.085938 C 232.03125 215.546875 221.410156 207.050781 210.996094 198.726562 C 205.402344 194.257812 199.859375 189.824219 195.269531 184.945312 C 192.425781 181.921875 189.917969 178.75 187.722656 175.460938 C 185.53125 172.179688 183.652344 168.78125 182.058594 165.289062 C 181.183594 163.375 181.113281 161.292969 181.71875 159.441406 C 182.328125 157.585938 183.613281 155.945312 185.449219 154.917969 Z M 271.496094 236.589844 C 271.734375 224.734375 280.867188 217.5 292.371094 208.390625 C 311.941406 192.890625 339.179688 171.308594 333.863281 110.417969 L 164.535156 110.417969 C 159.21875 171.308594 186.460938 192.890625 206.03125 208.390625 C 217.535156 217.5 226.667969 224.734375 226.90625 236.589844 L 226.90625 236.746094 C 226.667969 248.601562 217.535156 255.835938 206.03125 264.945312 C 186.457031 280.445312 159.21875 302.027344 164.535156 362.917969 L 333.863281 362.917969 C 339.183594 302.027344 311.941406 280.445312 292.371094 264.945312 C 280.867188 255.835938 271.734375 248.601562 271.496094 236.746094 Z M 249.082031 253.015625 C 252.195312 253.015625 254.714844 255.535156 254.714844 258.648438 C 254.714844 261.761719 252.195312 264.28125 249.082031 264.28125 C 245.96875 264.28125 243.449219 261.761719 243.449219 258.648438 C 243.449219 255.535156 245.96875 253.015625 249.082031 253.015625 Z M 249.082031 271.726562 C 252.195312 271.726562 254.714844 274.25 254.714844 277.363281 C 254.714844 280.472656 252.195312 282.996094 249.082031 282.996094 C 245.96875 282.996094 243.449219 280.472656 243.449219 277.363281 C 243.449219 274.25 245.96875 271.726562 249.082031 271.726562 Z M 298.175781 304.117188 C 311.613281 314.113281 320.863281 328.164062 323.371094 344.082031 C 323.558594 345.265625 323.445312 346.410156 323.035156 347.492188 L 323.03125 347.492188 C 322.636719 348.527344 322.011719 349.453125 321.15625 350.242188 L 321.148438 350.230469 C 320.347656 350.972656 319.441406 351.53125 318.457031 351.890625 C 317.492188 352.246094 316.464844 352.425781 315.402344 352.425781 L 182.996094 352.425781 C 181.933594 352.425781 180.90625 352.246094 179.945312 351.890625 C 178.960938 351.53125 178.054688 350.972656 177.253906 350.230469 L 177.246094 350.242188 C 176.390625 349.453125 175.761719 348.527344 175.371094 347.492188 L 175.367188 347.492188 C 174.957031 346.410156 174.84375 345.265625 175.027344 344.082031 C 177.535156 328.164062 186.789062 314.113281 200.226562 304.117188 C 213.351562 294.355469 230.488281 288.4375 249.199219 288.4375 C 267.914062 288.4375 285.050781 294.355469 298.175781 304.117188 Z M 298.175781 304.117188 " fill-opacity="1" fill-rule="evenodd"/><path fill="#38b6ff" d="M 143.984375 102.359375 L 354.417969 102.359375 C 354.59375 102.359375 354.757812 102.292969 354.871094 102.179688 L 354.863281 102.171875 C 354.980469 102.058594 355.050781 101.894531 355.050781 101.726562 L 355.050781 83.65625 C 355.050781 83.476562 354.980469 83.316406 354.871094 83.199219 C 354.757812 83.089844 354.59375 83.019531 354.417969 83.019531 L 143.984375 83.019531 C 143.816406 83.019531 143.652344 83.09375 143.539062 83.207031 L 143.53125 83.199219 C 143.417969 83.316406 143.351562 83.476562 143.351562 83.65625 L 143.351562 101.726562 C 143.351562 101.894531 143.421875 102.058594 143.539062 102.171875 C 143.652344 102.289062 143.816406 102.359375 143.984375 102.359375 Z M 143.984375 102.359375 " fill-opacity="1" fill-rule="evenodd"/><path fill="#b4b4b4" d="M 293.394531 310.566406 C 281.613281 301.804688 266.152344 296.492188 249.199219 296.492188 C 232.246094 296.492188 216.789062 301.804688 205.007812 310.566406 C 193.488281 319.136719 185.492188 330.996094 183.113281 344.371094 L 315.285156 344.371094 C 312.90625 330.996094 304.910156 319.136719 293.394531 310.566406 Z M 293.394531 310.566406 " fill-opacity="1" fill-rule="evenodd"/><path fill="#38b6ff" d="M 341.125 370.972656 L 143.984375 370.972656 C 143.816406 370.972656 143.652344 371.046875 143.539062 371.164062 L 143.53125 371.15625 C 143.417969 371.269531 143.351562 371.433594 143.351562 371.609375 L 143.351562 389.679688 C 143.351562 389.851562 143.421875 390.011719 143.539062 390.128906 C 143.652344 390.242188 143.816406 390.316406 143.984375 390.316406 L 354.417969 390.316406 C 354.59375 390.316406 354.757812 390.246094 354.871094 390.136719 L 354.863281 390.128906 C 354.980469 390.011719 355.050781 389.851562 355.050781 389.679688 L 355.050781 371.609375 C 355.050781 371.433594 354.980469 371.269531 354.871094 371.15625 C 354.757812 371.042969 354.59375 370.972656 354.417969 370.972656 Z M 341.125 370.972656 " fill-opacity="1" fill-rule="evenodd"/></svg>