<svg xmlns="http://www.w3.org/2000/svg" xmlns:xlink="http://www.w3.org/1999/xlink" width="691" zoomAndPan="magnify" viewBox="0 0 518.25 545.250001" height="727" preserveAspectRatio="xMidYMid meet" version="1.0"><defs><clipPath id="aeb6d37c8f"><path d="M 374 349 L 381 349 L 381 543.734375 L 374 543.734375 Z M 374 349 " clip-rule="nonzero"/></clipPath><clipPath id="5ba6ab90e3"><path d="M 391 349 L 398 349 L 398 543.734375 L 391 543.734375 Z M 391 349 " clip-rule="nonzero"/></clipPath><clipPath id="8e2af553c1"><path d="M 408 349 L 415 349 L 415 543.734375 L 408 543.734375 Z M 408 349 " clip-rule="nonzero"/></clipPath><clipPath id="59f531218f"><path d="M 425 349 L 432 349 L 432 543.734375 L 425 543.734375 Z M 425 349 " clip-rule="nonzero"/></clipPath><clipPath id="e88e8cf82f"><path d="M 442 349 L 449 349 L 449 543.734375 L 442 543.734375 Z M 442 349 " clip-rule="nonzero"/></clipPath><clipPath id="8b37a05928"><path d="M 459 349 L 466 349 L 466 543.734375 L 459 543.734375 Z M 459 349 " clip-rule="nonzero"/></clipPath><clipPath id="5b76986ae2"><path d="M 476 349 L 483 349 L 483 543.734375 L 476 543.734375 Z M 476 349 " clip-rule="nonzero"/></clipPath><clipPath id="a73add9420"><path d="M 493 349 L 500 349 L 500 543.734375 L 493 543.734375 Z M 493 349 " clip-rule="nonzero"/></clipPath><clipPath id="b099ded5b9"><path d="M 510 349 L 516.753906 349 L 516.753906 543.734375 L 510 543.734375 Z M 510 349 " clip-rule="nonzero"/></clipPath><clipPath id="9396732926"><path d="M 65 0.0195312 L 105 0.0195312 L 105 39 L 65 39 Z M 65 0.0195312 " clip-rule="nonzero"/></clipPath><clipPath id="5f0410c5b3"><path d="M 110 0.0195312 L 150 0.0195312 L 150 39 L 110 39 Z M 110 0.0195312 " clip-rule="nonzero"/></clipPath><clipPath id="989db7ded7"><path d="M 156 0.0195312 L 196 0.0195312 L 196 39 L 156 39 Z M 156 0.0195312 " clip-rule="nonzero"/></clipPath><clipPath id="cd27aa1e48"><path d="M 225 0.0195312 L 293 0.0195312 L 293 47 L 225 47 Z M 225 0.0195312 " clip-rule="nonzero"/></clipPath><clipPath id="b4ef6a0a93"><path d="M 261 489 L 328 489 L 328 515.273438 L 261 515.273438 Z M 261 489 " clip-rule="nonzero"/></clipPath><clipPath id="1a6fc1db5d"><path d="M 178 489 L 223 489 L 223 515.273438 L 178 515.273438 Z M 178 489 " clip-rule="nonzero"/></clipPath><clipPath id="c162de84f2"><path d="M 145.03125 160 L 211 160 L 211 229 L 145.03125 229 Z M 145.03125 160 " clip-rule="nonzero"/></clipPath><clipPath id="d114bc0179"><path d="M 373 44 L 447.59375 44 L 447.59375 141 L 373 141 Z M 373 44 " clip-rule="nonzero"/></clipPath></defs><path fill="#a3e635" d="M 65.648438 66.9375 L 445.496094 66.9375 L 445.496094 446.785156 L 65.648438 446.785156 Z M 65.648438 66.9375 " fill-opacity="1" fill-rule="evenodd"/><g clip-path="url(#aeb6d37c8f)"><path fill="#332c2b" d="M 374.0625 349.507812 L 380.324219 349.507812 L 380.324219 544.0625 L 374.0625 544.0625 Z M 374.0625 349.507812 " fill-opacity="1" fill-rule="nonzero"/></g><g clip-path="url(#5ba6ab90e3)"><path fill="#332c2b" d="M 391.140625 349.507812 L 397.398438 349.507812 L 397.398438 544.0625 L 391.140625 544.0625 Z M 391.140625 349.507812 " fill-opacity="1" fill-rule="nonzero"/></g><g clip-path="url(#8e2af553c1)"><path fill="#332c2b" d="M 408.214844 349.507812 L 414.476562 349.507812 L 414.476562 544.0625 L 408.214844 544.0625 Z M 408.214844 349.507812 " fill-opacity="1" fill-rule="nonzero"/></g><g clip-path="url(#59f531218f)"><path fill="#332c2b" d="M 425.292969 349.507812 L 431.550781 349.507812 L 431.550781 544.0625 L 425.292969 544.0625 Z M 425.292969 349.507812 " fill-opacity="1" fill-rule="nonzero"/></g><g clip-path="url(#e88e8cf82f)"><path fill="#332c2b" d="M 442.367188 349.507812 L 448.628906 349.507812 L 448.628906 544.0625 L 442.367188 544.0625 Z M 442.367188 349.507812 " fill-opacity="1" fill-rule="nonzero"/></g><g clip-path="url(#8b37a05928)"><path fill="#332c2b" d="M 459.445312 349.507812 L 465.703125 349.507812 L 465.703125 544.0625 L 459.445312 544.0625 Z M 459.445312 349.507812 " fill-opacity="1" fill-rule="nonzero"/></g><g clip-path="url(#5b76986ae2)"><path fill="#332c2b" d="M 476.519531 349.507812 L 482.78125 349.507812 L 482.78125 544.0625 L 476.519531 544.0625 Z M 476.519531 349.507812 " fill-opacity="1" fill-rule="nonzero"/></g><g clip-path="url(#a73add9420)"><path fill="#332c2b" d="M 493.597656 349.507812 L 499.855469 349.507812 L 499.855469 544.0625 L 493.597656 544.0625 Z M 493.597656 349.507812 " fill-opacity="1" fill-rule="nonzero"/></g><g clip-path="url(#b099ded5b9)"><path fill="#332c2b" d="M 510.671875 349.507812 L 516.933594 349.507812 L 516.933594 544.0625 L 510.671875 544.0625 Z M 510.671875 349.507812 " fill-opacity="1" fill-rule="nonzero"/></g><path fill="#332c2b" d="M 3.125 381.132812 L 131.304688 381.132812 L 131.304688 512.4375 L -0.00390625 512.4375 L -0.00390625 381.132812 Z M 125.042969 387.390625 L 6.257812 387.390625 L 6.257812 506.179688 L 125.042969 506.179688 Z M 125.042969 387.390625 " fill-opacity="1" fill-rule="nonzero"/><path fill="#332c2b" d="M 255.574219 1.285156 L 511.148438 1.285156 L 511.148438 259.992188 L 252.441406 259.992188 L 252.441406 1.285156 Z M 504.890625 7.542969 L 258.703125 7.542969 L 258.703125 253.730469 L 504.890625 253.730469 Z M 504.890625 7.542969 " fill-opacity="1" fill-rule="nonzero"/><path fill="#000000" d="M 107.035156 28.242188 C 107.035156 28.859375 107.003906 29.480469 106.945312 30.097656 C 106.882812 30.714844 106.792969 31.324219 106.671875 31.933594 C 106.550781 32.542969 106.398438 33.144531 106.21875 33.734375 C 106.039062 34.328125 105.832031 34.914062 105.59375 35.484375 C 105.355469 36.058594 105.09375 36.617188 104.800781 37.164062 C 104.507812 37.710938 104.1875 38.242188 103.84375 38.757812 C 103.5 39.273438 103.132812 39.773438 102.738281 40.25 C 102.34375 40.730469 101.929688 41.1875 101.492188 41.628906 C 101.050781 42.066406 100.59375 42.480469 100.113281 42.875 C 99.632812 43.269531 99.136719 43.636719 98.621094 43.980469 C 98.105469 44.328125 97.574219 44.644531 97.027344 44.9375 C 96.480469 45.230469 95.921875 45.492188 95.347656 45.730469 C 94.773438 45.96875 94.191406 46.175781 93.597656 46.355469 C 93.003906 46.539062 92.40625 46.6875 91.796875 46.808594 C 91.1875 46.929688 90.574219 47.019531 89.960938 47.082031 C 89.34375 47.140625 88.722656 47.171875 88.101562 47.171875 C 87.484375 47.171875 86.863281 47.140625 86.246094 47.082031 C 85.628906 47.019531 85.019531 46.929688 84.410156 46.808594 C 83.800781 46.6875 83.199219 46.539062 82.609375 46.359375 C 82.015625 46.175781 81.429688 45.96875 80.859375 45.730469 C 80.285156 45.492188 79.726562 45.230469 79.179688 44.9375 C 78.632812 44.644531 78.101562 44.328125 77.585938 43.980469 C 77.070312 43.636719 76.574219 43.269531 76.09375 42.875 C 75.613281 42.480469 75.15625 42.066406 74.714844 41.628906 C 74.277344 41.1875 73.863281 40.730469 73.46875 40.25 C 73.074219 39.773438 72.707031 39.273438 72.363281 38.757812 C 72.015625 38.242188 71.699219 37.710938 71.40625 37.164062 C 71.113281 36.617188 70.847656 36.058594 70.613281 35.484375 C 70.375 34.914062 70.167969 34.328125 69.988281 33.734375 C 69.804688 33.144531 69.65625 32.542969 69.535156 31.933594 C 69.414062 31.324219 69.324219 30.714844 69.261719 30.097656 C 69.203125 29.480469 69.171875 28.859375 69.171875 28.242188 C 69.171875 27.621094 69.203125 27 69.261719 26.386719 C 69.324219 25.769531 69.414062 25.15625 69.535156 24.546875 C 69.65625 23.9375 69.804688 23.339844 69.988281 22.746094 C 70.167969 22.152344 70.375 21.566406 70.613281 20.996094 C 70.847656 20.421875 71.113281 19.863281 71.40625 19.316406 C 71.699219 18.769531 72.015625 18.238281 72.363281 17.722656 C 72.707031 17.207031 73.074219 16.710938 73.46875 16.230469 C 73.863281 15.75 74.277344 15.292969 74.714844 14.851562 C 75.15625 14.414062 75.613281 14 76.09375 13.605469 C 76.570312 13.210938 77.070312 12.84375 77.585938 12.5 C 78.101562 12.15625 78.632812 11.835938 79.179688 11.542969 C 79.726562 11.25 80.285156 10.988281 80.859375 10.75 C 81.429688 10.511719 82.015625 10.304688 82.609375 10.125 C 83.199219 9.945312 83.800781 9.792969 84.410156 9.671875 C 85.019531 9.550781 85.628906 9.460938 86.246094 9.398438 C 86.863281 9.339844 87.484375 9.308594 88.101562 9.308594 C 88.722656 9.308594 89.34375 9.339844 89.960938 9.398438 C 90.574219 9.460938 91.1875 9.550781 91.796875 9.671875 C 92.40625 9.792969 93.003906 9.945312 93.597656 10.125 C 94.191406 10.304688 94.773438 10.511719 95.347656 10.75 C 95.921875 10.988281 96.480469 11.25 97.027344 11.542969 C 97.574219 11.835938 98.105469 12.15625 98.621094 12.5 C 99.136719 12.84375 99.632812 13.210938 100.113281 13.605469 C 100.59375 14 101.050781 14.414062 101.492188 14.851562 C 101.929688 15.292969 102.34375 15.75 102.738281 16.230469 C 103.132812 16.710938 103.5 17.207031 103.84375 17.722656 C 104.1875 18.238281 104.507812 18.769531 104.800781 19.316406 C 105.09375 19.863281 105.355469 20.421875 105.59375 20.996094 C 105.832031 21.566406 106.039062 22.152344 106.21875 22.746094 C 106.398438 23.339844 106.550781 23.9375 106.671875 24.546875 C 106.792969 25.15625 106.882812 25.769531 106.945312 26.386719 C 107.003906 27 107.035156 27.621094 107.035156 28.242188 Z M 107.035156 28.242188 " fill-opacity="1" fill-rule="nonzero"/><path fill="#000000" d="M 152.335938 28.242188 C 152.335938 28.859375 152.304688 29.480469 152.246094 30.097656 C 152.183594 30.714844 152.09375 31.324219 151.972656 31.933594 C 151.851562 32.542969 151.699219 33.144531 151.519531 33.734375 C 151.339844 34.328125 151.132812 34.914062 150.894531 35.484375 C 150.65625 36.058594 150.390625 36.617188 150.101562 37.164062 C 149.808594 37.710938 149.488281 38.242188 149.144531 38.757812 C 148.800781 39.273438 148.429688 39.773438 148.039062 40.25 C 147.644531 40.730469 147.230469 41.1875 146.789062 41.628906 C 146.351562 42.066406 145.894531 42.480469 145.414062 42.875 C 144.933594 43.269531 144.4375 43.636719 143.921875 43.980469 C 143.40625 44.328125 142.875 44.644531 142.328125 44.9375 C 141.78125 45.230469 141.222656 45.492188 140.648438 45.730469 C 140.074219 45.96875 139.492188 46.175781 138.898438 46.355469 C 138.304688 46.539062 137.707031 46.6875 137.097656 46.808594 C 136.488281 46.929688 135.875 47.019531 135.257812 47.082031 C 134.640625 47.140625 134.023438 47.171875 133.402344 47.171875 C 132.785156 47.171875 132.164062 47.140625 131.546875 47.082031 C 130.929688 47.019531 130.316406 46.929688 129.710938 46.808594 C 129.101562 46.6875 128.5 46.539062 127.90625 46.359375 C 127.316406 46.175781 126.730469 45.96875 126.160156 45.730469 C 125.585938 45.492188 125.027344 45.230469 124.480469 44.9375 C 123.933594 44.644531 123.402344 44.328125 122.886719 43.980469 C 122.371094 43.636719 121.871094 43.269531 121.394531 42.875 C 120.914062 42.480469 120.453125 42.066406 120.015625 41.628906 C 119.578125 41.1875 119.164062 40.730469 118.769531 40.25 C 118.375 39.773438 118.007812 39.273438 117.660156 38.757812 C 117.316406 38.242188 117 37.710938 116.707031 37.164062 C 116.414062 36.617188 116.148438 36.058594 115.914062 35.484375 C 115.675781 34.914062 115.464844 34.328125 115.285156 33.734375 C 115.105469 33.144531 114.957031 32.542969 114.835938 31.933594 C 114.714844 31.324219 114.625 30.714844 114.5625 30.097656 C 114.5 29.480469 114.472656 28.859375 114.472656 28.242188 C 114.472656 27.621094 114.5 27 114.5625 26.386719 C 114.625 25.769531 114.714844 25.15625 114.835938 24.546875 C 114.957031 23.9375 115.105469 23.339844 115.285156 22.746094 C 115.464844 22.152344 115.675781 21.566406 115.914062 20.996094 C 116.148438 20.421875 116.414062 19.863281 116.707031 19.316406 C 117 18.769531 117.316406 18.238281 117.660156 17.722656 C 118.007812 17.207031 118.375 16.710938 118.769531 16.230469 C 119.164062 15.75 119.578125 15.292969 120.015625 14.851562 C 120.453125 14.414062 120.914062 14 121.394531 13.605469 C 121.871094 13.210938 122.371094 12.84375 122.886719 12.5 C 123.402344 12.15625 123.933594 11.835938 124.480469 11.542969 C 125.027344 11.25 125.585938 10.988281 126.160156 10.75 C 126.730469 10.511719 127.316406 10.304688 127.90625 10.125 C 128.5 9.945312 129.101562 9.792969 129.710938 9.671875 C 130.316406 9.550781 130.929688 9.460938 131.546875 9.398438 C 132.164062 9.339844 132.785156 9.308594 133.402344 9.308594 C 134.023438 9.308594 134.640625 9.339844 135.257812 9.398438 C 135.875 9.460938 136.488281 9.550781 137.097656 9.671875 C 137.707031 9.792969 138.304688 9.945312 138.898438 10.125 C 139.492188 10.304688 140.074219 10.511719 140.648438 10.75 C 141.222656 10.988281 141.78125 11.25 142.328125 11.542969 C 142.875 11.835938 143.40625 12.15625 143.921875 12.5 C 144.4375 12.84375 144.933594 13.210938 145.414062 13.605469 C 145.894531 14 146.351562 14.414062 146.789062 14.851562 C 147.230469 15.292969 147.644531 15.75 148.039062 16.230469 C 148.429688 16.710938 148.800781 17.207031 149.144531 17.722656 C 149.488281 18.238281 149.808594 18.769531 150.101562 19.316406 C 150.390625 19.863281 150.65625 20.421875 150.894531 20.996094 C 151.132812 21.566406 151.339844 22.152344 151.519531 22.746094 C 151.699219 23.339844 151.851562 23.9375 151.972656 24.546875 C 152.09375 25.15625 152.183594 25.769531 152.246094 26.386719 C 152.304688 27 152.335938 27.621094 152.335938 28.242188 Z M 152.335938 28.242188 " fill-opacity="1" fill-rule="nonzero"/><path fill="#000000" d="M 197.976562 28.242188 C 197.976562 28.859375 197.945312 29.480469 197.882812 30.097656 C 197.824219 30.714844 197.730469 31.324219 197.609375 31.933594 C 197.488281 32.542969 197.339844 33.144531 197.160156 33.734375 C 196.980469 34.328125 196.769531 34.914062 196.535156 35.484375 C 196.296875 36.058594 196.03125 36.617188 195.738281 37.164062 C 195.445312 37.710938 195.128906 38.242188 194.785156 38.757812 C 194.441406 39.273438 194.070312 39.773438 193.675781 40.25 C 193.285156 40.730469 192.867188 41.1875 192.429688 41.628906 C 191.992188 42.066406 191.53125 42.480469 191.054688 42.875 C 190.574219 43.269531 190.078125 43.636719 189.5625 43.980469 C 189.046875 44.328125 188.515625 44.644531 187.96875 44.9375 C 187.421875 45.230469 186.859375 45.492188 186.289062 45.730469 C 185.714844 45.96875 185.132812 46.175781 184.539062 46.355469 C 183.945312 46.539062 183.34375 46.6875 182.734375 46.808594 C 182.128906 46.929688 181.515625 47.019531 180.898438 47.082031 C 180.28125 47.140625 179.664062 47.171875 179.042969 47.171875 C 178.421875 47.171875 177.804688 47.140625 177.1875 47.082031 C 176.570312 47.019531 175.957031 46.929688 175.347656 46.808594 C 174.742188 46.6875 174.140625 46.539062 173.546875 46.359375 C 172.953125 46.175781 172.371094 45.96875 171.796875 45.730469 C 171.226562 45.492188 170.664062 45.230469 170.117188 44.9375 C 169.570312 44.644531 169.039062 44.328125 168.523438 43.980469 C 168.007812 43.636719 167.511719 43.269531 167.03125 42.875 C 166.554688 42.480469 166.09375 42.066406 165.65625 41.628906 C 165.21875 41.1875 164.800781 40.730469 164.40625 40.25 C 164.015625 39.773438 163.644531 39.273438 163.300781 38.757812 C 162.957031 38.242188 162.636719 37.710938 162.347656 37.164062 C 162.054688 36.617188 161.789062 36.058594 161.550781 35.484375 C 161.316406 34.914062 161.105469 34.328125 160.925781 33.734375 C 160.746094 33.144531 160.59375 32.542969 160.472656 31.933594 C 160.355469 31.324219 160.261719 30.714844 160.203125 30.097656 C 160.140625 29.480469 160.109375 28.859375 160.109375 28.242188 C 160.109375 27.621094 160.140625 27 160.203125 26.386719 C 160.261719 25.769531 160.351562 25.15625 160.472656 24.546875 C 160.59375 23.9375 160.746094 23.339844 160.925781 22.746094 C 161.105469 22.152344 161.316406 21.566406 161.550781 20.996094 C 161.789062 20.421875 162.054688 19.863281 162.347656 19.316406 C 162.636719 18.769531 162.957031 18.238281 163.300781 17.722656 C 163.644531 17.207031 164.015625 16.710938 164.40625 16.230469 C 164.800781 15.75 165.21875 15.292969 165.65625 14.851562 C 166.09375 14.414062 166.554688 14 167.03125 13.605469 C 167.511719 13.210938 168.007812 12.84375 168.523438 12.5 C 169.039062 12.15625 169.570312 11.835938 170.117188 11.542969 C 170.664062 11.25 171.226562 10.988281 171.796875 10.75 C 172.371094 10.511719 172.953125 10.304688 173.546875 10.125 C 174.140625 9.945312 174.742188 9.792969 175.347656 9.671875 C 175.957031 9.550781 176.570312 9.460938 177.1875 9.398438 C 177.804688 9.339844 178.421875 9.308594 179.042969 9.308594 C 179.664062 9.308594 180.28125 9.339844 180.898438 9.398438 C 181.515625 9.460938 182.128906 9.550781 182.734375 9.671875 C 183.34375 9.792969 183.945312 9.945312 184.539062 10.125 C 185.132812 10.304688 185.714844 10.511719 186.289062 10.75 C 186.859375 10.988281 187.421875 11.25 187.96875 11.542969 C 188.515625 11.835938 189.046875 12.15625 189.5625 12.5 C 190.078125 12.84375 190.574219 13.210938 191.054688 13.605469 C 191.53125 14 191.992188 14.414062 192.429688 14.851562 C 192.867188 15.292969 193.285156 15.75 193.675781 16.230469 C 194.070312 16.710938 194.441406 17.207031 194.785156 17.722656 C 195.128906 18.238281 195.445312 18.769531 195.738281 19.316406 C 196.03125 19.863281 196.296875 20.421875 196.535156 20.996094 C 196.769531 21.566406 196.980469 22.152344 197.160156 22.746094 C 197.339844 23.339844 197.488281 23.9375 197.609375 24.546875 C 197.730469 25.15625 197.824219 25.769531 197.882812 26.386719 C 197.945312 27 197.976562 27.621094 197.976562 28.242188 Z M 197.976562 28.242188 " fill-opacity="1" fill-rule="nonzero"/><g clip-path="url(#9396732926)"><path fill="#000000" d="M 85.0625 0.0390625 C 90.421875 0.0390625 95.273438 2.214844 98.785156 5.726562 C 102.296875 9.238281 104.472656 14.089844 104.472656 19.453125 C 104.472656 24.8125 102.296875 29.664062 98.785156 33.175781 C 95.273438 36.6875 90.421875 38.863281 85.0625 38.863281 C 79.699219 38.863281 74.847656 36.6875 71.335938 33.175781 C 67.824219 29.664062 65.648438 24.8125 65.648438 19.453125 C 65.648438 14.089844 67.824219 9.238281 71.335938 5.726562 C 74.847656 2.214844 79.699219 0.0390625 85.0625 0.0390625 Z M 98.109375 6.402344 C 94.769531 3.0625 90.15625 1 85.0625 1 C 79.964844 1 75.351562 3.0625 72.011719 6.402344 C 68.671875 9.742188 66.609375 14.355469 66.609375 19.453125 C 66.609375 24.546875 68.671875 29.160156 72.011719 32.5 C 75.351562 35.839844 79.964844 37.902344 85.0625 37.902344 C 90.15625 37.902344 94.769531 35.839844 98.109375 32.5 C 101.449219 29.160156 103.511719 24.546875 103.511719 19.453125 C 103.511719 14.355469 101.449219 9.742188 98.109375 6.402344 Z M 98.109375 6.402344 " fill-opacity="1" fill-rule="nonzero"/></g><g clip-path="url(#5f0410c5b3)"><path fill="#000000" d="M 130.363281 0.0390625 C 135.722656 0.0390625 140.574219 2.214844 144.085938 5.726562 C 147.601562 9.238281 149.773438 14.089844 149.773438 19.453125 C 149.773438 24.8125 147.601562 29.664062 144.085938 33.175781 C 140.574219 36.6875 135.722656 38.863281 130.363281 38.863281 C 125 38.863281 120.148438 36.6875 116.636719 33.175781 C 113.125 29.664062 110.949219 24.8125 110.949219 19.453125 C 110.949219 14.089844 113.125 9.238281 116.636719 5.726562 C 120.148438 2.214844 125 0.0390625 130.363281 0.0390625 Z M 143.410156 6.402344 C 140.070312 3.0625 135.457031 1 130.363281 1 C 125.265625 1 120.652344 3.0625 117.3125 6.402344 C 113.976562 9.742188 111.910156 14.355469 111.910156 19.453125 C 111.910156 24.546875 113.976562 29.160156 117.3125 32.5 C 120.652344 35.839844 125.265625 37.902344 130.363281 37.902344 C 135.457031 37.902344 140.070312 35.839844 143.410156 32.5 C 146.75 29.160156 148.8125 24.546875 148.8125 19.453125 C 148.8125 14.355469 146.75 9.742188 143.410156 6.402344 Z M 143.410156 6.402344 " fill-opacity="1" fill-rule="nonzero"/></g><g clip-path="url(#989db7ded7)"><path fill="#000000" d="M 176 0.0390625 C 181.359375 0.0390625 186.214844 2.214844 189.726562 5.726562 C 193.238281 9.238281 195.410156 14.089844 195.410156 19.453125 C 195.410156 24.8125 193.238281 29.664062 189.726562 33.175781 C 186.214844 36.6875 181.359375 38.863281 176 38.863281 C 170.640625 38.863281 165.789062 36.6875 162.273438 33.175781 C 158.761719 29.664062 156.589844 24.8125 156.589844 19.453125 C 156.589844 14.089844 158.761719 9.238281 162.273438 5.726562 C 165.789062 2.214844 170.640625 0.0390625 176 0.0390625 Z M 189.050781 6.402344 C 185.710938 3.0625 181.097656 1 176 1 C 170.90625 1 166.292969 3.0625 162.953125 6.402344 C 159.613281 9.742188 157.546875 14.355469 157.546875 19.453125 C 157.546875 24.546875 159.613281 29.160156 162.953125 32.5 C 166.292969 35.839844 170.90625 37.902344 176 37.902344 C 181.097656 37.902344 185.710938 35.839844 189.050781 32.5 C 192.386719 29.160156 194.453125 24.546875 194.453125 19.453125 C 194.453125 14.355469 192.386719 9.742188 189.050781 6.402344 Z M 189.050781 6.402344 " fill-opacity="1" fill-rule="nonzero"/></g><g clip-path="url(#cd27aa1e48)"><path fill="#000000" d="M 225.53125 25.617188 C 226.972656 15.457031 234.441406 6.386719 244.144531 3.011719 C 246.5 2.238281 248.898438 1.652344 251.34375 1.25 C 259.050781 -0.160156 267.308594 -0.964844 274.460938 2.226562 C 280.875 5.085938 285.582031 10.859375 288.773438 17.105469 C 291.375 22.203125 293.144531 27.953125 292.332031 33.613281 C 291.515625 39.277344 287.636719 44.746094 282.082031 46.140625 C 280.109375 46.636719 278.042969 46.613281 276.011719 46.488281 C 270.886719 46.167969 265.875 45.238281 260.976562 43.691406 " fill-opacity="1" fill-rule="nonzero"/></g><path fill="#000000" d="M 239.367188 79.871094 C 225.53125 73.5625 214.6875 49.785156 218.660156 30.289062 C 219.789062 24.753906 224.195312 20.210938 229.285156 18.242188 C 231.570312 17.355469 234.132812 16.992188 236.445312 17.792969 C 238.367188 18.460938 239.96875 19.871094 241.398438 21.367188 C 242.628906 22.628906 243.726562 23.996094 244.695312 25.46875 C 249.214844 32.449219 249.515625 41.402344 249.664062 49.824219 C 249.703125 52.109375 249.742188 54.417969 249.328125 56.667969 C 248.945312 58.734375 248.1875 60.707031 247.378906 62.636719 C 245.527344 67.054688 243.390625 71.328125 240.964844 75.457031 " fill-opacity="1" fill-rule="nonzero"/><path fill="#ea9071" d="M 356.019531 143.480469 L 365.554688 136.921875 C 365.554688 136.921875 368.769531 130.90625 371.546875 128.5 C 382.195312 119.285156 384.28125 124.292969 385.242188 124.445312 C 387.664062 124.832031 389.8125 122.375 393.742188 124.4375 C 398.144531 126.75 399.328125 133.351562 396.15625 139.597656 C 392.980469 145.84375 388.6875 148.394531 388.6875 148.394531 L 363.835938 160.578125 Z M 356.019531 143.480469 " fill-opacity="1" fill-rule="nonzero"/><path fill="#f0f0f0" d="M 264.074219 96.960938 L 300.082031 104.867188 L 343.945312 180.980469 L 304.867188 187.492188 L 274.949219 135.738281 Z M 264.074219 96.960938 " fill-opacity="1" fill-rule="nonzero"/><path fill="#f0f0f0" d="M 231.824219 96.960938 L 195.816406 104.867188 L 154.515625 160.855469 L 174.042969 191.371094 L 222.019531 138.375 Z M 231.824219 96.960938 " fill-opacity="1" fill-rule="nonzero"/><g clip-path="url(#b4ef6a0a93)"><path fill="#000000" d="M 263.550781 489.75 L 261.964844 515.25 L 326.4375 515.25 C 326.4375 515.25 328.597656 508.664062 324.675781 506.457031 C 318.734375 503.113281 289.621094 489.75 289.621094 489.75 Z M 263.550781 489.75 " fill-opacity="1" fill-rule="nonzero"/></g><path fill="#545faf" d="M 297.195312 492.214844 L 259.675781 492.214844 L 250.691406 248.507812 L 297.195312 248.507812 Z M 297.195312 492.214844 " fill-opacity="1" fill-rule="nonzero"/><g clip-path="url(#1a6fc1db5d)"><path fill="#000000" d="M 220.664062 489.75 C 223.203125 497.578125 223.457031 506.167969 222.25 515.25 L 180.613281 515.25 C 180.613281 515.25 174.449219 504.171875 183.136719 499.363281 C 193.480469 493.644531 195.648438 489.898438 194.59375 489.75 Z M 220.664062 489.75 " fill-opacity="1" fill-rule="nonzero"/></g><path fill="#545faf" d="M 189.972656 492.214844 L 227.496094 492.214844 L 251.457031 248.507812 L 204.183594 244.992188 Z M 189.972656 492.214844 " fill-opacity="1" fill-rule="nonzero"/><path fill="#545faf" d="M 297.195312 267.988281 C 268.480469 278.539062 239.769531 278.539062 211.054688 267.988281 L 211.054688 240.902344 L 297.195312 240.902344 Z M 297.195312 267.988281 " fill-opacity="1" fill-rule="nonzero"/><path fill="#ea9071" d="M 262.074219 102.804688 L 249.527344 114.867188 L 235.886719 102.863281 L 235.808594 69.554688 L 261.996094 69.496094 Z M 262.074219 102.804688 " fill-opacity="1" fill-rule="nonzero"/><path fill="#000000" d="M 262.011719 75.785156 L 262.058594 96.789062 C 251.042969 93.179688 242.332031 84.910156 235.816406 72.199219 Z M 262.011719 75.785156 " fill-opacity="1" fill-rule="nonzero"/><path fill="#ea9071" d="M 286.832031 38.132812 L 286.832031 67.664062 C 286.832031 68.609375 286.765625 69.550781 286.636719 70.488281 C 286.507812 71.425781 286.316406 72.347656 286.058594 73.257812 C 285.800781 74.167969 285.484375 75.058594 285.105469 75.925781 C 284.726562 76.792969 284.292969 77.628906 283.796875 78.4375 C 283.304688 79.242188 282.757812 80.011719 282.160156 80.746094 C 281.558594 81.476562 280.914062 82.164062 280.21875 82.808594 C 279.523438 83.453125 278.789062 84.046875 278.015625 84.589844 C 277.238281 85.132812 276.429688 85.617188 275.585938 86.050781 L 273.371094 87.1875 C 257.0625 95.550781 234.527344 81.488281 234.527344 67.664062 L 234.527344 38.132812 C 234.527344 37.550781 234.585938 36.976562 234.699219 36.40625 C 234.8125 35.835938 234.980469 35.28125 235.207031 34.742188 C 235.429688 34.207031 235.703125 33.695312 236.027344 33.210938 C 236.347656 32.726562 236.71875 32.28125 237.128906 31.867188 C 237.542969 31.457031 237.988281 31.089844 238.476562 30.765625 C 238.960938 30.441406 239.472656 30.171875 240.007812 29.949219 C 240.546875 29.726562 241.101562 29.558594 241.675781 29.445312 C 242.246094 29.328125 242.824219 29.273438 243.40625 29.273438 L 277.957031 29.273438 C 278.539062 29.273438 279.113281 29.328125 279.6875 29.445312 C 280.257812 29.558594 280.8125 29.726562 281.351562 29.949219 C 281.890625 30.171875 282.402344 30.441406 282.886719 30.765625 C 283.371094 31.089844 283.820312 31.457031 284.230469 31.867188 C 284.644531 32.28125 285.011719 32.726562 285.335938 33.210938 C 285.660156 33.695312 285.933594 34.207031 286.15625 34.742188 C 286.378906 35.28125 286.546875 35.835938 286.660156 36.40625 C 286.773438 36.976562 286.832031 37.550781 286.832031 38.132812 Z M 286.832031 38.132812 " fill-opacity="1" fill-rule="nonzero"/><path fill="#ea9071" d="M 242.175781 58.113281 C 242.410156 58.710938 242.589844 59.324219 242.71875 59.949219 C 242.847656 60.570312 242.925781 61.199219 242.949219 61.824219 C 242.96875 62.453125 242.9375 63.070312 242.851562 63.675781 C 242.765625 64.28125 242.628906 64.863281 242.4375 65.421875 C 242.246094 65.984375 242.007812 66.511719 241.71875 67.003906 C 241.429688 67.5 241.097656 67.949219 240.722656 68.359375 C 240.347656 68.765625 239.9375 69.125 239.488281 69.429688 C 239.042969 69.738281 238.566406 69.988281 238.066406 70.183594 C 237.5625 70.378906 237.042969 70.511719 236.503906 70.585938 C 235.96875 70.660156 235.421875 70.671875 234.871094 70.621094 C 234.316406 70.574219 233.765625 70.460938 233.21875 70.292969 C 232.675781 70.121094 232.140625 69.890625 231.621094 69.605469 C 231.101562 69.320312 230.605469 68.984375 230.136719 68.59375 C 229.664062 68.203125 229.222656 67.769531 228.816406 67.292969 C 228.410156 66.8125 228.042969 66.300781 227.71875 65.75 C 227.394531 65.203125 227.113281 64.628906 226.882812 64.03125 C 226.648438 63.429688 226.46875 62.820312 226.339844 62.195312 C 226.207031 61.570312 226.132812 60.945312 226.109375 60.316406 C 226.085938 59.691406 226.121094 59.074219 226.207031 58.46875 C 226.292969 57.863281 226.429688 57.28125 226.621094 56.71875 C 226.8125 56.160156 227.050781 55.632812 227.339844 55.136719 C 227.628906 54.644531 227.960938 54.191406 228.335938 53.785156 C 228.710938 53.375 229.121094 53.019531 229.570312 52.710938 C 230.015625 52.402344 230.492188 52.152344 230.992188 51.957031 C 231.496094 51.765625 232.015625 51.628906 232.550781 51.558594 C 233.089844 51.484375 233.636719 51.472656 234.1875 51.519531 C 234.742188 51.570312 235.292969 51.679688 235.835938 51.851562 C 236.382812 52.023438 236.917969 52.25 237.4375 52.535156 C 237.957031 52.820312 238.453125 53.160156 238.921875 53.550781 C 239.394531 53.9375 239.835938 54.371094 240.242188 54.851562 C 240.648438 55.328125 241.015625 55.84375 241.339844 56.390625 C 241.664062 56.941406 241.945312 57.515625 242.175781 58.113281 Z M 242.175781 58.113281 " fill-opacity="1" fill-rule="nonzero"/><path stroke-linecap="round" transform="matrix(0.294664, 0, 0, 0.294179, 1.648025, -36.546906)" fill="none" stroke-linejoin="round" d="M 906.556244 316.559226 C 906.556244 316.559226 915.332135 340.540173 915.332135 347.431708 C 915.332135 354.309964 905.4692 354.588812 905.4692 354.588812 " stroke="#000000" stroke-width="5" stroke-opacity="1" stroke-miterlimit="4"/><path fill="#000000" d="M 259.574219 56.308594 C 259.574219 56.730469 259.496094 57.132812 259.332031 57.523438 C 259.171875 57.914062 258.941406 58.257812 258.644531 58.554688 C 258.34375 58.855469 258 59.082031 257.609375 59.246094 C 257.21875 59.40625 256.8125 59.488281 256.390625 59.488281 C 255.96875 59.488281 255.5625 59.40625 255.171875 59.246094 C 254.78125 59.082031 254.4375 58.855469 254.136719 58.554688 C 253.839844 58.257812 253.609375 57.914062 253.449219 57.523438 C 253.285156 57.132812 253.207031 56.730469 253.207031 56.308594 C 253.207031 55.886719 253.285156 55.480469 253.449219 55.089844 C 253.609375 54.699219 253.839844 54.355469 254.136719 54.058594 C 254.4375 53.761719 254.78125 53.53125 255.171875 53.367188 C 255.5625 53.207031 255.96875 53.125 256.390625 53.125 C 256.8125 53.125 257.21875 53.207031 257.609375 53.367188 C 258 53.53125 258.34375 53.761719 258.644531 54.058594 C 258.941406 54.355469 259.171875 54.699219 259.332031 55.089844 C 259.496094 55.480469 259.574219 55.886719 259.574219 56.308594 Z M 259.574219 56.308594 " fill-opacity="1" fill-rule="nonzero"/><path fill="#000000" d="M 282.089844 56.308594 C 282.089844 56.730469 282.011719 57.132812 281.847656 57.523438 C 281.6875 57.914062 281.457031 58.257812 281.15625 58.554688 C 280.859375 58.855469 280.515625 59.082031 280.125 59.246094 C 279.734375 59.40625 279.328125 59.488281 278.90625 59.488281 C 278.484375 59.488281 278.078125 59.40625 277.6875 59.246094 C 277.296875 59.082031 276.953125 58.855469 276.652344 58.554688 C 276.355469 58.257812 276.125 57.914062 275.960938 57.523438 C 275.800781 57.132812 275.71875 56.730469 275.71875 56.308594 C 275.71875 55.886719 275.800781 55.480469 275.960938 55.089844 C 276.125 54.699219 276.355469 54.355469 276.652344 54.058594 C 276.953125 53.761719 277.296875 53.53125 277.6875 53.367188 C 278.078125 53.207031 278.484375 53.125 278.90625 53.125 C 279.328125 53.125 279.734375 53.207031 280.125 53.367188 C 280.515625 53.53125 280.859375 53.761719 281.15625 54.058594 C 281.457031 54.355469 281.6875 54.699219 281.847656 55.089844 C 282.011719 55.480469 282.089844 55.886719 282.089844 56.308594 Z M 282.089844 56.308594 " fill-opacity="1" fill-rule="nonzero"/><path fill="#000000" d="M 284.015625 49.222656 C 284.015625 50.03125 281.226562 49.730469 278.601562 49.730469 C 275.972656 49.730469 274.5 50.03125 274.5 49.222656 C 274.5 48.414062 275.972656 46.800781 278.601562 46.800781 C 281.226562 46.800781 284.015625 48.414062 284.015625 49.222656 Z M 284.015625 49.222656 " fill-opacity="1" fill-rule="nonzero"/><path fill="#000000" d="M 251.632812 49.222656 C 251.632812 50.03125 254.421875 49.730469 257.050781 49.730469 C 259.675781 49.730469 261.148438 50.03125 261.148438 49.222656 C 261.148438 48.414062 259.675781 46.800781 257.050781 46.800781 C 254.421875 46.800781 251.632812 48.414062 251.632812 49.222656 Z M 251.632812 49.222656 " fill-opacity="1" fill-rule="nonzero"/><path fill="#f0f0f0" d="M 271.730469 73.703125 C 271.5625 75.230469 269.542969 77.707031 266.3125 77.351562 C 263.082031 77 259.863281 73.945312 260.03125 72.417969 C 260.199219 70.890625 263.691406 71.464844 266.921875 71.820312 C 270.152344 72.175781 271.898438 72.175781 271.730469 73.703125 Z M 271.730469 73.703125 " fill-opacity="1" fill-rule="nonzero"/><path fill="#f0f0f0" d="M 231.824219 96.402344 L 248.695312 101.773438 L 264.074219 96.898438 L 297.808594 116.152344 C 302.316406 157.40625 301.070312 202.445312 299.585938 246.414062 C 283.332031 249.402344 266.9375 250.894531 250.40625 250.894531 C 233.875 250.894531 217.484375 249.402344 201.226562 246.414062 L 206.015625 180.128906 L 198.085938 116.152344 Z M 231.824219 96.402344 " fill-opacity="1" fill-rule="nonzero"/><path fill="#000000" d="M 239.066406 106.03125 L 248.652344 116.820312 L 257.730469 105.601562 L 248.285156 100.878906 Z M 239.066406 106.03125 " fill-opacity="1" fill-rule="nonzero"/><path fill="#000000" d="M 239.242188 207.609375 L 250.125 217.484375 L 260.707031 207.289062 C 259.660156 176.5 256.574219 144 251.6875 109.980469 L 245.332031 110.078125 C 245.152344 142.703125 243.121094 175.214844 239.242188 207.609375 Z M 239.242188 207.609375 " fill-opacity="1" fill-rule="nonzero"/><path fill="#f0f0f0" d="M 233.757812 92.21875 L 248.195312 99.972656 L 263.152344 92.9375 L 268.464844 98.589844 L 254.683594 112.632812 L 248.195312 101.496094 L 241.921875 112.632812 L 228.152344 97.039062 Z M 233.757812 92.21875 " fill-opacity="1" fill-rule="nonzero"/><path fill="#545faf" d="M 233.757812 92.21875 L 248.195312 99.972656 L 263.152344 92.9375 L 268.464844 98.589844 L 254.683594 112.632812 L 248.195312 101.496094 L 241.921875 112.632812 L 228.152344 97.039062 Z M 233.757812 92.21875 " fill-opacity="0.25" fill-rule="nonzero"/><path fill="#f0f0f0" d="M 361 131.53125 L 301.449219 182.207031 L 307.417969 192.53125 C 307.417969 192.53125 316.523438 204.054688 329.832031 200.828125 C 343.140625 197.601562 382.097656 157.914062 382.097656 157.914062 Z M 361 131.53125 " fill-opacity="1" fill-rule="nonzero"/><path fill="#ea9071" d="M 193.746094 191.371094 L 199.988281 203.59375 C 199.988281 203.59375 209.960938 200.382812 218.148438 203.300781 C 226.335938 206.214844 232.722656 211.160156 231.679688 214.019531 C 230.640625 216.882812 222.460938 212.542969 222.460938 212.542969 C 222.460938 212.542969 232.148438 219.441406 230.179688 221.976562 C 228.210938 224.511719 219.222656 218.257812 219.222656 218.257812 C 219.222656 218.257812 228.945312 225.207031 227.011719 227.523438 C 225.078125 229.84375 215.542969 223.371094 215.542969 223.371094 C 215.542969 223.371094 224.699219 229.960938 223.355469 232.082031 C 221.472656 235.054688 203.875 224.351562 203.875 224.351562 C 203.875 224.351562 194.921875 228.4375 188.675781 225.121094 C 182.425781 221.804688 169.328125 206.714844 169.328125 206.714844 Z M 193.746094 191.371094 " fill-opacity="1" fill-rule="nonzero"/><g clip-path="url(#c162de84f2)"><path fill="#f0f0f0" d="M 154.515625 160.855469 C 154.515625 160.855469 138.632812 176.832031 148.359375 189.25 C 155.363281 198.199219 189.984375 228.15625 189.984375 228.15625 L 210.070312 199.996094 L 179.21875 172.105469 Z M 154.515625 160.855469 " fill-opacity="1" fill-rule="nonzero"/></g><path fill="#000000" d="M 235.835938 33.503906 C 235.835938 33.503906 247.792969 26.492188 255.867188 31.601562 C 261.449219 35.128906 261.859375 37.710938 265.882812 40.511719 C 269.910156 43.316406 274.824219 44.320312 276.28125 43.917969 C 277.734375 43.519531 274.5 39.710938 274.5 39.710938 C 274.5 39.710938 280.164062 43.816406 282.089844 43.316406 C 284.015625 42.816406 281.296875 38.710938 281.296875 38.710938 C 281.296875 38.710938 286.410156 44.417969 287.917969 43.316406 C 289.421875 42.214844 292.230469 37.359375 290.273438 31.351562 C 288.316406 25.339844 284.855469 16.378906 267.90625 13.773438 C 251.261719 11.21875 240.066406 23.289062 240.066406 23.289062 Z M 235.835938 33.503906 " fill-opacity="1" fill-rule="nonzero"/><path fill="#000000" d="M 243.9375 29.273438 C 243.9375 29.273438 243.128906 38.410156 241.574219 40.714844 C 240.019531 43.015625 236.355469 45.019531 236.355469 45.019531 C 236.355469 45.019531 238.113281 56.738281 236.355469 57.136719 C 234.601562 57.539062 232.945312 49.785156 232.945312 49.785156 L 231.742188 28.296875 L 240.066406 23.289062 Z M 243.9375 29.273438 " fill-opacity="1" fill-rule="nonzero"/><path stroke-linecap="round" transform="matrix(0.294664, 0, 0, 0.294179, 1.648025, -36.546906)" fill="none" stroke-linejoin="round" d="M 675.042406 675.184594 C 680.040157 669.660744 726.995151 614.289454 726.995151 614.289454 " stroke="#000000" stroke-width="5" stroke-opacity="1" stroke-miterlimit="4"/><path stroke-linecap="round" transform="matrix(0.294664, 0, 0, 0.294179, 1.648025, -36.546906)" fill="none" stroke-linejoin="round" d="M 627.636687 731.923568 C 605.29926 724.129096 579.700702 721.964703 552.365525 722.801247 " stroke="#000000" stroke-width="5" stroke-opacity="1" stroke-miterlimit="4"/><path stroke-linecap="round" transform="matrix(0.294664, 0, 0, 0.294179, 1.648025, -36.546906)" fill="none" stroke-linejoin="round" d="M 644.724487 747.393005 L 707.322308 804.078864 L 673.372071 851.76191 " stroke="#000000" stroke-width="5" stroke-opacity="1" stroke-miterlimit="4"/><path stroke-linecap="round" transform="matrix(0.294664, 0, 0, 0.294179, 1.648025, -36.546906)" fill="none" stroke-linejoin="round" d="M 1015.737873 785.409312 L 1011.469237 594.770079 " stroke="#000000" stroke-width="5" stroke-opacity="1" stroke-miterlimit="4"/><path stroke-linecap="round" transform="matrix(0.294664, 0, 0, 0.294179, 1.648025, -36.546906)" fill="none" stroke-linejoin="round" d="M 1118.397239 656.900118 L 1106.983278 704.715948 " stroke="#000000" stroke-width="5" stroke-opacity="1" stroke-miterlimit="4"/><g clip-path="url(#d114bc0179)"><path fill="#000000" d="M 377.359375 140.851562 L 373.792969 138.183594 L 445.132812 44.578125 L 447.417969 46.292969 Z M 377.359375 140.851562 " fill-opacity="1" fill-rule="nonzero"/></g><path fill="#ea9071" d="M 371.054688 129.820312 C 371.828125 128.246094 373.25 127.257812 374.613281 126.335938 C 377.746094 124.214844 381.007812 122.046875 384.667969 121.636719 C 385.199219 121.578125 385.773438 121.566406 386.230469 121.894531 C 386.898438 122.367188 387.089844 123.425781 386.851562 124.257812 C 386.574219 125.058594 386.113281 125.738281 385.464844 126.292969 C 383.441406 128.25 381.023438 129.605469 378.628906 130.929688 C 376.972656 131.84375 375.277344 132.765625 373.433594 133 C 373.183594 133.054688 372.9375 133.035156 372.699219 132.945312 C 372.417969 132.816406 372.28125 132.597656 372.296875 132.289062 " fill-opacity="1" fill-rule="nonzero"/><path fill="#ea9071" d="M 394.417969 125.300781 C 393.167969 125.273438 391.914062 125.246094 390.664062 125.222656 C 389.398438 125.199219 386.484375 125.011719 381.664062 129.753906 C 380.347656 131.046875 379.285156 132.667969 378.96875 134.484375 C 378.863281 135.1875 378.820312 135.894531 378.839844 136.605469 C 378.839844 137.910156 378.871094 139.242188 379.320312 140.46875 C 380.144531 142.734375 382.230469 144.265625 384.207031 145.65625 C 384.59375 145.957031 385.011719 146.199219 385.460938 146.390625 C 386.597656 146.820312 387.910156 146.476562 388.917969 145.796875 C 389.925781 145.117188 390.679688 144.136719 391.414062 143.167969 C 392.738281 141.488281 393.925781 139.71875 394.972656 137.859375 C 396.03125 135.96875 396.660156 133.949219 396.863281 131.796875 " fill-opacity="1" fill-rule="nonzero"/></svg>