<svg xmlns="http://www.w3.org/2000/svg" xmlns:xlink="http://www.w3.org/1999/xlink" width="753" zoomAndPan="magnify" viewBox="0 0 564.75 517.49999" height="690" preserveAspectRatio="xMidYMid meet" version="1.0"><defs><clipPath id="9b539c8791"><path d="M 0.148438 31 L 267 31 L 267 339 L 0.148438 339 Z M 0.148438 31 " clip-rule="nonzero"/></clipPath><clipPath id="cf9e902312"><path d="M 60 38 L 188 38 L 188 464.148438 L 60 464.148438 Z M 60 38 " clip-rule="nonzero"/></clipPath><clipPath id="b79603fa6b"><path d="M 94 132 L 506.339844 132 L 506.339844 464.148438 L 94 464.148438 Z M 94 132 " clip-rule="nonzero"/></clipPath><clipPath id="d1caa10808"><path d="M 76 38 L 495 38 L 495 464.148438 L 76 464.148438 Z M 76 38 " clip-rule="nonzero"/></clipPath></defs><path fill="#a3e635" d="M 357.425781 0.046875 L 396.421875 22.546875 L 435.414062 45.070312 L 435.414062 135.113281 L 396.421875 157.613281 L 357.425781 180.136719 L 318.433594 157.613281 L 279.441406 135.113281 L 279.441406 45.070312 L 318.433594 22.546875 Z M 357.425781 0.046875 " fill-opacity="1" fill-rule="evenodd"/><g clip-path="url(#9b539c8791)"><path fill="#a3e635" d="M 133.324219 31.410156 L 199.925781 69.863281 L 266.503906 108.292969 L 266.503906 262.082031 L 199.925781 300.535156 L 133.324219 338.988281 L 66.75 300.535156 L 0.148438 262.082031 L 0.148438 108.292969 L 66.75 69.863281 Z M 133.324219 31.410156 " fill-opacity="1" fill-rule="evenodd"/></g><path fill="#000000" d="M 269.878906 25.585938 L 336.480469 64.035156 L 336.457031 64.035156 L 406.433594 104.445312 L 406.433594 265.953125 L 336.457031 306.339844 L 336.480469 306.363281 L 266.503906 346.75 L 196.550781 306.363281 L 196.550781 306.339844 L 126.574219 265.953125 L 126.574219 104.445312 L 196.550781 64.035156 L 266.503906 23.648438 Z M 329.730469 75.667969 L 266.503906 39.175781 L 203.300781 75.667969 L 203.257812 75.667969 L 140.074219 112.164062 L 140.074219 258.234375 L 203.257812 294.707031 L 203.300781 294.707031 L 266.503906 331.203125 L 329.730469 294.707031 L 329.753906 294.707031 L 392.957031 258.234375 L 392.957031 112.164062 L 329.753906 75.667969 Z M 329.730469 75.667969 " fill-opacity="1" fill-rule="nonzero"/><path fill="#a3e635" d="M 430.777344 154.847656 L 497.378906 193.300781 L 563.957031 231.730469 L 563.957031 385.519531 L 497.378906 423.972656 L 430.777344 462.402344 L 364.199219 423.972656 L 297.597656 385.519531 L 297.597656 231.730469 L 364.199219 193.300781 Z M 430.777344 154.847656 " fill-opacity="1" fill-rule="evenodd"/><path fill="#a3e635" d="M 192.523438 336.445312 L 231.515625 358.96875 L 270.507812 381.46875 L 270.507812 471.515625 L 231.515625 494.035156 L 192.523438 516.539062 L 153.53125 494.035156 L 114.539062 471.515625 L 114.539062 381.46875 L 153.53125 358.96875 Z M 192.523438 336.445312 " fill-opacity="1" fill-rule="evenodd"/><path fill="#ff967a" d="M 505.109375 283.316406 C 502.519531 252.285156 499.261719 222.371094 494.921875 192.367188 C 494.578125 190.015625 493.886719 187.726562 492.871094 185.574219 L 488.785156 176.890625 C 486.773438 172.609375 483.539062 169.003906 479.484375 166.574219 C 469.550781 160.597656 460.226562 155.179688 449.738281 150.410156 C 448.148438 146.65625 446.296875 142.949219 444.15625 140.070312 C 442.015625 137.191406 439.664062 134.566406 436.761719 132.332031 L 434.78125 120.070312 C 434.78125 120.070312 445.878906 115.976562 445.816406 102.707031 C 455.046875 74.597656 451.03125 56.375 430.492188 50.160156 C 428.996094 49.699219 427.605469 48.949219 426.359375 48.003906 C 408.839844 34.808594 366.96875 35.429688 356.664062 60.332031 C 355.316406 63.582031 355.265625 66.695312 357.511719 69.390625 C 359.707031 72.027344 362.132812 74.371094 366.105469 76.179688 C 365.773438 77.988281 365.515625 79.902344 365.3125 81.914062 C 365.117188 83.839844 364.976562 85.863281 364.886719 87.992188 C 364.789062 90.363281 364.75 92.855469 364.765625 95.5 C 364.773438 96.527344 364.664062 97.5625 364.433594 98.5625 C 363.875 100.980469 363.304688 103.398438 362.929688 105.855469 C 362.542969 108.371094 362.375 110.925781 362.378906 113.472656 C 362.378906 114.320312 362.558594 115.339844 363.191406 115.957031 C 363.371094 116.132812 363.480469 116.207031 363.589844 116.277344 C 363.601562 116.285156 363.90625 116.421875 363.917969 116.429688 C 364.230469 116.601562 364.632812 116.757812 364.953125 116.898438 C 364.960938 116.957031 364.964844 117.011719 364.972656 117.070312 C 365.046875 117.910156 365.144531 118.875 365.238281 119.679688 C 365.277344 120.023438 365.324219 120.351562 365.367188 120.6875 C 365.433594 121.210938 365.496094 121.738281 365.570312 122.246094 C 365.625 122.648438 365.695312 123.035156 365.753906 123.425781 C 365.824219 123.855469 365.886719 124.292969 365.960938 124.714844 C 366.027344 125.109375 366.105469 125.488281 366.175781 125.875 C 366.253906 126.28125 366.324219 126.695312 366.40625 127.097656 C 366.46875 127.414062 366.542969 127.722656 366.609375 128.035156 C 366.707031 128.492188 366.800781 128.949219 366.90625 129.398438 C 366.953125 129.597656 367.003906 129.792969 367.050781 129.992188 C 367.179688 130.539062 367.3125 131.085938 367.449219 131.621094 C 367.464844 131.667969 367.476562 131.714844 367.492188 131.765625 C 367.859375 133.167969 368.253906 134.53125 368.671875 135.871094 C 369.46875 138.402344 371.6875 140.003906 374.324219 140.328125 C 374.496094 140.347656 374.683594 140.359375 374.855469 140.382812 C 378.574219 141.085938 386.144531 141.363281 386.339844 141.371094 L 386.21875 142.050781 C 381.503906 145.257812 377.484375 150.597656 374.109375 157.09375 C 371.117188 157.921875 364.316406 160.367188 358.667969 163.273438 C 358.519531 163.25 358.367188 163.226562 358.21875 163.226562 L 348.148438 163.285156 C 346.734375 163.25 345.328125 163.5625 344.050781 164.195312 L 331.746094 170.136719 C 330.894531 170.550781 330.074219 171.035156 329.292969 171.574219 L 307.699219 186.613281 C 306.535156 187.429688 305.234375 188.027344 303.863281 188.410156 L 287.726562 192.820312 L 286.78125 190.195312 C 286.722656 190.019531 286.539062 189.941406 286.378906 189.988281 L 270.722656 194.753906 C 270.539062 194.8125 270.445312 195.007812 270.515625 195.179688 C 270.46875 195.097656 270.421875 195.019531 270.390625 194.925781 C 270.574219 195.605469 270.769531 196.261719 270.953125 196.941406 L 238.078125 204.851562 C 237.351562 205.035156 236.589844 204.910156 235.957031 204.527344 L 167.097656 163.519531 C 164.886719 159.902344 162.683594 155.371094 159.574219 152.011719 L 159.398438 145.132812 C 161.542969 144.902344 165.582031 144.429688 165.582031 144.429688 C 165.679688 144.417969 165.777344 144.402344 165.878906 144.386719 C 166.859375 144.242188 167.839844 144.117188 168.816406 143.949219 C 169.464844 143.835938 170.117188 143.730469 170.769531 143.609375 C 171.257812 143.515625 171.746094 143.414062 172.234375 143.3125 C 173.34375 143.082031 174.453125 142.835938 175.558594 142.550781 C 178.140625 141.894531 179.875 139.664062 180.152344 137.007812 C 180.335938 135.3125 180.472656 133.472656 180.578125 131.59375 C 180.613281 130.972656 180.636719 130.339844 180.65625 129.71875 C 180.679688 129.324219 180.691406 128.933594 180.703125 128.554688 C 180.714844 128.046875 180.726562 127.554688 180.738281 127.058594 C 180.757812 126.175781 180.765625 125.300781 180.761719 124.445312 C 180.761719 123.597656 180.75 122.773438 180.738281 121.980469 C 183.167969 121.738281 186.722656 118.480469 186.773438 118.425781 C 187.082031 118.082031 187.46875 117.570312 187.707031 117.183594 C 187.746094 117.121094 187.789062 117.058594 187.824219 116.992188 C 187.953125 116.769531 188.066406 116.542969 188.171875 116.3125 C 188.191406 116.261719 188.210938 116.210938 188.230469 116.160156 C 188.546875 115.402344 188.742188 114.582031 188.816406 113.699219 C 188.820312 113.660156 188.820312 113.617188 188.824219 113.578125 C 188.886719 112.671875 188.820312 111.703125 188.625 110.675781 C 188.617188 110.644531 188.609375 110.609375 188.601562 110.578125 C 188.398438 109.542969 188.0625 108.449219 187.59375 107.304688 C 187.574219 107.261719 187.558594 107.21875 187.539062 107.175781 C 187.074219 106.050781 186.480469 104.878906 185.757812 103.660156 C 185.707031 103.570312 185.65625 103.484375 185.601562 103.394531 C 185.371094 103.011719 185.128906 102.621094 184.871094 102.226562 C 184.859375 102.210938 184.226562 100.933594 184.226562 100.933594 C 184.214844 100.917969 184.207031 100.898438 184.195312 100.882812 C 183.773438 100.230469 183.492188 99.503906 183.363281 98.738281 C 183.320312 98.476562 183.289062 98.210938 183.28125 97.941406 C 183.050781 90.757812 182.136719 81.898438 181.019531 73.46875 C 182.664062 72.996094 183.425781 72.800781 184.75 71.996094 C 172.984375 34.242188 118.910156 27.617188 100.855469 61.808594 C 100.4375 62.597656 99.863281 63.3125 99.105469 63.78125 C 80.007812 75.613281 87.851562 113.042969 111.542969 132.679688 L 109.300781 138.484375 C 103.496094 140.980469 96.964844 149.546875 96.964844 149.546875 L 95.183594 151.757812 L 78.917969 170.59375 C 76.304688 173.527344 74.035156 176.753906 72.160156 180.207031 L 71.90625 180.644531 C 68.097656 187.632812 65.644531 195.421875 65.300781 203.378906 L 60.628906 316.5 C 60.457031 320.308594 60.90625 324.121094 61.953125 327.792969 L 65.335938 341.8125 L 65.371094 341.8125 C 58.878906 375.722656 61.183594 415.824219 67.828125 462.835938 L 185.839844 463.230469 C 187.453125 423.207031 187.054688 384.800781 182.394531 345.722656 C 183.0625 345.609375 182.632812 341 182.632812 341 C 183.253906 341.011719 187.03125 340.808594 187.03125 340.808594 C 186.90625 341.152344 186.5 342.484375 186.5 342.484375 C 186.421875 342.65625 186.523438 342.863281 186.707031 342.910156 L 200.226562 345.914062 C 200.5 345.96875 200.765625 345.84375 200.894531 345.601562 L 202.304688 343.257812 L 224.597656 344.152344 C 225.597656 344.1875 226.566406 344.460938 227.441406 344.957031 L 232.621094 347.859375 C 233.679688 349.378906 235.589844 350.65625 238.316406 351.359375 C 239.78125 353.59375 242.65625 354.777344 245.144531 355.148438 C 246.953125 356.875 249.449219 357.992188 252.339844 358.382812 C 255.066406 360.050781 258.636719 361.078125 262.019531 361.078125 C 264.5625 360.351562 266.210938 358.832031 266.878906 356.484375 C 268.269531 356.367188 269.398438 355.917969 270.285156 355.191406 C 271.171875 354.457031 271.828125 353.441406 272.265625 352.164062 C 274.730469 351.910156 276.421875 350.519531 277.734375 347.859375 C 278.023438 347.777344 278.296875 347.679688 278.554688 347.570312 C 278.75 347.488281 278.929688 347.390625 279.105469 347.296875 C 279.160156 347.265625 279.21875 347.242188 279.269531 347.210938 C 280.613281 346.421875 281.363281 345.207031 281.429688 343.738281 C 281.453125 343.738281 281.464844 343.757812 281.484375 343.75 C 281.542969 343.714844 281.554688 343.644531 281.53125 343.585938 C 280.96875 342.574219 280.394531 341.574219 279.792969 340.582031 L 287.207031 333.789062 L 291.660156 339.703125 C 291.707031 339.796875 291.832031 339.828125 291.925781 339.773438 L 304.644531 332.742188 C 304.746094 332.6875 304.78125 332.570312 304.722656 332.46875 L 303.390625 330.027344 C 303.160156 329.507812 302.917969 328.988281 302.675781 328.460938 L 330.109375 312.453125 C 334.769531 309.804688 338.617188 307.066406 342.152344 303.035156 L 347.550781 297.347656 L 348.003906 308.902344 C 348.003906 308.902344 347.863281 341.464844 348.070312 343.699219 C 341.808594 376.089844 341.820312 431.328125 342.257812 463.222656 L 480.871094 463.058594 L 482.125 412.570312 L 484.707031 406.640625 C 485.066406 405.625 485.238281 404.566406 485.238281 403.496094 L 485.269531 373.78125 L 488.574219 374.046875 C 488.605469 374.019531 488.628906 374.003906 488.664062 373.980469 L 494.453125 354.394531 C 494.417969 354.339844 494.394531 354.328125 494.371094 354.28125 L 494.488281 354.28125 C 493.785156 354.175781 492.585938 353.863281 491.882812 353.769531 L 504.578125 291.90625 C 505.164062 289.085938 505.351562 286.183594 505.109375 283.316406 Z M 315.789062 265.808594 L 284.816406 294.226562 C 284.34375 293.5 283.410156 292.050781 283.410156 292.050781 C 283.410156 292.050781 283.308594 292.128906 283.214844 292.199219 L 269.898438 302.167969 C 269.816406 302.226562 269.804688 302.34375 269.851562 302.421875 L 271.207031 306.152344 L 267.257812 308.6875 C 266.222656 309.355469 265.058594 309.804688 263.839844 310.023438 L 243.527344 313.347656 C 243.089844 313.425781 242.667969 313.546875 242.261719 313.695312 C 242.238281 313.703125 242.214844 313.710938 242.191406 313.71875 C 241.796875 313.871094 241.421875 314.054688 241.058594 314.269531 C 241.027344 314.289062 240.996094 314.304688 240.964844 314.324219 C 240.609375 314.542969 240.273438 314.792969 239.957031 315.070312 C 239.933594 315.089844 239.914062 315.113281 239.890625 315.128906 C 239.515625 315.433594 239.363281 315.769531 239.09375 316.113281 C 239.09375 316.113281 237.929688 317.78125 237.21875 318.710938 L 216.855469 312.773438 L 217.882812 310.707031 C 218.019531 310.417969 217.871094 310.074219 217.570312 309.96875 L 203.9375 305.675781 C 203.6875 305.597656 203.398438 305.710938 203.28125 305.964844 L 202.28125 308.152344 L 183.558594 300.988281 C 183.339844 300.894531 183.121094 300.800781 182.902344 300.710938 C 182.902344 300.710938 182.394531 240.941406 182.441406 238.339844 L 221.5625 252.253906 C 225.085938 253.371094 228.78125 253.867188 232.488281 253.71875 L 242.894531 253.28125 C 248.074219 253.0625 253.128906 251.574219 257.605469 248.949219 L 284.175781 233.847656 C 284.671875 234.988281 285.617188 236.992188 285.582031 236.867188 C 285.648438 237.027344 285.847656 237.109375 286.019531 237.027344 L 300.351562 230.367188 C 300.503906 230.300781 300.570312 230.128906 300.515625 229.964844 L 299.011719 225.679688 L 317.332031 209.941406 C 318.460938 208.972656 319.761719 208.226562 321.175781 207.765625 C 329.511719 205.058594 335.679688 201.144531 339.214844 193.578125 Z M 315.789062 265.808594 " fill-opacity="1" fill-rule="nonzero"/><path fill="#fb8830" d="M 300.90625 230.226562 C 300.964844 230.386719 300.894531 230.558594 300.746094 230.628906 L 285.964844 237.824219 C 285.78125 237.90625 285.574219 237.824219 285.503906 237.640625 L 284.375 234.5 L 257.992188 249.972656 C 253.515625 252.597656 248.460938 254.082031 243.28125 254.300781 L 232.875 254.738281 C 229.167969 254.890625 225.472656 254.394531 221.949219 253.277344 L 182.753906 240.832031 L 183.488281 300.058594 L 201.839844 307.128906 L 202.839844 304.941406 C 202.957031 304.6875 203.242188 304.574219 203.496094 304.65625 L 218.105469 309.605469 C 218.402344 309.710938 218.554688 310.054688 218.414062 310.34375 L 217.253906 312.75 L 202.679688 342.996094 L 201.242188 346.003906 C 201.113281 346.246094 200.847656 346.371094 200.574219 346.3125 L 185.929688 342.941406 C 185.746094 342.894531 185.644531 342.6875 185.722656 342.511719 L 186.332031 341.179688 L 183.996094 340.867188 L 184.03125 343.988281 C 184.03125 344.691406 183.535156 345.277344 182.867188 345.390625 C 182.824219 345.402344 182.765625 345.414062 182.71875 345.414062 C 166.175781 346.472656 148.804688 346.648438 131.296875 346.152344 C 130.421875 346.140625 129.558594 346.117188 128.695312 346.082031 C 121.421875 345.851562 114.132812 345.519531 106.871094 345.09375 C 106.292969 345.058594 105.71875 345.023438 105.144531 344.976562 C 91.179688 344.125 77.34375 342.929688 63.992188 341.523438 L 63.957031 341.523438 L 60.144531 328.097656 C 59.097656 324.425781 58.648438 320.613281 58.820312 316.800781 L 63.816406 202.867188 C 64.164062 194.910156 66.339844 187.140625 70.148438 180.152344 L 70.402344 179.714844 C 72.277344 176.257812 74.546875 173.035156 77.160156 170.097656 L 94.957031 150.0625 C 109.976562 162.777344 123.90625 174.460938 142.300781 179.597656 C 142.5 179.65625 142.71875 179.574219 142.832031 179.402344 L 149.519531 168.949219 C 149.785156 168.53125 150.269531 168.300781 150.75 168.371094 L 159.199219 169.394531 L 161.871094 164.996094 C 162.230469 164.410156 162.988281 164.238281 163.574219 164.59375 L 170.414062 168.878906 C 170.632812 169.027344 170.90625 168.773438 170.792969 168.542969 C 169.78125 166.621094 168.6875 164.628906 167.464844 162.636719 L 235.542969 204.238281 C 236.175781 204.617188 236.9375 204.746094 237.664062 204.5625 L 270.722656 196.605469 L 270.101562 194.890625 C 270.03125 194.714844 270.125 194.519531 270.308594 194.464844 L 285.964844 189.695312 C 286.125 189.648438 286.308594 189.730469 286.367188 189.902344 L 287.3125 192.527344 L 299.03125 225.023438 Z M 300.90625 230.226562 " fill-opacity="1" fill-rule="nonzero"/><g clip-path="url(#cf9e902312)"><path fill="#5b1614" d="M 187.335938 464.070312 L 66.570312 464.070312 C 59.925781 417.058594 57.5 375.433594 63.992188 341.523438 C 77.34375 342.929688 91.179688 344.125 105.144531 344.976562 C 105.71875 345.023438 106.292969 345.058594 106.871094 345.09375 C 114.132812 345.519531 121.421875 345.851562 128.695312 346.082031 C 129.558594 346.117188 130.421875 346.140625 131.296875 346.152344 C 135.601562 346.277344 139.898438 346.359375 144.167969 346.394531 C 145.765625 346.40625 147.390625 346.417969 148.992188 346.417969 C 160.457031 346.429688 171.773438 346.117188 182.71875 345.414062 C 182.765625 345.414062 182.824219 345.402344 182.867188 345.390625 C 187.53125 384.472656 188.945312 424.046875 187.335938 464.070312 Z M 111.128906 132.390625 L 114.917969 122.601562 C 98.410156 108.53125 112.558594 93.496094 123.421875 103.878906 C 130.214844 95.832031 133.207031 77.433594 133.207031 77.433594 C 133.207031 77.433594 168.410156 76.789062 180.714844 74.128906 C 182.363281 73.65625 183.882812 73.054688 185.207031 72.25 C 174.761719 33.039062 117.207031 25.925781 99.152344 60.113281 C 98.734375 60.90625 98.160156 61.617188 97.398438 62.089844 C 78.304688 73.921875 84.980469 114.589844 111.128906 132.390625 Z M 111.128906 132.390625 " fill-opacity="1" fill-rule="nonzero"/></g><g clip-path="url(#b79603fa6b)"><path fill="#e6e6e6" d="M 505.566406 291.574219 L 492.675781 353.476562 L 494.699219 353.578125 C 494.785156 353.589844 494.808594 353.617188 494.792969 353.707031 L 488.921875 374.257812 C 488.886719 374.28125 488.863281 374.304688 488.828125 374.328125 L 484.824219 374.109375 L 482.128906 373.960938 L 453.398438 372.40625 L 447.308594 372.070312 C 447.273438 372.023438 447.25 372 447.214844 371.957031 L 450.554688 351.300781 C 450.589844 351.277344 450.621094 351.253906 450.65625 351.21875 L 452.890625 351.332031 L 454.285156 341.5 C 430.800781 343.277344 407.332031 343.773438 383.867188 343.011719 C 384.019531 346.84375 384.144531 350.679688 384.226562 354.523438 L 384.46875 367.488281 C 384.480469 369.640625 384.480469 371.804688 384.433594 373.96875 C 384.386719 375.085938 384.339844 376.03125 384.582031 377 C 384.6875 377.484375 384.847656 377.953125 385.042969 378.414062 C 385.238281 378.863281 385.503906 379.3125 385.757812 379.808594 C 387.460938 383.042969 389.199219 386.269531 390.878906 389.515625 C 390.878906 384.125 390.902344 378.726562 390.949219 373.324219 L 391.097656 357.183594 C 391.191406 352.53125 391.246094 347.878906 391.363281 343.214844 C 391.605469 343.226562 391.847656 343.226562 392.078125 343.226562 C 392.191406 347.878906 392.25 352.53125 392.339844 357.183594 L 392.492188 373.324219 C 392.582031 384.089844 392.546875 394.847656 392.582031 405.613281 L 392.339844 437.886719 L 392.109375 454.03125 C 392.03125 457.367188 391.960938 460.71875 391.878906 464.070312 L 391.558594 464.070312 C 391.476562 460.71875 391.410156 457.367188 391.328125 454.03125 L 391.097656 437.886719 L 390.855469 405.613281 C 390.867188 400.476562 390.867188 395.339844 390.878906 390.207031 C 390.777344 390.042969 390.671875 389.882812 390.566406 389.722656 C 388.554688 386.648438 386.632812 383.539062 384.664062 380.441406 C 384.074219 379.589844 383.453125 378.484375 383.15625 377.367188 C 382.808594 376.25 382.785156 375.007812 382.773438 373.96875 C 382.71875 371.804688 382.71875 369.640625 382.742188 367.488281 L 382.972656 354.523438 C 383.050781 350.675781 383.179688 346.832031 383.328125 342.996094 C 383.457031 343.003906 383.578125 343.003906 383.703125 343.003906 C 371.808594 342.617188 359.914062 341.90625 348.023438 340.867188 L 348.148438 298.046875 L 343.902344 302.882812 C 340.367188 306.910156 336.164062 310.320312 331.503906 312.96875 L 303.507812 328.8125 L 305.671875 332.75 C 305.730469 332.851562 305.695312 332.96875 305.589844 333.027344 L 291.226562 340.773438 C 291.132812 340.832031 291.007812 340.796875 290.960938 340.707031 L 286.792969 333.496094 L 270.792969 305.863281 L 268.511719 301.925781 C 268.46875 301.84375 268.480469 301.730469 268.558594 301.671875 L 282.417969 290.859375 C 282.523438 290.78125 282.660156 290.816406 282.71875 290.917969 L 283.871094 293.011719 L 315.375 265.519531 L 338.800781 193.289062 L 338.8125 193.277344 C 339.550781 191.664062 340.492188 190.144531 341.691406 188.820312 L 344.925781 185.25 C 345.859375 184.214844 347.042969 183.421875 348.378906 183.0625 C 351.164062 182.316406 352.890625 180.992188 354.261719 179.171875 C 355.414062 177.652344 354.144531 175.488281 352.246094 175.695312 L 344.222656 176.570312 L 344.328125 176.257812 C 344.453125 175.855469 344.601562 175.464844 344.765625 175.085938 L 349.484375 171.433594 C 350.058594 170.90625 350.785156 170.546875 351.554688 170.445312 C 355.296875 169.925781 357.507812 168.949219 359.601562 167.289062 C 361.144531 166.070312 360.464844 163.664062 358.671875 163.269531 C 364.4375 159.941406 370.539062 156.824219 373.53125 155.992188 C 376.902344 149.5 381.003906 144.515625 386.238281 141.933594 L 386.226562 142.027344 C 385.433594 150.558594 386.816406 159.355469 390.28125 168.394531 C 390.28125 168.429688 390.292969 168.453125 390.304688 168.488281 L 392.765625 178.078125 C 392.800781 178.191406 392.894531 178.25 392.984375 178.25 C 393.066406 178.25 393.136719 178.214844 393.179688 178.136719 L 397.613281 169.613281 C 397.726562 169.394531 397.902344 169.210938 398.121094 169.074219 C 412.910156 159.792969 425.632812 147.277344 436.75 132.296875 C 442.359375 136.039062 446.558594 141.933594 449.726562 149.441406 C 460.210938 154.210938 470.398438 159.621094 480.332031 165.597656 C 484.386719 168.027344 487.621094 171.628906 489.636719 175.914062 L 493.722656 184.59375 C 494.734375 186.75 495.425781 189.039062 495.769531 191.390625 C 500.109375 221.394531 503.507812 251.953125 506.097656 282.984375 C 506.339844 285.851562 506.152344 288.753906 505.566406 291.574219 Z M 167.464844 162.636719 C 165.257812 159.023438 162.667969 155.371094 159.558594 152.011719 C 159.8125 157.132812 160.28125 164.558594 159.199219 169.394531 L 161.871094 164.996094 C 162.230469 164.410156 162.988281 164.238281 163.574219 164.59375 L 170.414062 168.878906 C 170.632812 169.027344 170.90625 168.773438 170.792969 168.542969 C 169.78125 166.621094 168.6875 164.628906 167.464844 162.636719 Z M 157.347656 168.671875 C 156.773438 168.441406 156.183594 168.210938 155.609375 167.957031 C 155.023438 167.714844 154.445312 167.472656 153.859375 167.207031 C 150.808594 165.875 147.769531 164.410156 144.765625 162.84375 C 144.328125 162.613281 143.890625 162.382812 143.464844 162.152344 C 141.1875 160.933594 138.929688 159.667969 136.707031 158.34375 C 135.949219 157.894531 135.199219 157.445312 134.453125 156.984375 C 129.71875 154.082031 125.183594 151.007812 120.949219 147.898438 C 118.96875 146.425781 117.046875 144.953125 115.203125 143.488281 C 114.777344 143.144531 114.351562 142.808594 113.9375 142.464844 C 112.164062 141.023438 110.472656 139.597656 108.886719 138.191406 C 103.082031 140.691406 98.972656 144.066406 94.96875 150.039062 C 94.96875 150.050781 94.957031 150.050781 94.957031 150.0625 C 109.976562 162.777344 123.90625 174.460938 142.300781 179.597656 C 142.5 179.65625 142.71875 179.574219 142.832031 179.402344 L 149.519531 168.949219 C 149.785156 168.53125 150.269531 168.300781 150.75 168.371094 L 159.199219 169.394531 C 159.167969 169.386719 159.132812 169.375 159.097656 169.363281 C 158.511719 169.144531 157.933594 168.914062 157.347656 168.671875 Z M 157.347656 168.671875 " fill-opacity="1" fill-rule="nonzero"/></g><g clip-path="url(#d1caa10808)"><path fill="#321a2a" d="M 391.328125 454.03125 C 391.410156 457.367188 391.476562 460.71875 391.558594 464.070312 L 340.34375 464.070312 C 339.910156 432.171875 341.59375 374.132812 347.855469 341.746094 C 347.652344 339.507812 347.613281 337.265625 347.546875 335.027344 L 347.320312 326.683594 L 346.871094 309.996094 L 346.496094 293.308594 L 346.246094 276.621094 L 346.011719 243.238281 L 346.003906 226.546875 L 346.132812 209.851562 C 346.132812 209.820312 346.160156 209.792969 346.195312 209.792969 C 346.226562 209.792969 346.253906 209.816406 346.253906 209.851562 L 346.84375 226.535156 L 347.289062 243.222656 L 347.972656 276.597656 L 348.183594 293.285156 L 348.265625 309.976562 L 348.269531 326.667969 L 348.273438 335.015625 C 348.269531 336.96875 348.289062 338.925781 348.199219 340.882812 C 359.90625 341.898438 371.609375 342.609375 383.328125 342.996094 C 383.179688 346.832031 383.050781 350.675781 382.972656 354.523438 L 382.742188 367.488281 C 382.71875 369.640625 382.71875 371.804688 382.773438 373.96875 C 382.785156 375.007812 382.808594 376.25 383.15625 377.367188 C 383.453125 378.484375 384.074219 379.589844 384.664062 380.441406 C 386.632812 383.539062 388.554688 386.648438 390.566406 389.722656 C 390.671875 389.882812 390.777344 390.042969 390.878906 390.207031 C 390.867188 395.339844 390.867188 400.476562 390.855469 405.613281 L 391.097656 437.886719 Z M 384.582031 377 C 384.6875 377.484375 384.847656 377.953125 385.042969 378.414062 C 385.238281 378.863281 385.503906 379.3125 385.757812 379.808594 C 387.460938 383.042969 389.199219 386.269531 390.878906 389.515625 C 390.878906 384.125 390.902344 378.726562 390.949219 373.324219 L 391.097656 357.183594 C 391.191406 352.53125 391.246094 347.878906 391.363281 343.214844 C 388.863281 343.171875 386.367188 343.101562 383.867188 343.007812 C 384.019531 346.84375 384.144531 350.675781 384.226562 354.523438 L 384.46875 367.488281 C 384.480469 369.640625 384.480469 371.804688 384.433594 373.96875 C 384.386719 375.085938 384.339844 376.03125 384.582031 377 Z M 450.648438 351.226562 C 457.960938 352.289062 465.300781 352.839844 472.648438 353.261719 C 480.023438 353.632812 487.308594 353.867188 494.722656 353.578125 C 487.382812 352.5 480.113281 351.957031 472.738281 351.539062 C 466.140625 351.210938 459.539062 351.003906 452.914062 351.164062 L 454.285156 341.5 C 454.152344 341.511719 454.019531 341.519531 453.886719 341.527344 C 454.675781 336.597656 455.40625 331.660156 456.171875 326.726562 L 458.578125 310.070312 C 458.984375 307.292969 459.375 304.515625 459.742188 301.734375 L 460.300781 297.550781 C 460.453125 296.289062 460.472656 295.015625 460.410156 293.746094 C 461.144531 293.839844 461.871094 293.878906 462.585938 293.859375 C 463.539062 293.84375 464.476562 293.746094 465.40625 293.597656 C 466.335938 293.445312 467.257812 293.242188 468.167969 292.957031 C 469.078125 292.679688 469.976562 292.34375 470.847656 291.835938 C 469.859375 291.632812 468.898438 291.597656 467.949219 291.625 C 466.996094 291.640625 466.058594 291.742188 465.128906 291.890625 C 464.199219 292.046875 463.277344 292.25 462.371094 292.535156 C 461.703125 292.738281 461.046875 293 460.398438 293.308594 C 460.398438 293.273438 460.398438 293.238281 460.398438 293.207031 C 460.304688 291.753906 460.003906 290.316406 459.753906 288.960938 L 458.984375 284.828125 L 457.53125 276.550781 C 455.535156 265.519531 453.816406 254.433594 451.957031 243.371094 L 449.113281 226.777344 C 448.085938 221.257812 447.09375 215.734375 445.949219 210.238281 C 445.941406 210.207031 445.910156 210.183594 445.875 210.1875 C 445.835938 210.191406 445.8125 210.226562 445.816406 210.261719 L 450.601562 243.582031 C 452.203125 254.6875 453.957031 265.773438 455.832031 276.847656 L 457.367188 285.128906 L 458.179688 289.265625 C 458.453125 290.664062 458.742188 291.972656 458.839844 293.328125 C 458.953125 294.675781 458.9375 296.035156 458.792969 297.382812 L 458.277344 301.542969 C 457.921875 304.328125 457.59375 307.113281 457.277344 309.902344 L 455.351562 326.621094 C 454.832031 331.59375 454.277344 336.558594 453.785156 341.535156 C 433.207031 343.074219 412.640625 343.636719 392.078125 343.226562 C 392.191406 347.878906 392.25 352.53125 392.339844 357.183594 L 392.492188 373.324219 C 392.582031 384.089844 392.546875 394.847656 392.582031 405.613281 L 392.339844 437.886719 L 392.109375 454.03125 C 392.03125 457.367188 391.960938 460.71875 391.878906 464.070312 L 482.128906 464.070312 L 482.128906 412.554688 L 479.46875 420.175781 C 478.941406 421.695312 477.960938 423.03125 476.683594 424 L 468.074219 430.503906 C 467.199219 431.160156 465.96875 430.390625 466.175781 429.308594 C 466.214844 429.082031 466.265625 428.894531 466.3125 428.75 C 467.960938 427.566406 469.5625 426.324219 471.125 425.046875 C 472.0625 424.285156 472.980469 423.5 473.894531 422.714844 C 474.355469 422.324219 474.8125 421.929688 475.261719 421.527344 L 475.597656 421.226562 C 475.730469 421.105469 475.859375 420.980469 475.980469 420.847656 C 476.222656 420.585938 476.4375 420.292969 476.621094 419.988281 C 476.804688 419.691406 476.972656 419.324219 477.066406 419.035156 L 477.378906 418.1875 L 477.996094 416.484375 C 478.386719 415.34375 478.785156 414.207031 479.148438 413.054688 C 479.886719 410.753906 480.5625 408.429688 481.078125 406.046875 C 481.082031 406.015625 481.070312 405.984375 481.042969 405.96875 C 481.007812 405.953125 480.964844 405.964844 480.945312 405.996094 C 479.769531 408.132812 478.757812 410.332031 477.808594 412.550781 C 477.328125 413.660156 476.878906 414.78125 476.425781 415.898438 L 475.777344 417.589844 L 475.453125 418.433594 C 475.347656 418.710938 475.273438 418.902344 475.148438 419.125 C 475.027344 419.339844 474.886719 419.539062 474.726562 419.726562 C 474.648438 419.816406 474.5625 419.90625 474.472656 419.992188 L 474.144531 420.300781 C 473.699219 420.707031 473.265625 421.128906 472.835938 421.550781 C 471.96875 422.390625 471.105469 423.234375 470.265625 424.101562 C 468.652344 425.746094 467.074219 427.425781 465.578125 429.199219 L 463.480469 431.058594 C 462.320312 432.09375 460.441406 431.160156 460.636719 429.628906 C 460.710938 428.984375 460.875 428.421875 461.023438 428.015625 C 462.324219 426.828125 463.601562 425.617188 464.847656 424.382812 C 465.722656 423.507812 466.59375 422.632812 467.445312 421.738281 L 468.726562 420.40625 L 469.355469 419.726562 C 469.605469 419.457031 469.824219 419.164062 470.015625 418.847656 C 470.203125 418.535156 470.359375 418.199219 470.480469 417.851562 C 470.589844 417.523438 470.671875 417.253906 470.761719 416.949219 L 471.289062 415.175781 C 471.644531 413.996094 471.953125 412.800781 472.277344 411.609375 C 472.886719 409.21875 473.453125 406.808594 473.828125 404.34375 C 473.832031 404.304688 473.8125 404.265625 473.773438 404.246094 C 473.730469 404.222656 473.671875 404.242188 473.652344 404.289062 C 472.578125 406.542969 471.695312 408.851562 470.859375 411.175781 C 470.457031 412.339844 470.042969 413.503906 469.675781 414.679688 L 469.117188 416.445312 L 468.851562 417.3125 C 468.777344 417.550781 468.679688 417.78125 468.558594 418 C 468.433594 418.21875 468.292969 418.421875 468.125 418.613281 L 467.515625 419.304688 L 466.3125 420.714844 C 465.507812 421.648438 464.722656 422.601562 463.941406 423.558594 C 462.78125 424.992188 461.648438 426.453125 460.546875 427.941406 L 458.140625 429.859375 C 456.550781 431.128906 454.167969 429.941406 454.296875 427.914062 C 454.382812 426.472656 454.777344 425.195312 455.125 424.316406 C 456.277344 423.128906 457.394531 421.914062 458.476562 420.671875 C 459.875 419.058594 461.230469 417.414062 462.539062 415.730469 L 463.039062 415.097656 C 463.234375 414.851562 463.414062 414.582031 463.550781 414.296875 C 463.695312 414.011719 463.8125 413.714844 463.902344 413.410156 C 463.945312 413.257812 463.984375 413.101562 464.015625 412.949219 L 464.089844 412.554688 C 464.308594 411.511719 464.460938 410.457031 464.640625 409.402344 C 464.953125 407.289062 465.222656 405.167969 465.289062 403.003906 C 465.289062 402.972656 465.269531 402.941406 465.238281 402.929688 C 465.199219 402.914062 465.152344 402.933594 465.136719 402.972656 C 464.335938 404.984375 463.738281 407.039062 463.183594 409.101562 C 462.933594 410.136719 462.652344 411.167969 462.4375 412.214844 C 462.246094 413.28125 461.929688 413.769531 461.207031 414.699219 C 459.925781 416.402344 458.6875 418.144531 457.496094 419.917969 C 456.730469 421.058594 455.992188 422.21875 455.273438 423.394531 L 453.996094 424.324219 C 452.648438 425.300781 450.75 424.402344 450.621094 422.746094 C 450.128906 415.710938 454.007812 409.5625 456.21875 406.671875 C 457.160156 405.425781 457.75 403.941406 457.839844 402.375 L 458.601562 390.6875 C 458.625 390.367188 458.199219 390.207031 458 390.457031 L 455.398438 393.152344 C 454.535156 394.050781 453.972656 395.214844 453.753906 396.457031 C 452.984375 400.9375 451.050781 403.425781 449.300781 404.78125 C 447.90625 405.863281 445.878906 404.875 445.878906 403.113281 L 445.878906 394.730469 C 445.878906 393.199219 446.15625 391.679688 446.699219 390.238281 L 453.398438 372.40625 L 447.308594 372.070312 C 447.273438 372.023438 447.25 372 447.214844 371.957031 L 450.554688 351.300781 C 450.585938 351.277344 450.617188 351.253906 450.648438 351.226562 Z M 163.234375 107.019531 C 164.390625 107.195312 165.527344 106.027344 165.773438 104.410156 C 166.015625 102.796875 165.277344 101.34375 164.117188 101.167969 C 162.960938 100.992188 161.824219 102.160156 161.582031 103.777344 C 161.335938 105.390625 162.078125 106.84375 163.234375 107.019531 Z M 163.640625 96.214844 C 164.242188 96.152344 164.847656 96.117188 165.480469 96.082031 L 167.539062 96.015625 C 167.070312 95.402344 166.410156 94.996094 165.699219 94.75 C 164.988281 94.496094 164.21875 94.417969 163.464844 94.496094 C 162.710938 94.578125 161.964844 94.808594 161.324219 95.214844 C 160.679688 95.605469 160.113281 96.15625 159.8125 96.867188 L 161.820312 96.460938 C 162.445312 96.363281 163.039062 96.273438 163.640625 96.214844 Z M 122.417969 102.34375 C 122.449219 101.867188 122.859375 101.511719 123.332031 101.535156 L 150.105469 103.175781 L 150.105469 100.984375 C 150.105469 99.402344 151.390625 98.113281 152.972656 98.105469 L 173.324219 98.027344 C 174.070312 98.023438 174.820312 98.324219 175.363281 98.867188 C 175.910156 99.414062 176.210938 100.136719 176.210938 100.90625 L 176.210938 101.449219 L 184.273438 100.601562 C 184.753906 100.558594 185.171875 100.894531 185.222656 101.367188 C 185.273438 101.84375 184.929688 102.269531 184.453125 102.316406 L 176.210938 103.1875 L 176.210938 109.445312 C 176.210938 110.773438 175.328125 111.917969 174.066406 112.230469 C 170.882812 113.019531 167.515625 113.414062 163.90625 113.414062 C 160.335938 113.414062 156.527344 113.027344 152.4375 112.253906 C 151.085938 112 150.105469 110.808594 150.105469 109.421875 L 150.105469 104.90625 L 123.226562 103.257812 C 122.753906 103.226562 122.390625 102.820312 122.417969 102.34375 Z M 151.832031 109.421875 C 151.832031 109.976562 152.222656 110.457031 152.757812 110.558594 C 160.730469 112.0625 167.566406 112.0625 173.652344 110.554688 C 174.132812 110.433594 174.484375 109.96875 174.484375 109.445312 L 174.484375 100.90625 C 174.484375 100.597656 174.363281 100.308594 174.144531 100.089844 C 173.929688 99.875 173.640625 99.757812 173.332031 99.757812 C 173.332031 99.757812 173.332031 99.757812 173.328125 99.757812 L 152.976562 99.832031 C 152.347656 99.835938 151.832031 100.351562 151.832031 100.984375 Z M 186.777344 118.421875 C 185.695312 118.910156 184.6875 119.34375 183.664062 119.660156 C 182.640625 119.976562 181.613281 120.164062 180.574219 120.257812 C 179.535156 120.351562 178.480469 120.34375 177.402344 120.253906 C 176.324219 120.164062 175.230469 119.992188 174.058594 119.859375 C 174.035156 119.855469 174.007812 119.867188 173.988281 119.886719 C 173.960938 119.917969 173.96875 119.964844 174 119.992188 C 175.832031 121.480469 178.292969 122.203125 180.738281 121.980469 C 183.167969 121.742188 185.535156 120.449219 186.777344 118.421875 Z M 180.738281 127.058594 L 170.941406 127.058594 C 170.425781 127.058594 169.976562 127.347656 169.757812 127.820312 C 169.675781 128.003906 169.628906 128.1875 169.628906 128.382812 C 169.628906 128.683594 169.734375 128.96875 169.929688 129.210938 C 171.761719 131.386719 174.234375 132.621094 176.765625 132.621094 C 176.871094 132.621094 176.964844 132.621094 177.066406 132.609375 C 178.320312 132.5625 179.507812 132.21875 180.578125 131.59375 C 180.613281 130.972656 180.636719 130.339844 180.660156 129.71875 C 179.597656 130.582031 178.355469 131.066406 177.007812 131.121094 C 174.949219 131.191406 172.910156 130.269531 171.34375 128.554688 L 180.703125 128.554688 C 180.714844 128.046875 180.726562 127.554688 180.738281 127.058594 Z M 154.613281 144.449219 C 151.023438 144.347656 147.476562 143.808594 144.09375 142.703125 C 142.398438 142.171875 140.753906 141.5 139.15625 140.699219 C 137.535156 139.925781 135.96875 139.042969 134.421875 138.125 C 131.339844 136.257812 128.398438 134.136719 125.566406 131.824219 C 125.539062 131.804688 125.503906 131.804688 125.480469 131.824219 C 125.449219 131.847656 125.449219 131.890625 125.472656 131.917969 C 127.871094 134.6875 130.613281 137.199219 133.664062 139.292969 C 136.699219 141.386719 139.988281 143.199219 143.570312 144.347656 C 147.140625 145.472656 150.914062 145.953125 154.617188 145.777344 C 158.292969 145.648438 161.945312 145.179688 165.53125 144.425781 C 161.871094 144.527344 158.230469 144.546875 154.613281 144.449219 Z M 365.691406 75.890625 C 375.902344 80.550781 391.109375 82.027344 406.808594 77.773438 C 408.136719 77.414062 409.515625 78.160156 409.964844 79.460938 L 419.207031 106.160156 L 427.589844 106.621094 L 431.882812 98.5625 C 433.242188 96.015625 436.003906 94.402344 438.859375 94.785156 C 442.300781 95.246094 444.949219 98.179688 445.8125 102.71875 C 445.835938 102.671875 445.855469 102.625 445.867188 102.578125 C 458.289062 75.125 450.996094 54.617188 430.453125 48.402344 C 428.953125 47.949219 427.570312 47.191406 426.316406 46.246094 C 408.800781 33.054688 365.269531 34.53125 354.964844 59.433594 C 353.621094 62.675781 354.050781 66.464844 356.304688 69.15625 C 358.503906 71.785156 361.714844 74.078125 365.691406 75.890625 Z M 392.394531 98.214844 C 391.25 98.324219 390.449219 99.730469 390.605469 101.351562 C 390.761719 102.976562 391.816406 104.203125 392.960938 104.089844 C 394.105469 103.980469 394.90625 102.578125 394.753906 100.953125 C 394.597656 99.332031 393.542969 98.105469 392.394531 98.214844 Z M 394.863281 92.8125 C 394.269531 92.445312 393.589844 92.230469 392.894531 92.152344 C 391.519531 92.011719 390.019531 92.417969 389.121094 93.546875 C 389.839844 93.632812 390.441406 93.664062 391.023438 93.707031 L 392.707031 93.867188 L 396.277344 94.328125 C 395.980469 93.664062 395.453125 93.167969 394.863281 92.8125 Z M 376.730469 117.609375 C 377.703125 117.382812 378.636719 116.949219 379.378906 116.269531 C 380.140625 115.617188 380.636719 114.699219 380.929688 113.851562 C 381.222656 112.988281 381.429688 112.121094 381.523438 111.230469 C 381.527344 111.199219 381.511719 111.167969 381.484375 111.152344 C 381.445312 111.128906 381.398438 111.140625 381.375 111.179688 C 380.484375 112.691406 379.722656 114.34375 378.484375 115.152344 C 377.859375 115.570312 377.152344 115.855469 376.414062 115.960938 C 375.609375 116.109375 374.757812 116.171875 373.914062 116.238281 C 372.214844 116.382812 370.496094 116.429688 368.777344 116.472656 C 367.054688 116.480469 365.339844 116.527344 363.589844 116.277344 C 365.148438 117.183594 366.953125 117.523438 368.703125 117.773438 C 370.46875 118.007812 372.246094 118.054688 374.035156 117.953125 C 374.929688 117.894531 375.816406 117.785156 376.730469 117.609375 Z M 372.835938 122.519531 C 372.746094 122.289062 372.777344 122.027344 372.917969 121.824219 C 373.054688 121.621094 373.285156 121.5 373.535156 121.5 L 386.628906 121.5 C 386.878906 121.5 387.109375 121.625 387.25 121.828125 C 387.386719 122.039062 387.414062 122.300781 387.320312 122.53125 C 386.210938 125.242188 383.347656 126.980469 380.011719 126.980469 C 379.980469 126.980469 379.953125 126.980469 379.921875 126.980469 C 376.609375 126.953125 373.894531 125.242188 372.835938 122.519531 Z M 374.761719 122.996094 C 375.976562 124.785156 378.136719 125.46875 379.9375 125.484375 C 382.257812 125.507812 384.238281 124.558594 385.363281 122.996094 Z M 397.261719 140.578125 C 400.867188 139.027344 404.191406 137.191406 407.375 135.011719 C 410.546875 132.851562 413.46875 130.324219 416.011719 127.484375 C 416.03125 127.460938 416.035156 127.425781 416.015625 127.402344 C 415.992188 127.375 415.953125 127.371094 415.925781 127.394531 C 412.949219 129.765625 409.835938 131.898438 406.621094 133.839844 C 405 134.792969 403.375 135.730469 401.695312 136.574219 C 400.042969 137.421875 398.304688 138.292969 396.648438 138.964844 C 394.960938 139.636719 393.226562 139.9375 391.34375 140.023438 C 389.46875 140.171875 387.585938 140.234375 385.699219 140.304688 C 381.929688 140.398438 378.140625 140.394531 374.332031 140.328125 C 378.074219 141.042969 381.875 141.496094 385.695312 141.628906 C 387.605469 141.714844 389.519531 141.695312 391.433594 141.640625 C 393.34375 141.617188 395.40625 141.285156 397.261719 140.578125 Z M 114.578125 202.042969 C 116.164062 204.617188 117.546875 207.316406 118.726562 210.09375 L 122.277344 218.527344 L 136.59375 252.21875 C 141.335938 263.460938 145.941406 274.761719 150.886719 285.917969 L 151.359375 286.984375 C 151.539062 287.382812 151.757812 287.765625 152.003906 288.128906 C 152.222656 288.460938 152.476562 288.765625 152.742188 289.058594 C 151.425781 289.542969 150.246094 290.246094 149.109375 291.023438 C 147.851562 291.933594 146.640625 292.925781 145.640625 294.25 C 147.261719 293.90625 148.675781 293.234375 150.035156 292.480469 C 151.304688 291.738281 152.523438 290.917969 153.570312 289.828125 C 153.648438 289.890625 153.714844 289.96875 153.796875 290.03125 C 154.492188 290.5625 155.269531 290.976562 156.089844 291.261719 L 156.871094 291.527344 C 155.664062 293.605469 154.6875 295.78125 153.785156 297.992188 C 152.789062 300.535156 151.878906 303.117188 151.316406 305.851562 C 152.929688 303.574219 154.191406 301.144531 155.367188 298.679688 C 156.378906 296.484375 157.308594 294.253906 158.007812 291.917969 L 158.253906 292.003906 L 166.929688 294.917969 L 175.636719 297.738281 C 178.554688 298.640625 181.464844 299.566406 184.398438 300.417969 C 181.597656 299.199219 178.769531 298.050781 175.949219 296.882812 L 167.449219 293.480469 L 158.914062 290.175781 L 156.773438 289.367188 C 156.160156 289.128906 155.589844 288.800781 155.082031 288.390625 C 154.578125 287.976562 154.140625 287.484375 153.785156 286.945312 C 153.605469 286.671875 153.449219 286.390625 153.320312 286.09375 L 152.878906 285.058594 C 148.160156 273.804688 143.105469 262.699219 138.1875 251.53125 L 123.519531 217.996094 L 119.824219 209.621094 C 118.578125 206.804688 117.121094 204.082031 115.464844 201.488281 C 112.144531 196.320312 108.089844 191.554688 103.160156 187.90625 C 105.140625 190.257812 107.304688 192.386719 109.246094 194.710938 C 111.207031 197.015625 112.988281 199.472656 114.578125 202.042969 Z M 167.09375 337.65625 C 160.796875 336.695312 154.496094 335.773438 148.191406 334.867188 C 141.925781 334.140625 135.941406 332.164062 130.609375 328.824219 C 129.257812 328.003906 127.855469 327.1875 126.542969 326.367188 C 125.226562 325.527344 123.960938 324.617188 122.75 323.636719 C 120.324219 321.675781 118.132812 319.425781 116.226562 316.960938 C 108.679688 306.777344 101.6875 296.113281 95.066406 285.261719 C 91.75 279.832031 88.546875 274.335938 85.445312 268.777344 C 82.339844 263.222656 79.421875 257.570312 76.109375 252.105469 C 76.101562 252.09375 76.082031 252.085938 76.066406 252.09375 C 76.050781 252.101562 76.039062 252.121094 76.046875 252.136719 C 78.449219 258.0625 81.4375 263.703125 84.445312 269.324219 C 87.460938 274.945312 90.582031 280.511719 93.816406 286.011719 C 100.300781 297.011719 107.3125 307.667969 114.859375 318.011719 C 116.839844 320.59375 119.117188 322.949219 121.640625 325 C 122.902344 326.027344 124.222656 326.980469 125.589844 327.859375 C 126.976562 328.730469 128.320312 329.523438 129.6875 330.355469 C 135.15625 333.804688 141.542969 335.992188 147.9375 336.652344 C 154.246094 337.535156 160.558594 338.402344 166.875 339.226562 C 173.195312 340 179.464844 341.160156 185.902344 341.125 C 179.726562 339.300781 173.382812 338.671875 167.09375 337.65625 Z M 180.691406 198.144531 C 180.898438 199.511719 181.027344 200.882812 181.066406 202.261719 L 181.125 206.472656 C 181.179688 209.289062 181.199219 212.109375 181.285156 214.929688 C 181.5625 226.203125 181.976562 237.476562 182.851562 248.738281 C 183.25 237.449219 183.1875 226.167969 182.992188 214.890625 C 182.957031 212.070312 182.855469 209.253906 182.792969 206.433594 C 182.757812 205.015625 182.726562 203.632812 182.652344 202.1875 C 182.5625 200.75 182.386719 199.316406 182.113281 197.898438 C 181.828125 196.488281 181.460938 195.09375 181.003906 193.734375 C 180.53125 192.367188 180.011719 191.082031 179.515625 189.753906 C 178.484375 187.125 177.476562 184.492188 176.378906 181.886719 C 177.082031 184.625 177.878906 187.332031 178.648438 190.046875 C 179.441406 192.773438 180.332031 195.40625 180.691406 198.144531 Z M 193.261719 324.070312 C 191.90625 327.046875 190.570312 330.03125 189.328125 333.058594 C 188.078125 336.082031 186.878906 339.132812 185.839844 342.25 C 187.53125 339.433594 189.070312 336.539062 190.554688 333.625 C 192.046875 330.710938 193.445312 327.757812 194.828125 324.792969 C 196.179688 321.816406 197.515625 318.832031 198.757812 315.804688 C 200.007812 312.78125 201.09375 309.597656 202.136719 306.476562 C 200.445312 309.296875 199.019531 312.324219 197.539062 315.242188 C 196.046875 318.152344 194.644531 321.109375 193.261719 324.070312 Z M 238.753906 212.578125 C 239.109375 213.871094 239.515625 215.148438 240.003906 216.402344 C 240.484375 217.660156 241.019531 218.898438 241.722656 220.09375 C 241.714844 218.707031 241.539062 217.367188 241.304688 216.042969 C 241.078125 214.714844 240.773438 213.410156 240.417969 212.121094 C 240.058594 210.832031 239.652344 209.554688 239.164062 208.300781 C 238.683594 207.042969 238.148438 205.800781 237.445312 204.605469 C 237.457031 205.992188 237.632812 207.332031 237.867188 208.65625 C 238.09375 209.984375 238.398438 211.289062 238.753906 212.578125 Z M 233.535156 210.234375 C 233.996094 209.296875 234.414062 208.335938 234.757812 207.339844 C 235.105469 206.347656 235.402344 205.328125 235.546875 204.234375 C 234.761719 205.011719 234.132812 205.863281 233.554688 206.742188 C 232.96875 207.621094 232.457031 208.535156 231.988281 209.46875 C 231.527344 210.40625 231.109375 211.363281 230.769531 212.363281 C 230.417969 213.355469 230.121094 214.375 229.980469 215.46875 C 230.765625 214.695312 231.398438 213.839844 231.976562 212.960938 C 232.5625 212.085938 233.070312 211.171875 233.535156 210.234375 Z M 285.632812 238.050781 C 283.664062 230.582031 281.203125 223.292969 278.617188 216.050781 C 275.980469 208.824219 273.226562 201.640625 269.980469 194.636719 C 271.949219 202.101562 274.410156 209.390625 276.992188 216.636719 C 279.625 223.863281 282.378906 231.046875 285.632812 238.050781 Z M 346.539062 176.796875 C 348.410156 176.511719 350.351562 176.195312 352.242188 175.691406 C 350.28125 175.480469 348.371094 175.417969 346.398438 175.457031 C 344.394531 175.527344 342.40625 175.992188 340.542969 176.753906 C 338.667969 177.59375 337.074219 178.523438 335.375 179.503906 C 333.707031 180.484375 332.0625 181.515625 330.5 182.703125 C 332.382812 182.15625 334.195312 181.457031 335.976562 180.703125 C 336.875 180.339844 337.746094 179.925781 338.628906 179.53125 C 339.515625 179.125 340.355469 178.679688 341.203125 178.347656 C 342.90625 177.625 344.699219 177.128906 346.539062 176.796875 Z M 274.839844 342.488281 C 274.316406 341.71875 273.742188 340.988281 273.117188 340.285156 C 272.496094 339.585938 271.824219 338.917969 271.023438 338.34375 C 271 338.328125 270.972656 338.320312 270.941406 338.328125 C 270.890625 338.339844 270.863281 338.394531 270.875 338.445312 C 271.132812 339.398438 271.523438 340.257812 271.960938 341.089844 C 272.402344 341.917969 272.886719 342.714844 273.421875 343.472656 C 273.957031 344.238281 274.546875 344.960938 275.179688 345.652344 C 275.816406 346.34375 276.5 347.003906 277.316406 347.570312 C 277.070312 346.605469 276.691406 345.734375 276.265625 344.898438 C 275.839844 344.0625 275.371094 343.253906 274.839844 342.488281 Z M 269.441406 346.9375 C 268.925781 346.191406 268.359375 345.484375 267.746094 344.8125 C 267.132812 344.136719 266.472656 343.496094 265.675781 342.949219 C 265.65625 342.9375 265.632812 342.933594 265.613281 342.9375 C 265.570312 342.949219 265.546875 342.992188 265.554688 343.035156 C 265.800781 343.96875 266.179688 344.804688 266.605469 345.613281 C 267.03125 346.417969 267.5 347.191406 268.027344 347.929688 C 268.546875 348.667969 269.125 349.367188 269.75 350.035156 C 270.375 350.703125 271.046875 351.335938 271.851562 351.875 C 271.617188 350.933594 271.25 350.085938 270.835938 349.273438 C 270.417969 348.460938 269.957031 347.675781 269.441406 346.9375 Z M 264.464844 351.703125 C 264.007812 351.035156 263.515625 350.398438 262.949219 349.804688 C 262.480469 349.308594 261.960938 348.847656 261.371094 348.429688 L 261.371094 348.402344 C 261.378906 348.253906 261.402344 348.105469 261.4375 347.96875 C 261.511719 347.6875 261.640625 347.433594 261.816406 347.226562 C 262.339844 346.605469 262.828125 345.886719 263.230469 345.136719 C 263.429688 344.757812 263.609375 344.367188 263.761719 343.960938 C 263.910156 343.523438 264.0625 343.234375 264.128906 342.570312 C 264.210938 341.320312 263.25 340.183594 262.054688 339.988281 C 261.457031 339.882812 260.8125 340.023438 260.320312 340.339844 C 259.929688 340.589844 259.648438 340.792969 259.3125 341.03125 L 258.875 341.34375 C 259.027344 341.042969 259.160156 340.730469 259.273438 340.410156 C 259.492188 339.773438 259.632812 339.113281 259.714844 338.445312 C 259.757812 338.109375 259.769531 337.773438 259.777344 337.4375 L 259.769531 336.933594 L 259.761719 336.679688 C 259.746094 336.566406 259.742188 336.445312 259.707031 336.332031 C 259.496094 335.367188 258.496094 334.695312 257.503906 334.820312 C 257.003906 334.851562 256.523438 335.1875 256.320312 335.308594 L 255.503906 335.808594 L 255.214844 335.996094 C 255.457031 335.3125 255.601562 334.582031 255.667969 333.859375 C 255.699219 333.570312 255.703125 333.101562 255.515625 332.726562 C 255.339844 332.34375 255.035156 332.015625 254.664062 331.808594 C 254.292969 331.601562 253.847656 331.511719 253.410156 331.558594 C 252.96875 331.597656 252.523438 331.867188 252.300781 331.996094 C 251.203125 332.609375 250.117188 333.242188 249.035156 333.886719 C 249.054688 333.839844 249.078125 333.796875 249.09375 333.75 C 249.199219 333.441406 249.292969 333.1875 249.339844 332.800781 C 249.371094 332.433594 249.289062 332.046875 249.101562 331.710938 C 248.722656 331.042969 247.9375 330.597656 247.105469 330.667969 C 246.902344 330.683594 246.695312 330.726562 246.507812 330.804688 L 246.0625 330.988281 L 245.226562 331.347656 C 242.996094 332.300781 240.8125 333.34375 238.636719 334.40625 C 238.136719 334.660156 237.453125 334.988281 236.929688 335.449219 C 236.394531 335.902344 235.925781 336.441406 235.582031 337.050781 C 235.414062 337.351562 235.265625 337.683594 235.15625 337.996094 L 234.847656 338.851562 C 234.640625 339.417969 234.445312 339.992188 234.257812 340.570312 C 233.484375 342.867188 232.765625 345.1875 232.207031 347.570312 C 233.429688 345.449219 234.496094 343.269531 235.503906 341.066406 C 235.761719 340.515625 236.015625 339.964844 236.25 339.40625 L 236.613281 338.574219 C 236.722656 338.324219 236.839844 338.105469 236.980469 337.890625 C 237.261719 337.460938 237.597656 337.070312 237.996094 336.753906 C 238.394531 336.425781 238.820312 336.234375 239.402344 335.953125 C 241.566406 334.863281 243.71875 333.753906 245.824219 332.554688 L 246.617188 332.105469 L 246.988281 331.898438 C 247.074219 331.851562 247.164062 331.8125 247.257812 331.789062 C 247.632812 331.683594 248.105469 331.832031 248.394531 332.175781 C 248.542969 332.34375 248.640625 332.558594 248.671875 332.800781 C 248.699219 333.019531 248.652344 333.359375 248.628906 333.640625 C 248.609375 333.824219 248.570312 334.007812 248.535156 334.191406 C 247.617188 334.742188 246.703125 335.296875 245.792969 335.859375 L 242.609375 337.90625 C 242.039062 338.246094 241.398438 338.828125 241.023438 339.472656 C 240.824219 339.800781 240.667969 340.152344 240.5625 340.515625 L 240.335938 341.46875 C 239.75 343.921875 239.257812 346.40625 238.863281 348.914062 C 238.855469 348.980469 238.890625 349.046875 238.953125 349.074219 C 239.027344 349.101562 239.113281 349.066406 239.140625 348.992188 C 240.101562 346.640625 240.964844 344.261719 241.730469 341.855469 L 242.019531 340.988281 C 242.109375 340.753906 242.21875 340.527344 242.359375 340.324219 C 242.65625 339.894531 242.980469 339.609375 243.503906 339.320312 L 246.714844 337.320312 C 248.832031 335.949219 250.941406 334.5625 253 333.101562 C 253.300781 332.886719 253.402344 332.800781 253.597656 332.75 C 253.78125 332.707031 253.984375 332.722656 254.183594 332.789062 C 254.585938 332.957031 254.839844 333.253906 254.855469 333.871094 C 254.953125 334.667969 254.921875 335.484375 254.757812 336.285156 L 252.273438 337.863281 L 249.09375 339.992188 L 248.308594 340.539062 C 247.964844 340.761719 247.625 341.113281 247.417969 341.496094 C 247.1875 341.878906 247.097656 342.363281 247.050781 342.625 L 246.878906 343.566406 C 246.410156 346.078125 245.996094 348.601562 245.734375 351.160156 C 245.726562 351.214844 245.757812 351.265625 245.8125 351.285156 C 245.875 351.308594 245.945312 351.277344 245.96875 351.214844 C 246.855469 348.800781 247.589844 346.351562 248.269531 343.890625 L 248.527344 342.96875 C 248.625 342.609375 248.65625 342.453125 248.769531 342.292969 C 248.882812 342.125 249 342.007812 249.199219 341.890625 L 250.011719 341.386719 L 253.222656 339.308594 L 256.390625 337.15625 C 256.875 336.835938 257.554688 336.277344 257.699219 336.292969 C 257.976562 336.230469 258.335938 336.394531 258.441406 336.6875 C 258.460938 336.726562 258.464844 336.765625 258.480469 336.808594 L 258.511719 337.035156 L 258.566406 337.484375 C 258.59375 337.785156 258.605469 338.085938 258.617188 338.390625 C 258.632812 338.996094 258.589844 339.601562 258.480469 340.199219 C 258.382812 340.816406 258.203125 341.417969 257.949219 341.996094 L 257.375 342.402344 L 256.410156 343.09375 C 256.089844 343.335938 255.785156 343.527344 255.40625 343.851562 C 254.710938 344.46875 254.191406 345.285156 253.960938 346.171875 L 253.375 348.472656 C 253.027344 350.023438 252.628906 351.554688 252.324219 353.117188 C 252.308594 353.1875 252.347656 353.261719 252.414062 353.289062 C 252.492188 353.324219 252.582031 353.289062 252.617188 353.210938 C 253.246094 351.746094 253.78125 350.257812 254.367188 348.78125 L 255.183594 346.546875 C 255.417969 345.921875 255.8125 345.363281 256.335938 344.96875 L 260.257812 342.417969 L 261.21875 341.78125 C 261.398438 341.675781 261.574219 341.644531 261.757812 341.671875 C 262.136719 341.742188 262.445312 342.117188 262.402344 342.480469 C 262.414062 342.609375 262.277344 343.070312 262.167969 343.375 C 262.050781 343.714844 261.90625 344.046875 261.742188 344.371094 C 261.417969 345.027344 261.015625 345.625 260.550781 346.238281 C 260.234375 346.660156 260.03125 347.144531 259.933594 347.632812 C 259.886719 347.878906 259.863281 348.128906 259.863281 348.378906 L 259.882812 348.988281 C 259.90625 349.78125 259.945312 350.570312 259.988281 351.363281 L 260.117188 353.734375 C 260.1875 354.519531 260.289062 355.414062 260.472656 356.15625 C 260.855469 357.699219 261.183594 359.25 261.613281 360.785156 C 261.546875 359.191406 261.382812 357.617188 261.273438 356.03125 C 261.183594 355.214844 261.1875 354.523438 261.203125 353.726562 L 261.292969 351.351562 C 261.320312 350.6875 261.335938 350.023438 261.347656 349.359375 C 261.488281 349.773438 261.65625 350.171875 261.835938 350.558594 C 262.175781 351.304688 262.585938 352 263.035156 352.671875 C 263.488281 353.335938 263.984375 353.976562 264.550781 354.566406 C 265.109375 355.164062 265.71875 355.726562 266.46875 356.191406 C 266.3125 355.324219 266.015625 354.550781 265.667969 353.8125 C 265.328125 353.066406 264.917969 352.371094 264.464844 351.703125 Z M 277.300781 336.828125 C 276 334.691406 274.628906 332.605469 273.292969 330.488281 C 272.589844 329.46875 271.953125 328.386719 271.078125 327.382812 C 270.238281 326.382812 269.257812 325.515625 268.234375 324.726562 C 267.183594 323.9375 266.121094 323.3125 265.078125 322.613281 C 264.136719 322 263.1875 321.390625 262.226562 320.800781 C 263.183594 320.144531 264.058594 319.378906 264.8125 318.515625 C 264.824219 318.5 264.828125 318.480469 264.8125 318.464844 C 264.800781 318.449219 264.773438 318.445312 264.757812 318.460938 C 263.003906 319.914062 261.011719 321.046875 258.855469 321.59375 C 256.707031 322.164062 254.472656 322.277344 252.265625 322.058594 C 251.714844 322.019531 251.164062 321.925781 250.613281 321.851562 C 250.0625 321.757812 249.554688 321.636719 248.882812 321.566406 C 248.246094 321.507812 247.585938 321.539062 246.933594 321.695312 C 246.273438 321.851562 245.65625 322.152344 245.125 322.515625 C 244.582031 322.882812 244.09375 323.332031 243.695312 323.851562 L 242.703125 325.253906 C 242.050781 326.113281 241.300781 326.886719 240.472656 327.554688 C 238.820312 328.886719 236.816406 329.757812 234.6875 329.984375 C 234.171875 330.050781 233.59375 330.074219 233.113281 330.074219 C 232.753906 330.066406 232.425781 329.914062 232.183594 329.636719 C 231.945312 329.367188 231.808594 328.980469 231.847656 328.617188 C 231.855469 328.4375 231.910156 328.257812 232 328.089844 C 232.078125 327.9375 232.285156 327.632812 232.417969 327.410156 C 234.855469 323.546875 237.203125 319.625 239.4375 315.628906 C 236.597656 319.222656 233.871094 322.890625 231.238281 326.621094 C 231.0625 326.875 230.925781 327.027344 230.722656 327.375 C 230.53125 327.699219 230.402344 328.078125 230.359375 328.460938 C 230.261719 329.230469 230.5 330.023438 230.988281 330.628906 C 231.46875 331.238281 232.242188 331.644531 233.023438 331.6875 C 233.683594 331.714844 234.25 331.703125 234.867188 331.628906 C 237.28125 331.394531 239.664062 330.441406 241.550781 328.890625 C 242.492188 328.117188 243.332031 327.230469 244.046875 326.265625 L 245.019531 324.863281 C 245.3125 324.476562 245.65625 324.125 246.050781 323.84375 C 246.847656 323.246094 247.746094 323.015625 248.765625 323.074219 C 249.234375 323.105469 249.847656 323.214844 250.421875 323.277344 C 251.007812 323.324219 251.589844 323.390625 252.175781 323.402344 C 254.515625 323.523438 256.90625 323.214844 259.117188 322.417969 C 260.054688 322.0625 260.941406 321.597656 261.78125 321.066406 C 263.613281 322.671875 265.613281 324.179688 267.378906 325.746094 C 268.269531 326.5625 269.050781 327.484375 269.773438 328.433594 C 270.464844 329.378906 271.148438 330.425781 271.875 331.453125 C 273.351562 333.46875 274.792969 335.511719 276.300781 337.507812 C 277.808594 339.507812 279.328125 341.496094 280.925781 343.429688 C 280.960938 343.472656 281.019531 343.484375 281.070312 343.457031 C 281.125 343.425781 281.144531 343.355469 281.117188 343.300781 C 279.902344 341.105469 278.609375 338.960938 277.300781 336.828125 Z M 383.445312 174.910156 C 382.878906 175.421875 382.3125 175.9375 381.761719 176.464844 C 381.394531 176.800781 380.875 176.886719 380.429688 176.726562 C 380.207031 176.644531 380.011719 176.507812 379.867188 176.335938 C 379.714844 176.164062 379.648438 175.972656 379.492188 175.566406 L 378.707031 173.4375 C 377.65625 170.601562 376.71875 167.730469 375.851562 164.828125 C 375.003906 161.921875 374.257812 158.980469 373.535156 155.996094 C 373.589844 162.148438 375 168.25 377.085938 174.03125 L 377.921875 176.183594 C 378.039062 176.484375 378.238281 177.027344 378.605469 177.425781 C 378.960938 177.828125 379.417969 178.136719 379.925781 178.28125 C 380.933594 178.597656 382.113281 178.296875 382.828125 177.539062 C 383.359375 176.992188 383.878906 176.433594 384.394531 175.867188 C 386.472656 173.628906 388.503906 171.347656 390.417969 168.945312 C 388 170.835938 385.699219 172.851562 383.445312 174.910156 Z M 402.824219 176.597656 L 405.433594 180.148438 L 406.085938 181.039062 C 406.304688 181.328125 406.492188 181.628906 406.8125 181.964844 C 407.421875 182.601562 408.257812 183.011719 409.140625 183.105469 C 410.003906 183.222656 411 182.929688 411.644531 182.511719 L 413.578125 181.433594 C 414.863281 180.714844 416.140625 179.972656 417.40625 179.210938 C 419.929688 177.679688 422.398438 176.054688 424.800781 174.335938 C 427.191406 172.597656 429.535156 170.800781 431.800781 168.898438 C 434.074219 167.015625 436.292969 165.058594 438.386719 162.972656 C 440.503906 160.914062 442.488281 158.722656 444.414062 156.488281 C 446.300781 154.222656 448.082031 151.871094 449.730469 149.4375 C 446.019531 154 441.984375 158.261719 437.613281 162.148438 C 433.261719 166.050781 428.636719 169.636719 423.804688 172.921875 C 421.414062 174.597656 418.957031 176.179688 416.511719 177.78125 L 412.804688 180.132812 L 410.9375 181.28125 C 410.359375 181.675781 409.867188 181.8125 409.261719 181.785156 C 408.679688 181.75 408.109375 181.503906 407.679688 181.097656 C 407.484375 180.914062 407.25 180.601562 407.015625 180.320312 L 406.324219 179.464844 L 403.546875 176.039062 L 400.734375 172.644531 C 399.769531 171.535156 398.921875 170.328125 397.804688 169.339844 C 398.476562 170.675781 399.425781 171.796875 400.257812 173.011719 Z M 282.609375 290.714844 C 285.636719 297.640625 289.121094 304.316406 292.71875 310.929688 C 296.359375 317.515625 300.117188 324.039062 304.339844 330.3125 C 301.316406 323.382812 297.832031 316.710938 294.230469 310.097656 C 290.585938 303.511719 286.824219 296.988281 282.609375 290.714844 Z M 322.382812 269.382812 C 321.722656 268.777344 321.011719 268.246094 320.277344 267.753906 C 319.539062 267.261719 318.773438 266.816406 317.957031 266.4375 C 317.148438 266.050781 316.308594 265.714844 315.375 265.523438 C 315.914062 266.3125 316.546875 266.957031 317.214844 267.554688 C 317.875 268.160156 318.585938 268.695312 319.320312 269.1875 C 320.058594 269.679688 320.824219 270.128906 321.636719 270.503906 C 322.445312 270.890625 323.285156 271.226562 324.222656 271.417969 C 323.683594 270.628906 323.050781 269.980469 322.382812 269.382812 Z M 106.871094 364.367188 L 106.871094 345.09375 C 106.292969 345.058594 105.71875 345.023438 105.144531 344.976562 L 105.144531 464.070312 L 106.871094 464.070312 L 106.871094 366.554688 C 106.960938 366.519531 107.054688 366.476562 107.136719 366.40625 L 131.296875 346.152344 C 130.421875 346.140625 129.558594 346.117188 128.695312 346.082031 Z M 106.871094 364.367188 " fill-opacity="1" fill-rule="nonzero"/></g></svg>