<svg xmlns="http://www.w3.org/2000/svg" xmlns:xlink="http://www.w3.org/1999/xlink" width="877" zoomAndPan="magnify" viewBox="0 0 657.75 496.499985" height="662" preserveAspectRatio="xMidYMid meet" version="1.0"><defs><clipPath id="71738e79f0"><path d="M 203.164062 48.058594 L 523.09375 48.058594 L 523.09375 371.730469 L 203.164062 371.730469 Z M 203.164062 48.058594 " clip-rule="nonzero"/></clipPath></defs><path fill="#00ff00" d="M 257.339844 113.980469 C 264.074219 110.421875 259.457031 74.945312 282.230469 45.136719 C 310.75 7.992188 510.164062 23.5 554.492188 83.339844 C 586.871094 126.992188 534.75 148.324219 588.914062 236.003906 C 656.546875 345.695312 574.617188 382.308594 471.730469 382.613281 C 427.703125 382.761719 390.785156 332.53125 300.914062 382.460938 C 111.5625 487.539062 0.207031 251.207031 257.339844 113.980469 Z M 257.339844 113.980469 " fill-opacity="1" fill-rule="evenodd"/><path fill="#373435" d="M 286.085938 87.425781 C 286.996094 87.199219 288.960938 82.734375 291.914062 76.230469 C 297.8125 63.066406 306.816406 43.019531 326.257812 27.890625 C 328.222656 26.375 330.570312 25.089844 333.292969 24.03125 C 356.0625 14.878906 404.933594 23.199219 453.804688 41.355469 C 502.445312 59.433594 551.46875 87.351562 574.84375 117.460938 C 579.535156 123.511719 583.238281 129.640625 585.660156 135.84375 C 594.964844 159.140625 589.214844 173.515625 582.257812 190.839844 C 573.859375 212.023438 563.496094 237.894531 580.136719 292.589844 C 589.820312 324.511719 591.257812 349.402344 586.265625 368.464844 C 583.011719 380.796875 577.1875 390.707031 569.167969 398.347656 C 561.152344 406.0625 551.089844 411.511719 539.4375 414.992188 C 509.179688 424.21875 467.949219 420.511719 424.828125 409.316406 C 411.0625 405.683594 399.636719 397.667969 387.15625 389.042969 C 360.375 370.355469 328.980469 348.417969 261.578125 365.589844 C 192.734375 383.066406 140.761719 367.710938 111.5625 336.464844 C 98.550781 322.546875 90.078125 305.601562 86.597656 286.914062 C 83.117188 268.378906 84.707031 248.183594 91.667969 227.832031 C 111.03125 171.699219 172.308594 114.355469 286.085938 87.425781 Z M 298.871094 79.332031 C 295.089844 87.878906 292.367188 93.855469 287.828125 94.914062 C 177 121.164062 117.539062 176.390625 98.929688 230.328125 C 92.347656 249.390625 90.910156 268.230469 94.164062 285.554688 C 97.339844 302.726562 105.132812 318.460938 117.160156 331.246094 C 144.546875 360.597656 193.871094 374.894531 259.683594 358.101562 C 330.492188 340.097656 363.476562 363.09375 391.542969 382.6875 C 403.421875 391.007812 414.390625 398.648438 426.796875 401.828125 C 468.628906 412.796875 508.421875 416.425781 537.246094 407.726562 C 547.683594 404.476562 556.761719 399.632812 563.796875 392.824219 C 570.832031 386.09375 575.976562 377.390625 578.851562 366.5 C 583.46875 348.796875 582.03125 325.269531 572.800781 294.78125 C 555.402344 237.515625 566.292969 210.28125 575.144531 187.964844 C 581.5 172.230469 586.71875 159.066406 578.550781 138.714844 C 576.355469 133.195312 573.027344 127.671875 568.792969 122.148438 C 546.324219 93.25 498.664062 66.242188 451.15625 48.542969 C 403.875 30.992188 357.121094 22.746094 336.089844 31.140625 C 334.125 31.898438 332.386719 32.882812 330.949219 34.015625 C 313.019531 47.9375 304.46875 66.847656 298.871094 79.332031 Z M 298.871094 79.332031 " fill-opacity="1" fill-rule="nonzero"/><path fill="#75e075" d="M 302.515625 216.417969 L 356.496094 216.417969 L 356.496094 358.25 L 302.515625 358.25 Z M 302.515625 216.417969 " fill-opacity="1" fill-rule="evenodd"/><path fill="#90ef90" d="M 308.898438 216.417969 L 356.496094 216.417969 L 356.496094 358.25 L 308.898438 358.25 Z M 308.898438 216.417969 " fill-opacity="1" fill-rule="evenodd"/><path fill="#fce77c" d="M 376.386719 170.980469 L 430.367188 170.980469 L 430.367188 358.25 L 376.386719 358.25 Z M 376.386719 170.980469 " fill-opacity="1" fill-rule="evenodd"/><path fill="#fff28f" d="M 382.769531 170.980469 L 430.367188 170.980469 L 430.367188 358.25 L 382.769531 358.25 Z M 382.769531 170.980469 " fill-opacity="1" fill-rule="evenodd"/><path fill="#4eb1fc" d="M 450.261719 77.355469 L 504.242188 77.355469 L 504.242188 358.25 L 450.261719 358.25 Z M 450.261719 77.355469 " fill-opacity="1" fill-rule="evenodd"/><path fill="#78c5ff" d="M 456.644531 77.355469 L 504.242188 77.355469 L 504.242188 358.25 L 456.644531 358.25 Z M 456.644531 77.355469 " fill-opacity="1" fill-rule="evenodd"/><path fill="#ed405d" d="M 228.640625 261.878906 L 282.601562 261.878906 L 282.601562 358.25 L 228.640625 358.25 Z M 228.640625 261.878906 " fill-opacity="1" fill-rule="evenodd"/><path fill="#f7516d" d="M 235.023438 261.878906 L 282.601562 261.878906 L 282.601562 358.25 L 235.023438 358.25 Z M 235.023438 261.878906 " fill-opacity="1" fill-rule="evenodd"/><path fill="#8893a3" d="M 211.273438 347.039062 L 518.511719 347.039062 L 518.511719 367.066406 L 211.273438 367.066406 Z M 211.273438 347.039062 " fill-opacity="1" fill-rule="evenodd"/><path fill="#939dab" d="M 217.65625 347.039062 L 518.511719 347.039062 L 518.511719 367.066406 L 217.65625 367.066406 Z M 217.65625 347.039062 " fill-opacity="1" fill-rule="evenodd"/><path fill="#edbdb0" d="M 268.945312 52.722656 C 235.136719 52.722656 207.746094 80.121094 207.746094 113.9375 C 207.746094 147.757812 235.136719 175.175781 268.945312 175.175781 C 302.753906 175.175781 330.164062 147.757812 330.164062 113.9375 C 330.164062 80.121094 302.753906 52.722656 268.945312 52.722656 Z M 268.945312 52.722656 " fill-opacity="1" fill-rule="evenodd"/><path fill="#ffcec0" d="M 272.136719 175.082031 C 304.460938 173.429688 330.164062 146.683594 330.164062 113.9375 C 330.164062 81.195312 304.460938 54.449219 272.136719 52.796875 C 239.8125 54.449219 214.128906 81.195312 214.128906 113.9375 C 214.128906 146.683594 239.8125 173.429688 272.136719 175.082031 Z M 272.136719 175.082031 " fill-opacity="1" fill-rule="evenodd"/><path fill="#eceff1" d="M 233.707031 133.613281 C 240.609375 145.957031 253.804688 154.3125 268.945312 154.3125 C 284.085938 154.3125 297.28125 145.957031 304.183594 133.613281 Z M 233.707031 133.613281 " fill-opacity="1" fill-rule="evenodd"/><g clip-path="url(#71738e79f0)"><path fill="#000000" d="M 428.898438 88.9375 C 428.898438 88.984375 428.898438 89.03125 428.894531 89.074219 C 428.894531 89.214844 428.886719 89.355469 428.871094 89.496094 C 428.863281 89.542969 428.859375 89.589844 428.851562 89.640625 C 428.824219 89.828125 428.789062 90.019531 428.738281 90.203125 L 421.398438 117.628906 C 420.847656 119.679688 418.996094 121.03125 416.972656 121.03125 C 416.582031 121.03125 416.183594 120.980469 415.785156 120.875 C 413.339844 120.21875 411.886719 117.707031 412.542969 115.257812 L 415.285156 105.011719 C 330.066406 192.617188 292.542969 206.992188 241.492188 226.546875 C 236.890625 228.308594 232.128906 230.132812 227.230469 232.046875 C 226.683594 232.265625 226.117188 232.367188 225.5625 232.367188 C 223.730469 232.367188 222 231.257812 221.292969 229.449219 C 220.371094 227.089844 221.535156 224.429688 223.890625 223.507812 C 228.820312 221.578125 233.597656 219.75 238.214844 217.984375 C 290.214844 198.066406 325.316406 184.613281 409.640625 97.667969 L 398.058594 100.769531 C 395.613281 101.425781 393.101562 99.972656 392.445312 97.527344 C 391.792969 95.082031 393.242188 92.566406 395.6875 91.914062 L 423.132812 84.5625 C 423.15625 84.558594 423.179688 84.554688 423.203125 84.550781 C 423.355469 84.511719 423.507812 84.480469 423.660156 84.457031 C 423.691406 84.453125 423.71875 84.449219 423.746094 84.445312 C 423.921875 84.421875 424.09375 84.414062 424.269531 84.410156 C 424.328125 84.410156 424.382812 84.414062 424.4375 84.414062 C 424.566406 84.417969 424.695312 84.425781 424.820312 84.441406 C 424.875 84.445312 424.929688 84.453125 424.984375 84.460938 C 425.339844 84.511719 425.683594 84.605469 426.019531 84.738281 C 426.0625 84.753906 426.101562 84.773438 426.144531 84.792969 C 426.273438 84.847656 426.398438 84.910156 426.523438 84.976562 C 426.566406 85 426.605469 85.023438 426.648438 85.046875 C 426.792969 85.132812 426.929688 85.222656 427.066406 85.324219 C 427.078125 85.335938 427.09375 85.34375 427.109375 85.355469 C 427.234375 85.453125 427.355469 85.554688 427.472656 85.667969 C 427.492188 85.683594 427.503906 85.699219 427.523438 85.71875 C 427.535156 85.730469 427.546875 85.738281 427.558594 85.75 C 427.585938 85.777344 427.605469 85.804688 427.628906 85.832031 C 427.726562 85.933594 427.816406 86.035156 427.902344 86.144531 C 427.9375 86.183594 427.96875 86.222656 428 86.265625 C 428.097656 86.398438 428.1875 86.53125 428.269531 86.671875 C 428.277344 86.6875 428.289062 86.703125 428.296875 86.71875 C 428.390625 86.882812 428.472656 87.050781 428.542969 87.21875 C 428.554688 87.25 428.566406 87.277344 428.578125 87.304688 C 428.632812 87.445312 428.679688 87.589844 428.722656 87.734375 C 428.734375 87.78125 428.746094 87.824219 428.757812 87.871094 C 428.796875 88.019531 428.828125 88.171875 428.847656 88.324219 C 428.851562 88.351562 428.859375 88.378906 428.863281 88.40625 C 428.886719 88.582031 428.898438 88.757812 428.898438 88.9375 Z M 523.09375 347.039062 L 523.09375 367.066406 C 523.09375 369.597656 521.042969 371.652344 518.511719 371.652344 L 211.273438 371.652344 C 208.742188 371.652344 206.6875 369.597656 206.6875 367.066406 L 206.6875 347.039062 C 206.6875 344.507812 208.742188 342.453125 211.273438 342.453125 L 224.039062 342.453125 L 224.039062 261.878906 C 224.039062 259.34375 226.089844 257.292969 228.621094 257.292969 L 282.601562 257.292969 C 285.132812 257.292969 287.1875 259.34375 287.1875 261.878906 L 287.1875 342.453125 L 297.929688 342.453125 L 297.929688 216.417969 C 297.929688 213.886719 299.984375 211.832031 302.515625 211.832031 L 356.476562 211.832031 C 359.007812 211.832031 361.058594 213.886719 361.058594 216.417969 L 361.058594 342.453125 L 371.804688 342.453125 L 371.804688 170.980469 C 371.804688 168.449219 373.855469 166.394531 376.386719 166.394531 L 430.367188 166.394531 C 432.898438 166.394531 434.953125 168.449219 434.953125 170.980469 L 434.953125 342.453125 L 445.675781 342.453125 L 445.675781 77.355469 C 445.675781 74.820312 447.730469 72.769531 450.261719 72.769531 L 504.242188 72.769531 C 506.773438 72.769531 508.824219 74.820312 508.824219 77.355469 L 508.824219 342.453125 L 518.511719 342.453125 C 521.042969 342.453125 523.09375 344.507812 523.09375 347.039062 Z M 454.84375 342.453125 L 499.65625 342.453125 L 499.65625 81.9375 L 454.84375 81.9375 Z M 380.972656 342.453125 L 425.785156 342.453125 L 425.785156 175.566406 L 380.972656 175.566406 Z M 307.097656 342.453125 L 351.894531 342.453125 L 351.894531 221.003906 L 307.097656 221.003906 Z M 233.207031 342.453125 L 278.019531 342.453125 L 278.019531 266.460938 L 233.207031 266.460938 Z M 513.925781 351.625 L 215.855469 351.625 L 215.855469 362.480469 L 513.925781 362.480469 Z M 203.164062 113.9375 C 203.164062 77.65625 232.671875 48.136719 268.945312 48.136719 C 305.226562 48.136719 334.746094 77.65625 334.746094 113.9375 C 334.746094 150.234375 305.226562 179.757812 268.945312 179.757812 C 232.671875 179.757812 203.164062 150.234375 203.164062 113.9375 Z M 212.328125 113.9375 C 212.328125 145.175781 237.726562 170.589844 268.945312 170.589844 C 300.175781 170.589844 325.578125 145.175781 325.578125 113.9375 C 325.578125 82.710938 300.175781 57.308594 268.945312 57.308594 C 237.726562 57.308594 212.328125 82.710938 212.328125 113.9375 Z M 233.707031 129.03125 L 304.183594 129.03125 C 305.808594 129.03125 307.316406 129.890625 308.136719 131.296875 C 308.960938 132.699219 308.976562 134.433594 308.183594 135.851562 C 300.234375 150.066406 285.199219 158.894531 268.945312 158.894531 C 252.691406 158.894531 237.65625 150.066406 229.707031 135.851562 C 228.914062 134.433594 228.929688 132.699219 229.753906 131.296875 C 230.574219 129.890625 232.082031 129.03125 233.707031 129.03125 Z M 242.65625 138.199219 C 249.355469 145.449219 258.855469 149.726562 268.945312 149.726562 C 279.035156 149.726562 288.535156 145.449219 295.234375 138.199219 Z M 293.070312 117.316406 L 298.636719 104.324219 L 311.625 98.773438 L 298.636719 93.207031 L 293.070312 80.210938 L 287.503906 93.207031 L 274.511719 98.773438 L 287.503906 104.324219 Z M 244.820312 117.316406 L 250.390625 104.324219 L 263.378906 98.773438 L 250.390625 93.207031 L 244.820312 80.210938 L 239.253906 93.207031 L 226.265625 98.773438 L 239.253906 104.324219 Z M 244.820312 117.316406 " fill-opacity="1" fill-rule="nonzero"/></g></svg>