<svg xmlns="http://www.w3.org/2000/svg" xmlns:xlink="http://www.w3.org/1999/xlink" width="559" zoomAndPan="magnify" viewBox="0 0 419.25 470.999988" height="628" preserveAspectRatio="xMidYMid meet" version="1.0"><defs><clipPath id="f8fb739dc6"><path d="M 1 6 L 409 6 L 409 469.832031 L 1 469.832031 Z M 1 6 " clip-rule="nonzero"/></clipPath><clipPath id="8688e51660"><path d="M 6 38 L 388.757812 38 L 388.757812 430 L 6 430 Z M 6 38 " clip-rule="nonzero"/></clipPath></defs><g clip-path="url(#f8fb739dc6)"><path fill="#a3e635" d="M 149.117188 25.039062 C 122.386719 41.085938 105.90625 76.632812 119.007812 104.917969 C 124.890625 117.628906 128.039062 119.128906 127.105469 127.242188 C 124.410156 150.734375 77.273438 146.65625 40.757812 184.773438 C 36.753906 188.953125 2.917969 222.4375 14.277344 252.234375 C 17.640625 261.0625 23.71875 268.554688 28.269531 276.839844 C 41.78125 301.453125 40.484375 333.5 25.019531 356.941406 C 16.785156 369.417969 4.621094 380.261719 2.164062 395.011719 C 0 408.011719 6.292969 421.34375 15.773438 430.503906 C 25.253906 439.660156 37.566406 445.273438 49.910156 449.902344 C 80.09375 461.230469 112.089844 467.71875 144.304688 469.054688 C 162.933594 469.828125 181.886719 468.839844 199.640625 463.140625 C 221.605469 456.085938 235.914062 445.253906 261.515625 423.246094 C 324.515625 369.097656 356.449219 341.222656 377.847656 301.988281 C 384.175781 290.382812 391.691406 276.421875 397.757812 256.308594 C 417.902344 189.542969 408.871094 98.859375 366.136719 79.460938 C 338.683594 67 322.785156 95.511719 288.835938 82.972656 C 247.828125 67.824219 250.96875 18.804688 211.265625 8.273438 C 181.789062 0.457031 155.089844 21.453125 149.117188 25.039062 Z M 149.117188 25.039062 " fill-opacity="1" fill-rule="nonzero"/></g><path fill="#ff6c52" d="M 306.863281 87.257812 C 318.613281 87.257812 328.167969 96.835938 328.167969 108.601562 L 328.167969 392.984375 L 348.460938 394.203125 C 352.839844 394.570312 356.585938 391.136719 356.84375 386.757812 L 374.78125 87.582031 C 375.039062 83.21875 371.695312 79.445312 367.339844 79.1875 L 268.152344 73.226562 L 269.921875 87.257812 Z M 306.863281 87.257812 " fill-opacity="1" fill-rule="nonzero"/><path fill="#ffdc69" d="M 252.882812 59.160156 C 252.625 57.054688 251.539062 55.179688 249.867188 53.878906 C 248.476562 52.785156 246.78125 52.210938 245.058594 52.210938 C 244.707031 52.210938 244.375 52.238281 244.046875 52.28125 L 26.355469 79.8125 C 24.265625 80.070312 22.378906 81.148438 21.09375 82.824219 C 19.785156 84.5 19.226562 86.585938 19.492188 88.691406 L 57.003906 386.03125 C 57.542969 390.367188 61.589844 393.398438 65.863281 392.910156 L 66.15625 392.875 L 66.15625 108.601562 C 66.15625 96.835938 75.726562 87.257812 87.476562 87.257812 L 256.4375 87.257812 Z M 252.882812 59.160156 " fill-opacity="1" fill-rule="nonzero"/><path fill="#e9f3ff" d="M 314.78125 108.601562 C 314.78125 104.230469 311.226562 100.664062 306.863281 100.664062 L 87.46875 100.664062 C 83.089844 100.664062 79.535156 104.222656 79.535156 108.601562 L 79.535156 408.308594 C 79.535156 412.691406 83.089844 416.25 87.46875 416.25 L 306.871094 416.25 C 311.226562 416.25 314.785156 412.691406 314.785156 408.308594 L 314.785156 108.601562 Z M 287.445312 334.964844 C 291.140625 334.964844 294.140625 337.972656 294.140625 341.671875 C 294.140625 345.375 291.140625 348.378906 287.445312 348.378906 L 270.117188 348.378906 C 266.421875 348.378906 263.421875 345.375 263.421875 341.671875 C 263.421875 337.972656 266.421875 334.964844 270.117188 334.964844 Z M 248.46875 348.371094 L 106.886719 348.371094 C 103.1875 348.371094 100.1875 345.367188 100.1875 341.664062 C 100.1875 337.964844 103.1875 334.960938 106.886719 334.960938 L 248.46875 334.960938 C 252.164062 334.960938 255.164062 337.964844 255.164062 341.664062 C 255.164062 345.367188 252.164062 348.371094 248.46875 348.371094 Z M 106.886719 369.859375 L 287.445312 369.859375 C 291.140625 369.859375 294.140625 372.863281 294.140625 376.566406 C 294.140625 380.265625 291.140625 383.269531 287.445312 383.269531 L 106.886719 383.269531 C 103.1875 383.269531 100.1875 380.265625 100.1875 376.566406 C 100.1875 372.863281 103.1875 369.859375 106.886719 369.859375 Z M 220.875 133.917969 C 220.875 130.214844 223.875 127.210938 227.570312 127.210938 C 261.496094 127.210938 289.089844 154.84375 289.089844 188.816406 C 289.089844 192.515625 286.089844 195.523438 282.390625 195.523438 L 227.566406 195.523438 C 223.867188 195.523438 220.867188 192.515625 220.867188 188.816406 L 220.867188 133.917969 Z M 203.410156 151.535156 C 207.105469 151.535156 210.109375 154.542969 210.109375 158.242188 L 210.109375 206.441406 L 258.238281 206.441406 C 261.933594 206.441406 264.933594 209.445312 264.933594 213.148438 C 264.933594 247.207031 237.339844 274.910156 203.417969 274.910156 C 169.40625 274.910156 141.742188 247.207031 141.742188 213.148438 C 141.734375 179.167969 169.398438 151.535156 203.410156 151.535156 Z M 224.78125 300.089844 C 228.476562 300.089844 231.476562 303.09375 231.476562 306.796875 C 231.476562 310.496094 228.476562 313.503906 224.78125 313.503906 L 106.886719 313.503906 C 103.1875 313.503906 100.1875 310.496094 100.1875 306.796875 C 100.1875 303.09375 103.1875 300.089844 106.886719 300.089844 Z M 106.800781 151.265625 L 128.167969 151.265625 C 131.867188 151.265625 134.867188 154.269531 134.867188 157.96875 C 134.867188 161.671875 131.867188 164.675781 128.167969 164.675781 L 106.800781 164.675781 C 103.101562 164.675781 100.101562 161.671875 100.101562 157.96875 C 100.109375 154.269531 103.101562 151.265625 106.800781 151.265625 Z M 106.800781 151.265625 " fill-opacity="1" fill-rule="nonzero"/><path fill="#00b3d9" d="M 203.410156 261.496094 C 227.695312 261.496094 247.828125 243.351562 251.089844 219.847656 L 203.410156 219.847656 C 199.714844 219.847656 196.714844 216.84375 196.714844 213.140625 L 196.714844 165.402344 C 173.246094 168.667969 155.121094 188.828125 155.121094 213.140625 C 155.121094 239.808594 176.785156 261.496094 203.410156 261.496094 Z M 203.410156 261.496094 " fill-opacity="1" fill-rule="nonzero"/><path fill="#ffdc69" d="M 275.226562 182.109375 C 272.261719 160.882812 255.460938 144.046875 234.261719 141.078125 L 234.261719 182.109375 Z M 275.226562 182.109375 " fill-opacity="1" fill-rule="nonzero"/><g clip-path="url(#8688e51660)"><path fill="#342c67" d="M 64.84375 406.375 C 65.273438 406.375 65.71875 406.316406 66.148438 406.296875 L 66.148438 408.316406 C 66.148438 420.089844 75.71875 429.664062 87.46875 429.664062 L 306.871094 429.664062 C 318.621094 429.664062 328.175781 420.089844 328.175781 408.316406 L 328.175781 406.425781 L 347.664062 407.597656 C 348.101562 407.625 348.515625 407.632812 348.953125 407.632812 C 360.109375 407.632812 369.527344 398.875 370.203125 387.5625 L 388.140625 88.386719 C 388.859375 76.648438 379.878906 66.515625 368.148438 65.804688 L 266.449219 59.691406 L 266.167969 57.484375 C 265.453125 51.820312 262.582031 46.777344 258.078125 43.28125 C 253.5625 39.78125 247.914062 38.257812 242.359375 38.976562 L 24.6875 66.507812 C 19.039062 67.226562 14 70.09375 10.519531 74.609375 C 7.03125 79.117188 5.5 84.707031 6.210938 90.363281 L 43.726562 387.707031 C 45.074219 398.472656 54.277344 406.375 64.84375 406.375 Z M 314.78125 408.308594 C 314.78125 412.691406 311.226562 416.25 306.863281 416.25 L 87.46875 416.25 C 83.089844 416.25 79.535156 412.691406 79.535156 408.308594 L 79.535156 108.601562 C 79.535156 104.230469 83.089844 100.664062 87.46875 100.664062 L 306.871094 100.664062 C 311.226562 100.664062 314.785156 104.222656 314.785156 108.601562 L 314.785156 408.308594 Z M 367.339844 79.1875 C 371.695312 79.445312 375.039062 83.21875 374.78125 87.582031 L 356.84375 386.757812 C 356.585938 391.128906 352.832031 394.570312 348.460938 394.203125 L 328.167969 392.984375 L 328.167969 108.601562 C 328.167969 96.835938 318.613281 87.257812 306.863281 87.257812 L 269.917969 87.257812 L 268.144531 73.226562 Z M 21.085938 82.816406 C 22.378906 81.140625 24.257812 80.070312 26.347656 79.804688 L 244.039062 52.273438 C 244.367188 52.230469 244.699219 52.203125 245.050781 52.203125 C 246.773438 52.203125 248.46875 52.777344 249.859375 53.871094 C 251.53125 55.171875 252.617188 57.046875 252.875 59.152344 L 256.421875 87.257812 L 87.46875 87.257812 C 75.71875 87.257812 66.148438 96.835938 66.148438 108.601562 L 66.148438 392.867188 L 65.855469 392.902344 C 61.585938 393.390625 57.542969 390.367188 56.996094 386.023438 L 19.484375 88.683594 C 19.21875 86.585938 19.777344 84.5 21.085938 82.816406 Z M 21.085938 82.816406 " fill-opacity="1" fill-rule="nonzero"/></g><path fill="#342c67" d="M 203.410156 274.902344 C 237.335938 274.902344 264.925781 247.199219 264.925781 213.140625 C 264.925781 209.4375 261.925781 206.433594 258.230469 206.433594 L 210.101562 206.433594 L 210.101562 158.242188 C 210.101562 154.542969 207.101562 151.535156 203.402344 151.535156 C 169.394531 151.535156 141.726562 179.167969 141.726562 213.140625 C 141.734375 247.199219 169.398438 274.902344 203.410156 274.902344 Z M 196.714844 165.402344 L 196.714844 213.140625 C 196.714844 216.84375 199.714844 219.847656 203.410156 219.847656 L 251.085938 219.847656 C 247.828125 243.351562 227.695312 261.496094 203.410156 261.496094 C 176.792969 261.496094 155.121094 239.808594 155.121094 213.140625 C 155.121094 188.828125 173.246094 168.671875 196.714844 165.402344 Z M 196.714844 165.402344 " fill-opacity="1" fill-rule="nonzero"/><path fill="#342c67" d="M 227.566406 195.523438 L 282.390625 195.523438 C 286.089844 195.523438 289.089844 192.515625 289.089844 188.816406 C 289.089844 154.84375 261.496094 127.210938 227.570312 127.210938 C 223.875 127.210938 220.875 130.214844 220.875 133.917969 L 220.875 188.824219 C 220.875 192.515625 223.875 195.523438 227.566406 195.523438 Z M 234.261719 141.078125 C 255.460938 144.046875 272.261719 160.882812 275.226562 182.109375 L 234.261719 182.109375 Z M 234.261719 141.078125 " fill-opacity="1" fill-rule="nonzero"/><path fill="#342c67" d="M 106.800781 164.667969 L 128.167969 164.667969 C 131.867188 164.667969 134.867188 161.664062 134.867188 157.964844 C 134.867188 154.261719 131.867188 151.257812 128.167969 151.257812 L 106.800781 151.257812 C 103.101562 151.257812 100.101562 154.261719 100.101562 157.964844 C 100.109375 161.671875 103.101562 164.667969 106.800781 164.667969 Z M 106.800781 164.667969 " fill-opacity="1" fill-rule="nonzero"/><path fill="#342c67" d="M 106.886719 313.496094 L 224.78125 313.496094 C 228.476562 313.496094 231.476562 310.492188 231.476562 306.789062 C 231.476562 303.085938 228.476562 300.082031 224.78125 300.082031 L 106.886719 300.082031 C 103.1875 300.082031 100.1875 303.085938 100.1875 306.789062 C 100.195312 310.496094 103.1875 313.496094 106.886719 313.496094 Z M 106.886719 313.496094 " fill-opacity="1" fill-rule="nonzero"/><path fill="#342c67" d="M 106.886719 348.371094 L 248.46875 348.371094 C 252.164062 348.371094 255.164062 345.367188 255.164062 341.664062 C 255.164062 337.964844 252.164062 334.960938 248.46875 334.960938 L 106.886719 334.960938 C 103.1875 334.960938 100.1875 337.964844 100.1875 341.664062 C 100.1875 345.367188 103.1875 348.371094 106.886719 348.371094 Z M 106.886719 348.371094 " fill-opacity="1" fill-rule="nonzero"/><path fill="#342c67" d="M 287.445312 369.859375 L 106.886719 369.859375 C 103.1875 369.859375 100.1875 372.863281 100.1875 376.566406 C 100.1875 380.265625 103.1875 383.269531 106.886719 383.269531 L 287.445312 383.269531 C 291.140625 383.269531 294.140625 380.265625 294.140625 376.566406 C 294.140625 372.863281 291.140625 369.859375 287.445312 369.859375 Z M 287.445312 369.859375 " fill-opacity="1" fill-rule="nonzero"/><path fill="#342c67" d="M 287.445312 334.964844 L 270.117188 334.964844 C 266.421875 334.964844 263.421875 337.972656 263.421875 341.671875 C 263.421875 345.375 266.421875 348.378906 270.117188 348.378906 L 287.445312 348.378906 C 291.140625 348.378906 294.140625 345.375 294.140625 341.671875 C 294.140625 337.972656 291.140625 334.964844 287.445312 334.964844 Z M 287.445312 334.964844 " fill-opacity="1" fill-rule="nonzero"/></svg>