<svg xmlns="http://www.w3.org/2000/svg" xmlns:xlink="http://www.w3.org/1999/xlink" width="711" zoomAndPan="magnify" viewBox="0 0 533.25 450.749982" height="601" preserveAspectRatio="xMidYMid meet" version="1.0"><defs><clipPath id="cf768b324c"><path d="M 41 65 L 510.136719 65 L 510.136719 439 L 41 439 Z M 41 65 " clip-rule="nonzero"/></clipPath><clipPath id="7b799be601"><path d="M 21.824219 102 L 476 102 L 476 383 L 21.824219 383 Z M 21.824219 102 " clip-rule="nonzero"/></clipPath><clipPath id="c7cbbb207c"><path d="M 92 62.824219 L 510 62.824219 L 510 447 L 92 447 Z M 92 62.824219 " clip-rule="nonzero"/></clipPath></defs><path fill="#a3e635" d="M 182.546875 17.851562 C 162.480469 22.167969 141.726562 32.304688 120.328125 48.078125 C 120.238281 48.140625 120.15625 48.195312 120.0625 48.253906 C 119.988281 48.296875 119.933594 48.363281 119.90625 48.4375 L 119.886719 48.441406 C 77.6875 95.898438 20.03125 185.429688 18.167969 256.140625 C 16.261719 328.726562 36.417969 380.542969 76.203125 409.976562 C 93.714844 422.933594 113.730469 427.183594 134.710938 425.019531 C 139.949219 424.480469 145.171875 423.863281 150.273438 422.765625 C 154.070312 421.949219 157.808594 420.863281 161.441406 419.339844 C 203.773438 401.597656 234.925781 389.949219 255.265625 385.578125 C 257.53125 385.089844 259.660156 384.695312 261.65625 384.390625 C 272.566406 382.722656 287.320312 380.605469 305.558594 382.878906 C 375.5 391.605469 413.761719 394.953125 422.421875 394.019531 C 428.757812 393.339844 434.898438 392.40625 440.820312 391.132812 C 458.464844 387.335938 474.207031 380.507812 487.515625 368.203125 C 514.851562 342.941406 529.242188 310.886719 530.527344 273.269531 C 531.835938 234.996094 519.023438 205.066406 493.726562 183.226562 C 484.984375 175.679688 476.277344 169.148438 466.371094 166.441406 C 399.90625 148.269531 359.445312 135.601562 347.652344 125.050781 L 347.628906 125.054688 C 347.597656 124.972656 347.535156 124.902344 347.453125 124.863281 C 328.28125 115.234375 298.097656 83.847656 254.367188 34.171875 C 247.347656 26.195312 238.632812 21.382812 230.25 19.023438 L 230.246094 19.023438 C 230.234375 19.019531 230.222656 19.015625 230.210938 19.011719 C 214.808594 14.6875 198.910156 14.335938 182.546875 17.851562 Z M 182.546875 17.851562 " fill-opacity="0.996" fill-rule="nonzero"/><path fill="#000000" d="M 158.875 22.382812 C 202.273438 2.828125 240.921875 0.261719 273.421875 17.40625 C 281.722656 21.785156 289.828125 28.832031 295.433594 38.851562 C 327.085938 95.433594 348.6875 130 363.753906 141.902344 C 363.996094 142.09375 364.207031 142.324219 364.382812 142.578125 C 371.621094 153.332031 405.449219 172.851562 466.347656 204.453125 C 476.359375 209.652344 483.894531 218.496094 490.65625 227.453125 C 511.222656 254.691406 517.457031 287.328125 508.082031 324.667969 C 498.878906 361.332031 477.882812 389.929688 445.628906 409.015625 C 424.042969 421.785156 400.417969 423.539062 375.496094 420.921875 C 366.296875 419.957031 330.023438 408.695312 266.195312 386.40625 C 250.222656 380.828125 236.519531 379.859375 225.976562 379.226562 C 207.378906 378.101562 174.261719 382.691406 125.683594 391.789062 C 116.019531 393.597656 106.460938 392.746094 97.652344 391.785156 C 76.234375 389.441406 56.832031 380.824219 41.871094 363.835938 C 8.621094 326.078125 0.308594 270.914062 17.078125 201.820312 C 33.765625 133.058594 108.488281 58.820312 158.175781 22.640625 C 159.511719 21.667969 161.390625 21.960938 162.363281 23.300781 C 163.339844 24.640625 163.042969 26.515625 161.707031 27.492188 C 112.25 63.503906 39.066406 136.660156 22.90625 203.238281 C 6.390625 271.285156 14.910156 324.140625 46.375 359.871094 C 60.203125 375.574219 78.144531 383.613281 98.304688 385.820312 C 107.117188 386.785156 115.878906 387.519531 124.578125 385.890625 C 172.984375 376.828125 206.863281 372.0625 226.339844 373.238281 C 236.980469 373.878906 251.378906 374.875 268.175781 380.742188 C 332.4375 403.183594 367.8125 414.082031 376.121094 414.953125 C 400.414062 417.503906 422.550781 415.699219 442.574219 403.851562 C 473.410156 385.605469 493.4375 358.359375 502.265625 323.207031 C 511.242188 287.449219 505.238281 256.71875 485.867188 231.066406 C 479.152344 222.171875 472.304688 214.304688 463.582031 209.777344 C 403.671875 178.683594 367.75 158.320312 359.40625 145.929688 L 360.035156 146.609375 C 343.800781 133.785156 321.566406 97.855469 290.199219 41.78125 C 285.21875 32.882812 278.015625 26.613281 270.625 22.714844 C 240.335938 6.734375 203.753906 8.742188 161.339844 27.855469 C 159.832031 28.535156 158.054688 27.863281 157.375 26.351562 C 156.695312 24.839844 157.367188 23.066406 158.875 22.382812 Z M 158.875 22.382812 " fill-opacity="0.996" fill-rule="nonzero"/><g clip-path="url(#cf768b324c)"><path fill="#641ac7" d="M 132.359375 378.476562 L 136.246094 427.03125 C 89.371094 450.03125 42.167969 428.699219 42.167969 428.699219 C 37.613281 391.476562 59.714844 344.589844 59.269531 342.925781 L 110.585938 339.8125 L 124.472656 337.035156 C 124.472656 337.035156 138.800781 337.035156 149.242188 356.144531 C 150.90625 359.144531 155.238281 361.699219 156.683594 365.8125 C 156.792969 365.921875 147.351562 373.8125 132.359375 378.476562 Z M 489.347656 328.8125 C 485.351562 319.703125 478.90625 311.925781 470.578125 306.703125 C 470.464844 304.035156 470.464844 301.480469 470.464844 299.148438 C 470.464844 289.148438 434.589844 297.257812 432.035156 297.816406 C 432.921875 296.148438 433.367188 294.257812 433.367188 292.257812 L 439.699219 81.933594 C 439.699219 75.269531 430.035156 65.046875 423.371094 65.046875 L 122.25 68.15625 C 115.585938 68.15625 103.480469 74.714844 103.480469 81.378906 L 108.921875 282.816406 C 107.589844 281.816406 105.699219 280.925781 103.480469 280.480469 C 98.589844 279.480469 94.257812 280.816406 93.703125 283.480469 C 93.148438 286.148438 96.59375 289.148438 101.480469 290.148438 C 104.367188 290.703125 107.03125 290.480469 108.921875 289.703125 L 108.921875 292.148438 C 108.921875 298.816406 113.140625 309.035156 119.804688 309.035156 L 423.039062 309.925781 C 427.589844 309.925781 429.8125 301.480469 431.921875 297.816406 L 433.035156 304.148438 C 429.925781 308.59375 428.703125 315.035156 428.257812 320.371094 C 426.035156 319.148438 423.371094 318.371094 420.707031 318.371094 C 416.59375 318.371094 412.929688 319.925781 410.152344 322.480469 C 408.375 321.925781 407.375 321.371094 407.375 321.371094 C 407.375 321.371094 401.046875 339.367188 397.492188 358.367188 C 396.824219 358.257812 396.269531 358.257812 395.601562 358.257812 C 391.824219 358.257812 388.382812 359.589844 385.71875 361.8125 L 379.050781 322.703125 C 378.941406 322.035156 378.273438 321.480469 377.609375 321.703125 L 373.941406 322.371094 C 373.277344 322.480469 372.722656 323.148438 372.945312 323.8125 L 380.71875 369.035156 C 380.050781 370.8125 379.71875 372.589844 379.71875 374.589844 C 379.71875 383.589844 386.828125 390.8125 395.714844 390.8125 C 396.046875 390.8125 396.378906 390.8125 396.714844 390.8125 C 397.601562 394.144531 398.933594 397.03125 400.933594 399.03125 C 411.375 409.699219 424.371094 411.367188 436.253906 404.476562 L 441.921875 421.921875 C 494.902344 434.253906 510.121094 398.921875 510.121094 398.921875 C 506.675781 369.8125 495.011719 341.8125 489.347656 328.8125 Z M 200.113281 384.144531 L 203.332031 382.8125 C 204 382.589844 207.222656 379.144531 207 378.476562 L 188.785156 345.703125 L 182.785156 331.367188 C 182.5625 330.703125 181.785156 330.480469 181.121094 330.703125 L 177.898438 332.035156 C 177.230469 332.257812 177.007812 333.035156 177.230469 333.703125 L 183.007812 347.257812 L 192.226562 385.144531 C 192.449219 385.8125 199.445312 384.367188 200.113281 384.144531 Z M 150.574219 418.699219 L 157.792969 438.140625 L 233.101562 413.699219 L 224.328125 393.253906 Z M 150.574219 418.699219 " fill-opacity="1" fill-rule="nonzero"/></g><path fill="#f7c792" d="M 199.335938 357.367188 C 199.335938 357.367188 200.222656 358.367188 203.667969 360.144531 C 207.109375 361.921875 208 367.144531 208 367.144531 C 214.332031 368.257812 209.886719 376.253906 209.886719 376.253906 C 213.886719 377.8125 211.441406 384.476562 211.441406 384.476562 C 208.554688 393.921875 195.449219 395.808594 195.449219 395.808594 C 195.449219 395.808594 179.5625 409.253906 152.128906 416.03125 C 149.683594 416.585938 149.019531 422.808594 146.351562 423.253906 C 142.796875 423.921875 137.800781 418.363281 134.914062 418.03125 C 112.363281 414.921875 111.921875 381.8125 111.921875 381.8125 C 135.691406 380.921875 148.90625 369.699219 148.90625 369.699219 L 153.574219 381.476562 L 176.789062 371.589844 C 176.898438 370.367188 180.230469 370.367188 180.785156 369.144531 C 180.898438 369.035156 180.898438 368.8125 181.007812 368.699219 C 181.121094 368.476562 181.230469 368.367188 181.230469 368.144531 C 181.339844 367.8125 181.5625 367.589844 181.675781 367.257812 C 181.785156 367.144531 179.121094 364.8125 179.121094 364.699219 C 179.34375 364.367188 179.5625 364.035156 179.785156 363.589844 C 179.898438 363.480469 179.898438 363.367188 180.007812 363.257812 C 180.339844 362.8125 180.675781 362.367188 181.007812 361.921875 C 181.121094 361.8125 181.230469 361.699219 181.339844 361.589844 C 181.5625 361.257812 181.898438 360.921875 182.117188 360.699219 C 182.230469 360.589844 182.339844 360.367188 182.5625 360.257812 C 182.785156 360.035156 183.007812 359.699219 183.230469 359.480469 C 183.339844 359.367188 186.339844 360.8125 186.449219 360.699219 C 186.671875 360.480469 188.117188 359.699219 188.339844 359.480469 C 188.339844 359.480469 190.558594 356.8125 193.558594 356.144531 C 196.558594 355.480469 198.335938 355.8125 199.335938 357.367188 Z M 151.574219 318.480469 C 160.347656 308.59375 163.347656 295.59375 158.90625 285.148438 C 159.460938 284.371094 164.792969 278.816406 164.792969 274.925781 C 164.792969 271.925781 159.347656 271.371094 156.238281 271.371094 C 155.015625 271.371094 153.90625 270.59375 153.460938 269.371094 C 153.015625 268.148438 152.574219 266.816406 152.128906 265.484375 C 143.355469 240.59375 125.359375 236.152344 125.359375 236.152344 L 72.378906 294.816406 C 72.378906 294.816406 78.820312 299.480469 86.59375 305.257812 C 85.375 310.703125 87.152344 316.589844 91.816406 320.371094 C 96.8125 324.367188 103.699219 324.703125 108.921875 321.589844 C 119.695312 327.480469 138.578125 333.148438 151.574219 318.480469 Z M 509.785156 399.03125 C 509.785156 399.03125 506.121094 407.476562 496.234375 414.699219 C 495.011719 406.921875 488.460938 400.921875 480.460938 400.921875 C 471.6875 400.921875 464.46875 408.253906 464.46875 417.144531 C 464.46875 419.808594 465.132812 422.363281 466.246094 424.585938 C 459.136719 424.921875 450.917969 424.253906 441.585938 422.03125 L 440.699219 419.476562 C 447.140625 417.363281 451.804688 411.253906 451.804688 404.03125 C 451.804688 400.144531 450.472656 396.476562 448.140625 393.699219 C 434.035156 411.699219 414.816406 413.921875 400.601562 399.367188 C 398.601562 397.367188 397.269531 394.476562 396.378906 391.144531 C 404.710938 390.589844 411.375 383.589844 411.375 374.921875 C 411.375 366.589844 405.265625 359.8125 397.269531 358.8125 C 400.710938 339.144531 406.820312 321.480469 406.820312 321.480469 C 406.820312 321.480469 408.152344 322.371094 409.929688 322.925781 C 406.597656 325.925781 404.488281 330.257812 404.488281 335.148438 C 404.488281 344.144531 411.597656 351.367188 420.484375 351.367188 C 429.367188 351.367188 436.476562 344.035156 436.476562 335.148438 C 436.476562 330.8125 434.8125 326.925781 432.144531 324.035156 C 433.367188 323.8125 434.699219 323.480469 436.03125 323.035156 L 431.8125 298.035156 C 431.8125 298.035156 467.578125 289.371094 470.355469 299.257812 C 471.132812 302.035156 471.578125 304.925781 471.910156 307.703125 C 479.574219 312.925781 485.570312 320.257812 489.347656 328.925781 C 491.679688 334.148438 494.902344 341.8125 498.234375 351.144531 C 493.792969 354.035156 490.792969 359.035156 490.792969 364.8125 C 490.792969 373.8125 497.902344 381.035156 506.789062 381.035156 L 506.898438 381.035156 C 508.121094 386.8125 509.121094 392.921875 509.785156 399.03125 Z M 437.699219 319.589844 C 437.699219 328.589844 444.808594 335.8125 453.695312 335.8125 C 462.46875 335.8125 469.6875 328.480469 469.6875 319.589844 C 469.6875 310.59375 462.578125 303.371094 453.695312 303.371094 C 444.917969 303.257812 437.699219 310.59375 437.699219 319.589844 Z M 452.140625 376.035156 C 452.140625 367.035156 445.03125 359.8125 436.144531 359.8125 C 427.257812 359.8125 420.148438 367.144531 420.148438 376.035156 C 420.148438 385.03125 427.257812 392.253906 436.144531 392.253906 C 445.03125 392.253906 452.140625 385.03125 452.140625 376.035156 Z M 480.019531 373.257812 C 480.019531 364.8125 473.574219 357.8125 465.355469 356.921875 C 464.800781 356.8125 462.023438 366.589844 458.46875 374.699219 C 457.582031 376.699219 453.472656 386.03125 453.472656 386.03125 C 456.25 388.253906 459.804688 389.699219 463.691406 389.699219 C 472.6875 389.589844 480.019531 382.253906 480.019531 373.257812 Z M 488.902344 337.8125 C 488.902344 332.480469 486.347656 327.703125 482.351562 324.703125 C 479.574219 322.703125 476.242188 321.480469 472.578125 321.480469 C 472.796875 321.480469 472.355469 321.480469 472.578125 321.480469 C 472.796875 322.148438 470.578125 338.367188 466.46875 353.035156 C 468.355469 353.8125 470.464844 354.257812 472.578125 354.257812 C 481.574219 354.144531 488.902344 346.8125 488.902344 337.8125 Z M 287.75 193.820312 C 261.871094 194.261719 262.648438 195.042969 262.648438 195.042969 C 262.648438 195.042969 239.210938 196.261719 224.550781 215.152344 C 209.886719 233.929688 195.558594 269.039062 197.335938 279.039062 C 199.113281 289.148438 242.542969 275.371094 242.542969 275.371094 L 245.875 294.148438 C 245.875 294.148438 278.417969 303.925781 313.628906 289.148438 C 313.628906 289.148438 319.515625 266.59375 319.515625 254.039062 L 337.066406 258.261719 C 352.617188 254.816406 332.734375 217.375 332.734375 217.375 C 332.734375 217.375 313.628906 193.484375 287.75 193.820312 Z M 287.75 193.820312 " fill-opacity="1" fill-rule="nonzero"/><g clip-path="url(#7b799be601)"><path fill="#bd6070" d="M 313.074219 149.375 C 314.074219 164.042969 308.519531 179.375 291.859375 186.042969 L 289.636719 199.484375 L 294.636719 200.597656 C 295.191406 202.152344 275.53125 226.484375 274.085938 225.929688 C 266.757812 222.816406 246.652344 204.929688 247.320312 202.929688 L 254.871094 199.820312 L 253.871094 185.375 C 247.207031 182.152344 243.429688 177.929688 241.988281 176.265625 C 241.542969 176.375 241.210938 176.488281 240.765625 176.597656 C 233.101562 178.042969 225.769531 173.042969 224.328125 165.488281 C 222.882812 158.042969 227.769531 150.820312 235.210938 149.15625 C 235.210938 149.15625 235.210938 149.15625 235.210938 149.042969 C 236.65625 148.710938 229.324219 115.378906 265.867188 104.378906 C 299.414062 94.269531 304.078125 120.265625 310.851562 134.597656 C 311.1875 134.933594 312.742188 144.265625 313.074219 149.375 Z M 128.136719 261.59375 C 122.027344 264.484375 118.695312 271.59375 119.695312 276.480469 C 120.585938 278.039062 121.472656 277.816406 124.695312 272.484375 C 126.359375 269.703125 128.46875 267.261719 130.804688 265.148438 C 132.136719 263.925781 133.136719 262.925781 132.691406 261.59375 C 132.246094 259.925781 129.027344 261.261719 128.136719 261.59375 Z M 113.917969 316.703125 C 113.585938 317.148438 113.363281 317.589844 113.03125 317.925781 C 107.8125 324.480469 98.257812 325.480469 91.816406 320.257812 C 85.375 315.035156 84.375 305.480469 89.59375 299.035156 C 90.707031 297.703125 91.925781 296.59375 93.371094 295.703125 C 93.371094 295.703125 96.59375 293.480469 101.257812 293.816406 C 101.257812 293.816406 122.027344 285.703125 113.585938 265.371094 C 113.585938 265.371094 133.578125 258.59375 129.46875 238.152344 C 129.46875 238.152344 132.691406 239.039062 142.796875 248.484375 C 142.796875 248.484375 141.464844 228.816406 121.695312 231.484375 C 121.695312 231.484375 93.816406 217.597656 63.492188 247.261719 C 51.386719 259.148438 47.386719 272.484375 48.496094 286.148438 C 45.941406 284.59375 42.945312 283.59375 39.832031 283.59375 C 29.949219 283.59375 21.839844 292.59375 21.839844 303.703125 C 21.839844 314.589844 29.613281 323.480469 39.390625 323.703125 C 35.390625 331.367188 32.503906 342.703125 33.503906 359.144531 C 33.503906 359.144531 61.714844 366.035156 77.042969 365.8125 L 79.929688 352.035156 L 83.484375 367.144531 C 83.484375 367.144531 111.699219 370.257812 126.136719 363.8125 L 124.914062 356.035156 L 129.359375 362.699219 C 129.359375 362.699219 136.46875 359.144531 143.355469 352.035156 C 143.242188 352.144531 130.914062 322.8125 113.917969 316.703125 Z M 291.859375 256.816406 C 291.859375 256.816406 294.746094 255.59375 297.96875 252.371094 C 300.300781 250.039062 299.414062 247.148438 293.082031 249.371094 C 294.859375 248.261719 296.523438 246.59375 296.414062 244.484375 C 296.300781 242.152344 291.304688 243.484375 289.972656 243.816406 C 290.75 243.484375 292.636719 242.484375 293.191406 238.816406 C 293.96875 234.261719 278.199219 242.039062 278.199219 242.039062 C 278.199219 242.039062 285.640625 230.375 281.863281 230.59375 C 278.53125 230.816406 271.976562 237.929688 264.203125 246.707031 C 251.652344 250.816406 230.324219 257.148438 220.882812 261.925781 C 220.882812 261.925781 204.445312 266.925781 197.335938 279.039062 C 195.449219 282.261719 196.78125 293.371094 203.667969 297.035156 C 221.660156 306.8125 254.984375 289.59375 274.867188 267.148438 C 274.867188 267.148438 281.640625 268.925781 291.082031 263.59375 C 299.414062 259.039062 300.300781 257.59375 299.746094 256.039062 C 299.191406 254.261719 292.859375 256.484375 291.859375 256.816406 Z M 475.796875 282.703125 L 420.59375 221.597656 C 420.59375 221.597656 401.710938 226.261719 392.714844 252.148438 C 392.269531 253.484375 391.714844 254.816406 391.269531 256.148438 C 390.828125 257.371094 389.714844 258.148438 388.382812 258.261719 C 385.160156 258.371094 379.386719 258.816406 379.386719 261.925781 C 379.386719 266.039062 384.9375 271.816406 385.496094 272.59375 C 380.828125 283.480469 384.050781 297.035156 393.160156 307.371094 C 399.15625 314.148438 406.375 316.8125 413.597656 317.035156 C 414.039062 318.371094 414.375 319.257812 414.375 319.257812 C 414.375 319.257812 414.039062 321.035156 413.597656 323.925781 C 413.597656 323.925781 414.816406 324.367188 421.039062 324.8125 C 427.257812 325.257812 432.921875 323.703125 432.921875 323.703125 C 432.257812 321.035156 431.921875 319.371094 431.921875 319.371094 C 433.8125 317.703125 436.035156 314.925781 438.144531 311.925781 C 438.367188 311.59375 438.699219 311.148438 438.921875 310.8125 C 439.03125 310.703125 439.03125 310.59375 439.144531 310.480469 C 439.367188 310.148438 439.476562 309.925781 439.699219 309.59375 C 439.808594 309.480469 439.808594 309.371094 439.921875 309.257812 C 439.921875 309.148438 440.03125 309.148438 440.03125 309.035156 C 441.363281 308.148438 442.585938 307.371094 443.585938 306.59375 C 443.699219 306.480469 443.917969 306.371094 444.03125 306.257812 C 449.695312 308.371094 456.25 307.703125 461.136719 303.816406 C 465.800781 300.148438 467.910156 294.480469 467.355469 288.816406 C 472.355469 285.257812 475.796875 282.703125 475.796875 282.703125 Z M 382.382812 339.589844 C 380.496094 340.257812 382.71875 347.144531 382.941406 347.703125 C 379.609375 347.257812 374.386719 348.921875 369.832031 350.480469 C 366.058594 351.703125 363.28125 357.8125 364.613281 361.589844 C 366.613281 367.476562 370.5 378.253906 375.277344 381.8125 C 379.273438 384.8125 389.828125 377.367188 391.492188 373.921875 C 393.160156 373.367188 393.9375 372.8125 393.9375 372.8125 L 395.15625 372.589844 C 395.15625 372.589844 397.15625 356.367188 399.824219 346.703125 L 396.046875 349.367188 C 394.714844 345.8125 386.605469 338.035156 382.382812 339.589844 Z M 377.609375 181.375 C 379.941406 180.597656 381.941406 179.375 382.71875 177.820312 C 384.9375 173.152344 384.496094 165.597656 383.71875 160.265625 C 383.273438 157.375 381.050781 155.375 378.273438 155.042969 C 376.832031 154.265625 374.71875 153.597656 371.722656 153.375 C 364.390625 152.820312 361.613281 159.933594 361.613281 159.933594 C 361.613281 159.933594 363.945312 151.710938 362.503906 151.042969 C 359.949219 149.820312 356.058594 154.152344 353.0625 161.152344 C 347.617188 173.597656 354.394531 180.820312 354.394531 180.820312 C 347.953125 191.265625 336.511719 208.484375 332.625 217.484375 C 332.625 217.484375 322.628906 232.152344 322.292969 245.929688 C 322.070312 255.261719 332.625 258.148438 337.066406 258.371094 C 357.058594 259.59375 373.386719 211.261719 373.941406 185.597656 C 373.941406 185.597656 375.71875 183.929688 377.609375 181.375 Z M 377.609375 181.375 " fill-opacity="1" fill-rule="nonzero"/></g><path fill="#ffffff" d="M 112.140625 427.03125 C 96.371094 429.253906 80.152344 427.363281 66.269531 425.363281 C 58.050781 424.140625 49.832031 422.699219 41.609375 421.03125 C 41.609375 421.363281 41.609375 421.808594 41.609375 422.144531 C 49.71875 423.808594 57.9375 425.140625 66.046875 426.363281 C 75.488281 427.808594 86.039062 429.03125 96.8125 429.03125 C 101.921875 429.03125 107.144531 428.699219 112.253906 428.03125 C 120.363281 426.921875 128.25 424.808594 135.800781 422.03125 L 135.691406 420.921875 C 128.136719 423.808594 120.25 425.921875 112.140625 427.03125 Z M 112.140625 427.03125 " fill-opacity="1" fill-rule="nonzero"/><path fill="#ffffff" d="M 104.144531 370.921875 C 86.261719 372.8125 68.269531 371.144531 51.164062 366.144531 C 51.050781 366.476562 50.941406 366.8125 50.828125 367.257812 C 63.382812 370.921875 76.488281 372.8125 89.59375 372.8125 C 94.480469 372.8125 99.367188 372.589844 104.144531 372.035156 C 120.25 370.367188 135.914062 365.8125 150.460938 358.699219 C 150.351562 358.367188 150.128906 358.035156 150.019531 357.699219 C 135.691406 364.8125 120.140625 369.257812 104.144531 370.921875 Z M 104.144531 370.921875 " fill-opacity="1" fill-rule="nonzero"/><path fill="#ffffff" d="M 179.5625 372.921875 C 180.007812 369.257812 183.339844 365.035156 186.117188 362.367188 L 169.011719 360.921875 L 151.019531 375.253906 L 153.460938 381.476562 Z M 179.5625 372.921875 " fill-opacity="1" fill-rule="nonzero"/><path fill="#ffffff" d="M 226.546875 401.808594 C 226.660156 401.808594 228.546875 407.699219 228.769531 407.808594 C 238.210938 409.367188 253.207031 411.144531 276.753906 408.144531 L 279.085938 349.921875 L 292.082031 346.144531 L 298.746094 408.921875 C 298.746094 408.921875 319.074219 409.585938 348.285156 406.585938 C 348.285156 406.476562 348.285156 404.808594 348.394531 401.808594 L 342.398438 400.253906 L 348.285156 391.8125 C 347.730469 364.144531 342.953125 305.925781 313.628906 289.257812 C 313.628906 289.257812 296.859375 292.816406 281.195312 294.371094 C 264.867188 296.035156 245.875 294.257812 245.875 294.257812 C 245.875 294.257812 218.882812 317.035156 218.105469 390.589844 L 216.773438 382.035156 L 211.109375 381.253906 C 210.664062 382.367188 210.109375 383.253906 210.109375 383.253906 C 207.222656 392.699219 193.558594 393.144531 193.558594 393.144531 C 193.558594 393.144531 178.898438 408.585938 152.238281 415.921875 L 157.90625 427.03125 L 160.570312 425.699219 L 160.792969 425.585938 M 219.773438 397.699219 L 159.347656 419.699219 C 159.238281 419.699219 159.238281 419.699219 159.125 419.699219 C 158.90625 419.699219 158.683594 419.585938 158.570312 419.363281 C 158.460938 419.03125 158.570312 418.808594 158.90625 418.699219 L 219.328125 396.699219 C 219.660156 396.589844 219.882812 396.699219 219.996094 397.03125 C 220.21875 397.253906 219.996094 397.589844 219.773438 397.699219 Z M 219.773438 397.699219 " fill-opacity="1" fill-rule="nonzero"/><path fill="#ffffff" d="M 348.394531 401.808594 C 348.394531 399.253906 348.394531 395.921875 348.285156 391.8125 L 342.398438 400.253906 Z M 348.394531 401.808594 " fill-opacity="1" fill-rule="nonzero"/><path fill="#ffffff" d="M 348.394531 401.808594 L 416.707031 419.144531 L 414.597656 407.921875 C 409.597656 406.476562 404.933594 403.589844 400.601562 399.253906 C 395.601562 394.144531 394.492188 384.03125 395.378906 372.8125 L 394.046875 372.699219 C 394.046875 372.699219 393.269531 373.257812 391.605469 373.8125 C 389.828125 377.253906 379.71875 380.144531 375.71875 377.144531 C 372.277344 374.589844 369.390625 369.476562 367.277344 364.699219 L 348.285156 391.8125 C 348.394531 395.921875 348.394531 399.367188 348.394531 401.808594 Z M 348.394531 401.808594 " fill-opacity="1" fill-rule="nonzero"/><path fill="#ffffff" d="M 267.980469 133.488281 C 268.199219 131.820312 265.089844 131.820312 264.203125 131.820312 C 258.09375 132.042969 252.761719 136.710938 251.761719 141.042969 C 251.875 142.597656 252.761719 142.710938 257.316406 139.597656 C 259.648438 137.933594 262.3125 136.710938 265.089844 135.820312 C 266.644531 135.15625 267.757812 134.597656 267.980469 133.488281 Z M 267.980469 133.488281 " fill-opacity="1" fill-rule="nonzero"/><path fill="#ffffff" d="M 278.417969 169.488281 C 280.417969 170.265625 282.195312 170.265625 283.75 169.929688 C 284.085938 169.820312 284.417969 169.820312 284.640625 169.710938 C 287.304688 168.820312 288.859375 167.042969 288.859375 167.042969 C 288.972656 166.820312 288.972656 166.597656 288.859375 166.488281 C 288.636719 166.375 272.867188 161.265625 272.644531 161.375 C 272.421875 161.375 272.3125 161.597656 272.3125 161.820312 C 272.3125 161.933594 272.644531 163.820312 273.867188 165.820312 C 274.753906 167.152344 276.199219 168.597656 278.417969 169.488281 Z M 278.417969 169.488281 " fill-opacity="1" fill-rule="nonzero"/><path fill="#ffffff" d="M 306.1875 133.15625 C 303.964844 129.378906 297.636719 126.820312 291.96875 128.601562 C 291.191406 128.933594 288.304688 129.933594 289.082031 131.378906 C 289.527344 132.378906 290.75 132.488281 292.414062 132.488281 C 295.191406 132.378906 297.96875 132.820312 300.632812 133.597656 C 305.855469 135.15625 306.519531 134.710938 306.1875 133.15625 Z M 306.1875 133.15625 " fill-opacity="1" fill-rule="nonzero"/><path fill="#ffffff" d="M 251.429688 229.039062 L 253.316406 236.816406 C 253.539062 237.707031 254.429688 238.261719 255.316406 238.039062 L 273.308594 233.59375 C 274.199219 233.375 274.753906 232.484375 274.53125 231.59375 L 272.644531 223.816406 C 272.421875 222.929688 271.53125 222.375 270.644531 222.597656 L 252.652344 227.039062 C 251.761719 227.261719 251.207031 228.152344 251.429688 229.039062 Z M 251.429688 229.039062 " fill-opacity="1" fill-rule="nonzero"/><path fill="#ffffff" d="M 361.945312 166.152344 C 362.726562 166.488281 363.390625 166.710938 364.058594 166.820312 C 364.835938 165.042969 368.5 163.710938 371.277344 162.933594 L 371.277344 162.710938 C 367.945312 163.042969 363.390625 163.152344 363.835938 160.152344 C 364.167969 158.152344 367.722656 156.820312 371.722656 155.933594 L 373.386719 131.710938 C 373.5 130.488281 372.277344 129.601562 371.167969 130.042969 C 368.5 131.042969 367.054688 132.710938 366.5 133.378906 C 366.277344 133.488281 366.167969 133.820312 366.167969 134.042969 L 360.726562 164.375 C 360.613281 165.042969 361.058594 165.820312 361.945312 166.152344 Z M 361.945312 166.152344 " fill-opacity="1" fill-rule="nonzero"/><path fill="#ffffff" d="M 211.777344 160.488281 C 211.777344 160.488281 204.890625 173.152344 215.109375 182.152344 C 225.4375 191.152344 235.546875 184.707031 235.546875 184.707031 C 235.546875 184.707031 240.320312 188.484375 246.984375 188.152344 C 250.984375 188.042969 253.429688 186.597656 254.761719 185.484375 C 247.207031 182.042969 242.988281 177.152344 241.875 175.597656 C 234.988281 176.707031 229.4375 173.707031 227.546875 170.488281 C 224.105469 164.597656 224.550781 153.933594 233.992188 149.375 C 234.433594 149.265625 234.878906 149.15625 235.324219 149.042969 C 237.542969 148.597656 240.320312 148.488281 243.320312 149.597656 C 243.320312 149.597656 250.097656 147.488281 247.652344 133.042969 C 247.652344 133.042969 262.425781 125.265625 263.089844 109.378906 C 263.089844 109.378906 272.753906 126.710938 292.304688 124.042969 C 295.636719 123.601562 304.964844 123.601562 310.964844 134.488281 C 311.1875 134.933594 312.742188 144.265625 313.074219 149.265625 C 313.628906 157.820312 312.074219 166.597656 307.1875 173.820312 C 306.742188 174.597656 306.300781 175.488281 305.855469 176.265625 C 305.855469 176.265625 325.292969 174.597656 325.292969 156.710938 C 325.292969 149.488281 318.628906 143.710938 318.628906 143.710938 C 318.628906 143.710938 333.734375 136.933594 329.511719 118.824219 C 326.402344 106.046875 313.964844 103.824219 313.964844 103.824219 C 313.964844 103.824219 317.519531 83.933594 299.078125 79.15625 C 281.53125 74.601562 272.753906 85.824219 272.753906 85.824219 C 272.753906 85.824219 257.980469 71.9375 235.101562 84.824219 C 218.550781 94.046875 217.882812 112.601562 219.21875 116.601562 C 219.441406 117.265625 219.550781 117.601562 219.550781 117.601562 C 219.550781 117.601562 208.222656 119.710938 202.777344 135.710938 C 197.78125 152.933594 211.777344 160.488281 211.777344 160.488281 Z M 211.777344 160.488281 " fill-opacity="1" fill-rule="nonzero"/><path fill="#ffffff" d="M 47.277344 323.925781 C 47.277344 323.480469 47.164062 322.925781 47.054688 322.480469 C 47.496094 322.589844 47.941406 322.703125 48.496094 322.703125 C 51.941406 322.703125 54.71875 319.925781 54.71875 316.480469 C 54.71875 314.925781 54.160156 313.589844 53.273438 312.480469 C 55.9375 311.703125 57.828125 309.371094 57.828125 306.480469 C 57.828125 304.59375 56.9375 302.925781 55.605469 301.703125 C 57.160156 300.59375 58.050781 298.703125 58.050781 296.703125 C 58.050781 294.148438 56.496094 291.925781 54.382812 290.925781 C 55.160156 289.925781 55.605469 288.59375 55.605469 287.257812 C 55.605469 283.816406 52.828125 281.039062 49.386719 281.039062 C 45.941406 281.039062 43.164062 283.816406 43.164062 287.257812 C 43.164062 289.816406 44.722656 292.039062 46.832031 293.039062 C 46.054688 294.035156 45.609375 295.371094 45.609375 296.703125 C 45.609375 298.59375 46.496094 300.257812 47.832031 301.480469 C 46.277344 302.59375 45.386719 304.480469 45.386719 306.480469 C 45.386719 308.035156 45.941406 309.371094 46.832031 310.480469 C 44.164062 311.257812 42.277344 313.59375 42.277344 316.480469 C 42.277344 316.925781 42.386719 317.480469 42.5 317.925781 C 42.054688 317.8125 41.609375 317.703125 41.054688 317.703125 C 37.613281 317.703125 34.835938 320.480469 34.835938 323.925781 C 34.835938 327.367188 37.613281 330.148438 41.054688 330.148438 C 44.5 330.148438 47.277344 327.367188 47.277344 323.925781 Z M 47.277344 323.925781 " fill-opacity="1" fill-rule="nonzero"/><path fill="#ffffff" d="M 103.480469 400.03125 C 90.371094 400.367188 76.710938 400.808594 63.492188 398.808594 C 55.9375 397.699219 49.496094 395.808594 44.164062 393.144531 C 44.054688 393.476562 44.054688 393.921875 43.941406 394.253906 C 49.386719 396.921875 55.828125 398.808594 63.269531 399.921875 C 71.378906 401.144531 79.488281 401.476562 87.59375 401.476562 C 92.925781 401.476562 98.148438 401.367188 103.367188 401.144531 C 107.367188 401.03125 111.476562 400.921875 115.585938 400.699219 C 115.476562 400.367188 115.363281 399.921875 115.140625 399.589844 C 111.253906 399.808594 107.367188 399.921875 103.480469 400.03125 Z M 103.480469 400.03125 " fill-opacity="1" fill-rule="nonzero"/><path fill="#ffffff" d="M 42.167969 406.808594 C 42.167969 407.144531 42.054688 407.585938 42.054688 407.921875 C 56.273438 413.144531 72.488281 415.808594 90.707031 415.808594 C 91.371094 415.808594 91.925781 415.808594 92.59375 415.808594 C 103.144531 415.699219 113.585938 414.808594 123.917969 413.03125 C 123.582031 412.699219 123.25 412.367188 122.917969 412.03125 C 112.921875 413.699219 102.8125 414.476562 92.703125 414.585938 C 73.601562 414.921875 56.714844 412.253906 42.167969 406.808594 Z M 42.167969 406.808594 " fill-opacity="1" fill-rule="nonzero"/><path fill="#ffffff" d="M 101.257812 294.371094 L 116.472656 290.257812 C 117.140625 291.59375 118.03125 292.925781 119.027344 294.035156 C 122.359375 297.816406 126.914062 300.035156 131.800781 300.480469 C 132.246094 300.480469 132.800781 300.59375 133.246094 300.59375 C 137.578125 300.59375 141.800781 299.035156 145.019531 296.148438 C 148.6875 292.925781 150.796875 288.480469 151.019531 283.480469 C 151.242188 279.371094 150.019531 275.371094 147.6875 272.039062 C 148.351562 270.925781 151.574219 266.039062 155.90625 265.816406 C 156.460938 267.484375 156.792969 269.148438 156.90625 271.039062 C 156.90625 271.371094 157.128906 271.59375 157.460938 271.59375 C 157.792969 271.59375 158.015625 271.371094 158.015625 271.039062 C 157.90625 269.039062 157.570312 267.148438 157.015625 265.371094 L 157.015625 265.261719 C 157.015625 265.039062 156.90625 264.925781 156.792969 264.816406 C 153.683594 256.484375 145.910156 251.59375 145.464844 251.371094 C 145.242188 251.261719 144.910156 251.261719 144.6875 251.59375 C 144.574219 251.816406 144.574219 252.148438 144.910156 252.371094 C 145.019531 252.484375 152.351562 257.039062 155.574219 264.816406 C 151.242188 265.261719 148.128906 269.484375 147.019531 271.148438 C 146.796875 270.816406 146.464844 270.484375 146.242188 270.148438 C 142.910156 266.371094 138.355469 264.148438 133.46875 263.703125 C 128.582031 263.261719 123.804688 264.816406 120.25 268.039062 C 114.140625 273.371094 112.699219 282.039062 116.03125 289.257812 L 101.144531 293.257812 C 100.8125 293.371094 100.703125 293.59375 100.703125 293.925781 C 100.8125 294.257812 101.035156 294.371094 101.257812 294.371094 Z M 133.023438 265.148438 C 142.355469 265.148438 149.90625 272.59375 149.90625 282.039062 C 149.90625 291.371094 142.355469 298.925781 133.023438 298.925781 C 123.695312 298.925781 116.140625 291.371094 116.140625 282.039062 C 116.140625 272.703125 123.695312 265.148438 133.023438 265.148438 Z M 133.023438 265.148438 " fill-opacity="1" fill-rule="nonzero"/><path fill="#ffffff" d="M 104.8125 386.476562 C 85.484375 387.367188 65.9375 384.476562 47.71875 378.144531 C 47.609375 378.476562 47.496094 378.8125 47.386719 379.253906 C 63.714844 384.921875 80.929688 387.8125 98.257812 387.8125 C 100.480469 387.8125 102.703125 387.8125 104.921875 387.699219 C 107.476562 387.589844 109.921875 387.367188 112.476562 387.144531 C 112.476562 386.8125 112.363281 386.367188 112.363281 386.03125 C 109.699219 386.253906 107.253906 386.367188 104.8125 386.476562 Z M 104.8125 386.476562 " fill-opacity="1" fill-rule="nonzero"/><g clip-path="url(#c7cbbb207c)"><path fill="#3d1937" d="M 218.21875 407.699219 C 217.664062 407.144531 217.21875 406.367188 217.105469 405.476562 C 217.105469 405.367188 217.105469 405.367188 217.105469 405.367188 L 217.550781 405.144531 C 217.996094 405.808594 218.21875 406.476562 218.21875 407.253906 C 218.21875 407.367188 218.21875 407.585938 218.21875 407.699219 Z M 211.21875 409.699219 C 211.21875 408.921875 210.996094 408.253906 210.554688 407.699219 L 210 407.921875 C 210.109375 408.808594 210.554688 409.585938 211.109375 410.144531 C 211.21875 410.03125 211.21875 409.808594 211.21875 409.699219 Z M 211.664062 407.253906 C 212.109375 407.921875 212.332031 408.808594 212.332031 409.585938 C 212.332031 410.03125 212.332031 410.476562 212.21875 410.921875 C 212.886719 411.253906 213.550781 411.476562 214.332031 411.367188 C 215.441406 411.367188 216.441406 410.921875 217.21875 410.03125 C 217.550781 409.699219 217.773438 409.253906 217.996094 408.808594 C 216.996094 408.03125 216.664062 406.808594 216.441406 405.476562 Z M 221.328125 409.03125 C 223.550781 408.921875 225.328125 407.03125 225.328125 404.808594 C 225.328125 404.03125 224.992188 403.253906 224.550781 402.589844 L 218.660156 404.699219 C 219.105469 405.476562 219.328125 406.253906 219.441406 407.144531 C 219.441406 407.585938 219.441406 408.03125 219.328125 408.476562 C 219.882812 408.808594 220.550781 409.03125 221.328125 409.03125 Z M 204.222656 412.03125 C 204.222656 411.367188 204 410.699219 203.667969 410.144531 L 203.113281 410.367188 C 203.222656 411.253906 203.667969 411.921875 204.222656 412.585938 C 204.222656 412.367188 204.222656 412.253906 204.222656 412.03125 Z M 204.667969 409.808594 C 205 410.476562 205.222656 411.253906 205.332031 412.03125 C 205.332031 412.476562 205.332031 412.921875 205.222656 413.367188 C 205.886719 413.699219 206.554688 413.921875 207.332031 413.921875 C 209 413.921875 210.332031 412.808594 210.996094 411.476562 C 210 410.699219 209.332031 409.585938 209.222656 408.253906 Z M 183.117188 419.363281 C 183.117188 418.808594 183.007812 418.253906 182.675781 417.808594 L 182.007812 418.03125 C 182.117188 418.699219 182.5625 419.363281 183.007812 419.921875 C 183.117188 419.699219 183.117188 419.476562 183.117188 419.363281 Z M 183.785156 417.363281 C 184.007812 417.921875 184.230469 418.585938 184.230469 419.363281 C 184.230469 419.808594 184.230469 420.253906 184.117188 420.699219 C 184.785156 421.03125 185.449219 421.253906 186.230469 421.144531 C 187.339844 421.144531 188.339844 420.699219 189.117188 419.808594 C 189.449219 419.476562 189.671875 419.03125 189.894531 418.585938 C 189.003906 417.921875 188.449219 416.921875 188.117188 415.699219 Z M 179.121094 423.585938 C 180.785156 423.585938 182.117188 422.476562 182.785156 421.144531 C 181.898438 420.476562 181.339844 419.476562 181.007812 418.363281 L 176.789062 419.921875 C 177.007812 420.476562 177.230469 421.144531 177.230469 421.808594 C 177.230469 422.253906 177.230469 422.699219 177.121094 423.144531 C 177.675781 423.363281 178.34375 423.585938 179.121094 423.585938 Z M 190.117188 416.921875 C 190.117188 416.253906 189.894531 415.699219 189.671875 415.253906 L 189.117188 415.476562 C 189.226562 416.253906 189.671875 416.921875 190.117188 417.476562 C 190.117188 417.253906 190.117188 417.03125 190.117188 416.921875 Z M 197.113281 414.476562 C 197.113281 413.808594 196.890625 413.253906 196.558594 412.699219 L 196.003906 412.921875 C 196.113281 413.699219 196.558594 414.476562 197.003906 415.03125 C 197.113281 414.808594 197.113281 414.699219 197.113281 414.476562 Z M 197.667969 412.253906 C 198.003906 412.921875 198.222656 413.699219 198.222656 414.363281 C 198.222656 414.808594 198.222656 415.253906 198.113281 415.699219 C 198.78125 416.03125 199.445312 416.253906 200.222656 416.253906 C 201.890625 416.253906 203.222656 415.144531 203.890625 413.808594 C 203 413.03125 202.335938 412.03125 202.113281 410.699219 Z M 102.257812 305.925781 C 103.257812 304.703125 104.589844 303.703125 106.035156 303.257812 C 106.589844 303.59375 107.253906 303.925781 107.8125 304.371094 C 109.476562 305.703125 110.585938 307.480469 111.03125 309.480469 C 111.03125 309.703125 111.253906 309.8125 111.476562 309.8125 C 111.585938 309.8125 111.585938 309.703125 111.699219 309.703125 C 111.808594 309.59375 111.808594 309.480469 111.808594 309.371094 C 111.253906 307.148438 110.03125 305.257812 108.253906 303.816406 C 107.589844 303.371094 107.03125 302.925781 106.253906 302.59375 C 106.144531 302.480469 106.144531 302.480469 106.035156 302.480469 C 102.035156 300.59375 97.035156 301.59375 94.257812 305.148438 C 91.59375 308.371094 91.371094 313.035156 93.703125 316.703125 C 93.816406 316.925781 94.039062 316.925781 94.257812 316.8125 C 94.480469 316.703125 94.480469 316.480469 94.371094 316.257812 C 92.261719 312.925781 92.484375 308.703125 94.816406 305.703125 C 97.257812 302.703125 101.367188 301.703125 104.921875 302.925781 C 103.589844 303.59375 102.480469 304.480469 101.480469 305.59375 C 99.8125 307.703125 99.035156 310.257812 99.367188 312.925781 C 99.367188 313.148438 99.589844 313.257812 99.8125 313.257812 C 99.925781 313.257812 100.035156 313.148438 100.035156 313.148438 C 100.148438 313.035156 100.148438 312.925781 100.148438 312.8125 C 100.035156 310.148438 100.703125 307.8125 102.257812 305.925781 Z M 135.691406 376.8125 C 135.578125 376.699219 135.46875 376.589844 135.355469 376.699219 C 125.136719 380.8125 114.253906 382.367188 103.144531 381.144531 C 102.921875 380.144531 102.257812 375.921875 102.257812 370.035156 C 102.257812 369.921875 102.144531 369.699219 102.035156 369.699219 C 101.921875 369.699219 101.8125 369.8125 101.8125 369.921875 C 101.8125 376.589844 102.703125 381.367188 102.703125 381.367188 C 102.703125 381.476562 102.8125 381.589844 102.921875 381.589844 C 105.476562 381.8125 107.921875 382.035156 110.476562 382.035156 C 119.140625 382.035156 127.582031 380.367188 135.691406 377.144531 C 135.691406 377.144531 135.800781 377.035156 135.691406 376.8125 Z M 138.246094 285.480469 C 140.800781 285.703125 143.132812 283.925781 144.019531 281.480469 C 144.796875 283.261719 144.910156 284.816406 144.910156 284.816406 C 144.910156 285.039062 145.132812 285.257812 145.351562 285.148438 C 145.574219 285.148438 145.6875 284.925781 145.6875 284.703125 C 145.6875 284.59375 144.574219 275.816406 137.246094 274.480469 C 131.914062 273.484375 128.804688 276.148438 127.136719 278.480469 C 125.359375 281.039062 124.804688 283.703125 124.804688 283.816406 C 124.804688 284.039062 124.914062 284.257812 125.136719 284.371094 C 125.359375 284.371094 125.582031 284.257812 125.695312 284.039062 C 125.695312 284.039062 126.25 281.371094 127.914062 279.039062 C 129.691406 276.59375 131.914062 275.371094 134.691406 275.261719 C 133.800781 276.148438 133.136719 277.480469 132.914062 279.148438 C 132.578125 282.371094 135.132812 285.257812 138.246094 285.480469 Z M 176.011719 421.699219 C 176.011719 421.144531 175.898438 420.699219 175.675781 420.144531 L 175.011719 420.363281 C 175.230469 421.03125 175.566406 421.699219 176.011719 422.144531 C 176.011719 422.144531 176.011719 421.921875 176.011719 421.699219 Z M 190.78125 414.808594 C 191.117188 415.476562 191.226562 416.144531 191.339844 416.921875 C 191.339844 417.363281 191.339844 417.808594 191.226562 418.253906 C 191.78125 418.585938 192.449219 418.808594 193.226562 418.808594 L 193.335938 418.808594 C 194.449219 418.808594 195.449219 418.363281 196.226562 417.476562 C 196.558594 417.144531 196.78125 416.699219 197.003906 416.253906 C 196.113281 415.476562 195.449219 414.476562 195.226562 413.253906 Z M 172.121094 425.921875 C 173.789062 425.921875 175.121094 424.808594 175.789062 423.476562 C 175.011719 422.808594 174.34375 421.921875 174.121094 420.808594 L 170.457031 422.144531 C 170.789062 422.808594 171.011719 423.585938 171.121094 424.363281 C 171.121094 424.808594 171.121094 425.253906 171.011719 425.699219 C 171.234375 425.921875 171.679688 426.03125 172.121094 425.921875 Z M 330.734375 309.480469 C 330.847656 309.480469 330.957031 309.371094 330.957031 309.257812 C 330.957031 309.148438 330.847656 309.035156 330.734375 308.925781 C 325.738281 308.925781 320.738281 307.257812 316.851562 304.148438 C 312.964844 301.035156 309.964844 296.703125 308.742188 291.925781 C 308.742188 291.816406 308.519531 291.703125 308.410156 291.703125 C 308.296875 291.703125 308.1875 291.925781 308.1875 292.039062 C 309.519531 297.035156 312.519531 301.480469 316.519531 304.59375 C 320.628906 307.703125 325.625 309.480469 330.734375 309.480469 Z M 319.515625 254.371094 C 319.628906 254.371094 319.851562 254.261719 319.851562 254.148438 C 319.851562 253.925781 321.070312 233.816406 316.074219 221.375 C 315.960938 221.261719 315.851562 221.152344 315.742188 221.261719 C 315.628906 221.375 315.519531 221.484375 315.628906 221.597656 C 320.515625 233.929688 319.40625 253.925781 319.40625 254.148438 C 319.183594 254.261719 319.292969 254.371094 319.515625 254.371094 Z M 362.722656 174.265625 C 362.835938 174.265625 363.058594 174.152344 363.058594 174.042969 C 363.390625 169.152344 361.726562 165.820312 360.390625 163.929688 C 358.835938 161.820312 357.171875 160.933594 357.171875 160.933594 C 357.058594 160.820312 356.835938 160.933594 356.835938 161.042969 C 356.726562 161.152344 356.835938 161.375 356.949219 161.375 C 357.058594 161.375 363.28125 164.929688 362.613281 173.929688 C 362.390625 174.152344 362.503906 174.265625 362.722656 174.265625 Z M 308.519531 145.15625 C 308.742188 145.042969 308.742188 144.820312 308.742188 144.710938 C 308.742188 144.597656 307.742188 142.488281 305.855469 140.710938 C 304.078125 139.042969 300.96875 137.488281 296.746094 139.378906 C 290.972656 141.820312 291.75 149.265625 291.75 149.375 C 291.75 149.597656 291.96875 149.710938 292.082031 149.710938 C 292.304688 149.710938 292.414062 149.488281 292.414062 149.265625 C 292.414062 149.265625 292.304688 147.933594 292.527344 146.375 C 293.636719 148.265625 295.859375 149.265625 297.96875 148.597656 C 300.523438 147.820312 302.078125 144.933594 301.078125 142.378906 C 300.523438 141.042969 299.746094 140.042969 298.855469 139.488281 C 301.191406 139.042969 303.300781 139.597656 305.1875 141.378906 C 306.964844 143.042969 307.964844 145.042969 307.964844 145.15625 C 308.078125 145.15625 308.296875 145.265625 308.519531 145.15625 Z M 304.632812 341.703125 L 266.203125 352.8125 C 266.089844 352.8125 265.980469 353.035156 265.980469 353.144531 C 265.980469 353.257812 266.089844 353.367188 266.203125 353.367188 C 266.203125 353.367188 266.203125 353.367188 266.3125 353.367188 L 304.746094 342.257812 C 304.855469 342.257812 304.964844 342.035156 304.964844 341.925781 C 304.855469 341.703125 304.746094 341.589844 304.632812 341.703125 Z M 153.351562 381.253906 C 153.238281 381.367188 153.128906 381.476562 153.238281 381.589844 L 155.351562 386.367188 C 155.351562 386.476562 155.460938 386.589844 155.570312 386.589844 L 155.683594 386.589844 C 155.792969 386.476562 155.90625 386.367188 155.792969 386.253906 L 153.683594 381.476562 C 153.683594 381.253906 153.460938 381.144531 153.351562 381.253906 Z M 157.792969 298.371094 C 156.792969 300.703125 154.128906 301.925781 151.351562 301.480469 C 149.019531 301.035156 147.128906 299.480469 146.574219 297.371094 C 146.574219 297.257812 146.351562 297.148438 146.242188 297.148438 C 146.132812 297.148438 146.019531 297.371094 146.019531 297.480469 C 146.351562 298.703125 147.019531 299.703125 148.019531 300.480469 C 148.90625 301.257812 150.019531 301.816406 151.351562 302.035156 C 154.351562 302.59375 157.347656 301.148438 158.460938 298.59375 C 158.570312 298.480469 158.460938 298.257812 158.238281 298.148438 C 158.015625 298.035156 157.792969 298.148438 157.792969 298.371094 Z M 363.722656 166.375 C 363.390625 166.929688 363.28125 167.375 363.390625 167.929688 C 363.613281 168.820312 364.058594 169.488281 364.945312 169.929688 C 366.5 170.929688 368.945312 170.929688 370.945312 170.710938 C 369.054688 171.488281 366.722656 172.710938 365.945312 174.042969 C 365.722656 174.488281 365.613281 175.042969 365.722656 175.488281 C 366.167969 177.042969 368.613281 177.265625 371.167969 177.152344 C 369.945312 177.597656 368.832031 178.265625 368.390625 179.042969 C 368.054688 179.488281 368.054688 180.042969 368.167969 180.597656 C 368.390625 181.265625 368.945312 181.707031 369.722656 182.042969 C 370.5 182.375 371.5 182.488281 372.609375 182.488281 C 374.941406 182.488281 377.71875 181.820312 379.828125 180.707031 C 379.941406 180.597656 380.050781 180.488281 379.941406 180.375 C 379.828125 180.265625 379.71875 180.152344 379.609375 180.265625 C 376.609375 181.820312 372.164062 182.488281 369.945312 181.597656 C 369.277344 181.375 368.832031 180.929688 368.722656 180.488281 C 368.613281 180.152344 368.613281 179.820312 368.832031 179.375 C 369.609375 178.152344 372.054688 177.375 374.054688 176.929688 C 375.609375 176.707031 376.832031 176.488281 377.164062 176.375 C 377.164062 176.375 377.273438 176.375 377.273438 176.265625 C 379.273438 175.820312 381.605469 175.042969 383.273438 173.929688 C 383.382812 173.820312 383.382812 173.710938 383.382812 173.597656 C 383.273438 173.488281 383.160156 173.488281 383.050781 173.488281 C 381.273438 174.707031 378.609375 175.488281 376.496094 175.929688 C 376.164062 176.042969 375.609375 176.042969 375.054688 176.152344 C 374.054688 176.265625 373.386719 176.375 373.386719 176.375 C 373.277344 176.375 373.277344 176.375 373.277344 176.488281 C 370.277344 176.820312 366.945312 176.820312 366.5 175.375 C 366.390625 175.042969 366.390625 174.707031 366.613281 174.375 C 367.613281 172.488281 372.386719 170.820312 373.832031 170.375 C 376.164062 169.929688 380.050781 168.929688 381.605469 167.929688 C 381.71875 167.820312 381.71875 167.710938 381.71875 167.597656 C 381.605469 167.488281 381.496094 167.488281 381.386719 167.488281 C 379.941406 168.375 376.609375 169.265625 374.277344 169.820312 L 374.164062 169.820312 C 374.054688 169.820312 368.277344 171.265625 365.5 169.597656 C 364.835938 169.152344 364.390625 168.597656 364.28125 167.929688 C 364.167969 167.597656 364.28125 167.152344 364.5 166.820312 C 365.945312 164.597656 372.386719 163.042969 374.164062 162.597656 C 374.386719 162.597656 374.609375 162.488281 374.609375 162.488281 C 376.609375 162.042969 379.050781 161.488281 380.273438 161.042969 C 380.386719 161.042969 380.496094 160.820312 380.386719 160.710938 C 380.386719 160.597656 380.164062 160.488281 380.050781 160.597656 C 378.496094 161.152344 375.386719 161.820312 373.277344 162.375 C 371.054688 162.820312 366.167969 163.488281 364.613281 161.933594 C 364.167969 161.597656 364.058594 161.042969 364.167969 160.488281 C 364.5 158.488281 369.054688 156.710938 376.832031 155.597656 C 376.941406 155.597656 377.054688 155.488281 377.054688 155.265625 C 377.054688 155.152344 376.832031 155.042969 376.71875 155.042969 C 368.390625 156.265625 363.945312 158.042969 363.503906 160.375 C 363.390625 161.152344 363.613281 161.820312 364.058594 162.375 C 365.167969 163.375 367.390625 163.488281 369.609375 163.375 C 367.167969 163.820312 364.613281 164.929688 363.722656 166.375 Z M 471.578125 324.8125 C 471.464844 324.8125 471.242188 324.925781 471.242188 325.035156 C 471.242188 325.148438 471.019531 331.035156 469.023438 340.589844 C 467.246094 349.367188 463.578125 363.257812 456.359375 378.921875 C 448.917969 395.253906 437.699219 405.921875 425.59375 408.03125 C 416.707031 409.585938 407.820312 406.367188 400.601562 398.921875 C 386.050781 384.03125 405.488281 326.589844 407.042969 321.925781 C 409.042969 322.8125 420.925781 327.8125 436.699219 322.8125 L 441.476562 358.257812 C 441.476562 358.367188 441.585938 358.480469 441.808594 358.480469 C 441.921875 358.480469 442.03125 358.367188 442.03125 358.144531 L 437.253906 322.371094 C 437.253906 322.257812 437.144531 322.257812 437.144531 322.148438 C 437.03125 322.148438 437.03125 322.148438 436.921875 322.148438 C 419.816406 327.703125 407.152344 321.371094 407.042969 321.257812 C 406.933594 321.257812 406.933594 321.257812 406.820312 321.257812 C 406.710938 321.257812 406.710938 321.371094 406.710938 321.371094 C 406.710938 321.480469 403.265625 331.035156 400.15625 343.367188 L 388.9375 341.703125 C 391.382812 344.144531 394.9375 348.8125 396.15625 349.703125 L 398.824219 348.8125 C 398.378906 350.589844 398.046875 352.480469 397.601562 354.257812 C 392.824219 377.476562 393.714844 392.589844 400.15625 399.253906 C 404.378906 403.589844 409.152344 406.585938 414.261719 407.921875 L 413.929688 411.253906 L 349.0625 396.921875 L 367.277344 364.699219 C 366.5 362.8125 365.835938 361.035156 365.277344 359.367188 C 364.835938 358.144531 364.835938 356.8125 365.058594 355.589844 L 320.292969 411.253906 L 322.070312 416.363281 L 432.8125 432.808594 L 441.699219 420.144531 L 441.363281 418.253906 L 436.921875 404.253906 C 445.140625 399.367188 451.695312 391.253906 457.136719 379.367188 C 464.355469 363.589844 468.023438 349.703125 469.800781 340.8125 C 471.6875 331.257812 472.019531 325.257812 472.019531 325.148438 C 471.910156 324.925781 471.800781 324.8125 471.578125 324.8125 Z M 391.9375 365.921875 C 391.824219 365.367188 391.492188 364.921875 391.046875 364.589844 C 389.492188 363.476562 386.382812 363.589844 383.941406 363.8125 C 386.050781 363.035156 388.714844 361.699219 389.9375 359.8125 C 390.492188 358.921875 390.714844 357.921875 390.382812 356.921875 C 390.269531 356.367188 389.828125 355.8125 389.269531 355.480469 C 387.605469 354.480469 384.160156 354.699219 381.273438 355.144531 C 383.605469 354.144531 386.050781 352.8125 386.714844 351.144531 C 387.050781 350.367188 386.828125 349.589844 386.273438 348.8125 C 384.9375 347.035156 381.71875 347.144531 377.386719 348.144531 L 376.496094 342.257812 L 369.390625 350.703125 C 369.5 350.589844 369.609375 350.589844 369.832031 350.589844 C 369.832031 350.703125 370.054688 350.8125 370.167969 350.703125 C 378.832031 347.703125 384.496094 347.144531 385.9375 349.144531 C 386.382812 349.703125 386.496094 350.367188 386.273438 350.921875 C 385.273438 353.589844 378.71875 355.589844 376.71875 356.144531 C 376.386719 356.257812 376.277344 356.257812 376.164062 356.257812 C 376.164062 356.257812 376.054688 356.257812 376.054688 356.367188 C 374.054688 356.921875 371.832031 357.367188 370.5 357.589844 C 370.386719 357.589844 370.277344 357.699219 370.277344 357.921875 C 370.277344 358.035156 370.386719 358.144531 370.5 358.144531 C 372.5 357.921875 376.496094 356.921875 378.941406 356.257812 C 382.050781 355.589844 386.828125 354.8125 388.9375 356.035156 C 389.382812 356.257812 389.714844 356.699219 389.828125 357.035156 C 390.046875 357.921875 389.9375 358.699219 389.382812 359.480469 C 387.382812 362.699219 380.609375 364.257812 380.609375 364.257812 C 380.609375 364.257812 380.609375 364.257812 380.496094 364.367188 C 377.832031 365.035156 373.832031 366.035156 371.945312 365.8125 C 371.722656 365.8125 371.609375 365.921875 371.609375 366.035156 C 371.609375 366.144531 371.722656 366.367188 371.832031 366.367188 C 372.054688 366.367188 372.277344 366.367188 372.5 366.367188 C 374.832031 366.367188 378.71875 365.476562 381.050781 364.8125 C 382.71875 364.476562 388.492188 363.699219 390.605469 365.144531 C 391.046875 365.367188 391.269531 365.699219 391.269531 366.144531 C 391.605469 368.144531 387.273438 370.144531 383.71875 371.367188 C 381.941406 371.8125 380.496094 372.367188 380.386719 372.367188 C 377.71875 372.921875 376.496094 372.589844 376.496094 372.589844 C 376.386719 372.589844 376.164062 372.589844 376.164062 372.8125 C 376.164062 372.921875 376.164062 373.144531 376.386719 373.144531 C 376.386719 373.144531 376.832031 373.253906 377.609375 373.253906 C 378.832031 373.253906 380.941406 373.035156 384.050781 371.8125 C 386.382812 371.257812 389.382812 370.699219 390.828125 371.589844 C 391.269531 371.8125 391.492188 372.144531 391.492188 372.589844 C 391.605469 373.589844 390.714844 374.8125 388.9375 375.8125 C 385.050781 378.144531 378.609375 379.035156 375.71875 376.921875 C 375.609375 376.8125 375.386719 376.8125 375.277344 376.921875 C 375.164062 377.035156 375.164062 377.253906 375.277344 377.367188 C 376.496094 378.253906 378.273438 378.699219 380.164062 378.699219 C 383.273438 378.699219 386.828125 377.699219 389.160156 376.367188 C 391.160156 375.144531 392.160156 373.8125 391.9375 372.589844 C 391.824219 371.921875 391.492188 371.476562 390.9375 371.144531 C 389.9375 370.589844 388.492188 370.589844 386.828125 370.699219 C 389.714844 369.367188 392.160156 367.699219 391.9375 365.921875 Z M 488.347656 267.816406 C 488.347656 267.816406 496.011719 232.261719 454.582031 223.816406 C 454.582031 223.816406 451.25 221.152344 445.917969 218.597656 L 445.917969 75.933594 C 445.917969 68.714844 440.03125 62.824219 432.8125 62.824219 L 109.367188 62.824219 C 102.144531 62.824219 96.257812 68.714844 96.257812 75.933594 L 96.257812 229.039062 C 100.925781 228.152344 105.257812 228.039062 108.808594 228.375 L 108.808594 85.269531 C 108.808594 78.601562 114.140625 73.269531 120.804688 73.269531 L 421.261719 73.269531 C 427.925781 73.269531 433.257812 78.601562 433.257812 85.269531 L 433.257812 214.484375 C 431.257812 214.152344 429.257812 213.929688 427.148438 213.929688 C 419.59375 213.816406 412.707031 217.484375 407.929688 223.375 C 402.933594 226.152344 397.710938 230.59375 394.269531 237.929688 L 402.265625 240.152344 C 402.265625 241.261719 402.378906 242.261719 402.601562 243.152344 C 402.601562 243.152344 412.820312 248.816406 419.59375 249.261719 C 419.59375 249.261719 423.257812 238.816406 423.257812 239.484375 C 423.257812 240.152344 422.148438 250.371094 424.59375 251.707031 C 427.035156 253.039062 440.699219 263.925781 440.699219 263.925781 L 444.140625 254.816406 C 444.140625 254.816406 441.253906 270.484375 451.027344 275.039062 C 453.917969 275.59375 455.804688 276.816406 455.804688 276.816406 C 457.25 277.703125 458.582031 278.925781 459.691406 280.261719 C 465.132812 287.039062 464.136719 296.925781 457.46875 302.371094 C 453.136719 305.8125 447.585938 306.59375 442.699219 305.035156 C 442.808594 304.925781 442.808594 304.8125 442.917969 304.703125 L 443.03125 304.480469 C 443.140625 304.148438 443.363281 303.925781 443.476562 303.703125 L 443.585938 303.371094 C 443.699219 303.035156 443.917969 302.703125 444.03125 302.371094 L 444.03125 302.257812 C 444.140625 301.925781 444.253906 301.59375 444.363281 301.371094 L 444.476562 301.148438 C 444.585938 300.925781 444.585938 300.703125 444.695312 300.371094 L 444.695312 300.257812 C 444.808594 299.925781 444.808594 299.703125 444.917969 299.480469 L 444.917969 299.371094 C 444.917969 299.148438 445.03125 298.925781 445.03125 298.816406 L 445.03125 298.59375 C 445.03125 298.371094 445.03125 298.257812 445.03125 298.035156 L 445.03125 297.925781 C 445.03125 297.703125 445.03125 297.59375 444.917969 297.371094 L 444.917969 297.257812 C 444.808594 297.148438 444.808594 297.035156 444.695312 296.925781 L 444.585938 296.816406 C 444.476562 296.703125 444.253906 296.59375 444.140625 296.59375 C 441.363281 295.59375 438.253906 299.371094 436.699219 301.480469 L 436.144531 299.035156 C 436.253906 298.59375 437.03125 295.925781 437.699219 293.039062 C 438.476562 289.148438 437.699219 284.371094 436.035156 282.59375 C 435.476562 282.039062 434.8125 281.816406 434.144531 281.925781 C 432.257812 282.261719 430.703125 289.816406 430.367188 291.257812 C 430.144531 291.816406 429.8125 292.59375 429.480469 293.480469 C 430.257812 288.148438 430.257812 281.703125 427.589844 281.039062 C 427.257812 280.925781 426.8125 281.039062 426.480469 281.261719 C 424.816406 282.371094 423.925781 287.480469 423.148438 293.257812 C 423.039062 289.039062 422.480469 284.148438 420.59375 283.261719 C 420.148438 283.039062 419.59375 283.039062 419.261719 283.371094 C 417.59375 284.59375 417.371094 290.257812 417.59375 295.148438 C 416.375 290.039062 415.261719 287.480469 414.152344 287.703125 C 413.597656 287.816406 413.039062 288.148438 412.707031 288.703125 C 410.929688 291.371094 412.261719 299.148438 413.375 303.59375 C 412.929688 304.257812 412.597656 304.925781 412.375 305.59375 C 410.707031 310.703125 413.707031 318.371094 414.039062 319.371094 C 414.039062 319.589844 413.820312 320.371094 413.597656 321.589844 C 413.597656 321.703125 413.707031 321.925781 413.820312 321.925781 C 413.929688 321.925781 414.152344 321.8125 414.152344 321.703125 C 414.375 320.257812 414.597656 319.371094 414.597656 319.371094 L 414.597656 319.257812 C 414.597656 319.148438 411.265625 310.925781 412.929688 305.8125 C 413.152344 305.148438 413.484375 304.480469 413.929688 303.8125 C 413.929688 303.703125 413.929688 303.703125 413.929688 303.59375 C 412.929688 299.257812 411.484375 291.59375 413.152344 289.039062 C 413.484375 288.59375 413.820312 288.371094 414.261719 288.257812 C 415.039062 288.257812 416.375 291.816406 417.929688 299.703125 C 417.929688 299.816406 418.039062 299.816406 418.039062 299.925781 C 418.148438 299.925781 418.261719 299.925781 418.261719 299.925781 C 418.371094 299.925781 418.484375 299.703125 418.371094 299.59375 C 417.59375 294.035156 417.59375 285.148438 419.371094 283.816406 C 419.59375 283.59375 419.816406 283.59375 420.148438 283.816406 C 422.039062 284.703125 422.59375 291.703125 422.371094 297.925781 C 422.371094 298.035156 422.371094 298.148438 422.480469 298.148438 C 422.59375 298.148438 422.59375 298.257812 422.703125 298.148438 L 422.816406 298.148438 C 422.925781 298.148438 423.039062 298.035156 423.039062 297.925781 C 423.480469 293.480469 424.480469 283.148438 426.59375 281.703125 C 426.8125 281.59375 427.035156 281.480469 427.148438 281.59375 C 429.589844 282.261719 429.589844 289.480469 428.148438 296.257812 C 428.148438 296.371094 428.148438 296.59375 428.371094 296.59375 C 428.480469 296.59375 428.703125 296.59375 428.703125 296.480469 C 428.8125 296.257812 428.925781 295.816406 429.148438 295.371094 C 429.589844 294.148438 430.257812 292.371094 430.703125 291.480469 C 431.367188 288.148438 432.8125 282.816406 434.035156 282.59375 C 434.476562 282.480469 434.921875 282.703125 435.367188 283.039062 C 436.921875 284.59375 437.699219 289.371094 436.921875 292.925781 C 436.253906 296.148438 435.367188 298.925781 435.367188 298.925781 L 435.367188 299.035156 L 436.144531 302.148438 C 436.144531 302.257812 436.253906 302.371094 436.367188 302.371094 C 436.476562 302.371094 436.589844 302.371094 436.699219 302.257812 C 437.699219 300.816406 441.144531 296.148438 443.917969 297.035156 C 444.03125 297.035156 444.140625 297.148438 444.140625 297.148438 L 444.363281 296.925781 L 444.253906 297.148438 C 444.253906 297.148438 444.363281 297.257812 444.363281 297.371094 L 444.363281 297.480469 C 444.363281 297.59375 444.476562 297.703125 444.476562 297.925781 L 444.695312 297.925781 L 444.476562 298.035156 C 444.476562 298.148438 444.476562 298.371094 444.476562 298.480469 L 444.476562 298.703125 C 444.476562 298.925781 444.476562 299.035156 444.363281 299.257812 L 444.585938 299.371094 L 444.253906 299.480469 C 444.253906 299.703125 444.140625 299.925781 444.03125 300.257812 L 443.917969 300.480469 C 443.808594 300.703125 443.808594 300.925781 443.699219 301.148438 L 443.585938 301.371094 C 443.476562 301.703125 443.363281 301.925781 443.140625 302.371094 C 443.03125 302.703125 442.917969 303.035156 442.699219 303.257812 L 442.585938 303.59375 C 442.476562 303.8125 442.363281 304.148438 442.140625 304.480469 L 442.03125 304.703125 C 441.808594 305.035156 441.699219 305.371094 441.476562 305.8125 L 441.363281 306.035156 C 441.253906 306.371094 441.03125 306.59375 440.808594 306.925781 L 440.585938 307.257812 C 440.363281 307.59375 440.253906 307.925781 440.03125 308.257812 L 439.921875 308.371094 C 439.699219 308.703125 439.476562 309.148438 439.253906 309.480469 L 439.476562 309.480469 C 439.253906 309.8125 439.144531 310.035156 438.921875 310.371094 L 438.699219 310.703125 C 438.476562 311.035156 438.144531 311.480469 437.921875 311.8125 C 435.699219 314.925781 433.589844 317.589844 431.8125 319.148438 C 431.703125 319.257812 431.703125 319.371094 431.703125 319.371094 C 431.703125 319.371094 431.921875 320.371094 432.367188 322.035156 C 432.367188 322.148438 432.480469 322.257812 432.589844 322.257812 C 432.589844 322.257812 432.589844 322.257812 432.699219 322.257812 C 432.8125 322.257812 432.921875 322.035156 432.921875 321.925781 C 432.589844 320.589844 432.367188 319.703125 432.367188 319.371094 C 433.921875 317.925781 435.8125 315.703125 437.808594 313.035156 C 442.476562 314.925781 453.25 318.371094 463.246094 314.8125 L 463.023438 306.371094 L 468.6875 315.480469 C 468.6875 315.480469 478.683594 314.589844 490.460938 305.480469 L 486.570312 294.371094 L 493.792969 303.925781 C 493.792969 303.925781 501.898438 300.480469 509.453125 290.816406 C 509.339844 290.925781 503.898438 270.261719 488.347656 267.816406 Z M 457.46875 299.035156 C 457.691406 299.148438 457.914062 299.148438 458.027344 298.925781 C 460.46875 295.148438 460.246094 290.371094 457.46875 286.925781 C 454.472656 283.261719 449.363281 282.261719 445.140625 284.148438 C 445.03125 284.148438 444.917969 284.148438 444.917969 284.257812 C 444.253906 284.59375 443.476562 285.039062 442.917969 285.59375 C 441.03125 287.039062 439.808594 289.148438 439.253906 291.371094 C 439.253906 291.480469 439.253906 291.59375 439.367188 291.703125 C 439.476562 291.816406 439.476562 291.816406 439.585938 291.816406 C 439.808594 291.816406 440.03125 291.703125 440.144531 291.480469 C 440.699219 289.371094 441.808594 287.480469 443.476562 286.148438 C 444.03125 285.703125 444.695312 285.257812 445.253906 285.039062 C 446.808594 285.59375 448.140625 286.59375 449.25 287.816406 C 450.804688 289.816406 451.582031 292.257812 451.25 294.816406 C 451.25 294.925781 451.25 295.035156 451.363281 295.148438 C 451.472656 295.257812 451.472656 295.257812 451.582031 295.257812 C 451.804688 295.257812 452.027344 295.148438 452.027344 294.925781 C 452.359375 292.148438 451.582031 289.480469 449.917969 287.257812 C 448.917969 286.039062 447.695312 285.148438 446.363281 284.480469 C 450.027344 283.148438 454.359375 284.148438 456.804688 287.371094 C 459.359375 290.480469 459.582031 294.925781 457.359375 298.371094 C 457.136719 298.703125 457.25 298.925781 457.46875 299.035156 Z M 389.605469 283.925781 C 389.492188 283.703125 389.382812 283.703125 389.160156 283.703125 C 388.9375 283.816406 388.9375 283.925781 388.9375 284.148438 C 390.046875 286.925781 393.269531 288.480469 396.492188 287.816406 C 397.824219 287.59375 399.046875 287.039062 400.046875 286.148438 C 401.046875 285.257812 401.824219 284.148438 402.15625 282.925781 C 402.15625 282.703125 402.042969 282.59375 401.933594 282.480469 C 401.710938 282.480469 401.601562 282.59375 401.488281 282.703125 C 400.933594 284.925781 398.933594 286.59375 396.378906 287.039062 C 393.492188 287.816406 390.605469 286.371094 389.605469 283.925781 Z M 399.269531 272.148438 C 399.269531 272.371094 399.378906 272.59375 399.601562 272.703125 C 399.824219 272.703125 400.046875 272.59375 400.15625 272.261719 C 400.15625 272.261719 400.378906 270.703125 401.15625 268.816406 C 402.042969 271.371094 404.378906 273.148438 407.152344 273.039062 C 410.375 272.816406 413.039062 269.816406 412.597656 266.371094 C 412.375 264.59375 411.707031 263.261719 410.707031 262.261719 C 413.597656 262.371094 416.039062 263.703125 417.816406 266.261719 C 419.59375 268.703125 420.039062 271.484375 420.039062 271.484375 C 420.039062 271.703125 420.371094 271.925781 420.59375 271.816406 C 420.816406 271.816406 421.039062 271.484375 420.925781 271.261719 C 420.925781 271.148438 420.371094 268.261719 418.484375 265.703125 C 416.707031 263.261719 413.484375 260.484375 407.929688 261.59375 C 400.488281 262.925781 399.269531 272.039062 399.269531 272.148438 Z M 410.597656 254.148438 C 413.597656 255.484375 416.375 257.371094 418.929688 259.59375 C 423.816406 263.925781 424.703125 263.816406 425.148438 262.039062 C 424.703125 256.816406 419.261719 250.816406 412.261719 249.707031 C 411.265625 249.59375 407.597656 249.261719 407.597656 251.261719 C 407.710938 252.59375 408.929688 253.371094 410.597656 254.148438 Z M 333.402344 314.480469 L 403.265625 314.8125 C 399.710938 313.257812 396.269531 310.925781 393.269531 307.371094 C 392.382812 306.371094 391.605469 305.371094 390.828125 304.257812 L 328.957031 304.257812 C 331.070312 307.480469 331.734375 310.703125 333.402344 314.480469 Z M 279.976562 296.703125 C 279.863281 296.703125 279.753906 296.816406 279.753906 296.925781 L 279.53125 323.371094 C 279.53125 323.480469 279.640625 323.703125 279.753906 323.703125 C 279.863281 323.703125 279.976562 323.589844 279.976562 323.480469 L 280.195312 297.035156 C 280.308594 296.816406 280.195312 296.703125 279.976562 296.703125 Z M 188.785156 345.703125 L 193.226562 356.257812 C 193.558594 356.144531 193.894531 356.035156 194.226562 356.035156 C 197.226562 356.257812 196.335938 360.921875 196.335938 360.921875 C 196.335938 360.921875 198.113281 359.257812 201.558594 361.035156 C 205 362.8125 204.667969 368.367188 204.667969 368.367188 C 210.996094 369.476562 209.441406 376.253906 209.441406 376.253906 C 211.996094 377.253906 211.664062 379.589844 211.109375 381.253906 L 226.546875 401.808594 L 225.546875 402.144531 C 225.992188 402.921875 226.324219 403.808594 226.324219 404.699219 C 226.4375 407.585938 224.105469 409.921875 221.328125 410.03125 C 221.214844 410.03125 221.214844 410.03125 221.105469 410.03125 C 220.21875 410.03125 219.441406 409.808594 218.773438 409.476562 C 218.550781 409.921875 218.21875 410.476562 217.882812 410.808594 C 216.886719 411.808594 215.664062 412.367188 214.21875 412.476562 C 214.109375 412.476562 214.109375 412.476562 213.996094 412.476562 C 213.109375 412.476562 212.332031 412.253906 211.664062 411.921875 C 210.886719 413.585938 209.109375 414.808594 207.109375 414.921875 C 207 414.921875 207 414.921875 206.886719 414.921875 C 206 414.921875 205.222656 414.699219 204.554688 414.363281 C 203.777344 416.03125 202 417.253906 200 417.363281 C 199.890625 417.363281 199.890625 417.363281 199.78125 417.363281 C 198.890625 417.363281 198.113281 417.144531 197.445312 416.808594 C 197.226562 417.253906 196.890625 417.808594 196.558594 418.144531 C 195.558594 419.144531 194.335938 419.699219 192.894531 419.808594 C 192.78125 419.808594 192.78125 419.808594 192.671875 419.808594 C 191.78125 419.808594 191.003906 419.585938 190.339844 419.253906 C 190.117188 419.699219 189.78125 420.253906 189.449219 420.585938 C 188.449219 421.585938 187.226562 422.144531 185.785156 422.253906 C 185.671875 422.253906 185.671875 422.253906 185.5625 422.253906 C 184.671875 422.253906 183.894531 422.03125 183.230469 421.699219 C 182.453125 423.363281 180.675781 424.585938 178.675781 424.699219 C 178.5625 424.699219 178.5625 424.699219 178.453125 424.699219 C 177.566406 424.699219 176.789062 424.476562 176.121094 424.144531 C 175.34375 425.808594 173.566406 427.03125 171.566406 427.140625 C 171.457031 427.140625 171.457031 427.140625 171.34375 427.140625 C 170.789062 427.140625 170.34375 427.03125 169.789062 426.921875 C 169.566406 427.585938 169.234375 428.253906 168.902344 428.585938 C 167.902344 429.585938 166.679688 429.808594 165.234375 429.921875 C 165.125 429.921875 165.125 429.921875 165.011719 429.921875 C 162.457031 429.808594 161.347656 427.921875 160.792969 425.585938 L 158.125 426.476562 L 152.238281 415.921875 C 149.574219 416.699219 146.796875 417.363281 143.910156 417.808594 C 140.578125 418.476562 137.6875 418.476562 135.023438 418.03125 L 135.246094 426.699219 L 150.351562 446.363281 L 254.425781 414.585938 L 255.648438 409.585938 L 198.335938 343.035156 Z M 280.863281 140.488281 C 280.640625 140.488281 280.417969 140.597656 280.417969 140.820312 C 280.195312 142.820312 280.308594 144.710938 280.753906 146.488281 C 281.195312 147.933594 282.53125 149.488281 284.304688 149.375 C 286.640625 149.15625 288.417969 149.488281 289.304688 150.488281 C 289.972656 151.15625 290.304688 152.042969 290.195312 153.15625 C 290.082031 157.375 283.195312 159.265625 283.085938 159.265625 C 282.863281 159.265625 282.75 159.597656 282.75 159.710938 C 282.863281 159.933594 283.085938 160.042969 283.195312 160.042969 C 283.308594 160.042969 284.304688 159.710938 285.527344 159.152344 C 287.75 158.152344 290.75 156.265625 290.859375 153.15625 C 290.859375 151.710938 290.527344 150.597656 289.636719 149.820312 C 288.527344 148.710938 286.640625 148.265625 283.972656 148.488281 C 282.640625 148.597656 281.640625 147.375 281.308594 146.265625 C 280.863281 144.597656 280.753906 142.820312 280.972656 140.933594 C 281.308594 140.710938 281.195312 140.488281 280.863281 140.488281 Z M 297.636719 274.480469 L 294.746094 261.707031 C 293.746094 262.261719 292.636719 262.925781 291.191406 263.703125 C 281.75 269.039062 274.976562 267.261719 274.976562 267.261719 C 268.867188 274.261719 260.757812 281.148438 251.984375 286.703125 C 252.652344 287.148438 253.429688 287.371094 254.207031 287.148438 L 295.523438 277.816406 C 296.96875 277.480469 297.96875 275.925781 297.636719 274.480469 Z M 281.863281 319.925781 C 281.75 319.925781 281.53125 320.035156 281.53125 320.148438 C 281.53125 320.257812 281.640625 320.480469 281.75 320.480469 C 281.972656 320.480469 282.308594 320.589844 282.53125 320.589844 C 284.527344 320.589844 286.417969 319.035156 287.304688 317.371094 C 288.304688 315.371094 288.417969 313.148438 288.417969 310.925781 C 288.527344 305.8125 288.195312 300.59375 287.640625 295.480469 C 287.640625 295.371094 287.527344 295.148438 287.304688 295.257812 C 287.195312 295.257812 287.082031 295.371094 287.082031 295.59375 C 287.640625 300.703125 287.859375 305.8125 287.859375 311.035156 C 287.859375 313.148438 287.75 315.371094 286.75 317.257812 C 285.972656 318.8125 283.972656 320.371094 281.863281 319.925781 Z M 169.902344 424.476562 C 169.902344 423.808594 169.679688 423.144531 169.34375 422.585938 L 168.125 423.03125 C 168.457031 424.03125 169.011719 424.808594 169.902344 425.363281 C 169.789062 425.03125 169.902344 424.808594 169.902344 424.476562 Z M 167.011719 423.363281 L 161.792969 425.253906 C 162.125 427.253906 163.347656 429.03125 165.902344 428.699219 C 168.011719 428.363281 169.234375 426.699219 169.457031 426.363281 C 168.234375 425.808594 167.347656 424.699219 167.011719 423.363281 Z M 245.542969 161.488281 C 245.542969 161.375 245.542969 161.375 245.429688 161.265625 C 243.652344 157.488281 239.65625 155.265625 235.433594 156.042969 C 231.65625 156.820312 228.660156 159.933594 228.101562 163.820312 C 228.101562 164.042969 228.214844 164.265625 228.4375 164.265625 C 228.660156 164.265625 228.878906 164.152344 228.878906 163.929688 C 229.324219 160.265625 232.101562 157.375 235.546875 156.710938 C 239.101562 156.042969 242.542969 157.820312 244.320312 160.820312 C 242.988281 160.488281 241.65625 160.375 240.320312 160.710938 C 237.878906 161.152344 235.878906 162.597656 234.433594 164.710938 C 234.324219 164.929688 234.324219 165.152344 234.546875 165.265625 C 234.65625 165.265625 234.769531 165.375 234.769531 165.265625 C 234.878906 165.265625 234.988281 165.152344 234.988281 165.152344 C 236.210938 163.265625 238.101562 161.933594 240.320312 161.488281 C 241.765625 161.265625 243.210938 161.375 244.652344 161.820312 C 244.875 162.375 245.097656 163.042969 245.207031 163.710938 C 245.542969 165.597656 245.320312 167.597656 244.429688 169.265625 C 244.320312 169.488281 244.429688 169.710938 244.542969 169.820312 C 244.652344 169.820312 244.652344 169.820312 244.765625 169.820312 C 244.875 169.820312 244.988281 169.710938 244.988281 169.597656 C 245.984375 167.710938 246.207031 165.597656 245.875 163.488281 C 245.984375 162.820312 245.765625 162.042969 245.542969 161.488281 Z M 229.546875 257.816406 C 229.546875 257.925781 229.660156 258.039062 229.769531 258.039062 C 229.878906 258.039062 229.992188 257.816406 229.992188 257.707031 C 229.992188 257.59375 227.769531 246.371094 228.769531 238.929688 C 228.769531 238.816406 228.660156 238.59375 228.546875 238.59375 C 228.4375 238.59375 228.214844 238.707031 228.214844 238.816406 C 227.324219 246.371094 229.546875 257.707031 229.546875 257.816406 Z M 154.460938 314.8125 L 232.324219 314.8125 C 234.210938 310.59375 236.210938 307.148438 237.988281 304.371094 L 159.570312 304.371094 C 158.460938 307.925781 156.792969 311.480469 154.460938 314.8125 Z M 149.242188 356.144531 C 150.796875 359.035156 152.128906 362.257812 153.460938 366.035156 C 153.460938 366.035156 151.90625 367.589844 148.796875 369.699219 L 151.019531 375.253906 L 185.894531 362.367188 C 186.785156 361.367188 188.003906 359.699219 188.226562 359.480469 L 183.007812 347.257812 Z M 262.203125 143.597656 C 255.207031 144.933594 254.09375 153.265625 254.09375 153.375 C 254.09375 153.597656 254.207031 153.820312 254.429688 153.820312 C 254.648438 153.820312 254.761719 153.710938 254.761719 153.488281 C 254.761719 153.488281 254.984375 151.710938 255.871094 149.820312 C 256.425781 152.488281 258.757812 154.488281 261.425781 154.265625 C 264.425781 154.042969 266.867188 151.375 266.421875 148.265625 C 266.203125 146.488281 265.425781 145.042969 264.425781 144.15625 C 267.3125 144.15625 269.644531 145.375 271.3125 147.820312 C 272.976562 150.15625 273.421875 152.710938 273.421875 152.710938 C 273.421875 152.933594 273.644531 153.042969 273.867188 153.042969 C 274.085938 153.042969 274.199219 152.820312 274.199219 152.597656 C 274.199219 152.488281 273.644531 149.820312 271.976562 147.375 C 270.421875 145.15625 267.421875 142.710938 262.203125 143.597656 Z M 255.539062 185.707031 C 255.425781 185.597656 255.207031 185.707031 255.207031 185.820312 C 255.09375 185.929688 255.207031 186.152344 255.316406 186.152344 C 260.648438 188.484375 266.421875 189.597656 272.753906 189.597656 C 276.308594 189.597656 279.863281 189.265625 283.640625 188.484375 C 285.972656 188.042969 288.304688 187.375 290.414062 186.707031 C 290.527344 186.707031 290.636719 186.484375 290.636719 186.375 C 290.636719 186.265625 290.414062 186.152344 290.304688 186.152344 C 288.195312 186.929688 285.972656 187.484375 283.640625 187.929688 C 273.199219 190.042969 263.757812 189.265625 255.539062 185.707031 Z M 251.761719 295.925781 C 248.207031 306.925781 241.988281 314.035156 234.101562 315.703125 C 233.992188 315.703125 233.878906 315.925781 233.878906 316.035156 C 233.878906 316.148438 233.992188 316.257812 234.101562 316.257812 C 234.101562 316.257812 234.101562 316.257812 234.210938 316.257812 C 242.210938 314.589844 248.652344 307.371094 252.207031 296.148438 C 252.207031 296.035156 252.207031 295.816406 251.984375 295.816406 C 251.984375 295.703125 251.875 295.816406 251.761719 295.925781 Z M 236.988281 223.816406 L 243.652344 253.371094 C 250.984375 250.929688 258.539062 248.59375 264.203125 246.707031 C 271.976562 237.929688 278.53125 230.816406 281.863281 230.59375 C 285.640625 230.375 278.199219 242.039062 278.199219 242.039062 C 278.199219 242.039062 284.75 238.816406 289.304688 237.707031 L 283.75 213.261719 C 283.417969 211.707031 281.863281 210.820312 280.417969 211.152344 L 239.101562 220.484375 C 237.65625 220.816406 236.65625 222.261719 236.988281 223.816406 Z M 236.988281 223.816406 " fill-opacity="1" fill-rule="nonzero"/></g></svg>