<svg xmlns="http://www.w3.org/2000/svg" xmlns:xlink="http://www.w3.org/1999/xlink" width="711" zoomAndPan="magnify" viewBox="0 0 533.25 454.499995" height="606" preserveAspectRatio="xMidYMid meet" version="1.0"><defs><clipPath id="766ed47a03"><path d="M 162.828125 9 L 332 9 L 332 162 L 162.828125 162 Z M 162.828125 9 " clip-rule="nonzero"/></clipPath></defs><path fill="#a3e635" d="M 183.53125 84.410156 C 158.652344 68.566406 134.535156 49.707031 107.300781 41.558594 C 100.492188 39.519531 92.402344 38.84375 83.800781 39.851562 C 46.492188 44.21875 16.28125 78.632812 8.902344 123.691406 C -0.0117188 178.097656 8.351562 236.675781 32.328125 283.808594 C 59.363281 336.949219 105.777344 374.628906 156.234375 384.382812 C 228.136719 398.289062 303.433594 358.113281 373.367188 382.871094 C 401.171875 392.710938 428.449219 412.742188 456.964844 406.671875 C 479.351562 401.910156 497.839844 381.125 508.625 356.605469 C 519.417969 332.085938 523.539062 304.054688 526.292969 276.398438 C 530.75 231.644531 532.019531 186.410156 530.089844 141.386719 C 529.347656 124.097656 528.011719 106.316406 521.507812 90.953125 C 513.914062 73.023438 499.851562 60.164062 484.570312 52.59375 C 423.027344 22.101562 353.136719 71.316406 300.640625 94.414062 C 262.445312 111.222656 220.230469 107.667969 184.183594 84.824219 C 183.964844 84.6875 183.746094 84.546875 183.53125 84.410156 Z M 183.53125 84.410156 " fill-opacity="1" fill-rule="nonzero"/><g clip-path="url(#766ed47a03)"><path fill="#9c4733" d="M 331.976562 110.628906 C 331.976562 110.628906 326.273438 77.371094 310.097656 60.398438 C 327.671875 44.46875 339.3125 22.492188 293.222656 39.351562 C 309.398438 23.769531 295.550781 15.167969 268.429688 27.375 C 282.980469 10.28125 255.976562 0.0507812 214.660156 23.074219 C 173.460938 46.09375 170.316406 73.304688 170.316406 73.304688 C 170.316406 73.304688 162.867188 78.1875 162.867188 90.394531 C 162.867188 102.605469 184.75 161.671875 184.75 161.671875 Z M 331.976562 110.628906 " fill-opacity="1" fill-rule="nonzero"/></g><path fill="#ffc1a0" d="M 212.566406 253.527344 C 212.566406 253.527344 213.730469 303.292969 212.796875 312.59375 C 211.984375 322.011719 211.632812 331.3125 216.753906 337.59375 C 221.875 343.871094 232.699219 343.523438 232.699219 343.523438 L 241.777344 254.921875 Z M 212.566406 253.527344 " fill-opacity="1" fill-rule="nonzero"/><path fill="#ffc1a0" d="M 327.089844 194.691406 L 340.472656 189.578125 L 318.59375 160.855469 L 335.933594 141.554688 C 335.933594 141.554688 364.914062 174.230469 367.242188 191.785156 C 369.570312 209.34375 335.355469 222.132812 335.355469 222.132812 Z M 327.089844 194.691406 " fill-opacity="1" fill-rule="nonzero"/><path fill="#ffa474" d="M 335.585938 141.554688 L 318.246094 160.855469 L 328.488281 174.230469 C 334.421875 168.53125 340.472656 159.230469 344.664062 152.601562 C 339.660156 145.859375 335.585938 141.554688 335.585938 141.554688 Z M 335.585938 141.554688 " fill-opacity="1" fill-rule="nonzero"/><path fill="#ffc1a0" d="M 319.410156 340.964844 C 319.175781 342.359375 323.949219 422.472656 323.949219 422.472656 L 306.023438 423.054688 L 292.058594 341.777344 Z M 319.410156 340.964844 " fill-opacity="1" fill-rule="nonzero"/><path fill="#ec590b" d="M 323.132812 425.960938 C 323.132812 425.960938 358.050781 438.75 360.609375 452.121094 C 338.960938 453.867188 298.34375 451.890625 298.34375 451.890625 C 298.34375 451.890625 296.945312 433.167969 303.695312 424.332031 C 313.707031 426.773438 323.132812 425.960938 323.132812 425.960938 Z M 323.132812 425.960938 " fill-opacity="1" fill-rule="nonzero"/><path fill="#ff8e52" d="M 298.109375 446.890625 C 313.472656 449.679688 345.59375 449.449219 359.5625 449.214844 C 360.144531 450.027344 360.375 451.191406 360.726562 452.003906 C 339.078125 453.75 298.457031 451.773438 298.457031 451.773438 C 298.457031 451.773438 298.109375 449.796875 298.109375 446.890625 Z M 298.109375 446.890625 " fill-opacity="1" fill-rule="nonzero"/><path fill="#ff8e52" d="M 344.199219 435.261719 L 339.3125 440.378906 L 337.566406 438.984375 L 341.871094 433.285156 Z M 344.199219 435.261719 " fill-opacity="1" fill-rule="nonzero"/><path fill="#ff8e52" d="M 339.078125 432.121094 L 335.355469 438.054688 L 333.375 436.890625 L 336.167969 430.378906 Z M 339.078125 432.121094 " fill-opacity="1" fill-rule="nonzero"/><path fill="#ff8e52" d="M 333.609375 429.566406 L 330.8125 435.84375 L 328.488281 435.03125 L 330.464844 428.167969 Z M 333.609375 429.566406 " fill-opacity="1" fill-rule="nonzero"/><path fill="#bde0dc" d="M 325.34375 411.660156 L 326.742188 427.820312 C 318.828125 430.960938 310.796875 430.378906 302.882812 428.054688 L 299.507812 412.125 Z M 325.34375 411.660156 " fill-opacity="1" fill-rule="nonzero"/><path fill="#ffc1a0" d="M 236.074219 340.964844 C 236.308594 342.359375 231.535156 422.472656 231.535156 422.472656 L 249.460938 423.054688 L 263.425781 341.777344 Z M 236.074219 340.964844 " fill-opacity="1" fill-rule="nonzero"/><path fill="#ec590b" d="M 232.46875 425.960938 C 232.46875 425.960938 197.550781 438.75 194.992188 452.121094 C 216.640625 453.867188 257.257812 451.890625 257.257812 451.890625 C 257.257812 451.890625 258.65625 433.167969 251.90625 424.332031 C 241.777344 426.773438 232.46875 425.960938 232.46875 425.960938 Z M 232.46875 425.960938 " fill-opacity="1" fill-rule="nonzero"/><path fill="#ff8e52" d="M 257.492188 446.890625 C 242.128906 449.679688 210.003906 449.449219 196.039062 449.214844 C 195.457031 450.027344 195.222656 451.191406 194.875 452.003906 C 216.523438 453.75 257.140625 451.773438 257.140625 451.773438 C 257.140625 451.773438 257.492188 449.796875 257.492188 446.890625 Z M 257.492188 446.890625 " fill-opacity="1" fill-rule="nonzero"/><path fill="#ff8e52" d="M 211.050781 435.261719 L 215.941406 440.378906 L 217.6875 438.984375 L 213.378906 433.285156 Z M 211.050781 435.261719 " fill-opacity="1" fill-rule="nonzero"/><path fill="#ff8e52" d="M 216.523438 432.121094 L 220.246094 438.054688 L 222.226562 436.890625 L 219.433594 430.378906 Z M 216.523438 432.121094 " fill-opacity="1" fill-rule="nonzero"/><path fill="#ff8e52" d="M 221.875 429.566406 L 224.667969 435.84375 L 226.996094 435.03125 L 225.019531 428.167969 Z M 221.875 429.566406 " fill-opacity="1" fill-rule="nonzero"/><path fill="#753835" d="M 232.699219 302.363281 L 228.742188 387.242188 C 228.742188 387.242188 240.730469 392.9375 258.304688 389.800781 C 259.703125 382.125 272.855469 329.917969 272.855469 329.917969 L 281.933594 330.5 L 292.40625 390.378906 C 292.40625 390.378906 311.496094 392.125 326.507812 385.847656 C 323.949219 357.476562 318.59375 304.570312 318.59375 304.570312 Z M 232.699219 302.363281 " fill-opacity="1" fill-rule="nonzero"/><path fill="#24b8d4" d="M 257.140625 199.808594 C 257.140625 199.808594 223.039062 209.808594 219.898438 216.320312 C 211.984375 233.0625 206.28125 255.851562 206.28125 255.851562 C 206.28125 255.851562 226.183594 271.433594 236.191406 264.6875 C 233.863281 280.851562 228.511719 307.59375 228.511719 307.59375 C 228.511719 307.59375 296.714844 323.523438 322.898438 307.363281 C 318.828125 278.757812 316.035156 265.15625 316.035156 265.15625 C 312.078125 203.761719 308.933594 192.949219 257.140625 199.808594 Z M 257.140625 199.808594 " fill-opacity="1" fill-rule="nonzero"/><path fill="#24b8d4" d="M 285.308594 198.414062 C 287.636719 197.832031 331.976562 189.34375 331.976562 189.34375 C 331.976562 189.34375 345.363281 209.226562 339.894531 227.367188 C 324.296875 231.667969 302.066406 241.550781 302.066406 241.550781 Z M 285.308594 198.414062 " fill-opacity="1" fill-rule="nonzero"/><path fill="#ffa474" d="M 253.765625 194.691406 L 253.183594 204.574219 C 253.183594 204.574219 263.425781 209.925781 276.8125 207.367188 C 290.195312 204.925781 291.824219 198.996094 291.824219 198.996094 L 289.847656 187.601562 Z M 253.765625 194.691406 " fill-opacity="1" fill-rule="nonzero"/><path fill="#ffc1a0" d="M 344.226562 143.757812 C 356.089844 136.273438 356.136719 108.800781 340.484375 103.742188 C 324.832031 98.679688 317.980469 123.613281 317.980469 123.613281 L 322.714844 146.070312 C 322.636719 146.09375 332.382812 151.320312 344.226562 143.757812 Z M 344.226562 143.757812 " fill-opacity="1" fill-rule="nonzero"/><path fill="#ff8e52" d="M 336.902344 134.148438 C 341.96875 130.921875 342.082031 118.902344 335.238281 116.796875 C 328.5 114.492188 325.558594 125.324219 325.558594 125.324219 L 327.648438 135.066406 C 327.648438 135.066406 331.652344 137.34375 336.902344 134.148438 Z M 336.902344 134.148438 " fill-opacity="1" fill-rule="nonzero"/><path fill="#ffc1a0" d="M 219.214844 177.25 L 210.734375 155.917969 C 210.734375 155.917969 191.226562 138.929688 180.984375 151.789062 C 170.742188 164.652344 185.957031 187.4375 200.011719 187.199219 C 213.984375 186.988281 219.214844 177.25 219.214844 177.25 Z M 219.214844 177.25 " fill-opacity="1" fill-rule="nonzero"/><path fill="#ff8e52" d="M 208.867188 170.59375 L 205.21875 161.320312 C 205.21875 161.320312 196.976562 154.027344 192.433594 159.5625 C 187.941406 165.25 194.429688 175.195312 200.648438 174.9375 C 206.65625 174.828125 208.867188 170.59375 208.867188 170.59375 Z M 208.867188 170.59375 " fill-opacity="1" fill-rule="nonzero"/><path fill="#ffc1a0" d="M 281.976562 196.597656 C 306.78125 189.125 325.332031 174.1875 331.269531 153.269531 C 337.472656 131.253906 324.679688 95.070312 299.757812 67.472656 C 264.269531 111.144531 221.332031 84.46875 199.542969 99.105469 C 194.046875 135.871094 199.578125 172.796875 216.929688 187.714844 C 233.296875 201.910156 257.019531 204.113281 281.976562 196.597656 Z M 281.976562 196.597656 " fill-opacity="1" fill-rule="nonzero"/><path fill="#632d28" d="M 296.382812 96.882812 C 296.882812 96.5625 297.433594 96.140625 297.707031 95.632812 C 298.136719 95.078125 298.320312 94.851562 298.203125 94.460938 C 298.15625 94.304688 298.085938 94.074219 297.929688 94.121094 C 297.65625 93.777344 296.832031 93.855469 296.136719 93.808594 C 293.320312 94.0625 290.753906 94.582031 288.042969 93.78125 C 286.640625 93.355469 285.3125 92.90625 283.929688 92.558594 C 282.984375 92.246094 281.589844 92.410156 280.652344 92.695312 C 279.875 92.929688 279.140625 93.320312 278.78125 94.109375 C 278.238281 95.121094 278.566406 96.210938 279.308594 97.265625 C 280.652344 98.898438 282.832031 99.347656 284.992188 99.460938 C 288.535156 99.925781 293.101562 98.976562 296.382812 96.882812 Z M 296.382812 96.882812 " fill-opacity="1" fill-rule="nonzero"/><path fill="#632d28" d="M 219.859375 120.1875 C 220.523438 120.414062 221.195312 120.382812 221.742188 120.214844 C 225.445312 119.523438 229.375 117.320312 231.902344 114.691406 C 233.335938 113.238281 234.699219 111.554688 234.609375 109.285156 C 234.480469 108.304688 233.925781 107.023438 232.957031 106.636719 C 232.246094 106.257812 231.398438 106.257812 230.6875 106.726562 C 229.75 107.007812 228.746094 107.90625 228.15625 108.765625 C 227.5 109.980469 226.566406 111.113281 225.914062 112.328125 C 224.371094 114.835938 222.296875 116.140625 219.925781 117.871094 C 219.429688 118.191406 218.875 118.613281 218.882812 119.207031 C 218.882812 119.207031 218.929688 119.363281 219 119.597656 C 219.195312 119.960938 219.625 120.257812 219.859375 120.1875 Z M 219.859375 120.1875 " fill-opacity="1" fill-rule="nonzero"/><path fill="#fefefe" d="M 301.117188 140.761719 C 308.800781 138.023438 315 130.375 313.503906 119.777344 C 311.824219 107.445312 299.457031 102.839844 288.945312 108.046875 C 279.59375 111.457031 275.535156 120.84375 279.3125 131.09375 C 282.796875 141.519531 293.4375 143.5 301.117188 140.761719 Z M 301.117188 140.761719 " fill-opacity="1" fill-rule="nonzero"/><path fill="#632d28" d="M 308.792969 109.804688 C 303.296875 99.21875 280.265625 100.714844 277.496094 121.695312 C 287.78125 96.582031 308.722656 109.570312 308.792969 109.804688 Z M 308.792969 109.804688 " fill-opacity="1" fill-rule="nonzero"/><path fill="#632d28" d="M 294.164062 139.710938 C 300.089844 137.925781 303.570312 131.691406 301.738281 125.613281 C 299.949219 119.691406 293.710938 116.21875 287.625 118.050781 C 281.542969 119.882812 278.054688 126.375 280.054688 132.148438 C 281.761719 138.09375 288.003906 141.566406 294.164062 139.710938 Z M 294.164062 139.710938 " fill-opacity="1" fill-rule="nonzero"/><path fill="#1d0703" d="M 292.398438 133.867188 C 295.050781 133.070312 296.710938 130.105469 295.886719 127.378906 C 295.085938 124.726562 292.121094 123.070312 289.390625 123.894531 C 286.503906 124.761719 285.078125 127.65625 285.902344 130.386719 C 286.703125 133.035156 289.671875 134.691406 292.398438 133.867188 Z M 292.398438 133.867188 " fill-opacity="1" fill-rule="nonzero"/><path fill="#fefefe" d="M 287.804688 129.640625 C 290.066406 128.960938 291.265625 126.730469 290.585938 124.46875 C 289.902344 122.210938 287.667969 121.011719 285.40625 121.695312 C 283.144531 122.375 281.945312 124.605469 282.628906 126.867188 C 283.234375 129.148438 285.464844 130.347656 287.804688 129.640625 Z M 287.804688 129.640625 " fill-opacity="1" fill-rule="nonzero"/><path fill="#fefefe" d="M 296.078125 135.054688 C 297.246094 134.703125 297.714844 133.710938 297.382812 132.621094 C 297.03125 131.453125 295.882812 131.035156 294.949219 131.316406 C 293.777344 131.667969 293.3125 132.660156 293.640625 133.75 C 293.890625 134.863281 294.90625 135.40625 296.078125 135.054688 Z M 296.078125 135.054688 " fill-opacity="1" fill-rule="nonzero"/><path fill="#ff8e52" d="M 274.714844 154.496094 C 276.792969 149.535156 274.316406 146.964844 273.464844 146.117188 C 271.613281 144.210938 265.402344 150.417969 265 154.445312 C 265 154.445312 269.078125 149.90625 271.894531 149.652344 C 274.710938 149.398438 274.714844 154.496094 274.714844 154.496094 Z M 274.714844 154.496094 " fill-opacity="1" fill-rule="nonzero"/><path fill="#f2957c" d="M 314.625 153.097656 C 319.226562 151.710938 322.0625 148.136719 321.144531 145.097656 C 320.230469 142.0625 315.886719 140.648438 311.285156 142.035156 C 306.683594 143.421875 303.851562 146.996094 304.765625 150.035156 C 305.683594 153.074219 310.023438 154.484375 314.625 153.097656 Z M 314.625 153.097656 " fill-opacity="1" fill-rule="nonzero"/><path fill="#f2957c" d="M 228.675781 178.992188 C 233.277344 177.605469 236.113281 174.03125 235.195312 170.992188 C 234.277344 167.953125 229.9375 166.539062 225.335938 167.925781 C 220.734375 169.3125 217.898438 172.886719 218.816406 175.925781 C 219.734375 178.964844 224.074219 180.378906 228.675781 178.992188 Z M 228.675781 178.992188 " fill-opacity="1" fill-rule="nonzero"/><path fill="#fefefe" d="M 237.675781 160.042969 C 245.59375 158.082031 253.285156 150.582031 250.5 139.945312 C 247.738281 129.386719 239.164062 123.808594 229.714844 126.058594 C 218.003906 127.292969 210.40625 137.914062 215.742188 149.394531 C 220.359375 159.054688 229.710938 161.847656 237.675781 160.042969 Z M 237.675781 160.042969 " fill-opacity="1" fill-rule="nonzero"/><path fill="#632d28" d="M 246.765625 130.953125 C 232.960938 115.390625 212.746094 126.496094 214.105469 138.328125 C 214.035156 138.09375 224.292969 115.707031 246.765625 130.953125 Z M 246.765625 130.953125 " fill-opacity="1" fill-rule="nonzero"/><path fill="#632d28" d="M 242.441406 153.847656 C 248.371094 152.0625 251.851562 145.828125 250.015625 139.75 C 248.226562 133.828125 241.753906 130.421875 235.90625 132.1875 C 229.976562 133.972656 226.496094 140.203125 228.332031 146.28125 C 230.121094 152.203125 236.359375 155.679688 242.441406 153.847656 Z M 242.441406 153.847656 " fill-opacity="1" fill-rule="nonzero"/><path fill="#1d0703" d="M 240.523438 148.050781 C 243.175781 147.25 244.832031 144.285156 244.007812 141.558594 C 243.210938 138.910156 240.398438 137.207031 237.511719 138.078125 C 234.859375 138.875 233.203125 141.839844 234.027344 144.566406 C 234.824219 147.214844 237.871094 148.847656 240.523438 148.050781 Z M 240.523438 148.050781 " fill-opacity="1" fill-rule="nonzero"/><path fill="#fefefe" d="M 242.011719 141.992188 C 244.273438 141.308594 245.472656 139.078125 244.789062 136.820312 C 244.109375 134.558594 241.875 133.363281 239.613281 134.042969 C 237.351562 134.726562 236.152344 136.957031 236.835938 139.214844 C 237.515625 141.476562 239.75 142.671875 242.011719 141.992188 Z M 242.011719 141.992188 " fill-opacity="1" fill-rule="nonzero"/><path fill="#fefefe" d="M 238.09375 150.992188 C 239.261719 150.640625 239.683594 149.492188 239.398438 148.558594 C 239.046875 147.390625 238.054688 146.921875 236.964844 147.253906 C 235.792969 147.605469 235.328125 148.597656 235.65625 149.6875 C 235.929688 150.878906 237.15625 151.273438 238.09375 150.992188 Z M 238.09375 150.992188 " fill-opacity="1" fill-rule="nonzero"/><path fill="#632d28" d="M 264.421875 179.335938 C 270.714844 179.976562 279.871094 178.066406 288.304688 172.9375 C 297.003906 167.96875 296.25 156.714844 292.027344 155.308594 C 287.804688 153.90625 282.992188 162.066406 274.457031 164.609375 C 265.894531 167.046875 258 166.367188 258 166.367188 C 252.503906 165.292969 250.84375 167.648438 251.171875 171.984375 C 251.5 176.324219 259.355469 179.054688 264.421875 179.335938 Z M 264.421875 179.335938 " fill-opacity="1" fill-rule="nonzero"/><path fill="#d84141" d="M 279.144531 177.457031 C 276.75 174.789062 272.296875 171.175781 266.753906 171.246094 C 265.957031 171.226562 265.421875 171.363281 264.574219 171.585938 C 258.476562 172.59375 256.6875 175.324219 256.007812 177.085938 C 258.6875 178.660156 262.15625 179.351562 264.71875 179.597656 C 268.769531 179.910156 273.800781 179.179688 279.144531 177.457031 Z M 279.144531 177.457031 " fill-opacity="1" fill-rule="nonzero"/><path fill="#fefefe" d="M 279.808594 170.371094 L 280.425781 167.492188 L 282.445312 170.03125 C 282.445312 170.03125 287.65625 168.683594 290.722656 165.625 C 292.519531 163.800781 292.855469 158.949219 292.984375 155.0625 L 292.714844 154.90625 C 291.972656 155.097656 291.652344 155.179688 291.382812 155.023438 C 287.117188 154.761719 282.644531 162.042969 274.617188 164.34375 C 266.054688 166.78125 258.160156 166.097656 258.160156 166.097656 C 256.957031 165.839844 256.15625 165.820312 255.414062 166.011719 C 255.859375 168.621094 256.824219 172.339844 259.972656 173.113281 C 264.808594 174.246094 279.808594 170.371094 279.808594 170.371094 Z M 279.808594 170.371094 " fill-opacity="1" fill-rule="nonzero"/><path fill="#ffffff" d="M 277.859375 227.015625 C 274.132812 226.785156 271.339844 228.179688 268.78125 230.738281 C 265.054688 234.457031 265.40625 240.738281 269.59375 242.363281 C 273.550781 244.109375 274.714844 240.96875 275.878906 237.25 C 277.042969 233.527344 280.769531 234.109375 281.582031 239.226562 C 282.398438 244.339844 278.441406 247.132812 276.230469 250.039062 C 274.25 253.179688 272.855469 259.109375 277.394531 260.039062 C 281.699219 260.851562 282.515625 258.0625 282.746094 254.109375 C 283.328125 250.15625 288.101562 248.761719 289.265625 242.480469 C 290.429688 236.203125 288.683594 231.433594 283.328125 228.878906 C 281.351562 227.597656 279.605469 227.015625 277.859375 227.015625 Z M 279.605469 264.574219 C 276.8125 264.339844 275.066406 267.945312 276.230469 272.015625 C 277.625 276.550781 281.351562 275.734375 283.097656 273.175781 C 284.839844 270.621094 283.679688 266.316406 280.769531 264.6875 C 280.417969 264.804688 279.953125 264.574219 279.605469 264.574219 Z M 279.605469 264.574219 " fill-opacity="1" fill-rule="nonzero"/><path fill="#bde0dc" d="M 230.140625 411.660156 L 228.742188 427.820312 C 236.65625 430.960938 244.6875 430.378906 252.601562 428.054688 L 255.976562 412.125 Z M 230.140625 411.660156 " fill-opacity="1" fill-rule="nonzero"/><path fill="#3ec4de" d="M 181.722656 82.605469 C 181.722656 82.605469 169.386719 106.207031 183.816406 111.671875 C 198.015625 116.90625 181.722656 82.605469 181.722656 82.605469 Z M 181.722656 82.605469 " fill-opacity="1" fill-rule="nonzero"/></svg>