<svg xmlns="http://www.w3.org/2000/svg" xmlns:xlink="http://www.w3.org/1999/xlink" width="711" zoomAndPan="magnify" viewBox="0 0 533.25 473.999983" height="632" preserveAspectRatio="xMidYMid meet" version="1.0"><defs><clipPath id="1225dc0bfb"><path d="M 68.382812 13 L 463.828125 13 L 463.828125 467 L 68.382812 467 Z M 68.382812 13 " clip-rule="nonzero"/></clipPath><clipPath id="3cc9647b55"><path d="M 402 366 L 531.753906 366 L 531.753906 450.898438 L 402 450.898438 Z M 402 366 " clip-rule="nonzero"/></clipPath><clipPath id="90e7dc692c"><path d="M 137 366 L 268 366 L 268 450.898438 L 137 450.898438 Z M 137 366 " clip-rule="nonzero"/></clipPath><clipPath id="4d34b57730"><path d="M 269 366 L 400 366 L 400 450.898438 L 269 450.898438 Z M 269 366 " clip-rule="nonzero"/></clipPath><clipPath id="221bd55065"><path d="M 0 22.5 L 509 22.5 L 509 364 L 0 364 Z M 0 22.5 " clip-rule="nonzero"/></clipPath></defs><g clip-path="url(#1225dc0bfb)"><path fill="#a3e635" d="M 463.75 231.1875 C 463.75 253.023438 460.210938 274.027344 453.671875 293.664062 C 450.40625 303.484375 447.164062 312.859375 446.832031 321.757812 C 452.769531 387.671875 406.097656 450.816406 337.464844 464.542969 C 285.304688 472.777344 241.378906 450.816406 203.609375 418.777344 C 193.792969 415.507812 184.316406 411.488281 175.25 406.789062 C 111.785156 373.894531 68.421875 307.605469 68.421875 231.1875 C 68.421875 220.273438 69.308594 209.5625 71.011719 199.125 C 72.710938 188.691406 75.222656 178.53125 76.5625 169.042969 C 68.421875 110.394531 98.621094 52.742188 150.78125 25.289062 C 200.199219 0.582031 252.359375 19.796875 298.148438 36.113281 C 308.585938 37.8125 318.746094 40.332031 328.5625 43.601562 C 407.113281 69.75 463.75 143.855469 463.75 231.1875 Z M 463.75 231.1875 " fill-opacity="1" fill-rule="nonzero"/></g><path fill="#000000" d="M 443.691406 307.359375 C 449.625 301.421875 457.816406 297.75 466.867188 297.75 C 475.914062 297.75 484.113281 301.421875 490.042969 307.359375 C 495.972656 313.292969 499.644531 321.5 499.644531 330.554688 C 499.644531 339.613281 495.972656 347.816406 490.042969 353.753906 C 484.113281 359.6875 475.914062 363.363281 466.867188 363.363281 C 457.816406 363.363281 449.625 359.6875 443.691406 353.753906 C 437.761719 347.816406 434.089844 339.613281 434.089844 330.554688 C 434.089844 321.5 437.761719 313.292969 443.691406 307.359375 Z M 443.691406 307.359375 " fill-opacity="1" fill-rule="evenodd"/><g clip-path="url(#3cc9647b55)"><path fill="#000000" d="M 524.386719 439.9375 C 505.210938 446.941406 486.03125 450.445312 466.867188 450.445312 C 447.703125 450.445312 428.527344 446.941406 409.351562 439.9375 C 407.113281 439.121094 405.269531 437.644531 404.007812 435.765625 C 403.90625 435.613281 403.8125 435.464844 403.730469 435.3125 C 402.65625 433.535156 402.089844 431.457031 402.167969 429.28125 L 402.179688 429.089844 C 402.839844 411.761719 410.285156 396.179688 421.921875 384.9375 C 433.574219 373.683594 449.421875 366.753906 466.863281 366.753906 C 484.3125 366.753906 500.160156 373.679688 511.816406 384.9375 C 523.496094 396.21875 530.949219 411.878906 531.566406 429.28125 C 531.652344 431.640625 530.980469 433.886719 529.722656 435.757812 L 529.730469 435.765625 C 528.464844 437.644531 526.625 439.121094 524.386719 439.9375 Z M 524.386719 439.9375 " fill-opacity="1" fill-rule="evenodd"/></g><g clip-path="url(#90e7dc692c)"><path fill="#000000" d="M 202.507812 450.445312 C 183.34375 450.445312 164.164062 446.941406 144.988281 439.9375 C 142.730469 439.117188 140.898438 437.652344 139.640625 435.789062 L 139.652344 435.78125 L 139.640625 435.765625 C 138.394531 433.910156 137.726562 431.671875 137.808594 429.304688 C 138.414062 411.890625 145.875 396.226562 157.5625 384.9375 C 169.210938 373.679688 185.0625 366.753906 202.507812 366.753906 C 219.957031 366.753906 235.804688 373.683594 247.453125 384.9375 C 259.089844 396.175781 266.535156 411.761719 267.195312 429.089844 L 267.207031 429.28125 C 267.289062 431.679688 266.621094 433.933594 265.367188 435.789062 C 264.117188 437.648438 262.277344 439.117188 260.023438 439.9375 C 240.847656 446.941406 221.675781 450.445312 202.507812 450.445312 Z M 202.507812 450.445312 " fill-opacity="1" fill-rule="evenodd"/></g><path fill="#000000" d="M 202.507812 297.75 C 211.554688 297.75 219.753906 301.421875 225.679688 307.359375 C 231.613281 313.292969 235.285156 321.5 235.285156 330.554688 C 235.285156 339.613281 231.613281 347.816406 225.679688 353.753906 C 219.753906 359.6875 211.554688 363.363281 202.507812 363.363281 C 193.457031 363.363281 185.261719 359.6875 179.332031 353.753906 C 173.402344 347.816406 169.730469 339.613281 169.730469 330.554688 C 169.730469 321.5 173.402344 313.292969 179.332031 307.359375 C 185.261719 301.421875 193.457031 297.75 202.507812 297.75 Z M 202.507812 297.75 " fill-opacity="1" fill-rule="evenodd"/><path fill="#000000" d="M 311.511719 307.359375 C 317.445312 301.421875 325.640625 297.75 334.6875 297.75 C 343.734375 297.75 351.933594 301.421875 357.863281 307.359375 C 363.792969 313.292969 367.464844 321.5 367.464844 330.554688 C 367.464844 339.613281 363.792969 347.816406 357.863281 353.753906 C 351.933594 359.6875 343.734375 363.363281 334.6875 363.363281 C 325.640625 363.363281 317.445312 359.6875 311.511719 353.753906 C 305.582031 347.816406 301.914062 339.613281 301.914062 330.554688 C 301.914062 321.5 305.582031 313.292969 311.511719 307.359375 Z M 311.511719 307.359375 " fill-opacity="1" fill-rule="evenodd"/><g clip-path="url(#4d34b57730)"><path fill="#000000" d="M 392.207031 439.9375 C 373.027344 446.941406 353.847656 450.445312 334.6875 450.445312 C 315.523438 450.445312 296.347656 446.941406 277.167969 439.9375 C 274.929688 439.121094 273.089844 437.644531 271.824219 435.765625 C 271.726562 435.613281 271.632812 435.464844 271.546875 435.3125 C 270.472656 433.535156 269.910156 431.457031 269.988281 429.28125 L 269.996094 429.089844 C 270.660156 411.761719 278.101562 396.179688 289.738281 384.9375 C 301.394531 373.683594 317.238281 366.753906 334.683594 366.753906 C 352.132812 366.753906 367.980469 373.679688 379.632812 384.9375 C 391.3125 396.21875 398.769531 411.878906 399.386719 429.28125 C 399.472656 431.65625 398.804688 433.902344 397.550781 435.765625 C 397.441406 435.929688 397.328125 436.085938 397.207031 436.238281 C 395.960938 437.890625 394.253906 439.195312 392.207031 439.9375 Z M 392.207031 439.9375 " fill-opacity="1" fill-rule="evenodd"/></g><path fill="#000000" d="M 95.214844 35.101562 C 105.871094 35.101562 115.519531 39.429688 122.5 46.417969 C 122.636719 46.550781 122.761719 46.691406 122.882812 46.835938 C 129.644531 53.800781 133.808594 63.292969 133.808594 73.726562 C 133.808594 84.390625 129.484375 94.050781 122.5 101.042969 C 115.519531 108.03125 105.871094 112.355469 95.214844 112.355469 C 84.5625 112.355469 74.914062 108.03125 67.929688 101.042969 C 60.945312 94.050781 56.625 84.390625 56.625 73.726562 C 56.625 63.0625 60.945312 53.40625 67.929688 46.417969 C 74.914062 39.429688 84.5625 35.101562 95.214844 35.101562 Z M 95.214844 35.101562 " fill-opacity="1" fill-rule="evenodd"/><g clip-path="url(#221bd55065)"><path fill="#000000" d="M 186.40625 159.136719 L 186.40625 135.019531 C 186.40625 135.003906 186.410156 135 186.417969 135 L 186.410156 134.996094 L 148.453125 96.539062 C 146.550781 94.617188 145.332031 92.257812 144.84375 89.738281 C 144.359375 87.234375 144.609375 84.605469 145.648438 82.117188 C 146.691406 79.617188 148.402344 77.570312 150.542969 76.144531 C 152.679688 74.722656 155.207031 73.929688 157.894531 73.929688 L 186.40625 73.929688 L 186.40625 73.933594 L 186.40625 36.128906 C 186.40625 32.46875 187.898438 29.140625 190.300781 26.734375 C 192.707031 24.328125 196.023438 22.835938 199.6875 22.835938 L 495.164062 22.835938 C 498.820312 22.835938 502.144531 24.328125 504.546875 26.734375 C 506.949219 29.140625 508.441406 32.46875 508.441406 36.128906 L 508.441406 248.394531 C 508.441406 252.058594 506.949219 255.378906 504.546875 257.785156 C 502.144531 260.191406 498.820312 261.683594 495.164062 261.683594 L 199.6875 261.683594 C 196.023438 261.683594 192.707031 260.191406 190.300781 257.785156 C 187.898438 255.378906 186.40625 252.058594 186.40625 248.394531 L 186.40625 209.726562 L 180.21875 214.308594 C 175.578125 217.746094 169.980469 218.972656 164.710938 218.183594 C 159.414062 217.390625 154.410156 214.578125 150.984375 209.941406 L 143.496094 199.8125 L 143.496094 257.621094 L 143.472656 257.621094 L 143.46875 337.351562 L 143.496094 337.351562 C 143.496094 344.644531 140.507812 351.285156 135.703125 356.097656 L 135.679688 356.121094 C 130.871094 360.933594 124.238281 363.921875 116.953125 363.921875 C 109.648438 363.921875 103.007812 360.933594 98.199219 356.121094 C 98.0625 355.984375 97.929688 355.839844 97.808594 355.695312 C 97.554688 355.429688 97.308594 355.15625 97.0625 354.882812 C 96.6875 355.308594 96.296875 355.722656 95.898438 356.121094 C 91.089844 360.933594 84.449219 363.921875 77.144531 363.921875 C 69.839844 363.921875 63.199219 360.933594 58.394531 356.121094 C 53.585938 351.3125 50.601562 344.664062 50.601562 337.351562 L 50.601562 243.105469 C 46.292969 242.664062 42.070312 240.890625 38.613281 237.757812 L 38.609375 237.753906 L 38.367188 237.539062 L 38.355469 237.550781 L 38.351562 237.550781 L 38.15625 237.34375 L 15.0625 216.414062 L 8.300781 211.027344 L 8.195312 210.945312 C 3.753906 207.359375 1.15625 202.285156 0.554688 196.992188 C -0.0507812 191.683594 1.367188 186.128906 4.949219 181.621094 L 4.964844 181.601562 L 49.582031 125.476562 L 49.746094 125.277344 C 52.757812 121.289062 56.503906 118.339844 60.980469 116.441406 C 65.421875 114.558594 70.484375 113.765625 76.144531 114.054688 L 112.695312 113.910156 C 119.074219 113.839844 124.851562 115.101562 130.019531 117.6875 C 135.222656 120.292969 139.679688 124.164062 143.386719 129.296875 L 143.566406 129.554688 L 172.3125 168.28125 Z M 186.40625 159.136719 " fill-opacity="1" fill-rule="evenodd"/></g><path fill="#8ac9fe" d="M 165.386719 181.164062 L 132.933594 137.445312 L 132.652344 137.085938 C 130.179688 133.660156 127.324219 131.140625 124.105469 129.527344 C 120.753906 127.847656 117.148438 127.140625 112.773438 127.148438 L 76.195312 127.296875 C 75.964844 127.3125 75.730469 127.3125 75.496094 127.300781 C 71.8125 127.105469 68.683594 127.554688 66.117188 128.640625 C 63.859375 129.597656 61.933594 131.109375 60.359375 133.164062 C 60.238281 133.359375 60.101562 133.546875 59.957031 133.730469 L 15.574219 189.558594 C 15.441406 189.75 15.296875 189.933594 15.140625 190.113281 C 13.972656 191.710938 13.515625 193.65625 13.726562 195.535156 C 13.9375 197.382812 14.816406 199.160156 16.3125 200.449219 L 23.308594 206.03125 L 23.300781 206.042969 L 23.621094 206.316406 L 47.019531 227.527344 L 47.742188 228.15625 L 47.734375 228.164062 C 49.285156 229.453125 51.238281 230.042969 53.171875 229.949219 L 53.605469 229.914062 C 54.546875 229.296875 55.652344 228.910156 56.847656 228.839844 C 57.359375 228.53125 57.84375 228.160156 58.28125 227.730469 L 58.804688 227.140625 L 58.8125 227.148438 C 61.460938 223.957031 61.148438 219.082031 58.054688 216.277344 L 37.351562 197.507812 L 37.316406 197.480469 C 34.449219 195.199219 33.976562 191.027344 36.253906 188.160156 L 52.054688 168.277344 C 54.332031 165.410156 58.5 164.933594 61.367188 167.214844 C 64.230469 169.492188 64.707031 173.667969 62.429688 176.535156 L 50.484375 191.5625 L 66.921875 206.464844 C 71.234375 210.375 73.558594 215.683594 73.824219 221.085938 C 74.085938 226.464844 72.300781 231.964844 68.398438 236.277344 L 68.175781 236.519531 L 68.191406 236.539062 L 63.882812 240.050781 L 63.882812 337.351562 C 63.882812 344.644531 69.859375 350.628906 77.144531 350.628906 C 84.429688 350.628906 90.40625 344.640625 90.40625 337.351562 L 90.40625 246.789062 C 90.40625 243.121094 93.382812 240.144531 97.046875 240.144531 C 100.714844 240.144531 103.6875 243.121094 103.6875 246.789062 L 103.6875 337.351562 C 103.6875 348.976562 117.851562 355.164062 126.34375 346.726562 C 128.734375 344.320312 130.214844 340.996094 130.214844 337.351562 L 130.242188 337.351562 L 130.242188 257.621094 L 130.21875 257.621094 L 130.21875 179.6875 L 130.238281 179.6875 C 130.238281 177.664062 131.164062 175.664062 132.917969 174.367188 C 135.851562 172.1875 140 172.804688 142.175781 175.742188 L 161.617188 202.050781 C 164.101562 205.417969 168.984375 206.144531 172.335938 203.667969 L 182.132812 196.410156 C 182.328125 196.246094 182.535156 196.097656 182.753906 195.957031 L 189.09375 191.863281 C 189.320312 191.691406 189.5625 191.539062 189.8125 191.398438 L 209.464844 178.703125 C 213.101562 176.355469 214.101562 171.40625 211.78125 167.832031 C 209.429688 164.210938 204.53125 163.1875 200.925781 165.515625 L 200.921875 165.507812 L 196.332031 168.480469 L 174.367188 182.734375 C 171.453125 184.679688 167.492188 184.011719 165.386719 181.164062 Z M 165.386719 181.164062 " fill-opacity="1" fill-rule="evenodd"/><path fill="#f5dccd" d="M 113.113281 91.644531 C 117.691406 87.0625 120.527344 80.726562 120.527344 73.726562 C 120.527344 66.867188 117.824219 60.65625 113.4375 56.117188 L 113.113281 55.816406 C 103.234375 45.925781 87.199219 45.921875 77.316406 55.816406 C 67.433594 65.707031 67.4375 81.753906 77.316406 91.644531 C 87.199219 101.535156 103.234375 101.535156 113.113281 91.644531 Z M 113.113281 91.644531 " fill-opacity="1" fill-rule="evenodd"/><path fill="#8ac9fe" d="M 253.894531 428.058594 C 252.09375 401.152344 229.691406 380.046875 202.507812 380.046875 C 175.324219 380.046875 152.921875 401.148438 151.117188 428.058594 C 185.359375 440.183594 219.652344 440.183594 253.894531 428.058594 Z M 253.894531 428.058594 " fill-opacity="1" fill-rule="evenodd"/><path fill="#8ac9fe" d="M 334.683594 380.046875 C 307.503906 380.046875 285.101562 401.148438 283.300781 428.058594 C 300.417969 434.121094 317.550781 437.152344 334.6875 437.152344 C 351.820312 437.152344 368.953125 434.121094 386.074219 428.058594 C 384.273438 401.148438 361.867188 380.046875 334.683594 380.046875 Z M 334.683594 380.046875 " fill-opacity="1" fill-rule="evenodd"/><path fill="#8ac9fe" d="M 466.863281 380.046875 C 439.6875 380.046875 417.28125 401.148438 415.480469 428.058594 C 432.601562 434.121094 449.730469 437.152344 466.867188 437.152344 C 484 437.152344 501.136719 434.121094 518.253906 428.058594 C 516.457031 401.148438 494.046875 380.046875 466.863281 380.046875 Z M 466.863281 380.046875 " fill-opacity="1" fill-rule="evenodd"/><path fill="#f5dccd" d="M 447.371094 330.554688 C 447.371094 341.335938 456.097656 350.070312 466.867188 350.070312 C 477.636719 350.070312 486.363281 341.335938 486.363281 330.554688 C 486.363281 319.773438 477.636719 311.042969 466.867188 311.042969 C 456.097656 311.042969 447.371094 319.777344 447.371094 330.554688 Z M 447.371094 330.554688 " fill-opacity="1" fill-rule="evenodd"/><path fill="#f5dccd" d="M 334.6875 350.070312 C 345.457031 350.070312 354.183594 341.335938 354.183594 330.554688 C 354.183594 319.773438 345.457031 311.042969 334.6875 311.042969 C 323.917969 311.042969 315.191406 319.773438 315.191406 330.554688 C 315.191406 341.335938 323.917969 350.070312 334.6875 350.070312 Z M 334.6875 350.070312 " fill-opacity="1" fill-rule="evenodd"/><path fill="#f5dccd" d="M 216.292969 344.355469 C 223.90625 336.738281 223.90625 324.375 216.292969 316.753906 C 208.683594 309.136719 196.332031 309.136719 188.71875 316.753906 C 181.109375 324.375 181.109375 336.738281 188.71875 344.355469 C 196.332031 351.972656 208.683594 351.972656 216.292969 344.355469 Z M 216.292969 344.355469 " fill-opacity="1" fill-rule="evenodd"/><path fill="#eaeef1" d="M 199.6875 248.394531 L 495.160156 248.394531 L 495.160156 248.390625 L 495.160156 248.394531 L 495.160156 36.132812 L 495.164062 36.132812 L 495.160156 36.132812 L 495.160156 36.128906 L 495.160156 36.132812 L 199.6875 36.132812 L 199.691406 36.132812 L 199.6875 36.132812 L 199.6875 73.933594 C 199.6875 77.601562 198.195312 80.921875 195.792969 83.328125 C 193.390625 85.734375 190.066406 87.226562 186.410156 87.226562 L 157.894531 87.226562 L 157.882812 87.21875 L 157.867188 87.25 C 157.871094 87.269531 157.871094 87.226562 157.894531 87.25 L 195.851562 125.707031 C 197.09375 126.964844 198.039062 128.386719 198.6875 129.972656 C 199.351562 131.589844 199.6875 133.28125 199.6875 135.019531 L 199.6875 151.71875 C 202.972656 150.832031 206.390625 150.769531 209.640625 151.472656 L 209.953125 151.546875 C 214.957031 152.710938 219.554688 155.691406 222.648438 160.234375 C 222.851562 160.503906 223.03125 160.785156 223.191406 161.078125 C 226.125 165.863281 226.914062 171.414062 225.8125 176.539062 C 224.671875 181.839844 221.511719 186.714844 216.625 189.871094 L 199.6875 200.808594 Z M 251.5625 91.269531 C 247.894531 91.269531 244.921875 88.292969 244.921875 84.621094 C 244.921875 80.953125 247.894531 77.976562 251.5625 77.976562 L 443.285156 77.976562 C 446.953125 77.976562 449.925781 80.953125 449.925781 84.621094 C 449.925781 88.292969 446.953125 91.269531 443.285156 91.269531 Z M 339.953125 148.90625 C 336.289062 148.90625 333.3125 145.929688 333.3125 142.261719 C 333.3125 138.589844 336.289062 135.613281 339.953125 135.613281 L 443.285156 135.613281 C 446.953125 135.613281 449.925781 138.589844 449.925781 142.261719 C 449.925781 145.929688 446.953125 148.90625 443.285156 148.90625 Z M 251.5625 206.546875 C 247.894531 206.546875 244.921875 203.570312 244.921875 199.898438 C 244.921875 196.230469 247.894531 193.253906 251.5625 193.253906 L 358.628906 193.253906 C 362.296875 193.253906 365.269531 196.230469 365.269531 199.898438 C 365.269531 203.570312 362.296875 206.546875 358.628906 206.546875 Z M 251.5625 148.90625 C 247.894531 148.90625 244.921875 145.929688 244.921875 142.261719 C 244.921875 138.589844 247.894531 135.613281 251.5625 135.613281 L 318.476562 135.613281 C 322.144531 135.613281 325.117188 138.589844 325.117188 142.261719 C 325.117188 145.929688 322.144531 148.90625 318.476562 148.90625 Z M 378.238281 206.546875 C 374.574219 206.546875 371.597656 203.570312 371.597656 199.898438 C 371.597656 196.230469 374.574219 193.253906 378.238281 193.253906 L 443.285156 193.253906 C 446.953125 193.253906 449.925781 196.230469 449.925781 199.898438 C 449.925781 203.570312 446.953125 206.546875 443.285156 206.546875 Z M 378.238281 206.546875 " fill-opacity="1" fill-rule="evenodd"/></svg>