<svg xmlns="http://www.w3.org/2000/svg" xmlns:xlink="http://www.w3.org/1999/xlink" width="838" zoomAndPan="magnify" viewBox="0 0 628.5 635.24998" height="847" preserveAspectRatio="xMidYMid meet" version="1.0"><defs><clipPath id="c22bfebedc"><path d="M 74 95 L 501 95 L 501 477 L 74 477 Z M 74 95 " clip-rule="nonzero"/></clipPath><clipPath id="30775a5735"><path d="M 233.070312 0.00390625 L 627.65625 224.464844 L 394.675781 634.027344 L 0.0859375 409.566406 Z M 233.070312 0.00390625 " clip-rule="nonzero"/></clipPath><clipPath id="57b519a5a9"><path d="M 233.070312 0.00390625 L 627.65625 224.464844 L 394.675781 634.027344 L 0.0859375 409.566406 Z M 233.070312 0.00390625 " clip-rule="nonzero"/></clipPath><clipPath id="461eb4643c"><path d="M 31 55 L 535 55 L 535 506 L 31 506 Z M 31 55 " clip-rule="nonzero"/></clipPath><clipPath id="5d57a2a5cc"><path d="M 233.070312 0.00390625 L 627.65625 224.464844 L 394.675781 634.027344 L 0.0859375 409.566406 Z M 233.070312 0.00390625 " clip-rule="nonzero"/></clipPath><clipPath id="732aa9d545"><path d="M 233.070312 0.00390625 L 627.65625 224.464844 L 394.675781 634.027344 L 0.0859375 409.566406 Z M 233.070312 0.00390625 " clip-rule="nonzero"/></clipPath><clipPath id="6988f24b98"><path d="M 146 149.421875 L 481.488281 149.421875 L 481.488281 484.277344 L 146 484.277344 Z M 146 149.421875 " clip-rule="nonzero"/></clipPath></defs><g clip-path="url(#c22bfebedc)"><g clip-path="url(#30775a5735)"><g clip-path="url(#57b519a5a9)"><path fill="#00ff00" d="M 174.972656 267.109375 C 156.238281 280.542969 124.625 294.882812 102.902344 313.570312 C 81.179688 332.273438 69.332031 355.328125 75.792969 377.378906 C 82.261719 399.441406 107.035156 420.511719 129.09375 430.195312 C 151.148438 439.890625 170.484375 438.210938 191.386719 437.117188 C 212.300781 436.015625 234.78125 435.496094 258.015625 441.429688 C 281.265625 447.359375 305.273438 459.75 327.941406 467.265625 C 350.605469 474.765625 371.929688 477.386719 391.027344 475.582031 C 410.121094 473.765625 426.984375 467.507812 439.476562 460.042969 C 451.960938 452.5625 460.074219 443.875 468.765625 431.382812 C 477.453125 418.894531 486.714844 402.613281 492.929688 383.332031 C 499.152344 364.058594 502.316406 341.777344 499.4375 319.539062 C 496.5625 297.300781 487.636719 275.109375 476.804688 258.492188 C 465.972656 241.875 453.246094 230.839844 439.859375 218.152344 C 426.476562 205.464844 412.445312 191.144531 397.691406 176.410156 C 382.9375 161.679688 367.457031 146.542969 354.257812 132.695312 C 341.066406 118.855469 330.140625 106.296875 315.1875 100.003906 C 300.21875 93.714844 281.230469 93.6875 268.515625 98.492188 C 255.796875 103.296875 249.351562 112.949219 245.503906 125.011719 C 241.644531 137.078125 240.378906 151.570312 237.402344 165.722656 C 234.414062 179.871094 229.726562 193.683594 224.40625 203.804688 C 219.074219 213.925781 213.101562 220.355469 209.832031 223.875 C 206.558594 227.40625 205.980469 228.027344 202.765625 234.59375 C 199.550781 241.160156 193.703125 253.683594 174.972656 267.109375 Z M 174.972656 267.109375 " fill-opacity="1" fill-rule="evenodd"/></g></g></g><g clip-path="url(#461eb4643c)"><g clip-path="url(#5d57a2a5cc)"><g clip-path="url(#732aa9d545)"><path fill="#000000" d="M 153.28125 260.847656 C 144.539062 267.113281 133.5625 273.476562 121.882812 280.242188 C 104.058594 290.5625 84.5625 301.859375 69.371094 314.921875 C 56.558594 325.953125 46.765625 338.277344 41.355469 351.035156 C 36.375 362.738281 35.085938 374.839844 38.546875 386.636719 C 41.957031 398.25 49.949219 409.691406 60.0625 419.714844 C 71.617188 431.171875 85.894531 440.726562 99.28125 446.613281 C 123.03125 457.046875 144.230469 455.898438 166.804688 454.675781 L 170.773438 454.460938 C 183.035156 453.820312 195.761719 453.335938 208.875 453.902344 C 222.027344 454.464844 235.546875 456.0625 249.3125 459.578125 C 265.398438 463.675781 281.695312 470.371094 297.804688 476.980469 C 308.996094 481.570312 320.101562 486.125 331.085938 489.761719 C 344.015625 494.042969 356.558594 496.941406 368.582031 498.53125 C 380.839844 500.144531 392.5625 500.390625 403.621094 499.351562 C 413.964844 498.363281 423.742188 496.25 432.683594 493.375 C 442.652344 490.175781 451.566406 486.070312 459.058594 481.589844 C 466.140625 477.351562 471.992188 472.757812 477.304688 467.453125 C 482.648438 462.117188 487.457031 456.054688 492.433594 448.90625 C 497.441406 441.699219 502.625 433.402344 507.441406 424.125 C 512.246094 414.867188 516.703125 404.640625 520.28125 393.523438 C 524.023438 381.921875 526.804688 369.359375 528.128906 356.34375 C 529.332031 344.539062 529.335938 332.371094 527.765625 320.21875 C 526.175781 307.902344 522.949219 295.589844 518.65625 283.992188 C 514.046875 271.550781 508.191406 259.953125 501.761719 250.089844 C 490.835938 233.324219 478.152344 221.421875 464.761719 208.851562 C 462.523438 206.75 460.21875 204.585938 459.046875 203.484375 C 447.207031 192.265625 434.867188 179.878906 422.066406 167.035156 C 417.640625 162.589844 413.207031 158.140625 409.789062 154.730469 C 408.511719 153.460938 402.816406 147.796875 397.292969 142.3125 C 384.085938 129.179688 370.867188 116.054688 359.070312 103.679688 C 358.644531 103.238281 356.742188 101.21875 354.722656 99.089844 C 341.390625 85 329.644531 72.570312 314.34375 66.136719 C 306.144531 62.691406 296.867188 60.914062 287.832031 60.625 C 278.324219 60.3125 269.144531 61.644531 261.835938 64.40625 C 254.886719 67.039062 249.652344 70.980469 245.644531 75.902344 C 241.574219 80.898438 238.714844 86.945312 236.5625 93.703125 C 233.800781 102.339844 232.179688 112.214844 230.503906 122.417969 C 229.507812 128.472656 228.5 134.652344 227.171875 140.933594 C 225.402344 149.328125 223.132812 157.621094 220.507812 165.316406 C 217.898438 172.960938 214.929688 180.046875 211.757812 186.0625 C 208.5625 192.132812 205.179688 197.082031 202.125 201.042969 C 199.039062 205.011719 196.304688 207.964844 194.367188 210.042969 C 192.546875 212.011719 191.464844 213.167969 190.46875 214.648438 C 189.433594 216.199219 188.367188 218.21875 186.558594 221.921875 L 186.316406 222.410156 C 182.40625 230.402344 175.222656 245.109375 153.28125 260.847656 Z M 119.242188 275.675781 C 130.851562 268.953125 141.75 262.640625 150.21875 256.566406 C 171.074219 241.613281 177.878906 227.675781 181.585938 220.097656 L 181.820312 219.601562 L 181.824219 219.59375 C 183.761719 215.648438 184.910156 213.460938 186.097656 211.710938 C 187.328125 209.878906 188.503906 208.621094 190.496094 206.46875 C 192.382812 204.441406 195.042969 201.578125 197.949219 197.816406 C 200.878906 194.042969 204.085938 189.339844 207.109375 183.605469 C 210.136719 177.851562 212.992188 171.023438 215.535156 163.597656 C 218.085938 156.097656 220.300781 148.023438 222.027344 139.855469 C 223.289062 133.851562 224.304688 127.640625 225.3125 121.542969 C 227.011719 111.179688 228.660156 101.128906 231.546875 92.082031 C 233.890625 84.757812 237.039062 78.140625 241.558594 72.585938 C 246.140625 66.949219 252.089844 62.457031 259.96875 59.476562 C 267.90625 56.480469 277.8125 55.03125 288 55.363281 C 297.652344 55.671875 307.597656 57.582031 316.398438 61.285156 C 332.675781 68.132812 344.800781 80.941406 358.539062 95.464844 C 359.371094 96.351562 360.355469 97.382812 362.878906 100.039062 C 374.484375 112.210938 387.746094 125.386719 401.011719 138.558594 C 403.851562 141.382812 406.507812 144.03125 413.5 151.011719 C 418.363281 155.871094 422.117188 159.625 425.792969 163.3125 C 438.523438 176.089844 450.789062 188.402344 462.664062 199.664062 C 465.320312 202.167969 466.816406 203.574219 468.351562 205.015625 C 482 217.816406 494.921875 229.945312 506.175781 247.21875 C 512.820312 257.40625 518.851562 269.363281 523.59375 282.152344 C 528.023438 294.109375 531.34375 306.820312 532.988281 319.546875 C 534.617188 332.109375 534.613281 344.695312 533.371094 356.878906 C 532.007812 370.25 529.148438 383.179688 525.289062 395.140625 C 521.625 406.527344 517.042969 417.039062 512.097656 426.5625 C 507.164062 436.042969 501.875 444.53125 496.75 451.902344 C 491.585938 459.316406 486.59375 465.617188 481.019531 471.175781 C 475.425781 476.769531 469.253906 481.609375 461.761719 486.085938 C 453.894531 490.789062 444.617188 495.078125 434.289062 498.394531 C 425.003906 501.367188 414.859375 503.566406 404.117188 504.589844 C 392.664062 505.679688 380.535156 505.425781 367.882812 503.75 C 355.527344 502.125 342.660156 499.148438 329.425781 494.765625 C 318.527344 491.15625 307.210938 486.515625 295.800781 481.835938 C 279.859375 475.300781 263.742188 468.683594 248.015625 464.667969 C 234.660156 461.261719 221.507812 459.703125 208.65625 459.15625 C 195.78125 458.609375 183.191406 459.078125 171.054688 459.71875 L 167.089844 459.933594 C 143.867188 461.191406 122.070312 462.378906 97.160156 451.425781 C 83.210938 445.300781 68.355469 435.359375 56.367188 423.464844 C 45.664062 412.859375 37.167969 400.660156 33.5 388.128906 C 29.679688 375.074219 31.066406 361.777344 36.503906 348.960938 C 42.253906 335.441406 52.523438 322.464844 65.929688 310.929688 C 81.492188 297.546875 101.210938 286.128906 119.242188 275.675781 Z M 119.242188 275.675781 " fill-opacity="1" fill-rule="nonzero"/></g></g></g><path fill="#b0acf7" d="M 221.320312 192.675781 L 416.183594 192.675781 L 416.183594 447.320312 L 221.320312 447.320312 Z M 221.320312 192.675781 " fill-opacity="1" fill-rule="nonzero"/><path fill="#d3d0f2" d="M 195.285156 173.507812 L 390.144531 173.507812 L 390.144531 428.152344 L 195.285156 428.152344 Z M 195.285156 173.507812 " fill-opacity="1" fill-rule="nonzero"/><path fill="#eceafd" d="M 363.40625 154.335938 L 213.355469 154.335938 L 168.542969 198.675781 L 168.542969 408.980469 L 363.40625 408.980469 Z M 363.40625 154.335938 " fill-opacity="1" fill-rule="evenodd"/><path fill="#b0acf7" d="M 213.355469 198.675781 L 168.542969 198.675781 L 213.355469 154.335938 Z M 213.355469 198.675781 " fill-opacity="1" fill-rule="evenodd"/><path fill="#ffd164" d="M 166.332031 312.261719 L 241.171875 312.261719 L 259.222656 337.96875 L 416.609375 337.96875 C 421.066406 337.96875 424.910156 339.734375 427.824219 343.132812 C 430.742188 346.515625 431.890625 350.582031 431.222656 355.003906 L 414.007812 466.824219 C 412.894531 474.085938 406.765625 479.363281 399.414062 479.363281 L 187.484375 479.363281 C 180.152344 479.363281 174.003906 474.085938 172.890625 466.824219 L 151.738281 329.292969 C 151.050781 324.890625 152.222656 320.824219 155.117188 317.425781 C 158.035156 314.042969 161.878906 312.261719 166.335938 312.261719 Z M 166.332031 312.261719 " fill-opacity="1" fill-rule="evenodd"/><path fill="#23a8fe" d="M 426.527344 310.105469 C 454.121094 310.105469 476.5 332.472656 476.5 360.074219 C 476.5 387.675781 454.121094 410.039062 426.527344 410.039062 C 398.929688 410.039062 376.570312 387.675781 376.570312 360.074219 C 376.570312 332.472656 398.949219 310.105469 426.527344 310.105469 Z M 426.527344 310.105469 " fill-opacity="1" fill-rule="evenodd"/><path fill="#e1effb" d="M 428.921875 379.820312 L 453.824219 354.890625 C 457.707031 351.007812 457.707031 344.675781 453.824219 340.792969 L 453.507812 340.476562 C 449.625 336.59375 443.292969 336.59375 439.414062 340.476562 L 422.199219 357.695312 L 413.65625 349.132812 C 409.773438 345.269531 403.441406 345.269531 399.5625 349.132812 L 399.246094 349.464844 C 395.363281 353.347656 395.363281 359.683594 399.246094 363.566406 L 415.496094 379.816406 C 419.191406 383.515625 425.207031 383.515625 428.921875 379.816406 Z M 428.921875 379.820312 " fill-opacity="1" fill-rule="evenodd"/><path fill="#23a8fe" d="M 186.984375 216.394531 L 215.359375 216.394531 L 215.359375 244.480469 L 186.984375 244.480469 Z M 186.984375 216.394531 " fill-opacity="1" fill-rule="nonzero"/><path fill="#ff656f" d="M 186.984375 266.472656 L 215.359375 266.472656 L 215.359375 294.558594 L 186.984375 294.558594 Z M 186.984375 266.472656 " fill-opacity="1" fill-rule="nonzero"/><g clip-path="url(#6988f24b98)"><path fill="#000000" d="M 221.503906 414.035156 L 195.519531 414.035156 C 192.628906 414.035156 190.28125 411.691406 190.28125 408.796875 C 190.28125 405.90625 192.628906 403.5625 195.519531 403.5625 L 221.503906 403.5625 C 224.394531 403.5625 226.738281 405.90625 226.738281 408.796875 C 226.738281 411.691406 224.394531 414.035156 221.503906 414.035156 Z M 239.445312 445.570312 L 201.003906 445.570312 C 198.113281 445.570312 195.769531 447.914062 195.769531 450.804688 C 195.769531 453.699219 198.113281 456.042969 201.003906 456.042969 L 239.445312 456.042969 C 242.335938 456.042969 244.679688 453.699219 244.679688 450.804688 C 244.679688 447.914062 242.335938 445.570312 239.445312 445.570312 Z M 239.445312 425.75 L 201.003906 425.75 C 198.113281 425.75 195.769531 428.097656 195.769531 430.988281 C 195.769531 433.882812 198.113281 436.226562 201.003906 436.226562 L 239.445312 436.226562 C 242.335938 436.226562 244.679688 433.882812 244.679688 430.988281 C 244.679688 428.097656 242.335938 425.75 239.445312 425.75 Z M 481.410156 359.988281 C 481.410156 390.132812 457.078125 414.6875 427.03125 415.074219 L 419 467.320312 C 417.46875 477.148438 409.15625 484.277344 399.238281 484.277344 L 187.753906 484.277344 C 177.8125 484.277344 169.5 477.144531 167.992188 467.320312 L 146.882812 330.066406 C 145.980469 324.117188 147.566406 318.570312 151.476562 314.011719 C 154.703125 310.246094 158.851562 307.953125 163.59375 307.269531 L 163.59375 198.929688 C 163.59375 198.753906 163.605469 198.578125 163.621094 198.40625 C 163.636719 198.234375 163.664062 198.070312 163.695312 197.90625 C 163.695312 197.902344 163.699219 197.898438 163.699219 197.894531 C 163.871094 197.03125 164.253906 196.246094 164.796875 195.59375 C 164.804688 195.582031 164.816406 195.570312 164.824219 195.5625 C 164.925781 195.441406 165.027344 195.324219 165.140625 195.214844 C 165.140625 195.210938 165.144531 195.210938 165.148438 195.207031 L 209.871094 150.9375 C 209.914062 150.894531 209.960938 150.855469 210.003906 150.816406 C 210.082031 150.742188 210.15625 150.671875 210.238281 150.605469 C 210.289062 150.5625 210.34375 150.527344 210.398438 150.488281 C 210.480469 150.421875 210.5625 150.359375 210.648438 150.300781 C 210.695312 150.269531 210.746094 150.242188 210.792969 150.214844 C 210.890625 150.152344 210.988281 150.09375 211.089844 150.039062 C 211.128906 150.019531 211.171875 150 211.210938 149.980469 C 211.320312 149.925781 211.433594 149.871094 211.550781 149.820312 C 211.585938 149.804688 211.621094 149.796875 211.652344 149.78125 C 211.777344 149.734375 211.902344 149.6875 212.03125 149.648438 C 212.066406 149.636719 212.101562 149.628906 212.140625 149.621094 C 212.265625 149.585938 212.394531 149.550781 212.523438 149.523438 C 212.582031 149.511719 212.640625 149.507812 212.699219 149.5 C 212.808594 149.480469 212.917969 149.460938 213.03125 149.449219 C 213.203125 149.429688 213.378906 149.421875 213.550781 149.421875 L 363.304688 149.421875 C 366.195312 149.421875 368.539062 151.765625 368.539062 154.660156 L 368.539062 168.554688 L 389.992188 168.554688 C 392.882812 168.554688 395.226562 170.898438 395.226562 173.792969 L 395.226562 187.6875 L 415.976562 187.6875 C 418.867188 187.6875 421.210938 190.03125 421.210938 192.921875 L 421.210938 305.128906 C 422.894531 304.972656 424.597656 304.882812 426.320312 304.882812 C 456.695312 304.882812 481.410156 329.601562 481.410156 359.988281 Z M 395.226562 198.160156 L 395.226562 314.527344 C 399.925781 311.300781 405.152344 308.792969 410.742188 307.140625 L 410.742188 198.160156 Z M 368.539062 179.027344 L 368.539062 332.707031 L 378.480469 332.707031 C 380.285156 329.558594 382.390625 326.601562 384.757812 323.878906 L 384.757812 179.027344 Z M 358.066406 159.898438 L 218.789062 159.898438 L 218.789062 198.929688 C 218.789062 201.820312 216.445312 204.164062 213.550781 204.164062 L 174.066406 204.164062 L 174.066406 307.050781 L 241.316406 307.050781 C 243.019531 307.050781 244.621094 307.882812 245.597656 309.277344 L 262.050781 332.707031 L 358.066406 332.707031 Z M 208.316406 193.691406 L 208.316406 167.210938 L 181.566406 193.691406 Z M 416.570312 414.210938 C 390.828125 409.589844 371.226562 387.042969 371.226562 359.988281 C 371.226562 354.128906 372.15625 348.484375 373.855469 343.183594 L 259.328125 343.183594 C 257.625 343.183594 256.027344 342.351562 255.046875 340.957031 L 238.59375 317.527344 L 166.644531 317.527344 C 163.691406 317.527344 161.332031 318.609375 159.425781 320.832031 C 157.507812 323.066406 156.789062 325.570312 157.234375 328.484375 L 178.34375 465.730469 C 179.058594 470.40625 183.019531 473.800781 187.753906 473.800781 L 399.238281 473.800781 C 403.964844 473.800781 407.921875 470.402344 408.652344 465.71875 Z M 470.9375 359.988281 C 470.9375 335.378906 450.921875 315.355469 426.316406 315.355469 C 401.714844 315.355469 381.699219 335.378906 381.699219 359.988281 C 381.699219 384.597656 401.714844 404.617188 426.316406 404.617188 C 450.921875 404.617188 470.9375 384.597656 470.9375 359.988281 Z M 457.265625 337.042969 C 460.125 339.90625 461.703125 343.71875 461.703125 347.78125 C 461.703125 351.839844 460.125 355.65625 457.265625 358.519531 L 432.390625 383.394531 C 429.621094 386.171875 425.925781 387.695312 421.988281 387.695312 C 418.054688 387.695312 414.359375 386.171875 411.585938 383.394531 L 395.371094 367.175781 C 389.449219 361.253906 389.449219 351.621094 395.371094 345.699219 L 395.691406 345.378906 C 398.546875 342.519531 402.359375 340.945312 406.421875 340.945312 C 410.484375 340.945312 414.296875 342.519531 417.15625 345.382812 L 421.984375 350.210938 L 435.480469 336.726562 C 441.375 330.828125 450.953125 330.8125 456.871094 336.667969 L 457.15625 336.9375 C 457.191406 336.972656 457.230469 337.007812 457.265625 337.039062 Z M 451.230469 347.78125 C 451.230469 346.535156 450.761719 345.371094 449.902344 344.492188 L 449.632812 344.238281 C 449.597656 344.203125 449.5625 344.167969 449.527344 344.132812 C 447.695312 342.300781 444.714844 342.300781 442.882812 344.132812 L 425.679688 361.320312 C 423.636719 363.363281 420.324219 363.363281 418.28125 361.316406 L 409.753906 352.789062 C 408.871094 351.90625 407.6875 351.417969 406.421875 351.417969 C 405.160156 351.417969 403.976562 351.90625 403.09375 352.789062 L 402.773438 353.109375 C 400.941406 354.941406 400.941406 357.933594 402.777344 359.769531 L 418.992188 375.988281 C 419.789062 376.785156 420.851562 377.222656 421.992188 377.222656 C 423.128906 377.222656 424.195312 376.785156 424.988281 375.988281 L 449.859375 351.113281 C 450.746094 350.226562 451.230469 349.042969 451.230469 347.777344 Z M 220.789062 216.597656 L 220.789062 244.625 C 220.789062 247.515625 218.445312 249.863281 215.554688 249.863281 L 187.234375 249.863281 C 184.34375 249.863281 182 247.515625 182 244.625 L 182 216.597656 C 182 213.703125 184.34375 211.359375 187.234375 211.359375 L 215.554688 211.359375 C 218.445312 211.359375 220.789062 213.703125 220.789062 216.597656 Z M 210.320312 221.832031 L 192.46875 221.832031 L 192.46875 239.386719 L 210.320312 239.386719 Z M 237.144531 224.390625 L 340.691406 224.390625 C 343.585938 224.390625 345.929688 222.046875 345.929688 219.152344 C 345.929688 216.261719 343.585938 213.917969 340.691406 213.917969 L 237.144531 213.917969 C 234.253906 213.917969 231.910156 216.261719 231.910156 219.152344 C 231.910156 222.046875 234.253906 224.390625 237.144531 224.390625 Z M 237.144531 247.304688 L 340.691406 247.304688 C 343.585938 247.304688 345.929688 244.957031 345.929688 242.066406 C 345.929688 239.171875 343.585938 236.828125 340.691406 236.828125 L 237.144531 236.828125 C 234.253906 236.828125 231.910156 239.171875 231.910156 242.066406 C 231.910156 244.957031 234.253906 247.304688 237.144531 247.304688 Z M 220.789062 266.574219 L 220.789062 294.601562 C 220.789062 297.496094 218.445312 299.839844 215.554688 299.839844 L 187.234375 299.839844 C 184.34375 299.839844 182 297.496094 182 294.601562 L 182 266.574219 C 182 263.679688 184.34375 261.335938 187.234375 261.335938 L 215.554688 261.335938 C 218.445312 261.335938 220.789062 263.679688 220.789062 266.574219 Z M 210.320312 271.8125 L 192.46875 271.8125 L 192.46875 289.367188 L 210.320312 289.367188 Z M 237.144531 274.367188 L 340.691406 274.367188 C 343.585938 274.367188 345.929688 272.023438 345.929688 269.132812 C 345.929688 266.238281 343.585938 263.894531 340.691406 263.894531 L 237.144531 263.894531 C 234.253906 263.894531 231.910156 266.238281 231.910156 269.132812 C 231.910156 272.023438 234.253906 274.367188 237.144531 274.367188 Z M 237.144531 297.28125 L 340.691406 297.28125 C 343.585938 297.28125 345.929688 294.9375 345.929688 292.046875 C 345.929688 289.152344 343.585938 286.808594 340.691406 286.808594 L 237.144531 286.808594 C 234.253906 286.808594 231.910156 289.152344 231.910156 292.046875 C 231.910156 294.9375 234.253906 297.28125 237.144531 297.28125 Z M 237.144531 297.28125 " fill-opacity="1" fill-rule="nonzero"/></g></svg>