<svg xmlns="http://www.w3.org/2000/svg" xmlns:xlink="http://www.w3.org/1999/xlink" width="599" zoomAndPan="magnify" viewBox="0 0 449.25 473.999983" height="632" preserveAspectRatio="xMidYMid meet" version="1.0"><path fill="#a3e635" d="M 221.707031 62.257812 C 252.578125 55.917969 281.765625 0.738281 305.925781 21 C 336.257812 46.460938 294.6875 103.523438 312.8125 138.753906 C 323.460938 159.421875 358.503906 148.4375 378.03125 160.902344 C 401.707031 176.011719 448.476562 192.59375 438.289062 218.816406 C 424.238281 255.132812 360.152344 241.417969 335.296875 271.34375 C 322.160156 287.140625 344.394531 311.261719 344.386719 331.820312 C 344.386719 362.578125 350.824219 396.3125 335.238281 422.765625 C 320.898438 447.105469 292.117188 472.582031 264.355469 467.691406 C 231.046875 461.816406 215.429688 422.050781 192.121094 397.53125 C 177.914062 382.5625 172.664062 356.199219 152.917969 350.292969 C 123.855469 341.601562 91.402344 370.039062 63.132812 358.976562 C 39.101562 349.558594 27.542969 320.984375 17.382812 297.210938 C 6.847656 272.535156 3.074219 245.488281 3.15625 218.636719 C 3.246094 190.816406 0 158.429688 17.859375 137.207031 C 36.890625 114.59375 74.414062 120.261719 99.308594 104.386719 C 119.738281 91.367188 127.003906 60.90625 149.824219 53.027344 C 172.890625 45.101562 197.847656 67.148438 221.707031 62.257812 Z M 221.707031 62.257812 " fill-opacity="1" fill-rule="evenodd"/><path fill="#f7ce9a" d="M 327.023438 62.871094 L 372.035156 76.035156 C 373.726562 76.480469 373.902344 78.082031 372.570312 79.503906 L 325.691406 126.742188 L 331.117188 144.800781 L 333.695312 153.429688 C 334.585938 156.453125 334.050781 155.828125 337.078125 156.71875 L 345.707031 159.210938 L 363.761719 164.457031 L 410.640625 117.222656 C 412.066406 115.800781 413.578125 116.066406 414.109375 117.667969 L 427.632812 162.589844 C 428.164062 164.28125 427.363281 166.773438 426.03125 168.195312 C 411.175781 183.230469 396.230469 198.261719 381.375 213.207031 C 379.953125 214.628906 377.460938 215.34375 375.773438 214.898438 L 333.605469 202.621094 L 137.640625 413.449219 C 114.070312 439.515625 52.335938 378.3125 78.222656 354.472656 L 287.796875 157.253906 L 275.164062 115.175781 C 274.632812 113.488281 275.429688 110.996094 276.765625 109.570312 C 291.621094 94.539062 306.566406 79.503906 321.421875 64.558594 C 322.84375 63.136719 325.335938 62.425781 327.023438 62.871094 Z M 127.324219 364.433594 C 133.550781 370.574219 133.550781 380.625 127.414062 386.851562 C 121.273438 393.078125 111.222656 393.078125 104.996094 386.941406 C 98.769531 380.800781 98.769531 370.75 104.90625 364.523438 C 111.132812 358.296875 121.1875 358.207031 127.324219 364.433594 Z M 127.324219 364.433594 " fill-opacity="1" fill-rule="evenodd"/><path stroke-linecap="round" transform="matrix(0.889538, 0, 0, 0.889571, 0.831368, 42.409633)" fill="none" stroke-linejoin="round" d="M 331.699588 84.499676 L 350.599857 65.499127 " stroke="#ffffff" stroke-width="14.4" stroke-opacity="0.6" stroke-miterlimit="10"/><path stroke-linecap="round" transform="matrix(0.889538, 0, 0, 0.889571, 0.831368, 42.409633)" fill="none" stroke-linejoin="round" d="M 182.899492 290.300161 L 216.501922 258.600379 " stroke="#ffffff" stroke-width="14.4" stroke-opacity="0.6" stroke-miterlimit="10"/><path fill="#c07869" d="M 127.234375 179.226562 L 351.398438 412.472656 C 359.847656 421.277344 373.902344 421.546875 382.621094 413.003906 C 387.15625 408.558594 391.695312 404.109375 396.230469 399.660156 C 404.949219 391.121094 405.125 377.066406 396.496094 368.4375 L 169.308594 139.015625 C 167.976562 141.507812 166.195312 143.730469 164.0625 145.867188 L 135.863281 173.355469 C 133.285156 175.84375 130.347656 177.800781 127.234375 179.226562 Z M 127.234375 179.226562 " fill-opacity="1" fill-rule="evenodd"/><path fill="#a29bac" d="M 109.710938 66.871094 C 143.691406 33.691406 198.664062 34.402344 231.84375 68.386719 C 234.066406 70.609375 236.113281 73.011719 237.980469 75.414062 C 245.277344 84.753906 240.5625 81.105469 232.734375 77.636719 C 209.070312 67.230469 184.253906 69.007812 160.949219 80.929688 C 152.230469 85.375 154.632812 85.464844 161.035156 92.046875 L 169.753906 101.03125 C 182.652344 114.199219 182.386719 135.546875 169.132812 148.359375 L 137.554688 179.136719 C 128.746094 187.675781 116.382812 190.433594 105.261719 187.410156 C 103.304688 186.875 97.96875 184.472656 97.703125 189.101562 C 97.433594 195.773438 103.75 219.703125 100.28125 223.082031 L 80.089844 242.742188 C 77.421875 245.410156 73.0625 245.320312 70.394531 242.652344 L 2.789062 173.085938 C 0.121094 170.417969 0.207031 166.058594 2.878906 163.390625 L 23.070312 143.730469 C 26.539062 140.351562 50.289062 147.289062 56.960938 147.113281 C 61.054688 147.023438 59.628906 142.664062 59.097656 140.707031 C 55.894531 129.230469 58.828125 116.421875 67.902344 107.613281 Z M 109.710938 66.871094 " fill-opacity="1" fill-rule="evenodd"/><path stroke-linecap="round" transform="matrix(0.889538, 0, 0, 0.889571, 0.831368, 42.409633)" fill="none" stroke-linejoin="round" d="M 86.299093 104.901004 C 84.59965 98.999285 86.198093 92.899964 90.400592 88.798621 " stroke="#ffffff" stroke-width="14.4" stroke-opacity="0.6" stroke-miterlimit="10"/><path stroke-linecap="round" transform="matrix(0.889538, 0, 0, 0.889571, 0.831368, 42.409633)" fill="none" stroke-linejoin="round" d="M 110.398693 69.301872 L 116.098634 63.799748 L 137.400959 42.897828 " stroke="#ffffff" stroke-width="14.4" stroke-opacity="0.6" stroke-miterlimit="10"/></svg>