<svg xmlns="http://www.w3.org/2000/svg" xmlns:xlink="http://www.w3.org/1999/xlink" width="837" zoomAndPan="magnify" viewBox="0 0 627.75 473.999983" height="632" preserveAspectRatio="xMidYMid meet" version="1.0"><defs><clipPath id="fdd96bb888"><path d="M 289 67.367188 L 400 67.367188 L 400 178 L 289 178 Z M 289 67.367188 " clip-rule="nonzero"/></clipPath><clipPath id="f55273e96d"><path d="M 418 179 L 546.121094 179 L 546.121094 276 L 418 276 Z M 418 179 " clip-rule="nonzero"/></clipPath><clipPath id="94799a187a"><path d="M 143.53125 180 L 271 180 L 271 276 L 143.53125 276 Z M 143.53125 180 " clip-rule="nonzero"/></clipPath><clipPath id="72eab93498"><path d="M 280 336 L 338 336 L 338 391.238281 L 280 391.238281 Z M 280 336 " clip-rule="nonzero"/></clipPath><clipPath id="ffcdf2da0f"><path d="M 352 336 L 410 336 L 410 391.238281 L 352 391.238281 Z M 352 336 " clip-rule="nonzero"/></clipPath></defs><path fill="#00ff00" d="M 245.652344 108.980469 C 252.085938 105.585938 247.675781 71.691406 269.429688 43.214844 C 296.675781 7.730469 487.183594 22.542969 529.535156 79.710938 C 560.46875 121.414062 510.671875 141.792969 562.421875 225.558594 C 627.03125 330.351562 548.761719 365.332031 450.472656 365.621094 C 408.410156 365.765625 373.140625 317.777344 287.28125 365.476562 C 106.382812 465.859375 0 240.082031 245.652344 108.980469 Z M 245.652344 108.980469 " fill-opacity="1" fill-rule="evenodd"/><path fill="#373435" d="M 273.117188 83.613281 C 273.984375 83.398438 275.863281 79.132812 278.679688 72.917969 C 284.316406 60.34375 292.917969 41.191406 311.492188 26.738281 C 313.371094 25.292969 315.613281 24.0625 318.214844 23.050781 C 339.96875 14.304688 386.65625 22.253906 433.34375 39.601562 C 479.8125 56.875 526.644531 83.542969 548.976562 112.304688 C 553.457031 118.089844 557 123.941406 559.3125 129.867188 C 568.203125 152.128906 562.710938 165.859375 556.058594 182.410156 C 548.039062 202.648438 538.136719 227.363281 554.035156 279.617188 C 563.289062 310.113281 564.660156 333.890625 559.890625 352.105469 C 556.78125 363.886719 551.21875 373.351562 543.558594 380.652344 C 535.898438 388.023438 526.285156 393.226562 515.15625 396.550781 C 486.246094 405.371094 446.859375 401.828125 405.664062 391.132812 C 392.507812 387.664062 381.597656 380 369.671875 371.761719 C 344.085938 353.910156 314.09375 332.953125 249.699219 349.359375 C 183.933594 366.054688 134.28125 351.382812 106.382812 321.535156 C 93.953125 308.234375 85.859375 292.046875 82.535156 274.195312 C 79.210938 256.488281 80.726562 237.191406 87.375 217.75 C 105.878906 164.125 164.417969 109.34375 273.117188 83.613281 Z M 285.328125 75.882812 C 281.714844 84.046875 279.113281 89.757812 274.777344 90.769531 C 168.898438 115.847656 112.09375 168.605469 94.316406 220.136719 C 88.027344 238.347656 86.652344 256.34375 89.761719 272.894531 C 92.796875 289.300781 100.242188 304.332031 111.734375 316.546875 C 137.894531 344.589844 185.015625 358.246094 247.894531 342.203125 C 315.539062 325.003906 347.050781 346.972656 373.863281 365.691406 C 385.210938 373.640625 395.6875 380.941406 407.542969 383.976562 C 447.507812 394.457031 485.523438 397.925781 513.058594 389.613281 C 523.03125 386.507812 531.703125 381.882812 538.425781 375.375 C 545.148438 368.945312 550.0625 360.632812 552.808594 350.226562 C 557.21875 333.3125 555.84375 310.835938 547.027344 281.710938 C 530.402344 227.003906 540.8125 200.984375 549.265625 179.664062 C 555.335938 164.632812 560.324219 152.054688 552.519531 132.613281 C 550.421875 127.339844 547.242188 122.0625 543.195312 116.789062 C 521.730469 89.179688 476.199219 63.378906 430.8125 46.464844 C 385.644531 29.699219 340.980469 21.820312 320.886719 29.84375 C 319.007812 30.566406 317.347656 31.507812 315.972656 32.589844 C 298.84375 45.886719 290.679688 63.957031 285.328125 75.882812 Z M 285.328125 75.882812 " fill-opacity="1" fill-rule="nonzero"/><path fill="#fbcbbd" d="M 396.550781 122.304688 C 396.550781 124 396.464844 125.691406 396.300781 127.378906 C 396.132812 129.066406 395.886719 130.738281 395.554688 132.402344 C 395.226562 134.066406 394.8125 135.707031 394.320312 137.332031 C 393.832031 138.953125 393.261719 140.546875 392.613281 142.113281 C 391.964844 143.679688 391.242188 145.210938 390.441406 146.707031 C 389.644531 148.203125 388.773438 149.65625 387.832031 151.066406 C 386.890625 152.472656 385.882812 153.835938 384.808594 155.144531 C 383.734375 156.457031 382.597656 157.710938 381.398438 158.910156 C 380.203125 160.109375 378.949219 161.246094 377.640625 162.320312 C 376.328125 163.398438 374.96875 164.40625 373.5625 165.347656 C 372.152344 166.289062 370.703125 167.160156 369.207031 167.960938 C 367.714844 168.757812 366.183594 169.484375 364.621094 170.132812 C 363.054688 170.78125 361.460938 171.351562 359.839844 171.84375 C 358.21875 172.335938 356.578125 172.746094 354.917969 173.078125 C 353.253906 173.410156 351.582031 173.65625 349.894531 173.824219 C 348.210938 173.988281 346.519531 174.070312 344.824219 174.074219 C 343.132812 174.070312 341.441406 173.988281 339.753906 173.824219 C 338.070312 173.65625 336.394531 173.410156 334.734375 173.078125 C 333.074219 172.746094 331.433594 172.335938 329.8125 171.84375 C 328.191406 171.351562 326.597656 170.78125 325.03125 170.132812 C 323.464844 169.484375 321.9375 168.757812 320.441406 167.960938 C 318.949219 167.160156 317.496094 166.289062 316.089844 165.347656 C 314.679688 164.40625 313.320312 163.398438 312.011719 162.320312 C 310.703125 161.246094 309.449219 160.109375 308.25 158.910156 C 307.054688 157.710938 305.917969 156.457031 304.84375 155.144531 C 303.769531 153.835938 302.761719 152.472656 301.820312 151.066406 C 300.878906 149.65625 300.007812 148.203125 299.210938 146.707031 C 298.410156 145.210938 297.6875 143.679688 297.039062 142.113281 C 296.390625 140.546875 295.820312 138.953125 295.328125 137.332031 C 294.835938 135.707031 294.425781 134.066406 294.09375 132.402344 C 293.765625 130.738281 293.515625 129.066406 293.351562 127.378906 C 293.183594 125.691406 293.101562 124 293.101562 122.304688 C 293.101562 120.609375 293.183594 118.917969 293.351562 117.230469 C 293.515625 115.542969 293.765625 113.867188 294.09375 112.203125 C 294.425781 110.539062 294.835938 108.898438 295.328125 107.277344 C 295.820312 105.652344 296.390625 104.058594 297.039062 102.492188 C 297.6875 100.925781 298.410156 99.394531 299.210938 97.898438 C 300.007812 96.402344 300.878906 94.953125 301.820312 93.542969 C 302.761719 92.132812 303.769531 90.773438 304.84375 89.460938 C 305.917969 88.152344 307.054688 86.894531 308.25 85.695312 C 309.449219 84.5 310.703125 83.359375 312.011719 82.285156 C 313.320312 81.210938 314.679688 80.199219 316.089844 79.257812 C 317.496094 78.316406 318.949219 77.445312 320.441406 76.648438 C 321.9375 75.847656 323.464844 75.125 325.03125 74.476562 C 326.597656 73.824219 328.191406 73.253906 329.8125 72.761719 C 331.433594 72.269531 333.074219 71.859375 334.734375 71.527344 C 336.394531 71.199219 338.070312 70.949219 339.753906 70.785156 C 341.441406 70.617188 343.132812 70.535156 344.824219 70.535156 C 346.519531 70.535156 348.210938 70.617188 349.894531 70.785156 C 351.582031 70.949219 353.253906 71.199219 354.917969 71.527344 C 356.578125 71.859375 358.21875 72.269531 359.839844 72.761719 C 361.460938 73.253906 363.054688 73.824219 364.621094 74.476562 C 366.183594 75.125 367.714844 75.847656 369.207031 76.648438 C 370.703125 77.445312 372.152344 78.316406 373.5625 79.257812 C 374.96875 80.199219 376.328125 81.210938 377.640625 82.285156 C 378.949219 83.359375 380.203125 84.5 381.398438 85.695312 C 382.597656 86.894531 383.734375 88.152344 384.808594 89.460938 C 385.882812 90.773438 386.890625 92.132812 387.832031 93.542969 C 388.773438 94.953125 389.644531 96.402344 390.441406 97.898438 C 391.242188 99.394531 391.964844 100.925781 392.613281 102.492188 C 393.261719 104.058594 393.832031 105.652344 394.320312 107.277344 C 394.8125 108.898438 395.226562 110.539062 395.554688 112.203125 C 395.886719 113.867188 396.132812 115.542969 396.300781 117.230469 C 396.464844 118.917969 396.550781 120.609375 396.550781 122.304688 Z M 396.550781 122.304688 " fill-opacity="1" fill-rule="nonzero"/><g clip-path="url(#fdd96bb888)"><path fill="#000000" d="M 344.824219 177.699219 C 314.515625 177.699219 289.808594 152.96875 289.808594 122.632812 C 289.808594 92.296875 314.515625 67.566406 344.824219 67.566406 C 375.136719 67.566406 399.84375 92.296875 399.84375 122.632812 C 399.84375 152.96875 375.136719 177.699219 344.824219 177.699219 Z M 344.824219 73.832031 C 318.140625 73.832031 296.394531 95.59375 296.394531 122.304688 C 296.394531 149.011719 318.140625 170.773438 344.824219 170.773438 C 371.511719 170.773438 393.253906 149.011719 393.253906 122.304688 C 393.253906 95.59375 371.511719 73.832031 344.824219 73.832031 Z M 344.824219 73.832031 " fill-opacity="1" fill-rule="nonzero"/></g><path fill="#57c1ef" d="M 421.917969 205.398438 C 407.09375 186.273438 383.699219 173.742188 357.675781 173.742188 L 331.648438 173.742188 C 305.292969 173.742188 282.230469 186.273438 267.40625 205.398438 C 256.863281 219.246094 250.601562 236.394531 250.601562 255.1875 L 250.601562 295.417969 L 439.378906 295.417969 L 439.378906 255.1875 C 439.046875 236.394531 432.789062 219.246094 421.917969 205.398438 Z M 421.917969 205.398438 " fill-opacity="1" fill-rule="nonzero"/><path fill="#000000" d="M 439.046875 299.042969 L 250.273438 299.042969 C 248.296875 299.042969 246.976562 297.722656 246.976562 295.746094 L 246.976562 255.1875 C 246.976562 236.394531 253.238281 218.585938 264.769531 203.417969 C 280.910156 182.644531 305.292969 170.445312 331.648438 170.445312 L 357.675781 170.445312 C 384.03125 170.445312 408.410156 182.316406 424.554688 203.417969 C 436.082031 218.257812 442.34375 236.394531 442.34375 255.1875 L 442.34375 295.417969 C 442.34375 297.394531 440.695312 299.042969 439.046875 299.042969 Z M 253.566406 292.449219 L 435.753906 292.449219 L 435.753906 255.1875 C 435.753906 237.710938 430.152344 221.226562 419.609375 207.375 C 404.785156 188.25 382.382812 177.039062 358.003906 177.039062 L 331.976562 177.039062 C 307.597656 177.039062 285.195312 188.25 270.371094 207.375 C 259.828125 221.226562 254.226562 237.710938 254.226562 255.1875 L 254.226562 292.449219 Z M 253.566406 292.449219 " fill-opacity="1" fill-rule="nonzero"/><path fill="#fbcbbd" d="M 511.199219 145.386719 C 511.199219 146.636719 511.136719 147.886719 511.015625 149.132812 C 510.890625 150.378906 510.707031 151.617188 510.464844 152.847656 C 510.21875 154.074219 509.917969 155.289062 509.554688 156.488281 C 509.191406 157.6875 508.769531 158.863281 508.289062 160.023438 C 507.808594 161.179688 507.277344 162.3125 506.6875 163.414062 C 506.097656 164.519531 505.453125 165.59375 504.757812 166.636719 C 504.0625 167.675781 503.316406 168.683594 502.523438 169.648438 C 501.730469 170.617188 500.890625 171.546875 500.003906 172.429688 C 499.121094 173.316406 498.195312 174.15625 497.226562 174.953125 C 496.257812 175.746094 495.253906 176.492188 494.214844 177.1875 C 493.171875 177.882812 492.101562 178.527344 490.996094 179.117188 C 489.894531 179.707031 488.761719 180.242188 487.605469 180.722656 C 486.449219 181.203125 485.273438 181.625 484.074219 181.988281 C 482.878906 182.351562 481.664062 182.65625 480.4375 182.898438 C 479.210938 183.144531 477.972656 183.328125 476.726562 183.449219 C 475.480469 183.574219 474.234375 183.632812 472.980469 183.632812 C 471.730469 183.632812 470.480469 183.574219 469.234375 183.449219 C 467.992188 183.328125 466.753906 183.144531 465.527344 182.898438 C 464.300781 182.65625 463.085938 182.351562 461.886719 181.988281 C 460.691406 181.625 459.515625 181.203125 458.355469 180.722656 C 457.199219 180.242188 456.070312 179.707031 454.96875 179.117188 C 453.863281 178.527344 452.789062 177.882812 451.75 177.1875 C 450.710938 176.492188 449.707031 175.746094 448.738281 174.953125 C 447.769531 174.15625 446.84375 173.316406 445.960938 172.429688 C 445.074219 171.546875 444.234375 170.617188 443.441406 169.648438 C 442.644531 168.683594 441.902344 167.675781 441.207031 166.636719 C 440.511719 165.59375 439.867188 164.519531 439.277344 163.414062 C 438.6875 162.3125 438.152344 161.179688 437.675781 160.023438 C 437.195312 158.863281 436.773438 157.6875 436.410156 156.488281 C 436.046875 155.289062 435.746094 154.074219 435.5 152.847656 C 435.257812 151.617188 435.074219 150.378906 434.949219 149.132812 C 434.828125 147.886719 434.765625 146.636719 434.765625 145.386719 C 434.765625 144.132812 434.828125 142.882812 434.949219 141.636719 C 435.074219 140.390625 435.257812 139.152344 435.5 137.921875 C 435.746094 136.695312 436.046875 135.480469 436.410156 134.28125 C 436.773438 133.082031 437.195312 131.90625 437.675781 130.746094 C 438.152344 129.589844 438.6875 128.457031 439.277344 127.355469 C 439.867188 126.25 440.511719 125.175781 441.207031 124.132812 C 441.902344 123.09375 442.644531 122.089844 443.441406 121.121094 C 444.234375 120.152344 445.074219 119.222656 445.960938 118.339844 C 446.84375 117.453125 447.769531 116.613281 448.738281 115.816406 C 449.707031 115.023438 450.710938 114.277344 451.75 113.582031 C 452.789062 112.886719 453.863281 112.242188 454.96875 111.652344 C 456.070312 111.0625 457.199219 110.527344 458.355469 110.046875 C 459.515625 109.566406 460.691406 109.144531 461.886719 108.78125 C 463.085938 108.417969 464.300781 108.113281 465.527344 107.871094 C 466.753906 107.625 467.992188 107.441406 469.234375 107.320312 C 470.480469 107.195312 471.730469 107.136719 472.980469 107.136719 C 474.234375 107.136719 475.480469 107.195312 476.726562 107.320312 C 477.972656 107.441406 479.210938 107.625 480.4375 107.871094 C 481.664062 108.113281 482.878906 108.417969 484.074219 108.78125 C 485.273438 109.144531 486.449219 109.566406 487.605469 110.046875 C 488.761719 110.527344 489.894531 111.0625 490.996094 111.652344 C 492.101562 112.242188 493.171875 112.886719 494.214844 113.582031 C 495.253906 114.277344 496.257812 115.023438 497.226562 115.816406 C 498.195312 116.613281 499.121094 117.453125 500.003906 118.339844 C 500.890625 119.222656 501.730469 120.152344 502.523438 121.121094 C 503.316406 122.089844 504.0625 123.09375 504.757812 124.132812 C 505.453125 125.175781 506.097656 126.25 506.6875 127.355469 C 507.277344 128.457031 507.808594 129.589844 508.289062 130.746094 C 508.769531 131.90625 509.191406 133.082031 509.554688 134.28125 C 509.917969 135.480469 510.21875 136.695312 510.464844 137.921875 C 510.707031 139.152344 510.890625 140.390625 511.015625 141.636719 C 511.136719 142.882812 511.199219 144.132812 511.199219 145.386719 Z M 511.199219 145.386719 " fill-opacity="1" fill-rule="nonzero"/><path fill="#000000" d="M 472.980469 186.601562 C 450.25 186.601562 431.472656 168.136719 431.472656 145.054688 C 431.472656 121.972656 449.921875 103.835938 472.980469 103.835938 C 496.042969 103.835938 514.492188 122.304688 514.492188 145.386719 C 514.492188 168.464844 495.714844 186.601562 472.980469 186.601562 Z M 472.980469 110.433594 C 453.875 110.433594 438.058594 125.929688 438.058594 145.386719 C 438.058594 164.839844 453.542969 180.335938 472.980469 180.335938 C 492.417969 180.335938 507.902344 164.839844 507.902344 145.386719 C 507.902344 125.929688 492.089844 110.433594 472.980469 110.433594 Z M 472.980469 110.433594 " fill-opacity="1" fill-rule="nonzero"/><path fill="#57c1ef" d="M 542.167969 252.550781 L 542.167969 272.664062 L 439.046875 272.664062 L 439.046875 255.1875 C 439.046875 236.394531 432.789062 219.246094 421.917969 205.398438 C 434.4375 191.546875 452.554688 182.976562 472.980469 182.976562 C 492.089844 182.976562 509.550781 190.890625 522.070312 203.417969 C 534.589844 215.949219 542.167969 233.425781 542.167969 252.550781 Z M 542.167969 252.550781 " fill-opacity="1" fill-rule="nonzero"/><g clip-path="url(#f55273e96d)"><path fill="#000000" d="M 542.167969 275.960938 L 439.046875 275.960938 C 437.070312 275.960938 435.753906 274.644531 435.753906 272.664062 L 435.753906 255.1875 C 435.753906 237.710938 430.152344 221.226562 419.609375 207.375 C 418.621094 206.058594 418.621094 204.410156 419.941406 203.089844 C 433.777344 188.25 453.214844 179.679688 473.3125 179.679688 C 492.75 179.679688 510.867188 187.261719 524.707031 201.109375 C 538.542969 214.960938 546.121094 233.09375 546.121094 252.550781 L 546.121094 272.664062 C 545.460938 274.644531 544.144531 275.960938 542.167969 275.960938 Z M 442.34375 269.367188 L 538.871094 269.367188 L 538.871094 252.550781 C 538.871094 234.746094 531.953125 218.257812 519.433594 205.726562 C 506.914062 193.195312 490.441406 186.273438 472.652344 186.273438 C 454.863281 186.273438 438.390625 193.195312 426.199219 205.398438 C 436.742188 219.90625 442.015625 237.050781 442.015625 254.859375 L 442.015625 269.367188 Z M 442.34375 269.367188 " fill-opacity="1" fill-rule="nonzero"/></g><path fill="#fbcbbd" d="M 254.554688 145.386719 C 254.554688 146.636719 254.496094 147.886719 254.371094 149.132812 C 254.25 150.378906 254.066406 151.617188 253.820312 152.847656 C 253.578125 154.074219 253.273438 155.289062 252.910156 156.488281 C 252.546875 157.6875 252.125 158.863281 251.648438 160.023438 C 251.167969 161.179688 250.632812 162.3125 250.042969 163.414062 C 249.453125 164.519531 248.8125 165.59375 248.113281 166.636719 C 247.417969 167.675781 246.675781 168.683594 245.882812 169.648438 C 245.085938 170.617188 244.246094 171.546875 243.363281 172.429688 C 242.476562 173.316406 241.550781 174.15625 240.582031 174.953125 C 239.617188 175.746094 238.613281 176.492188 237.570312 177.1875 C 236.53125 177.882812 235.457031 178.527344 234.355469 179.117188 C 233.25 179.707031 232.121094 180.242188 230.964844 180.722656 C 229.808594 181.203125 228.628906 181.625 227.433594 181.988281 C 226.234375 182.351562 225.023438 182.65625 223.796875 182.898438 C 222.566406 183.144531 221.332031 183.328125 220.085938 183.449219 C 218.839844 183.574219 217.589844 183.632812 216.339844 183.632812 C 215.085938 183.632812 213.839844 183.574219 212.59375 183.449219 C 211.347656 183.328125 210.113281 183.144531 208.882812 182.898438 C 207.65625 182.65625 206.445312 182.351562 205.246094 181.988281 C 204.046875 181.625 202.871094 181.203125 201.714844 180.722656 C 200.558594 180.242188 199.429688 179.707031 198.324219 179.117188 C 197.21875 178.527344 196.148438 177.882812 195.109375 177.1875 C 194.066406 176.492188 193.0625 175.746094 192.09375 174.953125 C 191.128906 174.15625 190.203125 173.316406 189.316406 172.429688 C 188.429688 171.546875 187.59375 170.617188 186.796875 169.648438 C 186.003906 168.683594 185.257812 167.675781 184.5625 166.636719 C 183.867188 165.59375 183.226562 164.519531 182.636719 163.414062 C 182.046875 162.3125 181.511719 161.179688 181.03125 160.023438 C 180.554688 158.863281 180.132812 157.6875 179.769531 156.488281 C 179.40625 155.289062 179.101562 154.074219 178.855469 152.847656 C 178.613281 151.617188 178.429688 150.378906 178.308594 149.132812 C 178.183594 147.886719 178.125 146.636719 178.125 145.386719 C 178.125 144.132812 178.183594 142.882812 178.308594 141.636719 C 178.429688 140.390625 178.613281 139.152344 178.855469 137.921875 C 179.101562 136.695312 179.40625 135.480469 179.769531 134.28125 C 180.132812 133.082031 180.554688 131.90625 181.03125 130.746094 C 181.511719 129.589844 182.046875 128.457031 182.636719 127.355469 C 183.226562 126.25 183.867188 125.175781 184.5625 124.132812 C 185.257812 123.09375 186.003906 122.089844 186.796875 121.121094 C 187.59375 120.152344 188.429688 119.222656 189.316406 118.339844 C 190.203125 117.453125 191.128906 116.613281 192.09375 115.816406 C 193.0625 115.023438 194.066406 114.277344 195.109375 113.582031 C 196.148438 112.886719 197.21875 112.242188 198.324219 111.652344 C 199.429688 111.0625 200.558594 110.527344 201.714844 110.046875 C 202.871094 109.566406 204.046875 109.144531 205.246094 108.78125 C 206.445312 108.417969 207.65625 108.113281 208.882812 107.871094 C 210.113281 107.625 211.347656 107.441406 212.59375 107.320312 C 213.839844 107.195312 215.085938 107.136719 216.339844 107.136719 C 217.589844 107.136719 218.839844 107.195312 220.085938 107.320312 C 221.332031 107.441406 222.566406 107.625 223.796875 107.871094 C 225.023438 108.113281 226.234375 108.417969 227.433594 108.78125 C 228.628906 109.144531 229.808594 109.566406 230.964844 110.046875 C 232.121094 110.527344 233.25 111.0625 234.355469 111.652344 C 235.457031 112.242188 236.53125 112.886719 237.570312 113.582031 C 238.613281 114.277344 239.617188 115.023438 240.582031 115.816406 C 241.550781 116.613281 242.476562 117.453125 243.363281 118.339844 C 244.246094 119.222656 245.085938 120.152344 245.882812 121.121094 C 246.675781 122.089844 247.417969 123.09375 248.113281 124.132812 C 248.8125 125.175781 249.453125 126.25 250.042969 127.355469 C 250.632812 128.457031 251.167969 129.589844 251.648438 130.746094 C 252.125 131.90625 252.546875 133.082031 252.910156 134.28125 C 253.273438 135.480469 253.578125 136.695312 253.820312 137.921875 C 254.066406 139.152344 254.25 140.390625 254.371094 141.636719 C 254.496094 142.882812 254.554688 144.132812 254.554688 145.386719 Z M 254.554688 145.386719 " fill-opacity="1" fill-rule="nonzero"/><path fill="#000000" d="M 216.339844 186.601562 C 193.605469 186.601562 174.828125 168.136719 174.828125 145.054688 C 174.828125 121.972656 193.605469 103.835938 216.339844 103.835938 C 239.070312 103.835938 257.851562 122.304688 257.851562 145.386719 C 257.851562 168.464844 239.070312 186.601562 216.339844 186.601562 Z M 216.339844 110.433594 C 197.230469 110.433594 181.417969 125.929688 181.417969 145.386719 C 181.417969 164.839844 196.902344 180.335938 216.339844 180.335938 C 235.777344 180.335938 251.261719 164.839844 251.261719 145.386719 C 251.261719 125.929688 235.449219 110.433594 216.339844 110.433594 Z M 216.339844 110.433594 " fill-opacity="1" fill-rule="nonzero"/><path fill="#57c1ef" d="M 267.40625 205.398438 C 256.863281 219.246094 250.601562 236.394531 250.601562 255.1875 L 250.601562 272.664062 L 146.824219 272.664062 L 146.824219 252.550781 C 146.824219 214.300781 177.792969 183.304688 216.011719 183.304688 C 235.117188 183.304688 252.578125 191.21875 265.097656 203.75 C 266.085938 204.078125 266.746094 204.738281 267.40625 205.398438 Z M 267.40625 205.398438 " fill-opacity="1" fill-rule="nonzero"/><g clip-path="url(#94799a187a)"><path fill="#000000" d="M 250.273438 275.960938 L 146.824219 275.960938 C 144.847656 275.960938 143.53125 274.644531 143.53125 272.664062 L 143.53125 252.550781 C 143.53125 212.320312 176.144531 180.007812 216.011719 180.007812 C 235.449219 180.007812 253.566406 187.589844 267.40625 201.441406 C 268.0625 202.101562 268.722656 202.757812 269.382812 203.417969 C 270.371094 204.738281 270.699219 206.386719 269.710938 207.707031 C 259.167969 221.554688 253.566406 238.042969 253.566406 255.519531 L 253.566406 272.992188 C 253.566406 274.644531 252.25 275.960938 250.273438 275.960938 Z M 150.121094 269.367188 L 246.976562 269.367188 L 246.976562 255.1875 C 246.976562 237.382812 252.578125 220.234375 262.792969 205.726562 C 250.273438 193.195312 233.800781 186.273438 216.011719 186.273438 C 179.441406 186.273438 150.121094 215.949219 150.121094 252.21875 Z M 150.121094 269.367188 " fill-opacity="1" fill-rule="nonzero"/></g><path fill="#f78c1f" d="M 333.625 349.824219 L 311.222656 387.742188 L 306.609375 363.671875 L 283.546875 371.257812 L 302.328125 339.601562 C 302.328125 339.601562 309.902344 341.578125 315.832031 340.921875 C 321.765625 340.261719 327.695312 339.929688 333.625 349.824219 Z M 333.625 349.824219 " fill-opacity="1" fill-rule="nonzero"/><g clip-path="url(#72eab93498)"><path fill="#000000" d="M 311.222656 391.039062 C 310.890625 391.039062 310.890625 391.039062 310.5625 391.039062 C 309.246094 390.710938 308.257812 389.722656 307.925781 388.402344 L 303.972656 367.957031 L 284.535156 374.222656 C 283.21875 374.554688 281.898438 374.222656 280.910156 373.234375 C 279.921875 372.246094 279.921875 370.597656 280.582031 369.609375 L 299.359375 337.953125 C 300.347656 336.304688 302.328125 335.972656 303.972656 336.632812 C 305.621094 337.621094 305.949219 339.601562 305.292969 341.25 L 291.125 365.320312 L 305.949219 360.375 C 306.9375 360.046875 307.925781 360.046875 308.585938 360.703125 C 309.246094 361.035156 309.902344 362.023438 310.234375 363.011719 L 313.199219 378.511719 L 331.316406 348.175781 C 332.304688 346.527344 334.28125 346.195312 335.929688 346.855469 C 337.578125 347.84375 337.90625 349.824219 337.25 351.472656 L 314.84375 389.390625 C 313.527344 390.382812 312.210938 391.039062 311.222656 391.039062 Z M 311.222656 391.039062 " fill-opacity="1" fill-rule="nonzero"/></g><path fill="#f78c1f" d="M 386.996094 339.601562 L 405.773438 371.257812 L 382.710938 363.671875 L 378.101562 387.742188 L 355.699219 349.824219 C 355.699219 349.824219 361.296875 340.261719 368.546875 341.25 C 375.792969 342.238281 386.996094 339.601562 386.996094 339.601562 Z M 386.996094 339.601562 " fill-opacity="1" fill-rule="nonzero"/><g clip-path="url(#ffcdf2da0f)"><path fill="#000000" d="M 378.101562 391.039062 C 377.113281 391.039062 375.792969 390.382812 375.136719 389.390625 L 352.730469 351.472656 C 351.742188 349.824219 352.402344 347.84375 354.050781 346.855469 C 355.699219 345.867188 357.675781 346.527344 358.664062 348.175781 L 376.78125 378.511719 L 379.746094 363.011719 C 380.078125 362.023438 380.40625 361.363281 381.394531 360.703125 C 382.054688 360.375 383.042969 360.046875 384.03125 360.375 L 398.855469 365.320312 L 384.359375 341.25 C 383.371094 339.601562 384.03125 337.621094 385.675781 336.632812 C 387.324219 335.644531 389.300781 336.304688 390.289062 337.953125 L 409.070312 369.609375 C 409.726562 370.925781 409.726562 372.246094 408.738281 373.234375 C 407.75 374.222656 406.433594 374.882812 405.113281 374.222656 L 385.675781 367.957031 L 381.722656 388.402344 C 381.394531 389.722656 380.40625 390.710938 379.089844 391.039062 C 378.429688 391.039062 378.101562 391.039062 378.101562 391.039062 Z M 378.101562 391.039062 " fill-opacity="1" fill-rule="nonzero"/></g><path fill="#ffcb29" d="M 405.113281 295.746094 C 405.113281 303.328125 392.925781 308.277344 390.289062 314.542969 C 387.652344 321.136719 392.265625 333.335938 387.324219 338.28125 C 382.382812 343.226562 370.191406 338.613281 363.605469 341.25 C 357.015625 343.886719 352.074219 356.089844 344.824219 356.089844 C 337.25 356.089844 332.304688 343.886719 326.046875 341.25 C 319.457031 338.613281 307.269531 343.226562 302.328125 338.28125 C 297.382812 333.335938 301.996094 321.136719 299.359375 314.542969 C 296.726562 307.945312 284.535156 303 284.535156 295.746094 C 284.535156 288.160156 296.726562 283.214844 299.359375 276.949219 C 301.996094 270.355469 297.382812 258.15625 302.328125 253.210938 C 307.269531 248.261719 319.457031 252.878906 326.046875 250.242188 C 332.636719 247.605469 337.578125 235.402344 344.824219 235.402344 C 352.402344 235.402344 357.34375 247.605469 363.605469 250.242188 C 370.191406 252.878906 382.382812 248.261719 387.324219 253.210938 C 392.265625 258.15625 387.652344 270.355469 390.289062 276.949219 C 392.925781 283.214844 405.113281 288.160156 405.113281 295.746094 Z M 405.113281 295.746094 " fill-opacity="1" fill-rule="nonzero"/><path fill="#000000" d="M 344.496094 359.386719 C 338.894531 359.386719 334.613281 354.769531 330.988281 350.484375 C 328.683594 347.84375 326.375 345.207031 324.398438 344.546875 C 322.09375 343.558594 318.46875 343.886719 315.175781 344.21875 C 309.574219 344.546875 303.644531 344.878906 299.691406 340.921875 C 295.738281 336.964844 296.066406 330.699219 296.394531 325.421875 C 296.726562 321.796875 296.726562 318.167969 296.066406 316.191406 C 295.078125 314.210938 292.441406 311.902344 290.136719 309.59375 C 285.855469 305.96875 281.242188 301.679688 281.242188 296.074219 C 281.242188 290.46875 285.855469 286.183594 290.136719 282.554688 C 292.773438 280.25 295.40625 277.941406 296.066406 275.960938 C 297.054688 273.652344 296.726562 270.027344 296.394531 266.730469 C 296.066406 261.125 295.738281 255.1875 299.691406 251.230469 C 303.644531 247.273438 309.902344 247.605469 315.175781 247.933594 C 318.800781 248.261719 322.421875 248.261719 324.398438 247.605469 C 326.375 246.613281 328.683594 243.976562 330.988281 241.667969 C 334.613281 237.382812 338.894531 232.765625 344.496094 232.765625 C 350.097656 232.765625 354.378906 237.382812 358.003906 241.667969 C 360.308594 244.308594 362.617188 246.945312 364.59375 247.605469 C 366.898438 248.59375 370.523438 248.261719 373.816406 247.933594 C 379.417969 247.605469 385.347656 247.273438 389.300781 251.230469 C 393.253906 255.1875 392.925781 261.453125 392.597656 266.730469 C 392.265625 270.355469 392.265625 273.984375 392.925781 275.960938 C 393.914062 277.941406 396.550781 280.25 398.855469 282.554688 C 403.136719 286.183594 407.75 290.46875 407.75 296.074219 C 407.75 301.679688 403.136719 305.96875 398.855469 309.59375 C 396.21875 311.902344 393.585938 314.210938 392.925781 316.191406 C 391.9375 318.496094 392.265625 322.125 392.597656 325.421875 C 392.925781 331.027344 393.253906 336.964844 389.300781 340.921875 C 385.347656 344.878906 379.089844 344.546875 373.816406 344.21875 C 370.191406 343.886719 366.570312 343.886719 364.59375 344.546875 C 362.617188 345.535156 360.308594 348.175781 358.003906 350.484375 C 354.378906 354.441406 350.425781 359.386719 344.496094 359.386719 Z M 319.457031 336.964844 C 322.09375 336.964844 324.398438 337.292969 326.707031 338.28125 C 330.328125 339.601562 332.964844 342.898438 335.601562 346.195312 C 338.566406 349.492188 341.53125 352.789062 344.167969 352.789062 C 346.800781 352.789062 349.765625 349.492188 352.730469 346.195312 C 355.367188 343.226562 358.332031 339.929688 361.628906 338.28125 C 365.25 336.632812 369.535156 336.964844 373.816406 337.292969 C 378.101562 337.621094 382.382812 337.953125 384.359375 335.972656 C 386.007812 334.324219 386.007812 329.710938 385.675781 325.421875 C 385.347656 321.136719 385.019531 316.847656 386.664062 313.222656 C 387.984375 309.59375 391.277344 306.957031 394.574219 304.320312 C 397.867188 301.351562 401.160156 298.382812 401.160156 295.746094 C 401.160156 293.109375 397.867188 290.140625 394.574219 287.171875 C 391.609375 284.535156 388.3125 281.566406 386.664062 278.269531 C 385.019531 274.644531 385.347656 270.355469 385.675781 266.070312 C 386.007812 261.78125 386.335938 257.496094 384.359375 255.519531 C 382.710938 253.871094 378.101562 253.871094 373.816406 254.199219 C 369.535156 254.527344 365.25 254.859375 361.628906 253.210938 C 358.003906 251.890625 355.367188 248.59375 352.730469 245.296875 C 349.765625 242 346.800781 238.699219 344.167969 238.699219 C 341.53125 238.699219 338.566406 242 335.601562 245.296875 C 332.964844 248.261719 330 251.5625 326.707031 253.210938 C 323.082031 254.859375 318.800781 254.527344 314.515625 254.199219 C 310.234375 253.871094 305.949219 253.539062 303.972656 255.519531 C 302.328125 257.167969 302.328125 261.78125 302.65625 266.070312 C 302.984375 270.355469 303.316406 274.644531 301.667969 278.269531 C 300.347656 281.898438 297.054688 284.535156 293.761719 287.171875 C 290.464844 290.140625 287.171875 293.109375 287.171875 295.746094 C 287.171875 298.382812 290.464844 301.351562 293.761719 304.320312 C 296.726562 306.957031 300.019531 309.925781 301.667969 313.222656 C 303.316406 316.847656 302.984375 321.136719 302.65625 325.421875 C 302.328125 329.710938 301.996094 333.996094 303.972656 335.972656 C 305.621094 337.621094 310.234375 337.621094 314.515625 337.292969 C 316.164062 337.292969 317.808594 336.964844 319.457031 336.964844 Z M 319.457031 336.964844 " fill-opacity="1" fill-rule="nonzero"/><path fill="#f78c1f" d="M 344.824219 262.113281 L 354.378906 281.898438 L 376.453125 285.195312 L 360.640625 300.691406 L 364.261719 322.453125 L 344.824219 311.902344 L 325.386719 322.453125 L 329.011719 300.691406 L 313.199219 285.195312 L 334.941406 281.898438 Z M 344.824219 262.113281 " fill-opacity="1" fill-rule="nonzero"/><path fill="#000000" d="M 325.386719 325.753906 C 324.730469 325.753906 324.070312 325.421875 323.410156 325.09375 C 322.421875 324.433594 321.765625 323.113281 322.09375 321.796875 L 325.386719 301.679688 L 310.890625 287.503906 C 309.902344 286.511719 309.574219 285.195312 309.902344 284.207031 C 310.234375 282.886719 311.222656 282.226562 312.539062 281.898438 L 332.636719 278.929688 L 341.53125 260.792969 C 342.519531 258.484375 346.472656 258.484375 347.460938 260.792969 L 356.355469 278.929688 L 376.453125 281.898438 C 377.769531 282.226562 378.757812 282.886719 379.089844 284.207031 C 379.417969 285.523438 379.089844 286.84375 378.101562 287.503906 L 363.933594 301.679688 L 367.226562 321.796875 C 367.558594 323.113281 366.898438 324.433594 365.910156 325.09375 C 364.921875 325.753906 363.605469 326.082031 362.285156 325.421875 L 344.167969 315.859375 L 326.046875 325.421875 C 326.375 325.421875 325.71875 325.753906 325.386719 325.753906 Z M 344.824219 308.605469 C 345.484375 308.605469 345.8125 308.605469 346.472656 308.933594 L 359.980469 316.191406 L 357.34375 301.023438 C 357.015625 300.03125 357.675781 298.714844 358.332031 298.054688 L 369.203125 287.171875 L 354.050781 285.195312 C 353.0625 285.195312 352.074219 284.207031 351.414062 283.546875 L 344.496094 269.695312 L 337.90625 283.546875 C 337.578125 284.535156 336.589844 285.195312 335.269531 285.195312 L 320.117188 287.503906 L 330.988281 298.382812 C 331.648438 299.042969 331.976562 300.363281 331.976562 301.351562 L 329.339844 316.519531 L 342.847656 309.265625 C 343.835938 308.933594 344.167969 308.605469 344.824219 308.605469 Z M 344.824219 308.605469 " fill-opacity="1" fill-rule="nonzero"/></svg>