<svg xmlns="http://www.w3.org/2000/svg" xmlns:xlink="http://www.w3.org/1999/xlink" width="674" zoomAndPan="magnify" viewBox="0 0 505.5 473.999983" height="632" preserveAspectRatio="xMidYMid meet" version="1.0"><path fill="#a3e635" d="M 168.714844 27.136719 C 123.613281 27 88.945312 45.777344 64.710938 83.472656 C 64.6875 83.503906 64.671875 83.542969 64.664062 83.582031 L 64.644531 83.582031 C 60.503906 90.535156 57.59375 99.214844 55.917969 109.617188 C 55.90625 109.683594 55.917969 109.753906 55.945312 109.8125 L 55.925781 109.8125 C 53.871094 165.972656 51.015625 197.355469 47.355469 203.96875 C 47.324219 204.027344 47.308594 204.09375 47.316406 204.15625 L 47.296875 204.15625 C 20.902344 270.886719 7.1875 307.976562 6.15625 315.4375 C 6.144531 315.527344 6.171875 315.621094 6.234375 315.691406 L 6.238281 315.695312 C 6.519531 316.277344 6.605469 316.945312 6.46875 317.601562 C 2.359375 337.304688 3.152344 354.996094 8.851562 370.671875 C 8.863281 370.707031 8.882812 370.742188 8.90625 370.769531 L 8.886719 370.769531 C 22.351562 406.835938 48.167969 425.160156 86.34375 425.742188 L 86.347656 425.742188 C 86.363281 425.742188 86.375 425.738281 86.390625 425.738281 L 86.378906 425.738281 C 96.171875 424.832031 106.480469 422.46875 117.304688 418.648438 L 117.289062 418.648438 L 117.402344 418.617188 C 181.839844 387.792969 222.464844 372.125 239.273438 371.613281 L 239.285156 371.613281 L 239.304688 371.609375 L 239.433594 371.574219 C 242.492188 369.964844 250.253906 369.179688 262.726562 369.21875 C 285.289062 369.289062 323.148438 372.070312 376.308594 377.5625 L 376.367188 377.5625 L 376.390625 377.566406 C 377.027344 377.574219 377.664062 377.582031 378.304688 377.582031 C 388.796875 377.613281 399.300781 376.402344 409.816406 373.941406 L 409.824219 373.9375 L 409.828125 373.941406 L 409.855469 373.925781 L 409.871094 373.929688 C 434.128906 367.683594 452.3125 353.992188 464.425781 332.855469 L 464.425781 332.859375 L 464.472656 332.777344 L 464.472656 332.78125 C 477.246094 311.894531 479.878906 289.113281 472.371094 264.429688 L 472.34375 264.429688 C 472.351562 264.382812 472.34375 264.335938 472.328125 264.292969 C 469.882812 257.152344 466.09375 248.960938 460.960938 239.71875 L 460.9375 239.71875 C 460.933594 239.65625 460.914062 239.597656 460.878906 239.546875 C 435.800781 202.800781 420.230469 177.179688 414.164062 162.6875 L 414.140625 162.6875 C 414.152344 162.609375 414.132812 162.53125 414.085938 162.460938 C 409.332031 155.511719 400.140625 127.640625 386.515625 78.84375 L 386.53125 78.847656 C 386.527344 78.832031 386.527344 78.824219 386.519531 78.8125 C 381.375 65.636719 375.363281 55.003906 368.488281 46.914062 L 368.414062 46.824219 C 361.773438 38.421875 351.886719 33.585938 338.75 32.3125 C 338.210938 32.261719 337.707031 32.066406 337.28125 31.761719 L 337.261719 31.765625 C 337.210938 31.671875 337.121094 31.609375 337.011719 31.597656 C 336.304688 31.515625 335.289062 31.472656 333.972656 31.46875 C 323.863281 31.4375 295.566406 33.695312 249.089844 38.238281 L 248.90625 38.25 L 248.902344 38.25 C 248.144531 38.28125 247.351562 38.292969 246.523438 38.289062 C 236.710938 38.257812 222.097656 36.011719 202.683594 31.539062 C 201.941406 31.371094 201.328125 30.9375 200.914062 30.367188 L 200.894531 30.367188 C 200.878906 30.226562 200.773438 30.109375 200.628906 30.085938 C 189.46875 28.152344 178.828125 27.167969 168.714844 27.136719 Z M 168.714844 27.136719 " fill-opacity="1" fill-rule="nonzero"/><path fill="#000000" d="M 158.179688 43.511719 C 96.15625 48.613281 56.78125 77.277344 40.066406 129.503906 L 40.09375 129.410156 C 37.867188 137.15625 37.292969 146.265625 38.367188 156.738281 L 38.300781 156.335938 C 50.917969 211.390625 56.257812 242.46875 54.332031 249.570312 L 54.425781 249.082031 C 45.871094 323.085938 42.273438 362.558594 43.636719 367.503906 C 43.347656 366.464844 42.550781 365.871094 41.238281 365.71875 C 40.5 365.632812 39.832031 365.792969 39.230469 366.191406 C 40.214844 365.535156 41.476562 365.457031 42.535156 365.988281 C 43.59375 366.519531 44.285156 367.574219 44.351562 368.757812 C 45.46875 388.640625 50.75 405.335938 60.199219 418.847656 L 60.183594 418.828125 C 82.304688 449.949219 111.722656 460.863281 148.4375 451.574219 L 148.109375 451.675781 C 157.375 448.269531 166.761719 443.292969 176.273438 436.742188 L 176 436.953125 C 231.144531 389.757812 266.476562 364.167969 282 360.1875 L 279.996094 361.671875 C 280.148438 361.425781 280.320312 361.183594 280.515625 360.949219 C 286.027344 354.324219 330.519531 344.335938 414.003906 330.980469 L 413.730469 331.035156 C 424.511719 328.367188 434.941406 324.332031 445.019531 318.929688 L 444.960938 318.960938 C 466.554688 306.792969 480.433594 289.0625 486.597656 265.761719 L 486.625 265.671875 C 493.5 242.394531 490.144531 219.902344 476.558594 198.1875 L 476.617188 198.277344 C 472.390625 191.992188 466.5625 185.015625 459.132812 177.359375 L 459.347656 177.5625 C 425.398438 148.367188 403.753906 127.621094 394.410156 115.328125 L 394.953125 115.890625 C 388.742188 110.84375 372.617188 86.296875 346.585938 42.253906 L 346.765625 42.53125 C 338.472656 31.25 330.003906 22.625 321.367188 16.65625 L 321.269531 16.585938 C 312.824219 10.289062 302.183594 8.210938 289.351562 10.347656 C 288.183594 10.542969 287 10.097656 286.253906 9.179688 C 285.503906 8.261719 285.300781 7.015625 285.726562 5.910156 C 284.992188 7.824219 285.578125 9.148438 287.484375 9.878906 C 287.769531 9.988281 288.015625 10.042969 288.21875 10.039062 C 284.066406 10.09375 256.324219 19.757812 204.996094 39.023438 L 204.808594 39.085938 C 195.527344 41.960938 180.15625 43.777344 158.691406 44.535156 C 156.867188 44.601562 155.339844 43.175781 155.273438 41.351562 C 155.210938 39.53125 156.636719 38 158.457031 37.9375 C 179.335938 37.199219 194.132812 35.476562 202.855469 32.777344 L 202.671875 32.839844 C 254.722656 13.300781 283.210938 3.5 288.132812 3.433594 C 288.773438 3.425781 289.347656 3.519531 289.851562 3.710938 C 292.054688 4.558594 292.734375 6.078125 291.894531 8.273438 L 288.265625 3.832031 C 302.949219 1.386719 315.265625 3.871094 325.21875 11.289062 L 325.121094 11.222656 C 334.367188 17.609375 343.355469 26.742188 352.089844 38.617188 C 352.152344 38.707031 352.214844 38.796875 352.269531 38.894531 C 377.902344 82.257812 393.519531 106.214844 399.121094 110.765625 C 399.324219 110.929688 399.507812 111.121094 399.667969 111.328125 C 408.730469 123.253906 430.058594 143.660156 463.65625 172.554688 C 463.730469 172.621094 463.800781 172.6875 463.871094 172.761719 C 471.578125 180.699219 477.652344 187.980469 482.097656 194.59375 L 482.15625 194.683594 C 496.796875 218.078125 500.394531 242.363281 492.957031 267.542969 L 492.984375 267.453125 C 486.34375 292.546875 471.414062 311.636719 448.203125 324.714844 L 448.140625 324.75 C 437.574219 330.414062 426.636719 334.644531 415.320312 337.445312 C 415.226562 337.46875 415.136719 337.484375 415.046875 337.5 C 333.195312 350.597656 290.046875 359.820312 285.59375 365.171875 C 285.605469 365.15625 285.625 365.132812 285.644531 365.101562 C 285.195312 365.839844 284.476562 366.371094 283.640625 366.585938 C 269.109375 370.3125 234.664062 395.441406 180.296875 441.972656 C 180.207031 442.046875 180.117188 442.117188 180.019531 442.183594 C 170.050781 449.046875 160.171875 454.277344 150.386719 457.875 C 150.28125 457.914062 150.171875 457.949219 150.058594 457.976562 C 110.421875 468.007812 78.667969 456.234375 54.800781 422.65625 L 54.785156 422.632812 C 44.621094 408.09375 38.945312 390.257812 37.757812 369.125 L 42.882812 371.691406 C 42.140625 372.183594 41.339844 372.378906 40.480469 372.28125 C 38.839844 372.089844 37.769531 371.082031 37.265625 369.253906 C 35.679688 363.484375 39.210938 323.175781 47.863281 248.324219 C 47.882812 248.160156 47.914062 248 47.957031 247.839844 C 49.597656 241.800781 44.230469 211.792969 31.863281 157.8125 C 31.832031 157.679688 31.808594 157.542969 31.796875 157.410156 C 30.636719 146.089844 31.285156 136.148438 33.746094 127.585938 L 33.773438 127.492188 C 51.390625 72.457031 92.679688 42.269531 157.636719 36.929688 C 159.457031 36.78125 161.050781 38.132812 161.199219 39.949219 C 161.351562 41.769531 159.996094 43.363281 158.179688 43.511719 Z M 158.179688 43.511719 " fill-opacity="1" fill-rule="nonzero"/><path fill="#2fbc6b" d="M 233.136719 205.398438 L 277.570312 205.398438 L 277.570312 345.820312 L 174.808594 345.820312 L 174.703125 220.09375 L 172.96875 220.09375 C 170.109375 220.09375 167.757812 217.746094 167.757812 214.890625 L 167.859375 181.210938 C 167.859375 178.355469 170.210938 176.007812 173.070312 176.007812 L 177.667969 176.007812 L 228.027344 174.171875 C 230.886719 174.171875 233.238281 176.519531 233.238281 179.375 L 233.238281 205.398438 Z M 297.898438 135.699219 C 294.019531 135.699219 290.851562 138.863281 290.851562 142.738281 C 290.851562 146.617188 294.019531 149.78125 297.898438 149.78125 C 301.78125 149.78125 304.949219 146.617188 304.949219 142.738281 C 304.949219 138.757812 301.78125 135.597656 297.898438 135.699219 Z M 297.898438 135.699219 " fill-opacity="1" fill-rule="nonzero"/><path fill="#ff9b96" d="M 413.230469 186.824219 C 413.433594 188.355469 413.433594 189.988281 413.027344 191.621094 C 410.984375 200.703125 398.316406 210.296875 398.316406 210.296875 L 391.574219 225.605469 C 373.289062 221.828125 363.175781 211.929688 363.175781 211.929688 L 371.246094 197.03125 C 366.953125 184.375 365.933594 153.25 372.472656 154.167969 C 379.007812 155.085938 379.519531 169.375 379.519531 169.375 L 383.300781 163.863281 C 383.300781 163.863281 391.675781 134.78125 398.113281 139.78125 C 400.871094 141.921875 400.972656 147.332031 400.15625 152.84375 C 402.605469 147.128906 405.570312 141.921875 408.222656 141.820312 C 412.003906 141.71875 411.902344 150.1875 408.941406 159.984375 C 411.902344 154.269531 415.171875 150.800781 417.929688 149.984375 C 421.914062 148.761719 421.402344 159.476562 416.601562 169.070312 C 420.484375 164.882812 424.160156 162.230469 426 164.679688 C 429.164062 168.558594 419.460938 180.191406 413.230469 186.824219 Z M 317.511719 96.101562 C 317.511719 96.101562 310.976562 85.589844 310.976562 85.695312 C 308.832031 85.183594 317.207031 39.058594 261.328125 23.445312 C 209.949219 9.15625 199.628906 59.570312 189.824219 81.613281 C 189.515625 82.324219 187.371094 96.613281 187.066406 104.164062 C 186.042969 124.984375 193.707031 146.515625 215.566406 157.027344 L 216.585938 176.3125 L 226.191406 176.3125 C 229.050781 176.3125 231.398438 178.660156 231.398438 181.519531 L 231.398438 213.96875 C 231.398438 216.828125 229.050781 219.175781 226.191406 219.175781 L 203.714844 219.175781 C 203.714844 220.195312 203.613281 221.316406 203.613281 222.339844 C 196.464844 222.03125 187.882812 222.847656 187.882812 222.847656 C 187.882812 222.847656 185.941406 212.03125 180.425781 214.992188 C 177.667969 216.113281 175.421875 219.378906 175.421875 219.378906 L 148.144531 240.09375 C 148.144531 240.09375 153.152344 260.914062 171.945312 278.160156 C 171.945312 278.160156 185.839844 278.363281 192.378906 273.976562 C 192.378906 273.976562 206.472656 270.507812 209.539062 265.8125 C 211.277344 265.914062 215.464844 265.199219 215.769531 258.464844 C 217.710938 253.667969 214.953125 248.769531 214.953125 248.769531 C 214.953125 248.769531 221.492188 239.175781 213.726562 234.585938 C 213.726562 234.585938 215.769531 232.542969 216.078125 229.992188 C 241.714844 235.09375 277.980469 231.421875 278.289062 229.480469 C 279.71875 220.910156 276.347656 198.253906 275.632812 195.089844 L 266.742188 191.621094 L 267.867188 160.800781 C 280.332031 157.128906 288.398438 150.597656 292.894531 146.105469 C 292.28125 145.1875 291.875 144.066406 291.875 142.839844 C 291.875 139.472656 294.632812 136.820312 297.898438 136.820312 C 301.269531 136.820312 303.925781 139.574219 303.925781 142.839844 C 303.925781 142.945312 303.925781 142.945312 303.925781 143.046875 C 313.121094 142.023438 333.246094 138.351562 334.777344 128.757812 C 336.71875 117.535156 328.953125 98.246094 317.511719 96.101562 Z M 317.511719 96.101562 " fill-opacity="1" fill-rule="nonzero"/><path fill="#641aca" d="M 187.882812 222.949219 C 187.882812 222.949219 187.574219 221.214844 186.859375 219.277344 L 207.597656 219.277344 C 207.496094 220.398438 207.394531 221.523438 207.292969 222.746094 C 199.730469 221.929688 187.882812 222.949219 187.882812 222.949219 Z M 223.125 270.507812 C 227.210938 270.507812 230.480469 267.242188 230.480469 263.160156 C 230.480469 259.078125 227.210938 255.8125 223.125 255.8125 C 219.039062 255.8125 215.769531 259.078125 215.769531 263.160156 C 215.769531 267.242188 219.039062 270.507812 223.125 270.507812 Z M 221.386719 176.414062 C 226.699219 170.90625 230.070312 163.457031 230.070312 155.292969 C 230.070312 138.554688 216.484375 124.984375 199.730469 124.984375 C 182.980469 124.984375 169.394531 138.554688 169.394531 155.292969 C 169.394531 163.558594 172.660156 171.007812 178.074219 176.414062 Z M 247.335938 251.523438 C 251.421875 251.523438 254.691406 248.257812 254.691406 244.175781 C 254.691406 240.09375 251.421875 236.828125 247.335938 236.828125 C 243.25 236.828125 239.980469 240.09375 239.980469 244.175781 C 239.980469 248.257812 243.25 251.523438 247.335938 251.523438 Z M 217.40625 240.808594 C 219.34375 239.484375 220.570312 237.238281 220.570312 234.6875 C 220.570312 231.523438 218.527344 228.765625 215.769531 227.746094 C 217.097656 231.320312 213.625 234.789062 213.625 234.789062 C 216.28125 236.421875 217.300781 238.5625 217.40625 240.808594 Z M 361.335938 203.867188 L 338.660156 244.585938 C 338.660156 244.585938 325.789062 217.644531 310.363281 203.96875 C 302.191406 195.804688 262.964844 185.089844 262.554688 188.050781 C 255.914062 234.378906 254.078125 278.875 253.667969 298.058594 C 249.683594 298.160156 246.519531 301.425781 246.519531 305.40625 C 246.519531 309.386719 249.582031 312.550781 253.464844 312.753906 C 253.769531 346.023438 257.242188 396.84375 257.242188 396.84375 C 300.046875 410.519531 328.339844 393.882812 328.339844 393.882812 C 324.867188 352.351562 290.648438 311.324219 290.648438 311.324219 C 300.046875 288.261719 299.226562 274.996094 299.226562 274.996094 C 299.226562 274.996094 320.679688 329.285156 357.453125 314.796875 C 394.230469 300.203125 395.964844 224.074219 395.964844 224.074219 C 377.988281 219.683594 361.335938 203.867188 361.335938 203.867188 Z M 249.683594 280.097656 C 249.683594 276.015625 246.414062 272.75 242.328125 272.75 C 238.242188 272.75 234.976562 276.015625 234.976562 280.097656 C 234.976562 284.179688 238.242188 287.445312 242.328125 287.445312 C 246.414062 287.445312 249.683594 284.179688 249.683594 280.097656 Z M 201.570312 302.957031 C 200.550781 302.957031 199.628906 303.160156 198.8125 303.46875 C 199.9375 293.671875 201.367188 280.914062 202.695312 268.058594 C 200.449219 268.464844 198.199219 268.667969 196.257812 268.667969 C 189.109375 268.363281 185.839844 267.953125 185.839844 267.953125 C 179.199219 272.445312 171.945312 276.324219 171.945312 276.324219 C 162.242188 254.585938 156.828125 239.378906 156.828125 239.378906 L 167.246094 234.074219 C 170.109375 228.15625 172.558594 223.054688 175.523438 219.378906 L 173.070312 219.378906 C 170.210938 219.378906 167.859375 217.03125 167.859375 214.175781 L 167.859375 199.378906 C 160.300781 203.355469 152.128906 208.867188 143.855469 216.726562 C 110.042969 248.769531 95.433594 270.199219 95.433594 270.199219 C 75.515625 284.996094 75.820312 320.613281 100.847656 332.144531 C 125.976562 343.777344 154.070312 312.753906 169.289062 292.140625 C 169.597656 299.488281 170.3125 307.652344 172.050781 314.695312 C 172.050781 314.695312 137.316406 347.65625 121.484375 386.535156 C 121.484375 386.535156 149.78125 400.621094 176.746094 398.476562 C 176.746094 398.476562 193.910156 337.347656 196.871094 318.0625 C 196.972656 317.550781 197.078125 316.9375 197.179688 316.222656 C 198.402344 317.144531 199.9375 317.652344 201.570312 317.652344 C 205.65625 317.652344 208.925781 314.386719 208.925781 310.304688 C 208.925781 306.222656 205.65625 302.957031 201.570312 302.957031 Z M 225.78125 312.550781 C 221.695312 312.550781 218.425781 315.816406 218.425781 319.898438 C 218.425781 323.980469 221.695312 327.246094 225.78125 327.246094 C 229.867188 327.246094 233.136719 323.980469 233.136719 319.898438 C 233.136719 315.816406 229.867188 312.550781 225.78125 312.550781 Z M 224.25 288.976562 C 224.25 284.894531 220.980469 281.628906 216.894531 281.628906 C 212.808594 281.628906 209.539062 284.894531 209.539062 288.976562 C 209.539062 293.058594 212.808594 296.324219 216.894531 296.324219 C 220.980469 296.324219 224.25 293.058594 224.25 288.976562 Z M 224.25 288.976562 " fill-opacity="1" fill-rule="nonzero"/><path fill="#ffffff" d="M 307.910156 400.621094 C 309.953125 416.132812 310.976562 433.785156 310.363281 453.480469 C 310.363281 453.480469 239.0625 472.769531 140.789062 450.929688 C 140.789062 450.929688 140.382812 425.925781 146.613281 395.515625 C 155.703125 397.761719 166.328125 399.394531 176.746094 398.578125 C 176.746094 398.578125 192.480469 342.554688 196.359375 320.816406 C 209.230469 323.570312 229.664062 326.121094 253.566406 322.753906 C 254.382812 355.308594 257.242188 396.84375 257.242188 396.84375 C 278.183594 403.476562 295.550781 402.964844 307.910156 400.621094 Z M 231.09375 134.269531 C 231.5 134.371094 232.011719 134.574219 232.523438 134.675781 C 234.871094 135.085938 237.527344 134.984375 240.59375 133.757812 C 243.964844 132.433594 246.109375 130.085938 247.4375 127.839844 C 249.277344 124.882812 249.683594 122.023438 249.683594 121.820312 C 249.683594 121.511719 249.480469 121.207031 249.171875 121.105469 C 248.867188 121.105469 224.964844 129.269531 224.65625 129.472656 C 224.453125 129.675781 224.351562 130.085938 224.554688 130.289062 C 224.65625 130.390625 227.109375 133.042969 231.09375 134.269531 Z M 231.398438 181.621094 L 231.398438 193.152344 C 238.039062 194.171875 246.722656 194.683594 256.632812 193.558594 C 252.953125 209.070312 251.625 232.644531 271.238281 246.726562 C 271.238281 246.726562 281.453125 228.15625 280.636719 209.175781 C 289.011719 217.03125 300.25 222.746094 314.550781 220.910156 C 314.550781 220.910156 303.3125 177.230469 271.546875 176.210938 C 271.339844 174.476562 270.726562 172.84375 269.503906 171.519531 C 266.4375 168.253906 261.023438 168.253906 256.835938 171.3125 C 249.171875 171.824219 238.242188 172.027344 225.882812 170.496094 C 224.65625 172.640625 223.125 174.578125 221.386719 176.3125 L 226.191406 176.3125 C 229.050781 176.414062 231.398438 178.761719 231.398438 181.621094 Z M 231.398438 181.621094 " fill-opacity="1" fill-rule="nonzero"/><path fill="#3b1837" d="M 210.152344 292.855469 C 210.050781 292.546875 210.253906 292.242188 210.558594 292.242188 C 220.878906 291.121094 230.992188 288.570312 240.59375 284.589844 C 240.898438 284.488281 241.207031 284.589844 241.308594 284.894531 C 241.410156 285.199219 241.308594 285.507812 241 285.609375 C 231.296875 289.589844 221.082031 292.242188 210.558594 293.363281 C 210.253906 293.363281 210.050781 293.160156 210.152344 292.855469 Z M 190.742188 129.882812 C 190.84375 130.1875 191.152344 130.289062 191.355469 130.1875 C 194.011719 129.269531 196.769531 128.859375 199.628906 128.859375 C 211.992188 128.859375 222.820312 137.636719 225.371094 149.679688 C 225.371094 149.882812 225.679688 150.085938 225.882812 150.085938 L 225.984375 150.085938 C 226.292969 149.984375 226.394531 149.78125 226.394531 149.476562 C 223.738281 136.921875 212.5 127.839844 199.628906 127.839844 C 196.667969 127.839844 193.808594 128.25 191.050781 129.167969 C 190.84375 129.371094 190.640625 129.675781 190.742188 129.882812 Z M 173.785156 181.621094 C 173.785156 181.925781 173.988281 182.128906 174.296875 182.128906 L 225.679688 182.128906 C 225.984375 182.128906 226.191406 181.925781 226.191406 181.621094 C 226.191406 181.3125 225.984375 181.109375 225.679688 181.109375 L 174.296875 181.109375 C 173.988281 181.109375 173.785156 181.417969 173.785156 181.621094 Z M 194.011719 97.835938 C 194.316406 97.941406 194.625 97.835938 194.726562 97.53125 C 194.726562 97.53125 196.054688 94.265625 198.8125 91.714844 C 201.570312 89.0625 204.839844 88.039062 208.414062 88.652344 C 207.085938 89.570312 205.863281 91.101562 205.144531 93.144531 C 203.714844 97.125 206.167969 101.410156 210.050781 102.53125 C 213.320312 103.449219 216.585938 101.917969 218.324219 98.960938 C 218.734375 101.410156 218.628906 103.347656 218.628906 103.347656 C 218.628906 103.65625 218.835938 103.960938 219.140625 103.960938 C 219.449219 103.960938 219.652344 103.757812 219.753906 103.449219 C 219.753906 103.347656 220.570312 92.019531 211.785156 88.449219 C 205.25 85.796875 200.652344 88.347656 197.996094 90.898438 C 195.136719 93.652344 193.707031 96.917969 193.707031 97.019531 C 193.601562 97.328125 193.707031 97.734375 194.011719 97.835938 Z M 212.398438 219.074219 L 186.859375 219.277344 C 187.574219 221.214844 187.882812 223.15625 187.882812 223.15625 C 187.882812 223.15625 207.085938 221.214844 212.09375 223.972656 Z M 218.628906 71.917969 C 209.949219 69.367188 200.449219 73.449219 197.179688 79.265625 C 196.667969 81.613281 197.6875 82.222656 205.65625 79.773438 C 209.742188 78.550781 213.929688 77.9375 218.121094 77.9375 C 220.570312 77.9375 222.410156 77.734375 223.125 76.101562 C 224.25 73.855469 219.855469 72.425781 218.628906 71.917969 Z M 161.324219 231.523438 C 161.222656 231.320312 160.914062 231.214844 160.609375 231.320312 C 151.210938 236.320312 119.132812 253.363281 100.441406 266.015625 C 100.234375 266.21875 100.132812 266.527344 100.339844 266.730469 C 100.441406 266.832031 100.644531 266.933594 100.746094 266.933594 C 100.847656 266.933594 100.953125 266.933594 101.054688 266.832031 C 119.644531 254.28125 151.722656 237.238281 161.117188 232.238281 C 161.425781 232.136719 161.527344 231.828125 161.324219 231.523438 Z M 403.628906 171.007812 C 403.730469 171.007812 403.730469 171.007812 403.832031 171.007812 C 404.035156 171.007812 404.242188 170.90625 404.34375 170.703125 C 404.445312 170.496094 412.71875 151.925781 418.03125 150.1875 C 418.644531 149.984375 418.847656 150.1875 419.050781 150.394531 C 420.484375 151.925781 419.972656 158.761719 417.007812 166.109375 C 416.90625 166.414062 417.007812 166.621094 417.316406 166.722656 C 417.621094 166.824219 417.828125 166.722656 417.929688 166.414062 C 420.890625 159.066406 421.605469 151.617188 419.769531 149.578125 C 419.359375 149.167969 418.746094 148.761719 417.722656 149.066406 C 411.902344 150.902344 403.730469 169.273438 403.421875 170.089844 C 403.21875 170.597656 403.421875 170.90625 403.628906 171.007812 Z M 190.128906 268.363281 C 191.558594 272.242188 195.238281 275.097656 199.628906 275.097656 C 204.839844 275.097656 209.230469 271.015625 209.640625 265.8125 C 205.554688 267.851562 200.140625 268.769531 196.257812 268.667969 C 193.808594 268.566406 191.765625 268.464844 190.128906 268.363281 Z M 201.570312 278.261719 C 201.265625 278.261719 201.058594 278.464844 201.058594 278.667969 C 199.222656 296.121094 197.792969 308.367188 196.871094 315.203125 L 186.65625 270.300781 C 186.554688 269.996094 186.351562 269.894531 186.042969 269.894531 C 185.738281 269.996094 185.636719 270.199219 185.636719 270.507812 L 196.464844 317.960938 C 193.601562 336.328125 177.871094 392.863281 176.441406 397.863281 C 168.574219 398.476562 159.894531 397.660156 150.496094 395.617188 C 150.1875 395.515625 149.984375 395.722656 149.882812 396.027344 C 149.78125 396.332031 149.984375 396.539062 150.289062 396.640625 C 157.644531 398.273438 164.695312 399.089844 171.128906 399.089844 C 173.070312 399.089844 175.011719 398.988281 176.851562 398.882812 C 177.054688 398.882812 177.257812 398.679688 177.257812 398.476562 C 177.464844 397.863281 194.421875 337.042969 197.382812 318.0625 C 198.300781 312.039062 199.835938 298.875 201.980469 278.773438 C 202.082031 278.566406 201.878906 278.363281 201.570312 278.261719 Z M 230.992188 102.023438 C 227.007812 101.816406 224.148438 102.53125 222.410156 104.164062 C 221.183594 105.390625 220.570312 107.023438 220.777344 109.164062 C 220.980469 113.859375 225.679688 116.71875 229.152344 118.144531 C 231.09375 118.960938 232.523438 119.269531 232.726562 119.371094 C 233.035156 119.472656 233.441406 119.269531 233.441406 118.859375 C 233.542969 118.554688 233.339844 118.144531 232.929688 118.144531 C 232.828125 118.144531 222.308594 115.492188 222 109.164062 C 221.898438 107.429688 222.308594 106 223.328125 105.082031 C 224.757812 103.65625 227.3125 103.042969 230.886719 103.347656 C 233.542969 103.550781 235.585938 101.207031 236.097656 98.960938 C 236.8125 96.203125 236.914062 93.347656 236.40625 90.386719 C 236.300781 90.082031 235.996094 89.777344 235.691406 89.878906 C 235.382812 89.980469 235.078125 90.285156 235.179688 90.59375 C 235.585938 93.347656 235.484375 96.101562 234.871094 98.652344 C 234.464844 100.285156 232.929688 102.125 230.992188 102.023438 Z M 259.695312 81.917969 C 263.882812 83.140625 267.867188 85.082031 271.546875 87.53125 C 278.695312 92.226562 279.921875 92.019531 280.125 89.671875 C 278.59375 83.140625 270.320312 76.304688 260.921875 76.101562 C 259.59375 76.101562 254.792969 76.304688 255.199219 78.753906 C 255.507812 80.488281 257.347656 81.203125 259.695312 81.917969 Z M 305.253906 113.042969 C 310.566406 113.960938 314.753906 118.246094 315.675781 123.757812 C 315.675781 124.066406 315.980469 124.269531 316.289062 124.269531 C 316.59375 124.269531 316.796875 123.960938 316.796875 123.65625 C 315.878906 117.636719 311.28125 113.042969 305.460938 112.023438 C 299.125 111.003906 292.996094 114.472656 290.441406 120.289062 C 290.339844 120.390625 290.339844 120.492188 290.339844 120.59375 C 289.933594 121.617188 289.625 122.636719 289.421875 123.757812 C 288.910156 126.921875 289.421875 130.085938 290.851562 132.941406 C 290.953125 133.148438 291.054688 133.25 291.261719 133.25 C 291.363281 133.25 291.464844 133.25 291.667969 133.148438 C 291.976562 133.042969 292.078125 132.636719 291.875 132.332031 C 290.441406 129.777344 290.035156 126.820312 290.546875 123.859375 C 290.75 122.839844 290.953125 121.921875 291.363281 121.003906 C 293.40625 120.1875 295.753906 119.984375 297.898438 120.289062 C 301.269531 120.902344 304.234375 122.738281 306.175781 125.59375 C 306.277344 125.699219 306.378906 125.800781 306.582031 125.800781 C 306.683594 125.800781 306.890625 125.800781 306.992188 125.699219 C 307.296875 125.492188 307.296875 125.1875 307.09375 124.882812 C 304.949219 121.71875 301.78125 119.675781 298.105469 119.0625 C 296.0625 118.757812 294.019531 118.859375 292.078125 119.472656 C 294.632812 114.878906 299.839844 112.125 305.253906 113.042969 Z M 334.164062 101.917969 C 334.164062 101.917969 339.066406 54.464844 322.007812 37.730469 C 307.910156 23.953125 288.605469 26.8125 288.605469 26.8125 C 288.605469 26.8125 267.355469 0.480469 227.824219 9.460938 C 194.625 17.015625 178.585938 41.402344 174.398438 67.632812 C 173.070312 76.101562 169.496094 84.164062 164.285156 91 C 156.625 101.207031 147.125 117.738281 149.984375 134.371094 C 149.984375 134.371094 153.457031 134.984375 156.011719 132.023438 C 156.011719 132.023438 158.769531 143.964844 170.3125 144.882812 C 170.515625 144.882812 171.4375 144.882812 171.640625 144.882812 C 174.296875 137.433594 181.140625 129.675781 189.925781 126.71875 C 186.859375 116.207031 187.679688 101.511719 189.925781 81.613281 C 189.925781 81.613281 199.9375 79.570312 204.636719 59.46875 C 204.636719 59.46875 208.109375 65.488281 216.585938 64.570312 C 225.167969 63.753906 232.625 47.015625 232.625 47.015625 C 232.625 47.015625 231.296875 60.285156 241.820312 60.894531 C 252.339844 61.507812 269.503906 36.300781 269.503906 36.300781 C 269.503906 36.300781 264.292969 60.078125 273.28125 65.183594 C 282.269531 70.285156 286.355469 63.855469 286.355469 63.855469 C 286.355469 63.855469 282.066406 93.144531 295.347656 101.511719 C 295.347656 101.511719 305.050781 98.550781 313.9375 104.980469 C 324.253906 112.429688 325.378906 126.820312 316.183594 137.023438 C 316.183594 137.023438 311.792969 141.921875 303.824219 142.738281 C 303.824219 142.839844 303.824219 142.839844 303.824219 142.945312 C 303.824219 146.3125 301.066406 148.964844 297.796875 148.964844 C 295.550781 148.964844 293.609375 147.738281 292.589844 146.003906 C 290.339844 148.351562 287.070312 151.515625 283.089844 154.066406 C 283.089844 154.066406 292.28125 167.84375 308.320312 152.636719 C 308.320312 152.636719 314.859375 160.800781 325.175781 158.046875 C 335.492188 155.292969 337.023438 143.964844 337.023438 143.964844 C 337.023438 143.964844 341.007812 147.636719 345.503906 146.71875 C 345.707031 146.820312 355.308594 119.878906 334.164062 101.917969 Z M 241.714844 294.792969 C 231.808594 299.386719 221.285156 302.34375 210.457031 303.671875 C 210.152344 303.671875 209.949219 303.976562 210.050781 304.285156 C 210.050781 304.589844 210.253906 304.691406 210.558594 304.691406 C 210.558594 304.691406 210.558594 304.691406 210.664062 304.691406 C 221.59375 303.367188 232.214844 300.40625 242.226562 295.8125 C 242.535156 295.710938 242.636719 295.40625 242.433594 295.101562 C 242.226562 294.792969 241.921875 294.691406 241.714844 294.792969 Z M 426.304688 164.171875 C 425.792969 163.558594 425.183594 163.25 424.363281 163.25 C 420.789062 163.25 414.761719 170.089844 410.472656 175.804688 C 410.265625 176.007812 410.371094 176.3125 410.574219 176.519531 C 410.777344 176.722656 411.085938 176.621094 411.289062 176.414062 C 417.214844 168.660156 422.015625 164.273438 424.464844 164.273438 C 424.976562 164.273438 425.386719 164.476562 425.691406 164.882812 C 427.734375 167.539062 423.75 174.679688 414.863281 184.578125 C 414.660156 184.785156 414.660156 185.089844 414.863281 185.292969 C 414.964844 185.394531 415.070312 185.394531 415.171875 185.394531 C 415.273438 185.394531 415.476562 185.292969 415.578125 185.191406 C 425.183594 174.375 428.757812 167.332031 426.304688 164.171875 Z M 404.242188 171.925781 C 404.136719 171.824219 401.789062 169.273438 395.660156 166.3125 C 397.5 159.679688 403.320312 142.433594 407.917969 142.230469 C 408.328125 142.128906 408.734375 142.332031 409.042969 142.738281 C 410.472656 144.472656 410.472656 150.1875 409.042969 156.515625 C 409.042969 156.824219 409.144531 157.027344 409.449219 157.128906 C 409.757812 157.128906 409.960938 157.027344 410.0625 156.71875 C 411.289062 151.515625 412.003906 144.578125 409.859375 142.023438 C 409.347656 141.414062 408.734375 141.105469 407.917969 141.105469 C 401.890625 141.3125 395.558594 162.84375 394.742188 165.804688 C 393.617188 165.292969 392.390625 164.78125 390.960938 164.273438 C 390.757812 164.171875 390.449219 164.273438 390.347656 164.578125 C 390.246094 164.78125 390.347656 165.089844 390.652344 165.191406 C 400.050781 168.761719 403.527344 172.4375 403.628906 172.539062 C 406.894531 175.394531 410.878906 179.785156 412.308594 184.988281 C 412.414062 185.292969 412.617188 185.394531 412.820312 185.394531 L 412.921875 185.394531 C 413.230469 185.292969 413.433594 185.089844 413.332031 184.785156 C 411.902344 179.273438 407.714844 174.679688 404.242188 171.925781 Z M 379.621094 168.863281 C 379.316406 168.761719 379.007812 168.863281 378.90625 169.171875 C 378.804688 169.476562 378.90625 169.78125 379.214844 169.886719 C 379.316406 169.988281 393.820312 175.496094 391.675781 192.640625 C 391.675781 192.949219 391.878906 193.253906 392.1875 193.253906 C 392.289062 193.253906 392.390625 193.253906 392.390625 193.253906 C 392.59375 193.152344 392.699219 193.050781 392.800781 192.847656 C 395.046875 174.785156 379.828125 168.863281 379.621094 168.863281 Z M 249.582031 100.082031 C 247.027344 103.859375 246.414062 107.839844 246.414062 108.042969 C 246.414062 108.347656 246.621094 108.65625 246.925781 108.65625 C 247.234375 108.65625 247.539062 108.449219 247.539062 108.144531 C 247.539062 108.144531 248.152344 104.164062 250.605469 100.59375 C 253.15625 96.816406 256.632812 94.777344 261.023438 94.675781 C 259.492188 96 258.367188 98.144531 258.0625 100.898438 C 257.550781 105.59375 261.328125 109.675781 265.824219 109.878906 C 269.910156 110.082031 273.382812 107.125 274.199219 102.941406 C 275.632812 105.796875 275.9375 108.449219 276.039062 108.449219 C 276.039062 108.757812 276.347656 108.960938 276.652344 108.960938 L 276.753906 108.960938 C 277.0625 108.960938 277.265625 108.65625 277.265625 108.347656 C 277.265625 108.246094 275.324219 95.386719 264.597656 93.753906 C 256.425781 92.632812 251.933594 96.613281 249.582031 100.082031 Z M 263.066406 162.230469 C 262.964844 161.925781 262.65625 161.722656 262.351562 161.824219 C 253.363281 163.660156 243.554688 163.660156 233.238281 161.925781 C 231.910156 161.722656 230.582031 161.414062 229.355469 161.210938 L 229.050781 162.332031 C 230.378906 162.640625 231.707031 162.84375 233.035156 163.148438 C 238.140625 163.964844 243.148438 164.476562 247.949219 164.476562 C 253.054688 164.476562 257.855469 163.964844 262.554688 163.046875 C 262.964844 162.84375 263.167969 162.539062 263.066406 162.230469 Z M 318.332031 397.457031 C 307.808594 400.925781 285.847656 405.3125 257.753906 396.433594 C 257.449219 392.148438 254.585938 348.574219 253.976562 317.246094 L 280.332031 264.894531 C 280.433594 264.6875 280.433594 264.484375 280.332031 264.382812 L 273.28125 254.789062 L 294.019531 224.683594 C 294.121094 224.582031 294.121094 224.378906 294.019531 224.175781 L 291.160156 217.644531 C 291.054688 217.339844 290.75 217.234375 290.441406 217.339844 C 290.136719 217.441406 290.035156 217.746094 290.136719 218.050781 L 292.894531 224.277344 L 272.261719 254.484375 C 272.15625 254.6875 272.15625 254.890625 272.261719 255.097656 L 279.308594 264.6875 L 253.976562 315 C 253.976562 312.550781 253.871094 310.101562 253.871094 307.855469 C 253.871094 307.652344 253.976562 290.203125 255.40625 264.792969 C 255.40625 264.484375 255.199219 264.28125 254.894531 264.28125 C 254.585938 264.28125 254.382812 264.484375 254.382812 264.792969 C 252.851562 290.304688 252.851562 307.753906 252.851562 307.957031 C 252.851562 310.816406 252.851562 313.878906 252.953125 317.039062 L 252.953125 317.144531 C 252.851562 317.347656 252.851562 317.550781 252.953125 317.652344 C 253.566406 350.511719 256.632812 396.433594 256.734375 396.945312 C 256.734375 397.148438 256.9375 397.355469 257.039062 397.355469 C 269.503906 401.332031 280.738281 402.761719 290.546875 402.761719 C 301.988281 402.761719 311.488281 400.722656 318.535156 398.476562 C 318.839844 398.375 318.945312 398.066406 318.839844 397.863281 C 318.945312 397.558594 318.636719 397.355469 318.332031 397.457031 Z M 260.105469 188.96875 C 260.308594 188.96875 260.511719 188.96875 260.613281 188.96875 C 261.125 188.96875 261.535156 188.867188 262.046875 188.765625 L 261.023438 211.214844 C 261.023438 211.519531 261.226562 211.726562 261.535156 211.726562 C 261.839844 211.726562 262.046875 211.519531 262.046875 211.214844 L 263.066406 188.457031 C 263.984375 188.253906 264.804688 187.84375 265.621094 187.4375 L 271.648438 204.171875 C 271.75 204.378906 271.953125 204.480469 272.15625 204.480469 C 272.261719 204.480469 272.261719 204.480469 272.363281 204.480469 C 272.667969 204.378906 272.769531 204.070312 272.667969 203.867188 L 266.539062 187.027344 L 266.539062 186.925781 C 267.152344 186.519531 267.664062 186.109375 268.175781 185.601562 C 269.707031 184.171875 270.828125 182.4375 271.441406 180.601562 L 286.050781 188.765625 C 286.152344 188.765625 286.253906 188.867188 286.253906 188.867188 C 286.460938 188.867188 286.5625 188.765625 286.664062 188.558594 C 286.765625 188.355469 286.664062 188.050781 286.460938 187.84375 L 271.648438 179.578125 C 271.75 179.171875 271.851562 178.660156 271.851562 178.253906 C 271.851562 177.945312 271.648438 177.742188 271.441406 177.640625 C 271.136719 177.640625 270.933594 177.84375 270.828125 178.046875 C 270.828125 178.457031 270.726562 178.96875 270.625 179.375 L 270.523438 179.476562 C 270.421875 179.578125 270.421875 179.785156 270.523438 179.886719 C 269.910156 181.722656 268.890625 183.457031 267.355469 184.785156 C 265.925781 186.109375 264.292969 187.027344 262.453125 187.539062 C 262.351562 187.539062 262.25 187.539062 262.148438 187.640625 C 261.535156 187.742188 261.023438 187.84375 260.410156 187.84375 C 257.957031 187.949219 255.8125 187.132812 254.28125 185.5 C 252.75 183.867188 252.136719 181.621094 252.339844 179.171875 C 252.648438 176.722656 253.871094 174.375 255.914062 172.4375 C 257.652344 170.90625 259.695312 169.78125 261.839844 169.476562 C 262.148438 169.476562 262.351562 169.171875 262.25 168.863281 C 262.148438 168.558594 261.941406 168.355469 261.636719 168.457031 C 259.285156 168.863281 257.039062 169.988281 255.199219 171.722656 C 253.054688 173.761719 251.726562 176.3125 251.320312 179.070312 C 251.011719 181.824219 251.726562 184.375 253.464844 186.210938 C 255.304688 188.050781 257.550781 188.96875 260.105469 188.96875 Z M 339.167969 243.972656 C 338.964844 243.769531 338.660156 243.871094 338.453125 244.074219 L 327.933594 259.996094 C 327.730469 260.199219 327.832031 260.503906 328.035156 260.710938 C 328.136719 260.8125 328.238281 260.8125 328.339844 260.8125 C 328.546875 260.8125 328.648438 260.710938 328.75 260.605469 L 339.273438 244.6875 C 339.476562 244.382812 339.375 244.074219 339.167969 243.972656 Z M 339.167969 243.972656 " fill-opacity="1" fill-rule="nonzero"/></svg>