<svg xmlns="http://www.w3.org/2000/svg" xmlns:xlink="http://www.w3.org/1999/xlink" width="711" zoomAndPan="magnify" viewBox="0 0 533.25 428.99999" height="572" preserveAspectRatio="xMidYMid meet" version="1.0"><defs><clipPath id="c483ba2bb2"><path d="M 76.003906 132 L 182 132 L 182 263 L 76.003906 263 Z M 76.003906 132 " clip-rule="nonzero"/></clipPath><clipPath id="6382c83a2f"><path d="M 76.003906 248 L 206 248 L 206 353.40625 L 76.003906 353.40625 Z M 76.003906 248 " clip-rule="nonzero"/></clipPath><clipPath id="ec00bcd7cc"><path d="M 191 223 L 297 223 L 297 353.40625 L 191 353.40625 Z M 191 223 " clip-rule="nonzero"/></clipPath><clipPath id="73eca1f1c8"><path d="M 214 29.859375 L 387 29.859375 L 387 203 L 214 203 Z M 214 29.859375 " clip-rule="nonzero"/></clipPath><clipPath id="4095ef1117"><path d="M 381 197 L 455.71875 197 L 455.71875 272 L 381 272 Z M 381 197 " clip-rule="nonzero"/></clipPath></defs><path fill="#a3e635" d="M 326.132812 4.097656 C 319.589844 1.167969 311.355469 0.289062 300.753906 1.929688 L 300.753906 1.933594 C 300.609375 1.953125 300.464844 1.964844 300.324219 1.964844 C 300.25 1.964844 300.179688 1.996094 300.128906 2.042969 L 300.105469 2.035156 C 300.019531 2.058594 299.933594 2.082031 299.847656 2.097656 L 299.84375 2.097656 C 272.746094 7.410156 243.882812 13.976562 227.484375 28.34375 C 222.242188 32.9375 217.210938 37.976562 213.261719 44.15625 C 182.8125 91.800781 163.011719 120.589844 153.078125 129 C 153.027344 129.042969 152.992188 129.105469 152.980469 129.175781 L 152.964844 129.167969 C 146.003906 138.605469 113.667969 165.425781 58.253906 210.757812 C 47.046875 219.925781 39.472656 228.570312 33.808594 235.042969 C 33.097656 235.851562 32.726562 236.273438 32.058594 237.035156 C 4.867188 267.871094 0.0820312 298.558594 17.195312 330.679688 C 25.425781 346.125 38.082031 357.855469 55.382812 365.601562 C 74.988281 374.378906 100.546875 378.039062 132.390625 376.230469 C 154.910156 374.949219 175.15625 372.578125 192.664062 367.640625 C 244.289062 353.089844 316.03125 336.078125 408.171875 317.152344 C 425.925781 313.507812 440.410156 308.152344 452.121094 303.066406 C 510.582031 277.6875 531.976562 245.082031 517.417969 206.238281 C 514.289062 197.890625 507.554688 190.113281 497.820312 185.210938 C 446.65625 159.449219 415.972656 143.738281 410.085938 134.953125 L 410.070312 134.945312 C 410.058594 134.882812 410.027344 134.828125 409.980469 134.785156 C 402.566406 128.054688 394.359375 119.558594 388.589844 107.679688 C 363.144531 55.253906 346.4375 24.222656 337.820312 13.359375 C 334.636719 9.351562 330.828125 6.199219 326.132812 4.097656 Z M 326.132812 4.097656 " fill-opacity="1" fill-rule="nonzero"/><path fill="#000000" d="M 210.660156 25.289062 C 189.109375 38.65625 166.535156 53.625 157.164062 71.203125 C 154.15625 76.835938 151.488281 82.773438 150.113281 89.324219 C 139.355469 140.515625 131.65625 171.800781 125.816406 182.019531 L 126.09375 181.320312 C 123.730469 191.039062 104.554688 224.78125 71.109375 282.710938 C 64.476562 294.199219 60.789062 304.058594 58.023438 311.449219 C 57.746094 312.195312 57.429688 313.039062 57.171875 313.726562 C 43.871094 348.933594 49.714844 376.707031 74.738281 398.644531 C 100.402344 421.140625 137.816406 422.667969 188.117188 400.308594 C 207.023438 391.902344 223.613281 383.304688 237.019531 373.402344 C 276.613281 344.152344 332.671875 306.265625 405.621094 260.109375 C 419.65625 251.230469 430.339844 241.945312 438.730469 233.789062 C 480.644531 193.058594 488.296875 158.292969 463.335938 129.84375 C 457.988281 123.746094 449.742188 119.285156 439.859375 118.246094 C 386.472656 112.621094 354.683594 109.058594 347.613281 103.144531 L 348.355469 103.582031 C 339.71875 100.199219 329.738281 95.542969 320.785156 87.074219 C 281.921875 50.328125 257.53125 29.140625 246.640625 22.632812 C 237.066406 16.914062 226.046875 16.550781 211.378906 24.855469 C 210.089844 25.585938 208.449219 25.132812 207.71875 23.84375 C 206.988281 22.554688 207.445312 20.917969 208.734375 20.1875 C 224.6875 11.152344 237.808594 11.105469 249.394531 18.027344 C 260.910156 24.90625 285.785156 46.59375 324.472656 83.175781 C 332.6875 90.941406 341.917969 95.292969 350.3125 98.585938 C 350.582031 98.691406 350.835938 98.839844 351.054688 99.027344 C 356.472656 103.554688 385.460938 107.117188 440.421875 112.90625 C 451.574219 114.082031 461.085938 119.136719 467.371094 126.304688 C 495.324219 158.167969 484.960938 196.347656 442.46875 237.640625 C 433.898438 245.972656 422.925781 255.511719 408.492188 264.644531 C 335.601562 310.765625 279.65625 348.574219 240.207031 377.71875 C 226.339844 387.964844 209.332031 396.753906 190.296875 405.214844 C 139.195312 427.933594 99.179688 427.210938 71.199219 402.679688 C 44.234375 379.042969 38.1875 348.792969 52.148438 311.832031 C 52.414062 311.132812 52.710938 310.335938 52.996094 309.570312 C 55.773438 302.144531 59.589844 291.929688 66.460938 280.027344 C 100.269531 221.464844 118.753906 188.78125 120.878906 180.050781 C 120.9375 179.808594 121.03125 179.574219 121.15625 179.355469 C 126.460938 170.074219 133.996094 139.925781 144.859375 88.21875 C 146.386719 80.953125 149.316406 74.503906 152.425781 68.675781 C 162.609375 49.578125 186.609375 33.890625 207.832031 20.726562 C 209.09375 19.945312 210.746094 20.335938 211.527344 21.59375 C 212.308594 22.851562 211.921875 24.507812 210.660156 25.289062 Z M 210.660156 25.289062 " fill-opacity="1" fill-rule="nonzero"/><g clip-path="url(#c483ba2bb2)"><path fill="#1e35a1" d="M 75.960938 132.796875 L 75.960938 238.074219 L 104.542969 238.074219 C 107.289062 238.074219 109.523438 240.304688 109.523438 243.050781 C 109.523438 253.566406 118.078125 262.121094 128.601562 262.121094 C 139.125 262.121094 147.679688 253.566406 147.679688 243.050781 C 147.679688 240.296875 149.902344 238.074219 152.660156 238.074219 L 181.238281 238.074219 L 181.238281 214.113281 C 167.371094 211.933594 156.734375 199.898438 156.734375 185.433594 C 156.734375 170.96875 167.371094 158.9375 181.238281 156.753906 L 181.238281 132.796875 Z M 75.960938 132.796875 " fill-opacity="1" fill-rule="evenodd"/></g><g clip-path="url(#6382c83a2f)"><path fill="#38b6ff" d="M 128.601562 272.082031 C 114.285156 272.082031 102.359375 261.675781 99.996094 248.023438 L 75.960938 248.023438 L 75.960938 353.300781 L 181.238281 353.300781 L 181.238281 324.710938 C 181.238281 323.375 181.769531 322.089844 182.734375 321.160156 C 183.679688 320.222656 184.988281 319.722656 186.308594 319.738281 L 186.65625 319.738281 C 197.179688 319.738281 205.738281 311.183594 205.738281 300.667969 C 205.738281 290.15625 197.179688 281.589844 186.65625 281.589844 L 186.308594 281.589844 C 184.972656 281.617188 183.679688 281.109375 182.734375 280.171875 C 181.769531 279.234375 181.238281 277.957031 181.238281 276.613281 L 181.238281 248.023438 L 157.207031 248.023438 C 154.839844 261.664062 142.914062 272.082031 128.601562 272.082031 Z M 128.601562 272.082031 " fill-opacity="1" fill-rule="evenodd"/></g><g clip-path="url(#ec00bcd7cc)"><path fill="#38b6ff" d="M 191.199219 271.980469 C 205.054688 274.164062 215.695312 286.195312 215.695312 300.660156 C 215.695312 315.125 205.054688 327.160156 191.199219 329.339844 L 191.199219 353.292969 L 296.464844 353.292969 L 296.464844 248.015625 L 267.886719 248.015625 C 265.136719 248.015625 262.90625 245.78125 262.90625 243.035156 C 262.90625 232.511719 254.351562 223.957031 243.828125 223.957031 C 233.304688 223.957031 224.757812 232.511719 224.757812 243.035156 C 224.757812 245.78125 222.523438 248.015625 219.777344 248.015625 L 191.199219 248.015625 Z M 191.199219 271.980469 " fill-opacity="1" fill-rule="evenodd"/></g><path fill="#1e35a1" d="M 253.636719 162.746094 C 266.09375 175.210938 282.664062 182.074219 300.285156 182.074219 C 317.902344 182.074219 334.472656 175.210938 346.9375 162.746094 C 372.65625 137.019531 372.65625 95.167969 346.9375 69.445312 C 334.472656 56.988281 317.910156 50.125 300.285156 50.125 C 282.65625 50.125 266.09375 56.988281 253.636719 69.445312 C 241.171875 81.910156 234.316406 98.472656 234.316406 116.089844 C 234.316406 133.707031 241.171875 150.28125 253.636719 162.738281 Z M 293.601562 160.828125 C 293.601562 158.082031 295.828125 155.839844 298.582031 155.839844 C 301.335938 155.839844 303.5625 158.058594 303.5625 160.804688 L 303.5625 160.828125 C 303.5625 163.582031 301.328125 165.808594 298.582031 165.808594 C 295.835938 165.808594 293.601562 163.574219 293.601562 160.828125 Z M 332.050781 93.660156 C 332.050781 107.550781 323.328125 113.609375 315.636719 118.953125 C 313.621094 120.355469 311.535156 121.800781 309.628906 123.359375 C 305.601562 126.65625 303.5625 130.960938 303.5625 136.164062 L 303.5625 136.769531 C 303.5625 139.527344 301.328125 141.75 298.582031 141.75 C 295.835938 141.75 293.601562 139.527344 293.601562 136.769531 L 293.601562 136.164062 C 293.601562 127.949219 296.964844 120.855469 303.320312 115.652344 C 305.535156 113.839844 307.777344 112.28125 309.953125 110.769531 C 317.710938 105.386719 322.09375 101.941406 322.09375 93.660156 C 322.09375 83.625 312.890625 76.347656 300.199219 76.347656 C 290 76.347656 278.855469 81.964844 278.472656 94.296875 C 278.390625 97.046875 276.058594 99.195312 273.347656 99.121094 C 270.597656 99.035156 268.433594 96.738281 268.523438 93.992188 C 269.015625 78 282.339844 66.390625 300.199219 66.390625 C 318.058594 66.390625 332.050781 78.117188 332.050781 93.660156 Z M 332.050781 93.660156 " fill-opacity="1" fill-rule="evenodd"/><g clip-path="url(#73eca1f1c8)"><path fill="#38b6ff" d="M 353.976562 62.40625 C 383.578125 92.007812 383.578125 140.179688 353.976562 169.792969 C 339.636719 184.132812 320.566406 192.03125 300.285156 192.03125 C 280 192.03125 260.9375 184.132812 246.597656 169.792969 C 232.25 155.449219 224.359375 136.378906 224.359375 116.097656 C 224.359375 95.816406 232.25 76.753906 246.597656 62.40625 C 260.9375 48.066406 280 40.167969 300.285156 40.167969 C 320.566406 40.167969 339.636719 48.066406 353.976562 62.40625 Z M 239.355469 177.027344 C 272.957031 210.628906 327.617188 210.628906 361.21875 177.027344 C 394.8125 143.433594 394.8125 88.761719 361.21875 55.160156 C 344.414062 38.367188 322.347656 29.96875 300.285156 29.96875 C 278.21875 29.96875 256.152344 38.367188 239.355469 55.160156 C 205.753906 88.761719 205.753906 143.425781 239.355469 177.027344 Z M 239.355469 177.027344 " fill-opacity="1" fill-rule="evenodd"/></g><g clip-path="url(#4095ef1117)"><path fill="#38b6ff" d="M 404.773438 197.617188 L 381.800781 220.585938 L 428.324219 267.125 C 431.410156 270.179688 435.476562 271.855469 439.808594 271.855469 C 444.140625 271.855469 448.25 270.171875 451.292969 267.125 C 454.382812 264.082031 456.039062 259.996094 456.039062 255.640625 C 456.039062 251.285156 454.382812 247.210938 451.292969 244.15625 L 404.761719 197.625 Z M 404.773438 197.617188 " fill-opacity="1" fill-rule="evenodd"/></g><path fill="#38b6ff" d="M 366.882812 211.28125 L 395.488281 182.664062 L 400.554688 187.726562 L 371.945312 216.34375 Z M 366.882812 211.28125 " fill-opacity="1" fill-rule="nonzero"/><path fill="#38b6ff" d="M 365.460938 198.636719 L 382.820312 181.277344 L 376.382812 174.84375 C 373.910156 178.054688 371.195312 181.136719 368.257812 184.082031 C 365.320312 187.019531 362.234375 189.722656 359.03125 192.207031 Z M 365.460938 198.636719 " fill-opacity="1" fill-rule="evenodd"/></svg>