<svg xmlns="http://www.w3.org/2000/svg" xmlns:xlink="http://www.w3.org/1999/xlink" width="742" zoomAndPan="magnify" viewBox="0 0 556.5 513.749985" height="685" preserveAspectRatio="xMidYMid meet" version="1.0"><defs><clipPath id="e5035bc709"><path d="M 112.851562 315 L 239 315 L 239 452 L 112.851562 452 Z M 112.851562 315 " clip-rule="nonzero"/></clipPath></defs><path fill="#00ff00" d="M 209.367188 174.492188 C 193.441406 263.957031 32.660156 200.269531 15.976562 335.984375 C 0.046875 467.910156 216.195312 512.644531 286.726562 451.988281 C 351.949219 396.640625 308.71875 341.292969 342.847656 290.496094 C 353.464844 276.089844 369.394531 264.714844 400.488281 245.761719 C 555.203125 150.226562 240.464844 0.105469 209.367188 174.492188 Z M 209.367188 174.492188 " fill-opacity="1" fill-rule="evenodd"/><path fill="#000000" d="M 234.394531 175.25 C 226.8125 216.191406 190.410156 225.289062 150.214844 235.902344 C 102.433594 248.035156 50.101562 262.441406 41.003906 335.984375 C 36.453125 367.828125 46.3125 395.125 65.269531 416.355469 C 78.921875 433.035156 98.640625 445.925781 119.875 455.78125 C 141.113281 465.636719 165.382812 472.460938 189.648438 475.492188 C 236.671875 480.800781 282.175781 473.21875 308.71875 450.472656 C 345.882812 418.628906 346.640625 386.785156 348.15625 356.457031 C 348.914062 333.710938 349.675781 310.964844 364.085938 289.734375 C 369.394531 282.152344 376.21875 275.332031 385.320312 268.507812 C 394.421875 260.925781 406.554688 253.34375 422.480469 243.484375 C 467.226562 216.191406 471.019531 184.347656 454.335938 157.050781 C 445.992188 142.644531 431.582031 130.515625 414.898438 119.902344 C 397.453125 110.042969 376.976562 102.460938 356.5 98.671875 C 302.652344 88.8125 246.53125 106.253906 234.394531 175.25 Z M 149.453125 232.113281 C 188.132812 222.257812 223.019531 213.160156 229.847656 174.492188 C 242.738281 103.21875 301.136719 85.023438 357.257812 94.878906 C 378.492188 98.671875 398.972656 106.253906 416.414062 116.867188 C 434.617188 127.480469 449.027344 140.371094 458.125 154.777344 C 475.570312 183.589844 471.019531 218.464844 424 247.277344 C 408.832031 257.132812 396.695312 264.714844 387.59375 271.539062 C 378.492188 278.363281 372.425781 284.429688 367.117188 292.011719 C 353.464844 312.480469 352.707031 334.46875 351.949219 356.457031 C 350.433594 387.542969 349.675781 420.902344 310.996094 453.507812 C 284.453125 477.011719 236.671875 484.59375 188.890625 479.285156 C 164.621094 476.25 140.355469 469.429688 118.359375 459.570312 C 96.367188 448.957031 76.648438 436.066406 62.238281 418.628906 C 43.277344 396.640625 32.660156 368.589844 36.453125 335.226562 C 46.3125 259.40625 100.15625 245.003906 149.453125 232.113281 Z M 149.453125 232.113281 " fill-opacity="1" fill-rule="nonzero"/><path fill="#e0e0e0" d="M 376.972656 153.695312 C 335.484375 117.132812 272.375 121.226562 236.144531 162.761719 C 202.253906 201.375 203.421875 259 237.605469 296.148438 C 239.945312 298.78125 242.574219 301.410156 245.496094 303.75 C 248.125 306.09375 251.046875 308.433594 253.96875 310.480469 C 295.164062 339.4375 352.429688 333.296875 386.324219 294.683594 C 422.261719 253.441406 418.460938 190.257812 376.972656 153.695312 Z M 370.253906 280.9375 C 365.578125 286.492188 360.027344 290.882812 354.476562 294.683594 C 354.476562 294.097656 354.476562 293.804688 354.476562 293.222656 C 354.476562 270.992188 335.191406 253.148438 311.234375 253.148438 C 287.277344 253.148438 267.992188 270.992188 267.992188 293.222656 C 267.992188 293.804688 267.992188 294.390625 267.992188 294.683594 C 265.070312 292.636719 262.148438 290.296875 259.226562 287.957031 C 226.210938 259.289062 223 209.5625 251.632812 176.804688 C 280.265625 144.042969 330.226562 140.824219 362.949219 169.492188 C 395.671875 198.449219 398.886719 248.175781 370.253906 280.9375 Z M 370.253906 280.9375 " fill-opacity="1" fill-rule="nonzero"/><path fill="#231f20" d="M 310.941406 331.832031 C 290.492188 331.832031 269.746094 325.691406 251.921875 313.113281 C 249.003906 311.066406 245.789062 308.722656 243.160156 306.09375 C 240.527344 303.75 237.898438 301.121094 235.269531 298.195312 C 199.625 259.289062 199.039062 200.203125 233.808594 160.714844 C 271.207031 118.007812 336.363281 113.914062 379.019531 151.355469 C 421.675781 188.796875 425.765625 254.027344 388.367188 296.730469 C 367.914062 319.839844 339.574219 331.832031 310.941406 331.832031 Z M 311.234375 131.757812 C 309.1875 131.757812 306.851562 131.757812 304.808594 132.050781 C 279.097656 133.804688 255.429688 145.503906 238.191406 164.8125 C 205.46875 202.25 206.050781 257.828125 239.359375 294.390625 C 241.699219 297.023438 244.328125 299.363281 246.957031 301.703125 C 249.585938 304.042969 252.214844 306.09375 255.136719 308.140625 C 295.75 336.804688 350.96875 330.078125 383.691406 292.636719 C 419.046875 252.5625 414.957031 190.84375 374.929688 155.742188 C 357.105469 140.238281 334.609375 131.757812 311.234375 131.757812 Z M 386.03125 294.976562 Z M 386.03125 294.976562 " fill-opacity="1" fill-rule="nonzero"/><path fill="#9ccc65" d="M 213.355469 158.960938 L 211.894531 161.007812 C 209.558594 164.519531 204.59375 165.394531 201.085938 163.054688 L 178.878906 147.554688 C 175.375 145.210938 174.5 140.238281 176.835938 136.730469 L 178.296875 134.683594 C 180.632812 131.171875 185.601562 130.292969 189.105469 132.636719 L 211.3125 148.136719 C 214.816406 150.769531 215.695312 155.449219 213.355469 158.960938 Z M 213.355469 158.960938 " fill-opacity="1" fill-rule="nonzero"/><path fill="#231f20" d="M 205.46875 167.152344 C 203.421875 167.152344 201.085938 166.566406 199.332031 165.101562 L 177.128906 149.601562 C 174.789062 147.84375 173.328125 145.503906 172.746094 142.582031 C 172.160156 139.65625 172.746094 137.023438 174.5 134.683594 L 175.960938 132.636719 C 177.710938 130.292969 180.050781 128.832031 182.972656 128.246094 C 185.894531 127.664062 188.523438 128.246094 190.859375 130.003906 L 213.066406 145.503906 C 215.402344 147.261719 216.863281 149.601562 217.449219 152.527344 C 218.03125 155.449219 217.449219 158.082031 215.695312 160.421875 L 214.234375 162.761719 C 212.480469 165.101562 210.144531 166.566406 207.222656 167.152344 C 206.636719 167.152344 206.050781 167.152344 205.46875 167.152344 Z M 184.722656 134.390625 C 184.433594 134.390625 184.140625 134.390625 183.847656 134.390625 C 182.679688 134.683594 181.511719 135.265625 180.632812 136.4375 L 179.171875 138.484375 C 178.296875 139.65625 178.296875 140.824219 178.296875 141.996094 C 178.296875 143.164062 179.171875 144.335938 180.339844 145.210938 L 202.546875 160.714844 C 203.714844 161.59375 204.882812 161.886719 206.050781 161.59375 C 207.222656 161.300781 208.390625 160.714844 209.265625 159.546875 L 210.726562 157.5 C 211.605469 156.328125 211.605469 155.15625 211.605469 153.988281 C 211.605469 152.816406 210.726562 151.648438 209.558594 150.769531 L 187.355469 135.265625 C 186.476562 134.683594 185.601562 134.390625 184.722656 134.390625 Z M 184.722656 134.390625 " fill-opacity="1" fill-rule="nonzero"/><path fill="#9ccc65" d="M 230.886719 138.191406 L 228.550781 139.070312 C 224.460938 140.53125 220.078125 138.484375 218.617188 134.683594 L 208.972656 109.234375 C 207.511719 105.140625 209.558594 100.75 213.355469 99.289062 L 215.695312 98.410156 C 219.785156 96.949219 224.167969 98.996094 225.628906 102.800781 L 235.269531 128.246094 C 236.730469 132.34375 234.6875 136.730469 230.886719 138.191406 Z M 230.886719 138.191406 " fill-opacity="1" fill-rule="nonzero"/><path fill="#231f20" d="M 225.921875 142.582031 C 224.460938 142.582031 223 142.289062 221.539062 141.703125 C 218.910156 140.53125 216.863281 138.484375 215.988281 135.851562 L 206.34375 110.40625 C 205.46875 107.773438 205.46875 104.847656 206.636719 102.214844 C 207.804688 99.582031 209.851562 97.535156 212.480469 96.65625 L 214.816406 95.777344 C 220.371094 93.730469 226.503906 96.363281 228.550781 101.921875 L 238.191406 127.371094 C 239.066406 130.003906 239.066406 132.925781 237.898438 135.558594 C 236.730469 138.191406 234.6875 140.238281 232.054688 141.117188 L 229.71875 141.996094 C 228.257812 142.289062 227.089844 142.582031 225.921875 142.582031 Z M 218.617188 100.75 C 218.03125 100.75 217.449219 100.75 216.863281 101.042969 L 214.527344 101.921875 C 213.355469 102.507812 212.480469 103.382812 211.894531 104.554688 C 211.3125 105.722656 211.3125 106.894531 211.894531 108.355469 L 221.539062 133.804688 C 222.121094 134.976562 223 135.851562 224.167969 136.4375 C 225.335938 137.023438 226.503906 137.023438 227.964844 136.4375 L 230.304688 135.558594 C 231.472656 134.976562 232.347656 134.097656 232.933594 132.925781 C 233.515625 131.757812 233.515625 130.585938 232.933594 129.125 L 223 103.96875 C 222.414062 101.921875 220.371094 100.75 218.617188 100.75 Z M 218.617188 100.75 " fill-opacity="1" fill-rule="nonzero"/><path fill="#9ccc65" d="M 198.457031 182.070312 L 198.457031 184.410156 C 198.457031 188.796875 194.949219 192.015625 190.859375 192.015625 L 163.6875 192.015625 C 159.304688 192.015625 156.089844 188.503906 156.089844 184.410156 L 156.089844 182.070312 C 156.089844 177.679688 159.597656 174.464844 163.6875 174.464844 L 190.859375 174.464844 C 194.949219 174.464844 198.457031 177.972656 198.457031 182.070312 Z M 198.457031 182.070312 " fill-opacity="1" fill-rule="nonzero"/><path fill="#231f20" d="M 190.859375 195.230469 L 163.6875 195.230469 C 157.84375 195.230469 153.167969 190.550781 153.167969 184.703125 L 153.167969 182.359375 C 153.167969 176.511719 157.84375 171.832031 163.6875 171.832031 L 190.859375 171.832031 C 196.703125 171.832031 201.378906 176.511719 201.378906 182.359375 L 201.378906 184.703125 C 201.378906 190.550781 196.703125 195.230469 190.859375 195.230469 Z M 163.6875 177.386719 C 161.058594 177.386719 159.011719 179.4375 159.011719 182.070312 L 159.011719 184.410156 C 159.011719 187.042969 161.058594 189.089844 163.6875 189.089844 L 190.859375 189.089844 C 193.488281 189.089844 195.535156 187.042969 195.535156 184.410156 L 195.535156 182.070312 C 195.535156 179.4375 193.488281 177.386719 190.859375 177.386719 Z M 163.6875 177.386719 " fill-opacity="1" fill-rule="nonzero"/><path fill="#231f20" d="M 267.699219 297.902344 C 267.117188 297.902344 266.53125 297.609375 265.949219 297.316406 C 262.734375 295.269531 259.8125 292.929688 256.890625 290.296875 C 223 260.460938 219.785156 208.6875 249.585938 174.757812 C 263.902344 158.375 284.0625 148.429688 305.683594 146.96875 C 327.597656 145.503906 348.632812 152.816406 364.996094 167.152344 C 398.886719 196.988281 402.101562 248.761719 372.296875 282.691406 C 367.332031 288.25 361.78125 292.929688 355.9375 297.023438 C 355.058594 297.609375 353.890625 297.609375 352.722656 297.023438 C 351.847656 296.4375 351.261719 295.269531 351.261719 294.390625 C 351.261719 293.808594 351.261719 293.515625 351.261719 292.929688 C 351.261719 272.453125 333.148438 255.78125 310.941406 255.78125 C 288.738281 255.78125 270.621094 272.453125 270.621094 292.929688 C 270.621094 293.222656 270.621094 293.808594 270.621094 294.097656 C 270.914062 295.269531 270.332031 296.4375 269.160156 297.023438 C 268.871094 297.609375 268.285156 297.902344 267.699219 297.902344 Z M 311.234375 152.816406 C 309.480469 152.816406 308.019531 152.816406 306.269531 153.109375 C 286.109375 154.28125 267.410156 163.640625 253.96875 178.851562 C 226.210938 210.441406 229.425781 258.414062 260.980469 286.203125 C 262.148438 287.371094 263.609375 288.542969 265.070312 289.417969 C 267.117188 267.480469 286.984375 250.515625 311.234375 250.515625 C 335.191406 250.515625 355.058594 267.773438 357.398438 289.417969 C 361.488281 286.492188 364.996094 282.984375 368.5 279.179688 C 396.257812 247.589844 393.042969 199.621094 361.488281 171.832031 C 347.171875 159.546875 329.640625 152.816406 311.234375 152.816406 Z M 370.253906 280.9375 Z M 370.253906 280.9375 " fill-opacity="1" fill-rule="nonzero"/><path fill="#57c1ef" d="M 235.855469 342.949219 L 147.324219 443.863281 C 142.652344 449.421875 134.46875 450.296875 129.503906 445.617188 L 119.570312 436.84375 C 114.601562 432.457031 114.3125 424.265625 119.277344 419 L 207.804688 318.085938 Z M 235.855469 342.949219 " fill-opacity="1" fill-rule="nonzero"/><g clip-path="url(#e5035bc709)"><path fill="#231f20" d="M 137.101562 451.46875 C 133.59375 451.46875 130.089844 450.296875 127.457031 447.957031 L 117.523438 439.183594 C 111.390625 433.625 111.097656 423.679688 116.941406 417.246094 L 205.46875 316.328125 C 206.050781 315.746094 206.636719 315.453125 207.511719 315.453125 C 208.390625 315.453125 208.972656 315.746094 209.558594 316.039062 L 237.605469 340.609375 C 238.777344 341.777344 239.066406 343.53125 237.898438 344.703125 L 149.371094 445.617188 C 146.15625 449.421875 141.484375 451.46875 137.101562 451.46875 Z M 207.804688 322.472656 L 121.324219 421.046875 C 117.523438 425.433594 117.523438 431.578125 121.613281 434.796875 L 131.550781 443.570312 C 135.347656 446.789062 141.484375 446.203125 145.28125 441.816406 L 231.765625 343.242188 Z M 207.804688 322.472656 " fill-opacity="1" fill-rule="nonzero"/></g><path fill="#ffcb29" d="M 195.390625 332.035156 L 207.542969 318.191406 L 235.636719 342.90625 L 223.484375 356.75 Z M 195.390625 332.035156 " fill-opacity="1" fill-rule="nonzero"/><path fill="#231f20" d="M 223.582031 359.621094 C 223 359.621094 222.121094 359.328125 221.539062 359.035156 L 193.488281 334.464844 C 192.90625 333.878906 192.613281 333.296875 192.613281 332.417969 C 192.613281 331.539062 192.90625 330.957031 193.195312 330.371094 L 205.46875 316.621094 C 206.636719 315.453125 208.390625 315.160156 209.558594 316.328125 L 237.605469 340.609375 C 238.777344 341.777344 239.066406 343.53125 237.898438 344.703125 L 225.921875 358.742188 C 225.335938 359.328125 224.460938 359.621094 223.582031 359.621094 Z M 199.625 331.832031 L 223.289062 352.601562 L 231.472656 343.242188 L 207.804688 322.472656 Z M 199.625 331.832031 " fill-opacity="1" fill-rule="nonzero"/><path fill="#e0e0e0" d="M 253.675781 310.773438 L 229.71875 337.683594 L 213.355469 323.351562 L 237.023438 296.4375 C 239.359375 299.070312 241.988281 301.703125 244.910156 304.042969 C 247.832031 306.382812 250.753906 308.722656 253.675781 310.773438 Z M 253.675781 310.773438 " fill-opacity="1" fill-rule="nonzero"/><path fill="#231f20" d="M 229.71875 340.609375 C 229.132812 340.609375 228.257812 340.316406 227.671875 340.023438 L 211.3125 325.691406 C 210.726562 325.105469 210.433594 324.519531 210.433594 323.640625 C 210.433594 322.765625 210.726562 322.179688 211.019531 321.59375 L 234.6875 294.683594 C 235.269531 294.097656 236.144531 293.808594 236.730469 293.808594 C 237.605469 293.808594 238.484375 294.097656 238.777344 294.683594 C 241.113281 297.316406 243.742188 299.65625 246.371094 301.996094 C 249.003906 304.335938 251.632812 306.382812 254.554688 308.433594 C 255.136719 309.015625 255.722656 309.601562 255.722656 310.480469 C 255.722656 311.355469 255.429688 312.234375 255.136719 312.820312 L 231.472656 339.730469 C 231.472656 340.316406 230.59375 340.609375 229.71875 340.609375 Z M 217.738281 323.058594 L 229.71875 333.585938 L 249.292969 311.066406 C 247.25 309.601562 245.203125 307.847656 243.160156 306.09375 C 241.113281 304.335938 239.359375 302.582031 237.316406 300.535156 Z M 217.738281 323.058594 " fill-opacity="1" fill-rule="nonzero"/><path fill="#57c1ef" d="M 354.476562 293.222656 C 354.476562 293.808594 354.476562 294.097656 354.476562 294.683594 C 328.472656 311.941406 294.289062 312.234375 267.992188 294.683594 C 267.992188 294.097656 267.992188 293.515625 267.992188 293.222656 C 267.992188 275.671875 280.265625 260.753906 297.210938 255.488281 C 301.59375 254.027344 306.558594 253.148438 311.527344 253.148438 C 315.910156 253.148438 320.292969 253.734375 324.089844 254.902344 C 341.328125 259.875 354.476562 275.378906 354.476562 293.222656 Z M 354.476562 293.222656 " fill-opacity="1" fill-rule="nonzero"/><path fill="#231f20" d="M 310.941406 310.773438 C 295.457031 310.773438 279.679688 306.382812 265.949219 297.316406 C 265.363281 296.730469 264.777344 296.148438 264.777344 295.269531 C 264.777344 294.683594 264.777344 294.097656 264.777344 293.222656 C 264.777344 274.792969 277.34375 258.707031 296.042969 252.5625 C 305.097656 249.636719 315.324219 249.34375 324.675781 251.976562 C 343.957031 257.535156 357.398438 274.207031 357.398438 293.222656 C 357.398438 293.808594 357.398438 294.390625 357.398438 294.976562 C 357.398438 295.855469 356.8125 296.730469 356.230469 297.316406 C 342.203125 306.382812 326.71875 310.773438 310.941406 310.773438 Z M 270.621094 293.222656 C 295.457031 308.722656 326.71875 308.722656 351.554688 293.222656 C 351.554688 276.839844 340.160156 262.507812 322.921875 257.828125 C 314.742188 255.488281 305.683594 255.78125 297.792969 258.414062 C 281.433594 263.386719 270.621094 277.425781 270.621094 293.222656 Z M 354.183594 294.683594 Z M 354.183594 294.683594 " fill-opacity="1" fill-rule="nonzero"/><path fill="#fbcbbd" d="M 336.363281 232.085938 C 336.363281 241.742188 331.101562 250.222656 323.507812 254.902344 C 319.414062 253.734375 315.324219 253.148438 310.941406 253.148438 C 305.976562 253.148438 301.007812 254.027344 296.625 255.488281 C 288.445312 250.808594 282.894531 242.03125 282.894531 232.085938 C 282.894531 217.167969 294.871094 205.175781 309.773438 205.175781 C 324.675781 205.175781 336.363281 217.167969 336.363281 232.085938 Z M 336.363281 232.085938 " fill-opacity="1" fill-rule="nonzero"/><path fill="#231f20" d="M 296.625 258.414062 C 296.042969 258.414062 295.75 258.414062 295.164062 258.121094 C 285.816406 252.855469 279.972656 242.910156 279.972656 232.085938 C 279.972656 215.707031 293.414062 202.25 309.773438 202.25 C 326.136719 202.25 339.574219 215.707031 339.574219 232.085938 C 339.574219 242.617188 334.316406 251.976562 325.257812 257.535156 C 324.675781 257.828125 323.796875 258.121094 322.921875 257.828125 C 314.742188 255.488281 305.683594 255.78125 297.792969 258.414062 C 297.210938 258.414062 296.917969 258.414062 296.625 258.414062 Z M 309.773438 208.101562 C 296.625 208.101562 285.816406 218.925781 285.816406 232.085938 C 285.816406 240.277344 290.199219 247.882812 296.917969 252.269531 C 305.097656 249.929688 314.449219 249.636719 322.921875 251.6875 C 329.347656 247.296875 333.441406 239.984375 333.441406 232.085938 C 333.441406 218.925781 322.921875 208.101562 309.773438 208.101562 Z M 309.773438 208.101562 " fill-opacity="1" fill-rule="nonzero"/><path fill="#231f20" d="M 305.683594 194.355469 C 305.097656 194.355469 304.808594 194.355469 304.222656 194.0625 L 291.074219 186.164062 C 289.613281 185.285156 289.320312 183.53125 289.90625 182.070312 C 290.78125 180.605469 292.535156 180.3125 293.996094 180.898438 L 305.097656 187.332031 L 324.964844 162.179688 C 325.84375 161.007812 327.886719 160.714844 329.058594 161.59375 C 330.226562 162.46875 330.519531 164.519531 329.640625 165.6875 L 308.3125 192.890625 C 307.4375 193.769531 306.558594 194.355469 305.683594 194.355469 Z M 305.683594 194.355469 " fill-opacity="1" fill-rule="nonzero"/></svg>