<svg xmlns="http://www.w3.org/2000/svg" xmlns:xlink="http://www.w3.org/1999/xlink" width="711" zoomAndPan="magnify" viewBox="0 0 533.25 428.99999" height="572" preserveAspectRatio="xMidYMid meet" version="1.0"><defs><clipPath id="a7a929c65d"><path d="M 143 29.859375 L 283 29.859375 L 283 138 L 143 138 Z M 143 29.859375 " clip-rule="nonzero"/></clipPath><clipPath id="e32959fb66"><path d="M 72.304688 230 L 243 230 L 243 357 L 72.304688 357 Z M 72.304688 230 " clip-rule="nonzero"/></clipPath><clipPath id="349bce3fdf"><path d="M 209 278 L 214 278 L 214 357.152344 L 209 357.152344 Z M 209 278 " clip-rule="nonzero"/></clipPath><clipPath id="fefa6916dc"><path d="M 120 283 L 174 283 L 174 357.152344 L 120 357.152344 Z M 120 283 " clip-rule="nonzero"/></clipPath><clipPath id="32af0e00e9"><path d="M 263 222 L 464.753906 222 L 464.753906 357 L 263 357 Z M 263 222 " clip-rule="nonzero"/></clipPath><clipPath id="6530c144a4"><path d="M 403 277 L 426 277 L 426 357.152344 L 403 357.152344 Z M 403 277 " clip-rule="nonzero"/></clipPath></defs><path fill="#a3e635" d="M 326.132812 4.097656 C 319.589844 1.167969 311.355469 0.289062 300.753906 1.929688 L 300.753906 1.933594 C 300.609375 1.953125 300.464844 1.964844 300.324219 1.964844 C 300.25 1.964844 300.179688 1.996094 300.128906 2.042969 L 300.105469 2.035156 C 300.019531 2.058594 299.933594 2.082031 299.847656 2.097656 L 299.84375 2.097656 C 272.746094 7.410156 243.882812 13.976562 227.484375 28.34375 C 222.242188 32.9375 217.210938 37.976562 213.261719 44.15625 C 182.8125 91.800781 163.011719 120.589844 153.078125 129 C 153.027344 129.042969 152.992188 129.105469 152.980469 129.175781 L 152.964844 129.167969 C 146.003906 138.605469 113.667969 165.425781 58.253906 210.757812 C 47.046875 219.925781 39.472656 228.570312 33.808594 235.042969 C 33.097656 235.851562 32.726562 236.273438 32.058594 237.035156 C 4.867188 267.871094 0.0820312 298.558594 17.195312 330.679688 C 25.425781 346.125 38.082031 357.855469 55.382812 365.601562 C 74.988281 374.378906 100.546875 378.039062 132.390625 376.230469 C 154.910156 374.949219 175.15625 372.578125 192.664062 367.640625 C 244.289062 353.089844 316.03125 336.078125 408.171875 317.152344 C 425.925781 313.507812 440.410156 308.152344 452.121094 303.066406 C 510.582031 277.6875 531.976562 245.082031 517.417969 206.238281 C 514.289062 197.890625 507.554688 190.113281 497.820312 185.210938 C 446.65625 159.449219 415.972656 143.738281 410.085938 134.953125 L 410.070312 134.945312 C 410.058594 134.882812 410.027344 134.828125 409.980469 134.785156 C 402.566406 128.054688 394.359375 119.558594 388.589844 107.679688 C 363.144531 55.253906 346.4375 24.222656 337.820312 13.359375 C 334.636719 9.351562 330.828125 6.199219 326.132812 4.097656 Z M 326.132812 4.097656 " fill-opacity="1" fill-rule="nonzero"/><path fill="#000000" d="M 210.660156 25.289062 C 189.109375 38.65625 166.535156 53.625 157.164062 71.203125 C 154.15625 76.835938 151.488281 82.773438 150.113281 89.324219 C 139.355469 140.515625 131.65625 171.800781 125.816406 182.019531 L 126.09375 181.320312 C 123.730469 191.039062 104.554688 224.78125 71.109375 282.710938 C 64.476562 294.199219 60.789062 304.058594 58.023438 311.449219 C 57.746094 312.195312 57.429688 313.039062 57.171875 313.726562 C 43.871094 348.933594 49.714844 376.707031 74.738281 398.644531 C 100.402344 421.140625 137.816406 422.667969 188.117188 400.308594 C 207.023438 391.902344 223.613281 383.304688 237.019531 373.402344 C 276.613281 344.152344 332.671875 306.265625 405.621094 260.109375 C 419.65625 251.230469 430.339844 241.945312 438.730469 233.789062 C 480.644531 193.058594 488.296875 158.292969 463.335938 129.84375 C 457.988281 123.746094 449.742188 119.285156 439.859375 118.246094 C 386.472656 112.621094 354.683594 109.058594 347.613281 103.144531 L 348.355469 103.582031 C 339.71875 100.199219 329.738281 95.542969 320.785156 87.074219 C 281.921875 50.328125 257.53125 29.140625 246.640625 22.632812 C 237.066406 16.914062 226.046875 16.550781 211.378906 24.855469 C 210.089844 25.585938 208.449219 25.132812 207.71875 23.84375 C 206.988281 22.554688 207.445312 20.917969 208.734375 20.1875 C 224.6875 11.152344 237.808594 11.105469 249.394531 18.027344 C 260.910156 24.90625 285.785156 46.59375 324.472656 83.175781 C 332.6875 90.941406 341.917969 95.292969 350.3125 98.585938 C 350.582031 98.691406 350.835938 98.839844 351.054688 99.027344 C 356.472656 103.554688 385.460938 107.117188 440.421875 112.90625 C 451.574219 114.082031 461.085938 119.136719 467.371094 126.304688 C 495.324219 158.167969 484.960938 196.347656 442.46875 237.640625 C 433.898438 245.972656 422.925781 255.511719 408.492188 264.644531 C 335.601562 310.765625 279.65625 348.574219 240.207031 377.71875 C 226.339844 387.964844 209.332031 396.753906 190.296875 405.214844 C 139.195312 427.933594 99.179688 427.210938 71.199219 402.679688 C 44.234375 379.042969 38.1875 348.792969 52.148438 311.832031 C 52.414062 311.132812 52.710938 310.335938 52.996094 309.570312 C 55.773438 302.144531 59.589844 291.929688 66.460938 280.027344 C 100.269531 221.464844 118.753906 188.78125 120.878906 180.050781 C 120.9375 179.808594 121.03125 179.574219 121.15625 179.355469 C 126.460938 170.074219 133.996094 139.925781 144.859375 88.21875 C 146.386719 80.953125 149.316406 74.503906 152.425781 68.675781 C 162.609375 49.578125 186.609375 33.890625 207.832031 20.726562 C 209.09375 19.945312 210.746094 20.335938 211.527344 21.59375 C 212.308594 22.851562 211.921875 24.507812 210.660156 25.289062 Z M 210.660156 25.289062 " fill-opacity="1" fill-rule="nonzero"/><path fill="#ffab02" d="M 393.238281 82.152344 L 393.238281 141.972656 C 393.238281 142.632812 393.175781 143.289062 393.042969 143.9375 C 392.914062 144.585938 392.722656 145.21875 392.472656 145.828125 C 392.21875 146.441406 391.90625 147.019531 391.539062 147.570312 C 391.171875 148.121094 390.753906 148.628906 390.285156 149.097656 C 389.820312 149.566406 389.308594 149.984375 388.757812 150.351562 C 388.210938 150.71875 387.628906 151.027344 387.015625 151.28125 C 386.40625 151.535156 385.777344 151.726562 385.128906 151.855469 C 384.476562 151.984375 383.824219 152.050781 383.160156 152.050781 L 319.730469 152.050781 L 319.730469 179.179688 L 294.453125 152.050781 L 264.796875 152.050781 C 264.136719 152.050781 263.480469 151.984375 262.832031 151.855469 C 262.183594 151.726562 261.550781 151.535156 260.941406 151.28125 C 260.328125 151.027344 259.75 150.71875 259.199219 150.351562 C 258.648438 149.984375 258.140625 149.566406 257.671875 149.097656 C 257.203125 148.628906 256.785156 148.121094 256.417969 147.570312 C 256.050781 147.019531 255.738281 146.441406 255.488281 145.828125 C 255.234375 145.21875 255.042969 144.585938 254.914062 143.9375 C 254.785156 143.289062 254.71875 142.632812 254.71875 141.972656 L 254.71875 82.152344 C 254.71875 81.488281 254.785156 80.832031 254.914062 80.183594 C 255.042969 79.535156 255.234375 78.90625 255.488281 78.292969 C 255.738281 77.683594 256.050781 77.101562 256.417969 76.550781 C 256.785156 76.003906 257.203125 75.492188 257.671875 75.023438 C 258.140625 74.558594 258.648438 74.140625 259.199219 73.773438 C 259.75 73.402344 260.328125 73.09375 260.941406 72.839844 C 261.550781 72.585938 262.183594 72.394531 262.832031 72.265625 C 263.480469 72.136719 264.136719 72.074219 264.796875 72.074219 L 383.160156 72.074219 C 383.824219 72.074219 384.476562 72.136719 385.128906 72.265625 C 385.777344 72.394531 386.40625 72.585938 387.015625 72.839844 C 387.628906 73.09375 388.210938 73.402344 388.757812 73.773438 C 389.308594 74.140625 389.820312 74.558594 390.285156 75.023438 C 390.753906 75.492188 391.171875 76.003906 391.539062 76.550781 C 391.90625 77.101562 392.21875 77.683594 392.472656 78.292969 C 392.726562 78.90625 392.914062 79.535156 393.042969 80.183594 C 393.175781 80.832031 393.238281 81.488281 393.238281 82.152344 Z M 393.238281 82.152344 " fill-opacity="1" fill-rule="nonzero"/><path fill="#ffffff" d="M 329.515625 112.0625 C 329.515625 112.425781 329.480469 112.785156 329.410156 113.140625 C 329.339844 113.496094 329.234375 113.84375 329.09375 114.179688 C 328.957031 114.515625 328.785156 114.835938 328.582031 115.136719 C 328.378906 115.4375 328.152344 115.71875 327.894531 115.976562 C 327.636719 116.234375 327.355469 116.464844 327.054688 116.664062 C 326.753906 116.867188 326.433594 117.039062 326.097656 117.175781 C 325.761719 117.316406 325.414062 117.421875 325.058594 117.492188 C 324.703125 117.5625 324.34375 117.597656 323.976562 117.597656 C 323.613281 117.597656 323.253906 117.5625 322.898438 117.492188 C 322.542969 117.421875 322.195312 117.316406 321.859375 117.175781 C 321.523438 117.039062 321.203125 116.867188 320.902344 116.664062 C 320.597656 116.460938 320.320312 116.234375 320.0625 115.976562 C 319.804688 115.71875 319.574219 115.4375 319.375 115.136719 C 319.171875 114.835938 319 114.515625 318.863281 114.179688 C 318.722656 113.84375 318.617188 113.496094 318.546875 113.140625 C 318.476562 112.785156 318.441406 112.425781 318.441406 112.0625 C 318.441406 111.695312 318.476562 111.335938 318.546875 110.980469 C 318.617188 110.625 318.722656 110.277344 318.863281 109.941406 C 319 109.605469 319.171875 109.285156 319.375 108.984375 C 319.574219 108.683594 319.804688 108.402344 320.0625 108.144531 C 320.320312 107.886719 320.597656 107.660156 320.902344 107.457031 C 321.203125 107.253906 321.523438 107.082031 321.859375 106.945312 C 322.195312 106.804688 322.542969 106.699219 322.898438 106.628906 C 323.253906 106.558594 323.613281 106.523438 323.976562 106.523438 C 324.34375 106.523438 324.703125 106.558594 325.058594 106.628906 C 325.414062 106.699219 325.761719 106.804688 326.097656 106.945312 C 326.433594 107.082031 326.753906 107.253906 327.054688 107.457031 C 327.355469 107.660156 327.636719 107.886719 327.894531 108.144531 C 328.152344 108.402344 328.378906 108.683594 328.582031 108.984375 C 328.785156 109.285156 328.957031 109.605469 329.09375 109.941406 C 329.234375 110.277344 329.339844 110.625 329.410156 110.980469 C 329.480469 111.335938 329.515625 111.695312 329.515625 112.0625 Z M 329.515625 112.0625 " fill-opacity="1" fill-rule="nonzero"/><path fill="#ffffff" d="M 298.492188 112.0625 C 298.492188 112.425781 298.457031 112.785156 298.386719 113.140625 C 298.316406 113.496094 298.210938 113.84375 298.070312 114.179688 C 297.933594 114.515625 297.761719 114.835938 297.558594 115.136719 C 297.355469 115.4375 297.128906 115.71875 296.871094 115.976562 C 296.613281 116.234375 296.332031 116.464844 296.03125 116.664062 C 295.730469 116.867188 295.410156 117.039062 295.074219 117.175781 C 294.738281 117.316406 294.390625 117.421875 294.035156 117.492188 C 293.679688 117.5625 293.320312 117.597656 292.953125 117.597656 C 292.589844 117.597656 292.230469 117.5625 291.875 117.492188 C 291.519531 117.421875 291.171875 117.316406 290.835938 117.175781 C 290.5 117.039062 290.179688 116.867188 289.878906 116.664062 C 289.578125 116.460938 289.296875 116.234375 289.039062 115.976562 C 288.78125 115.71875 288.554688 115.4375 288.351562 115.136719 C 288.148438 114.835938 287.976562 114.515625 287.839844 114.179688 C 287.699219 113.84375 287.59375 113.496094 287.523438 113.140625 C 287.453125 112.785156 287.417969 112.425781 287.417969 112.0625 C 287.417969 111.695312 287.453125 111.335938 287.523438 110.980469 C 287.59375 110.625 287.699219 110.277344 287.839844 109.941406 C 287.976562 109.605469 288.148438 109.285156 288.351562 108.984375 C 288.554688 108.683594 288.78125 108.402344 289.039062 108.144531 C 289.296875 107.886719 289.578125 107.660156 289.878906 107.457031 C 290.179688 107.253906 290.5 107.082031 290.835938 106.945312 C 291.171875 106.804688 291.519531 106.699219 291.875 106.628906 C 292.230469 106.558594 292.589844 106.523438 292.953125 106.523438 C 293.320312 106.523438 293.679688 106.558594 294.035156 106.628906 C 294.390625 106.699219 294.738281 106.804688 295.074219 106.945312 C 295.410156 107.082031 295.730469 107.253906 296.03125 107.457031 C 296.332031 107.660156 296.613281 107.886719 296.871094 108.144531 C 297.128906 108.402344 297.355469 108.683594 297.558594 108.984375 C 297.761719 109.285156 297.933594 109.605469 298.070312 109.941406 C 298.210938 110.277344 298.316406 110.625 298.386719 110.980469 C 298.457031 111.335938 298.492188 111.695312 298.492188 112.0625 Z M 298.492188 112.0625 " fill-opacity="1" fill-rule="nonzero"/><path fill="#ffffff" d="M 360.539062 112.0625 C 360.539062 112.425781 360.503906 112.785156 360.433594 113.140625 C 360.363281 113.496094 360.257812 113.84375 360.117188 114.179688 C 359.976562 114.515625 359.808594 114.835938 359.605469 115.136719 C 359.402344 115.4375 359.175781 115.71875 358.917969 115.976562 C 358.660156 116.234375 358.378906 116.464844 358.078125 116.664062 C 357.777344 116.867188 357.457031 117.039062 357.121094 117.175781 C 356.785156 117.316406 356.4375 117.421875 356.082031 117.492188 C 355.726562 117.5625 355.363281 117.597656 355 117.597656 C 354.636719 117.597656 354.277344 117.5625 353.921875 117.492188 C 353.5625 117.421875 353.21875 117.316406 352.882812 117.175781 C 352.546875 117.039062 352.226562 116.867188 351.925781 116.664062 C 351.621094 116.460938 351.34375 116.234375 351.085938 115.976562 C 350.828125 115.71875 350.597656 115.4375 350.398438 115.136719 C 350.195312 114.835938 350.023438 114.515625 349.886719 114.179688 C 349.746094 113.84375 349.640625 113.496094 349.570312 113.140625 C 349.5 112.785156 349.464844 112.425781 349.464844 112.0625 C 349.464844 111.695312 349.5 111.335938 349.570312 110.980469 C 349.640625 110.625 349.746094 110.277344 349.886719 109.941406 C 350.023438 109.605469 350.195312 109.285156 350.398438 108.984375 C 350.597656 108.683594 350.828125 108.402344 351.085938 108.144531 C 351.34375 107.886719 351.621094 107.660156 351.925781 107.457031 C 352.226562 107.253906 352.546875 107.082031 352.882812 106.945312 C 353.21875 106.804688 353.5625 106.699219 353.921875 106.628906 C 354.277344 106.558594 354.636719 106.523438 355 106.523438 C 355.363281 106.523438 355.726562 106.558594 356.082031 106.628906 C 356.4375 106.699219 356.785156 106.804688 357.121094 106.945312 C 357.457031 107.082031 357.777344 107.253906 358.078125 107.457031 C 358.378906 107.660156 358.660156 107.886719 358.917969 108.144531 C 359.175781 108.402344 359.402344 108.683594 359.605469 108.984375 C 359.808594 109.285156 359.976562 109.605469 360.117188 109.941406 C 360.257812 110.277344 360.363281 110.625 360.433594 110.980469 C 360.503906 111.335938 360.539062 111.695312 360.539062 112.0625 Z M 360.539062 112.0625 " fill-opacity="1" fill-rule="nonzero"/><g clip-path="url(#a7a929c65d)"><path fill="#676ef4" d="M 282.269531 40.015625 L 282.269531 99.839844 C 282.269531 100.5 282.203125 101.15625 282.074219 101.804688 C 281.945312 102.453125 281.753906 103.082031 281.5 103.695312 C 281.25 104.304688 280.9375 104.886719 280.570312 105.4375 C 280.203125 105.988281 279.785156 106.496094 279.316406 106.964844 C 278.847656 107.433594 278.339844 107.847656 277.789062 108.21875 C 277.238281 108.585938 276.660156 108.894531 276.046875 109.148438 C 275.4375 109.402344 274.804688 109.59375 274.15625 109.722656 C 273.507812 109.851562 272.851562 109.914062 272.191406 109.914062 L 242.535156 109.914062 L 217.257812 137.046875 L 217.257812 109.914062 L 153.828125 109.914062 C 153.164062 109.914062 152.511719 109.851562 151.859375 109.722656 C 151.210938 109.59375 150.582031 109.402344 149.972656 109.148438 C 149.359375 108.894531 148.777344 108.585938 148.230469 108.21875 C 147.679688 107.847656 147.167969 107.433594 146.703125 106.964844 C 146.234375 106.496094 145.816406 105.988281 145.449219 105.4375 C 145.082031 104.886719 144.769531 104.304688 144.515625 103.695312 C 144.265625 103.082031 144.074219 102.453125 143.945312 101.804688 C 143.8125 101.15625 143.75 100.5 143.75 99.839844 L 143.75 40.015625 C 143.75 39.355469 143.8125 38.699219 143.945312 38.050781 C 144.074219 37.402344 144.265625 36.773438 144.515625 36.160156 C 144.769531 35.550781 145.082031 34.96875 145.449219 34.417969 C 145.816406 33.867188 146.234375 33.359375 146.703125 32.890625 C 147.167969 32.421875 147.679688 32.003906 148.230469 31.636719 C 148.777344 31.269531 149.359375 30.960938 149.972656 30.707031 C 150.582031 30.453125 151.210938 30.261719 151.859375 30.132812 C 152.511719 30.003906 153.164062 29.9375 153.828125 29.9375 L 272.191406 29.9375 C 272.851562 29.9375 273.507812 30.003906 274.15625 30.132812 C 274.804688 30.261719 275.4375 30.453125 276.046875 30.707031 C 276.660156 30.960938 277.238281 31.269531 277.789062 31.636719 C 278.339844 32.003906 278.847656 32.421875 279.316406 32.890625 C 279.785156 33.359375 280.203125 33.867188 280.570312 34.417969 C 280.9375 34.96875 281.25 35.550781 281.5 36.160156 C 281.753906 36.773438 281.945312 37.402344 282.074219 38.050781 C 282.203125 38.699219 282.269531 39.355469 282.269531 40.015625 Z M 282.269531 40.015625 " fill-opacity="1" fill-rule="nonzero"/></g><path fill="#ffffff" d="M 218.546875 69.925781 C 218.546875 70.289062 218.511719 70.648438 218.441406 71.007812 C 218.367188 71.363281 218.265625 71.710938 218.125 72.046875 C 217.984375 72.382812 217.816406 72.699219 217.613281 73.003906 C 217.410156 73.304688 217.179688 73.585938 216.925781 73.84375 C 216.667969 74.097656 216.386719 74.328125 216.085938 74.53125 C 215.78125 74.734375 215.464844 74.902344 215.128906 75.042969 C 214.792969 75.179688 214.445312 75.285156 214.089844 75.359375 C 213.734375 75.429688 213.371094 75.464844 213.007812 75.464844 C 212.644531 75.464844 212.285156 75.429688 211.929688 75.359375 C 211.570312 75.285156 211.226562 75.179688 210.890625 75.042969 C 210.554688 74.902344 210.234375 74.734375 209.933594 74.53125 C 209.628906 74.328125 209.351562 74.097656 209.09375 73.84375 C 208.835938 73.585938 208.605469 73.304688 208.40625 73.003906 C 208.203125 72.699219 208.03125 72.382812 207.894531 72.046875 C 207.753906 71.710938 207.648438 71.363281 207.578125 71.007812 C 207.507812 70.648438 207.472656 70.289062 207.472656 69.925781 C 207.472656 69.5625 207.507812 69.203125 207.578125 68.847656 C 207.648438 68.488281 207.753906 68.144531 207.894531 67.808594 C 208.03125 67.472656 208.203125 67.152344 208.40625 66.851562 C 208.605469 66.546875 208.835938 66.269531 209.09375 66.011719 C 209.351562 65.753906 209.628906 65.523438 209.933594 65.324219 C 210.234375 65.121094 210.554688 64.949219 210.890625 64.8125 C 211.226562 64.671875 211.570312 64.566406 211.929688 64.496094 C 212.285156 64.425781 212.644531 64.390625 213.007812 64.390625 C 213.371094 64.390625 213.734375 64.425781 214.089844 64.496094 C 214.445312 64.566406 214.792969 64.671875 215.128906 64.8125 C 215.464844 64.949219 215.78125 65.121094 216.085938 65.324219 C 216.386719 65.523438 216.667969 65.753906 216.925781 66.011719 C 217.179688 66.269531 217.410156 66.546875 217.613281 66.851562 C 217.816406 67.152344 217.984375 67.472656 218.125 67.808594 C 218.265625 68.144531 218.367188 68.488281 218.441406 68.847656 C 218.511719 69.203125 218.546875 69.5625 218.546875 69.925781 Z M 218.546875 69.925781 " fill-opacity="1" fill-rule="nonzero"/><path fill="#ffffff" d="M 249.570312 69.925781 C 249.570312 70.289062 249.535156 70.648438 249.464844 71.007812 C 249.390625 71.363281 249.289062 71.710938 249.148438 72.046875 C 249.007812 72.382812 248.839844 72.699219 248.636719 73.003906 C 248.433594 73.304688 248.203125 73.585938 247.949219 73.84375 C 247.691406 74.097656 247.410156 74.328125 247.109375 74.53125 C 246.804688 74.734375 246.488281 74.902344 246.152344 75.042969 C 245.816406 75.179688 245.46875 75.285156 245.113281 75.359375 C 244.757812 75.429688 244.394531 75.464844 244.03125 75.464844 C 243.667969 75.464844 243.308594 75.429688 242.953125 75.359375 C 242.59375 75.285156 242.25 75.179688 241.914062 75.042969 C 241.578125 74.902344 241.257812 74.734375 240.957031 74.53125 C 240.652344 74.328125 240.375 74.097656 240.117188 73.84375 C 239.859375 73.585938 239.628906 73.304688 239.429688 73.003906 C 239.226562 72.699219 239.054688 72.382812 238.917969 72.046875 C 238.777344 71.710938 238.671875 71.363281 238.601562 71.007812 C 238.53125 70.648438 238.496094 70.289062 238.496094 69.925781 C 238.496094 69.5625 238.53125 69.203125 238.601562 68.847656 C 238.671875 68.488281 238.777344 68.144531 238.917969 67.808594 C 239.054688 67.472656 239.226562 67.152344 239.429688 66.851562 C 239.628906 66.546875 239.859375 66.269531 240.117188 66.011719 C 240.375 65.753906 240.652344 65.523438 240.957031 65.324219 C 241.257812 65.121094 241.578125 64.949219 241.914062 64.8125 C 242.25 64.671875 242.59375 64.566406 242.953125 64.496094 C 243.308594 64.425781 243.667969 64.390625 244.03125 64.390625 C 244.394531 64.390625 244.757812 64.425781 245.113281 64.496094 C 245.46875 64.566406 245.816406 64.671875 246.152344 64.8125 C 246.488281 64.949219 246.804688 65.121094 247.109375 65.324219 C 247.410156 65.523438 247.691406 65.753906 247.949219 66.011719 C 248.203125 66.269531 248.433594 66.546875 248.636719 66.851562 C 248.839844 67.152344 249.007812 67.472656 249.148438 67.808594 C 249.289062 68.144531 249.390625 68.488281 249.464844 68.847656 C 249.535156 69.203125 249.570312 69.5625 249.570312 69.925781 Z M 249.570312 69.925781 " fill-opacity="1" fill-rule="nonzero"/><path fill="#ffffff" d="M 187.523438 69.925781 C 187.523438 70.289062 187.488281 70.648438 187.417969 71.007812 C 187.347656 71.363281 187.242188 71.710938 187.101562 72.046875 C 186.960938 72.382812 186.792969 72.699219 186.589844 73.003906 C 186.386719 73.304688 186.160156 73.585938 185.902344 73.84375 C 185.644531 74.097656 185.363281 74.328125 185.0625 74.53125 C 184.757812 74.734375 184.441406 74.902344 184.105469 75.042969 C 183.769531 75.179688 183.421875 75.285156 183.066406 75.359375 C 182.710938 75.429688 182.347656 75.464844 181.984375 75.464844 C 181.621094 75.464844 181.261719 75.429688 180.90625 75.359375 C 180.546875 75.285156 180.203125 75.179688 179.867188 75.042969 C 179.53125 74.902344 179.210938 74.734375 178.910156 74.53125 C 178.605469 74.328125 178.328125 74.097656 178.070312 73.84375 C 177.8125 73.585938 177.582031 73.304688 177.382812 73.003906 C 177.179688 72.699219 177.007812 72.382812 176.871094 72.046875 C 176.730469 71.710938 176.625 71.363281 176.554688 71.007812 C 176.484375 70.648438 176.449219 70.289062 176.449219 69.925781 C 176.449219 69.5625 176.484375 69.203125 176.554688 68.847656 C 176.625 68.488281 176.730469 68.144531 176.871094 67.808594 C 177.007812 67.472656 177.179688 67.152344 177.382812 66.851562 C 177.582031 66.546875 177.8125 66.269531 178.070312 66.011719 C 178.328125 65.753906 178.605469 65.523438 178.910156 65.324219 C 179.210938 65.121094 179.53125 64.949219 179.867188 64.8125 C 180.203125 64.671875 180.546875 64.566406 180.90625 64.496094 C 181.261719 64.425781 181.621094 64.390625 181.984375 64.390625 C 182.347656 64.390625 182.710938 64.425781 183.066406 64.496094 C 183.421875 64.566406 183.769531 64.671875 184.105469 64.8125 C 184.441406 64.949219 184.757812 65.121094 185.0625 65.324219 C 185.363281 65.523438 185.644531 65.753906 185.902344 66.011719 C 186.160156 66.269531 186.386719 66.546875 186.589844 66.851562 C 186.792969 67.152344 186.960938 67.472656 187.101562 67.808594 C 187.242188 68.144531 187.347656 68.488281 187.417969 68.847656 C 187.488281 69.203125 187.523438 69.5625 187.523438 69.925781 Z M 187.523438 69.925781 " fill-opacity="1" fill-rule="nonzero"/><g clip-path="url(#e32959fb66)"><path fill="#676ef4" d="M 219.988281 256.460938 C 219.855469 255.683594 219.6875 254.914062 219.476562 254.152344 L 219.460938 254.085938 C 219.183594 253.082031 218.84375 252.097656 218.433594 251.140625 C 218.027344 250.179688 217.558594 249.253906 217.027344 248.355469 C 216.5 247.457031 215.914062 246.601562 215.269531 245.78125 C 214.625 244.960938 213.929688 244.1875 213.1875 243.460938 C 212.441406 242.730469 211.652344 242.054688 210.816406 241.433594 C 209.980469 240.808594 209.109375 240.242188 208.199219 239.734375 C 207.289062 239.226562 206.351562 238.777344 205.382812 238.394531 C 204.414062 238.007812 203.425781 237.691406 202.414062 237.4375 C 202.371094 237.425781 202.328125 237.410156 202.285156 237.398438 L 176.265625 230.441406 L 150.203125 230.441406 L 117.453125 237.269531 C 108.476562 238.484375 101.246094 249.347656 99.851562 253.886719 L 73.355469 331.261719 C 73.15625 331.84375 72.984375 332.433594 72.84375 333.027344 C 72.699219 333.625 72.585938 334.226562 72.5 334.835938 C 72.414062 335.445312 72.355469 336.054688 72.328125 336.667969 C 72.300781 337.28125 72.304688 337.894531 72.332031 338.507812 C 72.363281 339.121094 72.425781 339.730469 72.511719 340.335938 C 72.601562 340.945312 72.71875 341.546875 72.863281 342.144531 C 73.011719 342.738281 73.183594 343.328125 73.386719 343.90625 C 73.585938 344.488281 73.816406 345.054688 74.070312 345.613281 C 74.328125 346.171875 74.609375 346.714844 74.917969 347.246094 C 75.222656 347.777344 75.554688 348.292969 75.914062 348.792969 C 76.269531 349.292969 76.648438 349.773438 77.050781 350.238281 C 77.453125 350.703125 77.875 351.144531 78.320312 351.570312 C 78.765625 351.992188 79.226562 352.394531 79.710938 352.773438 C 80.195312 353.152344 80.691406 353.507812 81.210938 353.839844 C 81.726562 354.171875 82.257812 354.476562 82.800781 354.761719 C 83.347656 355.042969 83.90625 355.296875 84.476562 355.523438 C 86.9375 356.511719 89.492188 356.976562 92.144531 356.910156 L 242.261719 356.910156 Z M 219.988281 256.460938 " fill-opacity="1" fill-rule="nonzero"/></g><g clip-path="url(#349bce3fdf)"><path fill="#1b1f3b" d="M 213.203125 357.398438 C 213.070312 357.398438 212.957031 357.355469 212.859375 357.261719 C 212.765625 357.171875 212.714844 357.058594 212.710938 356.929688 L 209.742188 278.90625 C 209.738281 278.769531 209.78125 278.652344 209.871094 278.554688 C 209.964844 278.457031 210.078125 278.402344 210.214844 278.398438 C 210.347656 278.390625 210.464844 278.433594 210.566406 278.527344 C 210.667969 278.621094 210.71875 278.734375 210.722656 278.871094 L 213.691406 356.890625 C 213.695312 357.027344 213.652344 357.144531 213.5625 357.242188 C 213.46875 357.34375 213.355469 357.394531 213.21875 357.398438 C 213.214844 357.398438 213.207031 357.398438 213.203125 357.398438 Z M 213.203125 357.398438 " fill-opacity="1" fill-rule="nonzero"/></g><g clip-path="url(#fefa6916dc)"><path fill="#1b1f3b" d="M 171.460938 357.398438 C 171.453125 357.398438 171.441406 357.398438 171.433594 357.398438 C 171.300781 357.390625 171.1875 357.335938 171.09375 357.234375 C 171.003906 357.136719 170.964844 357.015625 170.96875 356.882812 L 172.511719 326.902344 L 120.597656 321.539062 C 120.519531 321.53125 120.445312 321.507812 120.378906 321.464844 C 120.3125 321.417969 120.261719 321.363281 120.222656 321.292969 C 120.183594 321.226562 120.160156 321.152344 120.160156 321.074219 C 120.15625 320.992188 120.171875 320.917969 120.203125 320.847656 L 137.433594 283.554688 C 137.492188 283.429688 137.582031 283.347656 137.710938 283.300781 C 137.835938 283.253906 137.960938 283.257812 138.082031 283.316406 C 138.207031 283.371094 138.289062 283.464844 138.335938 283.589844 C 138.386719 283.71875 138.378906 283.84375 138.324219 283.964844 L 121.382812 320.636719 L 173.078125 325.972656 C 173.207031 325.988281 173.316406 326.042969 173.398438 326.144531 C 173.484375 326.242188 173.523438 326.355469 173.515625 326.488281 L 171.949219 356.933594 C 171.941406 357.0625 171.890625 357.171875 171.796875 357.261719 C 171.703125 357.351562 171.589844 357.398438 171.460938 357.398438 Z M 171.460938 357.398438 " fill-opacity="1" fill-rule="nonzero"/></g><path fill="#ffbc96" d="M 220.367188 338.414062 L 216.675781 336.667969 L 223.097656 342.511719 C 223.398438 342.78125 223.632812 343.097656 223.804688 343.460938 C 223.976562 343.824219 224.070312 344.207031 224.09375 344.609375 C 224.113281 345.007812 224.054688 345.398438 223.921875 345.777344 C 223.785156 346.15625 223.582031 346.496094 223.316406 346.792969 C 223.046875 347.09375 222.730469 347.328125 222.367188 347.503906 C 222.003906 347.675781 221.621094 347.773438 221.222656 347.796875 C 220.820312 347.816406 220.429688 347.761719 220.050781 347.628906 C 219.671875 347.496094 219.332031 347.292969 219.03125 347.027344 C 219.03125 347.648438 218.859375 348.214844 218.511719 348.726562 C 218.164062 349.242188 217.703125 349.613281 217.128906 349.84375 C 216.550781 350.078125 215.960938 350.125 215.355469 349.992188 C 214.75 349.863281 214.230469 349.570312 213.804688 349.121094 L 213.6875 349.007812 C 213.613281 349.570312 213.398438 350.070312 213.042969 350.511719 C 212.6875 350.953125 212.242188 351.269531 211.707031 351.460938 C 211.171875 351.652344 210.628906 351.691406 210.074219 351.578125 C 209.515625 351.460938 209.03125 351.210938 208.617188 350.824219 L 205.566406 347.996094 L 200.019531 346.691406 L 186.589844 351.527344 C 185.621094 351.957031 184.613281 352.230469 183.5625 352.351562 C 183.015625 352.410156 182.460938 352.425781 181.910156 352.398438 L 181.90625 352.402344 L 172.183594 352.402344 L 173.285156 331.023438 L 181.449219 331.867188 L 200.761719 326.238281 C 201.289062 326.082031 201.816406 326.074219 202.347656 326.207031 L 215.652344 329.53125 C 215.847656 329.582031 216.035156 329.648438 216.214844 329.730469 L 222.960938 332.917969 C 223.328125 333.089844 223.644531 333.324219 223.914062 333.625 C 224.1875 333.921875 224.390625 334.261719 224.523438 334.640625 C 224.660156 335.019531 224.71875 335.410156 224.699219 335.8125 C 224.679688 336.214844 224.585938 336.597656 224.414062 336.964844 C 224.238281 337.328125 224.003906 337.644531 223.707031 337.917969 C 223.40625 338.1875 223.070312 338.390625 222.6875 338.527344 C 222.308594 338.664062 221.917969 338.722656 221.515625 338.703125 C 221.113281 338.683594 220.730469 338.585938 220.367188 338.414062 Z M 220.367188 338.414062 " fill-opacity="1" fill-rule="nonzero"/><path fill="#1b1f3b" d="M 217.472656 337.886719 C 217.347656 337.886719 217.238281 337.84375 217.144531 337.757812 L 215.648438 336.394531 C 215.355469 336.132812 215.019531 335.945312 214.640625 335.832031 L 202.117188 332.199219 C 201.992188 332.160156 201.894531 332.082031 201.832031 331.964844 C 201.769531 331.84375 201.753906 331.722656 201.792969 331.59375 C 201.828125 331.464844 201.90625 331.367188 202.023438 331.300781 C 202.140625 331.238281 202.261719 331.222656 202.390625 331.257812 L 214.917969 334.890625 C 215.4375 335.042969 215.902344 335.304688 216.304688 335.667969 L 217.804688 337.03125 C 217.96875 337.183594 218.011719 337.363281 217.933594 337.570312 C 217.851562 337.78125 217.699219 337.886719 217.472656 337.886719 Z M 217.472656 337.886719 " fill-opacity="1" fill-rule="nonzero"/><path fill="#1b1f3b" d="M 212.910156 351.15625 C 212.695312 351.15625 212.546875 351.058594 212.460938 350.863281 C 212.375 350.664062 212.40625 350.488281 212.550781 350.332031 C 212.78125 350.085938 212.953125 349.800781 213.070312 349.484375 C 213.1875 349.167969 213.238281 348.839844 213.226562 348.503906 C 213.214844 348.167969 213.136719 347.84375 212.996094 347.539062 C 212.855469 347.230469 212.664062 346.960938 212.414062 346.730469 L 208.777344 343.355469 C 208.445312 343.054688 208.0625 342.847656 207.628906 342.746094 L 200.425781 341.046875 C 200.292969 341.015625 200.191406 340.941406 200.121094 340.828125 C 200.050781 340.714844 200.027344 340.589844 200.058594 340.457031 C 200.089844 340.324219 200.164062 340.222656 200.28125 340.152344 C 200.394531 340.082031 200.519531 340.0625 200.648438 340.09375 L 207.851562 341.789062 C 208.457031 341.933594 208.988281 342.214844 209.441406 342.636719 L 213.082031 346.011719 C 213.425781 346.332031 213.695312 346.703125 213.886719 347.128906 C 214.082031 347.554688 214.1875 348 214.207031 348.46875 C 214.222656 348.933594 214.152344 349.386719 213.988281 349.828125 C 213.828125 350.265625 213.585938 350.65625 213.269531 351 C 213.171875 351.105469 213.054688 351.15625 212.910156 351.15625 Z M 212.910156 351.15625 " fill-opacity="1" fill-rule="nonzero"/><path fill="#1b1f3b" d="M 218.703125 348.898438 C 218.617188 348.898438 218.539062 348.878906 218.464844 348.835938 C 218.390625 348.792969 218.332031 348.738281 218.285156 348.664062 C 218.242188 348.589844 218.21875 348.511719 218.214844 348.425781 C 218.210938 348.34375 218.230469 348.261719 218.265625 348.183594 C 218.511719 347.703125 218.597656 347.191406 218.519531 346.65625 C 218.441406 346.121094 218.214844 345.65625 217.839844 345.265625 L 212.59375 339.777344 C 212.257812 339.425781 211.855469 339.191406 211.386719 339.070312 L 201.488281 336.527344 C 201.359375 336.492188 201.257812 336.417969 201.1875 336.300781 C 201.121094 336.183594 201.101562 336.0625 201.136719 335.929688 C 201.171875 335.800781 201.246094 335.699219 201.363281 335.632812 C 201.476562 335.5625 201.601562 335.542969 201.734375 335.578125 L 211.628906 338.121094 C 212.28125 338.285156 212.835938 338.613281 213.300781 339.097656 L 218.546875 344.585938 C 218.800781 344.851562 219.007812 345.148438 219.167969 345.476562 C 219.328125 345.804688 219.4375 346.152344 219.488281 346.515625 C 219.542969 346.875 219.539062 347.238281 219.480469 347.601562 C 219.421875 347.960938 219.308594 348.304688 219.140625 348.632812 C 219.050781 348.808594 218.902344 348.898438 218.703125 348.898438 Z M 218.703125 348.898438 " fill-opacity="1" fill-rule="nonzero"/><path fill="#ffbc96" d="M 152.582031 196.585938 L 150.207031 230.441406 C 150.207031 230.441406 158.390625 242.472656 172.53125 242.472656 C 181.085938 242.472656 176.265625 230.441406 176.265625 230.441406 L 173.78125 195.09375 Z M 152.582031 196.585938 " fill-opacity="1" fill-rule="nonzero"/><path fill="#1b1f3b" d="M 173.78125 195.09375 L 156.4375 196.3125 L 156.4375 206.753906 C 156.4375 217.808594 164.210938 227.191406 176.050781 227.726562 Z M 173.78125 195.09375 " fill-opacity="1" fill-rule="nonzero"/><path fill="#ffbc96" d="M 173.359375 161.757812 C 174.027344 161.757812 174.695312 161.789062 175.363281 161.855469 C 176.027344 161.921875 176.691406 162.019531 177.347656 162.148438 C 178.003906 162.28125 178.652344 162.441406 179.292969 162.636719 C 179.933594 162.832031 180.5625 163.054688 181.183594 163.3125 C 181.800781 163.570312 182.40625 163.855469 182.996094 164.171875 C 183.585938 164.484375 184.160156 164.828125 184.714844 165.203125 C 185.273438 165.574219 185.8125 165.972656 186.328125 166.398438 C 186.847656 166.820312 187.339844 167.269531 187.816406 167.746094 C 188.289062 168.21875 188.738281 168.714844 189.164062 169.230469 C 189.585938 169.75 189.984375 170.285156 190.359375 170.84375 C 190.730469 171.398438 191.074219 171.972656 191.390625 172.5625 C 191.703125 173.152344 191.992188 173.757812 192.246094 174.378906 C 192.503906 174.996094 192.726562 175.625 192.921875 176.265625 C 193.117188 176.90625 193.28125 177.554688 193.410156 178.210938 C 193.539062 178.871094 193.640625 179.53125 193.703125 180.199219 C 193.769531 180.863281 193.804688 181.53125 193.804688 182.203125 L 193.804688 203.453125 C 193.804688 204.125 193.769531 204.792969 193.703125 205.457031 C 193.640625 206.125 193.539062 206.785156 193.410156 207.441406 C 193.28125 208.101562 193.117188 208.75 192.921875 209.390625 C 192.726562 210.03125 192.503906 210.660156 192.246094 211.277344 C 191.992188 211.898438 191.703125 212.5 191.390625 213.09375 C 191.074219 213.683594 190.730469 214.257812 190.359375 214.8125 C 189.984375 215.371094 189.585938 215.90625 189.164062 216.425781 C 188.738281 216.941406 188.289062 217.4375 187.816406 217.910156 C 187.339844 218.386719 186.847656 218.835938 186.328125 219.257812 C 185.8125 219.683594 185.273438 220.082031 184.714844 220.453125 C 184.160156 220.828125 183.585938 221.171875 182.996094 221.484375 C 182.40625 221.800781 181.800781 222.085938 181.183594 222.34375 C 180.5625 222.601562 179.933594 222.824219 179.292969 223.019531 C 178.652344 223.214844 178.003906 223.375 177.347656 223.507812 C 176.691406 223.636719 176.027344 223.734375 175.363281 223.800781 C 174.695312 223.867188 174.027344 223.898438 173.359375 223.898438 C 172.6875 223.898438 172.019531 223.867188 171.355469 223.800781 C 170.6875 223.734375 170.027344 223.636719 169.371094 223.507812 C 168.710938 223.375 168.0625 223.214844 167.421875 223.019531 C 166.78125 222.824219 166.152344 222.601562 165.535156 222.34375 C 164.914062 222.085938 164.3125 221.800781 163.71875 221.484375 C 163.128906 221.171875 162.554688 220.828125 162 220.453125 C 161.441406 220.082031 160.90625 219.683594 160.386719 219.257812 C 159.871094 218.835938 159.375 218.386719 158.902344 217.910156 C 158.425781 217.4375 157.976562 216.941406 157.554688 216.425781 C 157.128906 215.90625 156.730469 215.371094 156.359375 214.8125 C 155.988281 214.257812 155.640625 213.683594 155.328125 213.09375 C 155.011719 212.5 154.726562 211.898438 154.46875 211.277344 C 154.210938 210.660156 153.988281 210.03125 153.792969 209.390625 C 153.597656 208.75 153.4375 208.101562 153.304688 207.441406 C 153.175781 206.785156 153.078125 206.125 153.011719 205.457031 C 152.945312 204.792969 152.914062 204.125 152.914062 203.453125 L 152.914062 182.203125 C 152.914062 181.53125 152.945312 180.863281 153.011719 180.199219 C 153.078125 179.53125 153.175781 178.871094 153.304688 178.210938 C 153.4375 177.554688 153.597656 176.90625 153.792969 176.265625 C 153.988281 175.625 154.210938 174.996094 154.46875 174.378906 C 154.726562 173.757812 155.011719 173.152344 155.328125 172.5625 C 155.640625 171.972656 155.988281 171.398438 156.359375 170.84375 C 156.730469 170.285156 157.128906 169.75 157.554688 169.230469 C 157.976562 168.714844 158.425781 168.21875 158.902344 167.746094 C 159.375 167.269531 159.871094 166.820312 160.386719 166.398438 C 160.90625 165.972656 161.441406 165.574219 162 165.203125 C 162.554688 164.828125 163.128906 164.484375 163.71875 164.171875 C 164.3125 163.855469 164.914062 163.570312 165.535156 163.3125 C 166.152344 163.054688 166.78125 162.832031 167.421875 162.636719 C 168.0625 162.441406 168.710938 162.28125 169.371094 162.148438 C 170.027344 162.019531 170.6875 161.921875 171.355469 161.855469 C 172.019531 161.789062 172.6875 161.757812 173.359375 161.757812 Z M 173.359375 161.757812 " fill-opacity="1" fill-rule="nonzero"/><path fill="#1b1f3b" d="M 164.421875 170.171875 C 164.421875 170.171875 164.988281 180.890625 156.339844 183.9375 C 156.339844 183.9375 158.402344 195.269531 152.105469 198.3125 C 152.105469 198.3125 132.335938 192.285156 140.5 178.636719 C 140.5 178.636719 134.308594 172.566406 137.882812 163.875 C 141.457031 155.183594 150.597656 156.035156 150.597656 156.035156 C 151.085938 154.960938 151.765625 154.03125 152.640625 153.238281 C 153.515625 152.449219 154.511719 151.863281 155.628906 151.488281 C 159.488281 150.109375 163.101562 152.179688 163.101562 152.179688 C 163.101562 152.179688 166.226562 145.273438 175.082031 145.070312 C 183.933594 144.867188 187.023438 153.03125 187.023438 153.03125 C 187.023438 153.03125 198.460938 146.703125 204.566406 157.863281 C 210.941406 169.519531 200.660156 177.296875 193.820312 177.296875 C 192.835938 177.304688 191.859375 177.207031 190.894531 177.003906 C 189.929688 176.796875 189 176.488281 188.105469 176.078125 C 187.207031 175.667969 186.367188 175.164062 185.582031 174.570312 C 184.796875 173.972656 184.085938 173.296875 183.449219 172.546875 C 183.449219 172.546875 181.011719 175.652344 174.492188 175.652344 C 167.976562 175.652344 164.421875 170.171875 164.421875 170.171875 Z M 164.421875 170.171875 " fill-opacity="1" fill-rule="nonzero"/><path fill="#ffbc96" d="M 155.148438 195.023438 L 155.148438 205.015625 C 155.148438 205.015625 152.933594 206.597656 149.117188 206.640625 C 145.300781 206.679688 140.953125 203.066406 140.953125 196.609375 C 140.953125 190.152344 144.570312 187.347656 147.492188 187.347656 C 153.960938 187.347656 155.148438 195.023438 155.148438 195.023438 Z M 155.148438 195.023438 " fill-opacity="1" fill-rule="nonzero"/><path fill="#1b1f3b" d="M 145.035156 199.679688 C 144.820312 199.675781 144.671875 199.578125 144.585938 199.382812 C 144.5 199.183594 144.53125 199.007812 144.679688 198.851562 C 145.332031 198.132812 146.113281 197.601562 147.019531 197.257812 C 147.925781 196.910156 148.863281 196.789062 149.828125 196.886719 C 149.398438 194.105469 146.160156 193.261719 146.015625 193.226562 C 145.882812 193.191406 145.785156 193.117188 145.714844 193.003906 C 145.644531 192.886719 145.628906 192.765625 145.660156 192.632812 C 145.691406 192.503906 145.765625 192.402344 145.882812 192.332031 C 145.996094 192.261719 146.117188 192.242188 146.25 192.273438 C 146.296875 192.285156 150.824219 193.449219 150.855469 197.46875 C 150.855469 197.542969 150.839844 197.617188 150.808594 197.6875 C 150.773438 197.753906 150.726562 197.8125 150.664062 197.859375 C 150.605469 197.90625 150.535156 197.9375 150.460938 197.953125 C 150.386719 197.96875 150.3125 197.964844 150.238281 197.945312 C 149.347656 197.761719 148.46875 197.808594 147.605469 198.089844 C 146.742188 198.371094 146.003906 198.851562 145.390625 199.523438 C 145.296875 199.625 145.175781 199.679688 145.035156 199.679688 Z M 145.035156 199.679688 " fill-opacity="1" fill-rule="nonzero"/><path fill="#1b1f3b" d="M 180.351562 205.792969 C 180.21875 205.792969 180.105469 205.746094 180.011719 205.65625 C 179.914062 205.5625 179.867188 205.453125 179.859375 205.320312 C 179.855469 205.1875 179.894531 205.074219 179.984375 204.976562 C 180.070312 204.878906 180.179688 204.824219 180.3125 204.8125 C 183.347656 204.5625 184.417969 202.464844 184.703125 201.730469 C 181.171875 197.917969 181.078125 191.832031 181.074219 191.570312 C 181.074219 191.433594 181.121094 191.316406 181.214844 191.222656 C 181.308594 191.125 181.425781 191.074219 181.558594 191.074219 L 181.566406 191.074219 C 181.699219 191.074219 181.816406 191.121094 181.910156 191.214844 C 182.003906 191.3125 182.054688 191.425781 182.054688 191.558594 C 182.054688 191.621094 182.15625 197.753906 185.609375 201.261719 C 185.742188 201.394531 185.78125 201.550781 185.734375 201.730469 C 185.726562 201.765625 184.714844 205.433594 180.390625 205.789062 C 180.378906 205.789062 180.363281 205.792969 180.351562 205.792969 Z M 180.351562 205.792969 " fill-opacity="1" fill-rule="nonzero"/><path fill="#ffbc96" d="M 290.609375 263.460938 L 270.921875 273.753906 L 264.785156 260.042969 L 252.335938 253.773438 C 251.835938 253.480469 251.351562 253.164062 250.882812 252.820312 C 248.914062 251.363281 247.332031 249.570312 246.136719 247.433594 C 245.984375 247.308594 245.785156 247.132812 245.65625 247.027344 C 244.296875 245.867188 243.148438 244.523438 242.214844 243 C 240.050781 240.949219 238.539062 238.496094 237.675781 235.640625 L 236.25 230.925781 C 236.144531 230.570312 236.101562 230.207031 236.125 229.835938 C 236.152344 229.464844 236.242188 229.109375 236.394531 228.773438 C 236.550781 228.433594 236.757812 228.132812 237.023438 227.871094 C 237.285156 227.609375 237.585938 227.40625 237.925781 227.253906 C 238.265625 227.101562 238.621094 227.015625 238.992188 226.992188 C 239.363281 226.972656 239.726562 227.015625 240.082031 227.125 C 240.433594 227.238281 240.757812 227.40625 241.050781 227.636719 C 241.34375 227.867188 241.585938 228.140625 241.78125 228.457031 C 242.082031 227.945312 242.5 227.554688 243.03125 227.289062 C 243.5625 227.019531 244.121094 226.917969 244.714844 226.976562 C 245.304688 227.039062 245.832031 227.253906 246.300781 227.625 C 246.765625 227.992188 247.09375 228.460938 247.285156 229.023438 L 247.835938 230.609375 C 248.253906 231.824219 248.871094 232.933594 249.683594 233.929688 C 250.5 234.925781 251.460938 235.75 252.570312 236.402344 C 252.570312 236.402344 257.785156 240.4375 264.027344 240.203125 C 264.191406 239.636719 264.421875 239.101562 264.722656 238.597656 L 257.351562 233.046875 C 256.832031 232.65625 256.398438 232.1875 256.054688 231.636719 C 255.710938 231.085938 255.476562 230.492188 255.351562 229.855469 C 255.230469 229.214844 255.222656 228.578125 255.335938 227.9375 C 255.449219 227.300781 255.671875 226.699219 256.007812 226.144531 C 256.023438 226.113281 256.046875 226.082031 256.070312 226.054688 C 256.167969 225.9375 256.292969 225.867188 256.445312 225.835938 C 256.597656 225.808594 256.742188 225.832031 256.875 225.90625 L 268.765625 232.332031 C 269.886719 232.933594 270.835938 233.738281 271.609375 234.746094 L 280.695312 246.523438 L 280.695312 246.527344 C 281.148438 247.082031 281.535156 247.679688 281.859375 248.316406 L 281.863281 248.316406 Z M 290.609375 263.460938 " fill-opacity="1" fill-rule="nonzero"/><path fill="#1b1f3b" d="M 242.089844 229.644531 C 241.847656 229.644531 241.691406 229.527344 241.621094 229.296875 C 241.523438 228.96875 241.367188 228.675781 241.152344 228.414062 C 240.9375 228.152344 240.679688 227.941406 240.378906 227.78125 C 240.082031 227.621094 239.761719 227.523438 239.425781 227.488281 C 239.085938 227.457031 238.753906 227.488281 238.429688 227.585938 C 238.300781 227.628906 238.175781 227.613281 238.058594 227.550781 C 237.9375 227.488281 237.859375 227.390625 237.820312 227.261719 C 237.777344 227.132812 237.792969 227.007812 237.855469 226.886719 C 237.917969 226.769531 238.015625 226.6875 238.144531 226.648438 C 238.59375 226.511719 239.054688 226.46875 239.519531 226.511719 C 239.988281 226.558594 240.429688 226.695312 240.84375 226.914062 C 241.257812 227.136719 241.613281 227.429688 241.910156 227.792969 C 242.207031 228.15625 242.425781 228.5625 242.5625 229.011719 C 242.601562 229.140625 242.589844 229.265625 242.523438 229.386719 C 242.460938 229.503906 242.363281 229.585938 242.234375 229.625 C 242.1875 229.636719 242.140625 229.644531 242.089844 229.644531 Z M 242.089844 229.644531 " fill-opacity="1" fill-rule="nonzero"/><path fill="#1b1f3b" d="M 242.167969 243.425781 C 241.984375 243.429688 241.84375 243.347656 241.746094 243.191406 C 240.957031 241.894531 240.347656 240.515625 239.917969 239.058594 L 238.601562 234.605469 C 238.46875 234.152344 238.429688 233.695312 238.476562 233.226562 C 238.527344 232.761719 238.664062 232.320312 238.890625 231.910156 C 239.113281 231.496094 239.410156 231.140625 239.773438 230.847656 C 240.140625 230.550781 240.546875 230.335938 241 230.203125 C 241.449219 230.070312 241.90625 230.03125 242.375 230.078125 C 242.84375 230.128906 243.28125 230.265625 243.695312 230.488281 C 244.109375 230.714844 244.460938 231.007812 244.757812 231.375 C 245.054688 231.738281 245.265625 232.148438 245.402344 232.597656 C 245.4375 232.726562 245.425781 232.851562 245.359375 232.96875 C 245.296875 233.089844 245.199219 233.167969 245.070312 233.207031 C 244.941406 233.246094 244.816406 233.230469 244.695312 233.167969 C 244.578125 233.105469 244.5 233.007812 244.460938 232.878906 C 244.363281 232.550781 244.207031 232.257812 243.996094 231.996094 C 243.78125 231.730469 243.523438 231.519531 243.226562 231.355469 C 242.929688 231.195312 242.609375 231.097656 242.273438 231.058594 C 241.933594 231.023438 241.605469 231.054688 241.277344 231.152344 C 240.953125 231.246094 240.660156 231.402344 240.394531 231.613281 C 240.128906 231.828125 239.917969 232.082031 239.753906 232.378906 C 239.589844 232.675781 239.492188 232.996094 239.453125 233.332031 C 239.417969 233.667969 239.445312 234 239.542969 234.328125 L 240.859375 238.78125 C 241.265625 240.15625 241.839844 241.457031 242.585938 242.683594 C 242.683594 242.84375 242.6875 243.011719 242.59375 243.175781 C 242.5 243.34375 242.359375 243.425781 242.167969 243.425781 Z M 242.167969 243.425781 " fill-opacity="1" fill-rule="nonzero"/><path fill="#1b1f3b" d="M 255.425781 249 C 255.339844 249 255.257812 248.980469 255.179688 248.933594 C 254.125 248.3125 253.199219 247.542969 252.394531 246.621094 C 251.589844 245.699219 250.949219 244.675781 250.476562 243.550781 L 247.988281 237.605469 C 247.859375 237.292969 247.671875 237.015625 247.429688 236.773438 C 247.191406 236.535156 246.910156 236.351562 246.597656 236.222656 C 246.28125 236.09375 245.957031 236.027344 245.613281 236.027344 C 245.273438 236.03125 244.949219 236.097656 244.632812 236.226562 C 244.320312 236.359375 244.042969 236.546875 243.804688 236.785156 C 243.566406 237.027344 243.378906 237.304688 243.25 237.621094 C 243.121094 237.9375 243.058594 238.261719 243.0625 238.605469 C 243.0625 238.945312 243.128906 239.269531 243.261719 239.585938 L 245.746094 245.527344 C 246.039062 246.222656 246.375 246.894531 246.761719 247.539062 C 246.828125 247.65625 246.847656 247.78125 246.8125 247.910156 C 246.78125 248.042969 246.703125 248.144531 246.585938 248.210938 C 246.472656 248.28125 246.347656 248.300781 246.214844 248.265625 C 246.085938 248.230469 245.984375 248.15625 245.914062 248.039062 C 245.507812 247.355469 245.152344 246.640625 244.84375 245.90625 L 242.355469 239.964844 C 242.175781 239.53125 242.082031 239.078125 242.082031 238.609375 C 242.078125 238.136719 242.167969 237.6875 242.347656 237.25 C 242.523438 236.816406 242.777344 236.433594 243.109375 236.097656 C 243.441406 235.765625 243.824219 235.507812 244.257812 235.328125 C 244.691406 235.144531 245.140625 235.054688 245.613281 235.050781 C 246.082031 235.050781 246.535156 235.136719 246.96875 235.316406 C 247.402344 235.496094 247.789062 235.75 248.121094 236.082031 C 248.453125 236.410156 248.710938 236.792969 248.894531 237.226562 L 251.378906 243.171875 C 252.269531 245.285156 253.703125 246.921875 255.675781 248.089844 C 255.890625 248.214844 255.964844 248.398438 255.902344 248.640625 C 255.835938 248.882812 255.675781 249 255.425781 249 Z M 255.425781 249 " fill-opacity="1" fill-rule="nonzero"/><path fill="#1b1f3b" d="M 267.066406 248.480469 C 266.976562 248.480469 266.894531 248.457031 266.816406 248.410156 C 266.402344 248.164062 266.015625 247.875 265.660156 247.550781 C 265.304688 247.230469 264.980469 246.875 264.695312 246.484375 C 264.410156 246.097656 264.164062 245.6875 263.957031 245.25 C 263.75 244.816406 263.589844 244.363281 263.472656 243.898438 C 263.355469 243.429688 263.285156 242.953125 263.261719 242.472656 C 263.238281 241.992188 263.261719 241.511719 263.335938 241.035156 C 263.40625 240.558594 263.523438 240.09375 263.683594 239.640625 C 263.847656 239.1875 264.054688 238.753906 264.300781 238.339844 C 264.371094 238.226562 264.472656 238.152344 264.601562 238.121094 C 264.734375 238.085938 264.855469 238.105469 264.972656 238.175781 C 265.089844 238.246094 265.164062 238.34375 265.195312 238.476562 C 265.230469 238.605469 265.210938 238.730469 265.140625 238.847656 C 264.925781 239.203125 264.75 239.578125 264.609375 239.972656 C 264.46875 240.367188 264.367188 240.769531 264.304688 241.179688 C 264.242188 241.59375 264.222656 242.007812 264.242188 242.425781 C 264.261719 242.84375 264.324219 243.253906 264.425781 243.660156 C 264.527344 244.0625 264.664062 244.457031 264.84375 244.832031 C 265.023438 245.210938 265.234375 245.566406 265.484375 245.902344 C 265.730469 246.238281 266.011719 246.546875 266.320312 246.828125 C 266.628906 247.105469 266.960938 247.355469 267.320312 247.570312 C 267.535156 247.699219 267.605469 247.882812 267.539062 248.121094 C 267.472656 248.359375 267.316406 248.480469 267.066406 248.480469 Z M 267.066406 248.480469 " fill-opacity="1" fill-rule="nonzero"/><g clip-path="url(#32af0e00e9)"><path fill="#ffab02" d="M 464.210938 332.296875 C 464.949219 329.015625 464.835938 325.761719 463.871094 322.539062 L 440.488281 244.164062 C 437.945312 235.277344 428.101562 227.296875 419.730469 226.171875 L 387.386719 222.324219 L 374.40625 223.460938 L 374.398438 223.460938 L 361.421875 224.597656 L 337 233.160156 C 329.699219 234.660156 322.988281 243.15625 320.863281 250.09375 L 309.105469 286.457031 L 290.992188 255.109375 L 263.84375 268.984375 L 296.445312 341.789062 L 296.453125 341.789062 C 296.96875 342.949219 297.597656 344.050781 298.332031 345.089844 C 299.070312 346.128906 299.898438 347.085938 300.824219 347.960938 C 301.75 348.835938 302.75 349.609375 303.828125 350.285156 C 304.90625 350.964844 306.042969 351.527344 307.230469 351.980469 C 307.804688 352.199219 308.386719 352.390625 308.980469 352.554688 C 309.570312 352.71875 310.167969 352.851562 310.773438 352.957031 C 311.378906 353.066406 311.988281 353.140625 312.597656 353.191406 C 313.210938 353.238281 313.824219 353.257812 314.4375 353.25 C 315.050781 353.238281 315.664062 353.203125 316.273438 353.132812 C 316.882812 353.066406 317.488281 352.96875 318.089844 352.84375 C 318.691406 352.71875 319.285156 352.566406 319.871094 352.382812 C 320.457031 352.203125 321.03125 351.992188 321.597656 351.757812 C 322.164062 351.519531 322.71875 351.257812 323.261719 350.96875 C 323.800781 350.679688 324.328125 350.363281 324.839844 350.027344 C 325.351562 349.6875 325.847656 349.324219 326.324219 348.9375 C 326.800781 348.550781 327.257812 348.144531 327.695312 347.714844 C 328.136719 347.285156 328.550781 346.835938 328.949219 346.367188 C 329.34375 345.898438 329.714844 345.410156 330.066406 344.90625 C 330.414062 344.402344 330.738281 343.878906 331.039062 343.34375 C 331.339844 342.808594 331.613281 342.261719 331.859375 341.699219 L 342.050781 318.609375 L 347.621094 356.921875 L 458.722656 356.921875 L 464.128906 332.664062 C 464.15625 332.550781 464.179688 332.4375 464.207031 332.324219 Z M 464.210938 332.296875 " fill-opacity="1" fill-rule="nonzero"/></g><path fill="#1b1f3b" d="M 342.992188 325.582031 C 342.871094 325.582031 342.765625 325.542969 342.671875 325.460938 C 342.582031 325.382812 342.527344 325.28125 342.507812 325.164062 L 334.613281 270.851562 C 334.59375 270.714844 334.621094 270.59375 334.703125 270.484375 C 334.785156 270.375 334.894531 270.308594 335.027344 270.289062 C 335.164062 270.269531 335.285156 270.300781 335.394531 270.382812 C 335.5 270.464844 335.566406 270.574219 335.582031 270.707031 L 343.480469 325.023438 C 343.5 325.167969 343.464844 325.300781 343.367188 325.414062 C 343.265625 325.527344 343.144531 325.582031 342.992188 325.582031 Z M 342.992188 325.582031 " fill-opacity="1" fill-rule="nonzero"/><g clip-path="url(#6530c144a4)"><path fill="#1b1f3b" d="M 422.429688 357.410156 C 422.28125 357.410156 422.160156 357.355469 422.0625 357.246094 C 421.964844 357.136719 421.921875 357.011719 421.941406 356.863281 L 424.972656 330.914062 L 403.320312 278.667969 C 403.269531 278.542969 403.269531 278.414062 403.320312 278.289062 C 403.371094 278.164062 403.460938 278.078125 403.585938 278.023438 C 403.710938 277.972656 403.835938 277.972656 403.960938 278.023438 C 404.085938 278.078125 404.175781 278.164062 404.226562 278.289062 L 425.925781 330.65625 C 425.957031 330.734375 425.96875 330.816406 425.960938 330.902344 L 422.914062 356.976562 C 422.898438 357.101562 422.847656 357.203125 422.753906 357.285156 C 422.660156 357.371094 422.550781 357.410156 422.429688 357.410156 Z M 422.429688 357.410156 " fill-opacity="1" fill-rule="nonzero"/></g><path fill="#1b1f3b" d="M 353.1875 155.039062 C 353.1875 155.039062 345.53125 151.910156 340.074219 162.578125 C 334.574219 173.328125 339.644531 190.78125 345.128906 193.242188 C 350.613281 195.699219 384.457031 204.625 384.457031 204.625 C 384.457031 204.625 400.390625 201.863281 401.019531 178.578125 C 401.648438 155.292969 388.289062 147.84375 377.128906 145.054688 C 368.503906 142.898438 355.695312 145.277344 353.1875 155.039062 Z M 353.1875 155.039062 " fill-opacity="1" fill-rule="nonzero"/><path fill="#ffbc96" d="M 382.066406 188.804688 L 387.382812 222.324219 C 387.382812 222.324219 380.277344 235.023438 366.195312 236.253906 C 357.671875 237 361.421875 224.597656 361.421875 224.597656 L 360.816406 189.167969 Z M 382.066406 188.804688 " fill-opacity="1" fill-rule="nonzero"/><path fill="#1b1f3b" d="M 360.816406 189.167969 L 378.199219 188.871094 L 379.109375 199.269531 C 380.074219 210.285156 373.148438 220.304688 361.398438 221.871094 Z M 360.816406 189.167969 " fill-opacity="1" fill-rule="nonzero"/><path fill="#ffbc96" d="M 342.234375 195.945312 L 342.398438 174.691406 C 342.402344 174.023438 342.441406 173.355469 342.511719 172.6875 C 342.582031 172.023438 342.683594 171.363281 342.820312 170.707031 C 342.957031 170.050781 343.125 169.402344 343.324219 168.761719 C 343.523438 168.125 343.753906 167.496094 344.015625 166.878906 C 344.273438 166.261719 344.566406 165.660156 344.886719 165.074219 C 345.207031 164.484375 345.554688 163.914062 345.929688 163.359375 C 346.304688 162.804688 346.710938 162.269531 347.136719 161.757812 C 347.566406 161.242188 348.019531 160.75 348.496094 160.28125 C 348.972656 159.8125 349.472656 159.367188 349.992188 158.945312 C 350.515625 158.523438 351.054688 158.128906 351.613281 157.761719 C 352.175781 157.394531 352.75 157.054688 353.34375 156.742188 C 353.9375 156.433594 354.542969 156.152344 355.164062 155.898438 C 355.785156 155.648438 356.414062 155.429688 357.058594 155.238281 C 357.699219 155.050781 358.351562 154.890625 359.007812 154.765625 C 359.664062 154.640625 360.328125 154.546875 360.996094 154.488281 C 361.660156 154.425781 362.328125 154.398438 363 154.402344 C 363.667969 154.410156 364.335938 154.445312 365.003906 154.519531 C 365.667969 154.589844 366.328125 154.691406 366.984375 154.828125 C 367.640625 154.964844 368.289062 155.128906 368.925781 155.332031 C 369.566406 155.53125 370.195312 155.757812 370.8125 156.019531 C 371.429688 156.28125 372.03125 156.570312 372.617188 156.890625 C 373.207031 157.210938 373.777344 157.5625 374.332031 157.9375 C 374.886719 158.3125 375.417969 158.714844 375.933594 159.144531 C 376.449219 159.574219 376.941406 160.027344 377.410156 160.503906 C 377.878906 160.980469 378.324219 161.480469 378.746094 162 C 379.167969 162.519531 379.5625 163.0625 379.929688 163.621094 C 380.296875 164.179688 380.636719 164.757812 380.945312 165.351562 C 381.257812 165.941406 381.539062 166.550781 381.789062 167.171875 C 382.042969 167.789062 382.261719 168.421875 382.453125 169.066406 C 382.640625 169.707031 382.796875 170.355469 382.925781 171.015625 C 383.050781 171.671875 383.144531 172.335938 383.203125 173 C 383.265625 173.667969 383.292969 174.335938 383.285156 175.007812 L 383.121094 196.257812 C 383.117188 196.929688 383.078125 197.597656 383.007812 198.261719 C 382.9375 198.925781 382.835938 199.589844 382.699219 200.242188 C 382.5625 200.898438 382.394531 201.546875 382.195312 202.1875 C 381.996094 202.824219 381.765625 203.453125 381.507812 204.070312 C 381.246094 204.6875 380.953125 205.289062 380.632812 205.878906 C 380.3125 206.464844 379.964844 207.035156 379.589844 207.589844 C 379.214844 208.144531 378.8125 208.679688 378.382812 209.191406 C 377.953125 209.707031 377.5 210.199219 377.023438 210.667969 C 376.546875 211.140625 376.046875 211.585938 375.527344 212.003906 C 375.003906 212.425781 374.464844 212.820312 373.90625 213.1875 C 373.347656 213.554688 372.769531 213.894531 372.175781 214.207031 C 371.585938 214.515625 370.976562 214.796875 370.355469 215.050781 C 369.734375 215.300781 369.105469 215.523438 368.460938 215.710938 C 367.820312 215.902344 367.171875 216.058594 366.511719 216.183594 C 365.855469 216.308594 365.191406 216.402344 364.527344 216.460938 C 363.859375 216.523438 363.191406 216.550781 362.519531 216.546875 C 361.851562 216.539062 361.183594 216.503906 360.519531 216.433594 C 359.851562 216.359375 359.191406 216.257812 358.535156 216.121094 C 357.878906 215.988281 357.230469 215.820312 356.59375 215.621094 C 355.953125 215.421875 355.324219 215.191406 354.710938 214.929688 C 354.09375 214.667969 353.488281 214.378906 352.902344 214.058594 C 352.3125 213.738281 351.742188 213.390625 351.1875 213.011719 C 350.636719 212.636719 350.101562 212.234375 349.585938 211.804688 C 349.074219 211.375 348.582031 210.921875 348.109375 210.445312 C 347.640625 209.96875 347.195312 209.46875 346.773438 208.949219 C 346.355469 208.429688 345.960938 207.886719 345.59375 207.328125 C 345.222656 206.769531 344.882812 206.191406 344.574219 205.601562 C 344.261719 205.007812 343.980469 204.398438 343.730469 203.78125 C 343.476562 203.160156 343.257812 202.527344 343.070312 201.886719 C 342.878906 201.242188 342.722656 200.59375 342.597656 199.933594 C 342.46875 199.277344 342.378906 198.617188 342.316406 197.949219 C 342.257812 197.28125 342.230469 196.613281 342.234375 195.945312 Z M 342.234375 195.945312 " fill-opacity="1" fill-rule="nonzero"/><path fill="#1b1f3b" d="M 355.671875 198.382812 C 355.65625 198.382812 355.640625 198.382812 355.625 198.382812 C 351.308594 197.992188 350.324219 194.316406 350.316406 194.28125 C 350.269531 194.101562 350.3125 193.945312 350.441406 193.8125 C 353.925781 190.332031 354.070312 184.203125 354.074219 184.140625 C 354.074219 184.007812 354.125 183.894531 354.21875 183.800781 C 354.316406 183.707031 354.429688 183.660156 354.5625 183.65625 L 354.570312 183.660156 C 354.707031 183.660156 354.820312 183.710938 354.914062 183.808594 C 355.011719 183.90625 355.054688 184.019531 355.054688 184.15625 C 355.050781 184.417969 354.910156 190.503906 351.347656 194.289062 C 351.625 195.027344 352.679688 197.132812 355.714844 197.40625 C 355.84375 197.417969 355.953125 197.472656 356.039062 197.570312 C 356.125 197.667969 356.167969 197.785156 356.160156 197.914062 C 356.15625 198.046875 356.105469 198.15625 356.011719 198.246094 C 355.914062 198.339844 355.804688 198.382812 355.671875 198.382812 Z M 355.671875 198.382812 " fill-opacity="1" fill-rule="nonzero"/><path fill="#1b1f3b" d="M 354.140625 164.253906 C 354.140625 164.253906 342.238281 164.992188 342.347656 180.894531 L 339.722656 180.875 C 339.722656 180.875 335.101562 153.621094 364.757812 153.847656 C 394.414062 154.074219 383.566406 190.347656 383.566406 190.347656 L 380.921875 187.882812 C 380.921875 187.882812 381.753906 178.835938 376.167969 175.296875 C 370.414062 171.648438 367.605469 173.238281 360.828125 170.078125 C 354.835938 167.28125 354.140625 164.253906 354.140625 164.253906 Z M 354.140625 164.253906 " fill-opacity="1" fill-rule="nonzero"/><path fill="#1b1f3b" d="M 410.3125 155.179688 C 410.3125 156.164062 410.21875 157.132812 410.027344 158.097656 C 409.835938 159.058594 409.550781 159.992188 409.175781 160.902344 C 408.800781 161.808594 408.339844 162.667969 407.792969 163.484375 C 407.25 164.300781 406.628906 165.054688 405.9375 165.75 C 405.242188 166.445312 404.488281 167.0625 403.671875 167.609375 C 402.855469 168.152344 401.992188 168.613281 401.085938 168.988281 C 400.179688 169.367188 399.246094 169.648438 398.28125 169.839844 C 397.320312 170.03125 396.347656 170.128906 395.367188 170.128906 C 394.386719 170.128906 393.414062 170.03125 392.449219 169.839844 C 391.488281 169.648438 390.554688 169.367188 389.648438 168.988281 C 388.738281 168.613281 387.878906 168.152344 387.0625 167.609375 C 386.246094 167.0625 385.492188 166.445312 384.796875 165.75 C 384.105469 165.054688 383.484375 164.300781 382.9375 163.484375 C 382.394531 162.667969 381.933594 161.808594 381.558594 160.902344 C 381.183594 159.992188 380.898438 159.058594 380.707031 158.097656 C 380.515625 157.132812 380.417969 156.164062 380.417969 155.179688 C 380.417969 154.199219 380.515625 153.226562 380.707031 152.265625 C 380.898438 151.300781 381.183594 150.367188 381.558594 149.460938 C 381.933594 148.554688 382.394531 147.691406 382.9375 146.875 C 383.484375 146.0625 384.105469 145.304688 384.796875 144.613281 C 385.492188 143.917969 386.246094 143.296875 387.0625 142.753906 C 387.878906 142.207031 388.738281 141.746094 389.648438 141.371094 C 390.554688 140.996094 391.488281 140.710938 392.449219 140.519531 C 393.414062 140.328125 394.386719 140.234375 395.367188 140.234375 C 396.347656 140.234375 397.320312 140.328125 398.28125 140.519531 C 399.246094 140.710938 400.179688 140.996094 401.085938 141.371094 C 401.992188 141.746094 402.855469 142.207031 403.671875 142.753906 C 404.488281 143.296875 405.242188 143.917969 405.9375 144.613281 C 406.628906 145.304688 407.25 146.0625 407.792969 146.875 C 408.339844 147.691406 408.800781 148.554688 409.175781 149.460938 C 409.550781 150.367188 409.835938 151.300781 410.027344 152.265625 C 410.21875 153.226562 410.3125 154.199219 410.3125 155.179688 Z M 410.3125 155.179688 " fill-opacity="1" fill-rule="nonzero"/><path fill="#ffbc96" d="M 380.933594 187.839844 L 380.855469 197.820312 C 380.855469 197.820312 383.054688 199.417969 386.871094 199.488281 C 390.683594 199.558594 395.054688 195.980469 395.101562 189.53125 C 395.152344 183.078125 391.5625 180.25 388.640625 180.230469 C 382.179688 180.179688 380.933594 187.839844 380.933594 187.839844 Z M 380.933594 187.839844 " fill-opacity="1" fill-rule="nonzero"/><path fill="#1b1f3b" d="M 391.003906 192.566406 C 390.863281 192.566406 390.742188 192.511719 390.644531 192.410156 C 390.039062 191.730469 389.308594 191.246094 388.445312 190.957031 C 387.582031 190.671875 386.707031 190.617188 385.816406 190.792969 C 385.742188 190.8125 385.667969 190.816406 385.59375 190.800781 C 385.515625 190.785156 385.449219 190.75 385.390625 190.703125 C 385.328125 190.65625 385.28125 190.597656 385.25 190.53125 C 385.21875 190.460938 385.203125 190.386719 385.203125 190.3125 C 385.265625 186.296875 389.800781 185.167969 389.84375 185.160156 C 389.976562 185.125 390.101562 185.148438 390.214844 185.21875 C 390.332031 185.289062 390.40625 185.390625 390.4375 185.519531 C 390.46875 185.652344 390.449219 185.777344 390.378906 185.890625 C 390.304688 186.007812 390.203125 186.082031 390.074219 186.113281 C 389.925781 186.148438 386.6875 186.964844 386.234375 189.738281 C 387.199219 189.648438 388.132812 189.777344 389.035156 190.132812 C 389.941406 190.484375 390.714844 191.019531 391.363281 191.742188 C 391.507812 191.898438 391.539062 192.074219 391.453125 192.269531 C 391.367188 192.464844 391.21875 192.566406 391.003906 192.566406 Z M 391.003906 192.566406 " fill-opacity="1" fill-rule="nonzero"/></svg>