<svg xmlns="http://www.w3.org/2000/svg" xmlns:xlink="http://www.w3.org/1999/xlink" width="674" zoomAndPan="magnify" viewBox="0 0 505.5 473.999983" height="632" preserveAspectRatio="xMidYMid meet" version="1.0"><defs><clipPath id="a168a62d1b"><path d="M 170 377 L 186 377 L 186 398.507812 L 170 398.507812 Z M 170 377 " clip-rule="nonzero"/></clipPath><clipPath id="07cd49963a"><path d="M 91.625 292 L 136 292 L 136 346 L 91.625 346 Z M 91.625 292 " clip-rule="nonzero"/></clipPath><clipPath id="ff5f17dc3e"><path d="M 162 75 L 370.351562 75 L 370.351562 354 L 162 354 Z M 162 75 " clip-rule="nonzero"/></clipPath></defs><path fill="#a3e635" d="M 168.714844 27.136719 C 123.613281 27 88.945312 45.777344 64.710938 83.472656 C 64.6875 83.503906 64.671875 83.542969 64.664062 83.582031 L 64.644531 83.582031 C 60.503906 90.535156 57.59375 99.214844 55.917969 109.617188 C 55.90625 109.683594 55.917969 109.753906 55.945312 109.8125 L 55.925781 109.8125 C 53.871094 165.972656 51.015625 197.355469 47.355469 203.96875 C 47.324219 204.027344 47.308594 204.09375 47.316406 204.15625 L 47.296875 204.15625 C 20.902344 270.886719 7.1875 307.976562 6.15625 315.4375 C 6.144531 315.527344 6.171875 315.621094 6.234375 315.691406 L 6.238281 315.695312 C 6.519531 316.277344 6.605469 316.945312 6.46875 317.601562 C 2.359375 337.304688 3.152344 354.996094 8.851562 370.671875 C 8.863281 370.707031 8.882812 370.742188 8.90625 370.769531 L 8.886719 370.769531 C 22.351562 406.835938 48.167969 425.160156 86.34375 425.742188 L 86.347656 425.742188 C 86.363281 425.742188 86.375 425.738281 86.390625 425.738281 L 86.378906 425.738281 C 96.171875 424.832031 106.480469 422.46875 117.304688 418.648438 L 117.289062 418.648438 L 117.402344 418.617188 C 181.839844 387.792969 222.464844 372.125 239.273438 371.613281 L 239.285156 371.613281 L 239.304688 371.609375 L 239.433594 371.574219 C 242.492188 369.964844 250.253906 369.179688 262.726562 369.21875 C 285.289062 369.289062 323.148438 372.070312 376.308594 377.5625 L 376.367188 377.5625 L 376.390625 377.566406 C 377.027344 377.574219 377.664062 377.582031 378.304688 377.582031 C 388.796875 377.613281 399.300781 376.402344 409.816406 373.941406 L 409.824219 373.9375 L 409.828125 373.941406 L 409.855469 373.925781 L 409.871094 373.929688 C 434.128906 367.683594 452.3125 353.992188 464.425781 332.855469 L 464.425781 332.859375 L 464.472656 332.777344 L 464.472656 332.78125 C 477.246094 311.894531 479.878906 289.113281 472.371094 264.429688 L 472.34375 264.429688 C 472.351562 264.382812 472.34375 264.335938 472.328125 264.292969 C 469.882812 257.152344 466.09375 248.960938 460.960938 239.71875 L 460.9375 239.71875 C 460.933594 239.65625 460.914062 239.597656 460.878906 239.546875 C 435.800781 202.800781 420.230469 177.179688 414.164062 162.6875 L 414.140625 162.6875 C 414.152344 162.609375 414.132812 162.53125 414.085938 162.460938 C 409.332031 155.511719 400.140625 127.640625 386.515625 78.84375 L 386.53125 78.847656 C 386.527344 78.832031 386.527344 78.824219 386.519531 78.8125 C 381.375 65.636719 375.363281 55.003906 368.488281 46.914062 L 368.414062 46.824219 C 361.773438 38.421875 351.886719 33.585938 338.75 32.3125 C 338.210938 32.261719 337.707031 32.066406 337.28125 31.761719 L 337.261719 31.765625 C 337.210938 31.671875 337.121094 31.609375 337.011719 31.597656 C 336.304688 31.515625 335.289062 31.472656 333.972656 31.46875 C 323.863281 31.4375 295.566406 33.695312 249.089844 38.238281 L 248.90625 38.25 L 248.902344 38.25 C 248.144531 38.28125 247.351562 38.292969 246.523438 38.289062 C 236.710938 38.257812 222.097656 36.011719 202.683594 31.539062 C 201.941406 31.371094 201.328125 30.9375 200.914062 30.367188 L 200.894531 30.367188 C 200.878906 30.226562 200.773438 30.109375 200.628906 30.085938 C 189.46875 28.152344 178.828125 27.167969 168.714844 27.136719 Z M 168.714844 27.136719 " fill-opacity="1" fill-rule="nonzero"/><path fill="#000000" d="M 158.179688 43.511719 C 96.15625 48.613281 56.78125 77.277344 40.066406 129.503906 L 40.09375 129.410156 C 37.867188 137.15625 37.292969 146.265625 38.367188 156.738281 L 38.300781 156.335938 C 50.917969 211.390625 56.257812 242.46875 54.332031 249.570312 L 54.425781 249.082031 C 45.871094 323.085938 42.273438 362.558594 43.636719 367.503906 C 43.347656 366.464844 42.550781 365.871094 41.238281 365.71875 C 40.5 365.632812 39.832031 365.792969 39.230469 366.191406 C 40.214844 365.535156 41.476562 365.457031 42.535156 365.988281 C 43.59375 366.519531 44.285156 367.574219 44.351562 368.757812 C 45.46875 388.640625 50.75 405.335938 60.199219 418.847656 L 60.183594 418.828125 C 82.304688 449.949219 111.722656 460.863281 148.4375 451.574219 L 148.109375 451.675781 C 157.375 448.269531 166.761719 443.292969 176.273438 436.742188 L 176 436.953125 C 231.144531 389.757812 266.476562 364.167969 282 360.1875 L 279.996094 361.671875 C 280.148438 361.425781 280.320312 361.183594 280.515625 360.949219 C 286.027344 354.324219 330.519531 344.335938 414.003906 330.980469 L 413.730469 331.035156 C 424.511719 328.367188 434.941406 324.332031 445.019531 318.929688 L 444.960938 318.960938 C 466.554688 306.792969 480.433594 289.0625 486.597656 265.761719 L 486.625 265.671875 C 493.5 242.394531 490.144531 219.902344 476.558594 198.1875 L 476.617188 198.277344 C 472.390625 191.992188 466.5625 185.015625 459.132812 177.359375 L 459.347656 177.5625 C 425.398438 148.367188 403.753906 127.621094 394.410156 115.328125 L 394.953125 115.890625 C 388.742188 110.84375 372.617188 86.296875 346.585938 42.253906 L 346.765625 42.53125 C 338.472656 31.25 330.003906 22.625 321.367188 16.65625 L 321.269531 16.585938 C 312.824219 10.289062 302.183594 8.210938 289.351562 10.347656 C 288.183594 10.542969 287 10.097656 286.253906 9.179688 C 285.503906 8.261719 285.300781 7.015625 285.726562 5.910156 C 284.992188 7.824219 285.578125 9.148438 287.484375 9.878906 C 287.769531 9.988281 288.015625 10.042969 288.21875 10.039062 C 284.066406 10.09375 256.324219 19.757812 204.996094 39.023438 L 204.808594 39.085938 C 195.527344 41.960938 180.15625 43.777344 158.691406 44.535156 C 156.867188 44.601562 155.339844 43.175781 155.273438 41.351562 C 155.210938 39.53125 156.636719 38 158.457031 37.9375 C 179.335938 37.199219 194.132812 35.476562 202.855469 32.777344 L 202.671875 32.839844 C 254.722656 13.300781 283.210938 3.5 288.132812 3.433594 C 288.773438 3.425781 289.347656 3.519531 289.851562 3.710938 C 292.054688 4.558594 292.734375 6.078125 291.894531 8.273438 L 288.265625 3.832031 C 302.949219 1.386719 315.265625 3.871094 325.21875 11.289062 L 325.121094 11.222656 C 334.367188 17.609375 343.355469 26.742188 352.089844 38.617188 C 352.152344 38.707031 352.214844 38.796875 352.269531 38.894531 C 377.902344 82.257812 393.519531 106.214844 399.121094 110.765625 C 399.324219 110.929688 399.507812 111.121094 399.667969 111.328125 C 408.730469 123.253906 430.058594 143.660156 463.65625 172.554688 C 463.730469 172.621094 463.800781 172.6875 463.871094 172.761719 C 471.578125 180.699219 477.652344 187.980469 482.097656 194.59375 L 482.15625 194.683594 C 496.796875 218.078125 500.394531 242.363281 492.957031 267.542969 L 492.984375 267.453125 C 486.34375 292.546875 471.414062 311.636719 448.203125 324.714844 L 448.140625 324.75 C 437.574219 330.414062 426.636719 334.644531 415.320312 337.445312 C 415.226562 337.46875 415.136719 337.484375 415.046875 337.5 C 333.195312 350.597656 290.046875 359.820312 285.59375 365.171875 C 285.605469 365.15625 285.625 365.132812 285.644531 365.101562 C 285.195312 365.839844 284.476562 366.371094 283.640625 366.585938 C 269.109375 370.3125 234.664062 395.441406 180.296875 441.972656 C 180.207031 442.046875 180.117188 442.117188 180.019531 442.183594 C 170.050781 449.046875 160.171875 454.277344 150.386719 457.875 C 150.28125 457.914062 150.171875 457.949219 150.058594 457.976562 C 110.421875 468.007812 78.667969 456.234375 54.800781 422.65625 L 54.785156 422.632812 C 44.621094 408.09375 38.945312 390.257812 37.757812 369.125 L 42.882812 371.691406 C 42.140625 372.183594 41.339844 372.378906 40.480469 372.28125 C 38.839844 372.089844 37.769531 371.082031 37.265625 369.253906 C 35.679688 363.484375 39.210938 323.175781 47.863281 248.324219 C 47.882812 248.160156 47.914062 248 47.957031 247.839844 C 49.597656 241.800781 44.230469 211.792969 31.863281 157.8125 C 31.832031 157.679688 31.808594 157.542969 31.796875 157.410156 C 30.636719 146.089844 31.285156 136.148438 33.746094 127.585938 L 33.773438 127.492188 C 51.390625 72.457031 92.679688 42.269531 157.636719 36.929688 C 159.457031 36.78125 161.050781 38.132812 161.199219 39.949219 C 161.351562 41.769531 159.996094 43.363281 158.179688 43.511719 Z M 158.179688 43.511719 " fill-opacity="1" fill-rule="nonzero"/><path fill="#3e8ffa" d="M 243.488281 326.585938 C 233.921875 326.199219 224.40625 325.40625 215.039062 324.203125 C 214.4375 325.980469 214.804688 327.792969 216.117188 329.222656 L 219.351562 332.734375 C 222.667969 336.324219 223.9375 341.113281 222.839844 345.875 C 221.742188 350.644531 218.503906 354.394531 213.949219 356.167969 L 209.496094 357.914062 C 207.707031 358.617188 206.59375 360.0625 206.351562 361.898438 C 215.355469 364.914062 224.296875 368.355469 233.074219 372.175781 C 231.675781 365.425781 231.859375 357.152344 233.878906 348.367188 C 235.917969 339.535156 239.328125 332.035156 243.488281 326.59375 Z M 243.488281 326.585938 " fill-opacity="1" fill-rule="nonzero"/><path fill="#000000" d="M 282.277344 306.84375 L 282.277344 245.773438 L 207.765625 271.996094 C 207.25 272.183594 206.714844 272.269531 206.183594 272.269531 C 205.652344 272.269531 205.121094 272.183594 204.613281 271.996094 L 130.070312 245.765625 L 130.070312 291.257812 C 132.613281 292.335938 135.171875 293.375 137.71875 294.382812 C 138.890625 292.21875 140.613281 290.367188 142.8125 289.003906 C 146.914062 286.410156 151.855469 286.027344 156.351562 287.976562 L 160.789062 289.898438 C 162.691406 290.726562 164.667969 290.394531 166.210938 288.988281 L 169.875 285.640625 C 173.464844 282.386719 178.21875 281.144531 182.9375 282.214844 C 187.675781 283.3125 191.40625 286.515625 193.207031 291.011719 L 195.046875 295.601562 C 195.828125 297.550781 197.453125 298.707031 199.519531 298.785156 L 204.398438 298.992188 C 209.257812 299.1875 213.53125 301.679688 216.125 305.824219 C 217.890625 308.644531 218.625 311.847656 218.28125 315.03125 C 230.855469 316.558594 243.695312 317.34375 256.539062 317.363281 C 257.929688 317.105469 259.332031 317.0625 260.738281 317.257812 C 260.933594 317.285156 261.132812 317.328125 261.320312 317.378906 C 261.484375 317.414062 261.644531 317.429688 261.800781 317.464844 C 264.1875 318.011719 266.304688 319.203125 268.121094 320.96875 C 274.449219 318.066406 282.285156 313.191406 282.285156 306.84375 Z M 282.277344 306.84375 " fill-opacity="1" fill-rule="nonzero"/><path fill="#ffab02" d="M 259.691406 326.738281 C 259.195312 326.628906 258.683594 326.636719 258.148438 326.757812 C 258.101562 326.757812 258.058594 326.773438 258.015625 326.78125 C 253.441406 327.894531 246.390625 336.402344 243.144531 350.496094 C 239.804688 365.023438 242.683594 375.507812 246.261719 378.375 C 246.273438 378.375 246.296875 378.394531 246.3125 378.410156 C 246.410156 378.488281 246.511719 378.5625 246.621094 378.625 C 246.65625 378.65625 246.683594 378.667969 246.714844 378.691406 C 246.792969 378.746094 246.878906 378.792969 246.964844 378.835938 C 247 378.855469 247.027344 378.871094 247.070312 378.882812 C 247.28125 378.984375 247.503906 379.070312 247.738281 379.121094 C 249.792969 379.59375 252.875 377.699219 255.746094 374.179688 C 259.445312 369.640625 262.542969 362.769531 264.242188 355.34375 C 265.945312 347.914062 266.15625 340.394531 264.804688 334.695312 C 263.753906 330.277344 261.800781 327.226562 259.699219 326.742188 Z M 259.691406 326.738281 " fill-opacity="1" fill-rule="nonzero"/><g clip-path="url(#a168a62d1b)"><path fill="#fe3d50" d="M 181.320312 378.023438 C 179.402344 377.195312 177.40625 377.527344 175.855469 378.949219 L 172.328125 382.210938 C 171.726562 382.761719 171.085938 383.25 170.417969 383.6875 L 170.949219 398.269531 L 175.339844 394.460938 C 177.019531 393.003906 179.503906 392.910156 181.292969 394.246094 L 185.945312 397.722656 L 185.292969 379.773438 L 181.308594 378.03125 Z M 181.320312 378.023438 " fill-opacity="1" fill-rule="nonzero"/></g><g clip-path="url(#07cd49963a)"><path fill="#3e8ffa" d="M 128.117188 311.820312 L 132.605469 310.054688 C 134.539062 309.292969 135.707031 307.640625 135.789062 305.542969 L 135.851562 303.871094 C 131.714844 302.261719 127.585938 300.566406 123.472656 298.785156 C 123.472656 298.785156 123.457031 298.785156 123.449219 298.769531 C 118.664062 296.703125 113.90625 294.519531 109.214844 292.257812 C 107.140625 292.0625 104.265625 293.945312 101.582031 297.246094 C 97.882812 301.785156 94.777344 308.652344 93.078125 316.078125 C 91.375 323.503906 91.167969 331.03125 92.515625 336.734375 C 93.5 340.878906 95.28125 343.816406 97.234375 344.570312 L 97.265625 344.570312 C 107.097656 344.570312 116.855469 344.957031 126.316406 345.710938 L 126.953125 344.238281 C 127.792969 342.3125 127.464844 340.316406 126.027344 338.765625 L 122.78125 335.246094 C 119.476562 331.691406 118.191406 326.910156 119.261719 322.148438 C 120.359375 317.378906 123.585938 313.621094 128.101562 311.828125 Z M 128.117188 311.820312 " fill-opacity="1" fill-rule="nonzero"/></g><path fill="#fe3d50" d="M 148.910156 376.832031 L 147.136719 372.347656 C 146.367188 370.402344 144.730469 369.238281 142.640625 369.160156 L 138.300781 368.980469 L 129.890625 384.851562 L 135.585938 383.753906 C 137.785156 383.332031 139.976562 384.492188 140.859375 386.546875 L 143.140625 391.871094 L 149.972656 378.984375 C 149.570312 378.308594 149.210938 377.59375 148.917969 376.835938 C 148.917969 376.835938 148.917969 376.835938 148.917969 376.824219 Z M 148.910156 376.832031 " fill-opacity="1" fill-rule="nonzero"/><path fill="#fe3d50" d="M 182.046875 318.535156 C 180.042969 317.113281 177.765625 316.085938 175.304688 315.519531 C 173.878906 315.195312 172.457031 315.03125 171.035156 315.03125 C 167.523438 315.03125 164.070312 316.015625 161.023438 317.929688 C 156.746094 320.609375 153.765625 324.804688 152.636719 329.730469 C 151.5 334.65625 152.355469 339.730469 155.042969 344.015625 C 157.722656 348.296875 161.914062 351.285156 166.851562 352.410156 C 171.769531 353.539062 176.839844 352.683594 181.128906 350 C 185.402344 347.3125 188.386719 343.117188 189.515625 338.183594 C 190.652344 333.257812 189.796875 328.1875 187.109375 323.90625 C 185.773438 321.757812 184.050781 319.949219 182.054688 318.527344 Z M 182.046875 318.535156 " fill-opacity="1" fill-rule="nonzero"/><path fill="#ffab02" d="M 213.582031 343.734375 C 213.976562 342.011719 213.566406 340.476562 212.367188 339.175781 L 209.121094 335.65625 C 205.164062 331.332031 204.160156 325.335938 206.480469 319.976562 L 208.40625 315.5625 C 209.109375 313.945312 208.992188 312.359375 208.058594 310.863281 C 207.117188 309.363281 205.753906 308.574219 203.988281 308.496094 L 199.125 308.285156 C 193.324219 308.054688 188.375 304.550781 186.210938 299.136719 L 184.375 294.554688 C 183.710938 292.910156 182.511719 291.882812 180.804688 291.488281 C 179.101562 291.101562 177.558594 291.5 176.257812 292.6875 L 172.59375 296.027344 C 168.277344 299.941406 162.296875 300.933594 156.988281 298.617188 L 152.558594 296.703125 C 150.921875 295.996094 149.347656 296.113281 147.867188 297.046875 C 146.339844 298 145.546875 299.367188 145.46875 301.132812 L 145.28125 305.921875 C 145.058594 311.769531 141.535156 316.746094 136.082031 318.902344 L 131.609375 320.660156 C 129.976562 321.308594 128.9375 322.519531 128.542969 324.25 C 128.152344 325.960938 128.5625 327.496094 129.753906 328.777344 L 133.015625 332.300781 C 137 336.625 138.019531 342.644531 135.671875 348.015625 L 133.769531 352.398438 C 133.074219 354.011719 133.195312 355.59375 134.136719 357.101562 C 135.078125 358.59375 136.457031 359.398438 138.222656 359.472656 L 143.011719 359.664062 C 148.851562 359.886719 153.820312 363.414062 155.976562 368.859375 L 157.742188 373.339844 C 158.402344 374.992188 159.609375 376.027344 161.328125 376.429688 C 163.042969 376.832031 164.582031 376.414062 165.878906 375.222656 L 169.414062 371.945312 C 173.738281 367.996094 179.742188 366.992188 185.105469 369.304688 L 189.515625 371.234375 C 191.132812 371.933594 192.710938 371.816406 194.207031 370.882812 C 195.714844 369.949219 196.511719 368.570312 196.597656 366.789062 L 196.785156 362.027344 C 197.015625 356.195312 200.546875 351.21875 206 349.066406 L 210.480469 347.304688 C 212.132812 346.660156 213.167969 345.46875 213.566406 343.734375 Z M 198.773438 340.308594 C 197.078125 347.714844 192.597656 354.011719 186.167969 358.058594 C 181.585938 360.929688 176.402344 362.417969 171.128906 362.417969 C 168.996094 362.417969 166.855469 362.171875 164.722656 361.683594 C 157.320312 359.988281 151.019531 355.5 146.984375 349.066406 C 142.960938 342.621094 141.675781 335.011719 143.371094 327.613281 C 145.066406 320.214844 149.546875 313.917969 155.976562 309.878906 C 162.410156 305.851562 170.03125 304.566406 177.429688 306.261719 C 184.832031 307.957031 191.132812 312.4375 195.167969 318.863281 C 199.191406 325.300781 200.476562 332.914062 198.78125 340.316406 Z M 198.773438 340.308594 " fill-opacity="1" fill-rule="nonzero"/><path fill="#0003ff" d="M 339.332031 106.292969 L 363.835938 106.292969 L 339.332031 81.796875 Z M 339.332031 106.292969 " fill-opacity="1" fill-rule="nonzero"/><g clip-path="url(#ff5f17dc3e)"><path fill="#0003ff" d="M 329.828125 111.054688 L 329.828125 75.074219 L 166.589844 75.074219 C 164.488281 75.074219 162.777344 76.785156 162.777344 78.878906 L 162.777344 188.589844 L 204.613281 173.875 C 205.632812 173.515625 206.746094 173.515625 207.765625 173.875 L 334.460938 218.453125 C 336.363281 219.121094 337.636719 220.917969 337.636719 222.9375 C 337.636719 224.953125 336.359375 226.75 334.460938 227.417969 L 333.5 227.753906 L 333.5 256.496094 C 337.542969 256.5625 340.996094 259.332031 341.9375 263.277344 L 347.246094 285.734375 C 347.863281 288.398438 347.28125 291.042969 345.609375 293.195312 C 345.585938 293.226562 345.566406 293.253906 345.542969 293.277344 C 343.828125 295.410156 341.378906 296.578125 338.65625 296.578125 L 318.835938 296.578125 C 316.113281 296.578125 313.664062 295.402344 311.945312 293.277344 L 311.890625 293.195312 C 310.222656 291.042969 309.632812 288.40625 310.246094 285.757812 L 315.582031 263.277344 C 316.472656 259.347656 319.925781 256.5625 323.996094 256.496094 L 323.996094 231.09375 L 291.792969 242.425781 L 291.792969 306.835938 C 291.792969 313.105469 288.390625 321.832031 273.0625 329.136719 C 273.4375 330.191406 273.765625 331.304688 274.046875 332.488281 C 275.46875 338.484375 275.5625 345.660156 274.355469 353.074219 L 366.773438 353.074219 C 368.828125 353.074219 370.566406 351.339844 370.566406 349.289062 L 370.566406 115.808594 L 334.585938 115.808594 C 331.957031 115.808594 329.828125 113.675781 329.828125 111.054688 Z M 304.792969 164.65625 L 181.515625 164.65625 C 178.894531 164.65625 176.761719 162.519531 176.761719 159.898438 C 176.761719 157.277344 178.894531 155.144531 181.515625 155.144531 L 304.792969 155.144531 C 307.414062 155.144531 309.546875 157.269531 309.546875 159.898438 C 309.546875 162.527344 307.414062 164.65625 304.792969 164.65625 Z M 304.792969 143.566406 L 181.515625 143.566406 C 178.894531 143.566406 176.761719 141.441406 176.761719 138.8125 C 176.761719 136.183594 178.894531 134.058594 181.515625 134.058594 L 304.792969 134.058594 C 307.414062 134.058594 309.546875 136.183594 309.546875 138.8125 C 309.546875 141.441406 307.414062 143.566406 304.792969 143.566406 Z M 304.792969 122.496094 L 181.515625 122.496094 C 178.894531 122.496094 176.761719 120.371094 176.761719 117.742188 C 176.761719 115.113281 178.894531 112.988281 181.515625 112.988281 L 304.792969 112.988281 C 307.414062 112.988281 309.546875 115.113281 309.546875 117.742188 C 309.546875 120.371094 307.414062 122.496094 304.792969 122.496094 Z M 304.792969 101.410156 L 181.515625 101.410156 C 178.894531 101.410156 176.761719 99.285156 176.761719 96.65625 C 176.761719 94.027344 178.894531 91.902344 181.515625 91.902344 L 304.792969 91.902344 C 307.414062 91.902344 309.546875 94.035156 309.546875 96.65625 C 309.546875 99.277344 307.414062 101.410156 304.792969 101.410156 Z M 304.792969 101.410156 " fill-opacity="1" fill-rule="nonzero"/></g><path fill="#000000" d="M 337.792969 287.085938 L 332.808594 266 L 324.703125 266 L 319.703125 287.085938 Z M 337.792969 287.085938 " fill-opacity="1" fill-rule="nonzero"/><path fill="#000000" d="M 126.722656 234.519531 C 126.722656 234.519531 126.746094 234.519531 126.753906 234.519531 L 206.183594 262.472656 L 285.171875 234.679688 C 285.34375 234.605469 285.515625 234.542969 285.703125 234.492188 L 318.566406 222.929688 L 206.183594 183.386719 L 93.808594 222.929688 L 126.730469 234.511719 Z M 126.722656 234.519531 " fill-opacity="1" fill-rule="nonzero"/></svg>