<svg xmlns="http://www.w3.org/2000/svg" xmlns:xlink="http://www.w3.org/1999/xlink" width="711" zoomAndPan="magnify" viewBox="0 0 533.25 428.250001" height="571" preserveAspectRatio="xMidYMid meet" version="1.0"><defs><clipPath id="8d09936b04"><path d="M 60.15625 71 L 456 71 L 456 394 L 60.15625 394 Z M 60.15625 71 " clip-rule="nonzero"/></clipPath><clipPath id="c2017f6d87"><path d="M 60.15625 71 L 469 71 L 469 394.304688 L 60.15625 394.304688 Z M 60.15625 71 " clip-rule="nonzero"/></clipPath></defs><path fill="#a3e635" d="M 182.578125 17.65625 C 162.519531 21.96875 141.769531 32.101562 120.378906 47.867188 L 120.378906 47.871094 C 120.289062 47.933594 120.207031 47.988281 120.113281 48.046875 C 120.039062 48.089844 119.984375 48.15625 119.957031 48.230469 L 119.933594 48.234375 C 77.75 95.675781 20.113281 185.175781 18.253906 255.863281 C 16.347656 328.421875 36.496094 380.21875 76.265625 409.644531 C 93.773438 422.597656 113.785156 426.847656 134.757812 424.679688 C 139.992188 424.140625 145.214844 423.527344 150.3125 422.429688 C 154.109375 421.613281 157.847656 420.527344 161.476562 419.003906 C 203.796875 401.269531 234.9375 389.625 255.269531 385.253906 C 257.535156 384.765625 259.664062 384.371094 261.660156 384.066406 C 272.566406 382.398438 287.316406 380.28125 305.542969 382.554688 C 375.460938 391.28125 413.710938 394.625 422.367188 393.691406 C 428.699219 393.011719 434.839844 392.078125 440.761719 390.804688 C 458.398438 387.011719 474.136719 380.183594 487.441406 367.886719 C 514.765625 342.632812 529.152344 310.589844 530.4375 272.980469 C 531.746094 234.726562 518.933594 204.804688 493.648438 182.972656 C 484.910156 175.425781 476.207031 168.898438 466.304688 166.191406 C 399.863281 148.023438 359.414062 135.363281 347.625 124.816406 L 347.601562 124.820312 C 347.570312 124.738281 347.507812 124.667969 347.421875 124.628906 C 328.261719 115.003906 298.089844 83.625 254.375 33.96875 C 247.351562 25.996094 238.644531 21.183594 230.261719 18.824219 L 230.257812 18.824219 C 230.246094 18.820312 230.234375 18.816406 230.222656 18.8125 C 214.824219 14.492188 198.933594 14.136719 182.578125 17.65625 Z M 182.578125 17.65625 " fill-opacity="0.996" fill-rule="nonzero"/><path fill="#000000" d="M 158.914062 22.183594 C 202.296875 2.636719 240.929688 0.0703125 273.421875 17.210938 C 281.714844 21.585938 289.820312 28.632812 295.425781 38.648438 C 327.066406 95.207031 348.660156 129.761719 363.71875 141.660156 C 363.964844 141.851562 364.175781 142.082031 364.347656 142.339844 C 371.585938 153.089844 405.402344 172.597656 466.277344 204.191406 C 476.285156 209.386719 483.820312 218.230469 490.578125 227.183594 C 511.140625 254.414062 517.371094 287.035156 508 324.363281 C 498.796875 361.015625 477.808594 389.605469 445.566406 408.683594 C 423.988281 421.449219 400.371094 423.199219 375.460938 420.585938 C 366.261719 419.617188 330 408.359375 266.195312 386.082031 C 250.230469 380.503906 236.53125 379.539062 225.992188 378.902344 C 207.398438 377.78125 174.292969 382.371094 125.730469 391.460938 C 116.074219 393.269531 106.515625 392.421875 97.710938 391.457031 C 76.300781 389.117188 56.90625 380.503906 41.949219 363.519531 C 8.710938 325.773438 0.398438 270.628906 17.164062 201.558594 C 33.847656 132.820312 108.542969 58.609375 158.210938 22.441406 C 159.550781 21.46875 161.425781 21.761719 162.402344 23.101562 C 163.375 24.441406 163.082031 26.316406 161.742188 27.289062 C 112.300781 63.289062 39.144531 136.417969 22.988281 202.976562 C 6.480469 271 14.996094 323.835938 46.449219 359.554688 C 60.273438 375.253906 78.207031 383.292969 98.363281 385.496094 C 107.171875 386.460938 115.933594 387.195312 124.628906 385.566406 C 173.015625 376.507812 206.882812 371.742188 226.351562 372.917969 C 236.988281 373.558594 251.382812 374.554688 268.175781 380.417969 C 332.414062 402.851562 367.777344 413.75 376.085938 414.621094 C 400.367188 417.167969 422.496094 415.363281 442.511719 403.519531 C 473.339844 385.28125 493.359375 358.042969 502.183594 322.902344 C 511.160156 287.160156 505.15625 256.4375 485.792969 230.796875 C 479.078125 221.90625 472.234375 214.039062 463.515625 209.515625 C 403.621094 178.433594 367.714844 158.074219 359.375 145.6875 L 360.003906 146.367188 C 343.773438 133.546875 321.550781 97.628906 290.191406 41.574219 C 285.214844 32.679688 278.011719 26.410156 270.621094 22.515625 C 240.34375 6.542969 203.777344 8.546875 161.378906 27.652344 C 159.867188 28.332031 158.09375 27.660156 157.410156 26.152344 C 156.730469 24.640625 157.402344 22.867188 158.914062 22.183594 Z M 158.914062 22.183594 " fill-opacity="0.996" fill-rule="nonzero"/><g clip-path="url(#8d09936b04)"><path fill="#f5f6f7" d="M 455.265625 231.382812 C 455.265625 244.195312 444.878906 254.585938 432.066406 254.585938 C 429.054688 254.585938 426.183594 254.003906 423.542969 252.960938 L 423.542969 342.710938 C 423.542969 345.453125 421.320312 347.679688 418.578125 347.679688 L 270.515625 347.679688 L 270.636719 348.074219 C 270.636719 348.074219 259.828125 367.582031 247.566406 366.921875 C 235.308594 366.265625 222.125 354.136719 222.125 354.136719 L 220.148438 387.089844 L 220.042969 388.542969 L 422.226562 388.542969 L 422.226562 393.285156 L 219.691406 393.285156 L 219.6875 393.351562 L 116.144531 393.285156 C 116.144531 393.285156 116.847656 371.316406 116.320312 360.773438 C 115.792969 350.226562 112.675781 330.894531 110.917969 325.578125 C 109.160156 320.257812 106.523438 308.792969 105.796875 304.640625 C 105.074219 300.488281 104.875 291.984375 110.34375 290.46875 C 117.992188 290.46875 126.492188 290.46875 126.492188 290.46875 C 126.492188 290.46875 132.492188 273.859375 145.144531 268.984375 C 141.980469 263.316406 143.101562 248.15625 157.46875 243.015625 C 166.367188 240.246094 165.511719 240.640625 165.511719 240.640625 C 165.511719 240.640625 179.242188 238.882812 186.625 240.554688 C 194.003906 242.222656 200.507812 243.015625 201.914062 244.070312 C 202.484375 244.496094 203.410156 241.34375 200.332031 238.882812 C 197.257812 236.421875 191.105469 234.316406 191.105469 234.316406 C 191.105469 234.316406 183.703125 237.148438 179.089844 232.207031 C 174.472656 227.261719 179.089844 216.453125 189.238281 220.40625 C 191.875 220.40625 203.738281 217.769531 211.648438 205.511719 C 215.535156 199.449219 216.328125 194.375 216.328125 194.375 C 216.328125 194.375 222.917969 204.789062 225.027344 217.113281 C 225.882812 217.96875 230.035156 222.582031 230.035156 223.769531 C 229.902344 225.085938 226.410156 228.25 226.410156 228.25 C 226.410156 228.25 224.167969 240.90625 221.203125 244.726562 C 220.082031 246.113281 207.363281 246.707031 207.363281 246.707031 C 207.363281 246.707031 213.359375 250.726562 213.097656 256.921875 C 212.832031 263.117188 210.394531 266.742188 210.394531 266.742188 C 210.394531 266.742188 216.414062 269.640625 220.71875 274.125 C 224.96875 278.542969 238.988281 299.339844 243.921875 309.484375 L 243.921875 233.566406 C 243.921875 230.824219 246.144531 228.601562 248.886719 228.601562 L 304.378906 228.601562 L 304.378906 222.230469 C 304.378906 221.042969 305.34375 220.078125 306.535156 220.078125 L 324.417969 220.078125 L 324.417969 217.222656 L 333.117188 217.222656 L 333.117188 213.003906 C 333.117188 211.984375 333.941406 211.160156 334.960938 211.160156 C 335.980469 211.160156 336.808594 211.984375 336.808594 213.003906 L 336.808594 217.222656 L 345.773438 217.222656 L 345.773438 220.078125 L 363.742188 220.078125 C 364.933594 220.078125 365.894531 221.042969 365.894531 222.230469 L 365.894531 228.601562 L 409.039062 228.601562 C 410.414062 217.101562 420.195312 208.183594 432.066406 208.183594 C 444.878906 208.183594 455.265625 218.570312 455.265625 231.382812 Z M 413.175781 194.425781 L 392.09375 95.457031 L 224.191406 95.457031 L 245.269531 194.425781 Z M 120.363281 222.472656 L 120.363281 206.394531 L 129.808594 206.394531 L 129.808594 172.867188 L 60.671875 172.867188 L 60.671875 206.394531 L 112.324219 206.394531 Z M 189.289062 109.554688 C 199.757812 109.554688 208.242188 101.066406 208.242188 90.597656 C 208.242188 80.132812 199.753906 71.644531 189.289062 71.644531 C 178.820312 71.644531 170.335938 80.132812 170.335938 90.597656 C 170.335938 101.066406 178.820312 109.554688 189.289062 109.554688 Z M 434.882812 181.699219 C 437.714844 181.699219 444.359375 173.539062 440.679688 170.777344 C 437.445312 168.351562 434.882812 172.933594 434.882812 172.933594 C 434.882812 172.933594 432.320312 168.351562 429.085938 170.777344 C 425.40625 173.539062 432.050781 181.699219 434.882812 181.699219 Z M 434.882812 181.699219 " fill-opacity="1" fill-rule="nonzero"/></g><path fill="#0003ff" d="M 395.644531 96.894531 C 395.082031 94.167969 392.679688 92.214844 389.898438 92.214844 L 228.410156 92.214844 C 224.691406 92.214844 221.910156 95.632812 222.664062 99.273438 L 242.074219 192.992188 C 242.636719 195.714844 245.035156 197.667969 247.820312 197.667969 L 409.304688 197.667969 C 413.023438 197.667969 415.804688 194.253906 415.050781 190.609375 Z M 247.523438 192.90625 L 227.089844 96.976562 L 389.84375 96.976562 L 410.273438 192.90625 Z M 363.820312 219.28125 L 345.714844 219.28125 L 345.410156 220.996094 L 324.714844 220.773438 L 324.582031 219.28125 L 306.082031 219.28125 C 304.941406 219.28125 304.019531 220.207031 304.019531 221.347656 L 304.019531 250.082031 C 304.019531 251.222656 304.941406 252.148438 306.082031 252.148438 L 324.449219 252.191406 L 324.492188 250.960938 L 345.101562 251.003906 L 345.585938 252.148438 L 363.820312 252.148438 C 364.960938 252.148438 365.886719 251.222656 365.886719 250.082031 L 365.886719 221.347656 C 365.882812 220.207031 364.960938 219.28125 363.820312 219.28125 Z M 363.160156 247.402344 C 363.160156 248.542969 362.234375 249.46875 361.09375 249.46875 L 308.808594 249.46875 C 307.667969 249.46875 306.742188 248.542969 306.742188 247.402344 L 306.742188 224.335938 C 306.742188 223.195312 307.667969 222.269531 308.808594 222.269531 L 361.09375 222.269531 C 362.234375 222.269531 363.160156 223.195312 363.160156 224.335938 Z M 251.09375 322.230469 L 236.792969 297.25 C 236.792969 297.25 228.882812 284.003906 225.917969 279.585938 C 222.949219 275.171875 213.613281 266.714844 210.074219 266.824219 C 210.074219 266.824219 213.460938 263.242188 213 256.980469 C 212.535156 250.71875 208.1875 246.105469 200.738281 243.863281 C 193.292969 241.625 180.964844 237.40625 164.160156 240.898438 C 147.351562 244.390625 141.554688 255.332031 145.179688 267.59375 L 144.585938 268.582031 C 144.585938 268.582031 131.667969 275.039062 126.65625 290.332031 C 146.628906 290.332031 173.78125 290.332031 173.78125 290.332031 L 183.535156 290.332031 C 183.535156 290.332031 190.984375 290.460938 194.542969 297.054688 C 198.101562 303.644531 203.96875 314.453125 206.078125 338.839844 C 208.1875 363.226562 206.339844 393.542969 206.339844 393.542969 L 218.996094 393.542969 C 218.996094 393.542969 221.765625 373.246094 222.421875 354.394531 C 225.191406 357.425781 237.976562 367.773438 248.785156 367.046875 C 259.59375 366.324219 269.941406 349.78125 274.886719 340.683594 C 279.828125 331.589844 287.476562 315.046875 290.308594 304.433594 C 285.367188 301.929688 268.824219 294.878906 268.824219 294.878906 Z M 155.269531 146.644531 L 156.539062 152.40625 L 157.8125 146.644531 C 158.101562 145.339844 158.875 144.316406 159.867188 143.9375 L 164.234375 142.257812 L 159.867188 140.578125 C 158.875 140.199219 158.101562 139.179688 157.8125 137.871094 L 156.539062 132.113281 L 155.269531 137.871094 C 154.980469 139.179688 154.203125 140.199219 153.214844 140.582031 L 148.847656 142.257812 L 153.214844 143.9375 C 154.203125 144.316406 154.980469 145.339844 155.269531 146.644531 Z M 311.574219 225.703125 C 310.839844 225.703125 310.242188 226.300781 310.242188 227.035156 C 310.242188 227.773438 310.835938 228.367188 311.574219 228.367188 C 312.308594 228.367188 312.90625 227.773438 312.90625 227.035156 C 312.90625 226.300781 312.308594 225.703125 311.574219 225.703125 Z M 267.824219 182.289062 L 268.703125 187.210938 L 290.933594 187.386719 L 289.96875 182.113281 Z M 316.332031 172.359375 L 315.277344 167.964844 L 293.394531 167.613281 L 293.921875 172.625 Z M 443.472656 223.09375 C 437.105469 218.320312 432.066406 227.339844 432.066406 227.339844 C 432.066406 227.339844 427.023438 218.320312 420.65625 223.09375 C 413.417969 228.527344 426.492188 244.582031 432.066406 244.582031 C 437.636719 244.582031 450.714844 228.527344 443.472656 223.09375 Z M 466.488281 191.558594 C 461.683594 187.957031 457.882812 194.761719 457.882812 194.761719 C 457.882812 194.761719 454.078125 187.957031 449.273438 191.558594 C 443.808594 195.65625 453.679688 207.773438 457.882812 207.773438 C 462.085938 207.773438 471.953125 195.65625 466.488281 191.558594 Z M 389.710938 172.449219 L 398.324219 172.273438 L 397.445312 167.351562 L 388.566406 167.789062 Z M 289.265625 177.722656 L 290.757812 182.554688 L 330.394531 181.9375 L 329.515625 177.367188 L 289.265625 177.195312 Z M 383.03125 172.800781 L 328.722656 172.535156 L 329.515625 177.367188 L 383.824219 177.105469 Z M 383.03125 172.800781 " fill-opacity="1" fill-rule="nonzero"/><g clip-path="url(#c2017f6d87)"><path fill="#0a0147" d="M 432.066406 207.667969 C 420.046875 207.667969 410.09375 216.65625 408.558594 228.261719 L 366.628906 228.261719 L 366.628906 222.230469 C 366.628906 220.492188 365.214844 219.078125 363.476562 219.078125 L 346.195312 219.078125 L 346.195312 217.71875 C 346.195312 217.0625 345.664062 216.53125 345.003906 216.53125 L 337.445312 216.53125 L 337.445312 212.917969 C 337.445312 211.617188 336.351562 210.554688 335.003906 210.554688 C 333.660156 210.554688 332.566406 211.617188 332.566406 212.917969 L 332.566406 216.53125 L 325.140625 216.53125 C 324.480469 216.53125 323.949219 217.0625 323.949219 217.71875 L 323.949219 219.078125 L 306.53125 219.078125 C 304.792969 219.078125 303.378906 220.492188 303.378906 222.230469 L 303.378906 228.261719 L 248.621094 228.261719 C 245.792969 228.261719 243.492188 230.5625 243.492188 233.390625 L 243.492188 307.316406 C 241.101562 303.101562 238.183594 298.035156 234.699219 292.140625 C 222.820312 272.039062 213.613281 267.394531 211.128906 266.453125 C 212.023438 264.894531 214.277344 260.328125 213.449219 255.359375 L 224.199219 256.226562 C 224.214844 256.226562 224.226562 256.230469 224.242188 256.230469 C 224.464844 256.230469 224.667969 256.082031 224.734375 255.863281 C 224.804688 255.632812 224.707031 255.382812 224.496094 255.265625 C 222.253906 253.992188 222.675781 249.164062 223.011719 245.28125 C 223.109375 244.171875 223.203125 243.121094 223.234375 242.175781 C 223.238281 242.148438 223.226562 242.121094 223.222656 242.09375 C 225.054688 237.925781 226.347656 232.675781 226.46875 228.605469 C 227.519531 227.957031 231 225.617188 230.476562 223.429688 C 230.019531 221.527344 226.878906 218.4375 225.710938 217.339844 C 228.085938 214.78125 229.308594 211.050781 229.164062 206.757812 C 228.953125 200.585938 226.027344 194.222656 221.707031 190.550781 C 215.910156 185.617188 204.171875 183.949219 189.5 185.976562 C 177.882812 187.582031 169.503906 191.972656 164.59375 199.039062 C 158.109375 208.371094 158.980469 220.351562 160.855469 228.757812 C 160.992188 229.375 160.613281 230.5625 160.210938 231.820312 C 159.460938 234.171875 158.527344 237.101562 160.09375 239.015625 C 160.742188 239.808594 161.753906 240.339844 163.152344 240.613281 C 156.929688 242.15625 151.746094 244.90625 148.105469 248.8125 C 143.820312 253.417969 142.367188 260.078125 144.128906 267.078125 C 144.238281 267.507812 144.363281 267.933594 144.492188 268.359375 C 144.476562 268.363281 144.457031 268.359375 144.4375 268.367188 C 143.984375 268.539062 133.226562 272.722656 125.972656 289.953125 L 110.59375 289.953125 C 110.511719 289.957031 108.628906 290.039062 107.074219 292.132812 C 105.171875 294.695312 103.652344 300.535156 107.210938 313.804688 C 115.917969 346.269531 116.941406 355.953125 115.628906 393.53125 C 115.625 393.671875 115.675781 393.808594 115.773438 393.910156 C 115.871094 394.011719 116.003906 394.066406 116.144531 394.066406 L 421.960938 394.066406 C 422.246094 394.066406 422.480469 393.835938 422.480469 393.550781 L 422.480469 388.761719 C 422.480469 388.476562 422.246094 388.242188 421.960938 388.242188 L 360.421875 388.242188 C 360.464844 388.148438 360.488281 388.042969 360.464844 387.933594 L 352.425781 348.105469 L 419.019531 348.105469 C 421.847656 348.105469 424.148438 345.804688 424.148438 342.976562 L 424.148438 253.734375 C 426.625 254.617188 429.289062 255.101562 432.066406 255.101562 C 445.140625 255.101562 455.78125 244.460938 455.78125 231.382812 C 455.78125 218.308594 445.140625 207.667969 432.066406 207.667969 Z M 310.515625 388.242188 C 310.53125 388.210938 310.550781 388.175781 310.558594 388.136719 L 318.636719 348.105469 L 334.484375 348.105469 L 334.484375 388.246094 L 310.515625 388.246094 Z M 277.035156 338.261719 L 319.570312 338.261719 L 317.792969 347.074219 L 272.0625 347.074219 C 273.8125 344.238281 275.476562 341.265625 277.035156 338.261719 Z M 271.417969 348.105469 L 317.585938 348.105469 L 309.546875 387.933594 C 309.523438 388.042969 309.546875 388.148438 309.589844 388.242188 L 220.433594 388.242188 C 221.347656 378.519531 222.457031 360.332031 222.746094 355.476562 C 225.636719 358.355469 235.71875 367.4375 247.972656 367.4375 C 256.5625 367.308594 264.636719 358.816406 271.417969 348.105469 Z M 318.847656 347.074219 L 320.625 338.261719 L 334.484375 338.261719 L 334.484375 347.074219 Z M 329.882812 280.792969 L 329.882812 278.460938 C 329.882812 278.375 329.953125 278.304688 330.039062 278.304688 L 339.972656 278.304688 C 340.058594 278.304688 340.128906 278.375 340.128906 278.460938 L 340.128906 279.519531 C 340.125 279.542969 340.113281 279.566406 340.113281 279.59375 C 340.113281 279.621094 340.125 279.644531 340.128906 279.667969 L 340.128906 280.792969 C 340.128906 280.847656 340.09375 280.890625 340.050781 280.917969 L 329.957031 280.917969 C 329.914062 280.890625 329.882812 280.847656 329.882812 280.792969 Z M 329.875 281.949219 C 329.929688 281.957031 329.980469 281.984375 330.039062 281.984375 L 339.972656 281.984375 C 340.03125 281.984375 340.082031 281.957031 340.136719 281.949219 L 341.976562 281.949219 C 342.0625 281.949219 342.132812 282.019531 342.132812 282.105469 L 342.132812 284.441406 C 342.132812 284.527344 342.0625 284.597656 341.976562 284.597656 L 328.03125 284.597656 C 327.945312 284.597656 327.875 284.527344 327.875 284.441406 L 327.875 282.105469 C 327.875 282.019531 327.945312 281.949219 328.03125 281.949219 Z M 334.484375 285.628906 L 334.484375 337.230469 L 320.832031 337.230469 L 331.25 285.628906 Z M 335.515625 338.261719 L 349.386719 338.261719 L 351.164062 347.074219 L 335.515625 347.074219 Z M 335.515625 337.230469 L 335.515625 285.628906 L 338.761719 285.628906 L 349.175781 337.230469 Z M 339.8125 285.628906 L 341.976562 285.628906 C 342.632812 285.628906 343.167969 285.097656 343.167969 284.441406 L 343.167969 282.105469 C 343.167969 281.449219 342.632812 280.917969 341.976562 280.917969 L 341.136719 280.917969 C 341.140625 280.875 341.160156 280.835938 341.160156 280.792969 L 341.160156 280.109375 L 352.558594 280.109375 C 352.847656 280.109375 353.078125 279.878906 353.078125 279.59375 L 353.078125 262.214844 C 353.078125 261.929688 352.847656 261.699219 352.558594 261.699219 L 348.097656 261.699219 L 348.097656 261.230469 C 348.097656 260.574219 347.566406 260.039062 346.910156 260.039062 L 337.414062 260.039062 C 337.429688 259.992188 337.445312 259.941406 337.445312 259.886719 L 337.445312 255.164062 L 344.9375 255.164062 C 345.59375 255.164062 346.128906 254.628906 346.128906 253.972656 L 346.128906 252.714844 L 363.476562 252.714844 C 365.054688 252.714844 366.351562 251.546875 366.582031 250.035156 L 407.796875 250.035156 L 407.796875 337.230469 L 350.230469 337.230469 Z M 325.070312 254.128906 C 324.984375 254.128906 324.914062 254.058594 324.914062 253.972656 L 324.914062 251.683594 C 324.914062 251.597656 324.984375 251.527344 325.070312 251.527344 L 344.9375 251.527344 C 345.027344 251.527344 345.097656 251.597656 345.097656 251.683594 L 345.097656 253.972656 C 345.097656 254.058594 345.027344 254.128906 344.9375 254.128906 Z M 333.597656 255.164062 L 336.410156 255.164062 L 336.410156 259.886719 C 336.410156 259.941406 336.425781 259.992188 336.441406 260.039062 L 333.566406 260.039062 C 333.582031 259.992188 333.597656 259.941406 333.597656 259.886719 Z M 346.910156 261.074219 C 346.996094 261.074219 347.066406 261.144531 347.066406 261.230469 L 347.066406 263.5625 C 347.066406 263.648438 346.996094 263.71875 346.910156 263.71875 L 323.101562 263.71875 C 323.015625 263.71875 322.945312 263.648438 322.945312 263.5625 L 322.945312 261.230469 C 322.945312 261.144531 323.015625 261.074219 323.101562 261.074219 Z M 407.792969 249 L 366.628906 249 L 366.628906 243.707031 L 407.792969 243.707031 Z M 408.828125 243.191406 C 408.828125 242.90625 408.597656 242.671875 408.3125 242.671875 L 366.628906 242.671875 L 366.628906 233.894531 L 408.484375 233.894531 C 409.21875 240.839844 412.960938 246.890625 418.382812 250.734375 C 418.378906 250.753906 418.371094 250.773438 418.371094 250.792969 L 418.371094 334.554688 C 418.371094 336.03125 417.167969 337.230469 415.695312 337.230469 L 408.828125 337.230469 Z M 408.445312 229.292969 C 408.386719 229.984375 408.347656 230.679688 408.347656 231.382812 C 408.347656 231.878906 408.367188 232.371094 408.398438 232.863281 L 366.628906 232.863281 L 366.628906 229.292969 Z M 333.597656 212.917969 C 333.597656 212.183594 334.230469 211.585938 335.003906 211.585938 C 335.78125 211.585938 336.410156 212.183594 336.410156 212.917969 L 336.410156 216.53125 L 333.597656 216.53125 Z M 324.980469 217.71875 C 324.980469 217.632812 325.050781 217.5625 325.140625 217.5625 L 345.003906 217.5625 C 345.09375 217.5625 345.164062 217.632812 345.164062 217.71875 L 345.164062 220.21875 C 345.164062 220.304688 345.09375 220.375 345.003906 220.375 L 325.140625 220.375 C 325.050781 220.375 324.980469 220.304688 324.980469 220.21875 Z M 304.414062 222.230469 C 304.414062 221.0625 305.363281 220.113281 306.53125 220.113281 L 323.949219 220.113281 L 323.949219 220.21875 C 323.949219 220.875 324.484375 221.40625 325.140625 221.40625 L 345.003906 221.40625 C 345.664062 221.40625 346.195312 220.875 346.195312 220.21875 L 346.195312 220.113281 L 363.476562 220.113281 C 364.648438 220.113281 365.597656 221.0625 365.597656 222.230469 L 365.597656 242.984375 C 365.570312 243.046875 365.554688 243.117188 365.554688 243.191406 C 365.554688 243.261719 365.570312 243.332031 365.597656 243.394531 L 365.597656 249.5625 C 365.597656 250.730469 364.648438 251.679688 363.476562 251.679688 L 346.128906 251.679688 C 346.125 251.027344 345.59375 250.496094 344.9375 250.496094 L 325.070312 250.496094 C 324.417969 250.496094 323.882812 251.027344 323.882812 251.679688 L 306.53125 251.679688 C 305.363281 251.679688 304.414062 250.730469 304.414062 249.5625 Z M 306.53125 252.714844 L 323.882812 252.714844 L 323.882812 253.972656 C 323.882812 254.628906 324.414062 255.164062 325.070312 255.164062 L 332.566406 255.164062 L 332.566406 259.886719 C 332.566406 259.941406 332.582031 259.992188 332.597656 260.039062 L 323.101562 260.039062 C 322.445312 260.039062 321.910156 260.574219 321.910156 261.230469 L 321.910156 263.5625 C 321.910156 264.21875 322.445312 264.753906 323.101562 264.753906 L 346.910156 264.753906 C 347.566406 264.753906 348.097656 264.21875 348.097656 263.5625 L 348.097656 262.730469 L 352.042969 262.730469 L 352.042969 279.078125 L 341.160156 279.078125 L 341.160156 278.460938 C 341.160156 277.804688 340.628906 277.269531 339.972656 277.269531 L 330.039062 277.269531 C 329.382812 277.269531 328.847656 277.804688 328.847656 278.460938 L 328.847656 280.792969 C 328.847656 280.835938 328.867188 280.875 328.875 280.917969 L 328.03125 280.917969 C 327.375 280.917969 326.84375 281.449219 326.84375 282.105469 L 326.84375 284.441406 C 326.84375 285.097656 327.375 285.628906 328.03125 285.628906 L 330.195312 285.628906 L 319.78125 337.230469 L 277.5625 337.230469 C 285.472656 321.722656 290.582031 305.796875 290.988281 304.507812 C 291.007812 304.449219 291.015625 304.386719 291.011719 304.324219 C 295.34375 303.503906 301.402344 302.210938 305.914062 301.246094 C 308.304688 300.734375 310.28125 300.3125 311.375 300.09375 C 313.578125 299.652344 317.375 298.792969 318.769531 298.316406 C 320.9375 297.574219 321.074219 296.558594 320.960938 296.019531 C 320.867188 295.550781 320.503906 295.148438 319.992188 294.839844 C 323.195312 294.265625 323.53125 292.609375 323.554688 292.109375 C 323.589844 291.410156 323.246094 290.773438 322.660156 290.320312 C 324.453125 289.636719 324.679688 288.667969 324.605469 288.0625 C 324.449219 286.800781 322.734375 285.667969 321.007812 285.578125 C 321.007812 285.574219 321.007812 285.570312 321.007812 285.566406 C 320.839844 283.617188 316.820312 281.101562 310.894531 281.59375 C 306.515625 281.960938 299.878906 282.257812 294.878906 282.449219 C 297.234375 281.140625 298.351562 279.359375 298.574219 277.992188 C 298.742188 276.953125 298.4375 276.054688 297.753906 275.582031 C 297.304688 275.273438 296.308594 274.898438 294.679688 275.847656 C 292.066406 277.371094 288.707031 278.328125 285.457031 279.257812 C 283.460938 279.824219 281.394531 280.414062 279.492188 281.136719 C 275.34375 282.707031 271.136719 289.941406 268.835938 294.488281 L 268.757812 294.457031 C 268.738281 294.449219 268.71875 294.449219 268.699219 294.445312 C 268.667969 294.433594 268.636719 294.425781 268.601562 294.421875 C 268.566406 294.417969 268.53125 294.421875 268.492188 294.425781 C 268.464844 294.429688 268.4375 294.433594 268.410156 294.441406 C 268.375 294.453125 268.34375 294.46875 268.3125 294.484375 C 268.285156 294.5 268.257812 294.515625 268.234375 294.535156 C 268.207031 294.554688 268.183594 294.582031 268.160156 294.609375 C 268.148438 294.625 268.128906 294.636719 268.121094 294.652344 L 259.84375 307.636719 L 259.84375 250.035156 L 303.425781 250.035156 C 303.65625 251.546875 304.957031 252.714844 306.53125 252.714844 Z M 291.90625 282.558594 C 289.59375 282.640625 288.0625 282.6875 288.015625 282.6875 C 287.730469 282.695312 287.507812 282.933594 287.515625 283.21875 C 287.523438 283.503906 287.765625 283.710938 288.046875 283.71875 C 288.195312 283.714844 303.167969 283.277344 310.980469 282.625 C 316.609375 282.15625 319.886719 284.566406 319.980469 285.65625 C 320.015625 286.089844 319.257812 286.203125 318.929688 286.234375 C 310.300781 287.011719 295.710938 287.734375 295.566406 287.742188 C 295.28125 287.757812 295.0625 288 295.074219 288.28125 C 295.089844 288.558594 295.316406 288.773438 295.589844 288.773438 C 295.597656 288.773438 295.609375 288.773438 295.617188 288.773438 C 295.761719 288.765625 310.375 288.042969 319.019531 287.261719 C 319.890625 287.183594 320.371094 286.910156 320.652344 286.601562 C 322.019531 286.53125 323.488281 287.441406 323.582031 288.1875 C 323.644531 288.730469 322.835938 289.449219 320.367188 289.828125 C 319.863281 289.90625 319.273438 290.007812 318.585938 290.125 C 314.828125 290.761719 307.832031 291.949219 296.496094 292.503906 C 296.210938 292.515625 295.992188 292.757812 296.007812 293.042969 C 296.019531 293.320312 296.25 293.535156 296.523438 293.535156 C 296.53125 293.535156 296.539062 293.535156 296.546875 293.535156 C 307.941406 292.976562 314.976562 291.78125 318.757812 291.140625 C 319.441406 291.027344 320.027344 290.925781 320.523438 290.851562 C 320.761719 290.8125 320.988281 290.773438 321.203125 290.730469 C 321.238281 290.75 321.273438 290.773438 321.3125 290.785156 C 322.066406 290.988281 322.550781 291.5 322.523438 292.058594 C 322.492188 292.695312 321.742188 293.5 319.730469 293.839844 C 311.339844 295.257812 296.929688 297.097656 296.78125 297.117188 C 296.5 297.152344 296.300781 297.410156 296.335938 297.695312 C 296.371094 297.953125 296.589844 298.144531 296.847656 298.144531 C 296.871094 298.144531 296.890625 298.144531 296.914062 298.140625 C 297.042969 298.125 308.804688 296.621094 317.28125 295.285156 C 317.292969 295.285156 317.304688 295.289062 317.320312 295.289062 C 318.707031 295.191406 319.855469 295.773438 319.949219 296.230469 C 320.007812 296.503906 319.5625 296.953125 318.433594 297.335938 C 317.085938 297.800781 313.351562 298.644531 311.175781 299.078125 C 310.074219 299.296875 308.09375 299.722656 305.695312 300.234375 C 300.929688 301.253906 294.402344 302.652344 290.058594 303.453125 C 289.992188 303.464844 289.933594 303.492188 289.878906 303.527344 L 269.789062 294.898438 C 273.371094 287.828125 277.027344 283.175781 279.859375 282.101562 C 281.71875 281.394531 283.765625 280.8125 285.742188 280.25 C 289.050781 279.304688 292.472656 278.328125 295.203125 276.738281 C 296.027344 276.253906 296.746094 276.140625 297.167969 276.433594 C 297.511719 276.671875 297.660156 277.191406 297.554688 277.824219 C 297.308594 279.332031 295.691406 281.46875 291.941406 282.542969 C 291.929688 282.546875 291.921875 282.554688 291.90625 282.558594 Z M 259.84375 249 L 259.84375 243.707031 L 303.324219 243.707031 C 303.34375 243.707031 303.359375 243.695312 303.378906 243.695312 L 303.378906 249 Z M 303.378906 242.683594 C 303.359375 242.683594 303.34375 242.671875 303.324219 242.671875 L 259.328125 242.671875 C 259.042969 242.671875 258.8125 242.90625 258.8125 243.191406 L 258.8125 308.921875 C 258.8125 309.007812 258.839844 309.085938 258.875 309.160156 L 251.171875 321.25 C 250.796875 320.539062 250.160156 319.347656 249.269531 317.707031 L 249.269531 236.570312 C 249.269531 235.097656 250.46875 233.894531 251.945312 233.894531 L 303.378906 233.894531 Z M 244.523438 308.921875 L 244.523438 233.390625 C 244.523438 231.132812 246.363281 229.292969 248.621094 229.292969 L 303.378906 229.292969 L 303.378906 232.863281 L 251.945312 232.863281 C 249.902344 232.863281 248.238281 234.527344 248.238281 236.570312 L 248.238281 315.816406 C 247.222656 313.96875 245.976562 311.722656 244.492188 309.085938 C 244.507812 309.035156 244.523438 308.980469 244.523438 308.921875 Z M 229.472656 223.671875 C 229.777344 224.941406 227.320312 226.917969 225.699219 227.867188 C 225.542969 227.957031 225.445312 228.121094 225.441406 228.304688 C 225.367188 233.066406 223.566406 239.660156 221.160156 243.976562 C 220.277344 245.5625 215.078125 246.425781 207.238281 246.292969 C 207.207031 246.292969 207.175781 246.308594 207.140625 246.316406 C 205.941406 245.523438 204.574219 244.808594 203.046875 244.171875 C 203.902344 236.703125 191.332031 234.070312 190.785156 233.960938 C 190.699219 233.941406 190.601562 233.949219 190.515625 233.976562 C 184.960938 235.902344 180.976562 233.949219 179.097656 231.476562 C 177.230469 229.023438 177.148438 225.816406 178.882812 223.304688 C 182.832031 217.582031 189.058594 220.652344 189.320312 220.785156 C 189.414062 220.832031 189.519531 220.851562 189.625 220.835938 C 189.839844 220.808594 210.695312 217.726562 216.613281 195.484375 C 218.542969 198.503906 222.582031 207.53125 224.460938 217.457031 C 224.46875 217.476562 224.480469 217.492188 224.488281 217.515625 C 224.496094 217.546875 224.507812 217.578125 224.523438 217.609375 C 224.542969 217.640625 224.5625 217.667969 224.585938 217.695312 C 224.601562 217.710938 224.609375 217.730469 224.625 217.742188 C 225.84375 218.847656 229.085938 222.058594 229.472656 223.671875 Z M 148.863281 249.515625 C 153.292969 244.757812 160.117188 241.78125 168.355469 240.671875 C 168.40625 240.667969 168.449219 240.667969 168.5 240.660156 C 168.511719 240.660156 168.523438 240.652344 168.535156 240.648438 C 170.890625 240.339844 173.359375 240.175781 175.925781 240.175781 C 183.25 240.175781 191.332031 241.445312 199.652344 244.035156 C 206.277344 246.097656 210.414062 249.3125 211.941406 253.582031 C 212.105469 254.035156 212.222656 254.492188 212.320312 254.949219 C 212.320312 254.949219 212.320312 254.953125 212.320312 254.953125 C 213.445312 260.140625 210.695312 265.167969 210.050781 266.246094 C 198.214844 267.175781 189.792969 272.597656 182.351562 277.386719 C 174.800781 282.25 168.285156 286.449219 160.601562 283.828125 C 153.046875 281.253906 147.117188 274.738281 145.128906 266.824219 C 143.457031 260.171875 144.816406 253.863281 148.863281 249.515625 Z M 144.796875 269.335938 C 144.804688 269.332031 144.8125 269.324219 144.816406 269.320312 C 147.371094 276.542969 153.117188 282.367188 160.269531 284.804688 C 162.039062 285.410156 163.738281 285.679688 165.398438 285.679688 C 171.382812 285.679688 176.824219 282.175781 182.910156 278.257812 C 190.285156 273.507812 198.640625 268.132812 210.304688 267.265625 C 211.214844 267.546875 221 270.984375 233.808594 292.664062 C 245.160156 311.871094 250.613281 322.414062 250.667969 322.519531 C 250.753906 322.683594 250.917969 322.789062 251.101562 322.796875 C 251.109375 322.796875 251.117188 322.796875 251.125 322.796875 C 251.300781 322.796875 251.464844 322.707031 251.5625 322.558594 L 268.703125 295.660156 C 268.734375 295.683594 268.757812 295.710938 268.792969 295.726562 C 268.867188 295.765625 268.945312 295.78125 269.023438 295.78125 C 269.066406 295.78125 269.105469 295.757812 269.148438 295.746094 L 289.859375 304.640625 C 285.617188 318.605469 277.015625 335.875 275.953125 337.921875 C 274.308594 341.085938 270.507812 347.367188 270.488281 347.507812 C 263.875 357.996094 256.089844 366.28125 247.960938 366.40625 C 233.957031 366.40625 222.796875 354.050781 222.6875 353.925781 C 222.550781 353.769531 222.328125 353.710938 222.132812 353.78125 C 221.9375 353.847656 221.800781 354.027344 221.785156 354.238281 C 221.769531 354.558594 219.894531 386.375 218.855469 393.035156 L 206.863281 393.035156 C 207.191406 388.230469 209.386719 352.953125 205.238281 327.558594 C 201.363281 303.871094 194.769531 295.019531 189.921875 291.765625 C 186.347656 289.367188 183.660156 289.933594 183.621094 289.953125 L 127.101562 289.953125 C 134.167969 273.503906 144.691406 269.375 144.796875 269.335938 Z M 188.734375 393.035156 L 116.679688 393.035156 C 117.96875 355.765625 116.910156 345.976562 108.207031 313.535156 C 104.769531 300.722656 106.128906 295.179688 107.875 292.789062 C 109.125 291.074219 110.570312 290.988281 110.609375 290.984375 L 181.199219 290.984375 C 180.832031 291.277344 180.460938 291.652344 180.101562 292.132812 C 178.199219 294.695312 176.679688 300.539062 180.238281 313.804688 C 189.019531 346.53125 189.960938 355.382812 188.65625 392.742188 C 188.652344 392.847656 188.679688 392.949219 188.734375 393.035156 Z M 204.726562 393.035156 L 189.609375 393.035156 C 189.65625 392.960938 189.683594 392.871094 189.6875 392.777344 C 191 355.28125 190.050781 346.394531 181.234375 313.535156 C 177.796875 300.722656 179.15625 295.179688 180.902344 292.789062 C 181.992188 291.292969 183.230469 291.035156 183.628906 290.984375 L 183.636719 290.984375 C 183.675781 290.984375 183.714844 290.980469 183.753906 290.972656 C 183.871094 290.949219 186.25 290.519531 189.40625 292.664062 C 194.066406 295.828125 200.417969 304.480469 204.21875 327.722656 C 208.371094 353.128906 206.136719 388.519531 205.828125 393.035156 Z M 421.445312 393.035156 L 219.898438 393.035156 C 220.03125 392.128906 220.179688 390.847656 220.335938 389.277344 L 421.445312 389.277344 Z M 359.453125 388.136719 C 359.460938 388.175781 359.480469 388.210938 359.496094 388.242188 L 335.515625 388.242188 L 335.515625 348.105469 L 351.371094 348.105469 Z M 423.113281 342.976562 C 423.113281 345.234375 421.277344 347.074219 419.019531 347.074219 L 352.21875 347.074219 L 350.4375 338.261719 L 415.695312 338.261719 C 417.738281 338.261719 419.402344 336.601562 419.402344 334.554688 L 419.402344 251.421875 C 420.574219 252.164062 421.816406 252.808594 423.113281 253.339844 Z M 432.066406 254.066406 C 419.558594 254.066406 409.382812 243.890625 409.382812 231.382812 C 409.382812 218.875 419.558594 208.699219 432.066406 208.699219 C 444.574219 208.699219 454.75 218.875 454.75 231.382812 C 454.75 243.890625 444.574219 254.066406 432.066406 254.066406 Z M 241.566406 193.09375 C 242.179688 196.042969 244.808594 198.183594 247.820312 198.183594 L 409.304688 198.183594 C 411.234375 198.183594 413.039062 197.328125 414.257812 195.832031 C 415.472656 194.335938 415.949219 192.394531 415.558594 190.503906 L 396.148438 96.789062 C 395.539062 93.839844 392.910156 91.699219 389.898438 91.699219 L 228.414062 91.699219 C 226.484375 91.699219 224.679688 92.554688 223.460938 94.050781 C 222.242188 95.546875 221.769531 97.488281 222.160156 99.378906 Z M 224.261719 94.703125 C 225.28125 93.449219 226.796875 92.730469 228.414062 92.730469 L 389.898438 92.730469 C 392.421875 92.730469 394.628906 94.527344 395.140625 97 L 414.546875 190.714844 C 414.875 192.296875 414.476562 193.925781 413.457031 195.179688 C 412.433594 196.433594 410.921875 197.152344 409.304688 197.152344 L 247.820312 197.152344 C 245.292969 197.152344 243.089844 195.359375 242.578125 192.886719 L 223.171875 99.167969 C 222.84375 97.585938 223.242188 95.957031 224.261719 94.703125 Z M 247.523438 193.421875 L 410.273438 193.421875 C 410.429688 193.421875 410.578125 193.351562 410.675781 193.230469 C 410.773438 193.109375 410.8125 192.953125 410.78125 192.800781 L 390.347656 96.871094 C 390.296875 96.632812 390.085938 96.460938 389.84375 96.460938 L 227.09375 96.460938 C 226.9375 96.460938 226.789062 96.53125 226.691406 96.652344 C 226.59375 96.773438 226.554688 96.933594 226.585938 97.085938 L 247.019531 193.015625 C 247.070312 193.253906 247.28125 193.421875 247.523438 193.421875 Z M 389.425781 97.492188 L 409.636719 192.390625 L 247.941406 192.390625 L 227.730469 97.492188 Z M 299.230469 159.957031 L 395.539062 159.957031 C 395.695312 159.957031 395.84375 159.886719 395.941406 159.765625 C 396.039062 159.644531 396.078125 159.488281 396.046875 159.335938 L 384.140625 103.445312 C 384.089844 103.207031 383.878906 103.035156 383.636719 103.035156 L 287.328125 103.035156 C 287.171875 103.035156 287.023438 103.105469 286.925781 103.226562 C 286.828125 103.347656 286.789062 103.507812 286.820312 103.660156 L 298.726562 159.550781 C 298.777344 159.789062 298.988281 159.957031 299.230469 159.957031 Z M 383.21875 104.066406 L 394.902344 158.925781 L 299.648438 158.925781 L 287.964844 104.066406 Z M 290.019531 142.296875 C 290.117188 142.175781 290.152344 142.019531 290.121094 141.867188 L 281.9375 103.445312 C 281.886719 103.207031 281.679688 103.035156 281.433594 103.035156 L 236.394531 103.035156 C 236.242188 103.035156 236.09375 103.105469 235.996094 103.226562 C 235.898438 103.347656 235.859375 103.507812 235.890625 103.660156 L 244.074219 142.082031 C 244.125 142.320312 244.335938 142.488281 244.578125 142.488281 L 289.617188 142.488281 C 289.773438 142.488281 289.921875 142.417969 290.019531 142.296875 Z M 244.996094 141.457031 L 237.035156 104.066406 L 281.015625 104.066406 L 288.980469 141.457031 M 248.304688 159.957031 L 293.136719 159.957031 C 293.292969 159.957031 293.4375 159.886719 293.535156 159.765625 C 293.632812 159.644531 293.671875 159.488281 293.640625 159.335938 L 290.835938 146.167969 C 290.785156 145.929688 290.574219 145.761719 290.332031 145.761719 L 245.5 145.761719 C 245.34375 145.761719 245.195312 145.832031 245.097656 145.953125 C 245 146.074219 244.960938 146.230469 244.996094 146.382812 L 247.796875 159.550781 C 247.847656 159.789062 248.058594 159.957031 248.304688 159.957031 Z M 246.136719 146.792969 L 289.914062 146.792969 L 292.496094 158.925781 L 248.722656 158.925781 Z M 248.4375 163 C 248.339844 163.121094 248.300781 163.28125 248.332031 163.433594 L 253.457031 187.476562 C 253.507812 187.714844 253.714844 187.886719 253.960938 187.886719 L 268.878906 187.886719 C 268.914062 187.894531 268.941406 187.902344 268.976562 187.902344 L 291.386719 187.902344 C 291.410156 187.902344 291.433594 187.890625 291.457031 187.886719 L 401.925781 187.886719 C 402.082031 187.886719 402.230469 187.816406 402.328125 187.695312 C 402.425781 187.574219 402.464844 187.414062 402.429688 187.261719 L 397.308594 163.21875 C 397.257812 162.980469 397.046875 162.808594 396.804688 162.808594 L 248.839844 162.808594 C 248.683594 162.808594 248.535156 162.878906 248.4375 163 Z M 398.117188 171.972656 L 390.089844 171.972656 L 389.265625 168.191406 L 397.3125 168.191406 Z M 269.386719 186.855469 L 268.457031 182.628906 L 289.804688 182.628906 L 290.738281 186.855469 Z M 252.453125 177.816406 L 289.101562 177.816406 L 289.910156 181.597656 L 253.257812 181.597656 Z M 328.191406 173.003906 L 329 176.785156 L 252.234375 176.785156 L 251.429688 173.003906 Z M 382.703125 173.003906 L 383.523438 176.785156 L 330.058594 176.785156 L 329.246094 173.003906 Z M 290.96875 181.597656 L 290.15625 177.816406 L 329.117188 177.816406 L 329.941406 181.597656 Z M 330.996094 181.597656 L 330.171875 177.816406 L 399.363281 177.816406 L 400.167969 181.597656 Z M 384.582031 176.785156 L 383.757812 173.003906 L 398.339844 173.003906 L 399.144531 176.785156 Z M 388.210938 168.191406 L 389.035156 171.972656 L 316.855469 171.972656 L 316.078125 168.191406 Z M 292.558594 168.191406 L 293.351562 171.972656 L 251.207031 171.972656 L 250.402344 168.191406 Z M 253.480469 182.628906 L 267.398438 182.628906 L 268.332031 186.855469 L 254.378906 186.855469 Z M 291.796875 186.855469 L 290.863281 182.628906 L 400.386719 182.628906 L 401.289062 186.855469 Z M 396.386719 163.839844 L 397.09375 167.160156 L 250.183594 167.160156 L 249.476562 163.839844 Z M 308.644531 249.980469 L 361.363281 249.980469 C 362.425781 249.980469 363.292969 249.113281 363.292969 248.050781 L 363.292969 223.742188 C 363.292969 222.675781 362.425781 221.8125 361.363281 221.8125 L 308.644531 221.8125 C 307.582031 221.8125 306.71875 222.675781 306.71875 223.742188 L 306.71875 248.050781 C 306.71875 249.113281 307.582031 249.980469 308.644531 249.980469 Z M 307.75 223.742188 C 307.75 223.246094 308.152344 222.847656 308.644531 222.847656 L 361.363281 222.847656 C 361.859375 222.847656 362.257812 223.246094 362.257812 223.742188 L 362.257812 248.050781 C 362.257812 248.546875 361.859375 248.945312 361.363281 248.945312 L 308.644531 248.945312 C 308.152344 248.945312 307.75 248.546875 307.75 248.050781 Z M 443.78125 222.683594 C 442.058594 221.390625 440.257812 220.933594 438.441406 221.316406 C 435.308594 221.980469 433 224.960938 432.066406 226.363281 C 431.132812 224.960938 428.820312 221.980469 425.6875 221.316406 C 423.867188 220.933594 422.070312 221.390625 420.347656 222.683594 C 417.976562 224.460938 417.390625 227.40625 418.65625 231.203125 C 420.820312 237.699219 427.964844 245.101562 432.066406 245.101562 C 436.167969 245.101562 443.3125 237.699219 445.476562 231.203125 C 446.738281 227.40625 446.15625 224.460938 443.78125 222.683594 Z M 444.496094 230.875 C 442.371094 237.246094 435.382812 244.066406 432.066406 244.066406 C 428.746094 244.066406 421.757812 237.246094 419.636719 230.875 C 418.859375 228.550781 418.460938 225.386719 420.96875 223.507812 C 422.113281 222.648438 423.28125 222.21875 424.457031 222.21875 C 424.792969 222.21875 425.132812 222.253906 425.46875 222.324219 C 429.050781 223.082031 431.589844 227.546875 431.613281 227.589844 C 431.707031 227.753906 431.878906 227.855469 432.066406 227.855469 C 432.253906 227.855469 432.425781 227.753906 432.515625 227.589844 C 432.542969 227.546875 435.070312 223.085938 438.65625 222.324219 C 440.171875 222.007812 441.6875 222.402344 443.164062 223.507812 C 445.667969 225.386719 445.269531 228.550781 444.496094 230.875 Z M 466.796875 191.148438 C 465.46875 190.148438 464.078125 189.792969 462.667969 190.09375 C 460.371094 190.578125 458.65625 192.679688 457.882812 193.800781 C 457.109375 192.679688 455.390625 190.578125 453.097656 190.09375 C 451.679688 189.792969 450.292969 190.148438 448.964844 191.148438 C 447.125 192.527344 446.667969 194.796875 447.644531 197.71875 C 449.289062 202.660156 454.742188 208.289062 457.882812 208.289062 C 461.019531 208.289062 466.472656 202.660156 468.121094 197.71875 C 469.09375 194.796875 468.636719 192.527344 466.796875 191.148438 Z M 467.140625 197.390625 C 465.550781 202.15625 460.347656 207.257812 457.882812 207.257812 C 455.414062 207.257812 450.210938 202.15625 448.621094 197.390625 C 448.050781 195.675781 447.753906 193.34375 449.582031 191.972656 C 450.425781 191.34375 451.28125 191.023438 452.140625 191.023438 C 452.386719 191.023438 452.632812 191.050781 452.878906 191.101562 C 455.523438 191.660156 457.414062 194.980469 457.429688 195.015625 C 457.613281 195.339844 458.148438 195.339844 458.332031 195.015625 C 458.351562 194.980469 460.242188 191.660156 462.882812 191.101562 C 463.992188 190.871094 465.097656 191.164062 466.179688 191.972656 C 468.011719 193.34375 467.710938 195.675781 467.140625 197.390625 Z M 434.882812 182.214844 C 437.054688 182.214844 440.8125 178.359375 441.9375 174.980469 C 442.609375 172.964844 442.273438 171.328125 440.988281 170.367188 C 440.054688 169.664062 439.074219 169.414062 438.070312 169.625 C 436.597656 169.9375 435.46875 171.195312 434.882812 171.996094 C 434.296875 171.195312 433.167969 169.9375 431.695312 169.625 C 430.699219 169.414062 429.714844 169.660156 428.777344 170.367188 C 427.496094 171.328125 427.15625 172.964844 427.828125 174.980469 C 428.957031 178.359375 432.714844 182.214844 434.882812 182.214844 Z M 429.394531 171.191406 C 429.9375 170.785156 430.46875 170.585938 431.007812 170.585938 C 431.164062 170.585938 431.320312 170.601562 431.480469 170.636719 C 433.183594 170.996094 434.421875 173.164062 434.433594 173.1875 C 434.617188 173.511719 435.152344 173.511719 435.335938 173.1875 C 435.347656 173.164062 436.582031 170.996094 438.289062 170.636719 C 438.996094 170.484375 439.675781 170.667969 440.371094 171.191406 C 441.296875 171.886719 441.492188 173.050781 440.960938 174.652344 C 439.929688 177.742188 436.457031 181.183594 434.882812 181.183594 C 433.308594 181.183594 429.839844 177.742188 428.808594 174.652344 C 428.273438 173.050781 428.472656 171.886719 429.394531 171.191406 Z M 310.992188 246.871094 L 337.355469 246.871094 C 338.078125 246.871094 338.664062 246.285156 338.664062 245.5625 L 338.664062 239.234375 C 338.664062 238.515625 338.078125 237.929688 337.355469 237.929688 L 310.992188 237.929688 C 310.273438 237.929688 309.6875 238.515625 309.6875 239.234375 L 309.6875 245.5625 C 309.6875 246.285156 310.273438 246.871094 310.992188 246.871094 Z M 311.574219 228.886719 C 312.59375 228.886719 313.421875 228.054688 313.421875 227.035156 C 313.421875 226.015625 312.59375 225.1875 311.574219 225.1875 C 310.554688 225.1875 309.726562 226.015625 309.726562 227.035156 C 309.726562 228.054688 310.554688 228.886719 311.574219 228.886719 Z M 311.574219 226.21875 C 312.023438 226.21875 312.390625 226.585938 312.390625 227.035156 C 312.390625 227.488281 312.023438 227.851562 311.574219 227.851562 C 311.125 227.851562 310.757812 227.488281 310.757812 227.035156 C 310.757812 226.585938 311.125 226.21875 311.574219 226.21875 Z M 315.765625 227.363281 L 316.105469 227.363281 L 316.582031 229.148438 L 317.261719 229.148438 L 316.710938 227.214844 C 316.996094 227.042969 317.164062 226.734375 317.164062 226.332031 L 317.164062 225.855469 C 317.164062 225.234375 316.761719 224.824219 316.136719 224.824219 L 315.113281 224.824219 L 315.113281 229.148438 L 315.765625 229.148438 Z M 315.765625 225.441406 L 316.105469 225.441406 C 316.359375 225.441406 316.507812 225.589844 316.507812 225.84375 L 316.507812 226.34375 C 316.507812 226.597656 316.359375 226.746094 316.105469 226.746094 L 315.765625 226.746094 Z M 319.65625 228.53125 L 318.453125 228.53125 L 318.453125 227.265625 L 319.410156 227.265625 L 319.410156 226.648438 L 318.453125 226.648438 L 318.453125 225.441406 L 319.65625 225.441406 L 319.65625 224.824219 L 317.796875 224.824219 L 317.796875 229.148438 L 319.65625 229.148438 Z M 321.175781 229.210938 C 321.785156 229.210938 322.199219 228.789062 322.199219 228.183594 L 322.199219 227.566406 L 321.558594 227.566406 L 321.558594 228.183594 C 321.558594 228.4375 321.402344 228.59375 321.179688 228.59375 C 320.957031 228.59375 320.804688 228.4375 320.804688 228.183594 L 320.804688 225.789062 C 320.804688 225.535156 320.957031 225.382812 321.179688 225.382812 C 321.402344 225.382812 321.558594 225.535156 321.558594 225.789062 L 321.558594 226.292969 L 322.199219 226.292969 L 322.199219 225.789062 C 322.199219 225.183594 321.785156 224.761719 321.175781 224.761719 C 320.5625 224.761719 320.148438 225.183594 320.148438 225.789062 L 320.148438 228.183594 C 320.148438 228.789062 320.5625 229.210938 321.175781 229.210938 Z M 400.277344 299.707031 L 360.335938 299.707031 C 359.144531 299.707031 358.171875 300.679688 358.171875 301.871094 L 358.171875 329.070312 C 358.171875 330.261719 359.144531 331.234375 360.335938 331.234375 L 400.277344 331.234375 C 401.472656 331.234375 402.441406 330.261719 402.441406 329.070312 L 402.441406 301.871094 C 402.441406 300.679688 401.472656 299.707031 400.277344 299.707031 Z M 401.410156 329.070312 C 401.410156 329.695312 400.902344 330.203125 400.277344 330.203125 L 360.335938 330.203125 C 359.710938 330.203125 359.207031 329.695312 359.207031 329.070312 L 359.207031 301.871094 C 359.207031 301.246094 359.710938 300.738281 360.335938 300.738281 L 400.277344 300.738281 C 400.902344 300.738281 401.410156 301.246094 401.410156 301.871094 Z M 401.925781 295.753906 L 358.6875 295.753906 C 358.402344 295.753906 358.171875 295.984375 358.171875 296.269531 C 358.171875 296.554688 358.402344 296.785156 358.6875 296.785156 L 401.925781 296.785156 C 402.210938 296.785156 402.441406 296.554688 402.441406 296.269531 C 402.441406 295.984375 402.210938 295.753906 401.925781 295.753906 Z M 401.925781 291.535156 L 358.6875 291.535156 C 358.402344 291.535156 358.171875 291.765625 358.171875 292.050781 C 358.171875 292.335938 358.402344 292.566406 358.6875 292.566406 L 401.925781 292.566406 C 402.210938 292.566406 402.441406 292.335938 402.441406 292.050781 C 402.441406 291.765625 402.210938 291.535156 401.925781 291.535156 Z M 401.925781 287.316406 L 381.890625 287.316406 C 381.605469 287.316406 381.375 287.546875 381.375 287.832031 C 381.375 288.117188 381.605469 288.347656 381.890625 288.347656 L 401.925781 288.347656 C 402.210938 288.347656 402.441406 288.117188 402.441406 287.832031 C 402.441406 287.546875 402.210938 287.316406 401.925781 287.316406 Z M 401.925781 283.097656 L 381.890625 283.097656 C 381.605469 283.097656 381.375 283.328125 381.375 283.613281 C 381.375 283.898438 381.605469 284.128906 381.890625 284.128906 L 401.925781 284.128906 C 402.210938 284.128906 402.441406 283.898438 402.441406 283.613281 C 402.441406 283.328125 402.210938 283.097656 401.925781 283.097656 Z M 119.902344 222.703125 C 119.992188 222.882812 120.171875 222.988281 120.363281 222.988281 C 120.402344 222.988281 120.441406 222.984375 120.480469 222.976562 C 120.714844 222.921875 120.878906 222.710938 120.878906 222.472656 L 120.878906 206.910156 L 129.808594 206.910156 C 130.09375 206.910156 130.328125 206.679688 130.328125 206.394531 L 130.328125 172.867188 C 130.328125 172.582031 130.09375 172.351562 129.808594 172.351562 L 60.671875 172.351562 C 60.386719 172.351562 60.15625 172.582031 60.15625 172.867188 L 60.15625 206.394531 C 60.15625 206.679688 60.386719 206.910156 60.671875 206.910156 L 112.003906 206.910156 Z M 61.1875 173.386719 L 129.292969 173.386719 L 129.292969 205.878906 L 120.363281 205.878906 C 120.078125 205.878906 119.847656 206.109375 119.847656 206.394531 L 119.847656 220.285156 L 112.785156 206.164062 C 112.699219 205.988281 112.519531 205.878906 112.324219 205.878906 L 61.1875 205.878906 Z M 117.324219 194.878906 C 117.472656 194.632812 117.390625 194.316406 117.144531 194.171875 C 116.898438 194.027344 116.582031 194.109375 116.4375 194.355469 C 115.320312 196.246094 111.441406 197.195312 108.609375 196.269531 C 108.273438 196.164062 107.964844 196.035156 107.671875 195.890625 C 108.933594 194.792969 109.878906 193.335938 110.421875 191.589844 C 111.21875 189.011719 111.105469 186.9375 110.117188 185.898438 C 109.585938 185.335938 108.824219 185.128906 108.03125 185.328125 C 106.761719 185.652344 105.09375 187.152344 104.226562 190.390625 C 103.648438 192.542969 104.292969 194.554688 105.867188 195.917969 C 104.707031 196.613281 103.339844 197.027344 101.832031 197.113281 C 99.503906 197.246094 97.382812 196.6875 95.933594 195.585938 C 97.511719 194.355469 98.851562 192.671875 99.683594 190.511719 C 101.265625 186.414062 101.414062 183.234375 100.09375 181.789062 C 99.515625 181.160156 98.722656 180.949219 97.855469 181.199219 C 96.203125 181.671875 93.929688 184.0625 92.972656 189.246094 C 92.507812 191.746094 92.972656 193.894531 94.308594 195.464844 C 92.21875 196.746094 89.816406 197.25 87.71875 197.015625 C 85.996094 196.816406 84.597656 196.320312 83.585938 195.558594 C 84.976562 194.523438 86.15625 193.085938 86.863281 191.089844 C 87.855469 188.292969 87.816406 186.03125 86.75 184.886719 C 86.210938 184.300781 85.441406 184.09375 84.648438 184.308594 C 83.335938 184.667969 81.65625 186.328125 80.867188 189.917969 C 80.429688 191.925781 80.726562 193.726562 81.730469 195.132812 C 81.796875 195.222656 81.863281 195.3125 81.9375 195.398438 C 77.921875 197.664062 72.710938 197.023438 72.636719 197.015625 C 72.359375 196.976562 72.09375 197.175781 72.054688 197.460938 C 72.019531 197.742188 72.21875 198 72.5 198.039062 C 72.582031 198.050781 78.3125 198.761719 82.683594 196.160156 C 83.867188 197.160156 85.539062 197.804688 87.601562 198.039062 C 89.980469 198.308594 92.714844 197.714844 95.058594 196.207031 C 96.558594 197.460938 98.746094 198.164062 101.164062 198.164062 C 101.40625 198.164062 101.648438 198.160156 101.894531 198.144531 C 103.742188 198.039062 105.402344 197.492188 106.777344 196.574219 C 107.230469 196.84375 107.738281 197.074219 108.289062 197.253906 C 111.25 198.21875 115.84375 197.390625 117.324219 194.878906 Z M 82.570312 194.53125 C 81.742188 193.371094 81.5 191.851562 81.875 190.140625 C 82.566406 186.996094 83.945312 185.570312 84.921875 185.304688 C 85.039062 185.273438 85.152344 185.257812 85.261719 185.257812 C 85.542969 185.257812 85.789062 185.367188 85.996094 185.589844 C 86.597656 186.238281 86.886719 187.933594 85.890625 190.746094 C 85.238281 192.585938 84.125 193.902344 82.8125 194.839844 C 82.726562 194.742188 82.648438 194.636719 82.570312 194.53125 Z M 95.152344 194.859375 C 93.960938 193.511719 93.570312 191.683594 93.988281 189.433594 C 94.800781 185.039062 96.710938 182.597656 98.140625 182.191406 C 98.28125 182.148438 98.414062 182.128906 98.542969 182.128906 C 98.847656 182.128906 99.113281 182.25 99.332031 182.484375 C 100.128906 183.355469 100.382812 185.824219 98.71875 190.140625 C 97.933594 192.171875 96.664062 193.746094 95.167969 194.878906 C 95.160156 194.871094 95.15625 194.867188 95.152344 194.859375 Z M 106.746094 195.308594 C 105.3125 194.195312 104.722656 192.511719 105.222656 190.65625 C 105.976562 187.847656 107.34375 186.570312 108.289062 186.332031 C 108.40625 186.300781 108.519531 186.285156 108.628906 186.285156 C 108.917969 186.285156 109.164062 186.394531 109.371094 186.609375 C 109.636719 186.890625 110.429688 188.058594 109.433594 191.285156 C 108.917969 192.945312 107.988281 194.316406 106.746094 195.308594 Z M 148.660156 142.742188 L 153.03125 144.417969 C 153.851562 144.734375 154.515625 145.628906 154.765625 146.757812 L 156.035156 152.515625 C 156.089844 152.753906 156.296875 152.921875 156.539062 152.921875 C 156.78125 152.921875 156.992188 152.753906 157.042969 152.515625 L 158.316406 146.757812 C 158.566406 145.628906 159.230469 144.734375 160.050781 144.417969 L 164.417969 142.742188 C 164.621094 142.664062 164.75 142.472656 164.75 142.257812 C 164.75 142.042969 164.621094 141.851562 164.417969 141.777344 L 160.050781 140.097656 C 159.230469 139.78125 158.566406 138.886719 158.316406 137.761719 L 157.042969 132 C 156.992188 131.765625 156.78125 131.59375 156.539062 131.59375 C 156.296875 131.59375 156.089844 131.765625 156.035156 132 L 154.765625 137.761719 C 154.515625 138.886719 153.851562 139.78125 153.03125 140.097656 L 148.660156 141.777344 C 148.460938 141.851562 148.332031 142.042969 148.332031 142.257812 C 148.332031 142.472656 148.460938 142.664062 148.660156 142.742188 Z M 153.398438 141.0625 C 154.558594 140.617188 155.445312 139.464844 155.773438 137.984375 L 156.539062 134.503906 L 157.308594 137.984375 C 157.636719 139.464844 158.523438 140.617188 159.683594 141.0625 L 162.796875 142.257812 L 159.683594 143.457031 C 158.523438 143.902344 157.636719 145.050781 157.308594 146.535156 L 156.539062 150.011719 L 155.773438 146.535156 C 155.445312 145.050781 154.558594 143.902344 153.398438 143.457031 L 150.285156 142.257812 Z M 189.289062 110.070312 C 200.023438 110.070312 208.757812 101.335938 208.757812 90.597656 C 208.757812 79.863281 200.023438 71.128906 189.289062 71.128906 C 178.550781 71.128906 169.816406 79.863281 169.816406 90.597656 C 169.816406 101.335938 178.550781 110.070312 189.289062 110.070312 Z M 189.289062 72.160156 C 199.453125 72.160156 207.726562 80.433594 207.726562 90.597656 C 207.726562 100.765625 199.453125 109.035156 189.289062 109.035156 C 179.121094 109.035156 170.851562 100.765625 170.851562 90.597656 C 170.851562 80.433594 179.121094 72.160156 189.289062 72.160156 Z M 178.246094 99.820312 L 197.847656 99.820312 C 199.5 99.820312 200.847656 98.472656 200.847656 96.820312 L 200.847656 89.734375 C 200.847656 88.078125 199.5 86.730469 197.847656 86.730469 L 195.023438 86.730469 C 195.625 81.453125 195.144531 78.195312 193.660156 77.539062 C 193.027344 77.257812 192.332031 77.488281 191.75 78.167969 C 191.070312 78.960938 190.699219 80.078125 190.304688 81.261719 C 189.964844 82.289062 189.613281 83.355469 189.03125 84.308594 C 188.074219 85.882812 184.515625 87.273438 183.132812 87.707031 L 178.246094 87.707031 C 177.960938 87.707031 177.726562 87.941406 177.726562 88.226562 L 177.726562 99.304688 C 177.726562 99.589844 177.960938 99.820312 178.246094 99.820312 Z M 189.914062 84.847656 C 190.554688 83.792969 190.945312 82.621094 191.285156 81.585938 C 191.644531 80.503906 191.984375 79.480469 192.53125 78.839844 C 192.65625 78.695312 192.980469 78.367188 193.242188 78.484375 C 193.867188 78.757812 194.714844 80.902344 193.929688 87.183594 C 193.910156 87.332031 193.957031 87.476562 194.054688 87.589844 C 194.152344 87.699219 194.292969 87.765625 194.441406 87.765625 L 197.847656 87.765625 C 198.933594 87.765625 199.816406 88.648438 199.816406 89.734375 L 199.816406 96.820312 C 199.816406 97.90625 198.933594 98.789062 197.847656 98.789062 L 183.730469 98.789062 L 183.730469 88.597656 C 184.929688 88.195312 188.734375 86.78125 189.914062 84.847656 Z M 178.761719 88.742188 L 182.699219 88.742188 L 182.699219 98.789062 L 178.761719 98.789062 Z M 219.761719 231.699219 C 217.242188 230.964844 212.199219 229.695312 206.757812 229.445312 C 206.523438 229.414062 206.324219 229.574219 206.246094 229.785156 C 205.527344 231.757812 206.847656 235.441406 209.628906 237.226562 C 210.421875 237.738281 211.601562 238.257812 213.105469 238.257812 C 215.046875 238.257812 217.539062 237.390625 220.457031 234.523438 C 220.890625 234.097656 221.0625 233.488281 220.910156 232.894531 C 220.765625 232.3125 220.335938 231.863281 219.761719 231.699219 Z M 219.730469 233.785156 C 216.277344 237.183594 212.886719 238.101562 210.1875 236.359375 C 207.917969 234.898438 206.871094 232.039062 207.125 230.5 C 212.300781 230.789062 217.0625 231.988281 219.472656 232.691406 C 219.789062 232.78125 219.882812 233.039062 219.910156 233.148438 C 219.96875 233.378906 219.902344 233.621094 219.730469 233.785156 Z M 219.730469 233.785156 " fill-opacity="1" fill-rule="nonzero"/></g></svg>