<svg xmlns="http://www.w3.org/2000/svg" xmlns:xlink="http://www.w3.org/1999/xlink" width="666" zoomAndPan="magnify" viewBox="0 0 499.5 473.999983" height="632" preserveAspectRatio="xMidYMid meet" version="1.0"><defs><clipPath id="dd000360c6"><path d="M 57.582031 180 L 187 180 L 187 308 L 57.582031 308 Z M 57.582031 180 " clip-rule="nonzero"/></clipPath><clipPath id="cd37dd27ef"><path d="M 109 105.511719 L 357 105.511719 L 357 429.1875 L 109 429.1875 Z M 109 105.511719 " clip-rule="nonzero"/></clipPath><clipPath id="a4839ea291"><path d="M 156 381 L 383.507812 381 L 383.507812 429 L 156 429 Z M 156 381 " clip-rule="nonzero"/></clipPath></defs><path fill="#a3e635" d="M 31.507812 353.277344 C 33.453125 361.941406 38.410156 371.441406 46.621094 381.800781 C 46.8125 382.039062 46.949219 382.300781 47.035156 382.574219 C 47.058594 382.640625 47.101562 382.691406 47.15625 382.722656 L 47.160156 382.738281 C 67.917969 406.535156 102.023438 439.542969 137.664062 455.804688 C 171.550781 471.265625 199.582031 473.035156 222 462.558594 L 222.003906 462.554688 C 229.078125 459.25 236.515625 455.585938 243.277344 449.855469 C 284.734375 414.726562 310.234375 393.785156 320.144531 389.191406 C 320.222656 389.152344 320.277344 389.082031 320.289062 389 L 320.292969 389.015625 C 320.480469 388.753906 320.679688 388.558594 320.816406 388.429688 L 320.859375 388.378906 L 320.859375 388.390625 C 324.734375 384.894531 354.511719 372.800781 408.179688 351.007812 L 413.148438 348.992188 L 440.554688 337.855469 C 456.246094 331.472656 468.511719 323.027344 476.175781 313.269531 C 492.144531 292.929688 497.992188 272.625 493.617188 253.125 C 490.324219 238.457031 481.257812 224.273438 466.425781 210.898438 C 454.773438 200.390625 436.410156 194.691406 413.324219 191.019531 C 412.847656 190.945312 412.421875 190.730469 412.082031 190.421875 L 412.085938 190.441406 C 412.046875 190.359375 411.96875 190.300781 411.875 190.292969 C 407.953125 189.878906 394.972656 189.851562 372.078125 189.84375 L 372.015625 189.84375 C 352.777344 189.839844 326.90625 189.832031 294.425781 189.515625 C 269.304688 189.269531 249.460938 183.058594 234.414062 176.957031 C 219.78125 171.023438 203.847656 162.792969 190.316406 148.273438 L 186.285156 143.945312 L 182.425781 139.800781 C 127.351562 80.691406 98.714844 50.28125 92.671875 48.300781 L 92.675781 48.320312 C 92.628906 48.269531 92.558594 48.238281 92.480469 48.238281 C 91.976562 48.253906 91.480469 48.105469 91.0625 47.824219 C 67.226562 31.636719 47.378906 27.234375 31.761719 34.730469 C 10.777344 44.800781 0.40625 64.273438 0.925781 92.230469 C 1.023438 97.566406 1.5625 102.804688 2.691406 107.84375 C 3.289062 110.507812 4.054688 113.113281 5.003906 115.648438 C 24.308594 167.105469 35.480469 202.40625 39.761719 221.488281 C 40.464844 224.625 40.980469 227.3125 41.320312 229.570312 L 41.324219 229.589844 C 41.324219 229.601562 41.324219 229.613281 41.328125 229.625 C 44.050781 247.980469 38.6875 284.496094 34.644531 311.984375 L 34.578125 312.449219 L 34.574219 312.449219 L 34.5625 312.53125 C 32.285156 328.039062 30.46875 340.464844 30.566406 345.6875 C 30.613281 348.140625 30.921875 350.671875 31.507812 353.277344 Z M 31.507812 353.277344 " fill-opacity="1" fill-rule="nonzero"/><path fill="#000000" d="M 32.234375 328.746094 C 44.144531 356.539062 65.726562 397.09375 93.703125 422.546875 C 120.0625 446.53125 145.046875 456.289062 168.457031 453.300781 C 175.882812 452.351562 183.707031 451.1875 191.519531 447.953125 C 242.09375 426.996094 272.03125 415.171875 280.910156 414.949219 L 279.296875 419.460938 C 278.304688 418.609375 277.769531 416.886719 278.980469 415.480469 L 278.984375 415.480469 C 279.40625 414.988281 279.917969 414.722656 280.191406 414.59375 C 284.75 412.445312 317.3125 410.035156 376.035156 405.589844 L 404.285156 403.445312 C 420.4375 402.214844 434.050781 398.101562 443.847656 391.472656 C 479.726562 367.191406 487.164062 334.011719 464.808594 295.574219 C 457.289062 282.648438 442.261719 272.109375 422.285156 262.015625 C 421.285156 261.511719 420.726562 260.417969 420.90625 259.3125 C 421.085938 258.207031 421.960938 257.34375 423.066406 257.179688 C 424.132812 257.023438 420.8125 257.109375 421.226562 259.90625 C 421.40625 261.140625 422.433594 261.621094 422.050781 261.371094 C 420.378906 260.269531 408.367188 256.382812 385.035156 248.898438 C 367.460938 243.261719 343.890625 235.699219 314.300781 225.894531 C 291.417969 218.316406 275.105469 206.828125 263.148438 196.851562 C 251.523438 187.148438 239.367188 174.960938 231.246094 157.707031 L 228.835938 152.585938 L 226.523438 147.675781 C 193.070312 76.597656 175.867188 40.585938 171.292969 37.941406 C 171.28125 37.9375 171.363281 37.984375 171.511719 38.019531 C 170.953125 37.882812 170.457031 37.5625 170.101562 37.109375 C 153.109375 15.402344 136.375 5.671875 120.070312 7.925781 C 98.105469 10.960938 83.015625 25.601562 75.335938 51.183594 C 73.09375 58.648438 71.859375 66.203125 72.222656 73.65625 C 75.210938 134.945312 74.542969 172.996094 72.03125 188.292969 C 69.125 205.976562 53.371094 238.023438 41.636719 261.9375 C 35 275.464844 29.707031 286.273438 28.277344 291.046875 C 25.375 300.71875 26.566406 313.136719 32.359375 328.523438 C 32.859375 329.851562 32.1875 331.332031 30.859375 331.832031 C 29.53125 332.332031 28.050781 331.660156 27.550781 330.335938 C 21.5625 314.425781 19.996094 300.761719 23.355469 289.570312 C 24.945312 284.269531 30.527344 272.917969 37.023438 259.675781 C 48.957031 235.355469 64.210938 204.191406 66.960938 187.460938 C 69.371094 172.789062 70.082031 135.269531 67.089844 73.90625 C 66.691406 65.722656 68.054688 57.570312 70.414062 49.707031 C 78.523438 22.695312 94.941406 6.210938 119.367188 2.835938 C 138.460938 0.195312 156.8125 11.792969 174.148438 33.941406 L 172.738281 33.03125 C 173.171875 33.136719 173.550781 33.3125 173.863281 33.492188 C 180.289062 37.207031 198.5 76.070312 231.171875 145.488281 L 233.484375 150.394531 L 235.894531 155.519531 C 243.558594 171.804688 255.078125 183.425781 266.441406 192.90625 C 278.097656 202.628906 293.847656 213.707031 315.917969 221.019531 C 345.503906 230.820312 369.011719 238.363281 386.605469 244.007812 C 409.203125 251.253906 422.429688 255.464844 424.878906 257.082031 C 424.875 257.078125 426.101562 257.761719 426.308594 259.15625 C 426.75 262.140625 423.210938 262.351562 423.816406 262.265625 L 424.601562 257.429688 C 444.703125 267.585938 460.925781 278.6875 469.25 292.992188 C 492.925781 333.699219 484.90625 369.886719 446.726562 395.726562 C 435.964844 403.007812 421.402344 407.292969 404.675781 408.566406 L 376.421875 410.710938 C 316.605469 415.242188 285.800781 417.628906 282.386719 419.242188 C 282.316406 419.273438 282.585938 419.167969 282.871094 418.839844 L 282.871094 418.835938 C 283.875 417.675781 283.367188 416.191406 282.652344 415.574219 C 283.457031 416.265625 283.75 417.382812 283.394531 418.382812 C 283.035156 419.382812 282.101562 420.058594 281.039062 420.085938 C 273.414062 420.277344 244.835938 431.421875 193.484375 452.699219 C 184.984375 456.222656 176.558594 457.445312 169.109375 458.398438 C 143.65625 461.648438 117.230469 450.902344 90.246094 426.347656 C 61.4375 400.140625 39.503906 358.757812 27.511719 330.769531 C 26.953125 329.464844 27.558594 327.957031 28.863281 327.398438 C 30.167969 326.839844 31.675781 327.441406 32.234375 328.746094 Z M 32.234375 328.746094 " fill-opacity="1" fill-rule="nonzero"/><g clip-path="url(#dd000360c6)"><path fill="#fab111" d="M 131.453125 184.539062 L 136.347656 189.621094 C 137.015625 190.332031 137.753906 190.960938 138.570312 191.5 C 139.382812 192.042969 140.25 192.484375 141.167969 192.820312 C 142.082031 193.160156 143.027344 193.390625 143.996094 193.507812 C 144.96875 193.625 145.9375 193.632812 146.910156 193.523438 L 154.476562 192.796875 C 155.335938 192.710938 156.199219 192.710938 157.0625 192.796875 C 157.921875 192.882812 158.765625 193.054688 159.59375 193.3125 C 160.421875 193.570312 161.214844 193.90625 161.972656 194.324219 C 162.734375 194.742188 163.441406 195.230469 164.101562 195.789062 C 164.765625 196.347656 165.363281 196.96875 165.898438 197.648438 C 166.433594 198.332031 166.894531 199.058594 167.285156 199.832031 C 167.675781 200.605469 167.984375 201.410156 168.210938 202.246094 C 168.4375 203.082031 168.578125 203.933594 168.632812 204.796875 L 169.121094 211.828125 C 169.171875 212.804688 169.335938 213.761719 169.613281 214.699219 C 169.890625 215.636719 170.269531 216.53125 170.753906 217.382812 C 171.238281 218.230469 171.8125 219.011719 172.480469 219.726562 C 173.148438 220.441406 173.890625 221.070312 174.703125 221.609375 L 180.964844 225.917969 C 181.679688 226.402344 182.339844 226.957031 182.945312 227.578125 C 183.550781 228.199219 184.085938 228.875 184.554688 229.601562 C 185.023438 230.332031 185.414062 231.097656 185.726562 231.90625 C 186.039062 232.714844 186.269531 233.542969 186.417969 234.398438 C 186.5625 235.253906 186.621094 236.113281 186.59375 236.976562 C 186.566406 237.84375 186.453125 238.699219 186.253906 239.539062 C 186.058594 240.382812 185.777344 241.199219 185.414062 241.984375 C 185.050781 242.769531 184.609375 243.511719 184.097656 244.210938 L 179.949219 249.910156 C 179.359375 250.691406 178.871094 251.53125 178.480469 252.425781 C 178.089844 253.324219 177.804688 254.25 177.632812 255.214844 C 177.457031 256.175781 177.394531 257.144531 177.449219 258.121094 C 177.5 259.097656 177.664062 260.054688 177.9375 260.992188 L 179.96875 268.316406 C 180.203125 269.148438 180.351562 270 180.417969 270.863281 C 180.480469 271.726562 180.457031 272.585938 180.347656 273.445312 C 180.238281 274.304688 180.042969 275.144531 179.765625 275.964844 C 179.488281 276.785156 179.128906 277.570312 178.691406 278.316406 C 178.253906 279.066406 177.75 279.761719 177.171875 280.40625 C 176.59375 281.054688 175.957031 281.636719 175.261719 282.152344 C 174.570312 282.671875 173.828125 283.113281 173.046875 283.484375 C 172.261719 283.851562 171.449219 284.140625 170.609375 284.34375 L 163.765625 286.042969 C 162.8125 286.265625 161.898438 286.59375 161.023438 287.027344 C 160.148438 287.460938 159.335938 287.992188 158.582031 288.617188 C 157.832031 289.242188 157.160156 289.941406 156.574219 290.722656 C 155.984375 291.503906 155.496094 292.34375 155.101562 293.238281 L 151.949219 300.15625 C 151.59375 300.945312 151.164062 301.691406 150.65625 302.394531 C 150.148438 303.097656 149.578125 303.742188 148.941406 304.328125 C 148.304688 304.917969 147.617188 305.433594 146.878906 305.882812 C 146.136719 306.332031 145.359375 306.703125 144.542969 306.996094 C 143.726562 307.289062 142.890625 307.496094 142.035156 307.621094 C 141.175781 307.742188 140.316406 307.78125 139.453125 307.730469 C 138.585938 307.679688 137.734375 307.546875 136.898438 307.324219 C 136.0625 307.101562 135.253906 306.800781 134.476562 306.417969 L 128.144531 303.320312 C 127.273438 302.878906 126.359375 302.539062 125.410156 302.3125 C 124.460938 302.082031 123.496094 301.964844 122.519531 301.960938 C 121.542969 301.953125 120.578125 302.0625 119.625 302.28125 C 118.671875 302.503906 117.757812 302.832031 116.882812 303.265625 L 110.019531 306.535156 C 109.242188 306.910156 108.429688 307.207031 107.59375 307.417969 C 106.753906 307.632812 105.898438 307.757812 105.035156 307.800781 C 104.167969 307.839844 103.308594 307.796875 102.453125 307.664062 C 101.597656 307.53125 100.761719 307.316406 99.949219 307.015625 C 99.136719 306.714844 98.363281 306.335938 97.628906 305.878906 C 96.890625 305.421875 96.207031 304.898438 95.578125 304.304688 C 94.945312 303.710938 94.382812 303.058594 93.882812 302.351562 C 93.382812 301.644531 92.960938 300.894531 92.613281 300.101562 L 89.75 293.65625 C 89.367188 292.757812 88.886719 291.914062 88.304688 291.125 C 87.726562 290.339844 87.0625 289.628906 86.316406 288.996094 C 85.570312 288.367188 84.761719 287.828125 83.890625 287.382812 C 83.019531 286.941406 82.109375 286.605469 81.160156 286.375 L 73.800781 284.46875 C 72.960938 284.253906 72.152344 283.960938 71.371094 283.585938 C 70.59375 283.207031 69.859375 282.757812 69.167969 282.234375 C 68.480469 281.707031 67.847656 281.121094 67.277344 280.46875 C 66.707031 279.816406 66.207031 279.117188 65.777344 278.363281 C 65.347656 277.609375 65 276.824219 64.726562 276 C 64.457031 275.179688 64.273438 274.335938 64.171875 273.476562 C 64.070312 272.617188 64.054688 271.753906 64.128906 270.890625 C 64.199219 270.027344 64.359375 269.183594 64.601562 268.351562 L 66.550781 261.574219 C 66.835938 260.640625 67.007812 259.683594 67.070312 258.707031 C 67.128906 257.734375 67.078125 256.761719 66.914062 255.800781 C 66.75 254.835938 66.476562 253.90625 66.09375 253.003906 C 65.710938 252.105469 65.230469 251.261719 64.648438 250.472656 L 60.238281 244.285156 C 59.734375 243.582031 59.304688 242.835938 58.949219 242.046875 C 58.59375 241.257812 58.320312 240.441406 58.128906 239.59375 C 57.9375 238.75 57.832031 237.894531 57.8125 237.027344 C 57.796875 236.164062 57.863281 235.304688 58.019531 234.453125 C 58.171875 233.597656 58.410156 232.769531 58.734375 231.96875 C 59.054688 231.164062 59.453125 230.398438 59.929688 229.675781 C 60.402344 228.949219 60.945312 228.28125 61.554688 227.667969 C 62.167969 227.050781 62.832031 226.503906 63.554688 226.023438 L 69.402344 222.085938 C 70.222656 221.554688 70.96875 220.933594 71.640625 220.226562 C 72.316406 219.515625 72.898438 218.742188 73.394531 217.894531 C 73.886719 217.050781 74.273438 216.164062 74.558594 215.226562 C 74.847656 214.292969 75.019531 213.335938 75.082031 212.363281 L 75.679688 204.785156 C 75.742188 203.921875 75.894531 203.074219 76.128906 202.238281 C 76.363281 201.40625 76.679688 200.605469 77.078125 199.832031 C 77.472656 199.0625 77.945312 198.339844 78.484375 197.667969 C 79.027344 196.992188 79.632812 196.375 80.300781 195.824219 C 80.964844 195.269531 81.679688 194.789062 82.445312 194.378906 C 83.207031 193.96875 84.003906 193.640625 84.832031 193.390625 C 85.664062 193.140625 86.507812 192.976562 87.371094 192.898438 C 88.234375 192.820312 89.09375 192.828125 89.957031 192.925781 L 96.96875 193.667969 C 97.9375 193.785156 98.910156 193.792969 99.878906 193.683594 C 100.851562 193.574219 101.796875 193.355469 102.71875 193.023438 C 103.636719 192.695312 104.507812 192.261719 105.328125 191.730469 C 106.148438 191.195312 106.894531 190.578125 107.570312 189.871094 L 112.898438 184.449219 C 113.5 183.828125 114.164062 183.273438 114.878906 182.789062 C 115.59375 182.300781 116.351562 181.890625 117.152344 181.554688 C 117.949219 181.21875 118.773438 180.96875 119.625 180.800781 C 120.472656 180.632812 121.332031 180.550781 122.195312 180.554688 C 123.0625 180.558594 123.917969 180.648438 124.769531 180.824219 C 125.617188 181.003906 126.4375 181.261719 127.234375 181.605469 C 128.027344 181.949219 128.78125 182.367188 129.492188 182.859375 C 130.203125 183.355469 130.859375 183.914062 131.457031 184.539062 Z M 122.203125 211.144531 C 121.121094 211.144531 120.042969 211.195312 118.964844 211.300781 C 117.886719 211.40625 116.816406 211.566406 115.753906 211.777344 C 114.691406 211.988281 113.644531 212.253906 112.605469 212.566406 C 111.570312 212.878906 110.550781 213.246094 109.550781 213.660156 C 108.550781 214.074219 107.574219 214.535156 106.617188 215.046875 C 105.664062 215.558594 104.738281 216.113281 103.835938 216.714844 C 102.9375 217.316406 102.066406 217.960938 101.230469 218.648438 C 100.394531 219.335938 99.59375 220.0625 98.828125 220.828125 C 98.0625 221.59375 97.335938 222.394531 96.648438 223.230469 C 95.960938 224.066406 95.316406 224.9375 94.714844 225.835938 C 94.113281 226.738281 93.558594 227.664062 93.046875 228.621094 C 92.535156 229.574219 92.074219 230.550781 91.660156 231.550781 C 91.246094 232.554688 90.878906 233.570312 90.566406 234.605469 C 90.253906 235.644531 89.988281 236.691406 89.777344 237.753906 C 89.566406 238.816406 89.40625 239.886719 89.300781 240.964844 C 89.195312 242.042969 89.144531 243.121094 89.144531 244.203125 C 89.144531 245.289062 89.195312 246.367188 89.300781 247.445312 C 89.40625 248.523438 89.566406 249.59375 89.777344 250.65625 C 89.988281 251.714844 90.253906 252.765625 90.566406 253.800781 C 90.878906 254.839844 91.246094 255.855469 91.660156 256.855469 C 92.074219 257.855469 92.535156 258.835938 93.046875 259.789062 C 93.558594 260.746094 94.113281 261.671875 94.714844 262.574219 C 95.316406 263.472656 95.960938 264.339844 96.648438 265.179688 C 97.335938 266.015625 98.0625 266.816406 98.828125 267.582031 C 99.59375 268.347656 100.394531 269.074219 101.230469 269.761719 C 102.066406 270.449219 102.9375 271.09375 103.835938 271.695312 C 104.738281 272.296875 105.664062 272.851562 106.621094 273.363281 C 107.574219 273.871094 108.550781 274.335938 109.550781 274.75 C 110.554688 275.164062 111.570312 275.527344 112.605469 275.84375 C 113.644531 276.15625 114.691406 276.417969 115.753906 276.632812 C 116.816406 276.84375 117.886719 277 118.964844 277.105469 C 120.042969 277.214844 121.121094 277.265625 122.203125 277.265625 C 123.289062 277.265625 124.367188 277.214844 125.445312 277.105469 C 126.523438 277 127.59375 276.84375 128.65625 276.632812 C 129.714844 276.417969 130.765625 276.15625 131.800781 275.84375 C 132.839844 275.527344 133.855469 275.164062 134.855469 274.75 C 135.855469 274.335938 136.835938 273.871094 137.789062 273.363281 C 138.746094 272.851562 139.671875 272.296875 140.574219 271.695312 C 141.472656 271.09375 142.34375 270.449219 143.179688 269.761719 C 144.015625 269.074219 144.816406 268.347656 145.582031 267.582031 C 146.347656 266.816406 147.074219 266.015625 147.761719 265.179688 C 148.449219 264.339844 149.09375 263.472656 149.695312 262.574219 C 150.296875 261.671875 150.851562 260.746094 151.363281 259.789062 C 151.875 258.835938 152.335938 257.855469 152.75 256.855469 C 153.164062 255.855469 153.527344 254.839844 153.84375 253.800781 C 154.15625 252.765625 154.421875 251.714844 154.632812 250.65625 C 154.84375 249.59375 155 248.523438 155.105469 247.445312 C 155.214844 246.367188 155.265625 245.289062 155.265625 244.203125 C 155.265625 243.121094 155.214844 242.042969 155.105469 240.964844 C 155 239.886719 154.84375 238.816406 154.632812 237.753906 C 154.417969 236.691406 154.15625 235.644531 153.84375 234.605469 C 153.527344 233.570312 153.164062 232.554688 152.75 231.550781 C 152.335938 230.550781 151.871094 229.574219 151.363281 228.621094 C 150.851562 227.664062 150.296875 226.738281 149.695312 225.835938 C 149.09375 224.9375 148.449219 224.066406 147.761719 223.230469 C 147.074219 222.394531 146.347656 221.59375 145.582031 220.828125 C 144.816406 220.0625 144.015625 219.335938 143.179688 218.648438 C 142.339844 217.960938 141.472656 217.316406 140.570312 216.714844 C 139.671875 216.113281 138.742188 215.558594 137.789062 215.046875 C 136.835938 214.535156 135.855469 214.074219 134.855469 213.660156 C 133.855469 213.246094 132.835938 212.882812 131.800781 212.566406 C 130.765625 212.253906 129.714844 211.988281 128.652344 211.777344 C 127.59375 211.566406 126.523438 211.40625 125.445312 211.300781 C 124.367188 211.195312 123.285156 211.144531 122.203125 211.144531 Z M 122.203125 211.144531 " fill-opacity="1" fill-rule="evenodd"/></g><g clip-path="url(#cd37dd27ef)"><path fill="#5ca3ff" d="M 356.023438 373.621094 L 356.023438 105.515625 L 109.78125 105.515625 L 109.78125 176.5625 C 110.796875 175.824219 111.867188 175.179688 113 174.632812 C 114.128906 174.085938 115.300781 173.644531 116.511719 173.308594 C 117.722656 172.96875 118.953125 172.746094 120.203125 172.628906 C 121.453125 172.515625 122.707031 172.511719 123.957031 172.621094 C 125.210938 172.730469 126.441406 172.953125 127.652344 173.285156 C 128.863281 173.617188 130.039062 174.054688 131.171875 174.59375 C 132.304688 175.136719 133.378906 175.777344 134.398438 176.511719 C 135.414062 177.25 136.359375 178.070312 137.230469 178.976562 L 142.125 184.054688 C 142.628906 184.621094 143.238281 185.035156 143.949219 185.300781 C 144.660156 185.5625 145.394531 185.644531 146.144531 185.542969 L 153.710938 184.8125 C 154.988281 184.6875 156.265625 184.683594 157.546875 184.792969 C 158.824219 184.902344 160.082031 185.128906 161.320312 185.46875 C 162.554688 185.8125 163.75 186.261719 164.90625 186.824219 C 166.058594 187.382812 167.152344 188.046875 168.1875 188.808594 C 169.21875 189.570312 170.171875 190.421875 171.050781 191.359375 C 171.925781 192.296875 172.707031 193.304688 173.398438 194.386719 C 174.089844 195.46875 174.675781 196.605469 175.15625 197.792969 C 175.640625 198.984375 176.007812 200.207031 176.265625 201.464844 L 325.058594 201.464844 C 325.320312 201.464844 325.582031 201.488281 325.839844 201.539062 C 326.097656 201.59375 326.347656 201.667969 326.59375 201.769531 C 326.835938 201.871094 327.066406 201.992188 327.285156 202.140625 C 327.503906 202.285156 327.707031 202.453125 327.894531 202.636719 C 328.078125 202.824219 328.246094 203.027344 328.390625 203.246094 C 328.539062 203.464844 328.660156 203.695312 328.761719 203.9375 C 328.863281 204.183594 328.9375 204.433594 328.992188 204.691406 C 329.042969 204.949219 329.066406 205.210938 329.066406 205.472656 C 329.066406 205.734375 329.042969 205.996094 328.992188 206.253906 C 328.9375 206.511719 328.863281 206.765625 328.761719 207.007812 C 328.660156 207.25 328.539062 207.480469 328.390625 207.699219 C 328.246094 207.917969 328.078125 208.121094 327.894531 208.308594 C 327.707031 208.492188 327.503906 208.660156 327.285156 208.804688 C 327.066406 208.953125 326.835938 209.078125 326.59375 209.175781 C 326.347656 209.277344 326.097656 209.355469 325.839844 209.40625 C 325.582031 209.457031 325.320312 209.480469 325.058594 209.480469 L 176.996094 209.480469 C 177.15625 211.808594 177.039062 213.488281 179.246094 215.003906 L 185.507812 219.308594 C 186.429688 219.941406 187.296875 220.644531 188.109375 221.417969 C 188.921875 222.191406 189.664062 223.023438 190.34375 223.914062 C 191.019531 224.804688 191.621094 225.746094 192.148438 226.734375 C 192.675781 227.722656 193.121094 228.746094 193.484375 229.804688 C 193.847656 230.863281 194.125 231.945312 194.316406 233.050781 C 194.507812 234.152344 194.609375 235.265625 194.621094 236.386719 C 194.632812 237.503906 194.554688 238.621094 194.390625 239.726562 C 194.222656 240.835938 193.972656 241.921875 193.632812 242.988281 L 325.058594 242.988281 C 325.320312 242.988281 325.582031 243.015625 325.839844 243.066406 C 326.097656 243.117188 326.347656 243.195312 326.59375 243.292969 C 326.835938 243.394531 327.066406 243.519531 327.285156 243.664062 C 327.503906 243.8125 327.707031 243.976562 327.894531 244.164062 C 328.078125 244.347656 328.246094 244.550781 328.390625 244.769531 C 328.539062 244.988281 328.660156 245.222656 328.761719 245.464844 C 328.863281 245.707031 328.9375 245.957031 328.992188 246.214844 C 329.042969 246.472656 329.066406 246.734375 329.066406 247 C 329.066406 247.261719 329.042969 247.523438 328.992188 247.78125 C 328.9375 248.039062 328.863281 248.289062 328.761719 248.53125 C 328.660156 248.777344 328.539062 249.007812 328.390625 249.226562 C 328.246094 249.445312 328.078125 249.648438 327.894531 249.832031 C 327.707031 250.019531 327.503906 250.183594 327.285156 250.332031 C 327.066406 250.476562 326.835938 250.601562 326.59375 250.703125 C 326.347656 250.804688 326.097656 250.878906 325.839844 250.929688 C 325.582031 250.980469 325.320312 251.007812 325.058594 251.007812 L 189.066406 251.007812 L 186.429688 254.628906 C 185.960938 255.226562 185.65625 255.898438 185.523438 256.644531 C 185.386719 257.390625 185.433594 258.125 185.664062 258.847656 L 187.691406 266.171875 C 188.132812 267.734375 188.386719 269.324219 188.457031 270.945312 C 188.527344 272.566406 188.40625 274.171875 188.097656 275.765625 C 187.792969 277.355469 187.304688 278.890625 186.636719 280.371094 C 185.96875 281.847656 185.140625 283.230469 184.152344 284.515625 L 325.054688 284.515625 C 325.316406 284.515625 325.578125 284.539062 325.835938 284.589844 C 326.09375 284.644531 326.34375 284.71875 326.589844 284.820312 C 326.832031 284.921875 327.0625 285.042969 327.28125 285.191406 C 327.5 285.335938 327.703125 285.503906 327.890625 285.6875 C 328.074219 285.875 328.242188 286.078125 328.386719 286.296875 C 328.535156 286.515625 328.65625 286.746094 328.757812 286.988281 C 328.859375 287.234375 328.933594 287.484375 328.984375 287.742188 C 329.039062 288 329.0625 288.261719 329.0625 288.523438 C 329.0625 288.785156 329.039062 289.046875 328.984375 289.304688 C 328.933594 289.5625 328.859375 289.816406 328.757812 290.058594 C 328.65625 290.300781 328.535156 290.53125 328.386719 290.75 C 328.242188 290.96875 328.074219 291.171875 327.890625 291.359375 C 327.703125 291.542969 327.5 291.710938 327.28125 291.855469 C 327.0625 292.003906 326.832031 292.125 326.589844 292.226562 C 326.34375 292.328125 326.09375 292.402344 325.835938 292.457031 C 325.578125 292.507812 325.316406 292.53125 325.054688 292.53125 L 171.835938 292.53125 L 171.835938 326.039062 L 325.054688 326.039062 C 325.316406 326.039062 325.578125 326.066406 325.835938 326.117188 C 326.09375 326.167969 326.34375 326.242188 326.589844 326.34375 C 326.832031 326.445312 327.0625 326.570312 327.28125 326.714844 C 327.5 326.863281 327.703125 327.027344 327.890625 327.214844 C 328.074219 327.398438 328.242188 327.601562 328.386719 327.820312 C 328.535156 328.039062 328.65625 328.269531 328.757812 328.515625 C 328.859375 328.757812 328.933594 329.007812 328.984375 329.265625 C 329.039062 329.523438 329.0625 329.785156 329.0625 330.046875 C 329.0625 330.3125 329.039062 330.574219 328.984375 330.832031 C 328.933594 331.089844 328.859375 331.339844 328.757812 331.582031 C 328.65625 331.828125 328.535156 332.058594 328.386719 332.277344 C 328.242188 332.496094 328.074219 332.699219 327.890625 332.882812 C 327.703125 333.070312 327.5 333.234375 327.28125 333.382812 C 327.0625 333.527344 326.832031 333.652344 326.589844 333.753906 C 326.34375 333.855469 326.09375 333.929688 325.835938 333.980469 C 325.578125 334.03125 325.316406 334.058594 325.054688 334.058594 L 171.835938 334.058594 L 171.835938 349.027344 C 171.835938 349.550781 171.78125 350.074219 171.679688 350.589844 C 171.574219 351.105469 171.421875 351.605469 171.222656 352.089844 C 171.019531 352.578125 170.773438 353.039062 170.480469 353.476562 C 170.1875 353.914062 169.855469 354.320312 169.484375 354.691406 C 169.109375 355.0625 168.707031 355.394531 168.269531 355.6875 C 167.832031 355.980469 167.371094 356.226562 166.882812 356.429688 C 166.398438 356.632812 165.898438 356.785156 165.378906 356.886719 C 164.863281 356.992188 164.34375 357.042969 163.816406 357.042969 L 129.558594 357.042969 C 129.03125 357.042969 128.511719 356.992188 127.996094 356.886719 C 127.480469 356.785156 126.980469 356.632812 126.492188 356.429688 C 126.007812 356.226562 125.546875 355.980469 125.109375 355.6875 C 124.671875 355.394531 124.265625 355.0625 123.894531 354.691406 C 123.519531 354.320312 123.1875 353.914062 122.894531 353.476562 C 122.605469 353.039062 122.355469 352.578125 122.15625 352.09375 C 121.953125 351.605469 121.800781 351.105469 121.695312 350.589844 C 121.59375 350.074219 121.542969 349.550781 121.539062 349.027344 L 121.539062 337.878906 C 121.175781 338.433594 120.75 338.933594 120.257812 339.378906 C 119.769531 339.824219 119.234375 340.207031 118.652344 340.519531 C 118.070312 340.835938 117.457031 341.074219 116.816406 341.234375 C 116.171875 341.398438 115.519531 341.480469 114.859375 341.480469 L 109.78125 341.480469 L 109.78125 400.316406 C 109.785156 401.25 109.832031 402.183594 109.925781 403.117188 C 110.019531 404.046875 110.160156 404.972656 110.34375 405.890625 C 110.53125 406.808594 110.757812 407.714844 111.03125 408.609375 C 111.308594 409.503906 111.625 410.386719 111.984375 411.25 C 112.34375 412.113281 112.742188 412.957031 113.1875 413.785156 C 113.628906 414.609375 114.109375 415.410156 114.628906 416.1875 C 115.152344 416.964844 115.707031 417.714844 116.304688 418.441406 C 116.898438 419.164062 117.523438 419.855469 118.1875 420.519531 C 118.847656 421.179688 119.542969 421.808594 120.265625 422.402344 C 120.988281 422.996094 121.738281 423.554688 122.515625 424.074219 C 123.296875 424.59375 124.097656 425.078125 124.921875 425.519531 C 125.746094 425.960938 126.589844 426.363281 127.457031 426.722656 C 128.320312 427.082031 129.199219 427.398438 130.09375 427.671875 C 130.992188 427.945312 131.898438 428.175781 132.816406 428.359375 C 133.734375 428.542969 134.65625 428.683594 135.589844 428.777344 C 136.519531 428.875 137.453125 428.921875 138.390625 428.925781 C 138.875 428.925781 139.34375 429.007812 139.800781 429.179688 C 139.941406 429.128906 140.085938 429.085938 140.234375 429.050781 C 157.414062 424.941406 164.746094 404.1875 153.707031 390.175781 C 152.046875 388.0625 150.09375 386.269531 147.839844 384.800781 C 145.589844 383.332031 143.164062 382.265625 140.558594 381.597656 C 135.445312 380.566406 136.476562 373.621094 141.15625 373.621094 Z M 150.503906 158.929688 C 150.242188 158.929688 149.980469 158.902344 149.722656 158.851562 C 149.464844 158.800781 149.214844 158.722656 148.96875 158.625 C 148.726562 158.523438 148.496094 158.398438 148.277344 158.253906 C 148.058594 158.105469 147.855469 157.941406 147.667969 157.753906 C 147.484375 157.570312 147.316406 157.367188 147.171875 157.148438 C 147.023438 156.929688 146.902344 156.695312 146.800781 156.453125 C 146.699219 156.210938 146.625 155.960938 146.570312 155.703125 C 146.519531 155.445312 146.496094 155.183594 146.496094 154.917969 C 146.496094 154.65625 146.519531 154.394531 146.570312 154.136719 C 146.625 153.878906 146.699219 153.628906 146.800781 153.386719 C 146.902344 153.140625 147.023438 152.910156 147.171875 152.691406 C 147.316406 152.472656 147.484375 152.269531 147.667969 152.085938 C 147.855469 151.898438 148.058594 151.730469 148.277344 151.585938 C 148.496094 151.441406 148.726562 151.316406 148.96875 151.214844 C 149.214844 151.113281 149.464844 151.039062 149.722656 150.988281 C 149.980469 150.9375 150.242188 150.910156 150.503906 150.910156 L 245.292969 150.910156 C 245.554688 150.910156 245.816406 150.9375 246.074219 150.988281 C 246.332031 151.039062 246.582031 151.113281 246.824219 151.214844 C 247.070312 151.316406 247.300781 151.441406 247.519531 151.585938 C 247.738281 151.730469 247.941406 151.898438 248.125 152.085938 C 248.3125 152.269531 248.476562 152.472656 248.625 152.691406 C 248.769531 152.910156 248.894531 153.140625 248.996094 153.386719 C 249.097656 153.628906 249.171875 153.878906 249.222656 154.136719 C 249.273438 154.394531 249.300781 154.65625 249.300781 154.917969 C 249.300781 155.183594 249.273438 155.445312 249.222656 155.703125 C 249.171875 155.960938 249.097656 156.210938 248.996094 156.453125 C 248.894531 156.695312 248.769531 156.929688 248.625 157.148438 C 248.476562 157.367188 248.3125 157.570312 248.125 157.753906 C 247.941406 157.941406 247.738281 158.105469 247.519531 158.253906 C 247.300781 158.398438 247.070312 158.523438 246.824219 158.625 C 246.582031 158.722656 246.332031 158.800781 246.074219 158.851562 C 245.816406 158.902344 245.554688 158.929688 245.292969 158.929688 Z M 150.503906 158.929688 " fill-opacity="1" fill-rule="evenodd"/></g><g clip-path="url(#a4839ea291)"><path fill="#1f80ff" d="M 383.058594 405.28125 C 383.058594 404.507812 383.015625 403.738281 382.9375 402.96875 C 382.859375 402.199219 382.746094 401.433594 382.59375 400.675781 C 382.4375 399.917969 382.25 399.167969 382.023438 398.429688 C 381.796875 397.6875 381.535156 396.960938 381.238281 396.246094 C 380.941406 395.535156 380.609375 394.835938 380.246094 394.152344 C 379.878906 393.472656 379.480469 392.808594 379.050781 392.167969 C 378.621094 391.523438 378.160156 390.902344 377.667969 390.304688 C 377.179688 389.707031 376.660156 389.136719 376.113281 388.589844 C 375.566406 388.042969 374.992188 387.523438 374.394531 387.03125 C 373.796875 386.539062 373.175781 386.078125 372.535156 385.648438 C 371.890625 385.21875 371.230469 384.820312 370.546875 384.457031 C 369.867188 384.089844 369.167969 383.757812 368.453125 383.460938 C 367.738281 383.164062 367.011719 382.902344 366.273438 382.675781 C 365.535156 382.449219 364.785156 382.261719 364.027344 382.109375 C 363.269531 381.953125 362.503906 381.839844 361.734375 381.761719 C 360.964844 381.683594 360.191406 381.640625 359.417969 381.640625 L 156.710938 381.640625 C 157.515625 382.394531 158.28125 383.191406 159.003906 384.027344 C 159.730469 384.859375 160.410156 385.730469 161.042969 386.632812 C 161.679688 387.535156 162.265625 388.46875 162.808594 389.433594 C 163.347656 390.398438 163.835938 391.386719 164.277344 392.402344 C 164.714844 393.414062 165.101562 394.449219 165.433594 395.5 C 165.769531 396.554688 166.046875 397.621094 166.269531 398.703125 C 166.496094 399.785156 166.664062 400.878906 166.777344 401.976562 C 166.886719 403.074219 166.945312 404.175781 166.945312 405.28125 C 166.945312 406.386719 166.886719 407.488281 166.777344 408.589844 C 166.664062 409.6875 166.496094 410.777344 166.269531 411.859375 C 166.046875 412.941406 165.769531 414.007812 165.433594 415.0625 C 165.101562 416.117188 164.714844 417.148438 164.277344 418.164062 C 163.835938 419.179688 163.347656 420.167969 162.808594 421.128906 C 162.265625 422.09375 161.679688 423.027344 161.042969 423.933594 C 160.410156 424.835938 159.730469 425.707031 159.003906 426.539062 C 158.28125 427.375 157.515625 428.167969 156.710938 428.925781 L 359.417969 428.925781 C 360.191406 428.921875 360.964844 428.882812 361.734375 428.804688 C 362.503906 428.726562 363.269531 428.609375 364.027344 428.457031 C 364.785156 428.304688 365.535156 428.113281 366.273438 427.890625 C 367.011719 427.664062 367.738281 427.402344 368.453125 427.105469 C 369.167969 426.804688 369.867188 426.476562 370.546875 426.109375 C 371.230469 425.742188 371.890625 425.347656 372.535156 424.914062 C 373.175781 424.484375 373.796875 424.023438 374.394531 423.535156 C 374.992188 423.042969 375.566406 422.523438 376.113281 421.976562 C 376.660156 421.429688 377.179688 420.855469 377.667969 420.257812 C 378.160156 419.660156 378.621094 419.042969 379.050781 418.398438 C 379.480469 417.753906 379.878906 417.09375 380.246094 416.410156 C 380.609375 415.730469 380.941406 415.03125 381.238281 414.316406 C 381.535156 413.601562 381.796875 412.875 382.023438 412.136719 C 382.25 411.398438 382.4375 410.648438 382.59375 409.890625 C 382.746094 409.132812 382.859375 408.367188 382.9375 407.597656 C 383.015625 406.828125 383.058594 406.054688 383.058594 405.28125 Z M 383.058594 405.28125 " fill-opacity="1" fill-rule="evenodd"/></g><path fill="#f23353" d="M 163.820312 294.691406 L 163.820312 349.027344 L 129.558594 349.027344 L 129.558594 312.933594 L 130.957031 313.617188 C 131.585938 313.925781 132.226562 314.203125 132.882812 314.449219 C 133.535156 314.691406 134.203125 314.902344 134.878906 315.082031 C 135.554688 315.257812 136.238281 315.402344 136.929688 315.511719 C 137.617188 315.621094 138.3125 315.695312 139.011719 315.734375 C 139.707031 315.773438 140.40625 315.777344 141.105469 315.746094 C 141.804688 315.714844 142.5 315.652344 143.191406 315.550781 C 143.882812 315.449219 144.566406 315.316406 145.246094 315.148438 C 145.925781 314.976562 146.59375 314.777344 147.25 314.539062 C 147.910156 314.304688 148.554688 314.035156 149.183594 313.734375 C 149.816406 313.433594 150.429688 313.105469 151.027344 312.742188 C 151.625 312.378906 152.203125 311.988281 152.761719 311.570312 C 153.320312 311.148438 153.859375 310.703125 154.371094 310.226562 C 154.886719 309.753906 155.375 309.253906 155.839844 308.734375 C 156.304688 308.210938 156.738281 307.664062 157.148438 307.097656 C 157.558594 306.53125 157.9375 305.945312 158.289062 305.339844 C 158.640625 304.738281 158.960938 304.117188 159.25 303.480469 L 162.402344 296.5625 C 162.71875 295.820312 163.191406 295.195312 163.820312 294.691406 Z M 163.820312 294.691406 " fill-opacity="1" fill-rule="evenodd"/><path fill="#f23353" d="M 114.851562 313.113281 L 114.851562 333.460938 L 80.589844 333.460938 L 80.589844 294.726562 C 81.4375 295.253906 82.046875 295.984375 82.421875 296.910156 L 85.285156 303.355469 C 85.566406 303.992188 85.878906 304.617188 86.222656 305.226562 C 86.570312 305.832031 86.941406 306.421875 87.347656 306.992188 C 87.75 307.5625 88.183594 308.113281 88.640625 308.640625 C 89.097656 309.167969 89.582031 309.671875 90.09375 310.148438 C 90.601562 310.628906 91.132812 311.082031 91.6875 311.507812 C 92.242188 311.933594 92.816406 312.328125 93.410156 312.695312 C 94.007812 313.066406 94.617188 313.402344 95.246094 313.707031 C 95.875 314.015625 96.515625 314.289062 97.171875 314.53125 C 97.828125 314.773438 98.492188 314.984375 99.171875 315.160156 C 99.847656 315.335938 100.53125 315.476562 101.222656 315.582031 C 101.910156 315.691406 102.605469 315.761719 103.304688 315.800781 C 104.003906 315.835938 104.699219 315.839844 105.398438 315.808594 C 106.097656 315.773438 106.792969 315.707031 107.484375 315.605469 C 108.175781 315.503906 108.859375 315.367188 109.539062 315.195312 C 110.214844 315.023438 110.882812 314.820312 111.539062 314.582031 C 112.199219 314.34375 112.839844 314.074219 113.472656 313.769531 Z M 114.851562 313.113281 " fill-opacity="1" fill-rule="evenodd"/><path fill="#ff3131" d="M 128.011719 219.84375 C 128.8125 220.035156 129.597656 220.261719 130.375 220.53125 C 131.148438 220.796875 131.910156 221.101562 132.65625 221.445312 C 133.398438 221.789062 134.125 222.164062 134.835938 222.578125 C 135.542969 222.992188 136.230469 223.441406 136.894531 223.921875 C 137.558594 224.402344 138.195312 224.914062 138.8125 225.457031 C 139.425781 226.003906 140.011719 226.574219 140.570312 227.175781 C 141.125 227.777344 141.652344 228.40625 142.148438 229.058594 C 142.644531 229.710938 143.109375 230.386719 143.539062 231.085938 C 143.96875 231.785156 144.363281 232.503906 144.722656 233.242188 C 145.078125 233.980469 145.402344 234.730469 145.6875 235.5 C 145.972656 236.269531 146.21875 237.050781 146.425781 237.84375 C 146.636719 238.636719 146.804688 239.441406 146.933594 240.25 C 147.0625 241.058594 147.152344 241.875 147.203125 242.691406 C 147.25 243.511719 147.261719 244.332031 147.230469 245.148438 C 147.199219 245.96875 147.128906 246.785156 147.015625 247.597656 C 146.90625 248.410156 146.753906 249.214844 146.566406 250.015625 C 146.375 250.8125 146.144531 251.597656 145.878906 252.375 C 145.609375 253.148438 145.304688 253.910156 144.964844 254.65625 C 144.621094 255.402344 144.242188 256.128906 143.828125 256.835938 C 143.414062 257.542969 142.96875 258.230469 142.488281 258.894531 C 142.007812 259.558594 141.492188 260.199219 140.949219 260.8125 C 140.40625 261.425781 139.832031 262.011719 139.230469 262.570312 C 138.628906 263.128906 138.003906 263.652344 137.351562 264.148438 C 136.695312 264.644531 136.019531 265.109375 135.320312 265.539062 C 134.625 265.96875 133.90625 266.363281 133.167969 266.722656 C 132.429688 267.082031 131.675781 267.402344 130.90625 267.6875 C 130.140625 267.972656 129.359375 268.21875 128.5625 268.429688 C 127.769531 268.636719 126.96875 268.804688 126.160156 268.933594 C 125.347656 269.0625 124.535156 269.152344 123.714844 269.203125 C 122.898438 269.253906 122.078125 269.261719 121.257812 269.230469 C 120.4375 269.199219 119.621094 269.128906 118.808594 269.019531 C 117.996094 268.90625 117.191406 268.757812 116.394531 268.566406 C 115.597656 268.375 114.808594 268.148438 114.035156 267.878906 C 113.257812 267.613281 112.5 267.304688 111.753906 266.964844 C 111.007812 266.621094 110.28125 266.242188 109.574219 265.832031 C 108.863281 265.417969 108.179688 264.96875 107.515625 264.488281 C 106.851562 264.007812 106.210938 263.496094 105.597656 262.949219 C 104.984375 262.40625 104.398438 261.835938 103.839844 261.234375 C 103.28125 260.632812 102.753906 260.003906 102.257812 259.351562 C 101.761719 258.699219 101.300781 258.019531 100.871094 257.324219 C 100.441406 256.625 100.046875 255.90625 99.6875 255.167969 C 99.328125 254.429688 99.007812 253.679688 98.722656 252.910156 C 98.4375 252.140625 98.1875 251.359375 97.980469 250.566406 C 97.773438 249.773438 97.605469 248.96875 97.472656 248.160156 C 97.34375 247.351562 97.253906 246.535156 97.207031 245.71875 C 97.15625 244.898438 97.148438 244.078125 97.175781 243.257812 C 97.207031 242.441406 97.28125 241.625 97.390625 240.8125 C 97.503906 240 97.652344 239.191406 97.84375 238.394531 C 98.035156 237.597656 98.261719 236.8125 98.53125 236.035156 C 98.796875 235.261719 99.101562 234.5 99.445312 233.753906 C 99.785156 233.007812 100.164062 232.28125 100.578125 231.574219 C 100.992188 230.867188 101.4375 230.179688 101.921875 229.515625 C 102.402344 228.851562 102.914062 228.210938 103.457031 227.597656 C 104 226.984375 104.574219 226.398438 105.175781 225.839844 C 105.777344 225.28125 106.40625 224.753906 107.058594 224.257812 C 107.710938 223.761719 108.386719 223.300781 109.085938 222.871094 C 109.785156 222.441406 110.503906 222.046875 111.242188 221.6875 C 111.976562 221.328125 112.730469 221.007812 113.5 220.722656 C 114.269531 220.4375 115.050781 220.191406 115.84375 219.980469 C 116.636719 219.773438 117.4375 219.605469 118.25 219.476562 C 119.058594 219.34375 119.871094 219.257812 120.691406 219.207031 C 121.511719 219.15625 122.328125 219.148438 123.148438 219.179688 C 123.96875 219.210938 124.785156 219.28125 125.597656 219.390625 C 126.410156 219.503906 127.214844 219.652344 128.011719 219.84375 Z M 128.011719 219.84375 " fill-opacity="1" fill-rule="nonzero"/></svg>