<svg xmlns="http://www.w3.org/2000/svg" xmlns:xlink="http://www.w3.org/1999/xlink" width="711" zoomAndPan="magnify" viewBox="0 0 533.25 428.99999" height="572" preserveAspectRatio="xMidYMid meet" version="1.0"><defs><clipPath id="f63de7b913"><path d="M 129 7 L 403.652344 7 L 403.652344 378.804688 L 129 378.804688 Z M 129 7 " clip-rule="nonzero"/></clipPath></defs><path fill="#a3e635" d="M 326.132812 4.097656 C 319.589844 1.167969 311.355469 0.289062 300.753906 1.929688 L 300.753906 1.933594 C 300.609375 1.953125 300.464844 1.964844 300.324219 1.964844 C 300.25 1.964844 300.179688 1.996094 300.128906 2.042969 L 300.105469 2.035156 C 300.019531 2.058594 299.933594 2.082031 299.847656 2.097656 L 299.84375 2.097656 C 272.746094 7.410156 243.882812 13.976562 227.484375 28.34375 C 222.242188 32.9375 217.210938 37.976562 213.261719 44.15625 C 182.8125 91.800781 163.011719 120.589844 153.078125 129 C 153.027344 129.042969 152.992188 129.105469 152.980469 129.175781 L 152.964844 129.167969 C 146.003906 138.605469 113.667969 165.425781 58.253906 210.757812 C 47.046875 219.925781 39.472656 228.570312 33.808594 235.042969 C 33.097656 235.851562 32.726562 236.273438 32.058594 237.035156 C 4.867188 267.871094 0.0820312 298.558594 17.195312 330.679688 C 25.425781 346.125 38.082031 357.855469 55.382812 365.601562 C 74.988281 374.378906 100.546875 378.039062 132.390625 376.230469 C 154.910156 374.949219 175.15625 372.578125 192.664062 367.640625 C 244.289062 353.089844 316.03125 336.078125 408.171875 317.152344 C 425.925781 313.507812 440.410156 308.152344 452.121094 303.066406 C 510.582031 277.6875 531.976562 245.082031 517.417969 206.238281 C 514.289062 197.890625 507.554688 190.113281 497.820312 185.210938 C 446.65625 159.449219 415.972656 143.738281 410.085938 134.953125 L 410.070312 134.945312 C 410.058594 134.882812 410.027344 134.828125 409.980469 134.785156 C 402.566406 128.054688 394.359375 119.558594 388.589844 107.679688 C 363.144531 55.253906 346.4375 24.222656 337.820312 13.359375 C 334.636719 9.351562 330.828125 6.199219 326.132812 4.097656 Z M 326.132812 4.097656 " fill-opacity="1" fill-rule="nonzero"/><path fill="#000000" d="M 210.660156 25.289062 C 189.109375 38.65625 166.535156 53.625 157.164062 71.203125 C 154.15625 76.835938 151.488281 82.773438 150.113281 89.324219 C 139.355469 140.515625 131.65625 171.800781 125.816406 182.019531 L 126.09375 181.320312 C 123.730469 191.039062 104.554688 224.78125 71.109375 282.710938 C 64.476562 294.199219 60.789062 304.058594 58.023438 311.449219 C 57.746094 312.195312 57.429688 313.039062 57.171875 313.726562 C 43.871094 348.933594 49.714844 376.707031 74.738281 398.644531 C 100.402344 421.140625 137.816406 422.667969 188.117188 400.308594 C 207.023438 391.902344 223.613281 383.304688 237.019531 373.402344 C 276.613281 344.152344 332.671875 306.265625 405.621094 260.109375 C 419.65625 251.230469 430.339844 241.945312 438.730469 233.789062 C 480.644531 193.058594 488.296875 158.292969 463.335938 129.84375 C 457.988281 123.746094 449.742188 119.285156 439.859375 118.246094 C 386.472656 112.621094 354.683594 109.058594 347.613281 103.144531 L 348.355469 103.582031 C 339.71875 100.199219 329.738281 95.542969 320.785156 87.074219 C 281.921875 50.328125 257.53125 29.140625 246.640625 22.632812 C 237.066406 16.914062 226.046875 16.550781 211.378906 24.855469 C 210.089844 25.585938 208.449219 25.132812 207.71875 23.84375 C 206.988281 22.554688 207.445312 20.917969 208.734375 20.1875 C 224.6875 11.152344 237.808594 11.105469 249.394531 18.027344 C 260.910156 24.90625 285.785156 46.59375 324.472656 83.175781 C 332.6875 90.941406 341.917969 95.292969 350.3125 98.585938 C 350.582031 98.691406 350.835938 98.839844 351.054688 99.027344 C 356.472656 103.554688 385.460938 107.117188 440.421875 112.90625 C 451.574219 114.082031 461.085938 119.136719 467.371094 126.304688 C 495.324219 158.167969 484.960938 196.347656 442.46875 237.640625 C 433.898438 245.972656 422.925781 255.511719 408.492188 264.644531 C 335.601562 310.765625 279.65625 348.574219 240.207031 377.71875 C 226.339844 387.964844 209.332031 396.753906 190.296875 405.214844 C 139.195312 427.933594 99.179688 427.210938 71.199219 402.679688 C 44.234375 379.042969 38.1875 348.792969 52.148438 311.832031 C 52.414062 311.132812 52.710938 310.335938 52.996094 309.570312 C 55.773438 302.144531 59.589844 291.929688 66.460938 280.027344 C 100.269531 221.464844 118.753906 188.78125 120.878906 180.050781 C 120.9375 179.808594 121.03125 179.574219 121.15625 179.355469 C 126.460938 170.074219 133.996094 139.925781 144.859375 88.21875 C 146.386719 80.953125 149.316406 74.503906 152.425781 68.675781 C 162.609375 49.578125 186.609375 33.890625 207.832031 20.726562 C 209.09375 19.945312 210.746094 20.335938 211.527344 21.59375 C 212.308594 22.851562 211.921875 24.507812 210.660156 25.289062 Z M 210.660156 25.289062 " fill-opacity="1" fill-rule="nonzero"/><path fill="#f6dedb" d="M 312.15625 198.867188 C 311.328125 206.867188 309.039062 211.414062 307.835938 217.050781 C 301.058594 248.328125 292.902344 299.5625 287.375 328.820312 C 280.164062 299.832031 267.496094 249.472656 257.480469 218.25 C 255.710938 211.960938 254.542969 204.445312 253.859375 197.84375 C 253.804688 197.339844 253.757812 196.855469 253.703125 196.386719 C 271.027344 204.078125 298.085938 201.8125 312.15625 198.867188 Z M 312.15625 198.867188 " fill-opacity="1" fill-rule="nonzero"/><path fill="#38b6ff" d="M 397.738281 271 C 396.148438 242.148438 392.042969 225.777344 382.429688 215.851562 C 380 213.339844 376.34375 210.953125 372.046875 208.628906 C 361.308594 202.835938 346.539062 197.492188 336.714844 191.890625 C 336.714844 191.890625 336.710938 191.890625 336.710938 191.890625 C 336.332031 190.800781 336.015625 190.140625 335.738281 189.949219 C 328.460938 184.902344 324.253906 179.351562 319.824219 175.695312 C 316.554688 173.003906 312.785156 172.660156 305.824219 171.839844 C 305.902344 172.398438 305.96875 172.890625 306.035156 173.296875 C 306.035156 173.308594 306.761719 182.367188 312.3125 187.558594 C 312.585938 192.046875 312.484375 195.726562 312.15625 198.875 C 311.328125 206.871094 309.039062 211.421875 307.835938 217.054688 C 301.058594 248.335938 292.902344 299.570312 287.375 328.828125 C 280.164062 299.839844 267.496094 249.480469 257.480469 218.253906 C 255.710938 211.96875 254.542969 204.449219 253.859375 197.851562 C 253.804688 197.347656 253.757812 196.859375 253.703125 196.394531 C 253.472656 194.144531 253.273438 192.246094 253.265625 190.488281 C 257.105469 187.484375 261.226562 182.1875 263.261719 171.515625 C 254.777344 171.628906 252.859375 172.632812 244.292969 180.488281 C 237.964844 186.296875 237.699219 187.683594 231.707031 191.878906 C 231.609375 192.171875 231.410156 192.738281 231.160156 193.46875 C 223.859375 195.917969 213.84375 198.921875 205.214844 203.015625 C 199.761719 205.617188 194.851562 208.644531 191.542969 212.261719 C 186.214844 218.074219 181.003906 236.800781 177.203125 250.097656 C 175.53125 238.875 174.195312 228.601562 174.148438 224.339844 C 173.972656 210.097656 171.222656 204.816406 171.222656 204.816406 C 171.222656 204.816406 171.171875 204.84375 171.066406 204.90625 C 169.039062 205 167.011719 205.121094 164.925781 205.300781 C 165.042969 206.085938 165.191406 206.914062 165.351562 207.789062 C 161.410156 209.507812 155.808594 211.476562 149.636719 212.164062 C 147.328125 212.421875 145.144531 212.511719 143.097656 212.480469 C 143.097656 211.265625 143.113281 209.976562 143.121094 208.65625 C 138.832031 209.25 136.011719 209.46875 131.597656 211.0625 C 132.226562 225.863281 132.703125 237.460938 133 244.660156 C 133.929688 267.199219 134.164062 285.847656 135.410156 296.65625 C 137.023438 310.621094 140.546875 328.828125 144.1875 339.941406 C 144.1875 339.941406 147.730469 350.753906 157.972656 363.320312 C 160.144531 365.988281 166.179688 369.523438 170.28125 370.003906 C 174.742188 370.511719 183.304688 366.929688 185.546875 365.117188 C 197.191406 355.730469 204.238281 343.566406 208.542969 336.675781 C 209.453125 351.914062 210.261719 366.84375 209.863281 377.707031 L 401.945312 377.707031 C 400.808594 361.753906 398.503906 284.929688 397.738281 271.003906 Z M 286.253906 350.726562 C 283.933594 350.726562 282.058594 348.847656 282.058594 346.527344 C 282.058594 344.210938 283.933594 342.332031 286.253906 342.332031 C 288.574219 342.332031 290.449219 344.210938 290.449219 346.527344 C 290.449219 348.847656 288.574219 350.726562 286.253906 350.726562 Z M 286.253906 350.726562 " fill-opacity="1" fill-rule="nonzero"/><path fill="#000000" d="M 372.046875 208.628906 C 361.308594 202.835938 346.539062 197.492188 336.714844 191.890625 C 336.714844 191.890625 336.710938 191.890625 336.710938 191.890625 C 336.332031 190.800781 336.015625 190.140625 335.738281 189.949219 C 328.460938 184.902344 324.253906 179.351562 319.824219 175.695312 C 316.554688 173.003906 312.785156 172.660156 305.824219 171.839844 C 305.148438 166.636719 304.171875 155.683594 304.058594 152.863281 C 304.835938 152.476562 305.519531 152.136719 306.097656 151.824219 C 310.597656 149.453125 314.363281 146.550781 317.519531 143.402344 C 318.097656 142.828125 318.652344 142.246094 319.1875 141.660156 C 320.53125 140.191406 321.746094 138.679688 322.855469 137.15625 C 323.191406 136.699219 323.515625 136.238281 323.828125 135.785156 C 324.144531 135.324219 324.449219 134.859375 324.746094 134.40625 C 326.914062 131.03125 328.605469 127.65625 329.949219 124.554688 C 332.628906 125.457031 336.890625 124.125 338.640625 123.074219 C 342.9375 120.472656 346.019531 116.546875 347.683594 111.800781 C 349.351562 107.066406 349.691406 104.433594 349.386719 99.421875 C 349.195312 96.417969 347.996094 93.183594 346.066406 92.210938 C 343.667969 91.011719 340.972656 91.941406 339.417969 93.601562 C 338.902344 94.148438 338.136719 95.449219 337.507812 96.609375 C 334.222656 94.40625 331.402344 90.285156 329.054688 83.820312 C 317.71875 82.90625 308.804688 79.28125 302.4375 78.585938 C 296.683594 77.957031 297.019531 76.804688 287.453125 76.785156 C 279.480469 76.773438 272.425781 77.566406 267.671875 77.984375 C 260.910156 78.585938 254.515625 81.140625 242.34375 82.296875 C 239.601562 87.847656 238.167969 93.683594 237.796875 97.269531 C 236.285156 94.238281 233.324219 90.492188 230.480469 90.609375 C 223.128906 90.921875 223.164062 100.304688 224.378906 107.195312 C 226.179688 117.386719 232.171875 123.382812 239.15625 123.398438 C 240.851562 128.199219 242.960938 134.769531 248.957031 141.363281 C 252.378906 145.128906 259.332031 150.667969 264.769531 153.59375 C 264.769531 153.660156 264.765625 153.738281 264.765625 153.820312 C 264.765625 153.894531 264.765625 153.976562 264.765625 154.0625 C 264.765625 154.140625 264.757812 154.222656 264.757812 154.3125 C 264.757812 154.480469 264.746094 154.660156 264.742188 154.859375 C 264.734375 154.976562 264.726562 155.105469 264.726562 155.230469 C 264.710938 155.59375 264.691406 155.996094 264.679688 156.433594 C 264.65625 156.882812 264.632812 157.371094 264.609375 157.886719 C 264.609375 157.914062 264.609375 157.953125 264.609375 157.988281 C 264.597656 158.160156 264.589844 158.335938 264.578125 158.515625 C 264.566406 158.71875 264.554688 158.929688 264.542969 159.136719 C 264.53125 159.355469 264.519531 159.574219 264.5 159.796875 C 264.488281 159.972656 264.484375 160.144531 264.464844 160.320312 C 264.265625 163.71875 263.941406 167.597656 263.488281 170.300781 C 263.414062 170.714844 263.34375 171.121094 263.273438 171.515625 C 254.789062 171.628906 252.871094 172.632812 244.304688 180.488281 C 237.976562 186.296875 237.710938 187.683594 231.71875 191.878906 C 231.621094 192.171875 231.421875 192.738281 231.171875 193.46875 C 223.871094 195.917969 218.164062 197.375 209.539062 201.46875 C 210.789062 180.140625 233.855469 172.851562 227.519531 157.710938 C 215.941406 130.023438 214.789062 84.707031 225.125 59.402344 C 233.796875 38.128906 250.289062 12.042969 274.515625 10.902344 C 286.488281 5.5625 326.417969 9.042969 345 39.617188 C 355.96875 57.660156 363.757812 96.527344 362.382812 115.746094 C 360.585938 140.921875 351.640625 149.039062 360.585938 166.097656 C 366.675781 177.726562 379.867188 186.25 372.046875 208.628906 Z M 372.046875 208.628906 " fill-opacity="1" fill-rule="nonzero"/><path fill="#ffffff" d="M 180.238281 157.734375 C 179.734375 159.457031 177.933594 161.050781 175.605469 161.855469 C 176.621094 162.753906 176.664062 164.199219 176.71875 165.480469 C 176.765625 166.625 176.867188 170.597656 173.882812 174.039062 C 171.257812 177.0625 167.882812 177.78125 166.652344 177.964844 C 166.648438 179.460938 166.863281 181.15625 167.234375 183.097656 C 168.878906 191.652344 165.042969 193.109375 164.347656 197.089844 C 164.203125 197.921875 164.15625 198.777344 164.40625 201.285156 C 164.515625 202.4375 164.683594 203.773438 164.925781 205.296875 C 165.042969 206.082031 165.191406 206.90625 165.351562 207.78125 C 161.410156 209.503906 155.808594 211.46875 149.636719 212.160156 C 147.328125 212.417969 145.144531 212.507812 143.097656 212.476562 C 143.097656 211.257812 143.113281 209.96875 143.121094 208.652344 C 143.148438 204.804688 143.148438 200.800781 142.886719 198.167969 C 142.351562 192.777344 141.140625 188.824219 140.84375 187.941406 C 138.804688 181.875 136.585938 180.011719 133.402344 172.210938 C 131.195312 166.800781 130.101562 164.03125 130.597656 161.082031 C 131.363281 156.484375 134.78125 153.605469 139.085938 150.082031 C 142.585938 147.214844 147.824219 142.898438 155.246094 140.53125 C 155.972656 140.242188 157.691406 140.046875 159.070312 140.667969 C 162.984375 140.292969 166.234375 142.648438 167.289062 143.71875 C 170.128906 146.605469 169.523438 148.222656 172.191406 150.015625 C 174.578125 151.609375 181.089844 154.796875 180.238281 157.734375 Z M 286.253906 342.332031 C 283.933594 342.332031 282.058594 344.210938 282.058594 346.527344 C 282.058594 348.847656 283.933594 350.726562 286.253906 350.726562 C 288.574219 350.726562 290.449219 348.847656 290.449219 346.527344 C 290.449219 344.210938 288.574219 342.332031 286.253906 342.332031 Z M 349.386719 99.414062 C 349.195312 96.414062 347.996094 93.175781 346.066406 92.203125 C 343.667969 91.003906 340.972656 91.933594 339.417969 93.59375 C 338.902344 94.140625 338.136719 95.441406 337.507812 96.605469 C 334.222656 94.398438 331.402344 90.28125 329.054688 83.8125 C 317.71875 82.902344 308.804688 79.273438 302.4375 78.578125 C 296.683594 77.949219 297.019531 76.800781 287.453125 76.78125 C 279.480469 76.769531 272.425781 77.558594 267.671875 77.980469 C 260.910156 78.578125 254.515625 81.132812 242.34375 82.289062 C 239.601562 87.839844 238.167969 93.679688 237.796875 97.265625 C 236.285156 94.230469 233.324219 90.484375 230.480469 90.605469 C 223.128906 90.914062 223.164062 100.296875 224.378906 107.191406 C 226.179688 117.382812 232.171875 123.375 239.15625 123.394531 C 240.851562 128.195312 242.960938 134.765625 248.957031 141.359375 C 252.378906 145.125 259.332031 150.660156 264.769531 153.585938 C 264.769531 153.652344 264.6875 155.992188 264.675781 156.429688 C 264.65625 156.882812 264.632812 157.371094 264.601562 157.878906 C 264.601562 157.910156 264.601562 157.945312 264.601562 157.980469 C 264.589844 158.15625 264.585938 158.328125 264.574219 158.507812 C 264.5625 158.710938 264.546875 158.921875 264.535156 159.132812 C 264.523438 159.347656 264.511719 159.570312 264.496094 159.792969 C 264.484375 159.964844 264.476562 160.140625 264.457031 160.3125 C 264.261719 163.710938 263.9375 167.589844 263.480469 170.292969 C 263.410156 170.707031 263.335938 171.113281 263.265625 171.511719 C 261.234375 182.179688 257.109375 187.480469 253.273438 190.484375 C 253.277344 192.238281 253.476562 194.140625 253.710938 196.386719 C 271.035156 204.078125 298.09375 201.8125 312.164062 198.867188 C 312.492188 195.722656 312.59375 192.042969 312.316406 187.550781 C 306.765625 182.359375 306.042969 173.304688 306.042969 173.289062 C 305.976562 172.882812 305.910156 172.390625 305.832031 171.835938 C 305.15625 166.632812 304.175781 155.679688 304.0625 152.855469 C 304.84375 152.472656 305.527344 152.128906 306.101562 151.820312 C 310.605469 149.445312 314.367188 146.542969 317.527344 143.398438 C 318.101562 142.820312 318.652344 142.238281 319.195312 141.652344 C 320.535156 140.183594 321.753906 138.671875 322.863281 137.152344 C 323.199219 136.695312 323.523438 136.234375 323.832031 135.777344 C 324.152344 135.316406 324.457031 134.855469 324.75 134.398438 C 326.921875 131.023438 328.609375 127.648438 329.953125 124.550781 C 332.632812 125.449219 336.894531 124.117188 338.644531 123.070312 C 342.945312 120.46875 346.023438 116.542969 347.691406 111.792969 C 349.355469 107.058594 349.699219 104.425781 349.394531 99.414062 Z M 349.386719 99.414062 " fill-opacity="1" fill-rule="nonzero"/><g clip-path="url(#f63de7b913)"><path fill="#274c67" d="M 400.464844 311.148438 C 399.8125 292.632812 399.253906 276.640625 398.9375 270.933594 C 397.265625 240.597656 392.875 224.914062 383.292969 215.019531 C 380.941406 212.597656 377.511719 210.289062 373.496094 208.066406 C 379.132812 190.910156 372.484375 181.507812 366.589844 173.199219 C 364.757812 170.613281 363.019531 168.164062 361.644531 165.539062 C 356.09375 154.949219 357.664062 148.046875 360.039062 137.601562 C 361.394531 131.640625 362.929688 124.890625 363.574219 115.828125 C 364.953125 96.507812 357.125 57.257812 346.019531 38.992188 C 327.089844 7.839844 286.867188 4.320312 274.242188 9.714844 C 263.054688 10.316406 251.683594 16.203125 241.332031 26.765625 C 232.851562 35.417969 225.226562 47.144531 220.40625 58.949219 C 210 84.425781 211.101562 129.585938 222.808594 157.574219 C 225.84375 164.828125 221.402344 170.59375 215.777344 177.902344 C 210.675781 184.523438 204.929688 192.023438 204.089844 202.230469 C 198.046875 205.175781 193.648438 208.191406 190.660156 211.453125 C 185.824219 216.726562 181.335938 231.394531 177.585938 244.402344 C 176.316406 235.484375 175.386719 227.816406 175.347656 224.328125 C 175.171875 209.96875 172.410156 204.492188 172.289062 204.265625 C 172.132812 203.96875 171.863281 203.75 171.546875 203.664062 C 171.277344 203.585938 170.992188 203.617188 170.742188 203.730469 C 168.960938 203.8125 167.402344 203.910156 165.945312 204.023438 C 165.804688 203.035156 165.6875 202.082031 165.597656 201.175781 C 165.347656 198.675781 165.414062 197.96875 165.527344 197.304688 C 165.71875 196.203125 166.210938 195.296875 166.78125 194.253906 C 168.039062 191.945312 169.601562 189.066406 168.410156 182.882812 C 168.109375 181.339844 167.941406 180.070312 167.875 178.960938 C 169.777344 178.511719 172.535156 177.433594 174.789062 174.835938 C 176.316406 173.074219 178.097656 170.019531 177.910156 165.4375 L 177.910156 165.335938 C 177.863281 164.417969 177.808594 163.351562 177.394531 162.382812 C 179.398438 161.355469 180.878906 159.792969 181.382812 158.078125 C 182.347656 154.773438 177.742188 151.992188 174.378906 149.964844 C 173.773438 149.601562 173.246094 149.285156 172.859375 149.019531 C 171.675781 148.226562 171.3125 147.546875 170.75 146.5 C 170.234375 145.542969 169.585938 144.34375 168.140625 142.882812 C 166.742188 141.460938 163.328125 139.199219 159.25 139.457031 C 157.699219 138.878906 155.90625 139.019531 154.90625 139.386719 C 154.898438 139.386719 154.886719 139.386719 154.882812 139.386719 C 147.320312 141.796875 141.980469 146.160156 138.445312 149.050781 L 138.324219 149.152344 C 134.183594 152.542969 130.273438 155.746094 129.410156 160.875 C 128.847656 164.222656 130.070312 167.21875 132.292969 172.660156 C 133.847656 176.472656 135.183594 178.902344 136.359375 181.046875 C 137.605469 183.3125 138.679688 185.273438 139.703125 188.320312 C 139.847656 188.757812 141.140625 192.742188 141.691406 198.289062 C 141.921875 200.601562 141.945312 204.070312 141.925781 207.601562 C 141.722656 207.632812 141.511719 207.65625 141.316406 207.6875 C 137.863281 208.140625 135.136719 208.507812 131.191406 209.929688 C 131.191406 209.929688 131.167969 209.945312 131.15625 209.953125 C 131.054688 209.996094 130.957031 210.046875 130.867188 210.113281 C 130.855469 210.121094 130.84375 210.125 130.832031 210.136719 C 130.488281 210.414062 130.351562 210.839844 130.410156 211.246094 C 130.878906 222.21875 131.257812 231.425781 131.542969 238.371094 L 131.808594 244.707031 C 132.089844 251.621094 132.304688 258.027344 132.515625 264.226562 C 132.984375 278.203125 133.355469 289.253906 134.222656 296.792969 C 135.960938 311.851562 139.59375 329.75 143.054688 340.3125 C 143.203125 340.761719 146.78125 351.480469 157.050781 364.074219 C 159.371094 366.929688 165.597656 370.664062 170.15625 371.195312 C 170.484375 371.230469 170.832031 371.25 171.199219 371.25 C 176.269531 371.25 184.199219 367.753906 186.308594 366.054688 C 196.476562 357.851562 203.074219 347.753906 207.578125 340.523438 C 208.453125 355.582031 209.027344 368.019531 208.667969 377.664062 C 208.644531 378.324219 209.160156 378.882812 209.820312 378.90625 C 209.835938 378.90625 209.851562 378.90625 209.867188 378.90625 C 210.507812 378.90625 211.042969 378.394531 211.066406 377.75 C 211.472656 366.839844 210.699219 352.492188 209.644531 334.871094 C 208.457031 315.113281 208.410156 288.390625 209.527344 276.515625 C 209.585938 275.855469 209.105469 275.269531 208.445312 275.207031 C 207.789062 275.148438 207.199219 275.628906 207.140625 276.285156 C 206.011719 288.261719 206.0625 315.15625 207.253906 335.015625 C 207.285156 335.46875 207.308594 335.914062 207.332031 336.363281 C 207.066406 336.789062 206.792969 337.230469 206.503906 337.695312 C 202.082031 344.839844 195.402344 355.632812 184.800781 364.1875 C 182.617188 365.949219 174.421875 369.273438 170.425781 368.816406 C 166.59375 368.367188 160.894531 365.003906 158.910156 362.5625 C 148.945312 350.339844 145.367188 339.675781 145.332031 339.570312 C 141.914062 329.140625 138.332031 311.4375 136.609375 296.519531 C 135.753906 289.074219 135.382812 278.074219 134.914062 264.148438 C 134.703125 257.945312 134.488281 251.53125 134.207031 244.613281 L 133.941406 238.277344 C 133.667969 231.621094 133.308594 222.894531 132.871094 212.578125 C 136.25 213.273438 139.679688 213.644531 143.085938 213.6875 L 143.101562 213.6875 C 145.339844 213.71875 147.578125 213.609375 149.78125 213.363281 C 156.246094 212.644531 162.082031 210.535156 165.84375 208.898438 C 167.972656 207.960938 169.609375 207.113281 170.628906 206.554688 C 171.390625 208.777344 172.835938 214.285156 172.953125 224.363281 C 173.003906 228.621094 174.34375 238.917969 176.015625 250.179688 C 176.015625 250.257812 176.035156 250.335938 176.054688 250.410156 C 178.617188 267.660156 181.945312 287.078125 182.582031 290.421875 C 183.875 297.25 184.152344 302.914062 184.390625 307.914062 C 184.632812 312.78125 184.851562 317.378906 185.945312 322.234375 L 185.984375 322.414062 C 186.9375 326.664062 187.652344 329.242188 189.515625 329.242188 L 189.523438 329.242188 C 189.914062 329.242188 190.492188 329.097656 191.058594 328.433594 C 192.316406 326.953125 193.273438 322.898438 192.707031 319.226562 C 192.394531 317.230469 191.636719 315.316406 190.453125 313.542969 C 190.085938 312.992188 189.335938 312.839844 188.792969 313.210938 C 188.238281 313.578125 188.089844 314.328125 188.460938 314.871094 C 189.449219 316.351562 190.082031 317.941406 190.335938 319.597656 C 190.769531 322.371094 190.128906 325.160156 189.558594 326.363281 C 189.078125 325.230469 188.570312 322.972656 188.324219 321.878906 L 188.28125 321.699219 C 187.234375 317.042969 187.015625 312.546875 186.78125 307.789062 C 186.539062 302.710938 186.253906 296.957031 184.929688 289.964844 C 184.300781 286.632812 180.988281 267.3125 178.433594 250.175781 L 178.773438 248.980469 C 182.449219 236.105469 187.484375 218.472656 192.429688 213.074219 C 195.300781 209.941406 199.652344 207.003906 205.730469 204.109375 C 212.746094 200.78125 220.847656 198.125 227.371094 195.992188 C 228.007812 195.78125 228.625 195.585938 229.230469 195.378906 C 228.875 196.386719 228.492188 197.484375 228.109375 198.582031 C 226.183594 204.066406 225.84375 205.066406 225.757812 205.34375 C 224.613281 209.339844 223.503906 211.464844 222.214844 213.914062 C 220.898438 216.433594 219.398438 219.285156 217.695312 224.65625 C 217.613281 224.921875 217.625 225.203125 217.726562 225.460938 C 218.390625 227.152344 220.539062 228.195312 224.433594 230.082031 C 226.761719 231.214844 229.839844 232.707031 233.507812 234.800781 C 230.882812 236.550781 228.605469 238.234375 226.394531 239.871094 C 224.511719 241.261719 222.738281 242.582031 220.878906 243.828125 C 220.617188 244.007812 220.421875 244.304688 220.363281 244.625 C 220.195312 245.558594 220.148438 245.816406 246.96875 283.769531 C 261.234375 303.957031 277.40625 326.84375 280.421875 332.144531 C 280.644531 332.53125 281.046875 332.75 281.464844 332.75 C 281.664062 332.75 281.871094 332.699219 282.058594 332.59375 C 282.632812 332.261719 282.832031 331.53125 282.507812 330.957031 C 279.433594 325.554688 263.925781 303.609375 248.925781 282.382812 C 237.359375 266.011719 225.421875 249.121094 223.074219 245.230469 C 224.660156 244.132812 226.203125 242.992188 227.816406 241.796875 C 230.441406 239.851562 233.15625 237.84375 236.429688 235.746094 C 238.261719 234.570312 240.34375 233.367188 242.542969 232.097656 C 248.429688 228.683594 254.476562 225.179688 257.242188 221.4375 C 267.695312 254.675781 280.925781 307.828125 286.152344 328.859375 C 286.152344 328.882812 286.441406 330.207031 287.09375 330.332031 C 287.171875 330.34375 287.242188 330.355469 287.316406 330.355469 C 287.355469 330.355469 287.398438 330.351562 287.441406 330.34375 C 287.542969 330.34375 287.644531 330.34375 287.746094 330.3125 C 288.386719 330.152344 288.609375 328.808594 288.605469 328.785156 C 290.613281 318.140625 292.972656 304.597656 295.46875 290.273438 C 299.632812 266.347656 304.332031 239.359375 308.503906 219.679688 C 309.800781 220.773438 311.945312 222.289062 315.496094 224.472656 C 320.679688 227.652344 326.375 230.65625 329.996094 232.121094 C 334.019531 233.738281 336.90625 235.171875 339.699219 236.5625 C 341.039062 237.226562 342.320312 237.863281 343.6875 238.503906 C 341.445312 245.523438 331.328125 262.175781 320.644531 279.761719 C 310.167969 297.003906 298.292969 316.550781 291.773438 330.445312 C 291.492188 331.046875 291.75 331.757812 292.351562 332.039062 C 292.511719 332.117188 292.6875 332.15625 292.859375 332.15625 C 293.308594 332.15625 293.742188 331.902344 293.945312 331.464844 C 300.414062 317.683594 312.246094 298.195312 322.695312 281.011719 C 334.480469 261.613281 344.65625 244.859375 346.289062 238.125 C 346.421875 237.570312 346.144531 236.992188 345.617188 236.753906 C 343.921875 235.980469 342.386719 235.21875 340.765625 234.414062 C 338.460938 233.269531 336.074219 232.089844 333.058594 230.800781 C 334.894531 229.625 336.917969 228.257812 339.167969 226.738281 C 341.679688 225.039062 344.527344 223.109375 347.8125 220.980469 C 348.285156 220.675781 348.480469 220.078125 348.277344 219.550781 C 344.605469 209.976562 341.398438 201.378906 338.910156 194.457031 C 343.585938 196.898438 349.070312 199.320312 354.40625 201.667969 C 365.226562 206.433594 376.417969 211.367188 381.582031 216.703125 C 390.605469 226.019531 394.945312 241.769531 396.558594 271.082031 C 396.867188 276.765625 397.433594 292.746094 398.085938 311.253906 C 399.027344 338.015625 400.09375 368.355469 400.769531 377.800781 C 400.820312 378.429688 401.339844 378.917969 401.964844 378.917969 C 401.996094 378.917969 402.023438 378.917969 402.046875 378.917969 C 402.707031 378.867188 403.207031 378.292969 403.15625 377.632812 C 402.484375 368.230469 401.417969 337.914062 400.476562 311.175781 Z M 168.636719 147.636719 C 169.230469 148.738281 169.847656 149.882812 171.519531 151.003906 C 171.964844 151.296875 172.511719 151.628906 173.144531 152.011719 C 175.058594 153.160156 179.53125 155.859375 179.085938 157.394531 C 178.726562 158.609375 177.449219 159.785156 175.757812 160.5 C 175.730469 160.480469 175.699219 160.464844 175.675781 160.445312 C 175.105469 160.132812 174.398438 159.875 173.609375 159.730469 C 174.367188 155.816406 173.195312 152.789062 170.335938 151.519531 C 169.28125 151.050781 168.421875 151.046875 167.457031 151.398438 C 167.425781 150.507812 167.210938 149.464844 166.613281 148.414062 C 166.300781 147.867188 165.132812 146.039062 163.148438 145.519531 C 162.894531 145.453125 162.625 145.417969 162.351562 145.394531 C 162.324219 145.050781 162.296875 144.625 162.253906 144.09375 L 162.207031 143.5 C 162.164062 142.953125 162.054688 142.484375 161.90625 142.070312 C 164.003906 142.585938 165.683594 143.792969 166.433594 144.554688 C 167.636719 145.769531 168.148438 146.71875 168.636719 147.628906 Z M 141.628906 210.0625 C 141.71875 210.046875 141.8125 210.035156 141.910156 210.023438 L 141.910156 210.394531 C 141.910156 210.683594 141.902344 210.964844 141.902344 211.242188 C 140.21875 211.179688 138.527344 211.03125 136.84375 210.804688 C 138.382812 210.492188 139.882812 210.289062 141.628906 210.054688 Z M 149.503906 210.964844 C 147.789062 211.15625 146.046875 211.253906 144.292969 211.269531 C 144.292969 210.988281 144.292969 210.703125 144.300781 210.414062 L 144.3125 208.65625 C 144.34375 204.714844 144.335938 200.703125 144.078125 198.046875 C 143.515625 192.363281 142.234375 188.308594 141.976562 187.550781 C 140.882812 184.300781 139.757812 182.257812 138.457031 179.890625 C 137.3125 177.804688 136.011719 175.441406 134.511719 171.757812 C 132.300781 166.34375 131.339844 163.835938 131.773438 161.273438 C 132.484375 157.027344 135.890625 154.234375 139.839844 151.003906 L 139.960938 150.90625 C 143.355469 148.132812 148.484375 143.941406 155.605469 141.671875 C 155.617188 141.671875 155.628906 141.660156 155.640625 141.652344 C 155.652344 141.652344 155.671875 141.644531 155.683594 141.640625 C 156.183594 141.441406 157.800781 141.238281 158.859375 141.910156 C 159.4375 142.269531 159.75 142.851562 159.808594 143.683594 L 159.855469 144.285156 C 159.890625 144.734375 159.929688 145.214844 159.953125 145.609375 C 157.300781 146.179688 154.4375 147.671875 153.234375 148.421875 C 150.703125 149.996094 148.832031 151.550781 143.277344 156.171875 L 142.6875 156.65625 C 142.179688 157.082031 142.105469 157.835938 142.53125 158.347656 C 142.773438 158.632812 143.109375 158.777344 143.457031 158.777344 C 143.726562 158.777344 143.996094 158.6875 144.222656 158.503906 L 144.808594 158.015625 C 150.269531 153.472656 152.113281 151.945312 154.503906 150.457031 C 156.679688 149.097656 160.796875 147.390625 162.53125 147.851562 C 163.640625 148.144531 164.386719 149.375 164.527344 149.617188 C 165.304688 150.984375 165.035156 152.371094 164.910156 152.851562 C 164.621094 153.042969 164.316406 153.246094 163.988281 153.46875 C 162.90625 154.199219 161.558594 155.105469 159.785156 156.210938 C 159.105469 156.632812 158.429688 157.015625 157.714844 157.417969 C 155.796875 158.492188 153.628906 159.714844 150.722656 162.160156 C 150.210938 162.585938 150.152344 163.339844 150.578125 163.851562 C 150.816406 164.132812 151.152344 164.273438 151.492188 164.273438 C 151.765625 164.273438 152.039062 164.183594 152.265625 163.992188 C 155 161.691406 156.980469 160.582031 158.898438 159.511719 C 159.640625 159.089844 160.335938 158.699219 161.0625 158.25 C 162.878906 157.125 164.238281 156.199219 165.335938 155.457031 C 168.210938 153.515625 168.546875 153.367188 169.359375 153.730469 C 171.816406 154.820312 171.628906 157.730469 171.167969 159.695312 C 170.316406 159.808594 169.421875 160.066406 168.523438 160.527344 C 166.988281 161.308594 165.507812 162.417969 163.789062 163.699219 C 162.671875 164.53125 161.402344 165.480469 159.957031 166.457031 C 159.40625 166.828125 159.261719 167.570312 159.632812 168.125 C 160.007812 168.667969 160.75 168.820312 161.300781 168.449219 C 162.800781 167.433594 164.089844 166.476562 165.226562 165.625 C 166.859375 164.40625 168.265625 163.351562 169.621094 162.664062 C 172.179688 161.363281 174.289062 162.433594 174.535156 162.574219 C 174.625 162.621094 174.714844 162.6875 174.8125 162.765625 C 175.421875 163.304688 175.472656 164.347656 175.519531 165.445312 L 175.519531 165.539062 C 175.675781 169.328125 174.226562 171.835938 172.984375 173.261719 C 171.382812 175.105469 169.460938 176.007812 167.960938 176.457031 C 168.128906 175.257812 168.5 174.269531 169.113281 173.40625 C 169.667969 172.625 170.4375 171.984375 171.390625 171.503906 C 171.984375 171.203125 172.214844 170.484375 171.917969 169.890625 C 171.617188 169.296875 170.898438 169.066406 170.304688 169.363281 C 169.003906 170.023438 167.941406 170.910156 167.15625 172.015625 C 166.007812 173.625 165.46875 175.507812 165.460938 177.917969 C 165.460938 177.9375 165.460938 177.953125 165.460938 177.972656 C 165.457031 179.460938 165.640625 181.160156 166.058594 183.332031 C 167.085938 188.679688 165.863281 190.925781 164.675781 193.101562 C 164.0625 194.230469 163.429688 195.398438 163.164062 196.890625 C 162.992188 197.886719 162.957031 198.855469 163.214844 201.410156 C 163.339844 202.679688 163.511719 204.054688 163.742188 205.488281 C 163.820312 205.984375 163.902344 206.507812 164.003906 207.0625 C 160.402344 208.566406 155.199219 210.34375 149.511719 210.972656 Z M 241.339844 230.015625 C 239.714844 230.957031 238.15625 231.863281 236.703125 232.75 C 236.703125 232.75 236.691406 232.75 236.6875 232.753906 C 236.375 232.945312 236.0625 233.140625 235.761719 233.324219 C 231.554688 230.867188 228.066406 229.171875 225.484375 227.910156 C 222.910156 226.664062 220.820312 225.644531 220.148438 224.859375 C 221.710938 220.015625 223.050781 217.476562 224.34375 215.011719 C 225.640625 212.546875 226.863281 210.222656 228.074219 205.984375 C 228.074219 205.972656 228.074219 205.964844 228.078125 205.953125 C 228.199219 205.570312 229.355469 202.269531 230.375 199.355469 C 231.082031 197.328125 231.808594 195.265625 232.296875 193.847656 L 232.53125 193.164062 C 232.605469 192.957031 232.664062 192.777344 232.71875 192.621094 C 236.367188 190.039062 237.921875 188.457031 240.042969 186.285156 C 241.339844 184.96875 242.800781 183.476562 245.101562 181.359375 C 252.992188 174.125 254.988281 172.941406 261.777344 172.734375 C 260.371094 179.171875 258.03125 184.058594 254.6875 187.558594 C 254.863281 186.550781 255.144531 185.566406 255.585938 184.542969 C 255.851562 183.929688 255.5625 183.230469 254.957031 182.964844 C 254.347656 182.703125 253.644531 182.988281 253.382812 183.59375 C 251.589844 187.773438 251.964844 191.328125 252.535156 196.699219 L 252.667969 197.953125 C 253.226562 203.351562 254.296875 211.21875 256.242188 218.238281 C 255.132812 222.007812 247.8125 226.246094 241.339844 230.003906 Z M 302.964844 154.703125 C 303.265625 159.019531 304.070312 167.644531 304.640625 172.003906 L 304.6875 172.335938 C 304.746094 172.769531 304.800781 173.152344 304.855469 173.484375 C 304.980469 174.832031 305.976562 182.9375 311.144531 188.078125 C 311.347656 191.644531 311.3125 194.863281 311.046875 197.867188 C 306.582031 198.753906 296.628906 200.414062 284.492188 200.414062 L 284.15625 200.414062 C 272.371094 200.386719 262.257812 198.707031 254.824219 195.554688 C 254.644531 193.859375 254.507812 192.382812 254.472656 191.035156 C 259.484375 186.890625 262.746094 180.582031 264.433594 171.738281 C 264.433594 171.738281 264.433594 171.730469 264.433594 171.726562 C 264.433594 171.726562 264.433594 171.726562 264.433594 171.71875 C 264.507812 171.320312 264.578125 170.910156 264.65625 170.484375 C 265.191406 167.300781 265.507812 162.789062 265.644531 160.433594 C 265.65625 160.300781 265.667969 160.167969 265.675781 160.039062 L 265.6875 159.882812 C 265.707031 159.648438 265.71875 159.417969 265.730469 159.199219 L 265.765625 158.570312 C 265.765625 158.507812 265.769531 158.449219 265.777344 158.390625 C 265.835938 157.328125 265.878906 156.355469 265.914062 155.511719 C 272.113281 158.539062 278.484375 160.097656 282.292969 160.296875 C 282.585938 160.3125 282.867188 160.320312 283.144531 160.320312 C 289.785156 160.320312 298.34375 156.832031 302.972656 154.691406 Z M 293.101562 289.851562 C 290.996094 301.941406 288.988281 313.476562 287.203125 323.175781 C 278.996094 290.289062 267.691406 246.148438 258.632812 217.914062 C 256.75 211.210938 255.683594 203.632812 255.113281 198.269531 C 263.78125 201.65625 274.335938 202.832031 284.414062 202.832031 C 294.492188 202.832031 304.035156 201.664062 310.769531 200.375 C 310.203125 204.546875 309.238281 207.734375 308.296875 210.820312 C 307.683594 212.824219 307.109375 214.71875 306.664062 216.796875 C 302.359375 236.6875 297.441406 264.933594 293.101562 289.859375 Z M 337.8125 224.742188 C 334.976562 226.660156 332.496094 228.335938 330.332031 229.664062 C 322.621094 226.429688 310.628906 218.914062 309.082031 216.964844 C 309.496094 215.113281 310.027344 213.363281 310.585938 211.523438 C 311.675781 207.9375 312.804688 204.226562 313.347656 199 C 313.714844 195.488281 313.769531 191.722656 313.511719 187.480469 C 313.4375 186.417969 313.347656 185.273438 313.230469 183.972656 C 313.167969 183.3125 312.582031 182.828125 311.921875 182.894531 C 311.359375 182.949219 310.925781 183.386719 310.847656 183.917969 C 307.78125 179.207031 307.253906 173.398438 307.234375 173.214844 C 313.023438 173.894531 316.316406 174.351562 319.0625 176.617188 C 320.664062 177.9375 322.28125 179.5625 323.988281 181.277344 C 326.972656 184.273438 330.359375 187.664062 334.984375 190.882812 C 335.046875 190.980469 335.242188 191.316406 335.578125 192.28125 C 335.589844 192.3125 335.601562 192.339844 335.613281 192.371094 C 338.148438 199.535156 341.625 208.898438 345.675781 219.488281 C 342.710938 221.425781 340.121094 223.175781 337.804688 224.742188 Z M 337.6875 191.058594 C 337.25 189.871094 336.890625 189.277344 336.421875 188.953125 C 331.9375 185.84375 328.617188 182.511719 325.683594 179.574219 C 323.933594 177.816406 322.273438 176.15625 320.585938 174.757812 C 317.199219 171.964844 313.3125 171.503906 306.898438 170.75 C 306.28125 165.707031 305.503906 156.949219 305.296875 153.574219 C 305.777344 153.335938 306.246094 153.097656 306.652344 152.875 C 307.308594 152.527344 307.953125 152.167969 308.589844 151.796875 C 308.816406 151.664062 309.03125 151.519531 309.261719 151.382812 C 309.667969 151.136719 310.074219 150.890625 310.472656 150.632812 C 310.734375 150.464844 310.988281 150.277344 311.246094 150.105469 C 311.597656 149.863281 311.953125 149.632812 312.300781 149.378906 C 312.570312 149.1875 312.828125 148.984375 313.089844 148.78125 C 313.414062 148.535156 313.746094 148.292969 314.070312 148.035156 C 314.339844 147.828125 314.597656 147.597656 314.867188 147.382812 C 315.171875 147.132812 315.484375 146.878906 315.78125 146.617188 C 316.046875 146.386719 316.304688 146.148438 316.5625 145.910156 C 316.855469 145.644531 317.148438 145.382812 317.4375 145.105469 C 317.695312 144.859375 317.945312 144.601562 318.199219 144.351562 C 318.480469 144.074219 318.761719 143.796875 319.039062 143.511719 C 319.289062 143.246094 319.535156 142.976562 319.78125 142.707031 C 320.050781 142.417969 320.320312 142.132812 320.578125 141.832031 C 320.824219 141.554688 321.058594 141.269531 321.296875 140.988281 C 321.554688 140.679688 321.8125 140.382812 322.066406 140.074219 C 322.296875 139.789062 322.527344 139.488281 322.761719 139.1875 C 323.007812 138.871094 323.25 138.558594 323.492188 138.234375 C 323.71875 137.929688 323.941406 137.617188 324.164062 137.304688 C 324.398438 136.976562 324.636719 136.648438 324.863281 136.3125 C 325.082031 135.992188 325.296875 135.664062 325.503906 135.339844 C 325.726562 135 325.957031 134.65625 326.175781 134.304688 C 326.386719 133.96875 326.589844 133.632812 326.792969 133.289062 C 327.011719 132.9375 327.21875 132.578125 327.429688 132.21875 C 327.628906 131.871094 327.824219 131.515625 328.015625 131.164062 C 328.222656 130.789062 328.425781 130.425781 328.621094 130.046875 C 328.816406 129.6875 329 129.320312 329.1875 128.949219 C 329.378906 128.566406 329.570312 128.183594 329.761719 127.792969 C 329.941406 127.414062 330.121094 127.039062 330.296875 126.65625 C 330.410156 126.410156 330.527344 126.167969 330.636719 125.921875 C 333.722656 126.402344 337.636719 125.046875 339.257812 124.078125 C 343.722656 121.375 347.03125 117.253906 348.8125 112.171875 C 350.519531 107.316406 350.898438 104.558594 350.582031 99.320312 C 350.375 96.125 349.0625 92.347656 346.601562 91.113281 C 343.550781 89.589844 340.28125 90.898438 338.542969 92.757812 C 338 93.335938 337.507812 94.015625 337.058594 94.769531 C 332.554688 90.363281 329.34375 82.984375 327 71.714844 C 326.859375 71.070312 326.230469 70.65625 325.578125 70.785156 C 324.929688 70.925781 324.511719 71.554688 324.648438 72.207031 C 327.191406 84.40625 330.792969 92.304688 335.949219 97.011719 C 335.707031 97.585938 335.480469 98.164062 335.265625 98.726562 L 335.109375 99.140625 C 334.875 99.757812 335.1875 100.453125 335.804688 100.6875 C 335.941406 100.742188 336.085938 100.765625 336.230469 100.765625 C 336.714844 100.765625 337.171875 100.472656 337.351562 99.992188 L 337.507812 99.578125 C 337.824219 98.738281 338.152344 97.871094 338.53125 97.078125 C 338.53125 97.078125 338.53125 97.070312 338.539062 97.066406 C 339.058594 95.976562 339.628906 95.101562 340.289062 94.398438 C 341.4375 93.167969 343.574219 92.289062 345.527344 93.257812 C 346.859375 93.925781 348.003906 96.597656 348.1875 99.46875 C 348.488281 104.386719 348.152344 106.832031 346.550781 111.378906 C 344.953125 115.929688 342.003906 119.617188 338.023438 122.027344 C 336.613281 122.871094 333.777344 123.730469 331.636719 123.621094 C 332.742188 120.953125 333.585938 118.542969 334.351562 116.285156 C 334.570312 115.660156 334.234375 114.976562 333.605469 114.761719 C 332.976562 114.546875 332.296875 114.882812 332.082031 115.511719 C 331.195312 118.105469 330.21875 120.898438 328.851562 124.046875 C 328.851562 124.046875 328.851562 124.054688 328.851562 124.058594 C 323.417969 136.609375 315.792969 145.339844 305.527344 150.757812 C 304.945312 151.070312 304.238281 151.421875 303.558594 151.757812 C 303.558594 151.757812 303.554688 151.757812 303.546875 151.757812 C 303.546875 151.757812 303.535156 151.757812 303.535156 151.765625 C 299.734375 153.617188 290.164062 157.910156 283.144531 157.910156 C 282.921875 157.910156 282.695312 157.910156 282.4375 157.886719 C 278.523438 157.679688 271.722656 155.941406 265.339844 152.515625 C 259.777344 149.523438 252.96875 143.964844 249.84375 140.539062 C 244.324219 134.464844 242.230469 128.519531 240.554688 123.742188 L 240.296875 123.011719 C 240.296875 123.011719 240.296875 122.996094 240.296875 122.992188 C 239.203125 119.789062 238.527344 116.855469 238.4375 114.929688 C 238.40625 114.269531 237.847656 113.773438 237.183594 113.789062 C 236.523438 113.820312 236.007812 114.382812 236.046875 115.042969 C 236.128906 116.847656 236.632812 119.289062 237.472656 122.039062 C 231.632812 121.105469 227.046875 115.390625 225.5625 106.96875 C 224.464844 100.769531 224.914062 95.878906 226.785156 93.546875 C 227.683594 92.433594 228.90625 91.855469 230.53125 91.785156 C 233.804688 91.648438 235.554688 95.050781 236.175781 96.574219 C 236.183594 96.59375 236.1875 96.609375 236.195312 96.628906 C 236.511719 97.40625 236.757812 98.230469 236.921875 99.054688 C 237 99.457031 237.269531 99.769531 237.617188 99.917969 C 237.808594 100.050781 238.042969 100.136719 238.300781 100.136719 C 238.957031 100.136719 239.496094 99.597656 239.496094 98.9375 C 239.496094 95.617188 240.589844 87.449219 244.730469 80.359375 C 245.066406 79.789062 244.867188 79.054688 244.300781 78.71875 C 243.722656 78.382812 242.992188 78.578125 242.65625 79.148438 C 239.714844 84.195312 238.222656 89.757812 237.554688 93.953125 C 235.828125 90.953125 233.277344 89.265625 230.421875 89.386719 C 228.097656 89.484375 226.246094 90.375 224.90625 92.042969 C 221.910156 95.777344 222.316406 102.441406 223.1875 107.382812 C 224.960938 117.421875 230.835938 124.058594 238.289062 124.542969 C 239.636719 128.375 241.386719 133.351562 245.121094 138.53125 C 245.121094 138.53125 245.121094 138.535156 245.125 138.542969 C 245.988281 139.742188 246.960938 140.945312 248.058594 142.148438 C 248.261719 142.371094 248.476562 142.605469 248.710938 142.84375 C 248.796875 142.929688 248.886719 143.019531 248.96875 143.101562 C 249.125 143.257812 249.273438 143.414062 249.441406 143.578125 C 249.550781 143.683594 249.664062 143.792969 249.777344 143.902344 C 249.929688 144.042969 250.078125 144.195312 250.238281 144.34375 C 250.367188 144.464844 250.496094 144.582031 250.625 144.699219 C 250.78125 144.839844 250.933594 144.984375 251.097656 145.136719 C 251.234375 145.253906 251.371094 145.382812 251.511719 145.507812 C 251.679688 145.65625 251.839844 145.800781 252.007812 145.949219 C 252.152344 146.078125 252.300781 146.207031 252.453125 146.335938 C 252.625 146.484375 252.792969 146.628906 252.96875 146.777344 C 253.125 146.910156 253.277344 147.035156 253.433594 147.167969 C 253.613281 147.316406 253.792969 147.46875 253.972656 147.617188 C 254.136719 147.75 254.296875 147.875 254.460938 148.007812 C 254.644531 148.15625 254.832031 148.304688 255.015625 148.457031 C 255.179688 148.589844 255.347656 148.714844 255.515625 148.847656 C 255.707031 148.996094 255.898438 149.140625 256.089844 149.289062 C 256.257812 149.414062 256.425781 149.546875 256.601562 149.671875 C 256.796875 149.824219 256.988281 149.964844 257.1875 150.109375 C 257.355469 150.238281 257.527344 150.363281 257.695312 150.480469 C 257.894531 150.625 258.097656 150.769531 258.296875 150.914062 C 258.46875 151.035156 258.636719 151.152344 258.8125 151.273438 C 259.015625 151.417969 259.21875 151.554688 259.421875 151.691406 C 259.597656 151.808594 259.765625 151.925781 259.9375 152.039062 C 260.144531 152.179688 260.347656 152.308594 260.550781 152.441406 C 260.722656 152.554688 260.890625 152.664062 261.066406 152.773438 C 261.269531 152.902344 261.472656 153.03125 261.675781 153.15625 C 261.84375 153.261719 262.019531 153.367188 262.1875 153.46875 C 262.390625 153.59375 262.59375 153.714844 262.792969 153.828125 C 262.960938 153.921875 263.128906 154.019531 263.289062 154.113281 C 263.375 154.164062 263.457031 154.214844 263.542969 154.257812 C 263.535156 154.539062 263.523438 154.851562 263.511719 155.175781 C 263.476562 156.019531 263.433594 157.058594 263.375 158.214844 C 263.246094 160.390625 262.871094 165.460938 262.792969 166.128906 C 262.65625 167.507812 262.488281 168.878906 262.289062 170.054688 C 262.277344 170.136719 262.257812 170.214844 262.246094 170.292969 C 254.375 170.484375 251.992188 171.75 243.476562 179.5625 C 241.128906 181.71875 239.574219 183.300781 238.324219 184.578125 C 236.148438 186.796875 234.707031 188.265625 231.011719 190.855469 C 230.792969 191.003906 230.636719 191.21875 230.558594 191.464844 C 230.5 191.65625 230.390625 191.957031 230.261719 192.347656 L 230.21875 192.472656 C 229.074219 192.855469 227.875 193.246094 226.621094 193.660156 C 220.621094 195.625 213.285156 198.03125 206.613281 201.015625 C 207.789062 192.179688 213.019531 185.375 217.671875 179.328125 C 223.28125 172.03125 228.589844 165.144531 225.015625 156.609375 C 213.519531 129.117188 212.421875 84.789062 222.625 59.816406 C 231.710938 37.566406 251.839844 13.132812 274.570312 12.066406 C 274.722656 12.058594 274.863281 12.023438 275.003906 11.964844 C 280.636719 9.453125 293.417969 8.964844 306.941406 12.910156 C 318.277344 16.214844 333.898438 23.632812 343.972656 40.210938 C 354.867188 58.125 362.546875 96.652344 361.183594 115.628906 C 360.550781 124.507812 359.039062 131.167969 357.703125 137.035156 C 355.296875 147.609375 353.558594 155.246094 359.523438 166.625 C 360.972656 169.394531 362.839844 172.019531 364.636719 174.5625 C 370.414062 182.714844 376.386719 191.136719 371.355469 206.882812 C 366.453125 204.316406 360.859375 201.855469 355.359375 199.433594 C 349.136719 196.691406 342.710938 193.859375 337.6875 191.035156 Z M 367.179688 285.386719 C 367.179688 308.375 367.035156 316.707031 365.980469 335.804688 C 365.558594 343.359375 365.070312 349.765625 364.589844 355.957031 C 364.039062 363.089844 363.515625 369.835938 363.15625 377.753906 C 363.125 378.394531 362.597656 378.898438 361.957031 378.898438 C 361.941406 378.898438 361.921875 378.898438 361.902344 378.898438 C 361.246094 378.867188 360.730469 378.304688 360.757812 377.644531 C 361.125 369.691406 361.644531 362.929688 362.199219 355.777344 C 362.675781 349.597656 363.167969 343.203125 363.582031 335.671875 C 364.636719 316.636719 364.78125 308.320312 364.78125 285.386719 C 364.78125 284.726562 365.320312 284.1875 365.980469 284.1875 C 366.640625 284.1875 367.179688 284.726562 367.179688 285.386719 Z M 286.253906 341.132812 C 283.28125 341.132812 280.859375 343.554688 280.859375 346.527344 C 280.859375 349.503906 283.28125 351.925781 286.253906 351.925781 C 289.226562 351.925781 291.648438 349.503906 291.648438 346.527344 C 291.648438 343.554688 289.226562 341.132812 286.253906 341.132812 Z M 286.253906 349.527344 C 284.601562 349.527344 283.257812 348.183594 283.257812 346.527344 C 283.257812 344.875 284.601562 343.53125 286.253906 343.53125 C 287.910156 343.53125 289.25 344.875 289.25 346.527344 C 289.25 348.183594 287.910156 349.527344 286.253906 349.527344 Z M 299.035156 131.167969 L 285.246094 131.167969 C 279.367188 131.167969 271.027344 130.574219 270.945312 130.570312 C 270.578125 130.550781 270.238281 130.683594 269.992188 130.941406 C 269.746094 131.199219 269.625 131.558594 269.671875 131.910156 C 270.386719 137.582031 277.351562 144.511719 284.460938 144.511719 C 290.898438 144.511719 296.3125 140.496094 300.105469 132.902344 C 300.292969 132.527344 300.273438 132.085938 300.054688 131.730469 C 299.835938 131.378906 299.449219 131.164062 299.035156 131.164062 Z M 284.457031 142.121094 C 279.019531 142.121094 273.859375 137.101562 272.40625 133.074219 C 275.164062 133.25 280.867188 133.570312 285.242188 133.570312 L 297.019531 133.570312 C 293.730469 139.25 289.507812 142.125 284.449219 142.125 Z M 256.910156 74.058594 C 254.261719 62.785156 257.953125 51.25 266.328125 44.667969 C 266.851562 44.261719 267.601562 44.351562 268.011719 44.871094 C 268.421875 45.394531 268.332031 46.148438 267.808594 46.558594 C 260.167969 52.5625 256.804688 63.144531 259.242188 73.515625 C 259.394531 74.160156 258.996094 74.804688 258.351562 74.957031 C 258.261719 74.984375 258.164062 74.988281 258.074219 74.988281 C 257.527344 74.988281 257.039062 74.617188 256.90625 74.066406 Z M 283.515625 72.722656 C 277.25 64.75 275.792969 56.8125 278.492188 45.335938 C 278.640625 44.6875 279.289062 44.292969 279.9375 44.441406 C 280.582031 44.589844 280.980469 45.238281 280.828125 45.886719 C 278.28125 56.707031 279.566406 63.820312 285.398438 71.25 C 285.804688 71.769531 285.714844 72.523438 285.191406 72.933594 C 284.972656 73.105469 284.714844 73.191406 284.457031 73.191406 C 284.101562 73.191406 283.75 73.035156 283.515625 72.734375 Z M 288.058594 46.121094 C 288.105469 45.460938 288.683594 44.960938 289.347656 45.015625 C 290.007812 45.066406 290.503906 45.644531 290.449219 46.304688 C 289.921875 53.167969 296.488281 66.175781 304.890625 71.582031 C 305.449219 71.945312 305.609375 72.679688 305.25 73.238281 C 305.023438 73.59375 304.632812 73.789062 304.242188 73.789062 C 304.023438 73.789062 303.792969 73.730469 303.597656 73.597656 C 295.113281 68.144531 287.417969 54.535156 288.066406 46.125 Z M 283.890625 119.671875 C 285.242188 118.226562 287.046875 117.542969 287.878906 118.195312 C 288.609375 118.773438 288.476562 120.691406 287.789062 121.902344 C 287.09375 123.113281 285.660156 123.597656 284.589844 122.980469 C 283.507812 122.367188 283.316406 120.292969 283.890625 119.675781 Z M 268.390625 85.382812 C 268.882812 85.828125 268.925781 86.582031 268.480469 87.078125 C 268.039062 87.578125 267.28125 87.613281 266.785156 87.167969 C 264.019531 84.675781 259.417969 85.195312 257.367188 85.816406 C 253.757812 86.90625 251.660156 89.125 251.132812 90.351562 C 250.933594 90.800781 250.496094 91.078125 250.03125 91.078125 C 249.875 91.078125 249.710938 91.046875 249.554688 90.976562 C 248.949219 90.710938 248.667969 90.003906 248.933594 89.398438 C 249.585938 87.886719 251.953125 84.953125 256.679688 83.519531 C 259.359375 82.710938 264.847656 82.1875 268.398438 85.390625 Z M 318.652344 89.992188 C 318.917969 90.597656 318.636719 91.304688 318.03125 91.570312 C 317.875 91.636719 317.714844 91.671875 317.558594 91.671875 C 317.09375 91.671875 316.652344 91.402344 316.453125 90.945312 C 315.898438 89.652344 313.871094 86.917969 310.21875 85.808594 C 308.167969 85.183594 303.566406 84.667969 300.804688 87.164062 C 300.3125 87.605469 299.550781 87.566406 299.105469 87.074219 C 298.664062 86.582031 298.703125 85.820312 299.195312 85.378906 C 302.75 82.175781 308.234375 82.699219 310.914062 83.507812 C 315.40625 84.867188 317.894531 88.21875 318.660156 89.988281 Z M 267.132812 102.183594 C 267.132812 104.972656 264.792969 107.238281 261.929688 107.238281 C 259.0625 107.238281 256.726562 104.972656 256.726562 102.183594 C 256.726562 99.398438 259.0625 97.132812 261.929688 97.132812 C 264.792969 97.132812 267.132812 99.398438 267.132812 102.183594 Z M 312.535156 102.183594 C 312.535156 104.972656 310.195312 107.238281 307.332031 107.238281 C 304.464844 107.238281 302.128906 104.972656 302.128906 102.183594 C 302.128906 99.398438 304.464844 97.132812 307.332031 97.132812 C 310.195312 97.132812 312.535156 99.398438 312.535156 102.183594 Z M 312.535156 102.183594 " fill-opacity="1" fill-rule="nonzero"/></g></svg>