<svg xmlns="http://www.w3.org/2000/svg" xmlns:xlink="http://www.w3.org/1999/xlink" width="674" zoomAndPan="magnify" viewBox="0 0 505.5 473.999983" height="632" preserveAspectRatio="xMidYMid meet" version="1.0"><defs><clipPath id="ae62e29345"><path d="M 136.554688 74.828125 L 368 74.828125 L 368 319 L 136.554688 319 Z M 136.554688 74.828125 " clip-rule="nonzero"/></clipPath><clipPath id="29c778ec89"><path d="M 193 330 L 278 330 L 278 398.507812 L 193 398.507812 Z M 193 330 " clip-rule="nonzero"/></clipPath></defs><path fill="#a3e635" d="M 168.714844 27.136719 C 123.613281 27 88.945312 45.777344 64.710938 83.472656 C 64.6875 83.503906 64.671875 83.542969 64.664062 83.582031 L 64.644531 83.582031 C 60.503906 90.535156 57.59375 99.214844 55.917969 109.617188 C 55.90625 109.683594 55.917969 109.753906 55.945312 109.8125 L 55.925781 109.8125 C 53.871094 165.972656 51.015625 197.355469 47.355469 203.96875 C 47.324219 204.027344 47.308594 204.09375 47.316406 204.15625 L 47.296875 204.15625 C 20.902344 270.886719 7.1875 307.976562 6.15625 315.4375 C 6.144531 315.527344 6.171875 315.621094 6.234375 315.691406 L 6.238281 315.695312 C 6.519531 316.277344 6.605469 316.945312 6.46875 317.601562 C 2.359375 337.304688 3.152344 354.996094 8.851562 370.671875 C 8.863281 370.707031 8.882812 370.742188 8.90625 370.769531 L 8.886719 370.769531 C 22.351562 406.835938 48.167969 425.160156 86.34375 425.742188 L 86.347656 425.742188 C 86.363281 425.742188 86.375 425.738281 86.390625 425.738281 L 86.378906 425.738281 C 96.171875 424.832031 106.480469 422.46875 117.304688 418.648438 L 117.289062 418.648438 L 117.402344 418.617188 C 181.839844 387.792969 222.464844 372.125 239.273438 371.613281 L 239.285156 371.613281 L 239.304688 371.609375 L 239.433594 371.574219 C 242.492188 369.964844 250.253906 369.179688 262.726562 369.21875 C 285.289062 369.289062 323.148438 372.070312 376.308594 377.5625 L 376.367188 377.5625 L 376.390625 377.566406 C 377.027344 377.574219 377.664062 377.582031 378.304688 377.582031 C 388.796875 377.613281 399.300781 376.402344 409.816406 373.941406 L 409.824219 373.9375 L 409.828125 373.941406 L 409.855469 373.925781 L 409.871094 373.929688 C 434.128906 367.683594 452.3125 353.992188 464.425781 332.855469 L 464.425781 332.859375 L 464.472656 332.777344 L 464.472656 332.78125 C 477.246094 311.894531 479.878906 289.113281 472.371094 264.429688 L 472.34375 264.429688 C 472.351562 264.382812 472.34375 264.335938 472.328125 264.292969 C 469.882812 257.152344 466.09375 248.960938 460.960938 239.71875 L 460.9375 239.71875 C 460.933594 239.65625 460.914062 239.597656 460.878906 239.546875 C 435.800781 202.800781 420.230469 177.179688 414.164062 162.6875 L 414.140625 162.6875 C 414.152344 162.609375 414.132812 162.53125 414.085938 162.460938 C 409.332031 155.511719 400.140625 127.640625 386.515625 78.84375 L 386.53125 78.847656 C 386.527344 78.832031 386.527344 78.824219 386.519531 78.8125 C 381.375 65.636719 375.363281 55.003906 368.488281 46.914062 L 368.414062 46.824219 C 361.773438 38.421875 351.886719 33.585938 338.75 32.3125 C 338.210938 32.261719 337.707031 32.066406 337.28125 31.761719 L 337.261719 31.765625 C 337.210938 31.671875 337.121094 31.609375 337.011719 31.597656 C 336.304688 31.515625 335.289062 31.472656 333.972656 31.46875 C 323.863281 31.4375 295.566406 33.695312 249.089844 38.238281 L 248.90625 38.25 L 248.902344 38.25 C 248.144531 38.28125 247.351562 38.292969 246.523438 38.289062 C 236.710938 38.257812 222.097656 36.011719 202.683594 31.539062 C 201.941406 31.371094 201.328125 30.9375 200.914062 30.367188 L 200.894531 30.367188 C 200.878906 30.226562 200.773438 30.109375 200.628906 30.085938 C 189.46875 28.152344 178.828125 27.167969 168.714844 27.136719 Z M 168.714844 27.136719 " fill-opacity="1" fill-rule="nonzero"/><path fill="#000000" d="M 158.179688 43.511719 C 96.15625 48.613281 56.78125 77.277344 40.066406 129.503906 L 40.09375 129.410156 C 37.867188 137.15625 37.292969 146.265625 38.367188 156.738281 L 38.300781 156.335938 C 50.917969 211.390625 56.257812 242.46875 54.332031 249.570312 L 54.425781 249.082031 C 45.871094 323.085938 42.273438 362.558594 43.636719 367.503906 C 43.347656 366.464844 42.550781 365.871094 41.238281 365.71875 C 40.5 365.632812 39.832031 365.792969 39.230469 366.191406 C 40.214844 365.535156 41.476562 365.457031 42.535156 365.988281 C 43.59375 366.519531 44.285156 367.574219 44.351562 368.757812 C 45.46875 388.640625 50.75 405.335938 60.199219 418.847656 L 60.183594 418.828125 C 82.304688 449.949219 111.722656 460.863281 148.4375 451.574219 L 148.109375 451.675781 C 157.375 448.269531 166.761719 443.292969 176.273438 436.742188 L 176 436.953125 C 231.144531 389.757812 266.476562 364.167969 282 360.1875 L 279.996094 361.671875 C 280.148438 361.425781 280.320312 361.183594 280.515625 360.949219 C 286.027344 354.324219 330.519531 344.335938 414.003906 330.980469 L 413.730469 331.035156 C 424.511719 328.367188 434.941406 324.332031 445.019531 318.929688 L 444.960938 318.960938 C 466.554688 306.792969 480.433594 289.0625 486.597656 265.761719 L 486.625 265.671875 C 493.5 242.394531 490.144531 219.902344 476.558594 198.1875 L 476.617188 198.277344 C 472.390625 191.992188 466.5625 185.015625 459.132812 177.359375 L 459.347656 177.5625 C 425.398438 148.367188 403.753906 127.621094 394.410156 115.328125 L 394.953125 115.890625 C 388.742188 110.84375 372.617188 86.296875 346.585938 42.253906 L 346.765625 42.53125 C 338.472656 31.25 330.003906 22.625 321.367188 16.65625 L 321.269531 16.585938 C 312.824219 10.289062 302.183594 8.210938 289.351562 10.347656 C 288.183594 10.542969 287 10.097656 286.253906 9.179688 C 285.503906 8.261719 285.300781 7.015625 285.726562 5.910156 C 284.992188 7.824219 285.578125 9.148438 287.484375 9.878906 C 287.769531 9.988281 288.015625 10.042969 288.21875 10.039062 C 284.066406 10.09375 256.324219 19.757812 204.996094 39.023438 L 204.808594 39.085938 C 195.527344 41.960938 180.15625 43.777344 158.691406 44.535156 C 156.867188 44.601562 155.339844 43.175781 155.273438 41.351562 C 155.210938 39.53125 156.636719 38 158.457031 37.9375 C 179.335938 37.199219 194.132812 35.476562 202.855469 32.777344 L 202.671875 32.839844 C 254.722656 13.300781 283.210938 3.5 288.132812 3.433594 C 288.773438 3.425781 289.347656 3.519531 289.851562 3.710938 C 292.054688 4.558594 292.734375 6.078125 291.894531 8.273438 L 288.265625 3.832031 C 302.949219 1.386719 315.265625 3.871094 325.21875 11.289062 L 325.121094 11.222656 C 334.367188 17.609375 343.355469 26.742188 352.089844 38.617188 C 352.152344 38.707031 352.214844 38.796875 352.269531 38.894531 C 377.902344 82.257812 393.519531 106.214844 399.121094 110.765625 C 399.324219 110.929688 399.507812 111.121094 399.667969 111.328125 C 408.730469 123.253906 430.058594 143.660156 463.65625 172.554688 C 463.730469 172.621094 463.800781 172.6875 463.871094 172.761719 C 471.578125 180.699219 477.652344 187.980469 482.097656 194.59375 L 482.15625 194.683594 C 496.796875 218.078125 500.394531 242.363281 492.957031 267.542969 L 492.984375 267.453125 C 486.34375 292.546875 471.414062 311.636719 448.203125 324.714844 L 448.140625 324.75 C 437.574219 330.414062 426.636719 334.644531 415.320312 337.445312 C 415.226562 337.46875 415.136719 337.484375 415.046875 337.5 C 333.195312 350.597656 290.046875 359.820312 285.59375 365.171875 C 285.605469 365.15625 285.625 365.132812 285.644531 365.101562 C 285.195312 365.839844 284.476562 366.371094 283.640625 366.585938 C 269.109375 370.3125 234.664062 395.441406 180.296875 441.972656 C 180.207031 442.046875 180.117188 442.117188 180.019531 442.183594 C 170.050781 449.046875 160.171875 454.277344 150.386719 457.875 C 150.28125 457.914062 150.171875 457.949219 150.058594 457.976562 C 110.421875 468.007812 78.667969 456.234375 54.800781 422.65625 L 54.785156 422.632812 C 44.621094 408.09375 38.945312 390.257812 37.757812 369.125 L 42.882812 371.691406 C 42.140625 372.183594 41.339844 372.378906 40.480469 372.28125 C 38.839844 372.089844 37.769531 371.082031 37.265625 369.253906 C 35.679688 363.484375 39.210938 323.175781 47.863281 248.324219 C 47.882812 248.160156 47.914062 248 47.957031 247.839844 C 49.597656 241.800781 44.230469 211.792969 31.863281 157.8125 C 31.832031 157.679688 31.808594 157.542969 31.796875 157.410156 C 30.636719 146.089844 31.285156 136.148438 33.746094 127.585938 L 33.773438 127.492188 C 51.390625 72.457031 92.679688 42.269531 157.636719 36.929688 C 159.457031 36.78125 161.050781 38.132812 161.199219 39.949219 C 161.351562 41.769531 159.996094 43.363281 158.179688 43.511719 Z M 158.179688 43.511719 " fill-opacity="1" fill-rule="nonzero"/><path fill="#38b6ff" d="M 299.5625 153.222656 C 293.988281 141.609375 278.984375 132.976562 264.832031 134.828125 C 236.929688 138.472656 228.410156 163.777344 217.320312 184.203125 C 211.667969 194.617188 203.558594 204.683594 191.949219 208.578125 C 170.246094 215.855469 146.210938 196.390625 143.5625 174.628906 C 140.914062 152.863281 154.078125 131.886719 170.730469 116.773438 C 205.378906 85.328125 263.945312 71.492188 309.089844 89.265625 C 331.441406 98.0625 350.3125 115.652344 357.792969 137.550781 C 365.277344 159.449219 360.304688 185.332031 343.476562 201.867188 C 334.449219 210.738281 322.515625 216.789062 314.511719 226.511719 C 303.21875 240.230469 303.972656 257.699219 296.074219 272.625 C 288.660156 286.632812 282.085938 299.730469 266.414062 306.921875 C 244.582031 316.9375 213.0625 311.742188 208.511719 285.734375 C 206.382812 273.570312 209.898438 259.324219 218.488281 249.992188 C 228.863281 238.71875 246.898438 236.671875 254.65625 223.003906 C 258.800781 215.703125 258.734375 206.613281 263.554688 199.699219 C 270.988281 189.042969 287.242188 187.175781 295.855469 177.359375 C 302.832031 169.414062 303.152344 160.699219 299.5625 153.222656 Z M 299.5625 153.222656 " fill-opacity="1" fill-rule="nonzero"/><g clip-path="url(#ae62e29345)"><path fill="#000000" d="M 244.375 318.257812 C 235.996094 318.257812 227.867188 316.46875 221.050781 312.886719 C 210.636719 307.417969 204.0625 298.417969 202.039062 286.867188 C 199.476562 272.214844 204.035156 255.996094 213.652344 245.542969 C 218.964844 239.777344 225.566406 236.296875 231.949219 232.933594 C 239.238281 229.089844 245.53125 225.773438 248.945312 219.761719 C 250.445312 217.113281 251.328125 213.867188 252.257812 210.425781 C 253.503906 205.820312 254.917969 200.601562 258.167969 195.941406 C 263.058594 188.929688 270.671875 185.148438 277.382812 181.8125 C 282.695312 179.171875 287.710938 176.679688 290.921875 173.027344 C 295.578125 167.71875 296.496094 162.011719 293.640625 156.066406 C 289.0625 146.53125 276.507812 139.921875 265.683594 141.34375 C 245.191406 144.019531 236.757812 160.636719 227.824219 178.226562 C 226.296875 181.238281 224.714844 184.347656 223.09375 187.339844 C 215.285156 201.71875 205.511719 210.957031 194.035156 214.804688 C 182.910156 218.539062 170.707031 216.769531 159.683594 209.8125 C 147.351562 202.027344 138.675781 188.851562 137.039062 175.421875 C 134.464844 154.277344 145.136719 131.128906 166.316406 111.90625 C 204.570312 77.191406 265.625 65.097656 311.496094 83.152344 C 336.566406 93.019531 356.199219 112.5625 364.011719 135.425781 C 372.496094 160.269531 366.097656 188.855469 348.082031 206.554688 C 343.875 210.683594 339.203125 214.167969 334.679688 217.535156 C 329 221.765625 323.636719 225.761719 319.585938 230.6875 C 313.90625 237.589844 311.660156 245.941406 309.285156 254.789062 C 307.4375 261.683594 305.519531 268.820312 301.878906 275.695312 L 301.25 276.890625 C 293.953125 290.699219 286.40625 304.976562 269.15625 312.894531 C 265.261719 314.660156 261.230469 315.996094 257.050781 316.902344 C 252.875 317.804688 248.648438 318.257812 244.375 318.257812 Z M 305.484375 150.378906 C 310.609375 161.046875 308.898438 172.460938 300.792969 181.695312 C 295.878906 187.292969 289.449219 190.488281 283.230469 193.578125 C 277.410156 196.46875 271.914062 199.199219 268.945312 203.457031 C 267 206.242188 266 209.941406 264.941406 213.859375 C 263.835938 217.9375 262.691406 222.15625 260.367188 226.25 C 255.058594 235.605469 246.035156 240.359375 238.074219 244.554688 C 232.429688 247.53125 227.097656 250.34375 223.324219 254.441406 C 216.476562 261.878906 213.125 273.996094 214.980469 284.601562 C 216.292969 292.097656 220.390625 297.699219 227.160156 301.253906 C 237.160156 306.507812 251.832031 306.386719 263.675781 300.953125 C 276.875 294.894531 282.785156 283.707031 289.632812 270.75 L 290.269531 269.550781 C 293.214844 263.984375 294.859375 257.863281 296.597656 251.378906 C 299.230469 241.574219 301.953125 231.433594 309.441406 222.335938 C 314.507812 216.179688 320.773438 211.511719 326.832031 207 C 331.191406 203.75 335.308594 200.683594 338.871094 197.179688 C 353.359375 182.949219 358.464844 159.835938 351.578125 139.675781 C 344.996094 120.410156 328.214844 103.851562 306.683594 95.378906 C 265.890625 79.3125 209.339844 90.609375 175.148438 121.636719 C 157.167969 137.953125 148.03125 156.980469 150.082031 173.832031 C 151.25 183.441406 157.617188 192.96875 166.695312 198.699219 C 174.3125 203.507812 182.535156 204.800781 189.859375 202.347656 C 198.078125 199.59375 205.375 192.433594 211.546875 181.070312 C 213.082031 178.238281 214.554688 175.34375 216.109375 172.277344 C 225.722656 153.347656 236.617188 131.886719 263.980469 128.3125 C 280.554688 126.144531 298.40625 135.632812 305.484375 150.378906 Z M 305.484375 150.378906 " fill-opacity="1" fill-rule="nonzero"/></g><path fill="#38b6ff" d="M 220.488281 390.402344 C 210.949219 387.519531 203.121094 380.542969 200.65625 368.945312 C 195.195312 343.253906 221.652344 337.644531 241.875 337.269531 C 247.539062 337.164062 253.410156 337.09375 258.601562 339.253906 C 279.007812 347.75 271.476562 370.460938 258.355469 382.027344 C 248.199219 390.976562 232.894531 394.15625 220.488281 390.402344 Z M 220.488281 390.402344 " fill-opacity="1" fill-rule="nonzero"/><g clip-path="url(#29c778ec89)"><path fill="#000000" d="M 231.234375 398.507812 C 226.929688 398.523438 222.710938 397.917969 218.585938 396.691406 C 205.851562 392.84375 196.976562 383.226562 194.230469 370.3125 C 192.15625 360.546875 193.765625 352.246094 199.011719 345.640625 C 208.441406 333.777344 227.457031 330.96875 241.75 330.699219 C 247.453125 330.59375 254.566406 330.460938 261.125 333.191406 C 272.777344 338.039062 276.425781 346.324219 277.4375 352.417969 C 279.585938 365.410156 271.585938 379.125 262.699219 386.953125 C 254.25 394.402344 242.609375 398.507812 231.234375 398.507812 Z M 245.433594 343.792969 C 244.289062 343.792969 243.140625 343.816406 241.996094 343.835938 C 225.785156 344.136719 214.171875 347.683594 209.296875 353.816406 C 206.570312 357.25 205.84375 361.753906 207.082031 367.582031 C 209.316406 378.097656 216.640625 382.378906 222.386719 384.113281 C 232.753906 387.25 245.765625 384.363281 254.015625 377.097656 C 261.1875 370.773438 265.585938 361.296875 264.472656 354.5625 C 263.785156 350.410156 261.039062 347.386719 256.078125 345.320312 C 252.988281 344.035156 249.246094 343.792969 245.433594 343.792969 Z M 245.433594 343.792969 " fill-opacity="1" fill-rule="nonzero"/></g></svg>