<svg xmlns="http://www.w3.org/2000/svg" xmlns:xlink="http://www.w3.org/1999/xlink" width="711" zoomAndPan="magnify" viewBox="0 0 533.25 428.250001" height="571" preserveAspectRatio="xMidYMid meet" version="1.0"><defs><clipPath id="149c1871c0"><path d="M 154 15 L 378 15 L 378 412.746094 L 154 412.746094 Z M 154 15 " clip-rule="nonzero"/></clipPath></defs><path fill="#a3e635" d="M 182.578125 17.65625 C 162.519531 21.96875 141.769531 32.101562 120.378906 47.867188 L 120.378906 47.871094 C 120.289062 47.933594 120.207031 47.988281 120.113281 48.046875 C 120.039062 48.089844 119.984375 48.15625 119.957031 48.230469 L 119.933594 48.234375 C 77.75 95.675781 20.113281 185.175781 18.253906 255.863281 C 16.347656 328.421875 36.496094 380.21875 76.265625 409.644531 C 93.773438 422.597656 113.785156 426.847656 134.757812 424.679688 C 139.992188 424.140625 145.214844 423.527344 150.3125 422.429688 C 154.109375 421.613281 157.847656 420.527344 161.476562 419.003906 C 203.796875 401.269531 234.9375 389.625 255.269531 385.253906 C 257.535156 384.765625 259.664062 384.371094 261.660156 384.066406 C 272.566406 382.398438 287.316406 380.28125 305.542969 382.554688 C 375.460938 391.28125 413.710938 394.625 422.367188 393.691406 C 428.699219 393.011719 434.839844 392.078125 440.761719 390.804688 C 458.398438 387.011719 474.136719 380.183594 487.441406 367.886719 C 514.765625 342.632812 529.152344 310.589844 530.4375 272.980469 C 531.746094 234.726562 518.933594 204.804688 493.648438 182.972656 C 484.910156 175.425781 476.207031 168.898438 466.304688 166.191406 C 399.863281 148.023438 359.414062 135.363281 347.625 124.816406 L 347.601562 124.820312 C 347.570312 124.738281 347.507812 124.667969 347.421875 124.628906 C 328.261719 115.003906 298.089844 83.625 254.375 33.96875 C 247.351562 25.996094 238.644531 21.183594 230.261719 18.824219 L 230.257812 18.824219 C 230.246094 18.820312 230.234375 18.816406 230.222656 18.8125 C 214.824219 14.492188 198.933594 14.136719 182.578125 17.65625 Z M 182.578125 17.65625 " fill-opacity="0.996" fill-rule="nonzero"/><path fill="#000000" d="M 158.914062 22.183594 C 202.296875 2.636719 240.929688 0.0703125 273.421875 17.210938 C 281.714844 21.585938 289.820312 28.632812 295.425781 38.648438 C 327.066406 95.207031 348.660156 129.761719 363.71875 141.660156 C 363.964844 141.851562 364.175781 142.082031 364.347656 142.339844 C 371.585938 153.089844 405.402344 172.597656 466.277344 204.191406 C 476.285156 209.386719 483.820312 218.230469 490.578125 227.183594 C 511.140625 254.414062 517.371094 287.035156 508 324.363281 C 498.796875 361.015625 477.808594 389.605469 445.566406 408.683594 C 423.988281 421.449219 400.371094 423.199219 375.460938 420.585938 C 366.261719 419.617188 330 408.359375 266.195312 386.082031 C 250.230469 380.503906 236.53125 379.539062 225.992188 378.902344 C 207.398438 377.78125 174.292969 382.371094 125.730469 391.460938 C 116.074219 393.269531 106.515625 392.421875 97.710938 391.457031 C 76.300781 389.117188 56.90625 380.503906 41.949219 363.519531 C 8.710938 325.773438 0.398438 270.628906 17.164062 201.558594 C 33.847656 132.820312 108.542969 58.609375 158.210938 22.441406 C 159.550781 21.46875 161.425781 21.761719 162.402344 23.101562 C 163.375 24.441406 163.082031 26.316406 161.742188 27.289062 C 112.300781 63.289062 39.144531 136.417969 22.988281 202.976562 C 6.480469 271 14.996094 323.835938 46.449219 359.554688 C 60.273438 375.253906 78.207031 383.292969 98.363281 385.496094 C 107.171875 386.460938 115.933594 387.195312 124.628906 385.566406 C 173.015625 376.507812 206.882812 371.742188 226.351562 372.917969 C 236.988281 373.558594 251.382812 374.554688 268.175781 380.417969 C 332.414062 402.851562 367.777344 413.75 376.085938 414.621094 C 400.367188 417.167969 422.496094 415.363281 442.511719 403.519531 C 473.339844 385.28125 493.359375 358.042969 502.183594 322.902344 C 511.160156 287.160156 505.15625 256.4375 485.792969 230.796875 C 479.078125 221.90625 472.234375 214.039062 463.515625 209.515625 C 403.621094 178.433594 367.714844 158.074219 359.375 145.6875 L 360.003906 146.367188 C 343.773438 133.546875 321.550781 97.628906 290.191406 41.574219 C 285.214844 32.679688 278.011719 26.410156 270.621094 22.515625 C 240.34375 6.542969 203.777344 8.546875 161.378906 27.652344 C 159.867188 28.332031 158.09375 27.660156 157.410156 26.152344 C 156.730469 24.640625 157.402344 22.867188 158.914062 22.183594 Z M 158.914062 22.183594 " fill-opacity="0.996" fill-rule="nonzero"/><path fill="#b48162" d="M 308.746094 97.058594 C 309.117188 95.238281 309.207031 93.460938 308.9375 91.835938 C 308.269531 87.882812 306.671875 86.65625 304.90625 86.648438 C 304.625 86.648438 304.34375 86.679688 304.0625 86.730469 L 304.050781 86.730469 C 303.246094 86.882812 302.4375 87.222656 301.691406 87.632812 L 301.6875 87.632812 C 295.328125 83.617188 294.972656 82.90625 289.957031 82.207031 C 285.609375 81.601562 279.046875 85.09375 272.367188 83.601562 C 276.140625 81.511719 277.933594 79.746094 279.617188 76.390625 C 279.882812 75.875 280.132812 75.328125 280.398438 74.730469 C 280.40625 74.722656 280.40625 74.707031 280.414062 74.695312 C 280.859375 73.882812 281.191406 73.199219 281.328125 72.777344 C 282.222656 69.996094 282.90625 67.246094 283.304688 64.4375 C 283.609375 62.375 283.761719 60.285156 283.714844 58.117188 C 279.320312 72.867188 270.996094 77.117188 266.046875 79.457031 C 263.675781 80.578125 258.390625 82.148438 251.003906 83.601562 C 252.925781 80.019531 255.617188 78.328125 254.546875 71.632812 C 250.519531 81.300781 230.496094 89.382812 227.503906 91.125 C 225.003906 92.582031 222.753906 93.777344 220.894531 94.738281 C 219.867188 92.792969 219.503906 90.550781 219.230469 88.351562 C 219.175781 87.914062 219.125 87.464844 219.078125 87.027344 C 214.789062 85.480469 212.378906 90.109375 212.746094 95.738281 C 211.335938 92.269531 210.609375 88.542969 210.394531 84.761719 C 207.480469 76.246094 206.265625 66.480469 207.746094 58.09375 C 209.8125 46.328125 214.714844 39.304688 223.265625 30.964844 C 228.828125 25.539062 238.046875 20.496094 245.449219 18.132812 C 252.851562 15.769531 264.449219 15.160156 270.996094 19.34375 C 273.246094 20.828125 274.40625 21.617188 277.707031 21.0625 C 277.777344 21.0625 277.835938 21.046875 277.90625 21.035156 C 282.964844 20.269531 290.828125 21.972656 296.859375 27.511719 C 305.921875 35.828125 313.429688 46.527344 316.011719 58.542969 C 318.601562 70.566406 316.179688 86.648438 308.746094 97.058594 Z M 308.746094 97.058594 " fill-opacity="1" fill-rule="nonzero"/><path fill="#fffaf4" d="M 308.746094 97.058594 C 307.191406 104.671875 300.617188 112.953125 294.308594 113.101562 C 290.730469 120.777344 286.5625 125.292969 281.546875 129.792969 C 281.003906 130.277344 280.449219 130.753906 279.882812 131.210938 C 279.296875 135.027344 278.875 137.6875 278.625 141.839844 C 280.085938 141.863281 281.554688 141.882812 282.738281 142.566406 C 283.496094 143.003906 284.519531 144.605469 285.390625 146.179688 C 286.230469 147.734375 286.925781 149.261719 287.070312 149.65625 C 287.40625 150.632812 287.988281 151.484375 288.722656 152.277344 C 288.421875 155.726562 286.238281 164.355469 283.019531 176.515625 C 278.449219 193.765625 271.769531 218.136719 265.335938 244.886719 C 266.078125 223.183594 265.933594 196.273438 264.488281 182.339844 C 264.527344 182.265625 264.554688 182.195312 264.578125 182.121094 C 266.625 177.300781 268.246094 170.535156 268.578125 165.886719 C 266.410156 164.679688 264.070312 163.742188 261.199219 163.082031 C 260.730469 163.019531 260.246094 163.027344 259.753906 163.097656 C 257.511719 163.371094 254.957031 164.671875 252.304688 166.515625 C 253.78125 176.914062 254.503906 178.210938 255.675781 182.308594 C 255.683594 182.316406 255.683594 182.324219 255.683594 182.332031 C 254.0625 187.921875 251.925781 212.089844 248.261719 241.613281 C 244.601562 217.863281 240.523438 195.816406 237.789062 179.398438 C 235.78125 167.363281 234.503906 158.347656 234.652344 153.914062 C 235.957031 152.484375 236.917969 149.785156 237.917969 147.558594 C 238.390625 146.5 238.875 145.550781 239.402344 144.890625 C 240.515625 143.511719 242.117188 142.566406 243.820312 141.945312 C 243.523438 138.253906 243.109375 136.019531 242.683594 133.15625 C 242.472656 133.011719 242.261719 132.855469 242.054688 132.703125 C 236.394531 128.445312 231.988281 122.285156 227.539062 112.230469 C 218.867188 110.414062 215.128906 104.15625 214.085938 101.582031 C 213.296875 99.65625 212.867188 97.640625 212.746094 95.738281 C 212.378906 90.109375 214.789062 85.480469 219.078125 87.027344 C 219.125 87.464844 219.175781 87.914062 219.230469 88.351562 C 219.503906 90.550781 219.867188 92.792969 220.894531 94.738281 C 222.753906 93.777344 225.003906 92.582031 227.503906 91.125 C 230.496094 89.382812 250.519531 81.300781 254.546875 71.632812 C 255.617188 78.328125 252.925781 80.019531 251.003906 83.601562 C 258.390625 82.148438 263.675781 80.578125 266.046875 79.457031 C 270.996094 77.117188 279.320312 72.867188 283.714844 58.117188 C 283.761719 60.285156 283.609375 62.375 283.304688 64.4375 C 282.796875 66.9375 281.148438 72.957031 280.585938 74.292969 C 280.527344 74.429688 280.472656 74.566406 280.414062 74.695312 C 280.40625 74.707031 280.40625 74.722656 280.398438 74.730469 C 280.109375 75.246094 279.777344 75.808594 279.421875 76.382812 C 279.488281 76.382812 279.554688 76.390625 279.617188 76.390625 C 277.933594 79.746094 276.140625 81.511719 272.367188 83.601562 C 279.046875 85.09375 285.609375 81.601562 289.957031 82.207031 C 294.972656 82.90625 295.328125 83.617188 301.6875 87.632812 L 301.691406 87.632812 C 302.4375 87.222656 303.246094 86.882812 304.050781 86.730469 C 304.34375 86.859375 304.632812 86.808594 304.90625 86.648438 C 306.671875 86.65625 308.269531 87.882812 308.9375 91.835938 C 309.207031 93.460938 309.117188 95.238281 308.746094 97.058594 Z M 362.011719 221.871094 C 359.566406 212.558594 362.390625 204.039062 360.980469 200.347656 C 360.164062 198.332031 359.558594 196.234375 359.164062 194.097656 C 358.859375 192.410156 357.476562 190.984375 355.761719 190.90625 C 353.769531 190.824219 351.761719 190.785156 349.824219 190.839844 C 348.746094 190.863281 347.695312 190.914062 346.671875 191.007812 C 343.300781 191.300781 340.339844 191.96875 338.324219 193.234375 C 337.09375 194.007812 333.753906 197.71875 332.730469 198.742188 C 328.832031 202.667969 329.207031 203.605469 325.707031 206.316406 C 325.230469 206.679688 323.324219 209.121094 323.277344 209.71875 C 323.15625 211.28125 328.003906 211.082031 329.457031 210.492188 C 334.230469 208.550781 337.132812 202.5 340.101562 200.007812 C 341.390625 199.394531 343.332031 199.074219 345.164062 198.914062 L 344.332031 203.28125 C 342.042969 204.742188 339.222656 206.589844 336.101562 208.921875 C 334.953125 209.78125 333.851562 210.660156 332.617188 211.847656 C 328.746094 215.574219 329.964844 215.226562 326.867188 218.429688 C 326.535156 218.78125 325.625 220.6875 325.714844 221.46875 C 325.816406 222.355469 330.132812 223.128906 331.90625 221.871094 C 335.859375 219.058594 334.90625 217.597656 339.125 214.96875 C 340.460938 214.136719 341.011719 213.515625 341.972656 212.929688 C 342.171875 212.808594 342.359375 212.695312 342.558594 212.589844 L 341.269531 219.316406 C 336.59375 222.894531 331.351562 227.226562 328.335938 232.339844 C 328.335938 236.082031 334.816406 232.9375 339.398438 229.121094 L 338.324219 234.773438 C 337.875 235.203125 337.4375 235.644531 336.988281 236.082031 C 336.988281 237.144531 337.222656 237.878906 337.640625 238.355469 L 335.148438 251.417969 C 348.210938 250.703125 356.574219 244.886719 355.527344 236.445312 C 356.867188 235.1875 358.179688 233.8125 359.285156 232.324219 C 361.597656 229.242188 363.011719 225.703125 362.011719 221.871094 Z M 312.585938 200.25 C 311.390625 200.476562 309.125 201.28125 310.148438 203.667969 C 311.367188 208.136719 313.777344 209.421875 318.707031 216.03125 L 320.875 204.210938 C 318.867188 201.492188 315.800781 199.644531 312.585938 200.25 Z M 312.585938 200.25 " fill-opacity="1" fill-rule="nonzero"/><path fill="#38b6ff" d="M 349.824219 190.839844 C 348.746094 190.863281 347.695312 190.914062 346.671875 191.007812 L 347.792969 185.144531 C 348.6875 186.78125 349.367188 188.664062 349.824219 190.839844 Z M 371.761719 316.265625 C 366.847656 318.117188 360.171875 320.886719 354.695312 319.160156 C 350.929688 317.972656 340.445312 312.75 336.988281 310.851562 C 334.792969 309.644531 331.414062 307.023438 327.65625 304.691406 C 326.898438 338.441406 326.714844 390.464844 326.679688 411.441406 L 172.0625 411.679688 L 161.886719 411.691406 C 160.976562 398.746094 157.039062 358.328125 156.652344 350.085938 C 156.113281 338.632812 154.5 322.207031 156.070312 310.851562 C 161.425781 298.660156 162.765625 232.554688 166.410156 203.550781 C 167.742188 192.921875 172.523438 184.429688 173.84375 182.042969 C 176.964844 176.398438 193.0625 171.300781 199.378906 170.007812 C 203.683594 168.574219 211.980469 165.671875 220.125 161.308594 C 220.578125 160.511719 221.039062 159.792969 221.496094 159.21875 C 222.046875 158.511719 226.691406 156.269531 227.488281 155.847656 C 231.722656 153.550781 235.359375 147.640625 237.917969 147.558594 C 236.917969 149.785156 235.957031 152.484375 234.652344 153.90625 C 234.503906 158.347656 235.78125 167.363281 237.789062 179.398438 C 240.523438 195.816406 244.601562 217.863281 248.261719 241.613281 C 250.851562 258.449219 253.238281 276.136719 254.777344 293.28125 C 257.898438 276.964844 261.578125 260.515625 265.335938 244.886719 C 271.769531 218.136719 278.449219 193.765625 283.019531 176.515625 C 286.238281 164.355469 288.421875 155.726562 288.722656 152.277344 C 287.988281 151.484375 287.40625 150.632812 287.070312 149.65625 C 286.925781 149.261719 286.230469 147.734375 285.390625 146.179688 C 288.40625 146.179688 297.300781 155.347656 301.078125 156.6875 C 303.0625 157.390625 304.277344 159.027344 304.738281 161.074219 C 304.890625 161.742188 305.058594 162.40625 305.238281 163.066406 C 312.132812 167.90625 319.730469 170.257812 326.703125 172.421875 L 320.875 204.210938 C 318.867188 201.492188 315.800781 199.644531 312.585938 200.25 C 311.390625 200.476562 309.125 201.28125 310.148438 203.667969 C 311.367188 208.136719 313.777344 209.421875 318.707031 216.03125 C 318.707031 216.03125 310.957031 258.339844 310.957031 258.339844 C 314.746094 263.335938 322.042969 265.144531 328.269531 264.226562 C 329.9375 263.976562 331.519531 263.53125 332.953125 262.902344 L 332.960938 262.902344 C 332.960938 262.902344 335.148438 251.417969 335.148438 251.417969 C 348.210938 250.703125 356.574219 244.886719 355.527344 236.445312 C 356.867188 235.191406 358.179688 233.8125 359.285156 232.324219 C 363.105469 241.25 366.753906 256.199219 370.582031 264.863281 C 371.347656 266.597656 376.117188 274.21875 377.027344 290.984375 C 377.285156 295.804688 375.808594 314.738281 371.761719 316.265625 Z M 253.570312 356.261719 C 253.570312 353.859375 251.625 351.910156 249.214844 351.910156 C 246.804688 351.910156 244.867188 353.859375 244.867188 356.261719 C 244.867188 358.660156 246.8125 360.617188 249.214844 360.617188 C 251.617188 360.617188 253.570312 358.667969 253.570312 356.261719 Z M 258.640625 306.144531 C 258.640625 303.742188 256.683594 301.796875 254.28125 301.796875 C 251.882812 301.796875 249.925781 303.742188 249.925781 306.144531 C 249.925781 308.546875 251.882812 310.5 254.28125 310.5 C 256.683594 310.5 258.640625 308.554688 258.640625 306.144531 Z M 258.640625 306.144531 " fill-opacity="1" fill-rule="nonzero"/><path fill="#92acc7" d="M 363.390625 103.34375 C 363.390625 103.34375 363.390625 103.382812 363.382812 103.398438 C 363.375 103.421875 363.375 103.445312 363.359375 103.46875 L 356.664062 138.605469 C 356.664062 138.605469 347.785156 185.144531 347.785156 185.144531 L 346.664062 191.007812 C 343.292969 191.300781 340.332031 191.96875 338.316406 193.234375 C 337.085938 194.007812 333.746094 197.71875 332.722656 198.742188 C 328.824219 202.667969 329.203125 203.605469 325.703125 206.316406 C 325.222656 206.679688 323.316406 209.121094 323.269531 209.71875 C 323.148438 211.28125 327.996094 211.082031 329.453125 210.492188 C 334.222656 208.550781 337.125 202.5 340.09375 200.007812 C 341.382812 199.394531 343.324219 199.074219 345.15625 198.914062 L 344.324219 203.28125 C 342.035156 204.742188 339.214844 206.589844 336.09375 208.921875 C 334.945312 209.78125 333.84375 210.660156 332.609375 211.847656 C 328.738281 215.574219 329.957031 215.226562 326.859375 218.429688 C 326.527344 218.78125 325.617188 220.6875 325.707031 221.46875 C 325.808594 222.355469 330.125 223.128906 331.898438 221.871094 C 335.851562 219.058594 334.898438 217.597656 339.117188 214.96875 C 340.453125 214.136719 341.003906 213.515625 341.964844 212.929688 C 342.164062 212.808594 342.351562 212.695312 342.550781 212.589844 L 341.261719 219.316406 C 336.585938 222.894531 331.34375 227.226562 328.332031 232.339844 C 328.332031 236.082031 334.808594 232.9375 339.390625 229.121094 L 338.316406 234.773438 C 337.867188 235.203125 337.429688 235.644531 336.980469 236.082031 C 336.980469 237.144531 337.214844 237.878906 337.632812 238.355469 L 335.140625 251.417969 L 332.953125 262.894531 C 332.953125 262.894531 332.945312 262.902344 332.945312 262.902344 C 331.511719 263.53125 329.929688 263.976562 328.261719 264.226562 C 322.035156 265.144531 314.738281 263.335938 310.949219 258.339844 L 318.699219 216.039062 C 318.699219 216.039062 320.867188 204.210938 320.867188 204.210938 L 326.695312 172.421875 L 333.816406 133.566406 L 340.253906 98.390625 C 340.253906 98.390625 340.261719 98.367188 340.261719 98.367188 C 340.261719 98.367188 340.316406 98.074219 340.316406 98.074219 C 340.945312 97.066406 345.730469 94.710938 355.882812 97.6875 C 358.089844 98.324219 363.898438 100.59375 363.390625 103.34375 Z M 264.464844 182.136719 C 264.464844 182.136719 264.539062 182.128906 264.578125 182.121094 C 266.625 177.300781 268.246094 170.535156 268.578125 165.886719 C 266.410156 164.679688 264.070312 163.742188 261.199219 163.082031 C 260.730469 163.019531 260.246094 163.027344 259.753906 163.097656 C 257.511719 163.371094 254.957031 164.671875 252.304688 166.515625 C 253.78125 176.914062 254.503906 178.210938 255.675781 182.308594 L 255.691406 182.308594 C 255.691406 182.308594 255.691406 182.324219 255.683594 182.332031 C 254.0625 187.921875 251.925781 212.089844 248.261719 241.613281 C 250.851562 258.449219 253.238281 276.136719 254.777344 293.28125 C 257.898438 276.964844 261.578125 260.515625 265.335938 244.886719 C 266.078125 223.183594 265.933594 196.273438 264.488281 182.339844 C 264.480469 182.273438 264.472656 182.203125 264.464844 182.136719 Z M 254.28125 301.796875 C 251.882812 301.796875 249.925781 303.742188 249.925781 306.144531 C 249.925781 308.546875 251.882812 310.5 254.28125 310.5 C 256.683594 310.5 258.640625 308.554688 258.640625 306.144531 C 258.640625 303.738281 256.683594 301.796875 254.28125 301.796875 Z M 249.214844 351.910156 C 246.8125 351.910156 244.867188 353.859375 244.867188 356.261719 C 244.867188 358.660156 246.8125 360.617188 249.214844 360.617188 C 251.617188 360.617188 253.570312 358.667969 253.570312 356.261719 C 253.570312 353.851562 251.625 351.910156 249.214844 351.910156 Z M 249.214844 351.910156 " fill-opacity="1" fill-rule="nonzero"/><g clip-path="url(#149c1871c0)"><path fill="#51401e" d="M 260.898438 105.292969 C 260.898438 105.292969 260.867188 105.277344 260.851562 105.261719 C 260.511719 105.019531 260.425781 104.550781 260.660156 104.210938 C 261.296875 103.300781 262.132812 102.519531 263.070312 101.9375 C 263.3125 101.785156 263.625 101.785156 263.867188 101.9375 C 264.109375 102.089844 264.246094 102.359375 264.222656 102.640625 L 263.996094 105.398438 C 263.964844 105.738281 263.714844 106.019531 263.382812 106.082031 L 261.691406 106.390625 C 261.648438 106.398438 261.601562 106.40625 261.554688 106.40625 C 261.199219 106.40625 260.882812 106.148438 260.8125 105.785156 C 260.785156 105.609375 260.8125 105.4375 260.890625 105.285156 Z M 273.796875 113.332031 C 273.796875 113.332031 273.820312 113.332031 273.835938 113.332031 C 273.890625 113.316406 273.941406 113.324219 273.996094 113.324219 C 274.042969 113.324219 274.085938 113.324219 274.132812 113.324219 C 274.148438 113.324219 274.164062 113.324219 274.175781 113.324219 C 274.214844 113.332031 274.246094 113.351562 274.277344 113.367188 C 274.320312 113.382812 274.367188 113.398438 274.40625 113.429688 C 274.449219 113.460938 274.488281 113.488281 274.527344 113.527344 C 274.554688 113.558594 274.59375 113.589844 274.617188 113.625 C 274.648438 113.671875 274.667969 113.71875 274.691406 113.769531 C 274.707031 113.800781 274.730469 113.824219 274.738281 113.859375 C 274.738281 113.875 274.738281 113.882812 274.738281 113.898438 C 274.746094 113.945312 274.746094 113.996094 274.746094 114.050781 C 274.746094 114.101562 274.746094 114.148438 274.746094 114.203125 C 274.746094 114.21875 274.746094 114.226562 274.746094 114.238281 C 273.15625 121.003906 268.625 128.65625 261.011719 128.65625 C 260.699219 128.65625 260.390625 128.640625 260.070312 128.617188 C 255.054688 128.21875 249.464844 121.203125 248.578125 114.1875 C 248.578125 114.179688 248.578125 114.171875 248.578125 114.15625 C 248.578125 114.109375 248.578125 114.058594 248.585938 114.011719 C 248.585938 113.960938 248.585938 113.90625 248.609375 113.859375 C 248.609375 113.851562 248.609375 113.847656 248.609375 113.839844 C 248.625 113.800781 248.648438 113.777344 248.660156 113.746094 C 248.683594 113.703125 248.707031 113.648438 248.746094 113.609375 C 248.773438 113.574219 248.8125 113.550781 248.851562 113.519531 C 248.890625 113.488281 248.925781 113.460938 248.972656 113.4375 C 249.019531 113.414062 249.070312 113.398438 249.125 113.382812 C 249.160156 113.375 249.191406 113.351562 249.230469 113.347656 C 249.238281 113.347656 249.246094 113.347656 249.261719 113.347656 C 249.3125 113.347656 249.367188 113.347656 249.417969 113.359375 C 249.464844 113.359375 249.519531 113.359375 249.5625 113.382812 C 249.570312 113.382812 249.578125 113.382812 249.59375 113.382812 C 257.253906 116.148438 268.277344 114.875 273.8125 113.347656 Z M 272.933594 115.109375 C 269.917969 115.824219 265.359375 116.527344 260.539062 116.527344 C 257.09375 116.527344 253.519531 116.164062 250.28125 115.1875 C 251.585938 121.542969 256.554688 126.800781 260.191406 127.097656 C 268.351562 127.746094 271.882812 118.632812 272.941406 115.109375 Z M 254.070312 80.609375 C 254.207031 80.722656 254.382812 80.777344 254.539062 80.777344 C 254.761719 80.777344 254.980469 80.679688 255.132812 80.488281 C 263.617188 69.882812 271.707031 51.003906 269.414062 34.640625 C 269.351562 34.222656 268.972656 33.925781 268.554688 33.996094 C 268.140625 34.054688 267.851562 34.433594 267.914062 34.851562 C 270.148438 50.777344 262.246094 69.179688 253.949219 79.542969 C 253.691406 79.867188 253.746094 80.34375 254.070312 80.609375 Z M 278.996094 75.632812 C 276.699219 75.601562 274.746094 76.085938 273.425781 77.074219 C 273.09375 77.324219 273.027344 77.800781 273.277344 78.132812 C 273.527344 78.464844 274.003906 78.535156 274.335938 78.285156 C 275.207031 77.640625 276.496094 77.269531 278.019531 77.171875 C 276.746094 79.074219 275.34375 80.835938 274.648438 81.117188 C 274.261719 81.269531 274.070312 81.714844 274.222656 82.101562 C 274.34375 82.398438 274.625 82.578125 274.925781 82.578125 C 275.019531 82.578125 275.117188 82.566406 275.207031 82.527344 C 276.425781 82.042969 278.3125 79.542969 279.804688 77.179688 C 280.480469 77.222656 281.175781 77.316406 281.898438 77.453125 C 284.769531 78.011719 287.441406 79.285156 288.117188 80.414062 C 288.261719 80.648438 288.511719 80.777344 288.769531 80.777344 C 288.90625 80.777344 289.035156 80.738281 289.15625 80.671875 C 289.511719 80.453125 289.632812 79.988281 289.414062 79.632812 C 288.351562 77.875 285.019531 76.527344 282.183594 75.964844 C 281.671875 75.867188 281.171875 75.792969 280.675781 75.730469 C 281.367188 74.542969 281.882812 73.519531 282.042969 73.011719 C 285.125 63.390625 285.277344 55.382812 282.546875 46.238281 C 282.425781 45.835938 282.011719 45.609375 281.609375 45.730469 C 281.207031 45.851562 280.980469 46.269531 281.101562 46.671875 C 283.730469 55.503906 283.585938 63.238281 280.601562 72.550781 C 280.398438 73.195312 279.777344 74.359375 278.996094 75.625 Z M 249.933594 77.929688 C 250.175781 77.585938 250.101562 77.117188 249.761719 76.867188 C 247.617188 75.324219 244.910156 74.59375 242.320312 74.792969 C 247.578125 61.875 258.085938 47.277344 264.980469 42.359375 C 265.320312 42.117188 265.398438 41.648438 265.15625 41.304688 C 264.910156 40.964844 264.441406 40.890625 264.09375 41.132812 C 256.238281 46.738281 245.617188 62.40625 240.59375 75.078125 C 240.449219 75.117188 240.304688 75.132812 240.167969 75.179688 C 237.34375 76.019531 235.183594 78.027344 234.085938 80.851562 C 233.933594 81.246094 234.132812 81.679688 234.515625 81.828125 C 234.609375 81.867188 234.699219 81.882812 234.789062 81.882812 C 235.09375 81.882812 235.382812 81.703125 235.496094 81.398438 C 236.515625 78.753906 238.351562 77.480469 239.910156 76.867188 C 239.402344 78.277344 238.964844 79.632812 238.625 80.929688 C 238.515625 81.328125 238.761719 81.746094 239.160156 81.851562 C 239.222656 81.867188 239.289062 81.875 239.359375 81.875 C 239.691406 81.875 240.003906 81.648438 240.09375 81.308594 C 240.511719 79.714844 241.054688 78.066406 241.691406 76.375 C 244.140625 75.988281 246.796875 76.609375 248.867188 78.09375 C 249.207031 78.335938 249.675781 78.261719 249.925781 77.921875 Z M 236.085938 41.125 C 235.746094 40.882812 235.265625 40.964844 235.03125 41.304688 C 225.53125 54.800781 222.53125 73.011719 227.191406 88.835938 C 227.289062 89.171875 227.59375 89.382812 227.917969 89.382812 C 227.988281 89.382812 228.0625 89.375 228.132812 89.351562 C 228.53125 89.230469 228.761719 88.816406 228.644531 88.414062 C 224.109375 73.019531 227.03125 55.308594 236.265625 42.183594 C 236.511719 41.84375 236.425781 41.367188 236.085938 41.132812 Z M 297.429688 83.851562 C 297.148438 84.164062 297.179688 84.640625 297.488281 84.921875 C 297.632812 85.050781 297.8125 85.109375 297.996094 85.109375 C 298.207031 85.109375 298.414062 85.027344 298.5625 84.859375 C 301.375 81.703125 302.308594 77.445312 302.957031 73.699219 C 304.027344 67.550781 303.542969 60.429688 301.632812 54.148438 C 301.511719 53.746094 301.085938 53.519531 300.6875 53.640625 C 300.285156 53.761719 300.058594 54.183594 300.1875 54.585938 C 302.035156 60.640625 302.503906 67.511719 301.472656 73.4375 C 300.859375 76.972656 299.988281 80.980469 297.441406 83.84375 Z M 328.753906 264.910156 C 326.695312 268.636719 325.308594 274.054688 325.292969 274.113281 C 325.207031 274.457031 324.898438 274.691406 324.558594 274.691406 C 324.496094 274.691406 324.4375 274.691406 324.367188 274.667969 C 323.957031 274.5625 323.714844 274.152344 323.824219 273.75 C 323.875 273.53125 325.058594 268.925781 326.921875 265.144531 C 326.34375 265.191406 325.761719 265.210938 325.171875 265.210938 C 319.816406 265.210938 313.800781 263.355469 310.34375 258.804688 C 310.34375 258.804688 310.34375 258.796875 310.34375 258.789062 C 310.316406 258.742188 310.292969 258.691406 310.269531 258.636719 C 310.253906 258.597656 310.230469 258.5625 310.214844 258.523438 C 310.207031 258.484375 310.214844 258.449219 310.214844 258.410156 C 310.214844 258.347656 310.199219 258.289062 310.214844 258.226562 C 310.214844 258.226562 310.214844 258.21875 310.214844 258.210938 L 317.90625 216.226562 C 316.335938 214.144531 315.011719 212.574219 313.9375 211.316406 C 311.664062 208.636719 310.277344 207.007812 309.429688 203.921875 C 309.027344 202.960938 309.027344 202.097656 309.429688 201.347656 C 310.078125 200.121094 311.601562 199.671875 312.449219 199.507812 C 315.246094 198.984375 318.132812 200.089844 320.421875 202.5 L 325.835938 172.953125 C 319.699219 171.042969 312.875 168.855469 306.570312 164.863281 C 308.277344 170.210938 310.867188 175.445312 313.390625 180.523438 L 314.070312 181.886719 C 314.070312 181.886719 314.085938 181.960938 314.101562 182 C 314.109375 182.035156 314.132812 182.066406 314.140625 182.105469 C 314.140625 182.121094 314.140625 182.128906 314.140625 182.144531 C 314.140625 182.195312 314.140625 182.25 314.140625 182.300781 C 314.140625 182.347656 314.140625 182.394531 314.125 182.4375 C 314.109375 182.484375 314.085938 182.523438 314.066406 182.566406 C 314.042969 182.613281 314.019531 182.65625 313.988281 182.695312 C 313.957031 182.734375 313.929688 182.757812 313.890625 182.785156 C 313.851562 182.824219 313.816406 182.863281 313.761719 182.886719 C 313.753906 182.886719 313.746094 182.902344 313.730469 182.90625 C 313.699219 182.921875 313.679688 182.914062 313.648438 182.929688 C 313.601562 182.945312 313.566406 182.976562 313.519531 182.984375 C 310.828125 183.414062 307.699219 185.476562 304.671875 187.46875 C 304.34375 187.679688 304.035156 187.886719 303.714844 188.089844 C 304.367188 188.703125 305.019531 189.324219 305.671875 189.945312 C 306.527344 190.757812 307.390625 191.574219 308.253906 192.394531 C 308.269531 192.410156 308.269531 192.421875 308.285156 192.4375 C 308.320312 192.476562 308.34375 192.515625 308.367188 192.558594 C 308.390625 192.605469 308.421875 192.644531 308.4375 192.6875 C 308.449219 192.742188 308.457031 192.785156 308.464844 192.839844 C 308.464844 192.878906 308.488281 192.910156 308.488281 192.945312 C 308.488281 192.960938 308.488281 192.96875 308.488281 192.976562 C 308.488281 193.023438 308.472656 193.066406 308.457031 193.121094 C 308.441406 193.171875 308.4375 193.226562 308.414062 193.273438 C 308.414062 193.28125 308.414062 193.292969 308.40625 193.300781 C 305.328125 199.121094 301.9375 205.515625 298.382812 212.1875 C 283.828125 239.5625 267.335938 270.589844 259.34375 288.167969 C 259.214844 288.449219 258.941406 288.613281 258.65625 288.613281 C 258.546875 288.613281 258.441406 288.59375 258.34375 288.546875 C 257.964844 288.371094 257.796875 287.925781 257.964844 287.546875 C 265.972656 269.925781 282.480469 238.878906 297.042969 211.484375 C 300.488281 205 303.792969 198.789062 306.792969 193.105469 C 306.070312 192.421875 305.34375 191.734375 304.625 191.050781 C 303.738281 190.210938 302.851562 189.371094 301.972656 188.535156 C 296.5625 183.421875 290.761719 178.097656 284.535156 173.808594 C 284.3125 174.648438 284.078125 175.523438 283.84375 176.421875 C 283.898438 176.636719 283.867188 176.863281 283.722656 177.042969 C 283.707031 177.066406 283.683594 177.074219 283.664062 177.089844 C 282.859375 180.136719 281.964844 183.492188 280.964844 187.210938 C 273.804688 214.007812 262.980469 254.5 255.527344 293.441406 C 255.527344 293.457031 255.511719 293.472656 255.511719 293.484375 C 255.503906 293.523438 255.488281 293.5625 255.472656 293.59375 C 255.449219 293.644531 255.425781 293.691406 255.398438 293.734375 C 255.375 293.765625 255.351562 293.789062 255.320312 293.820312 C 255.28125 293.859375 255.238281 293.894531 255.191406 293.925781 C 255.160156 293.949219 255.132812 293.964844 255.09375 293.980469 C 255.039062 294 254.980469 294.015625 254.925781 294.03125 C 254.902344 294.03125 254.882812 294.054688 254.851562 294.054688 C 254.828125 294.054688 254.804688 294.054688 254.78125 294.054688 C 254.738281 294.054688 254.691406 294.054688 254.640625 294.039062 C 254.617188 294.039062 254.601562 294.023438 254.578125 294.015625 C 254.527344 294 254.480469 293.980469 254.425781 293.957031 C 254.390625 293.933594 254.351562 293.917969 254.320312 293.886719 C 254.28125 293.859375 254.246094 293.820312 254.214844 293.78125 C 254.183594 293.75 254.160156 293.714844 254.140625 293.675781 C 254.117188 293.628906 254.101562 293.585938 254.078125 293.539062 C 254.0625 293.492188 254.046875 293.457031 254.039062 293.402344 C 254.039062 293.386719 254.027344 293.371094 254.027344 293.359375 C 251.054688 260.257812 245.046875 225.765625 240.230469 198.042969 C 238.601562 188.703125 237.152344 180.378906 236.054688 173.40625 C 232.175781 177.273438 227.617188 180.589844 223.191406 183.800781 C 219.199219 186.703125 215.070312 189.703125 211.386719 193.136719 C 220.328125 219.796875 229.253906 241.0625 239.472656 260.023438 C 243.699219 267.863281 250.933594 282.691406 252.382812 289.078125 C 252.472656 289.484375 252.214844 289.886719 251.8125 289.984375 C 251.761719 290 251.699219 290 251.648438 290 C 251.296875 290 250.988281 289.765625 250.910156 289.410156 C 249.578125 283.5 242.644531 269.085938 238.144531 260.734375 C 227.828125 241.582031 218.820312 220.105469 209.804688 193.144531 C 209.789062 193.105469 209.804688 193.074219 209.789062 193.035156 C 209.78125 192.976562 209.765625 192.921875 209.765625 192.863281 C 209.765625 192.808594 209.789062 192.765625 209.796875 192.71875 C 209.8125 192.671875 209.8125 192.628906 209.835938 192.582031 C 209.859375 192.53125 209.894531 192.484375 209.933594 192.4375 C 209.957031 192.410156 209.972656 192.378906 209.996094 192.347656 C 209.996094 192.347656 210.007812 192.332031 210.015625 192.332031 C 212.128906 190.332031 214.386719 188.484375 216.683594 186.726562 C 212.699219 184.71875 209.328125 182.847656 207.34375 181.527344 C 207.167969 181.40625 207.046875 181.226562 207.015625 181.015625 C 206.988281 180.800781 207.039062 180.589844 207.175781 180.421875 C 209.546875 177.492188 212.3125 173.566406 215.175781 169.074219 C 215.859375 168 216.609375 166.5 217.402344 164.914062 C 217.707031 164.316406 218.007812 163.710938 218.3125 163.121094 C 212.867188 165.871094 206.730469 168.371094 199.644531 170.726562 C 199.613281 170.734375 199.585938 170.742188 199.5625 170.75 C 192.484375 172.203125 177.386719 177.273438 174.539062 182.414062 L 174.464844 182.550781 C 172.984375 185.226562 168.484375 193.363281 167.191406 203.644531 C 165.789062 214.789062 164.75 231.128906 163.652344 248.417969 C 161.933594 275.386719 160.160156 303.257812 156.839844 311.03125 C 155.628906 319.902344 156.355469 331.738281 156.992188 342.191406 C 157.167969 344.988281 157.328125 347.625 157.441406 350.054688 C 157.652344 354.496094 158.917969 368.570312 160.136719 382.191406 C 161.175781 393.746094 162.25 405.691406 162.667969 411.648438 C 162.699219 412.066406 162.378906 412.429688 161.960938 412.457031 C 161.949219 412.457031 161.925781 412.457031 161.910156 412.457031 C 161.515625 412.457031 161.183594 412.15625 161.152344 411.753906 C 160.734375 405.8125 159.660156 393.875 158.621094 382.328125 C 157.394531 368.699219 156.128906 354.601562 155.917969 350.132812 C 155.804688 347.714844 155.644531 345.078125 155.46875 342.289062 C 154.828125 331.738281 154.089844 319.78125 155.339844 310.75 C 155.339844 310.722656 155.363281 310.691406 155.371094 310.660156 C 155.378906 310.621094 155.378906 310.585938 155.394531 310.546875 C 158.636719 303.175781 160.410156 275.289062 162.128906 248.328125 C 163.234375 231.007812 164.273438 214.652344 165.683594 203.460938 C 166.5625 196.445312 169.070312 189.164062 173.128906 181.824219 L 173.207031 181.6875 C 176.570312 175.613281 193.386719 170.484375 199.207031 169.277344 C 207.078125 166.65625 213.746094 163.863281 219.601562 160.742188 C 220.039062 159.992188 220.480469 159.316406 220.925781 158.757812 C 221.335938 158.242188 222.753906 157.40625 226.359375 155.589844 C 226.722656 155.40625 227.007812 155.261719 227.152344 155.179688 C 229.046875 154.15625 230.882812 152.292969 232.511719 150.648438 C 234.328125 148.816406 235.917969 147.21875 237.425781 146.878906 C 237.933594 145.769531 238.382812 144.984375 238.84375 144.414062 C 239.84375 143.171875 241.261719 142.179688 243.046875 141.445312 C 242.820312 138.847656 242.53125 136.960938 242.230469 134.984375 C 242.160156 134.527344 242.085938 134.058594 242.019531 133.582031 C 241.902344 133.496094 241.796875 133.421875 241.691406 133.347656 C 235.859375 128.960938 231.480469 122.832031 227.039062 112.875 C 217.464844 110.695312 214.015625 103.339844 213.425781 101.867188 C 212.660156 99.996094 212.183594 97.945312 212.046875 95.914062 C 210.359375 91.703125 209.554688 86.90625 209.621094 81.632812 C 209.53125 81.722656 209.425781 81.808594 209.296875 81.84375 C 209.230469 81.867188 209.160156 81.875 209.085938 81.875 C 208.757812 81.875 208.457031 81.65625 208.359375 81.324219 C 205.851562 72.519531 205.515625 66.625 207.039062 57.964844 C 209.207031 45.664062 214.449219 38.550781 222.78125 30.421875 C 228.09375 25.238281 237.132812 20.003906 245.269531 17.40625 C 253.269531 14.851562 264.828125 14.472656 271.449219 18.699219 C 271.804688 18.925781 271.90625 19.398438 271.675781 19.746094 C 271.449219 20.101562 270.988281 20.199219 270.632812 19.972656 C 264.472656 16.039062 253.199219 16.457031 245.730469 18.84375 C 237.925781 21.335938 228.917969 26.542969 223.84375 31.496094 C 215.738281 39.40625 210.628906 46.3125 208.539062 58.214844 C 207.09375 66.429688 207.378906 72.09375 209.667969 80.332031 C 209.691406 79.769531 209.714844 79.203125 209.75 78.625 C 210.265625 71.6875 212.117188 64.898438 213.894531 58.328125 C 214.007812 57.929688 214.425781 57.6875 214.828125 57.800781 C 215.230469 57.914062 215.472656 58.320312 215.359375 58.730469 C 213.59375 65.222656 211.765625 71.945312 211.257812 78.738281 C 210.910156 83.464844 211.257812 87.816406 212.265625 91.722656 C 212.691406 89.550781 213.601562 87.808594 214.886719 86.835938 C 215.867188 86.101562 217.015625 85.832031 218.257812 86.019531 C 216.996094 73.246094 218.128906 60.058594 221.5625 47.714844 C 221.675781 47.3125 222.09375 47.078125 222.496094 47.183594 C 222.894531 47.300781 223.128906 47.714844 223.023438 48.117188 C 219.585938 60.480469 218.496094 73.703125 219.835938 86.480469 C 221.078125 87.027344 222.386719 87.988281 223.730469 89.375 C 224.015625 89.679688 224.015625 90.15625 223.714844 90.445312 C 223.410156 90.730469 222.933594 90.730469 222.644531 90.429688 C 221.746094 89.496094 220.875 88.785156 220.039062 88.292969 C 220.320312 90.574219 220.707031 92.960938 221.925781 94.921875 C 222.144531 95.277344 222.039062 95.746094 221.683594 95.96875 C 221.554688 96.042969 221.417969 96.082031 221.28125 96.082031 C 221.03125 96.082031 220.78125 95.953125 220.636719 95.722656 C 219.246094 93.488281 218.820312 90.792969 218.523438 88.4375 C 218.488281 88.15625 218.464844 87.875 218.433594 87.59375 C 217.425781 87.335938 216.546875 87.488281 215.796875 88.050781 C 214.207031 89.246094 213.320312 92.238281 213.539062 95.679688 C 213.660156 97.589844 214.109375 99.527344 214.828125 101.285156 C 215.351562 102.582031 218.265625 108.808594 226.265625 111.109375 C 225.886719 110.238281 225.503906 109.308594 225.09375 108.300781 C 224.933594 107.914062 225.125 107.476562 225.507812 107.316406 C 225.894531 107.15625 226.335938 107.347656 226.496094 107.730469 C 227.125 109.285156 227.699219 110.65625 228.265625 111.914062 C 232.652344 121.824219 236.917969 127.855469 242.546875 132.089844 C 242.773438 132.253906 242.957031 132.398438 243.144531 132.519531 C 247.988281 135.945312 254.820312 138.421875 260.183594 138.710938 C 268.148438 138.535156 275.003906 134.253906 279.375 130.679688 C 279.398438 130.65625 279.417969 130.632812 279.449219 130.613281 C 279.941406 130.21875 280.464844 129.777344 281.085938 129.21875 C 286.183594 124.640625 290.050781 120.339844 293.433594 113.238281 C 293.429688 113.195312 293.40625 113.148438 293.40625 113.105469 C 293.40625 112.824219 293.570312 112.597656 293.800781 112.46875 C 294.601562 110.71875 295.367188 108.816406 296.132812 106.648438 C 296.269531 106.253906 296.707031 106.050781 297.101562 106.1875 C 297.496094 106.324219 297.699219 106.753906 297.5625 107.15625 C 296.921875 108.996094 296.269531 110.648438 295.59375 112.1875 C 298.117188 111.648438 300.769531 109.832031 303.101562 107.003906 C 306.90625 102.398438 308.964844 96.351562 308.230469 91.964844 C 307.519531 87.746094 305.835938 87.4375 305.101562 87.414062 C 305.070312 87.429688 305.050781 87.445312 305.019531 87.453125 C 304.820312 87.527344 304.617188 87.566406 304.421875 87.566406 C 304.308594 87.566406 304.191406 87.550781 304.078125 87.519531 C 303.5625 87.632812 303.003906 87.84375 302.390625 88.15625 L 299.238281 100.503906 C 299.148438 100.847656 298.84375 101.074219 298.503906 101.074219 C 298.441406 101.074219 298.375 101.074219 298.3125 101.050781 C 297.90625 100.945312 297.664062 100.535156 297.769531 100.125 L 302.671875 80.929688 C 302.777344 80.519531 303.1875 80.277344 303.59375 80.382812 C 304.003906 80.488281 304.246094 80.898438 304.140625 81.308594 L 302.867188 86.300781 C 303.101562 86.214844 303.328125 86.148438 303.558594 86.085938 C 303.730469 85.960938 303.949219 85.921875 304.164062 85.964844 C 304.34375 85.9375 304.519531 85.921875 304.691406 85.914062 C 304.949219 85.710938 305.222656 85.300781 305.390625 84.859375 C 308.019531 77.921875 308.84375 70.367188 307.792969 63.027344 C 307.730469 62.609375 308.019531 62.230469 308.4375 62.171875 C 308.84375 62.109375 309.230469 62.398438 309.292969 62.816406 C 310.382812 70.414062 309.527344 78.222656 306.816406 85.398438 C 306.714844 85.648438 306.585938 85.914062 306.429688 86.171875 C 308.117188 86.824219 309.230469 88.679688 309.738281 91.722656 C 309.835938 92.300781 309.890625 92.90625 309.898438 93.535156 C 315.785156 84.230469 317.929688 70.785156 315.328125 58.714844 C 312.390625 45.0625 303.421875 34.519531 296.40625 28.085938 C 288.191406 20.539062 277.359375 20.640625 274.441406 23.207031 C 274.132812 23.480469 273.648438 23.457031 273.375 23.140625 C 273.09375 22.820312 273.132812 22.34375 273.441406 22.070312 C 277.285156 18.699219 289.050781 19.269531 297.433594 26.972656 C 304.609375 33.554688 313.792969 44.359375 316.816406 58.398438 C 319.625 71.464844 317.042969 86.140625 310.238281 95.785156 C 310.117188 95.960938 309.929688 96.050781 309.730469 96.082031 C 309.171875 100.050781 307.214844 104.4375 304.285156 107.988281 C 301.359375 111.535156 298.027344 113.597656 294.851562 113.855469 C 291.351562 121.203125 287.222656 125.792969 282.109375 130.375 C 281.554688 130.867188 281.085938 131.261719 280.640625 131.625 L 280.609375 131.832031 C 280.101562 135.140625 279.730469 137.613281 279.488281 141.113281 C 280.769531 141.148438 282.046875 141.277344 283.171875 141.921875 C 283.441406 142.082031 284.253906 142.558594 285.914062 145.484375 C 287.691406 145.800781 290.335938 147.832031 294.300781 151.011719 C 296.996094 153.179688 299.792969 155.421875 301.390625 155.992188 C 303.511719 156.75 304.988281 158.5 305.535156 160.921875 C 305.664062 161.492188 305.808594 162.050781 305.957031 162.621094 C 312.429688 167.105469 319.390625 169.355469 326.164062 171.460938 L 339.550781 98.398438 C 339.527344 98.210938 339.566406 97.972656 339.730469 97.703125 C 339.746094 97.679688 339.753906 97.664062 339.769531 97.640625 C 339.792969 97.601562 339.808594 97.574219 339.839844 97.535156 C 340.722656 96.40625 345.632812 93.875 356.164062 96.96875 C 357.066406 97.230469 364.839844 99.625 364.203125 103.4375 C 364.203125 103.460938 364.203125 103.480469 364.203125 103.503906 C 364.203125 103.519531 364.195312 103.542969 364.1875 103.558594 C 364.1875 103.558594 364.1875 103.566406 364.1875 103.574219 C 364.1875 103.589844 364.1875 103.609375 364.171875 103.625 L 357.480469 138.71875 C 357.480469 138.71875 357.480469 138.75 357.480469 138.761719 L 348.648438 185.042969 C 349.4375 186.535156 350.042969 188.234375 350.480469 190.082031 C 352.089844 190.050781 353.851562 190.082031 355.859375 190.160156 C 357.867188 190.25 359.597656 191.847656 359.976562 193.96875 C 360.359375 196.066406 360.960938 198.121094 361.746094 200.066406 C 361.746094 200.066406 361.746094 200.074219 361.746094 200.082031 C 362.40625 201.800781 362.238281 204.273438 362.035156 207.394531 C 361.761719 211.425781 361.429688 216.4375 362.808594 221.683594 C 364.996094 230.03125 356.488281 236.910156 351.40625 241.015625 C 350.359375 241.855469 349.460938 242.582031 348.832031 243.183594 C 348.6875 243.320312 348.496094 243.386719 348.308594 243.386719 C 348.101562 243.386719 347.90625 243.304688 347.753906 243.152344 C 347.46875 242.847656 347.480469 242.363281 347.785156 242.082031 C 348.460938 241.445312 349.382812 240.703125 350.445312 239.839844 C 355.238281 235.960938 363.269531 229.46875 361.332031 222.066406 C 359.890625 216.582031 360.238281 211.429688 360.511719 207.289062 C 360.703125 204.46875 360.859375 202.03125 360.324219 200.621094 C 360.324219 200.621094 360.324219 200.613281 360.324219 200.605469 C 359.496094 198.574219 358.875 196.429688 358.476562 194.234375 C 358.226562 192.824219 357.066406 191.71875 355.785156 191.664062 C 353.566406 191.574219 351.640625 191.550781 349.898438 191.597656 C 348.800781 191.621094 347.761719 191.671875 346.792969 191.765625 C 343.210938 192.074219 340.511719 192.789062 338.777344 193.878906 C 337.945312 194.410156 335.769531 196.695312 334.472656 198.066406 C 333.988281 198.582031 333.574219 199.015625 333.316406 199.28125 C 331.632812 200.96875 330.777344 202.082031 330.019531 203.058594 C 329.035156 204.332031 328.253906 205.339844 326.222656 206.917969 C 325.84375 207.210938 324.335938 209.152344 324.101562 209.757812 C 324.617188 210.289062 327.921875 210.316406 329.230469 209.789062 C 332.101562 208.621094 334.332031 205.765625 336.300781 203.242188 C 337.453125 201.765625 338.542969 200.371094 339.671875 199.421875 C 339.695312 199.402344 339.730469 199.394531 339.753906 199.378906 C 339.785156 199.363281 339.800781 199.332031 339.832031 199.316406 C 341.019531 198.75 342.816406 198.355469 345.148438 198.160156 C 347.792969 197.917969 350.195312 197.992188 350.292969 198 C 350.625 198.015625 350.90625 198.234375 350.996094 198.550781 C 351.332031 199.757812 349.867188 200.679688 345.960938 203.171875 L 344.792969 203.917969 C 342.496094 205.386719 339.730469 207.195312 336.609375 209.53125 C 335.65625 210.242188 334.503906 211.136719 333.203125 212.394531 C 331.117188 214.402344 330.558594 215.179688 329.960938 216.015625 C 329.445312 216.734375 328.90625 217.476562 327.472656 218.960938 C 327.207031 219.265625 326.585938 220.675781 326.535156 221.25 C 327.222656 221.726562 330.269531 222.144531 331.535156 221.25 C 333.316406 219.984375 334.019531 219.046875 334.761719 218.046875 C 335.59375 216.929688 336.460938 215.773438 338.792969 214.316406 C 339.460938 213.902344 339.914062 213.546875 340.359375 213.195312 C 340.769531 212.878906 341.15625 212.574219 341.648438 212.273438 C 341.851562 212.144531 342.058594 212.023438 342.269531 211.910156 C 344.851562 210.429688 347.753906 209.429688 350.890625 208.953125 C 350.929688 208.953125 350.96875 208.953125 351.003906 208.953125 C 351.058594 208.953125 351.101562 208.953125 351.148438 208.953125 C 351.203125 208.960938 351.246094 208.984375 351.292969 209.007812 C 351.339844 209.023438 351.375 209.039062 351.414062 209.066406 C 351.460938 209.097656 351.488281 209.128906 351.527344 209.167969 C 351.558594 209.195312 351.597656 209.226562 351.617188 209.265625 C 351.648438 209.308594 351.664062 209.355469 351.6875 209.402344 C 351.703125 209.429688 351.722656 209.460938 351.730469 209.5 C 351.730469 209.523438 351.730469 209.546875 351.738281 209.558594 C 351.738281 209.558594 351.738281 209.566406 351.738281 209.574219 C 351.738281 209.574219 351.738281 209.582031 351.738281 209.589844 C 352.269531 211.976562 348.921875 214.507812 343.875 218.308594 C 343.203125 218.816406 342.496094 219.347656 341.785156 219.894531 C 336.9375 223.597656 332.066406 227.695312 329.15625 232.507812 C 329.203125 232.992188 329.40625 233.089844 329.503906 233.136719 C 330.710938 233.703125 334.808594 231.976562 338.964844 228.515625 C 339.898438 227.734375 340.703125 226.976562 341.351562 226.257812 C 341.414062 226.1875 341.488281 226.136719 341.566406 226.089844 C 343.148438 225.273438 344.582031 224.554688 345.953125 223.886719 C 348.339844 222.71875 350.769531 221.589844 353.179688 220.523438 C 353.1875 220.523438 353.195312 220.523438 353.203125 220.523438 C 353.253906 220.5 353.300781 220.5 353.351562 220.492188 C 353.398438 220.484375 353.445312 220.46875 353.488281 220.46875 C 353.535156 220.46875 353.574219 220.484375 353.617188 220.492188 C 353.671875 220.5 353.726562 220.507812 353.769531 220.53125 C 353.808594 220.546875 353.839844 220.574219 353.875 220.597656 C 353.921875 220.628906 353.976562 220.652344 354.011719 220.695312 C 354.011719 220.695312 354.027344 220.703125 354.035156 220.710938 C 354.65625 221.371094 355.074219 222.167969 355.300781 223.082031 C 355.726562 223.023438 356.148438 222.96875 356.574219 222.945312 C 356.980469 222.925781 357.347656 223.242188 357.375 223.660156 C 357.398438 224.074219 357.082031 224.433594 356.664062 224.460938 C 356.066406 224.5 355.46875 224.574219 354.847656 224.6875 C 349.035156 225.789062 344.011719 230.304688 338.960938 235.25 C 338.9375 235.273438 338.914062 235.304688 338.890625 235.324219 C 338.558594 235.644531 338.230469 235.960938 337.898438 236.289062 L 337.800781 236.386719 C 337.839844 237.054688 337.988281 237.546875 338.253906 237.847656 C 339.589844 239.386719 344.777344 236.804688 349.019531 233.425781 C 350.875 231.9375 354.960938 231.113281 355.421875 231.023438 C 355.832031 230.9375 356.230469 231.210938 356.308594 231.621094 C 356.390625 232.03125 356.117188 232.433594 355.710938 232.507812 C 353.71875 232.894531 351.074219 233.71875 349.960938 234.605469 C 348.664062 235.636719 343.179688 239.824219 339.496094 239.824219 C 339.035156 239.824219 338.59375 239.757812 338.203125 239.605469 L 336.101562 250.589844 C 347.589844 249.71875 355.230469 244.773438 355.230469 238.113281 C 355.230469 237.695312 355.574219 237.355469 355.988281 237.355469 C 356.40625 237.355469 356.746094 237.695312 356.746094 238.113281 C 356.746094 245.699219 348.351562 251.28125 335.808594 252.128906 L 333.730469 263.015625 C 333.730469 263.015625 333.714844 263.046875 333.714844 263.0625 C 333.703125 263.121094 333.6875 263.175781 333.65625 263.226562 C 333.648438 263.25 333.632812 263.265625 333.625 263.289062 C 333.59375 263.339844 333.550781 263.394531 333.503906 263.441406 C 333.488281 263.457031 333.472656 263.46875 333.460938 263.484375 C 333.40625 263.523438 333.351562 263.554688 333.292969 263.585938 C 333.269531 263.589844 333.253906 263.605469 333.230469 263.613281 C 333.230469 263.613281 333.214844 263.613281 333.214844 263.621094 C 331.851562 264.210938 330.359375 264.644531 328.785156 264.910156 Z M 282.351562 143.226562 C 281.519531 142.746094 280.464844 142.648438 279.335938 142.621094 C 279.175781 145.292969 279.09375 148.027344 279.09375 150.671875 C 280.292969 149.640625 280.421875 149.082031 280.261719 148.785156 C 280.070312 148.414062 280.207031 147.960938 280.578125 147.761719 C 280.949219 147.574219 281.40625 147.71875 281.601562 148.089844 C 282.640625 150.082031 279.925781 152.011719 278.769531 152.839844 C 277.175781 153.96875 275.101562 155.1875 272.691406 156.597656 C 269.585938 158.414062 266.109375 160.445312 262.917969 162.757812 C 268.640625 164.371094 272.261719 167.121094 277.277344 171.277344 C 277.828125 171.734375 280.359375 173.613281 282.5625 175.257812 C 285.390625 164.574219 287.550781 155.984375 287.949219 152.574219 C 287.191406 151.710938 286.65625 150.839844 286.34375 149.921875 C 286.238281 149.628906 285.578125 148.164062 284.714844 146.558594 C 283.246094 143.898438 282.535156 143.347656 282.351562 143.242188 Z M 267.867188 166.605469 C 267.867188 166.527344 267.898438 166.460938 267.917969 166.390625 C 265.933594 165.324219 263.796875 164.492188 261.230469 163.878906 C 261.035156 163.9375 260.820312 163.976562 260.585938 163.976562 C 260.351562 163.976562 260.046875 163.9375 259.746094 163.871094 C 257.625 164.15625 255.191406 165.414062 252.652344 167.195312 C 252.957031 167.265625 253.199219 167.5 253.246094 167.824219 C 254.390625 175.898438 254.972656 177.664062 255.714844 179.898438 C 255.84375 180.277344 255.972656 180.6875 256.117188 181.144531 C 256.328125 181.226562 256.472656 181.394531 256.546875 181.589844 C 256.675781 181.589844 256.804688 181.605469 256.933594 181.605469 C 258.53125 181.679688 260.53125 181.777344 264.046875 181.414062 C 266.289062 176.023438 267.683594 170.644531 267.867188 166.605469 Z M 260.132812 140.242188 C 254.898438 139.976562 248.640625 137.847656 243.691406 134.742188 C 243.691406 134.742188 243.691406 134.753906 243.691406 134.761719 C 244.023438 136.90625 244.335938 138.9375 244.578125 141.890625 C 244.796875 144.648438 245.039062 148.535156 244.996094 151.648438 C 247.109375 154.1875 250.191406 156.648438 252.949219 158.726562 C 254.003906 159.511719 257.667969 161.777344 259.828125 162.339844 C 260.214844 162.292969 260.59375 162.292969 260.972656 162.316406 C 264.511719 159.621094 268.449219 157.316406 271.933594 155.277344 C 274.15625 153.984375 276.085938 152.847656 277.578125 151.816406 C 277.554688 148.566406 277.65625 145.113281 277.867188 141.792969 C 278.078125 138.332031 278.40625 135.914062 278.84375 132.996094 C 272.753906 137.605469 266.335938 140.105469 260.175781 140.234375 C 260.175781 140.234375 260.167969 140.234375 260.160156 140.234375 L 260.132812 140.234375 Z M 238.609375 147.871094 C 238.394531 148.339844 238.183594 148.832031 237.980469 149.324219 C 237.214844 151.121094 236.417969 152.960938 235.402344 154.1875 C 235.3125 158.429688 236.496094 166.878906 238.296875 177.855469 C 238.5625 177.605469 238.8125 177.363281 239.078125 177.097656 C 244.699219 171.65625 251.527344 165.050781 257.222656 162.960938 C 255.132812 161.992188 252.898438 160.582031 252.03125 159.929688 C 249.132812 157.742188 245.859375 155.132812 243.640625 152.398438 C 242.617188 151.148438 241.875 149.945312 241.359375 148.726562 C 241.191406 148.339844 241.375 147.890625 241.761719 147.734375 C 242.144531 147.574219 242.585938 147.75 242.753906 148.132812 C 242.949219 148.597656 243.191406 149.058594 243.464844 149.519531 C 243.425781 147.664062 243.320312 145.460938 243.140625 143.050781 C 241.8125 143.65625 240.746094 144.429688 239.988281 145.363281 C 239.570312 145.875 239.132812 146.671875 238.609375 147.863281 Z M 235.796875 171.847656 C 234.523438 163.636719 233.789062 157.460938 233.894531 153.9375 C 233.894531 153.9375 233.894531 153.921875 233.894531 153.914062 C 233.894531 153.914062 233.894531 153.890625 233.894531 153.878906 C 233.917969 153.132812 233.980469 152.503906 234.085938 152.003906 C 234.167969 151.597656 234.5625 151.332031 234.980469 151.421875 C 235.09375 151.445312 235.199219 151.5 235.28125 151.566406 C 235.691406 150.785156 236.078125 149.898438 236.457031 149.019531 C 235.578125 149.679688 234.554688 150.703125 233.554688 151.71875 C 231.859375 153.4375 229.933594 155.378906 227.84375 156.511719 C 227.683594 156.597656 227.386719 156.75 227.007812 156.9375 C 225.894531 157.5 222.507812 159.203125 222.078125 159.695312 C 220.988281 161.074219 219.835938 163.371094 218.730469 165.589844 C 217.917969 167.210938 217.152344 168.75 216.425781 169.886719 C 214.523438 172.871094 211.714844 177.089844 208.859375 180.710938 C 210.964844 182.035156 214.230469 183.816406 218.007812 185.703125 C 219.433594 184.636719 220.875 183.589844 222.289062 182.558594 C 226.972656 179.164062 231.394531 175.953125 235.246094 172.058594 C 235.394531 171.898438 235.601562 171.832031 235.804688 171.839844 Z M 241.707031 197.78125 C 243.753906 209.546875 246.011719 222.539062 248.160156 236.113281 C 249.230469 227.25 250.160156 219 250.996094 211.582031 C 252.652344 196.832031 253.867188 186.121094 254.890625 182.339844 C 254.660156 181.574219 254.457031 180.960938 254.261719 180.363281 C 253.496094 178.058594 252.898438 176.242188 251.730469 168.027344 C 251.722656 167.960938 251.730469 167.898438 251.746094 167.832031 C 247.835938 170.71875 243.730469 174.695312 240.125 178.179688 C 239.601562 178.6875 239.09375 179.179688 238.585938 179.664062 C 239.503906 185.179688 240.5625 191.28125 241.699219 197.773438 Z M 255.027344 288 C 257.90625 273.464844 261.207031 258.8125 264.570312 244.820312 C 265.238281 225.386719 265.261719 197.921875 263.777344 182.96875 C 261.957031 183.144531 260.554688 183.195312 259.40625 183.195312 C 258.40625 183.195312 257.585938 183.15625 256.851562 183.121094 C 256.746094 183.121094 256.648438 183.113281 256.539062 183.105469 C 256.480469 183.292969 256.34375 183.453125 256.15625 183.542969 C 255.199219 187.792969 254.046875 198.015625 252.503906 211.75 C 251.503906 220.628906 250.375 230.6875 249.019531 241.589844 C 251.351562 256.710938 253.496094 272.457031 255.027344 287.992188 Z M 282.15625 176.816406 C 279.277344 174.679688 276.90625 172.914062 276.3125 172.4375 C 273.769531 170.332031 271.601562 168.605469 269.335938 167.210938 C 269.046875 171.453125 267.59375 176.9375 265.289062 182.386719 C 265.285156 182.40625 265.269531 182.429688 265.261719 182.460938 C 266.609375 195.671875 266.753906 218.960938 266.296875 237.75 C 271.027344 218.484375 275.761719 200.789062 279.496094 186.808594 C 280.414062 183.363281 281.3125 180.015625 282.15625 176.824219 Z M 312.027344 181.195312 C 309.164062 175.421875 306.199219 169.460938 304.511719 163.269531 C 304.328125 162.605469 304.15625 161.921875 304.003906 161.25 C 303.699219 159.898438 302.90625 158.140625 300.828125 157.40625 C 298.988281 156.757812 296.222656 154.535156 293.300781 152.1875 C 291.171875 150.476562 288.65625 148.460938 286.925781 147.503906 C 287.367188 148.40625 287.691406 149.132812 287.792969 149.40625 C 287.882812 149.679688 288.011719 149.953125 288.15625 150.21875 C 288.199219 150.179688 288.238281 150.132812 288.300781 150.105469 C 288.671875 149.90625 289.132812 150.058594 289.328125 150.429688 C 289.503906 150.753906 289.554688 151.355469 289.488281 152.277344 C 289.488281 152.324219 289.488281 152.363281 289.480469 152.40625 C 289.230469 155.269531 287.835938 161.1875 284.941406 172.234375 C 291.269531 176.523438 297.117188 181.855469 302.578125 187.015625 C 302.996094 186.742188 303.414062 186.476562 303.828125 186.195312 C 306.648438 184.339844 309.558594 182.4375 312.285156 181.703125 L 312.035156 181.203125 Z M 340.089844 229.53125 L 339.503906 232.574219 C 343.972656 228.316406 348.511719 224.628906 353.761719 223.386719 C 353.640625 222.9375 353.453125 222.539062 353.203125 222.179688 C 350.980469 223.167969 348.753906 224.203125 346.558594 225.28125 C 345.230469 225.925781 343.84375 226.621094 342.324219 227.410156 C 341.695312 228.097656 340.945312 228.808594 340.089844 229.53125 Z M 350.101562 210.636719 C 347.632812 211.105469 345.332031 211.929688 343.230469 213.089844 L 342.382812 217.53125 C 342.558594 217.402344 342.738281 217.265625 342.90625 217.136719 C 346.132812 214.703125 349.445312 212.203125 350.101562 210.644531 Z M 348.695312 199.507812 C 347.90625 199.515625 346.882812 199.542969 345.800781 199.628906 L 345.40625 201.703125 C 346.664062 200.902344 347.914062 200.097656 348.703125 199.507812 Z M 348.089844 187.628906 L 347.601562 190.1875 C 348.019531 190.15625 348.4375 190.144531 348.867188 190.121094 C 348.648438 189.25 348.390625 188.414062 348.089844 187.628906 Z M 340.59375 100.777344 L 334.640625 133.261719 C 339.230469 137.027344 347.6875 139.996094 356.011719 137.992188 L 362.253906 105.269531 C 360.914062 105.746094 358.960938 105.929688 356.96875 105.929688 C 354.597656 105.929688 352.1875 105.671875 350.746094 105.359375 C 345.71875 104.269531 342.238281 102.6875 340.589844 100.777344 Z M 341.027344 98.390625 C 341.285156 100.066406 344.042969 102.351562 351.074219 103.875 C 354.261719 104.566406 360.582031 104.710938 362.339844 103.574219 C 362.4375 103.503906 362.609375 103.375 362.640625 103.246094 C 362.640625 103.246094 362.640625 103.238281 362.640625 103.230469 C 363.011719 101.445312 358.710938 99.300781 355.671875 98.414062 C 346.082031 95.601562 341.695312 97.761719 341.027344 98.398438 Z M 315.085938 210.332031 C 315.972656 211.378906 317.035156 212.636719 318.269531 214.210938 L 320.066406 204.410156 C 318.019531 201.789062 315.292969 200.507812 312.722656 200.992188 C 311.746094 201.171875 311.019531 201.574219 310.761719 202.050781 C 310.578125 202.394531 310.609375 202.816406 310.835938 203.363281 C 310.851562 203.394531 310.859375 203.429688 310.875 203.460938 C 311.640625 206.257812 312.867188 207.703125 315.085938 210.324219 Z M 328.15625 263.484375 C 329.625 263.265625 331.011719 262.878906 332.285156 262.355469 L 336.832031 238.523438 C 336.4375 237.910156 336.222656 237.097656 336.222656 236.089844 C 336.222656 235.886719 336.308594 235.691406 336.453125 235.554688 L 336.785156 235.226562 C 337.066406 234.953125 337.335938 234.683594 337.617188 234.417969 L 338.277344 230.960938 C 335.824219 232.757812 332.382812 234.796875 330.027344 234.796875 C 329.574219 234.796875 329.15625 234.71875 328.800781 234.554688 C 328.238281 234.289062 327.574219 233.695312 327.574219 232.355469 C 327.574219 232.21875 327.609375 232.089844 327.679688 231.96875 C 330.65625 226.925781 335.617188 222.710938 340.574219 218.910156 L 341.464844 214.21875 C 341.382812 214.289062 341.300781 214.347656 341.214844 214.417969 C 340.769531 214.765625 340.253906 215.167969 339.519531 215.628906 C 337.429688 216.929688 336.6875 217.925781 335.898438 218.976562 C 335.15625 219.96875 334.316406 221.097656 332.332031 222.507812 C 331.527344 223.074219 330.332031 223.304688 329.148438 223.304688 C 327.964844 223.304688 326.769531 223.074219 326.019531 222.734375 C 325.367188 222.4375 325.003906 222.046875 324.953125 221.566406 C 324.824219 220.484375 325.875 218.378906 326.308594 217.925781 C 327.664062 216.523438 328.171875 215.816406 328.65625 215.144531 C 329.292969 214.257812 329.898438 213.417969 332.082031 211.316406 C 333.445312 210 334.648438 209.066406 335.640625 208.332031 C 338.671875 206.066406 341.375 204.289062 343.640625 202.832031 L 344.222656 199.792969 C 342.625 199.992188 341.359375 200.289062 340.511719 200.671875 C 339.527344 201.523438 338.511719 202.816406 337.4375 204.203125 C 335.351562 206.871094 332.988281 209.902344 329.746094 211.21875 C 329.109375 211.476562 327.722656 211.703125 326.335938 211.703125 C 325.09375 211.703125 323.859375 211.523438 323.171875 211.015625 C 322.707031 210.679688 322.480469 210.203125 322.519531 209.679688 C 322.59375 208.6875 324.800781 206.074219 325.246094 205.734375 C 327.125 204.28125 327.816406 203.386719 328.769531 202.152344 C 329.511719 201.1875 330.445312 199.984375 332.195312 198.226562 C 332.453125 197.96875 332.851562 197.542969 333.324219 197.042969 C 335.214844 195.039062 336.996094 193.195312 337.914062 192.613281 C 339.777344 191.4375 342.445312 190.695312 346.027344 190.332031 L 355.703125 139.625 C 353.96875 139.992188 352.222656 140.171875 350.519531 140.171875 C 344.132812 140.171875 338.179688 137.847656 334.332031 134.960938 L 319.449219 216.152344 C 319.449219 216.152344 319.449219 216.179688 319.449219 216.1875 L 311.761719 258.144531 C 315.601562 262.933594 322.714844 264.296875 328.15625 263.492188 Z M 377.777344 290.949219 C 376.960938 275.84375 373.089844 268.183594 371.625 265.304688 C 371.46875 264.984375 371.347656 264.742188 371.261719 264.570312 C 369.332031 260.191406 367.695312 254.621094 366.105469 249.234375 C 364.503906 243.8125 362.855469 238.195312 360.882812 233.726562 C 360.71875 233.347656 360.269531 233.167969 359.882812 233.339844 C 359.503906 233.507812 359.332031 233.953125 359.496094 234.339844 C 361.429688 238.71875 363.066406 244.289062 364.648438 249.667969 C 366.246094 255.097656 367.898438 260.710938 369.875 265.183594 C 369.960938 265.378906 370.097656 265.644531 370.269531 265.992188 C 371.6875 268.796875 375.453125 276.25 376.253906 291.039062 C 376.550781 296.492188 374.761719 314.328125 371.484375 315.570312 L 370.582031 315.910156 C 365.785156 317.730469 359.808594 319.996094 354.914062 318.449219 C 351.21875 317.28125 340.769531 312.078125 337.34375 310.199219 C 336.230469 309.59375 334.792969 308.59375 333.125 307.441406 C 331.59375 306.386719 329.859375 305.191406 328.050781 304.0625 C 328.035156 304.054688 328.011719 304.054688 327.996094 304.039062 C 327.957031 304.015625 327.921875 304.007812 327.875 303.992188 C 327.816406 303.980469 327.761719 303.957031 327.703125 303.957031 C 327.6875 303.957031 327.679688 303.949219 327.664062 303.949219 C 327.664062 303.949219 327.648438 303.949219 327.648438 303.949219 C 327.625 303.949219 327.601562 303.964844 327.578125 303.964844 C 327.519531 303.964844 327.464844 303.980469 327.40625 303.992188 C 327.367188 304.007812 327.328125 304.023438 327.300781 304.046875 C 327.253906 304.070312 327.207031 304.101562 327.164062 304.136719 C 327.125 304.167969 327.09375 304.199219 327.074219 304.238281 C 327.050781 304.257812 327.027344 304.273438 327.003906 304.304688 C 326.996094 304.320312 326.996094 304.34375 326.980469 304.359375 C 326.957031 304.402344 326.945312 304.449219 326.929688 304.492188 C 326.914062 304.546875 326.898438 304.59375 326.898438 304.636719 C 326.898438 304.652344 326.890625 304.667969 326.890625 304.691406 C 326.09375 339.988281 325.945312 395.335938 325.914062 411.457031 C 325.914062 411.875 326.253906 412.214844 326.671875 412.214844 C 327.085938 412.214844 327.429688 411.875 327.429688 411.457031 C 327.457031 395.542969 327.609375 341.390625 328.375 306.0625 C 329.746094 306.949219 331.074219 307.859375 332.261719 308.683594 C 333.964844 309.859375 335.4375 310.878906 336.617188 311.523438 C 340.179688 313.488281 350.609375 318.675781 354.460938 319.894531 C 355.761719 320.304688 357.117188 320.480469 358.496094 320.480469 C 362.808594 320.480469 367.324219 318.765625 371.125 317.328125 L 372.027344 316.988281 C 377.011719 315.101562 377.960938 294.289062 377.777344 290.957031 Z M 274.988281 95.261719 C 274.988281 97.148438 276.527344 98.6875 278.414062 98.6875 C 280.296875 98.6875 281.835938 97.148438 281.835938 95.261719 C 281.835938 93.375 280.296875 91.835938 278.414062 91.835938 C 276.527344 91.835938 274.988281 93.375 274.988281 95.261719 Z M 241.359375 95.171875 C 241.359375 97.058594 242.894531 98.59375 244.78125 98.59375 C 246.667969 98.59375 248.207031 97.058594 248.207031 95.171875 C 248.207031 93.285156 246.667969 91.746094 244.78125 91.746094 C 242.894531 91.746094 241.359375 93.285156 241.359375 95.171875 Z M 211.601562 339.644531 C 211.601562 339.601562 211.601562 339.546875 211.585938 339.503906 C 211.585938 339.503906 211.585938 339.496094 211.585938 339.488281 C 211.570312 339.449219 211.546875 339.417969 211.53125 339.390625 C 211.507812 339.335938 211.488281 339.289062 211.457031 339.246094 C 211.425781 339.207031 211.386719 339.175781 211.351562 339.144531 C 211.3125 339.117188 211.28125 339.078125 211.238281 339.054688 C 211.191406 339.03125 211.136719 339.015625 211.085938 339.003906 C 211.046875 338.988281 211.015625 338.972656 210.972656 338.964844 C 210.972656 338.964844 210.964844 338.964844 210.957031 338.964844 C 210.917969 338.964844 210.871094 338.964844 210.835938 338.964844 C 210.765625 338.964844 210.707031 338.964844 210.644531 338.980469 L 187.628906 346.160156 C 187.230469 346.289062 187.007812 346.714844 187.128906 347.109375 C 187.230469 347.433594 187.53125 347.640625 187.855469 347.640625 C 187.933594 347.640625 188.007812 347.632812 188.085938 347.609375 L 209.949219 340.789062 C 209.644531 342.753906 208.996094 346.820312 208.175781 350.433594 C 207.464844 353.585938 206.199219 357.480469 204.78125 358.949219 C 202.972656 360.828125 199.214844 361.699219 194.015625 362.910156 C 190.230469 363.796875 185.507812 364.898438 180.226562 366.722656 C 179.835938 366.859375 179.621094 367.289062 179.757812 367.683594 C 179.863281 367.996094 180.160156 368.191406 180.472656 368.191406 C 180.554688 368.191406 180.636719 368.175781 180.722656 368.148438 C 185.917969 366.34375 190.59375 365.253906 194.351562 364.382812 C 199.804688 363.109375 203.742188 362.191406 205.867188 359.996094 C 207.871094 357.910156 209.183594 352.84375 209.652344 350.761719 C 210.78125 345.746094 211.617188 339.867188 211.621094 339.804688 C 211.621094 339.804688 211.621094 339.796875 211.621094 339.789062 C 211.621094 339.738281 211.621094 339.683594 211.617188 339.632812 Z M 324.679688 369.472656 C 321.90625 368.898438 320.308594 368.519531 319.019531 368.214844 C 317.207031 367.785156 316.011719 367.503906 313.058594 367.046875 C 305.449219 365.882812 302.957031 364.730469 301.558594 363.367188 C 300.164062 362.011719 298.84375 360.261719 298.632812 356.625 L 298.441406 353.425781 C 298.320312 351.34375 298.179688 348.835938 298.058594 346.851562 C 297.996094 345.890625 297.957031 345.152344 297.914062 344.585938 C 301.875 345.980469 306.050781 347.078125 310.101562 348.140625 C 314.496094 349.28125 319.042969 350.472656 323.253906 352.023438 C 323.335938 352.054688 323.429688 352.070312 323.519531 352.070312 C 323.828125 352.070312 324.117188 351.882812 324.230469 351.578125 C 324.375 351.183594 324.179688 350.753906 323.785156 350.601562 C 319.503906 349.019531 314.921875 347.820312 310.488281 346.667969 C 306.191406 345.546875 301.761719 344.390625 297.632812 342.882812 C 297.511719 342.683594 297.328125 342.683594 297.058594 342.691406 C 296.738281 342.699219 296.480469 342.925781 296.375 343.222656 C 296.375 343.222656 296.375 343.222656 296.375 343.230469 C 296.359375 343.269531 296.367188 343.304688 296.359375 343.34375 C 296.351562 343.390625 296.328125 343.441406 296.328125 343.488281 C 296.328125 343.488281 296.328125 343.503906 296.328125 343.511719 C 296.328125 343.523438 296.328125 343.539062 296.328125 343.554688 C 296.328125 343.59375 296.328125 343.640625 296.34375 343.675781 C 296.421875 344.601562 296.738281 350.132812 296.933594 353.511719 L 297.125 356.707031 C 297.375 360.867188 298.972656 362.957031 300.503906 364.449219 C 302.164062 366.0625 304.800781 367.304688 312.828125 368.539062 C 315.722656 368.988281 316.890625 369.261719 318.671875 369.683594 C 319.964844 369.996094 321.574219 370.375 324.367188 370.949219 C 324.421875 370.957031 324.472656 370.964844 324.519531 370.964844 C 324.867188 370.964844 325.1875 370.714844 325.261719 370.359375 C 325.34375 369.949219 325.078125 369.546875 324.671875 369.464844 Z M 259.390625 306.152344 C 259.390625 308.972656 257.09375 311.265625 254.277344 311.265625 C 251.457031 311.265625 249.160156 308.972656 249.160156 306.152344 C 249.160156 303.335938 251.457031 301.039062 254.277344 301.039062 C 257.09375 301.039062 259.390625 303.335938 259.390625 306.152344 Z M 257.875 306.152344 C 257.875 304.167969 256.261719 302.554688 254.277344 302.554688 C 252.289062 302.554688 250.675781 304.167969 250.675781 306.152344 C 250.675781 308.136719 252.289062 309.75 254.277344 309.75 C 256.261719 309.75 257.875 308.136719 257.875 306.152344 Z M 256.125 304.078125 C 255.933594 303.707031 255.472656 303.5625 255.101562 303.75 C 254.730469 303.941406 254.585938 304.402344 254.78125 304.773438 C 254.820312 304.851562 254.867188 304.933594 254.917969 305.015625 C 255.238281 305.578125 255.667969 306.351562 255.335938 307.5 C 255.222656 307.902344 255.449219 308.320312 255.851562 308.441406 C 255.917969 308.464844 255.996094 308.472656 256.0625 308.472656 C 256.390625 308.472656 256.691406 308.257812 256.789062 307.925781 C 257.296875 306.167969 256.609375 304.941406 256.238281 304.28125 L 256.125 304.085938 Z M 254.328125 356.261719 C 254.328125 359.078125 252.03125 361.375 249.214844 361.375 C 246.398438 361.375 244.101562 359.078125 244.101562 356.261719 C 244.101562 353.441406 246.398438 351.148438 249.214844 351.148438 C 252.03125 351.148438 254.328125 353.441406 254.328125 356.261719 Z M 252.8125 356.261719 C 252.8125 354.277344 251.199219 352.660156 249.214844 352.660156 C 247.230469 352.660156 245.617188 354.277344 245.617188 356.261719 C 245.617188 358.246094 247.230469 359.859375 249.214844 359.859375 C 251.199219 359.859375 252.8125 358.246094 252.8125 356.261719 Z M 250.753906 353.875 C 250.382812 353.675781 249.925781 353.804688 249.722656 354.175781 C 249.519531 354.539062 249.652344 355.003906 250.023438 355.207031 C 250.117188 355.261719 250.425781 355.457031 250.527344 355.875 C 250.632812 356.320312 250.472656 356.882812 250.0625 357.503906 C 249.828125 357.851562 249.925781 358.320312 250.277344 358.554688 C 250.402344 358.640625 250.546875 358.683594 250.691406 358.683594 C 250.933594 358.683594 251.175781 358.5625 251.320312 358.34375 C 252.148438 357.101562 252.148438 356.117188 251.996094 355.511719 C 251.820312 354.8125 251.367188 354.214844 250.753906 353.875 Z M 171.78125 307.449219 C 171.835938 307.828125 172.160156 308.109375 172.53125 308.109375 C 172.5625 308.109375 172.59375 308.109375 172.628906 308.109375 C 176.183594 307.652344 179.714844 306.867188 183.121094 305.773438 C 185.191406 305.113281 186.28125 304.078125 187.25 303.160156 C 187.902344 302.546875 188.515625 301.964844 189.402344 301.515625 C 189.433594 301.5 189.457031 301.472656 189.484375 301.449219 C 189.53125 301.417969 189.578125 301.386719 189.613281 301.351562 C 189.644531 301.3125 189.667969 301.273438 189.699219 301.238281 C 189.722656 301.199219 189.75 301.152344 189.765625 301.109375 C 189.78125 301.0625 189.789062 301.007812 189.796875 300.957031 C 189.796875 300.917969 189.820312 300.886719 189.820312 300.851562 C 189.957031 293.363281 190.199219 285.515625 190.441406 277.917969 C 190.765625 267.425781 191.078125 257.507812 191.078125 249.347656 C 191.078125 248.933594 190.734375 248.589844 190.320312 248.589844 C 189.902344 248.589844 189.5625 248.933594 189.5625 249.347656 C 189.5625 257.484375 189.25 267.386719 188.925781 277.863281 C 188.691406 285.320312 188.457031 293.023438 188.320312 300.386719 C 187.464844 300.886719 186.820312 301.480469 186.214844 302.046875 C 185.28125 302.925781 184.402344 303.757812 182.667969 304.3125 C 179.347656 305.371094 175.902344 306.136719 172.441406 306.585938 C 172.023438 306.636719 171.726562 307.015625 171.78125 307.433594 Z M 173.707031 328.246094 C 174.03125 327.632812 174.402344 326.941406 175.234375 326.015625 C 175.984375 325.183594 176.855469 324.449219 177.828125 323.835938 C 178.183594 323.609375 178.28125 323.136719 178.0625 322.789062 C 177.835938 322.433594 177.363281 322.335938 177.015625 322.554688 C 175.933594 323.246094 174.957031 324.070312 174.113281 325.003906 C 173.152344 326.0625 172.71875 326.882812 172.371094 327.53125 C 172.070312 328.101562 171.847656 328.515625 171.355469 328.933594 C 169.636719 330.394531 166.691406 330.183594 165.605469 329.789062 C 165.726562 329.691406 165.871094 329.570312 166.023438 329.449219 L 166.707031 328.894531 C 167.828125 327.980469 168.355469 327.507812 168.871094 327.046875 C 169.425781 326.554688 169.941406 326.09375 171.167969 325.117188 C 172.21875 324.273438 173.054688 323.636719 173.96875 323.003906 L 174.054688 322.941406 C 177.046875 320.84375 179.835938 319.464844 179.855469 319.449219 C 181.320312 318.730469 182.167969 317.941406 182.84375 317.304688 C 183.484375 316.699219 183.949219 316.265625 184.734375 316.0625 C 185.136719 315.957031 185.378906 315.539062 185.273438 315.136719 C 185.167969 314.738281 184.75 314.488281 184.351562 314.601562 C 183.199219 314.902344 182.523438 315.53125 181.804688 316.207031 C 181.167969 316.804688 180.449219 317.480469 179.183594 318.101562 C 179.0625 318.160156 176.265625 319.539062 173.175781 321.714844 L 173.09375 321.773438 C 172.160156 322.433594 171.296875 323.085938 170.21875 323.949219 C 168.964844 324.957031 168.425781 325.433594 167.863281 325.933594 C 167.363281 326.378906 166.839844 326.84375 165.742188 327.738281 L 165.070312 328.28125 C 164.046875 329.109375 163.667969 329.410156 163.820312 330.078125 C 163.933594 330.601562 164.410156 331.003906 165.234375 331.273438 C 165.863281 331.488281 166.707031 331.617188 167.621094 331.617188 C 169.214844 331.617188 171.03125 331.214844 172.335938 330.101562 C 173.039062 329.503906 173.363281 328.894531 173.699219 328.257812 Z M 182.023438 350.53125 C 182.023438 350.53125 182.023438 350.523438 182.023438 350.519531 C 185.105469 337.660156 187.773438 324.523438 189.933594 311.480469 C 190 311.070312 189.722656 310.675781 189.3125 310.609375 C 188.902344 310.539062 188.507812 310.820312 188.441406 311.230469 C 186.28125 324.246094 183.628906 337.34375 180.554688 350.160156 C 178.699219 356.390625 175.667969 379.027344 173 399.019531 C 172.402344 403.464844 171.835938 407.738281 171.3125 411.578125 C 171.257812 411.996094 171.546875 412.375 171.964844 412.4375 C 172 412.4375 172.03125 412.4375 172.070312 412.4375 C 172.441406 412.4375 172.765625 412.164062 172.820312 411.785156 C 173.34375 407.9375 173.917969 403.671875 174.507812 399.214844 C 177.046875 380.222656 180.207031 356.59375 182.023438 350.546875 C 182.023438 350.539062 182.023438 350.53125 182.023438 350.523438 Z M 185.886719 211.917969 C 186.765625 215.167969 187.601562 218.234375 187.902344 221.203125 C 187.941406 221.597656 188.273438 221.886719 188.652344 221.886719 C 188.675781 221.886719 188.707031 221.886719 188.730469 221.886719 C 189.144531 221.839844 189.449219 221.46875 189.402344 221.054688 C 189.085938 217.960938 188.234375 214.832031 187.34375 211.523438 C 186.652344 208.984375 185.949219 206.363281 185.480469 203.710938 C 184.3125 197.097656 182.855469 190.453125 181.144531 183.96875 C 181.039062 183.566406 180.613281 183.324219 180.222656 183.429688 C 179.820312 183.535156 179.578125 183.953125 179.683594 184.355469 C 181.386719 190.800781 182.835938 197.402344 183.984375 203.976562 C 184.464844 206.695312 185.183594 209.347656 185.878906 211.917969 Z M 185.886719 211.917969 " fill-opacity="1" fill-rule="nonzero"/></g></svg>