<svg xmlns="http://www.w3.org/2000/svg" xmlns:xlink="http://www.w3.org/1999/xlink" width="711" zoomAndPan="magnify" viewBox="0 0 533.25 428.250001" height="571" preserveAspectRatio="xMidYMid meet" version="1.0"><defs><clipPath id="c7d51653b8"><path d="M 104.328125 247 L 257 247 L 257 375.144531 L 104.328125 375.144531 Z M 104.328125 247 " clip-rule="nonzero"/></clipPath><clipPath id="c33793e45c"><path d="M 275 51.710938 L 427.761719 51.710938 L 427.761719 204 L 275 204 Z M 275 51.710938 " clip-rule="nonzero"/></clipPath></defs><path fill="#a3e635" d="M 182.578125 17.65625 C 162.519531 21.96875 141.769531 32.101562 120.378906 47.867188 L 120.378906 47.871094 C 120.289062 47.933594 120.207031 47.988281 120.113281 48.046875 C 120.039062 48.089844 119.984375 48.15625 119.957031 48.230469 L 119.933594 48.234375 C 77.75 95.675781 20.113281 185.175781 18.253906 255.863281 C 16.347656 328.421875 36.496094 380.21875 76.265625 409.644531 C 93.773438 422.597656 113.785156 426.847656 134.757812 424.679688 C 139.992188 424.140625 145.214844 423.527344 150.3125 422.429688 C 154.109375 421.613281 157.847656 420.527344 161.476562 419.003906 C 203.796875 401.269531 234.9375 389.625 255.269531 385.253906 C 257.535156 384.765625 259.664062 384.371094 261.660156 384.066406 C 272.566406 382.398438 287.316406 380.28125 305.542969 382.554688 C 375.460938 391.28125 413.710938 394.625 422.367188 393.691406 C 428.699219 393.011719 434.839844 392.078125 440.761719 390.804688 C 458.398438 387.011719 474.136719 380.183594 487.441406 367.886719 C 514.765625 342.632812 529.152344 310.589844 530.4375 272.980469 C 531.746094 234.726562 518.933594 204.804688 493.648438 182.972656 C 484.910156 175.425781 476.207031 168.898438 466.304688 166.191406 C 399.863281 148.023438 359.414062 135.363281 347.625 124.816406 L 347.601562 124.820312 C 347.570312 124.738281 347.507812 124.667969 347.421875 124.628906 C 328.261719 115.003906 298.089844 83.625 254.375 33.96875 C 247.351562 25.996094 238.644531 21.183594 230.261719 18.824219 L 230.257812 18.824219 C 230.246094 18.820312 230.234375 18.816406 230.222656 18.8125 C 214.824219 14.492188 198.933594 14.136719 182.578125 17.65625 Z M 182.578125 17.65625 " fill-opacity="0.996" fill-rule="nonzero"/><path fill="#000000" d="M 158.914062 22.183594 C 202.296875 2.636719 240.929688 0.0703125 273.421875 17.210938 C 281.714844 21.585938 289.820312 28.632812 295.425781 38.648438 C 327.066406 95.207031 348.660156 129.761719 363.71875 141.660156 C 363.964844 141.851562 364.175781 142.082031 364.347656 142.339844 C 371.585938 153.089844 405.402344 172.597656 466.277344 204.191406 C 476.285156 209.386719 483.820312 218.230469 490.578125 227.183594 C 511.140625 254.414062 517.371094 287.035156 508 324.363281 C 498.796875 361.015625 477.808594 389.605469 445.566406 408.683594 C 423.988281 421.449219 400.371094 423.199219 375.460938 420.585938 C 366.261719 419.617188 330 408.359375 266.195312 386.082031 C 250.230469 380.503906 236.53125 379.539062 225.992188 378.902344 C 207.398438 377.78125 174.292969 382.371094 125.730469 391.460938 C 116.074219 393.269531 106.515625 392.421875 97.710938 391.457031 C 76.300781 389.117188 56.90625 380.503906 41.949219 363.519531 C 8.710938 325.773438 0.398438 270.628906 17.164062 201.558594 C 33.847656 132.820312 108.542969 58.609375 158.210938 22.441406 C 159.550781 21.46875 161.425781 21.761719 162.402344 23.101562 C 163.375 24.441406 163.082031 26.316406 161.742188 27.289062 C 112.300781 63.289062 39.144531 136.417969 22.988281 202.976562 C 6.480469 271 14.996094 323.835938 46.449219 359.554688 C 60.273438 375.253906 78.207031 383.292969 98.363281 385.496094 C 107.171875 386.460938 115.933594 387.195312 124.628906 385.566406 C 173.015625 376.507812 206.882812 371.742188 226.351562 372.917969 C 236.988281 373.558594 251.382812 374.554688 268.175781 380.417969 C 332.414062 402.851562 367.777344 413.75 376.085938 414.621094 C 400.367188 417.167969 422.496094 415.363281 442.511719 403.519531 C 473.339844 385.28125 493.359375 358.042969 502.183594 322.902344 C 511.160156 287.160156 505.15625 256.4375 485.792969 230.796875 C 479.078125 221.90625 472.234375 214.039062 463.515625 209.515625 C 403.621094 178.433594 367.714844 158.074219 359.375 145.6875 L 360.003906 146.367188 C 343.773438 133.546875 321.550781 97.628906 290.191406 41.574219 C 285.214844 32.679688 278.011719 26.410156 270.621094 22.515625 C 240.34375 6.542969 203.777344 8.546875 161.378906 27.652344 C 159.867188 28.332031 158.09375 27.660156 157.410156 26.152344 C 156.730469 24.640625 157.402344 22.867188 158.914062 22.183594 Z M 158.914062 22.183594 " fill-opacity="0.996" fill-rule="nonzero"/><path fill="#181a99" d="M 268.671875 130.3125 C 270.558594 118.585938 276.015625 107.671875 284.304688 99.113281 C 267.324219 97.160156 250.546875 102.753906 238.015625 114.679688 L 246.300781 138.9375 C 253.039062 134.488281 260.65625 131.523438 268.671875 130.3125 Z M 268.671875 130.3125 " fill-opacity="1" fill-rule="nonzero"/><path fill="#181a99" d="M 380.390625 195.199219 C 371.835938 203.488281 360.851562 208.945312 349.195312 210.832031 C 348.65625 214.203125 347.847656 217.503906 346.703125 220.738281 L 365.296875 241.085938 C 376.886719 228.554688 382.347656 211.910156 380.390625 195.199219 Z M 380.390625 195.199219 " fill-opacity="1" fill-rule="nonzero"/><path fill="#181a99" d="M 295.289062 280.304688 C 286.664062 288.929688 275.410156 294.65625 263.417969 296.542969 C 261.53125 308.269531 256.074219 319.183594 247.785156 327.742188 C 265.238281 329.761719 282.554688 323.765625 295.222656 311.097656 L 328.574219 277.742188 L 313.683594 261.839844 Z M 295.289062 280.304688 " fill-opacity="1" fill-rule="nonzero"/><path fill="#181a99" d="M 203.246094 301.191406 L 212.207031 310.152344 L 213.488281 308.875 C 219.214844 303.148438 222.382812 295.53125 222.382812 287.445312 C 222.382812 286.90625 222.382812 286.367188 222.3125 285.828125 C 222.246094 284.75 222.113281 283.605469 221.976562 282.527344 Z M 203.246094 301.191406 " fill-opacity="1" fill-rule="nonzero"/><path fill="#181a99" d="M 166.589844 264.402344 C 166.65625 264.46875 166.65625 264.46875 166.722656 264.535156 C 167.195312 265.074219 167.734375 265.613281 168.339844 266.222656 L 178.3125 276.195312 L 194.082031 260.425781 C 192.800781 258.742188 191.585938 256.988281 190.507812 255.238281 C 184.042969 244.523438 181.210938 231.722656 182.492188 219.257812 L 182.492188 219.1875 C 183.839844 205.980469 189.769531 193.582031 199.203125 184.148438 L 212.070312 171.28125 L 191.925781 160.632812 L 168.273438 184.285156 C 153.855469 198.703125 148.125 219.121094 152.910156 238.929688 C 155.203125 248.433594 159.917969 257.257812 166.589844 264.402344 Z M 166.589844 264.402344 " fill-opacity="1" fill-rule="nonzero"/><path fill="#181a99" d="M 190.105469 223.367188 C 189.769531 233.136719 192.261719 242.839844 197.246094 251.195312 C 197.988281 252.40625 198.796875 253.621094 199.671875 254.832031 L 221.503906 233 C 212.476562 226.332031 201.425781 222.894531 190.105469 223.367188 Z M 190.105469 223.367188 " fill-opacity="1" fill-rule="nonzero"/><g clip-path="url(#c7d51653b8)"><path fill="#181a99" d="M 255.871094 292.703125 C 255.871094 292.636719 255.871094 292.636719 255.871094 292.703125 C 257.152344 280.304688 253.78125 267.90625 246.503906 257.933594 L 228.511719 275.925781 C 229.457031 278.957031 230.0625 282.125 230.199219 285.359375 C 230.199219 286.03125 230.265625 286.707031 230.265625 287.445312 C 230.265625 297.6875 226.289062 307.257812 219.078125 314.535156 L 195.496094 338.117188 C 188.015625 345.597656 178.246094 349.304688 168.410156 349.304688 C 158.636719 349.304688 148.800781 345.597656 141.320312 338.117188 C 134.109375 330.90625 130.136719 321.273438 130.136719 311.03125 C 130.136719 300.789062 134.109375 291.21875 141.320312 283.941406 L 158.234375 267.03125 C 153.449219 261.167969 149.675781 254.496094 147.117188 247.355469 L 118.949219 275.519531 C 99.410156 295.0625 99.410156 326.863281 118.949219 346.40625 L 132.964844 360.421875 C 142.398438 369.855469 155 375.109375 168.410156 375.109375 C 181.816406 375.109375 194.417969 369.921875 203.851562 360.421875 L 236.667969 327.605469 L 236.867188 327.402344 L 241.449219 322.820312 C 249.605469 314.804688 254.726562 304.089844 255.871094 292.703125 Z M 255.871094 292.703125 " fill-opacity="1" fill-rule="nonzero"/></g><path fill="#38b6ff" d="M 176.695312 289.0625 C 175.28125 290.480469 174.472656 292.367188 174.472656 294.320312 C 174.472656 296.339844 175.28125 298.160156 176.695312 299.574219 L 179.863281 302.742188 C 182.761719 305.640625 187.542969 305.640625 190.441406 302.742188 L 194.820312 298.363281 L 221.035156 272.152344 C 221.101562 272.082031 221.167969 271.949219 221.304688 271.882812 L 244.011719 249.171875 L 248.726562 244.457031 C 251.625 241.558594 251.625 236.773438 248.726562 233.878906 L 245.5625 230.710938 C 242.664062 227.8125 237.878906 227.8125 234.980469 230.710938 L 230.265625 235.425781 L 181.144531 284.550781 Z M 176.695312 289.0625 " fill-opacity="1" fill-rule="nonzero"/><path fill="#38b6ff" d="M 287.875 177.882812 L 283.429688 182.332031 C 280.53125 185.226562 280.53125 190.011719 283.429688 192.910156 L 286.597656 196.078125 C 288.011719 197.492188 289.898438 198.234375 291.851562 198.234375 C 293.875 198.234375 295.761719 197.425781 297.109375 196.078125 L 301.824219 191.359375 L 355.324219 137.859375 C 358.222656 134.960938 358.222656 130.175781 355.324219 127.28125 L 352.160156 124.113281 C 350.675781 122.628906 348.789062 121.957031 346.902344 121.957031 C 345.015625 121.957031 343.0625 122.699219 341.648438 124.113281 L 337.269531 128.492188 L 311.054688 154.703125 L 310.855469 154.90625 L 288.144531 177.613281 Z M 287.875 177.882812 " fill-opacity="1" fill-rule="nonzero"/><path fill="#181a99" d="M 328.777344 125.664062 L 319.816406 116.699219 L 318.535156 117.980469 C 312.808594 123.707031 309.640625 131.324219 309.640625 139.410156 C 309.640625 139.949219 309.640625 140.488281 309.707031 141.027344 C 309.777344 142.105469 309.910156 143.25 310.046875 144.328125 Z M 328.777344 125.664062 " fill-opacity="1" fill-rule="nonzero"/><g clip-path="url(#c33793e45c)"><path fill="#181a99" d="M 413.074219 80.382812 L 399.058594 66.367188 C 379.515625 46.824219 347.710938 46.824219 328.171875 66.367188 L 290.570312 103.964844 C 282.484375 112.050781 277.363281 122.832031 276.152344 134.152344 C 274.871094 146.550781 278.242188 158.949219 285.519531 168.921875 L 303.507812 150.929688 C 302.566406 147.898438 301.960938 144.730469 301.824219 141.496094 C 301.824219 140.824219 301.757812 140.148438 301.757812 139.410156 C 301.757812 129.167969 305.734375 119.597656 312.941406 112.320312 L 316.851562 108.414062 L 317.1875 108.074219 L 336.59375 88.804688 C 343.804688 81.59375 353.4375 77.617188 363.679688 77.617188 C 373.921875 77.617188 383.492188 81.59375 390.769531 88.804688 C 397.980469 96.015625 401.953125 105.648438 401.953125 115.890625 C 401.953125 126.132812 397.980469 135.703125 390.769531 142.980469 L 367.183594 166.5625 C 359.90625 173.707031 350.136719 177.75 340.03125 177.75 C 339.355469 177.75 338.683594 177.75 337.941406 177.679688 C 334.707031 177.480469 331.539062 176.941406 328.507812 175.996094 L 310.515625 193.988281 C 320.488281 201.265625 332.886719 204.632812 345.285156 203.355469 C 356.671875 202.140625 367.386719 197.085938 375.472656 188.933594 L 380.257812 184.148438 L 413.074219 151.335938 C 422.507812 141.902344 427.761719 129.300781 427.761719 115.890625 C 427.761719 102.484375 422.574219 89.882812 413.074219 80.382812 Z M 413.074219 80.382812 " fill-opacity="1" fill-rule="nonzero"/></g><path fill="#181a99" d="M 158.03125 143.519531 L 194.484375 143.519531 C 196.707031 143.519531 198.460938 141.765625 198.460938 139.542969 C 198.460938 137.320312 196.707031 135.566406 194.484375 135.566406 L 158.03125 135.566406 C 155.808594 135.566406 154.054688 137.320312 154.054688 139.542969 C 154.054688 141.765625 155.808594 143.519531 158.03125 143.519531 Z M 158.03125 143.519531 " fill-opacity="1" fill-rule="nonzero"/><path fill="#181a99" d="M 191.789062 121.484375 C 192.597656 122.292969 193.609375 122.628906 194.621094 122.628906 C 195.628906 122.628906 196.640625 122.226562 197.449219 121.484375 C 199 119.933594 199 117.441406 197.449219 115.890625 L 166.253906 84.695312 C 164.703125 83.144531 162.210938 83.144531 160.59375 84.695312 C 159.042969 86.242188 159.042969 88.738281 160.59375 90.355469 Z M 191.789062 121.484375 " fill-opacity="1" fill-rule="nonzero"/><path fill="#181a99" d="M 215.441406 122.5625 C 217.664062 122.5625 219.417969 120.8125 219.417969 118.585938 L 219.417969 82.132812 C 219.417969 79.910156 217.664062 78.15625 215.441406 78.15625 C 213.21875 78.15625 211.464844 79.910156 211.464844 82.132812 L 211.464844 118.585938 C 211.464844 120.742188 213.285156 122.5625 215.441406 122.5625 Z M 215.441406 122.5625 " fill-opacity="1" fill-rule="nonzero"/><path fill="#181a99" d="M 347.308594 288.390625 C 345.085938 288.390625 343.332031 290.140625 343.332031 292.367188 L 343.332031 328.820312 C 343.332031 331.042969 345.085938 332.792969 347.308594 332.792969 C 349.53125 332.792969 351.28125 331.042969 351.28125 328.820312 L 351.28125 292.367188 C 351.28125 290.210938 349.464844 288.390625 347.308594 288.390625 Z M 347.308594 288.390625 " fill-opacity="1" fill-rule="nonzero"/><path fill="#181a99" d="M 370.957031 289.46875 C 369.410156 287.917969 366.914062 287.917969 365.367188 289.46875 C 363.816406 291.019531 363.816406 293.511719 365.367188 295.128906 L 396.5625 326.324219 C 397.371094 327.132812 398.382812 327.472656 399.394531 327.472656 C 400.40625 327.472656 401.414062 327.066406 402.222656 326.324219 C 403.773438 324.777344 403.773438 322.28125 402.222656 320.734375 Z M 370.957031 289.46875 " fill-opacity="1" fill-rule="nonzero"/><path fill="#181a99" d="M 404.71875 267.433594 L 368.261719 267.433594 C 366.039062 267.433594 364.289062 269.1875 364.289062 271.410156 C 364.289062 273.632812 366.039062 275.386719 368.261719 275.386719 L 404.71875 275.386719 C 406.941406 275.386719 408.691406 273.632812 408.691406 271.410156 C 408.691406 269.1875 406.941406 267.433594 404.71875 267.433594 Z M 404.71875 267.433594 " fill-opacity="1" fill-rule="nonzero"/></svg>