<svg xmlns="http://www.w3.org/2000/svg" xmlns:xlink="http://www.w3.org/1999/xlink" width="711" zoomAndPan="magnify" viewBox="0 0 533.25 380.250002" height="507" preserveAspectRatio="xMidYMid meet" version="1.0"><defs><clipPath id="3f82909c7e"><path d="M 137 20.351562 L 400 20.351562 L 400 49 L 137 49 Z M 137 20.351562 " clip-rule="nonzero"/></clipPath><clipPath id="2cc50424e5"><path d="M 137 48 L 400 48 L 400 312 L 137 312 Z M 137 48 " clip-rule="nonzero"/></clipPath><clipPath id="34d8af548f"><path d="M 137.191406 48.617188 L 399.519531 48.617188 L 399.519531 286.570312 C 399.519531 289.792969 398.886719 292.988281 397.652344 295.96875 C 396.417969 298.949219 394.613281 301.65625 392.332031 303.9375 C 390.054688 306.214844 387.347656 308.027344 384.371094 309.257812 C 381.390625 310.492188 378.199219 311.128906 374.976562 311.128906 L 161.734375 311.128906 C 158.511719 311.128906 155.320312 310.492188 152.34375 309.257812 C 149.367188 308.027344 146.660156 306.214844 144.382812 303.9375 C 142.101562 301.65625 140.292969 298.949219 139.0625 295.96875 C 137.828125 292.988281 137.191406 289.792969 137.191406 286.570312 Z M 137.191406 48.617188 " clip-rule="nonzero"/></clipPath><linearGradient x1="2460.587613" gradientTransform="matrix(0.086183, 0, 0, 0.0862434, 73.54141, 20.351289)" y1="50.043307" x2="3016.20161" gradientUnits="userSpaceOnUse" y2="3495.165655" id="dc5b7fc13f"><stop stop-opacity="1" stop-color="rgb(85.415649%, 90.458679%, 100%)" offset="0"/><stop stop-opacity="1" stop-color="rgb(85.302734%, 90.385437%, 100%)" offset="0.015625"/><stop stop-opacity="1" stop-color="rgb(85.079956%, 90.238953%, 100%)" offset="0.03125"/><stop stop-opacity="1" stop-color="rgb(84.857178%, 90.092468%, 100%)" offset="0.046875"/><stop stop-opacity="1" stop-color="rgb(84.632874%, 89.94751%, 100%)" offset="0.0625"/><stop stop-opacity="1" stop-color="rgb(84.410095%, 89.801025%, 100%)" offset="0.078125"/><stop stop-opacity="1" stop-color="rgb(84.187317%, 89.654541%, 100%)" offset="0.09375"/><stop stop-opacity="1" stop-color="rgb(83.963013%, 89.508057%, 100%)" offset="0.109375"/><stop stop-opacity="1" stop-color="rgb(83.740234%, 89.363098%, 100%)" offset="0.125"/><stop stop-opacity="1" stop-color="rgb(83.517456%, 89.216614%, 100%)" offset="0.138877"/><stop stop-opacity="1" stop-color="rgb(83.406067%, 89.143372%, 100%)" offset="0.140625"/><stop stop-opacity="1" stop-color="rgb(83.293152%, 89.070129%, 100%)" offset="0.15625"/><stop stop-opacity="1" stop-color="rgb(83.070374%, 88.925171%, 100%)" offset="0.171875"/><stop stop-opacity="1" stop-color="rgb(82.847595%, 88.778687%, 100%)" offset="0.1875"/><stop stop-opacity="1" stop-color="rgb(82.624817%, 88.632202%, 100%)" offset="0.203125"/><stop stop-opacity="1" stop-color="rgb(82.400513%, 88.485718%, 100%)" offset="0.21875"/><stop stop-opacity="1" stop-color="rgb(82.177734%, 88.340759%, 100%)" offset="0.234375"/><stop stop-opacity="1" stop-color="rgb(81.954956%, 88.194275%, 100%)" offset="0.25"/><stop stop-opacity="1" stop-color="rgb(81.730652%, 88.047791%, 100%)" offset="0.265625"/><stop stop-opacity="1" stop-color="rgb(81.507874%, 87.902832%, 100%)" offset="0.28125"/><stop stop-opacity="1" stop-color="rgb(81.285095%, 87.756348%, 100%)" offset="0.296875"/><stop stop-opacity="1" stop-color="rgb(81.060791%, 87.609863%, 100%)" offset="0.3125"/><stop stop-opacity="1" stop-color="rgb(80.838013%, 87.463379%, 100%)" offset="0.328125"/><stop stop-opacity="1" stop-color="rgb(80.615234%, 87.31842%, 100%)" offset="0.34375"/><stop stop-opacity="1" stop-color="rgb(80.39093%, 87.171936%, 100%)" offset="0.359375"/><stop stop-opacity="1" stop-color="rgb(80.168152%, 87.025452%, 100%)" offset="0.375"/><stop stop-opacity="1" stop-color="rgb(79.945374%, 86.880493%, 100%)" offset="0.390625"/><stop stop-opacity="1" stop-color="rgb(79.721069%, 86.734009%, 100%)" offset="0.40625"/><stop stop-opacity="1" stop-color="rgb(79.498291%, 86.587524%, 100%)" offset="0.421875"/><stop stop-opacity="1" stop-color="rgb(79.275513%, 86.44104%, 100%)" offset="0.4375"/><stop stop-opacity="1" stop-color="rgb(79.052734%, 86.296082%, 100%)" offset="0.453125"/><stop stop-opacity="1" stop-color="rgb(78.82843%, 86.149597%, 100%)" offset="0.46875"/><stop stop-opacity="1" stop-color="rgb(78.605652%, 86.003113%, 100%)" offset="0.484375"/><stop stop-opacity="1" stop-color="rgb(78.382874%, 85.858154%, 100%)" offset="0.5"/><stop stop-opacity="1" stop-color="rgb(78.158569%, 85.71167%, 100%)" offset="0.515625"/><stop stop-opacity="1" stop-color="rgb(77.935791%, 85.565186%, 100%)" offset="0.53125"/><stop stop-opacity="1" stop-color="rgb(77.713013%, 85.418701%, 100%)" offset="0.546875"/><stop stop-opacity="1" stop-color="rgb(77.488708%, 85.273743%, 100%)" offset="0.5625"/><stop stop-opacity="1" stop-color="rgb(77.26593%, 85.127258%, 100%)" offset="0.578125"/><stop stop-opacity="1" stop-color="rgb(77.043152%, 84.980774%, 100%)" offset="0.59375"/><stop stop-opacity="1" stop-color="rgb(76.818848%, 84.835815%, 100%)" offset="0.609375"/><stop stop-opacity="1" stop-color="rgb(76.596069%, 84.689331%, 100%)" offset="0.625"/><stop stop-opacity="1" stop-color="rgb(76.373291%, 84.542847%, 100%)" offset="0.640625"/><stop stop-opacity="1" stop-color="rgb(76.150513%, 84.396362%, 100%)" offset="0.65625"/><stop stop-opacity="1" stop-color="rgb(75.926208%, 84.251404%, 100%)" offset="0.671875"/><stop stop-opacity="1" stop-color="rgb(75.70343%, 84.104919%, 100%)" offset="0.6875"/><stop stop-opacity="1" stop-color="rgb(75.480652%, 83.958435%, 100%)" offset="0.703125"/><stop stop-opacity="1" stop-color="rgb(75.256348%, 83.813477%, 100%)" offset="0.71875"/><stop stop-opacity="1" stop-color="rgb(75.033569%, 83.666992%, 100%)" offset="0.734375"/><stop stop-opacity="1" stop-color="rgb(74.810791%, 83.520508%, 100%)" offset="0.75"/><stop stop-opacity="1" stop-color="rgb(74.586487%, 83.374023%, 100%)" offset="0.765625"/><stop stop-opacity="1" stop-color="rgb(74.363708%, 83.229065%, 100%)" offset="0.78125"/><stop stop-opacity="1" stop-color="rgb(74.14093%, 83.082581%, 100%)" offset="0.796875"/><stop stop-opacity="1" stop-color="rgb(73.916626%, 82.936096%, 100%)" offset="0.8125"/><stop stop-opacity="1" stop-color="rgb(73.693848%, 82.791138%, 100%)" offset="0.828125"/><stop stop-opacity="1" stop-color="rgb(73.471069%, 82.644653%, 100%)" offset="0.84375"/><stop stop-opacity="1" stop-color="rgb(73.246765%, 82.498169%, 100%)" offset="0.859375"/><stop stop-opacity="1" stop-color="rgb(73.023987%, 82.351685%, 100%)" offset="0.861123"/><stop stop-opacity="1" stop-color="rgb(72.912598%, 82.279968%, 100%)" offset="0.875"/><stop stop-opacity="1" stop-color="rgb(72.801208%, 82.206726%, 100%)" offset="0.890625"/><stop stop-opacity="1" stop-color="rgb(72.57843%, 82.060242%, 100%)" offset="0.90625"/><stop stop-opacity="1" stop-color="rgb(72.354126%, 81.913757%, 100%)" offset="0.921875"/><stop stop-opacity="1" stop-color="rgb(72.131348%, 81.768799%, 100%)" offset="0.9375"/><stop stop-opacity="1" stop-color="rgb(71.908569%, 81.622314%, 100%)" offset="0.953125"/><stop stop-opacity="1" stop-color="rgb(71.684265%, 81.47583%, 100%)" offset="0.96875"/><stop stop-opacity="1" stop-color="rgb(71.461487%, 81.329346%, 100%)" offset="0.984375"/><stop stop-opacity="1" stop-color="rgb(71.238708%, 81.184387%, 100%)" offset="1"/></linearGradient><clipPath id="33adcee966"><path d="M 261 203 L 356 203 L 356 266 L 261 266 Z M 261 203 " clip-rule="nonzero"/></clipPath><clipPath id="f3873fee44"><path d="M 343.242188 265.546875 L 273.613281 265.546875 C 272.265625 265.546875 270.964844 265.054688 269.953125 264.164062 C 268.945312 263.273438 268.296875 262.042969 268.128906 260.703125 L 261.703125 209.375 C 261.605469 208.597656 261.671875 207.808594 261.902344 207.058594 C 262.136719 206.308594 262.523438 205.617188 263.042969 205.027344 C 263.558594 204.441406 264.195312 203.96875 264.914062 203.648438 C 265.625 203.324219 266.402344 203.15625 267.183594 203.15625 L 349.667969 203.15625 C 350.453125 203.15625 351.226562 203.324219 351.941406 203.648438 C 352.65625 203.96875 353.292969 204.441406 353.8125 205.027344 C 354.332031 205.617188 354.71875 206.308594 354.949219 207.058594 C 355.179688 207.808594 355.25 208.597656 355.152344 209.375 L 348.726562 260.703125 C 348.558594 262.042969 347.910156 263.273438 346.898438 264.164062 C 345.886719 265.054688 344.585938 265.546875 343.242188 265.546875 Z M 343.242188 265.546875 " clip-rule="nonzero"/></clipPath><linearGradient x1="2695.840297" gradientTransform="matrix(0.086183, 0, 0, 0.0862434, 73.54141, 20.351289)" y1="2082.523258" x2="2753.496979" gradientUnits="userSpaceOnUse" y2="2880.305655" id="fa991cc667"><stop stop-opacity="1" stop-color="rgb(100%, 100%, 100%)" offset="0"/><stop stop-opacity="1" stop-color="rgb(100%, 100%, 100%)" offset="0.03125"/><stop stop-opacity="1" stop-color="rgb(99.972534%, 99.981689%, 100%)" offset="0.046875"/><stop stop-opacity="1" stop-color="rgb(99.775696%, 99.85199%, 100%)" offset="0.0625"/><stop stop-opacity="1" stop-color="rgb(99.436951%, 99.630737%, 100%)" offset="0.078125"/><stop stop-opacity="1" stop-color="rgb(99.098206%, 99.409485%, 100%)" offset="0.09375"/><stop stop-opacity="1" stop-color="rgb(98.75946%, 99.188232%, 100%)" offset="0.0979228"/><stop stop-opacity="1" stop-color="rgb(98.590088%, 99.076843%, 100%)" offset="0.109375"/><stop stop-opacity="1" stop-color="rgb(98.420715%, 98.965454%, 100%)" offset="0.125"/><stop stop-opacity="1" stop-color="rgb(98.08197%, 98.744202%, 100%)" offset="0.140625"/><stop stop-opacity="1" stop-color="rgb(97.743225%, 98.522949%, 100%)" offset="0.15625"/><stop stop-opacity="1" stop-color="rgb(97.40448%, 98.301697%, 100%)" offset="0.171875"/><stop stop-opacity="1" stop-color="rgb(97.065735%, 98.078918%, 100%)" offset="0.1875"/><stop stop-opacity="1" stop-color="rgb(96.72699%, 97.857666%, 100%)" offset="0.203125"/><stop stop-opacity="1" stop-color="rgb(96.388245%, 97.636414%, 100%)" offset="0.21875"/><stop stop-opacity="1" stop-color="rgb(96.0495%, 97.415161%, 100%)" offset="0.234375"/><stop stop-opacity="1" stop-color="rgb(95.710754%, 97.192383%, 100%)" offset="0.25"/><stop stop-opacity="1" stop-color="rgb(95.372009%, 96.97113%, 100%)" offset="0.265625"/><stop stop-opacity="1" stop-color="rgb(95.033264%, 96.749878%, 100%)" offset="0.28125"/><stop stop-opacity="1" stop-color="rgb(94.694519%, 96.528625%, 100%)" offset="0.296875"/><stop stop-opacity="1" stop-color="rgb(94.355774%, 96.305847%, 100%)" offset="0.3125"/><stop stop-opacity="1" stop-color="rgb(94.015503%, 96.084595%, 100%)" offset="0.328125"/><stop stop-opacity="1" stop-color="rgb(93.676758%, 95.863342%, 100%)" offset="0.34375"/><stop stop-opacity="1" stop-color="rgb(93.338013%, 95.64209%, 100%)" offset="0.359375"/><stop stop-opacity="1" stop-color="rgb(92.999268%, 95.419312%, 100%)" offset="0.375"/><stop stop-opacity="1" stop-color="rgb(92.660522%, 95.198059%, 100%)" offset="0.390625"/><stop stop-opacity="1" stop-color="rgb(92.321777%, 94.976807%, 100%)" offset="0.40625"/><stop stop-opacity="1" stop-color="rgb(91.983032%, 94.754028%, 100%)" offset="0.421875"/><stop stop-opacity="1" stop-color="rgb(91.644287%, 94.532776%, 100%)" offset="0.4375"/><stop stop-opacity="1" stop-color="rgb(91.305542%, 94.311523%, 100%)" offset="0.453125"/><stop stop-opacity="1" stop-color="rgb(90.966797%, 94.090271%, 100%)" offset="0.46875"/><stop stop-opacity="1" stop-color="rgb(90.628052%, 93.867493%, 100%)" offset="0.484375"/><stop stop-opacity="1" stop-color="rgb(90.289307%, 93.64624%, 100%)" offset="0.5"/><stop stop-opacity="1" stop-color="rgb(89.950562%, 93.424988%, 100%)" offset="0.515625"/><stop stop-opacity="1" stop-color="rgb(89.611816%, 93.203735%, 100%)" offset="0.53125"/><stop stop-opacity="1" stop-color="rgb(89.273071%, 92.980957%, 100%)" offset="0.546875"/><stop stop-opacity="1" stop-color="rgb(88.934326%, 92.759705%, 100%)" offset="0.5625"/><stop stop-opacity="1" stop-color="rgb(88.595581%, 92.538452%, 100%)" offset="0.578125"/><stop stop-opacity="1" stop-color="rgb(88.256836%, 92.3172%, 100%)" offset="0.59375"/><stop stop-opacity="1" stop-color="rgb(87.918091%, 92.094421%, 100%)" offset="0.609375"/><stop stop-opacity="1" stop-color="rgb(87.579346%, 91.873169%, 100%)" offset="0.625"/><stop stop-opacity="1" stop-color="rgb(87.240601%, 91.651917%, 100%)" offset="0.640625"/><stop stop-opacity="1" stop-color="rgb(86.901855%, 91.430664%, 100%)" offset="0.65625"/><stop stop-opacity="1" stop-color="rgb(86.56311%, 91.207886%, 100%)" offset="0.671875"/><stop stop-opacity="1" stop-color="rgb(86.222839%, 90.986633%, 100%)" offset="0.6875"/><stop stop-opacity="1" stop-color="rgb(85.884094%, 90.765381%, 100%)" offset="0.703125"/><stop stop-opacity="1" stop-color="rgb(85.545349%, 90.544128%, 100%)" offset="0.71875"/><stop stop-opacity="1" stop-color="rgb(85.206604%, 90.32135%, 100%)" offset="0.734375"/><stop stop-opacity="1" stop-color="rgb(84.867859%, 90.100098%, 100%)" offset="0.75"/><stop stop-opacity="1" stop-color="rgb(84.529114%, 89.878845%, 100%)" offset="0.765625"/><stop stop-opacity="1" stop-color="rgb(84.190369%, 89.657593%, 100%)" offset="0.78125"/><stop stop-opacity="1" stop-color="rgb(83.851624%, 89.434814%, 100%)" offset="0.796875"/><stop stop-opacity="1" stop-color="rgb(83.512878%, 89.213562%, 100%)" offset="0.8125"/><stop stop-opacity="1" stop-color="rgb(83.174133%, 88.99231%, 100%)" offset="0.828125"/><stop stop-opacity="1" stop-color="rgb(82.835388%, 88.769531%, 100%)" offset="0.84375"/><stop stop-opacity="1" stop-color="rgb(82.496643%, 88.548279%, 100%)" offset="0.859375"/><stop stop-opacity="1" stop-color="rgb(82.157898%, 88.327026%, 100%)" offset="0.875"/><stop stop-opacity="1" stop-color="rgb(81.819153%, 88.105774%, 100%)" offset="0.890625"/><stop stop-opacity="1" stop-color="rgb(81.480408%, 87.882996%, 100%)" offset="0.902077"/><stop stop-opacity="1" stop-color="rgb(81.311035%, 87.773132%, 100%)" offset="0.90625"/><stop stop-opacity="1" stop-color="rgb(81.141663%, 87.661743%, 100%)" offset="0.921875"/><stop stop-opacity="1" stop-color="rgb(80.802917%, 87.440491%, 100%)" offset="0.9375"/><stop stop-opacity="1" stop-color="rgb(80.464172%, 87.219238%, 100%)" offset="0.953125"/><stop stop-opacity="1" stop-color="rgb(80.125427%, 86.99646%, 100%)" offset="0.96875"/><stop stop-opacity="1" stop-color="rgb(79.786682%, 86.775208%, 100%)" offset="0.984375"/><stop stop-opacity="1" stop-color="rgb(79.447937%, 86.553955%, 100%)" offset="1"/></linearGradient><clipPath id="d3724d8250"><path d="M 73.585938 20.351562 L 154 20.351562 L 154 114 L 73.585938 114 Z M 73.585938 20.351562 " clip-rule="nonzero"/></clipPath><clipPath id="110925796d"><path d="M 73.585938 27 L 163 27 L 163 129 L 73.585938 129 Z M 73.585938 27 " clip-rule="nonzero"/></clipPath><clipPath id="a18857daf9"><path d="M 301 189 L 449 189 L 449 358.648438 L 301 358.648438 Z M 301 189 " clip-rule="nonzero"/></clipPath><clipPath id="c555de2086"><path d="M 340 163 L 458.144531 163 L 458.144531 303 L 340 303 Z M 340 163 " clip-rule="nonzero"/></clipPath><clipPath id="532fe224f3"><path d="M 327 181 L 458.144531 181 L 458.144531 324 L 327 324 Z M 327 181 " clip-rule="nonzero"/></clipPath><clipPath id="99b8598444"><path d="M 73.585938 293 L 131 293 L 131 326 L 73.585938 326 Z M 73.585938 293 " clip-rule="nonzero"/></clipPath><clipPath id="33397be3c3"><path d="M 257 216 L 458.144531 216 L 458.144531 358.648438 L 257 358.648438 Z M 257 216 " clip-rule="nonzero"/></clipPath><clipPath id="bea0470f0a"><path d="M 170 271 L 248 271 L 248 337 L 170 337 Z M 170 271 " clip-rule="nonzero"/></clipPath><clipPath id="8a746ed220"><path d="M 176.488281 271.808594 C 187 274.8125 211.59375 280.175781 243.820312 276.476562 C 244.339844 276.402344 244.867188 276.441406 245.367188 276.59375 C 245.867188 276.742188 246.328125 277.003906 246.71875 277.347656 C 247.113281 277.695312 247.421875 278.125 247.632812 278.605469 C 247.839844 279.082031 247.941406 279.605469 247.929688 280.128906 L 247.929688 329.898438 C 247.90625 330.996094 247.496094 332.050781 246.773438 332.875 C 246.046875 333.699219 245.054688 334.242188 243.972656 334.410156 C 232.496094 335.980469 198.429688 339.335938 173.039062 328.367188 C 172.390625 328.078125 171.839844 327.605469 171.460938 327.007812 C 171.078125 326.40625 170.882812 325.707031 170.902344 324.996094 L 170.902344 276.210938 C 170.902344 273.324219 173.804688 271.039062 176.488281 271.808594 Z M 176.488281 271.808594 " clip-rule="nonzero"/></clipPath><linearGradient x1="1550.379634" gradientTransform="matrix(0.086183, 0, 0, 0.0862434, 73.54141, 20.351289)" y1="2868.58558" x2="1628.914162" gradientUnits="userSpaceOnUse" y2="3734.46808" id="c96a514e87"><stop stop-opacity="1" stop-color="rgb(100%, 100%, 100%)" offset="0"/><stop stop-opacity="1" stop-color="rgb(99.859619%, 99.908447%, 100%)" offset="0.0625"/><stop stop-opacity="1" stop-color="rgb(99.542236%, 99.699402%, 100%)" offset="0.078125"/><stop stop-opacity="1" stop-color="rgb(99.185181%, 99.465942%, 100%)" offset="0.0928925"/><stop stop-opacity="1" stop-color="rgb(99.006653%, 99.349976%, 100%)" offset="0.09375"/><stop stop-opacity="1" stop-color="rgb(98.828125%, 99.232483%, 100%)" offset="0.109375"/><stop stop-opacity="1" stop-color="rgb(98.471069%, 98.999023%, 100%)" offset="0.125"/><stop stop-opacity="1" stop-color="rgb(98.11554%, 98.765564%, 100%)" offset="0.140625"/><stop stop-opacity="1" stop-color="rgb(97.758484%, 98.532104%, 100%)" offset="0.15625"/><stop stop-opacity="1" stop-color="rgb(97.401428%, 98.298645%, 100%)" offset="0.171875"/><stop stop-opacity="1" stop-color="rgb(97.044373%, 98.065186%, 100%)" offset="0.1875"/><stop stop-opacity="1" stop-color="rgb(96.687317%, 97.831726%, 100%)" offset="0.203125"/><stop stop-opacity="1" stop-color="rgb(96.330261%, 97.598267%, 100%)" offset="0.21875"/><stop stop-opacity="1" stop-color="rgb(95.973206%, 97.364807%, 100%)" offset="0.234375"/><stop stop-opacity="1" stop-color="rgb(95.617676%, 97.131348%, 100%)" offset="0.25"/><stop stop-opacity="1" stop-color="rgb(95.26062%, 96.897888%, 100%)" offset="0.265625"/><stop stop-opacity="1" stop-color="rgb(94.903564%, 96.664429%, 100%)" offset="0.28125"/><stop stop-opacity="1" stop-color="rgb(94.546509%, 96.430969%, 100%)" offset="0.296875"/><stop stop-opacity="1" stop-color="rgb(94.189453%, 96.19751%, 100%)" offset="0.3125"/><stop stop-opacity="1" stop-color="rgb(93.832397%, 95.96405%, 100%)" offset="0.328125"/><stop stop-opacity="1" stop-color="rgb(93.476868%, 95.730591%, 100%)" offset="0.34375"/><stop stop-opacity="1" stop-color="rgb(93.119812%, 95.497131%, 100%)" offset="0.359375"/><stop stop-opacity="1" stop-color="rgb(92.762756%, 95.263672%, 100%)" offset="0.375"/><stop stop-opacity="1" stop-color="rgb(92.405701%, 95.030212%, 100%)" offset="0.390625"/><stop stop-opacity="1" stop-color="rgb(92.048645%, 94.796753%, 100%)" offset="0.40625"/><stop stop-opacity="1" stop-color="rgb(91.691589%, 94.564819%, 100%)" offset="0.421875"/><stop stop-opacity="1" stop-color="rgb(91.334534%, 94.33136%, 100%)" offset="0.4375"/><stop stop-opacity="1" stop-color="rgb(90.979004%, 94.0979%, 100%)" offset="0.453125"/><stop stop-opacity="1" stop-color="rgb(90.621948%, 93.864441%, 100%)" offset="0.46875"/><stop stop-opacity="1" stop-color="rgb(90.264893%, 93.630981%, 100%)" offset="0.484375"/><stop stop-opacity="1" stop-color="rgb(89.907837%, 93.397522%, 100%)" offset="0.5"/><stop stop-opacity="1" stop-color="rgb(89.550781%, 93.164062%, 100%)" offset="0.515625"/><stop stop-opacity="1" stop-color="rgb(89.193726%, 92.930603%, 100%)" offset="0.53125"/><stop stop-opacity="1" stop-color="rgb(88.838196%, 92.697144%, 100%)" offset="0.546875"/><stop stop-opacity="1" stop-color="rgb(88.48114%, 92.463684%, 100%)" offset="0.5625"/><stop stop-opacity="1" stop-color="rgb(88.124084%, 92.230225%, 100%)" offset="0.578125"/><stop stop-opacity="1" stop-color="rgb(87.767029%, 91.996765%, 100%)" offset="0.59375"/><stop stop-opacity="1" stop-color="rgb(87.409973%, 91.763306%, 100%)" offset="0.609375"/><stop stop-opacity="1" stop-color="rgb(87.052917%, 91.529846%, 100%)" offset="0.625"/><stop stop-opacity="1" stop-color="rgb(86.695862%, 91.296387%, 100%)" offset="0.640625"/><stop stop-opacity="1" stop-color="rgb(86.340332%, 91.062927%, 100%)" offset="0.65625"/><stop stop-opacity="1" stop-color="rgb(85.983276%, 90.829468%, 100%)" offset="0.671875"/><stop stop-opacity="1" stop-color="rgb(85.626221%, 90.596008%, 100%)" offset="0.6875"/><stop stop-opacity="1" stop-color="rgb(85.269165%, 90.362549%, 100%)" offset="0.703125"/><stop stop-opacity="1" stop-color="rgb(84.912109%, 90.129089%, 100%)" offset="0.71875"/><stop stop-opacity="1" stop-color="rgb(84.555054%, 89.89563%, 100%)" offset="0.734375"/><stop stop-opacity="1" stop-color="rgb(84.199524%, 89.66217%, 100%)" offset="0.75"/><stop stop-opacity="1" stop-color="rgb(83.842468%, 89.428711%, 100%)" offset="0.765625"/><stop stop-opacity="1" stop-color="rgb(83.485413%, 89.195251%, 100%)" offset="0.78125"/><stop stop-opacity="1" stop-color="rgb(83.128357%, 88.961792%, 100%)" offset="0.796875"/><stop stop-opacity="1" stop-color="rgb(82.771301%, 88.728333%, 100%)" offset="0.8125"/><stop stop-opacity="1" stop-color="rgb(82.414246%, 88.494873%, 100%)" offset="0.828125"/><stop stop-opacity="1" stop-color="rgb(82.05719%, 88.261414%, 100%)" offset="0.84375"/><stop stop-opacity="1" stop-color="rgb(81.70166%, 88.027954%, 100%)" offset="0.859375"/><stop stop-opacity="1" stop-color="rgb(81.344604%, 87.794495%, 100%)" offset="0.875"/><stop stop-opacity="1" stop-color="rgb(80.987549%, 87.561035%, 100%)" offset="0.890625"/><stop stop-opacity="1" stop-color="rgb(80.630493%, 87.327576%, 100%)" offset="0.90625"/><stop stop-opacity="1" stop-color="rgb(80.273438%, 87.094116%, 100%)" offset="0.907108"/><stop stop-opacity="1" stop-color="rgb(80.09491%, 86.978149%, 100%)" offset="0.921875"/><stop stop-opacity="1" stop-color="rgb(79.916382%, 86.860657%, 100%)" offset="0.9375"/><stop stop-opacity="1" stop-color="rgb(79.560852%, 86.627197%, 100%)" offset="0.953125"/><stop stop-opacity="1" stop-color="rgb(79.203796%, 86.393738%, 100%)" offset="0.96875"/><stop stop-opacity="1" stop-color="rgb(78.846741%, 86.160278%, 100%)" offset="0.984375"/><stop stop-opacity="1" stop-color="rgb(78.489685%, 85.926819%, 100%)" offset="1"/></linearGradient><clipPath id="a82beedbf4"><path d="M 352 27 L 458.144531 27 L 458.144531 154 L 352 154 Z M 352 27 " clip-rule="nonzero"/></clipPath><clipPath id="9a84e0558e"><path d="M 452.171875 28.296875 C 438.4375 38.390625 413.308594 63.839844 358.46875 72.296875 C 354.269531 72.945312 352.699219 75.933594 352.699219 79.238281 L 352.699219 148.820312 C 352.722656 149.785156 353.078125 150.710938 353.703125 151.445312 C 354.332031 152.179688 355.191406 152.675781 356.140625 152.847656 C 369.972656 155.179688 423.246094 141.582031 455.101562 114.203125 C 458.144531 111.585938 458.144531 107.199219 458.144531 106.289062 L 458.144531 31.769531 C 458.144531 28.675781 454.523438 26.570312 452.171875 28.296875 Z M 452.171875 28.296875 " clip-rule="nonzero"/></clipPath><linearGradient x1="4019.74175" gradientTransform="matrix(0.086183, 0, 0, 0.0862434, 73.54141, 20.351289)" y1="-77.555512" x2="4338.875797" gradientUnits="userSpaceOnUse" y2="1587.069182" id="efa1409df0"><stop stop-opacity="1" stop-color="rgb(85.523987%, 90.52887%, 100%)" offset="0"/><stop stop-opacity="1" stop-color="rgb(85.409546%, 90.454102%, 100%)" offset="0.015625"/><stop stop-opacity="1" stop-color="rgb(85.180664%, 90.306091%, 100%)" offset="0.03125"/><stop stop-opacity="1" stop-color="rgb(84.953308%, 90.156555%, 100%)" offset="0.046875"/><stop stop-opacity="1" stop-color="rgb(84.724426%, 90.007019%, 100%)" offset="0.0625"/><stop stop-opacity="1" stop-color="rgb(84.49707%, 89.857483%, 100%)" offset="0.078125"/><stop stop-opacity="1" stop-color="rgb(84.268188%, 89.707947%, 100%)" offset="0.09375"/><stop stop-opacity="1" stop-color="rgb(84.040833%, 89.558411%, 100%)" offset="0.109375"/><stop stop-opacity="1" stop-color="rgb(83.811951%, 89.4104%, 100%)" offset="0.125"/><stop stop-opacity="1" stop-color="rgb(83.584595%, 89.260864%, 100%)" offset="0.135919"/><stop stop-opacity="1" stop-color="rgb(83.470154%, 89.186096%, 100%)" offset="0.140625"/><stop stop-opacity="1" stop-color="rgb(83.355713%, 89.111328%, 100%)" offset="0.15625"/><stop stop-opacity="1" stop-color="rgb(83.128357%, 88.961792%, 100%)" offset="0.171875"/><stop stop-opacity="1" stop-color="rgb(82.899475%, 88.812256%, 100%)" offset="0.1875"/><stop stop-opacity="1" stop-color="rgb(82.672119%, 88.664246%, 100%)" offset="0.203125"/><stop stop-opacity="1" stop-color="rgb(82.443237%, 88.514709%, 100%)" offset="0.21875"/><stop stop-opacity="1" stop-color="rgb(82.215881%, 88.365173%, 100%)" offset="0.234375"/><stop stop-opacity="1" stop-color="rgb(81.987%, 88.215637%, 100%)" offset="0.25"/><stop stop-opacity="1" stop-color="rgb(81.759644%, 88.066101%, 100%)" offset="0.265625"/><stop stop-opacity="1" stop-color="rgb(81.530762%, 87.918091%, 100%)" offset="0.28125"/><stop stop-opacity="1" stop-color="rgb(81.303406%, 87.768555%, 100%)" offset="0.296875"/><stop stop-opacity="1" stop-color="rgb(81.074524%, 87.619019%, 100%)" offset="0.3125"/><stop stop-opacity="1" stop-color="rgb(80.847168%, 87.469482%, 100%)" offset="0.328125"/><stop stop-opacity="1" stop-color="rgb(80.618286%, 87.319946%, 100%)" offset="0.34375"/><stop stop-opacity="1" stop-color="rgb(80.39093%, 87.171936%, 100%)" offset="0.359375"/><stop stop-opacity="1" stop-color="rgb(80.162048%, 87.0224%, 100%)" offset="0.375"/><stop stop-opacity="1" stop-color="rgb(79.934692%, 86.872864%, 100%)" offset="0.390625"/><stop stop-opacity="1" stop-color="rgb(79.705811%, 86.723328%, 100%)" offset="0.40625"/><stop stop-opacity="1" stop-color="rgb(79.478455%, 86.573792%, 100%)" offset="0.421875"/><stop stop-opacity="1" stop-color="rgb(79.249573%, 86.425781%, 100%)" offset="0.4375"/><stop stop-opacity="1" stop-color="rgb(79.022217%, 86.276245%, 100%)" offset="0.453125"/><stop stop-opacity="1" stop-color="rgb(78.793335%, 86.126709%, 100%)" offset="0.46875"/><stop stop-opacity="1" stop-color="rgb(78.565979%, 85.977173%, 100%)" offset="0.484375"/><stop stop-opacity="1" stop-color="rgb(78.337097%, 85.827637%, 100%)" offset="0.5"/><stop stop-opacity="1" stop-color="rgb(78.109741%, 85.679626%, 100%)" offset="0.515625"/><stop stop-opacity="1" stop-color="rgb(77.880859%, 85.53009%, 100%)" offset="0.53125"/><stop stop-opacity="1" stop-color="rgb(77.653503%, 85.380554%, 100%)" offset="0.546875"/><stop stop-opacity="1" stop-color="rgb(77.424622%, 85.231018%, 100%)" offset="0.5625"/><stop stop-opacity="1" stop-color="rgb(77.197266%, 85.081482%, 100%)" offset="0.578125"/><stop stop-opacity="1" stop-color="rgb(76.968384%, 84.931946%, 100%)" offset="0.59375"/><stop stop-opacity="1" stop-color="rgb(76.741028%, 84.783936%, 100%)" offset="0.609375"/><stop stop-opacity="1" stop-color="rgb(76.512146%, 84.634399%, 100%)" offset="0.625"/><stop stop-opacity="1" stop-color="rgb(76.283264%, 84.484863%, 100%)" offset="0.640625"/><stop stop-opacity="1" stop-color="rgb(76.055908%, 84.335327%, 100%)" offset="0.65625"/><stop stop-opacity="1" stop-color="rgb(75.827026%, 84.185791%, 100%)" offset="0.671875"/><stop stop-opacity="1" stop-color="rgb(75.59967%, 84.037781%, 100%)" offset="0.6875"/><stop stop-opacity="1" stop-color="rgb(75.370789%, 83.888245%, 100%)" offset="0.703125"/><stop stop-opacity="1" stop-color="rgb(75.143433%, 83.738708%, 100%)" offset="0.71875"/><stop stop-opacity="1" stop-color="rgb(74.914551%, 83.589172%, 100%)" offset="0.734375"/><stop stop-opacity="1" stop-color="rgb(74.687195%, 83.439636%, 100%)" offset="0.75"/><stop stop-opacity="1" stop-color="rgb(74.458313%, 83.291626%, 100%)" offset="0.765625"/><stop stop-opacity="1" stop-color="rgb(74.230957%, 83.14209%, 100%)" offset="0.78125"/><stop stop-opacity="1" stop-color="rgb(74.002075%, 82.992554%, 100%)" offset="0.796875"/><stop stop-opacity="1" stop-color="rgb(73.774719%, 82.843018%, 100%)" offset="0.8125"/><stop stop-opacity="1" stop-color="rgb(73.545837%, 82.693481%, 100%)" offset="0.828125"/><stop stop-opacity="1" stop-color="rgb(73.318481%, 82.545471%, 100%)" offset="0.84375"/><stop stop-opacity="1" stop-color="rgb(73.0896%, 82.395935%, 100%)" offset="0.859375"/><stop stop-opacity="1" stop-color="rgb(72.862244%, 82.246399%, 100%)" offset="0.864081"/><stop stop-opacity="1" stop-color="rgb(72.747803%, 82.171631%, 100%)" offset="0.875"/><stop stop-opacity="1" stop-color="rgb(72.633362%, 82.096863%, 100%)" offset="0.890625"/><stop stop-opacity="1" stop-color="rgb(72.406006%, 81.947327%, 100%)" offset="0.90625"/><stop stop-opacity="1" stop-color="rgb(72.177124%, 81.799316%, 100%)" offset="0.921875"/><stop stop-opacity="1" stop-color="rgb(71.949768%, 81.64978%, 100%)" offset="0.9375"/><stop stop-opacity="1" stop-color="rgb(71.720886%, 81.500244%, 100%)" offset="0.953125"/><stop stop-opacity="1" stop-color="rgb(71.49353%, 81.350708%, 100%)" offset="0.96875"/><stop stop-opacity="1" stop-color="rgb(71.264648%, 81.201172%, 100%)" offset="0.984375"/><stop stop-opacity="1" stop-color="rgb(71.037292%, 81.053162%, 100%)" offset="1"/></linearGradient><clipPath id="7234e3c169"><path d="M 360 20.351562 L 458.144531 20.351562 L 458.144531 127 L 360 127 Z M 360 20.351562 " clip-rule="nonzero"/></clipPath><clipPath id="b1a6b369ee"><path d="M 360 20.351562 L 458.144531 20.351562 L 458.144531 143 L 360 143 Z M 360 20.351562 " clip-rule="nonzero"/></clipPath><clipPath id="e4664221da"><path d="M 360 27 L 458.144531 27 L 458.144531 159 L 360 159 Z M 360 27 " clip-rule="nonzero"/></clipPath><clipPath id="359f9352de"><path d="M 360 45 L 458.144531 45 L 458.144531 177 L 360 177 Z M 360 45 " clip-rule="nonzero"/></clipPath></defs><path fill="#a3e635" d="M 373.78125 101.476562 C 370.402344 126.402344 379.203125 152.691406 396.90625 170.5625 C 402.28125 175.988281 408.679688 180.785156 416.136719 182.417969 C 423.597656 184.054688 432.253906 181.890625 436.6875 175.671875 C 442.097656 168.085938 439.746094 157.4375 435.449219 149.167969 C 431.152344 140.902344 425.074219 133.316406 423.175781 124.195312 C 421.03125 113.910156 424.550781 103.367188 428.320312 93.558594 C 432.089844 83.753906 436.234375 73.605469 435.375 63.136719 C 433.585938 41.363281 415.648438 38.035156 401.476562 50.34375 C 386.578125 63.28125 376.433594 81.917969 373.78125 101.476562 Z M 71.835938 197.328125 C 68.828125 207.617188 64.144531 217.976562 55.148438 225.300781 C 46.15625 232.625 31.984375 236.136719 20.882812 231.355469 C 12.875 227.90625 7.730469 220.800781 5.445312 213.40625 C 3.160156 206.015625 3.363281 198.25 3.582031 190.605469 C 4.40625 161.851562 5.226562 133.09375 6.046875 104.339844 C 6.359375 93.480469 7.027344 72.085938 24.46875 70.871094 C 40.34375 69.761719 53.058594 91.609375 58.753906 101.273438 C 76.070312 130.644531 81.191406 165.359375 71.835938 197.328125 Z M 99.878906 218.300781 C 109.367188 202.996094 118.636719 186.054688 118.484375 167.417969 C 118.238281 136.914062 92.839844 110.378906 97.25 80.277344 C 99.132812 67.441406 106.449219 56.191406 115.554688 48.128906 C 124.664062 40.066406 135.492188 34.847656 146.382812 30.367188 C 161.011719 24.347656 176.023438 19.5 191.269531 15.851562 C 221.441406 8.632812 287.144531 0.0117188 314.679688 18.476562 C 374.410156 58.523438 314.855469 129.773438 331.507812 167.066406 C 337.628906 180.761719 351.085938 187.8125 361.71875 197.429688 C 531.929688 351.40625 0.152344 379.101562 99.878906 218.300781 Z M 99.878906 218.300781 " fill-opacity="1" fill-rule="nonzero"/><path fill="#000000" d="M 397.929688 115.65625 C 396.269531 127.890625 397.601562 140.460938 401.519531 152.167969 C 405.4375 163.875 411.941406 174.710938 420.628906 183.480469 C 423.25 186.125 426.113281 188.613281 429.214844 190.628906 C 432.269531 192.617188 435.570312 194.148438 439.109375 194.925781 C 442.730469 195.71875 446.648438 195.558594 450.152344 194.40625 C 453.34375 193.359375 456.183594 191.488281 458.117188 188.777344 C 460.351562 185.640625 461.132812 181.894531 460.953125 178.019531 C 460.726562 173.210938 459.027344 168.199219 456.765625 163.84375 C 455.464844 161.347656 454.042969 158.96875 452.617188 156.597656 C 449.171875 150.851562 445.734375 145.109375 444.355469 138.484375 C 443.234375 133.113281 443.589844 127.703125 444.710938 122.371094 C 445.8125 117.136719 447.660156 111.972656 449.570312 107.003906 L 449.570312 106.996094 L 450.089844 105.648438 C 453.644531 96.421875 457.316406 86.894531 456.523438 77.234375 C 456.019531 71.117188 454.203125 66.570312 451.550781 63.519531 C 449.996094 61.726562 448.148438 60.445312 446.113281 59.664062 C 444.070312 58.878906 441.8125 58.59375 439.445312 58.789062 C 434.789062 59.171875 429.757812 61.429688 425.117188 65.460938 C 417.796875 71.820312 411.640625 79.582031 406.996094 88.164062 C 402.359375 96.71875 399.226562 106.078125 397.929688 115.65625 Z M 398.664062 153.125 C 394.601562 140.988281 393.222656 127.949219 394.945312 115.253906 C 396.292969 105.308594 399.539062 95.597656 404.339844 86.734375 C 409.15625 77.839844 415.542969 69.789062 423.148438 63.183594 C 428.285156 58.722656 433.929688 56.214844 439.207031 55.777344 C 442 55.550781 444.703125 55.902344 447.1875 56.859375 C 449.683594 57.816406 451.941406 59.375 453.828125 61.546875 C 456.886719 65.066406 458.972656 70.199219 459.53125 77 C 460.378906 87.320312 456.578125 97.183594 452.898438 106.734375 L 452.378906 108.082031 L 452.375 108.082031 C 450.519531 112.914062 448.722656 117.929688 447.660156 122.984375 C 446.617188 127.949219 446.28125 132.957031 447.304688 137.871094 C 448.582031 144.003906 451.890625 149.523438 455.203125 155.050781 C 456.679688 157.515625 458.160156 159.984375 459.441406 162.453125 C 461.878906 167.140625 463.710938 172.589844 463.960938 177.890625 C 464.171875 182.394531 463.238281 186.785156 460.570312 190.527344 C 458.238281 193.796875 454.859375 196.035156 451.085938 197.273438 C 447.070312 198.589844 442.597656 198.777344 438.472656 197.875 C 434.554688 197.015625 430.925781 195.332031 427.574219 193.15625 C 424.269531 191.007812 421.246094 188.382812 418.492188 185.601562 C 409.476562 176.503906 402.726562 165.261719 398.664062 153.125 Z M 95.9375 211.730469 C 94.402344 216.972656 92.4375 222.238281 89.707031 227.136719 C 86.949219 232.085938 83.410156 236.65625 78.753906 240.449219 C 73.878906 244.417969 67.554688 247.3125 60.988281 248.472656 C 54.886719 249.550781 48.554688 249.140625 42.9375 246.722656 C 38.925781 244.996094 35.59375 242.394531 32.9375 239.308594 C 30.011719 235.910156 27.917969 231.910156 26.660156 227.832031 C 25.476562 224 24.9375 220.09375 24.726562 216.160156 C 24.515625 212.296875 24.621094 208.40625 24.730469 204.546875 L 27.195312 118.28125 C 27.355469 112.753906 27.605469 104.546875 30.066406 97.472656 C 32.632812 90.09375 37.535156 84.007812 47.019531 83.347656 C 63.664062 82.1875 76.617188 104.160156 82.542969 114.210938 L 82.707031 114.492188 C 91.527344 129.457031 97.222656 145.800781 99.492188 162.464844 C 101.730469 178.902344 100.640625 195.65625 95.9375 211.730469 Z M 87.074219 225.675781 C 89.6875 220.992188 91.570312 215.9375 93.046875 210.890625 C 97.628906 195.230469 98.691406 178.894531 96.507812 162.867188 C 94.289062 146.59375 88.730469 130.636719 80.109375 116.015625 L 79.945312 115.734375 C 74.320312 106.1875 62.023438 85.324219 47.222656 86.355469 C 39.265625 86.910156 35.113281 92.128906 32.910156 98.464844 C 30.597656 105.105469 30.359375 113.027344 30.207031 118.363281 L 27.742188 204.628906 C 27.632812 208.410156 27.527344 212.226562 27.734375 216.003906 C 27.933594 219.710938 28.4375 223.382812 29.539062 226.945312 C 30.679688 230.648438 32.578125 234.269531 35.226562 237.351562 C 37.589844 240.097656 40.558594 242.410156 44.132812 243.949219 C 49.171875 246.121094 54.910156 246.480469 60.46875 245.5 C 66.539062 244.425781 72.371094 241.761719 76.851562 238.113281 C 81.1875 234.582031 84.492188 230.308594 87.074219 225.675781 Z M 121.25 231.492188 C 125.960938 223.898438 130.613281 215.902344 134.058594 207.519531 C 137.472656 199.207031 139.707031 190.503906 139.636719 181.410156 C 139.523438 167.636719 134.113281 154.539062 128.742188 141.546875 C 122.332031 126.03125 115.976562 110.660156 118.414062 94.039062 C 119.335938 87.726562 121.539062 81.785156 124.605469 76.398438 C 127.949219 70.519531 132.332031 65.304688 137.210938 60.984375 C 141.863281 56.867188 146.9375 53.484375 152.226562 50.5625 C 157.476562 47.667969 162.960938 45.21875 168.464844 42.957031 C 175.808594 39.933594 183.25 37.207031 190.761719 34.777344 C 198.277344 32.34375 205.890625 30.207031 213.574219 28.367188 C 231.410156 24.101562 261.605469 19.347656 289.082031 19.933594 C 308.476562 20.347656 326.566406 23.425781 338.171875 31.207031 C 376.179688 56.691406 367.078125 94.1875 358.859375 128.03125 C 353.992188 148.070312 349.449219 166.796875 355.539062 180.433594 C 359.800781 189.976562 367.894531 196.285156 375.984375 202.59375 C 379.179688 205.082031 382.371094 207.570312 385.382812 210.292969 C 425.59375 246.671875 427.265625 276.296875 407.371094 298.292969 C 384.804688 323.238281 334.011719 337.988281 280.644531 341.351562 C 227.347656 344.707031 171.363281 336.730469 138.300781 316.226562 C 108.875 297.980469 97.367188 270 121.25 231.492188 Z M 136.84375 208.664062 C 133.320312 217.234375 128.59375 225.363281 123.8125 233.070312 C 101.066406 269.746094 111.957031 296.347656 139.882812 313.667969 C 172.402344 333.835938 227.707031 341.664062 280.457031 338.34375 C 333.128906 335.023438 383.128906 320.605469 405.140625 296.273438 C 423.851562 275.589844 421.972656 247.449219 383.363281 212.523438 C 380.457031 209.894531 377.292969 207.429688 374.132812 204.964844 C 365.746094 198.425781 357.359375 191.886719 352.789062 181.664062 C 346.28125 167.085938 350.941406 147.878906 355.933594 127.324219 C 363.917969 94.445312 372.761719 58.023438 336.496094 33.710938 C 325.425781 26.285156 307.898438 23.34375 289.023438 22.941406 C 261.828125 22.363281 231.933594 27.070312 214.269531 31.292969 C 206.695312 33.105469 199.15625 35.226562 191.683594 37.644531 C 184.238281 40.050781 176.875 42.75 169.609375 45.742188 C 164.21875 47.957031 158.84375 50.359375 153.679688 53.207031 C 148.554688 56.035156 143.660156 59.292969 139.203125 63.238281 C 134.566406 67.34375 130.402344 72.300781 127.222656 77.882812 C 124.335938 82.953125 122.265625 88.542969 121.398438 94.476562 C 119.082031 110.285156 125.273438 125.273438 131.527344 140.402344 C 137.003906 153.660156 142.527344 167.019531 142.644531 181.386719 C 142.71875 190.933594 140.394531 200.015625 136.84375 208.664062 Z M 136.84375 208.664062 " fill-opacity="1" fill-rule="nonzero"/><g clip-path="url(#3f82909c7e)"><path fill="#1c85e8" d="M 150.617188 20.351562 L 386.09375 20.351562 C 389.65625 20.351562 393.070312 21.765625 395.589844 24.285156 C 398.105469 26.804688 399.519531 30.222656 399.519531 33.785156 L 399.519531 48.617188 L 137.191406 48.617188 L 137.191406 33.785156 C 137.191406 30.222656 138.609375 26.804688 141.125 24.285156 C 143.644531 21.765625 147.058594 20.351562 150.617188 20.351562 Z M 150.617188 20.351562 " fill-opacity="1" fill-rule="nonzero"/></g><g clip-path="url(#2cc50424e5)"><g clip-path="url(#34d8af548f)"><path fill="url(#dc5b7fc13f)" d="M 137.191406 48.617188 L 137.191406 311.128906 L 399.519531 311.128906 L 399.519531 48.617188 Z M 137.191406 48.617188 " fill-rule="nonzero"/></g></g><path fill="#ffccb3" d="M 308.589844 217.410156 L 236.636719 217.410156 L 236.636719 252.378906 L 308.589844 252.378906 Z M 308.589844 217.410156 " fill-opacity="1" fill-rule="nonzero"/><path fill="#1f2d49" d="M 236.214844 238.96875 C 227.777344 247.277344 224.457031 288.195312 224.898438 311.128906 L 325.347656 311.128906 C 325.347656 311.128906 325.167969 261.117188 317.554688 244.265625 C 310.550781 228.769531 298.910156 251.628906 236.214844 238.96875 Z M 236.214844 238.96875 " fill-opacity="1" fill-rule="nonzero"/><path fill="#1c85e8" d="M 252.816406 141.496094 C 252.816406 141.496094 265.742188 156.011719 261.441406 160.667969 C 252.929688 170.238281 230.289062 188.222656 222.871094 194.175781 C 222.550781 194.421875 222.183594 194.601562 221.792969 194.703125 C 221.40625 194.808594 220.996094 194.832031 220.597656 194.777344 C 220.199219 194.722656 219.8125 194.589844 219.464844 194.386719 C 219.117188 194.179688 218.8125 193.910156 218.570312 193.585938 L 201.027344 170.507812 C 200.34375 169.617188 200.023438 168.5 200.132812 167.382812 C 200.246094 166.265625 200.78125 165.234375 201.628906 164.5 L 235.609375 135.175781 Z M 252.816406 141.496094 " fill-opacity="1" fill-rule="nonzero"/><path fill="#0e66af" d="M 232.414062 159.949219 C 232.414062 159.949219 216.308594 169.53125 214.859375 188.777344 L 218.066406 192.902344 C 218.066406 192.902344 220.078125 196.414062 222.871094 194.175781 C 225.660156 191.9375 238.574219 181.589844 238.574219 181.589844 Z M 232.414062 159.949219 " fill-opacity="1" fill-rule="nonzero"/><path fill="#1c85e8" d="M 247.472656 167.246094 C 257.519531 167.246094 265.664062 159.097656 265.664062 149.042969 C 265.664062 138.992188 257.519531 130.839844 247.472656 130.839844 C 237.429688 130.839844 229.285156 138.992188 229.285156 149.042969 C 229.285156 159.097656 237.429688 167.246094 247.472656 167.246094 Z M 247.472656 167.246094 " fill-opacity="1" fill-rule="nonzero"/><path fill="#ffccb3" d="M 200.105469 206.105469 L 184.210938 185.042969 L 199.257812 173.351562 L 201.617188 171.449219 L 218.105469 193.03125 L 215.234375 195.097656 Z M 200.105469 206.105469 " fill-opacity="1" fill-rule="nonzero"/><path fill="#ff967c" d="M 215.234375 195.097656 C 210.976562 189.390625 202.96875 178.242188 199.257812 173.351562 L 201.617188 171.449219 L 218.066406 192.902344 Z M 215.234375 195.097656 " fill-opacity="1" fill-rule="nonzero"/><path fill="#ffccb3" d="M 191.917969 209.027344 C 199.210938 209.027344 205.121094 203.109375 205.121094 195.8125 C 205.121094 188.515625 199.210938 182.597656 191.917969 182.597656 C 184.625 182.597656 178.710938 188.515625 178.710938 195.8125 C 178.710938 203.109375 184.625 209.027344 191.917969 209.027344 Z M 191.917969 209.027344 " fill-opacity="1" fill-rule="nonzero"/><path fill="#ffccb3" d="M 203.097656 188.703125 C 203.097656 188.703125 160.5 126.105469 158.53125 120.789062 C 156.617188 115.597656 146.554688 128.089844 146.554688 128.089844 L 179.523438 200.066406 Z M 203.097656 188.703125 " fill-opacity="1" fill-rule="nonzero"/><path fill="#ffccb3" d="M 261.738281 101.40625 L 256.621094 137.132812 C 256.621094 137.132812 255.277344 141.875 261.242188 142.59375 C 267.207031 143.308594 279.929688 141.707031 284.472656 136.863281 C 289.015625 132.015625 287.425781 129.617188 287.425781 129.617188 L 277.789062 90.839844 Z M 261.738281 101.40625 " fill-opacity="1" fill-rule="nonzero"/><path fill="#ff967c" d="M 261.027344 106.027344 L 273.554688 101.601562 L 258.035156 124.617188 Z M 261.027344 106.027344 " fill-opacity="1" fill-rule="nonzero"/><path fill="#ffccb3" d="M 247.566406 57.277344 C 247.566406 57.277344 236.820312 82.542969 242.421875 99.863281 C 246.074219 111.15625 254.027344 113.1875 272.246094 104.722656 C 288.949219 96.960938 293.285156 91.089844 293.285156 91.089844 L 295.75 62.925781 C 295.75 62.925781 258.480469 34.753906 247.566406 57.277344 Z M 247.566406 57.277344 " fill-opacity="1" fill-rule="nonzero"/><path fill="#1c85e8" d="M 256.53125 126.859375 C 256.53125 126.859375 242.761719 130.6875 239.96875 132.925781 C 237.175781 135.160156 232.75 146.601562 232.75 159.695312 C 232.75 178.261719 235.300781 188.226562 235.300781 199.757812 C 235.300781 211.289062 229.234375 255.261719 229.234375 255.261719 L 318.539062 255.261719 C 316.253906 211.214844 318.539062 132.535156 318.539062 132.535156 L 284.503906 124.6875 C 276.828125 126.011719 256.53125 126.859375 256.53125 126.859375 Z M 256.53125 126.859375 " fill-opacity="1" fill-rule="nonzero"/><path fill="#0e66af" d="M 302.042969 149.042969 C 302.042969 149.042969 290.171875 156.894531 293.671875 164.820312 C 297.601562 173.726562 293.671875 183.539062 293.671875 197.21875 C 292.316406 201.324219 291.535156 205.230469 291.535156 208.554688 C 291.535156 211.875 289.707031 208.699219 289.707031 218.347656 C 289.707031 225.214844 311.273438 231.167969 310.710938 225.621094 C 306.960938 188.496094 322.550781 164.988281 302.042969 149.042969 Z M 302.042969 149.042969 " fill-opacity="1" fill-rule="nonzero"/><path fill="#ffccb3" d="M 343.144531 220.066406 L 316.855469 222.222656 L 312.367188 203.15625 L 306.960938 188.496094 L 334.628906 185.183594 L 338.085938 201.589844 Z M 343.144531 220.066406 " fill-opacity="1" fill-rule="nonzero"/><path fill="#ff967c" d="M 335.5625 189.613281 L 336.53125 194.214844 L 309.285156 194.800781 L 307.496094 189.941406 Z M 335.5625 189.613281 " fill-opacity="1" fill-rule="nonzero"/><path fill="#1c85e8" d="M 314.015625 168.371094 C 324.058594 168.371094 332.203125 160.222656 332.203125 150.167969 C 332.203125 140.113281 324.058594 131.964844 314.015625 131.964844 C 303.96875 131.964844 295.824219 140.113281 295.824219 150.167969 C 295.824219 160.222656 303.96875 168.371094 314.015625 168.371094 Z M 314.015625 168.371094 " fill-opacity="1" fill-rule="nonzero"/><path fill="#1c85e8" d="M 310.507812 141.609375 C 310.507812 141.609375 329.675781 138.460938 331.304688 144.585938 C 334.820312 156.90625 339.144531 176.683594 340.195312 186.140625 C 340.230469 186.542969 340.1875 186.945312 340.066406 187.332031 C 339.945312 187.714844 339.746094 188.074219 339.488281 188.382812 C 339.226562 188.691406 338.910156 188.945312 338.550781 189.128906 C 338.191406 189.3125 337.800781 189.425781 337.398438 189.457031 L 308.527344 191.921875 C 307.40625 192.027344 306.292969 191.699219 305.410156 191.007812 C 304.527344 190.3125 303.941406 189.308594 303.777344 188.199219 L 295.957031 152.769531 Z M 310.507812 141.609375 " fill-opacity="1" fill-rule="nonzero"/><path fill="#080b09" d="M 254.269531 54.875 C 254.269531 54.875 254.949219 67.148438 265.339844 73.09375 C 265.339844 73.09375 268.375 82.507812 279.714844 84.722656 C 279.714844 84.722656 279.046875 76.070312 284.449219 76.160156 C 293.628906 76.316406 289.113281 90.25 282.910156 92.535156 C 278.691406 94.085938 276.152344 99.601562 282.410156 112.164062 C 296.785156 107.035156 306.890625 86.316406 302.929688 63.332031 C 299.757812 44.925781 276.953125 38.914062 272.269531 39.511719 C 272.269531 39.511719 252.8125 32.785156 242.566406 51.234375 C 233.808594 67.003906 241.988281 76.417969 241.988281 76.417969 L 246.65625 62.382812 C 246.65625 62.382812 248.605469 63.75 254.269531 54.875 Z M 254.269531 54.875 " fill-opacity="1" fill-rule="nonzero"/><g clip-path="url(#33adcee966)"><g clip-path="url(#f3873fee44)"><path fill="url(#fa991cc667)" d="M 261.605469 203.15625 L 261.605469 265.546875 L 355.25 265.546875 L 355.25 203.15625 Z M 261.605469 203.15625 " fill-rule="nonzero"/></g></g><path fill="#ffffff" d="M 308.589844 238.285156 C 311.289062 238.285156 313.476562 236.097656 313.476562 233.394531 C 313.476562 230.695312 311.289062 228.503906 308.589844 228.503906 C 305.890625 228.503906 303.703125 230.695312 303.703125 233.394531 C 303.703125 236.097656 305.890625 238.285156 308.589844 238.285156 Z M 308.589844 238.285156 " fill-opacity="1" fill-rule="nonzero"/><path fill="#ffccb3" d="M 148.363281 132.199219 L 144.167969 124.144531 C 144.167969 124.144531 129.332031 115.652344 127.613281 112.582031 C 125.894531 109.511719 125.21875 100.746094 128.261719 98.5 C 128.261719 98.5 116.425781 89.601562 118.441406 87.800781 C 120.449219 85.867188 143.703125 103.15625 143.703125 103.15625 C 143.703125 103.15625 140.875 90.417969 145.175781 89.820312 C 146.339844 94.757812 148.339844 99.460938 151.082031 103.726562 C 155.609375 110.734375 156.167969 117.015625 156.167969 117.015625 L 161.507812 127.265625 Z M 148.363281 132.199219 " fill-opacity="1" fill-rule="nonzero"/><path stroke-linecap="round" transform="matrix(0.086183, 0, 0, 0.0862433, 73.541411, 20.351285)" fill="none" stroke-linejoin="round" d="M 644.177885 908.768958 L 727.349379 961.173362 " stroke="#ff967c" stroke-width="13.016" stroke-opacity="1" stroke-miterlimit="4"/><path stroke-linecap="round" transform="matrix(0.086183, 0, 0, 0.0862433, 73.541411, 20.351285)" fill="none" stroke-linejoin="round" d="M 631.804143 968.737351 L 702.375268 1012.581312 " stroke="#ff967c" stroke-width="13.016" stroke-opacity="1" stroke-miterlimit="4"/><path stroke-linecap="round" transform="matrix(0.086183, 0, 0, 0.0862433, 73.541411, 20.351285)" fill="none" stroke-linejoin="round" d="M 645.492312 1033.552132 L 692.585054 1063.309862 " stroke="#ff967c" stroke-width="13.016" stroke-opacity="1" stroke-miterlimit="4"/><path fill="#ffffff" d="M 157.101562 37.902344 C 158.988281 37.902344 160.519531 36.375 160.519531 34.484375 C 160.519531 32.597656 158.988281 31.066406 157.101562 31.066406 C 155.214844 31.066406 153.683594 32.597656 153.683594 34.484375 C 153.683594 36.375 155.214844 37.902344 157.101562 37.902344 Z M 157.101562 37.902344 " fill-opacity="1" fill-rule="nonzero"/><path fill="#ffffff" d="M 170.902344 37.902344 C 172.789062 37.902344 174.316406 36.375 174.316406 34.484375 C 174.316406 32.597656 172.789062 31.066406 170.902344 31.066406 C 169.015625 31.066406 167.484375 32.597656 167.484375 34.484375 C 167.484375 36.375 169.015625 37.902344 170.902344 37.902344 Z M 170.902344 37.902344 " fill-opacity="1" fill-rule="nonzero"/><path fill="#ffffff" d="M 183.867188 37.902344 C 185.753906 37.902344 187.28125 36.375 187.28125 34.484375 C 187.28125 32.597656 185.753906 31.066406 183.867188 31.066406 C 181.980469 31.066406 180.449219 32.597656 180.449219 34.484375 C 180.449219 36.375 181.980469 37.902344 183.867188 37.902344 Z M 183.867188 37.902344 " fill-opacity="1" fill-rule="nonzero"/><path fill="#febb94" d="M 81.238281 34.066406 C 94.972656 45.789062 131.199219 72.519531 177.207031 73.792969 C 178.148438 73.824219 179.039062 74.21875 179.695312 74.894531 C 180.351562 75.570312 180.714844 76.476562 180.714844 77.417969 L 180.714844 150.367188 C 180.714844 151.296875 180.359375 152.191406 179.71875 152.867188 C 179.074219 153.539062 178.199219 153.941406 177.269531 153.988281 C 163.4375 154.675781 110.984375 154.597656 76.226562 117.359375 C 75.609375 116.691406 75.265625 115.8125 75.269531 114.898438 L 75.269531 36.828125 C 75.269531 36.136719 75.464844 35.457031 75.839844 34.875 C 76.210938 34.292969 76.742188 33.828125 77.371094 33.535156 C 78 33.246094 78.695312 33.140625 79.382812 33.234375 C 80.066406 33.328125 80.710938 33.617188 81.238281 34.066406 Z M 81.238281 34.066406 " fill-opacity="0.7" fill-rule="nonzero"/><g clip-path="url(#d3724d8250)"><path stroke-linecap="round" transform="matrix(0.086183, 0, 0, 0.0862433, 73.541411, 20.351285)" fill="none" stroke-linejoin="miter" d="M 149.772083 408.277462 C 149.772083 408.277462 275.549137 530.478915 447.467106 606.390567 " stroke="#ffffff" stroke-width="33.686001" stroke-opacity="1" stroke-miterlimit="10"/></g><g clip-path="url(#110925796d)"><path stroke-linecap="round" transform="matrix(0.086183, 0, 0, 0.0862433, 73.541411, 20.351285)" fill="none" stroke-linejoin="miter" d="M 149.772083 556.432004 C 149.772083 556.432004 324.817482 719.714524 552.530605 780.317023 " stroke="#ffffff" stroke-width="33.686001" stroke-opacity="0.4" stroke-miterlimit="10"/></g><path fill="#ffffff" d="M 84.203125 115.0625 L 84.203125 84.59375 L 94.878906 92.238281 L 94.878906 123.445312 Z M 84.203125 115.0625 " fill-opacity="1" fill-rule="nonzero"/><path fill="#ffffff" d="M 102.21875 127.375 L 102.21875 105.667969 L 112.894531 112.054688 L 112.894531 133.515625 Z M 102.21875 127.375 " fill-opacity="1" fill-rule="nonzero"/><path fill="#ffffff" d="M 147.867188 144.371094 L 147.867188 122.660156 L 137.191406 121.199219 L 137.191406 142.660156 Z M 147.867188 144.371094 " fill-opacity="1" fill-rule="nonzero"/><path fill="#ffffff" d="M 165.402344 145.300781 L 165.402344 107.289062 L 154.726562 107.289062 L 154.726562 145.054688 Z M 165.402344 145.300781 " fill-opacity="1" fill-rule="nonzero"/><path fill="#ffffff" d="M 119.707031 136.886719 L 119.707031 126.960938 L 130.382812 129.964844 L 130.382812 140.757812 Z M 119.707031 136.886719 " fill-opacity="1" fill-rule="nonzero"/><path fill="#96bafd" d="M 107.976562 185.222656 C 121.710938 195.316406 157.9375 221.65625 203.941406 217.472656 C 204.390625 217.421875 204.84375 217.464844 205.273438 217.601562 C 205.703125 217.742188 206.097656 217.96875 206.429688 218.273438 C 206.761719 218.578125 207.023438 218.949219 207.199219 219.367188 C 207.378906 219.78125 207.460938 220.230469 207.449219 220.679688 L 207.449219 293.628906 C 207.425781 294.59375 207.074219 295.523438 206.445312 296.253906 C 205.816406 296.988281 204.957031 297.484375 204.007812 297.660156 C 190.175781 299.988281 132.644531 298.839844 102.964844 269.113281 C 102.65625 268.804688 102.414062 268.4375 102.25 268.035156 C 102.085938 267.632812 102 267.203125 102.003906 266.765625 L 102.003906 188.695312 C 102.003906 185.605469 105.625 183.496094 107.976562 185.222656 Z M 107.976562 185.222656 " fill-opacity="0.7" fill-rule="nonzero"/><path fill="#ffccb3" d="M 329.0625 263.453125 C 329.0625 263.453125 332.742188 263.757812 332.191406 265.617188 C 331.632812 267.476562 328.347656 266.617188 325.347656 268.476562 C 322.347656 270.335938 310.488281 271.660156 304.5625 270.671875 C 298.640625 269.683594 296.992188 263.453125 296.992188 263.453125 C 296.992188 263.453125 296.003906 257.542969 306.46875 256.933594 C 316.933594 256.328125 321.804688 259.6875 323.625 263.328125 Z M 329.0625 263.453125 " fill-opacity="1" fill-rule="nonzero"/><path stroke-linecap="round" transform="matrix(0.086183, 0, 0, 0.0862433, 73.541411, 20.351285)" fill="none" stroke-linejoin="miter" d="M 2644.372977 2753.838786 L 2670.616189 2824.405822 " stroke="#e56441" stroke-width="10.147" stroke-opacity="1" stroke-miterlimit="4"/><path stroke-linecap="round" transform="matrix(0.086183, 0, 0, 0.0862433, 73.541411, 20.351285)" fill="none" stroke-linejoin="miter" d="M 2712.315248 2742.379569 L 2738.558461 2812.901312 " stroke="#e56441" stroke-width="10.147" stroke-opacity="1" stroke-miterlimit="4"/><path stroke-linecap="round" transform="matrix(0.086183, 0, 0, 0.0862433, 73.541411, 20.351285)" fill="none" stroke-linejoin="miter" d="M 2784.0195 2748.358291 L 2810.262713 2818.880034 " stroke="#e56441" stroke-width="10.147" stroke-opacity="1" stroke-miterlimit="4"/><g clip-path="url(#a18857daf9)"><path fill="#1c85e8" d="M 440.429688 191.160156 C 421.269531 207.511719 370.742188 244.796875 306.566406 246.578125 C 305.253906 246.617188 304.007812 247.167969 303.09375 248.109375 C 302.179688 249.054688 301.671875 250.316406 301.671875 251.628906 L 301.671875 353.386719 C 301.671875 354.683594 302.171875 355.933594 303.0625 356.871094 C 303.957031 357.8125 305.179688 358.375 306.472656 358.4375 C 325.769531 359.398438 398.9375 359.285156 447.421875 307.34375 C 448.28125 306.410156 448.765625 305.183594 448.761719 303.914062 L 448.761719 195.011719 C 448.761719 194.046875 448.480469 193.101562 447.964844 192.285156 C 447.445312 191.472656 446.703125 190.824219 445.828125 190.417969 C 444.953125 190.015625 443.976562 189.867188 443.023438 190 C 442.066406 190.128906 441.167969 190.53125 440.429688 191.160156 Z M 440.429688 191.160156 " fill-opacity="0.7" fill-rule="nonzero"/></g><g clip-path="url(#c555de2086)"><path stroke-linecap="round" transform="matrix(0.086183, 0, 0, 0.0862433, 73.541411, 20.351285)" fill="none" stroke-linejoin="miter" d="M 4172.779473 2328.217194 C 4172.779473 2328.217194 3997.326149 2498.701356 3757.556558 2604.597204 " stroke="#ffffff" stroke-width="46.988998" stroke-opacity="1" stroke-miterlimit="10"/></g><g clip-path="url(#532fe224f3)"><path stroke-linecap="round" transform="matrix(0.086183, 0, 0, 0.0862433, 73.541411, 20.351285)" fill="none" stroke-linejoin="miter" d="M 4172.779473 2534.890741 C 4172.779473 2534.890741 3928.568026 2762.625695 3610.9753 2847.188376 " stroke="#ffffff" stroke-width="46.988998" stroke-opacity="0.4" stroke-miterlimit="10"/></g><path fill="#ffffff" d="M 423.335938 158.964844 L 364.847656 158.964844 C 363.699219 158.964844 362.566406 159.195312 361.503906 159.632812 C 360.445312 160.074219 359.480469 160.714844 358.667969 161.527344 C 357.859375 162.339844 357.214844 163.304688 356.777344 164.363281 C 356.335938 165.425781 356.109375 166.5625 356.109375 167.710938 L 356.109375 185.820312 C 356.109375 186.96875 356.335938 188.105469 356.777344 189.164062 C 357.214844 190.226562 357.859375 191.191406 358.667969 192.003906 C 359.480469 192.8125 360.445312 193.457031 361.503906 193.898438 C 362.566406 194.335938 363.699219 194.5625 364.847656 194.5625 L 385.613281 194.5625 L 391.738281 200.695312 C 392.3125 201.269531 393.089844 201.589844 393.902344 201.589844 C 394.714844 201.589844 395.492188 201.269531 396.066406 200.695312 L 402.191406 194.5625 L 423.335938 194.5625 C 425.652344 194.5625 427.878906 193.640625 429.515625 192.003906 C 431.15625 190.363281 432.074219 188.136719 432.074219 185.820312 L 432.074219 167.710938 C 432.074219 165.390625 431.15625 163.167969 429.515625 161.527344 C 427.878906 159.890625 425.652344 158.964844 423.335938 158.964844 Z M 423.335938 158.964844 " fill-opacity="1" fill-rule="nonzero"/><path fill="#f4608a" d="M 380.921875 171.023438 C 380.140625 170.300781 379.117188 169.898438 378.054688 169.898438 C 376.992188 169.898438 375.96875 170.300781 375.1875 171.023438 L 374.109375 172.019531 L 373.027344 171.023438 C 372.246094 170.300781 371.222656 169.898438 370.160156 169.898438 C 369.097656 169.898438 368.074219 170.300781 367.292969 171.023438 C 366.882812 171.394531 366.550781 171.851562 366.328125 172.359375 C 366.101562 172.867188 365.984375 173.417969 365.984375 173.972656 C 365.984375 174.53125 366.101562 175.082031 366.328125 175.589844 C 366.550781 176.097656 366.882812 176.550781 367.292969 176.925781 L 374.109375 183.246094 L 380.921875 177.007812 C 381.351562 176.636719 381.699219 176.179688 381.933594 175.664062 C 382.171875 175.144531 382.292969 174.582031 382.292969 174.015625 C 382.292969 173.445312 382.171875 172.886719 381.933594 172.367188 C 381.699219 171.851562 381.351562 171.394531 380.921875 171.023438 Z M 380.921875 171.023438 " fill-opacity="1" fill-rule="nonzero"/><path fill="#1c85e8" d="M 388.53125 174.714844 C 388.589844 173.949219 388.886719 173.347656 389.417969 172.917969 C 389.949219 172.484375 390.640625 172.265625 391.488281 172.265625 C 392.054688 172.265625 392.542969 172.371094 392.949219 172.578125 C 393.367188 172.78125 393.679688 173.054688 393.886719 173.402344 C 394.101562 173.753906 394.210938 174.148438 394.210938 174.589844 C 394.210938 175.105469 394.0625 175.550781 393.761719 175.925781 C 393.46875 176.300781 393.085938 176.542969 392.613281 176.652344 L 392.613281 176.714844 C 393.152344 176.847656 393.582031 177.109375 393.898438 177.5 C 394.214844 177.890625 394.375 178.402344 394.375 179.035156 C 394.375 179.511719 394.265625 179.9375 394.046875 180.324219 C 393.832031 180.695312 393.507812 180.992188 393.074219 181.207031 C 392.640625 181.425781 392.121094 181.535156 391.515625 181.535156 C 390.632812 181.535156 389.910156 181.304688 389.34375 180.847656 C 388.777344 180.378906 388.460938 179.722656 388.394531 178.875 L 389.492188 178.875 C 389.550781 179.371094 389.753906 179.78125 390.105469 180.097656 C 390.453125 180.414062 390.921875 180.570312 391.503906 180.570312 C 392.085938 180.570312 392.527344 180.421875 392.824219 180.121094 C 393.132812 179.8125 393.289062 179.417969 393.289062 178.9375 C 393.289062 178.3125 393.078125 177.863281 392.664062 177.585938 C 392.246094 177.3125 391.617188 177.175781 390.777344 177.175781 L 390.492188 177.175781 L 390.492188 176.226562 L 390.792969 176.226562 C 391.554688 176.21875 392.136719 176.09375 392.527344 175.851562 C 392.917969 175.601562 393.113281 175.21875 393.113281 174.703125 C 393.113281 174.261719 392.96875 173.90625 392.675781 173.640625 C 392.394531 173.375 391.984375 173.242188 391.453125 173.242188 C 390.9375 173.242188 390.519531 173.375 390.203125 173.640625 C 389.886719 173.90625 389.699219 174.265625 389.644531 174.714844 Z M 397.265625 179.898438 L 395.871094 183.257812 L 395.109375 183.257812 L 396.019531 179.898438 Z M 404.128906 173.429688 L 399.753906 173.429688 L 399.753906 176.277344 C 399.945312 176.007812 400.226562 175.792969 400.601562 175.625 C 400.976562 175.453125 401.378906 175.363281 401.8125 175.363281 C 402.5 175.363281 403.066406 175.511719 403.492188 175.800781 C 403.925781 176.085938 404.234375 176.457031 404.417969 176.914062 C 404.609375 177.363281 404.703125 177.839844 404.703125 178.347656 C 404.703125 178.949219 404.59375 179.484375 404.367188 179.960938 C 404.144531 180.433594 403.800781 180.808594 403.332031 181.082031 C 402.875 181.359375 402.308594 181.496094 401.621094 181.496094 C 400.753906 181.496094 400.042969 181.269531 399.5 180.820312 C 398.964844 180.371094 398.632812 179.773438 398.519531 179.023438 L 399.625 179.023438 C 399.734375 179.496094 399.964844 179.867188 400.316406 180.136719 C 400.664062 180.402344 401.105469 180.535156 401.636719 180.535156 C 402.296875 180.535156 402.789062 180.339844 403.125 179.949219 C 403.457031 179.546875 403.617188 179.023438 403.617188 178.375 C 403.617188 177.726562 403.457031 177.226562 403.125 176.875 C 402.789062 176.515625 402.296875 176.339844 401.652344 176.339844 C 401.210938 176.339844 400.820312 176.445312 400.488281 176.664062 C 400.160156 176.871094 399.925781 177.15625 399.777344 177.523438 L 398.707031 177.523438 L 398.707031 172.429688 L 404.128906 172.429688 Z M 406.082031 180.558594 C 407.132812 179.710938 407.960938 179.015625 408.558594 178.472656 C 409.160156 177.925781 409.664062 177.355469 410.070312 176.761719 C 410.488281 176.164062 410.695312 175.578125 410.695312 175.003906 C 410.695312 174.460938 410.5625 174.035156 410.296875 173.726562 C 410.039062 173.410156 409.617188 173.253906 409.035156 173.253906 C 408.46875 173.253906 408.027344 173.433594 407.710938 173.792969 C 407.402344 174.140625 407.242188 174.609375 407.210938 175.203125 L 406.113281 175.203125 C 406.148438 174.269531 406.429688 173.550781 406.960938 173.042969 C 407.496094 172.535156 408.183594 172.277344 409.023438 172.277344 C 409.878906 172.277344 410.558594 172.515625 411.054688 172.992188 C 411.5625 173.464844 411.816406 174.121094 411.816406 174.953125 C 411.816406 175.644531 411.609375 176.316406 411.195312 176.976562 C 410.785156 177.625 410.320312 178.199219 409.796875 178.699219 C 409.273438 179.191406 408.601562 179.765625 407.785156 180.421875 L 412.078125 180.421875 L 412.078125 181.371094 L 406.082031 181.371094 Z M 418.945312 173.328125 L 415.476562 181.472656 L 414.328125 181.472656 L 417.847656 173.441406 L 413.03125 173.441406 L 413.03125 172.46875 L 418.945312 172.46875 Z M 418.945312 173.328125 " fill-opacity="1" fill-rule="nonzero"/><g clip-path="url(#99b8598444)"><path fill="#1c85e8" d="M 80.171875 325.632812 L 124.269531 325.632812 C 125.132812 325.632812 125.992188 325.464844 126.789062 325.132812 C 127.589844 324.800781 128.316406 324.3125 128.925781 323.703125 C 129.539062 323.089844 130.023438 322.363281 130.355469 321.5625 C 130.6875 320.761719 130.855469 319.90625 130.855469 319.039062 L 130.855469 305.390625 C 130.855469 304.523438 130.6875 303.664062 130.355469 302.867188 C 130.023438 302.066406 129.539062 301.339844 128.925781 300.726562 C 128.316406 300.113281 127.589844 299.628906 126.789062 299.296875 C 125.992188 298.964844 125.132812 298.796875 124.269531 298.796875 L 108.613281 298.796875 L 103.996094 294.171875 C 103.5625 293.738281 102.976562 293.496094 102.363281 293.496094 C 101.753906 293.496094 101.167969 293.738281 100.734375 294.171875 L 96.113281 298.796875 L 80.171875 298.796875 C 78.425781 298.796875 76.75 299.492188 75.515625 300.726562 C 74.277344 301.964844 73.585938 303.640625 73.585938 305.390625 L 73.585938 319.039062 C 73.585938 320.789062 74.277344 322.464844 75.515625 323.703125 C 76.75 324.9375 78.425781 325.632812 80.171875 325.632812 Z M 80.171875 325.632812 " fill-opacity="0.7" fill-rule="nonzero"/></g><path fill="#ffffff" d="M 100.945312 315.570312 C 101.742188 314.929688 102.367188 314.40625 102.820312 313.996094 C 103.269531 313.582031 103.648438 313.152344 103.957031 312.707031 C 104.269531 312.253906 104.425781 311.8125 104.425781 311.378906 C 104.425781 310.972656 104.328125 310.652344 104.125 310.417969 C 103.933594 310.179688 103.613281 310.0625 103.175781 310.0625 C 102.75 310.0625 102.417969 310.195312 102.179688 310.46875 C 101.945312 310.730469 101.820312 311.085938 101.800781 311.53125 L 100.972656 311.53125 C 101 310.828125 101.210938 310.285156 101.613281 309.902344 C 102.015625 309.519531 102.53125 309.328125 103.167969 309.328125 C 103.8125 309.328125 104.324219 309.507812 104.699219 309.863281 C 105.082031 310.222656 105.273438 310.714844 105.273438 311.34375 C 105.273438 311.863281 105.117188 312.371094 104.804688 312.867188 C 104.496094 313.359375 104.144531 313.789062 103.75 314.167969 C 103.355469 314.539062 102.851562 314.96875 102.234375 315.464844 L 105.472656 315.464844 L 105.472656 316.183594 L 100.945312 316.183594 Z M 106.253906 314.742188 L 106.253906 314.09375 L 109.558594 309.515625 L 110.582031 309.515625 L 110.582031 313.996094 L 111.523438 313.996094 L 111.523438 314.742188 L 110.582031 314.742188 L 110.582031 316.257812 L 109.734375 316.257812 L 109.734375 314.742188 Z M 109.773438 310.410156 L 107.242188 313.996094 L 109.773438 313.996094 Z M 112.359375 311.164062 C 112.402344 310.585938 112.625 310.132812 113.027344 309.808594 C 113.429688 309.480469 113.949219 309.316406 114.589844 309.316406 C 115.015625 309.316406 115.382812 309.398438 115.691406 309.554688 C 116.003906 309.703125 116.238281 309.910156 116.398438 310.175781 C 116.558594 310.4375 116.640625 310.738281 116.640625 311.070312 C 116.640625 311.457031 116.527344 311.792969 116.300781 312.078125 C 116.082031 312.359375 115.792969 312.542969 115.4375 312.625 L 115.4375 312.671875 C 115.84375 312.769531 116.167969 312.96875 116.40625 313.265625 C 116.644531 313.558594 116.761719 313.945312 116.761719 314.421875 C 116.761719 314.777344 116.683594 315.101562 116.519531 315.390625 C 116.355469 315.671875 116.109375 315.898438 115.785156 316.058594 C 115.457031 316.222656 115.066406 316.304688 114.609375 316.304688 C 113.945312 316.304688 113.398438 316.132812 112.972656 315.785156 C 112.546875 315.433594 112.308594 314.941406 112.257812 314.300781 L 113.085938 314.300781 C 113.128906 314.675781 113.28125 314.984375 113.546875 315.222656 C 113.808594 315.460938 114.160156 315.578125 114.597656 315.578125 C 115.039062 315.578125 115.371094 315.464844 115.597656 315.242188 C 115.828125 315.007812 115.945312 314.710938 115.945312 314.347656 C 115.945312 313.875 115.789062 313.535156 115.472656 313.328125 C 115.160156 313.121094 114.6875 313.019531 114.054688 313.019531 L 113.835938 313.019531 L 113.835938 312.304688 L 114.0625 312.304688 C 114.640625 312.296875 115.074219 312.203125 115.371094 312.019531 C 115.664062 311.832031 115.8125 311.542969 115.8125 311.15625 C 115.8125 310.820312 115.703125 310.554688 115.484375 310.355469 C 115.269531 310.152344 114.964844 310.050781 114.5625 310.050781 C 114.171875 310.050781 113.859375 310.152344 113.621094 310.355469 C 113.382812 310.554688 113.242188 310.824219 113.199219 311.164062 Z M 121.710938 311.070312 C 121.574219 310.371094 121.144531 310.023438 120.421875 310.023438 C 119.863281 310.023438 119.445312 310.242188 119.171875 310.675781 C 118.894531 311.101562 118.761719 311.808594 118.765625 312.792969 C 118.910156 312.464844 119.148438 312.210938 119.480469 312.03125 C 119.820312 311.839844 120.195312 311.746094 120.609375 311.746094 C 121.257812 311.746094 121.769531 311.949219 122.152344 312.351562 C 122.542969 312.75 122.738281 313.308594 122.738281 314.015625 C 122.738281 314.445312 122.652344 314.828125 122.484375 315.164062 C 122.320312 315.503906 122.070312 315.773438 121.730469 315.972656 C 121.398438 316.175781 120.992188 316.277344 120.515625 316.277344 C 119.871094 316.277344 119.367188 316.132812 119 315.84375 C 118.636719 315.554688 118.382812 315.15625 118.238281 314.648438 C 118.09375 314.140625 118.023438 313.511719 118.023438 312.765625 C 118.023438 310.460938 118.824219 309.308594 120.433594 309.308594 C 121.046875 309.308594 121.53125 309.476562 121.882812 309.808594 C 122.230469 310.140625 122.4375 310.5625 122.5 311.070312 Z M 120.433594 312.472656 C 120.160156 312.472656 119.90625 312.527344 119.667969 312.640625 C 119.429688 312.75 119.238281 312.914062 119.085938 313.140625 C 118.941406 313.359375 118.871094 313.628906 118.871094 313.949219 C 118.871094 314.429688 119.007812 314.816406 119.285156 315.117188 C 119.558594 315.414062 119.953125 315.5625 120.46875 315.5625 C 120.910156 315.5625 121.257812 315.425781 121.515625 315.15625 C 121.777344 314.878906 121.910156 314.507812 121.910156 314.046875 C 121.910156 313.554688 121.785156 313.171875 121.53125 312.898438 C 121.28125 312.613281 120.914062 312.472656 120.433594 312.472656 Z M 120.433594 312.472656 " fill-opacity="1" fill-rule="nonzero"/><g clip-path="url(#33397be3c3)"><path stroke-linecap="round" transform="matrix(0.086183, 0, 0, 0.0862433, 73.541411, 20.351285)" fill="none" stroke-linejoin="miter" d="M 2800.381849 3408.055905 C 2800.381849 3408.055905 2963.55208 3373.904721 3038.157136 3294.731949 C 3137.011102 3189.877848 3159.809609 3064.09822 3268.091188 3051.189616 C 3438.060179 3030.898196 3536.596869 3630.944471 3742.961888 3549.778792 C 3949.281581 3468.567818 3900.511811 3020.480726 4023.297411 2944.523781 C 4107.873981 2892.209964 4151.839293 3047.792615 4270.273687 3007.209775 " stroke="#ffffff" stroke-width="46.988998" stroke-opacity="1" stroke-miterlimit="10"/></g><g clip-path="url(#bea0470f0a)"><g clip-path="url(#8a746ed220)"><path fill="url(#c96a514e87)" d="M 170.882812 271.039062 L 170.882812 339.335938 L 247.941406 339.335938 L 247.941406 271.039062 Z M 170.882812 271.039062 " fill-rule="nonzero"/></g></g><path fill="#ffffff" d="M 82.199219 317.632812 L 83.640625 317.632812 C 83.910156 317.632812 84.167969 317.527344 84.355469 317.339844 C 84.546875 317.148438 84.652344 316.890625 84.652344 316.625 L 84.652344 309.972656 C 84.652344 309.703125 84.546875 309.445312 84.355469 309.257812 C 84.167969 309.066406 83.910156 308.960938 83.640625 308.960938 L 82.199219 308.960938 C 81.929688 308.960938 81.671875 309.066406 81.484375 309.257812 C 81.292969 309.445312 81.1875 309.703125 81.1875 309.972656 L 81.1875 316.625 C 81.1875 316.890625 81.292969 317.148438 81.484375 317.339844 C 81.671875 317.527344 81.929688 317.632812 82.199219 317.632812 Z M 82.199219 317.632812 " fill-opacity="1" fill-rule="nonzero"/><path fill="#ffffff" d="M 88.574219 304.765625 C 87.996094 304.765625 87.707031 305.058594 87.707031 306.503906 C 87.707031 307.878906 86.375 308.984375 85.519531 309.550781 L 85.519531 316.714844 C 86.445312 317.144531 88.296875 317.78125 91.171875 317.78125 L 92.097656 317.78125 C 92.644531 317.78125 93.171875 317.585938 93.585938 317.234375 C 94.003906 316.886719 94.28125 316.398438 94.375 315.859375 L 95.023438 312.101562 C 95.078125 311.769531 95.0625 311.429688 94.976562 311.101562 C 94.886719 310.777344 94.730469 310.476562 94.511719 310.21875 C 94.296875 309.960938 94.023438 309.753906 93.71875 309.609375 C 93.414062 309.46875 93.082031 309.394531 92.746094 309.394531 L 90.015625 309.394531 C 90.324219 308.664062 90.472656 307.875 90.449219 307.082031 C 90.449219 305.347656 89.152344 304.769531 88.574219 304.769531 Z M 88.574219 304.765625 " fill-opacity="1" fill-rule="nonzero"/><path fill="#ffffff" d="M 130.328125 259.03125 C 122.664062 256.328125 116.453125 247.917969 116.453125 240.246094 C 116.453125 232.574219 122.664062 228.550781 130.328125 231.253906 L 130.328125 222.339844 C 117.945312 217.972656 107.910156 224.476562 107.910156 236.867188 C 107.910156 249.257812 117.945312 262.84375 130.328125 267.214844 C 142.191406 271.398438 151.890625 265.605469 152.691406 254.222656 L 144.15625 251.210938 C 143.550781 258.109375 137.59375 261.59375 130.328125 259.03125 Z M 130.328125 259.03125 " fill-opacity="1" fill-rule="nonzero"/><path fill="#1c85e8" d="M 133.175781 220.496094 L 133.175781 229.410156 C 140.84375 232.117188 147.054688 240.527344 147.054688 248.195312 C 147.054688 248.597656 147.035156 248.984375 147 249.367188 L 155.539062 252.378906 C 155.574219 251.875 155.597656 251.367188 155.597656 250.84375 C 155.597656 238.453125 145.558594 224.867188 133.175781 220.496094 Z M 133.175781 220.496094 " fill-opacity="1" fill-rule="nonzero"/><path stroke-linecap="butt" transform="matrix(0.086183, 0, 0, 0.0862433, 73.541411, 20.351285)" fill="none" stroke-linejoin="miter" d="M 658.908531 2767.517377 L 658.908531 2862.406941 " stroke="#ffffff" stroke-width="11.005" stroke-opacity="1" stroke-miterlimit="10"/><path stroke-linecap="butt" transform="matrix(0.086183, 0, 0, 0.0862433, 73.541411, 20.351285)" fill="none" stroke-linejoin="miter" d="M 497.913903 2549.701666 L 398.787987 2514.780495 " stroke="#ffffff" stroke-width="11.005" stroke-opacity="1" stroke-miterlimit="10"/><path stroke-linecap="round" transform="matrix(0.086183, 0, 0, 0.0862433, 73.541411, 20.351285)" fill="none" stroke-linejoin="miter" d="M 1076.125749 2564.467297 L 1260.05486 2599.433762 " stroke="#ffffff" stroke-width="46.988998" stroke-opacity="1" stroke-miterlimit="10"/><path stroke-linecap="round" transform="matrix(0.086183, 0, 0, 0.0862433, 73.541411, 20.351285)" fill="none" stroke-linejoin="miter" d="M 1076.125749 2852.668871 L 1260.05486 2887.635336 " stroke="#ffffff" stroke-width="46.988998" stroke-opacity="0.4" stroke-miterlimit="10"/><path stroke-linecap="round" transform="matrix(0.086183, 0, 0, 0.0862433, 73.541411, 20.351285)" fill="none" stroke-linejoin="miter" d="M 1076.125749 2711.489505 L 1340.370874 2761.719828 " stroke="#ffffff" stroke-width="46.988998" stroke-opacity="1" stroke-miterlimit="10"/><g clip-path="url(#a82beedbf4)"><g clip-path="url(#9a84e0558e)"><path fill="url(#efa1409df0)" d="M 352.699219 26.570312 L 352.699219 155.179688 L 458.144531 155.179688 L 458.144531 26.570312 Z M 352.699219 26.570312 " fill-rule="nonzero"/></g></g><path fill="#ffffff" d="M 359.949219 84.695312 L 359.949219 127.734375 C 359.949219 128.109375 360.03125 128.480469 360.195312 128.816406 C 360.355469 129.152344 360.59375 129.449219 360.882812 129.683594 C 361.175781 129.921875 361.519531 130.085938 361.882812 130.171875 C 362.246094 130.253906 362.625 130.257812 362.992188 130.175781 C 370.824219 128.417969 392.015625 123.34375 405.394531 117.023438 C 405.824219 116.820312 406.183594 116.503906 406.441406 116.101562 C 406.691406 115.703125 406.824219 115.238281 406.820312 114.765625 L 406.820312 72.851562 C 406.824219 72.433594 406.71875 72.019531 406.515625 71.652344 C 406.316406 71.285156 406.03125 70.972656 405.671875 70.746094 C 405.320312 70.523438 404.921875 70.386719 404.503906 70.359375 C 404.085938 70.328125 403.667969 70.40625 403.285156 70.582031 C 395.828125 74.015625 377.90625 81.523438 362.320312 82.199219 C 361.679688 82.230469 361.074219 82.507812 360.632812 82.972656 C 360.191406 83.4375 359.949219 84.054688 359.949219 84.695312 Z M 359.949219 84.695312 " fill-opacity="1" fill-rule="nonzero"/><path fill="#1c85e8" d="M 361.886719 120.804688 L 361.886719 125.332031 C 361.886719 125.675781 361.964844 126.015625 362.117188 126.320312 C 362.269531 126.628906 362.488281 126.894531 362.761719 127.105469 C 363.035156 127.3125 363.351562 127.453125 363.6875 127.519531 C 364.023438 127.585938 364.371094 127.574219 364.699219 127.480469 L 388.140625 121.070312 C 388.511719 120.96875 388.847656 120.773438 389.121094 120.503906 C 389.394531 120.234375 389.589844 119.898438 389.695312 119.53125 C 389.800781 119.160156 389.808594 118.773438 389.71875 118.398438 C 389.628906 118.027344 389.445312 117.683594 389.1875 117.402344 L 376.617188 103.871094 C 376.390625 103.628906 376.117188 103.441406 375.808594 103.320312 C 375.5 103.195312 375.167969 103.144531 374.839844 103.167969 C 374.507812 103.1875 374.1875 103.285156 373.898438 103.445312 C 373.609375 103.609375 373.359375 103.832031 373.167969 104.105469 L 362.292969 119.519531 C 362.027344 119.898438 361.886719 120.347656 361.886719 120.804688 Z M 361.886719 120.804688 " fill-opacity="1" fill-rule="nonzero"/><path fill="#1c85e8" d="M 385.785156 110.1875 L 392.820312 117.660156 C 393.046875 117.898438 393.339844 118.066406 393.660156 118.136719 C 393.980469 118.210938 394.316406 118.1875 394.625 118.066406 C 396.703125 117.253906 401.371094 115.417969 403.734375 114.402344 C 404.027344 114.273438 404.277344 114.058594 404.460938 113.789062 C 404.636719 113.519531 404.726562 113.203125 404.726562 112.882812 L 404.726562 105.882812 C 404.726562 105.523438 404.609375 105.175781 404.402344 104.890625 L 394.511719 91.632812 C 394.332031 91.394531 394.09375 91.210938 393.820312 91.09375 C 393.546875 90.980469 393.246094 90.941406 392.953125 90.984375 C 392.660156 91.027344 392.382812 91.144531 392.148438 91.332031 C 391.917969 91.515625 391.742188 91.761719 391.636719 92.039062 L 385.441406 108.46875 C 385.332031 108.757812 385.304688 109.074219 385.367188 109.378906 C 385.425781 109.683594 385.574219 109.964844 385.785156 110.1875 Z M 385.785156 110.1875 " fill-opacity="0.6" fill-rule="nonzero"/><path fill="#febb94" d="M 379.609375 98.527344 C 381.695312 98.527344 383.386719 96.835938 383.386719 94.746094 C 383.386719 92.660156 381.695312 90.96875 379.609375 90.96875 C 377.523438 90.96875 375.832031 92.660156 375.832031 94.746094 C 375.832031 96.835938 377.523438 98.527344 379.609375 98.527344 Z M 379.609375 98.527344 " fill-opacity="1" fill-rule="nonzero"/><g clip-path="url(#7234e3c169)"><path stroke-linecap="round" transform="matrix(0.086183, 0, 0, 0.0862433, 73.541411, 20.351285)" fill="none" stroke-linejoin="miter" d="M 3993.473518 566.12478 C 4105.925003 509.100455 4214.161257 444.1045 4317.321104 371.58985 " stroke="#ffffff" stroke-width="46.988998" stroke-opacity="1" stroke-miterlimit="10"/></g><g clip-path="url(#b1a6b369ee)"><path stroke-linecap="round" transform="matrix(0.086183, 0, 0, 0.0862433, 73.541411, 20.351285)" fill="none" stroke-linejoin="miter" d="M 3993.473518 755.405682 C 3993.473518 755.405682 4067.172073 719.488057 4168.292292 658.160863 " stroke="#ffffff" stroke-width="46.988998" stroke-opacity="1" stroke-miterlimit="10"/></g><g clip-path="url(#e4664221da)"><path stroke-linecap="round" transform="matrix(0.086183, 0, 0, 0.0862433, 73.541411, 20.351285)" fill="none" stroke-linejoin="miter" d="M 3993.473518 940.474302 C 4105.925003 883.449977 4214.161257 818.454022 4317.321104 745.939372 " stroke="#ffffff" stroke-width="46.988998" stroke-opacity="1" stroke-miterlimit="10"/></g><g clip-path="url(#359f9352de)"><path stroke-linecap="round" transform="matrix(0.086183, 0, 0, 0.0862433, 73.541411, 20.351285)" fill="none" stroke-linejoin="miter" d="M 3993.473518 1148.23489 C 4105.925003 1091.210564 4214.161257 1026.21461 4317.321104 953.69996 " stroke="#ffffff" stroke-width="46.988998" stroke-opacity="1" stroke-miterlimit="10"/></g><path fill="#ffffff" d="M 365.335938 142.585938 C 367.238281 142.585938 368.785156 141.042969 368.785156 139.136719 C 368.785156 137.230469 367.238281 135.683594 365.335938 135.683594 C 363.429688 135.683594 361.886719 137.230469 361.886719 139.136719 C 361.886719 141.042969 363.429688 142.585938 365.335938 142.585938 Z M 365.335938 142.585938 " fill-opacity="1" fill-rule="nonzero"/><path fill="#ffffff" d="M 385.335938 137.003906 C 387.238281 137.003906 388.785156 135.457031 388.785156 133.550781 C 388.785156 131.644531 387.238281 130.097656 385.335938 130.097656 C 383.429688 130.097656 381.886719 131.644531 381.886719 133.550781 C 381.886719 135.457031 383.429688 137.003906 385.335938 137.003906 Z M 385.335938 137.003906 " fill-opacity="1" fill-rule="nonzero"/><path fill="#ffffff" d="M 403.375 130.835938 C 405.28125 130.835938 406.820312 129.292969 406.820312 127.382812 C 406.820312 125.476562 405.28125 123.933594 403.375 123.933594 C 401.472656 123.933594 399.925781 125.476562 399.925781 127.382812 C 399.925781 129.292969 401.472656 130.835938 403.375 130.835938 Z M 403.375 130.835938 " fill-opacity="1" fill-rule="nonzero"/></svg>