<svg xmlns="http://www.w3.org/2000/svg" xmlns:xlink="http://www.w3.org/1999/xlink" width="711" zoomAndPan="magnify" viewBox="0 0 533.25 432.749982" height="577" preserveAspectRatio="xMidYMid meet" version="1.0"><defs><clipPath id="dd424f1992"><path d="M 93.53125 58 L 462.761719 58 L 462.761719 339 L 93.53125 339 Z M 93.53125 58 " clip-rule="nonzero"/></clipPath></defs><path fill="#a3e635" d="M 183.53125 62.480469 C 158.652344 46.636719 134.535156 27.777344 107.300781 19.628906 C 100.492188 17.59375 92.402344 16.914062 83.800781 17.921875 C 46.492188 22.292969 16.28125 56.707031 8.902344 101.765625 C -0.0117188 156.171875 8.351562 214.75 32.328125 261.878906 C 59.363281 315.023438 105.777344 352.699219 156.234375 362.457031 C 228.136719 376.359375 303.433594 336.1875 373.367188 360.941406 C 401.171875 370.785156 428.449219 390.8125 456.964844 384.746094 C 479.351562 379.984375 497.839844 359.199219 508.625 334.679688 C 519.417969 310.160156 523.539062 282.128906 526.292969 254.472656 C 530.75 209.714844 532.019531 164.484375 530.089844 119.457031 C 529.347656 102.171875 528.011719 84.390625 521.507812 69.027344 C 513.914062 51.09375 499.851562 38.238281 484.570312 30.664062 C 423.027344 0.171875 353.136719 49.386719 300.640625 72.488281 C 262.445312 89.292969 220.230469 85.742188 184.183594 62.894531 C 183.964844 62.757812 183.746094 62.621094 183.53125 62.480469 Z M 183.53125 62.480469 " fill-opacity="1" fill-rule="nonzero"/><path fill="#2993fb" d="M 211.207031 334.132812 L 440.214844 334.132812 C 450.277344 334.132812 458.511719 325.886719 458.511719 315.808594 L 458.511719 80.601562 C 458.511719 70.519531 450.277344 62.277344 440.214844 62.277344 L 115.828125 62.277344 C 105.765625 62.277344 97.53125 70.519531 97.53125 80.601562 L 97.53125 315.808594 C 97.53125 325.886719 105.765625 334.132812 115.828125 334.132812 Z M 211.207031 334.132812 " fill-opacity="1" fill-rule="evenodd"/><path fill="#e7ecf9" d="M 131.777344 96.574219 L 424.265625 96.574219 L 424.265625 299.835938 L 131.777344 299.835938 Z M 131.777344 96.574219 " fill-opacity="1" fill-rule="evenodd"/><path fill="#f58acc" d="M 373.707031 174.75 L 182.339844 174.75 L 198.453125 193.917969 L 182.339844 213.082031 L 373.707031 213.082031 L 357.59375 193.917969 Z M 373.707031 174.75 " fill-opacity="1" fill-rule="evenodd"/><path fill="#f29c1f" d="M 261.429688 378.40625 L 223.820312 350.84375 L 192.835938 404.59375 L 224.984375 395.226562 L 232.957031 427.792969 Z M 261.429688 378.40625 " fill-opacity="1" fill-rule="evenodd"/><path fill="#f29c1f" d="M 294.613281 378.40625 L 332.226562 350.84375 L 363.207031 404.59375 L 331.0625 395.226562 L 323.085938 427.792969 Z M 294.613281 378.40625 " fill-opacity="1" fill-rule="evenodd"/><path fill="#ffd731" d="M 278.023438 246.910156 C 270.679688 246.910156 264.71875 254.914062 258.113281 257.117188 C 251.507812 259.320312 242.199219 256.394531 236.699219 260.433594 C 231.199219 264.472656 231.21875 274.222656 227.1875 279.730469 C 223.15625 285.238281 213.824219 288.222656 211.625 294.835938 C 209.425781 301.449219 215.039062 309.628906 215.039062 316.984375 C 215.039062 324.339844 209.425781 332.519531 211.625 339.132812 C 213.824219 345.746094 223.15625 348.730469 227.1875 354.238281 C 231.21875 359.746094 231.199219 369.496094 236.699219 373.535156 C 242.199219 377.574219 251.507812 374.648438 258.113281 376.851562 C 264.71875 379.050781 270.679688 387.058594 278.023438 387.058594 C 285.363281 387.058594 291.328125 379.054688 297.929688 376.851562 C 304.535156 374.648438 313.84375 377.574219 319.34375 373.535156 C 324.84375 369.496094 324.824219 359.746094 328.855469 354.238281 C 332.890625 348.730469 342.222656 345.746094 344.417969 339.132812 C 346.617188 332.515625 341.007812 324.339844 341.007812 316.984375 C 341.007812 309.628906 346.617188 301.449219 344.417969 294.835938 C 342.222656 288.222656 332.886719 285.238281 328.855469 279.730469 C 324.824219 274.222656 324.84375 264.472656 319.34375 260.433594 C 313.84375 256.394531 304.535156 259.320312 297.929688 257.117188 C 291.328125 254.914062 285.363281 246.910156 278.023438 246.910156 Z M 278.023438 246.910156 " fill-opacity="1" fill-rule="evenodd"/><path fill="#f29c1f" d="M 318.308594 316.984375 C 318.308594 318.304688 318.246094 319.625 318.113281 320.941406 C 317.984375 322.253906 317.792969 323.558594 317.535156 324.855469 C 317.277344 326.152344 316.957031 327.433594 316.574219 328.699219 C 316.191406 329.960938 315.746094 331.203125 315.242188 332.425781 C 314.738281 333.644531 314.175781 334.839844 313.550781 336.003906 C 312.929688 337.171875 312.253906 338.300781 311.519531 339.402344 C 310.785156 340.5 310 341.558594 309.164062 342.582031 C 308.328125 343.601562 307.441406 344.582031 306.507812 345.515625 C 305.578125 346.449219 304.601562 347.335938 303.582031 348.175781 C 302.558594 349.011719 301.5 349.800781 300.40625 350.53125 C 299.308594 351.265625 298.175781 351.945312 297.015625 352.570312 C 295.851562 353.191406 294.660156 353.757812 293.441406 354.261719 C 292.222656 354.765625 290.980469 355.210938 289.71875 355.59375 C 288.453125 355.980469 287.175781 356.300781 285.882812 356.558594 C 284.589844 356.816406 283.285156 357.007812 281.972656 357.136719 C 280.660156 357.269531 279.34375 357.332031 278.023438 357.332031 C 276.703125 357.332031 275.386719 357.269531 274.074219 357.136719 C 272.761719 357.007812 271.457031 356.816406 270.164062 356.558594 C 268.871094 356.300781 267.589844 355.980469 266.328125 355.59375 C 265.066406 355.210938 263.824219 354.765625 262.605469 354.261719 C 261.386719 353.757812 260.195312 353.191406 259.03125 352.570312 C 257.867188 351.945312 256.738281 351.265625 255.640625 350.53125 C 254.542969 349.800781 253.484375 349.011719 252.464844 348.175781 C 251.445312 347.335938 250.46875 346.449219 249.535156 345.515625 C 248.605469 344.582031 247.71875 343.601562 246.882812 342.582031 C 246.042969 341.558594 245.261719 340.5 244.527344 339.402344 C 243.792969 338.300781 243.117188 337.171875 242.496094 336.003906 C 241.871094 334.839844 241.308594 333.644531 240.804688 332.425781 C 240.300781 331.203125 239.855469 329.960938 239.472656 328.699219 C 239.089844 327.433594 238.769531 326.152344 238.511719 324.855469 C 238.253906 323.558594 238.0625 322.253906 237.929688 320.941406 C 237.800781 319.625 237.738281 318.304688 237.738281 316.984375 C 237.738281 315.664062 237.800781 314.34375 237.929688 313.03125 C 238.0625 311.714844 238.253906 310.410156 238.511719 309.113281 C 238.769531 307.816406 239.089844 306.535156 239.472656 305.273438 C 239.855469 304.007812 240.300781 302.765625 240.804688 301.542969 C 241.308594 300.324219 241.871094 299.128906 242.496094 297.964844 C 243.117188 296.800781 243.792969 295.667969 244.527344 294.570312 C 245.261719 293.46875 246.042969 292.410156 246.882812 291.386719 C 247.71875 290.367188 248.605469 289.390625 249.535156 288.453125 C 250.46875 287.519531 251.445312 286.632812 252.464844 285.796875 C 253.484375 284.957031 254.542969 284.171875 255.640625 283.4375 C 256.738281 282.703125 257.867188 282.023438 259.03125 281.402344 C 260.195312 280.777344 261.386719 280.214844 262.605469 279.707031 C 263.824219 279.203125 265.066406 278.757812 266.328125 278.375 C 267.589844 277.992188 268.871094 277.671875 270.164062 277.414062 C 271.457031 277.15625 272.761719 276.960938 274.074219 276.832031 C 275.386719 276.703125 276.703125 276.636719 278.023438 276.636719 C 279.34375 276.636719 280.660156 276.703125 281.972656 276.832031 C 283.285156 276.960938 284.589844 277.15625 285.882812 277.414062 C 287.175781 277.671875 288.453125 277.992188 289.71875 278.375 C 290.980469 278.757812 292.222656 279.203125 293.441406 279.707031 C 294.660156 280.214844 295.851562 280.777344 297.015625 281.402344 C 298.175781 282.023438 299.308594 282.703125 300.40625 283.4375 C 301.5 284.171875 302.558594 284.957031 303.582031 285.796875 C 304.601562 286.632812 305.578125 287.519531 306.507812 288.453125 C 307.441406 289.390625 308.328125 290.367188 309.164062 291.386719 C 310 292.410156 310.785156 293.46875 311.519531 294.570312 C 312.253906 295.667969 312.929688 296.800781 313.550781 297.964844 C 314.175781 299.128906 314.738281 300.324219 315.242188 301.542969 C 315.746094 302.765625 316.191406 304.007812 316.574219 305.273438 C 316.957031 306.535156 317.277344 307.816406 317.535156 309.113281 C 317.792969 310.410156 317.984375 311.714844 318.113281 313.03125 C 318.246094 314.34375 318.308594 315.664062 318.308594 316.984375 Z M 318.308594 316.984375 " fill-opacity="1" fill-rule="nonzero"/><g clip-path="url(#dd424f1992)"><path fill="#000000" d="M 440.226562 338.214844 L 344.84375 338.214844 C 342.59375 338.214844 340.769531 336.390625 340.769531 334.136719 C 340.769531 331.886719 342.59375 330.058594 344.84375 330.058594 L 440.226562 330.058594 C 448.066406 330.058594 454.445312 323.667969 454.445312 315.8125 L 454.449219 80.589844 C 454.449219 72.738281 448.066406 66.347656 440.226562 66.347656 L 115.820312 66.347656 C 107.976562 66.347656 101.597656 72.738281 101.597656 80.59375 L 101.597656 315.8125 C 101.597656 323.667969 107.976562 330.058594 115.820312 330.058594 L 211.203125 330.058594 C 213.453125 330.058594 215.277344 331.886719 215.277344 334.136719 C 215.277344 336.390625 213.453125 338.21875 211.203125 338.21875 L 115.820312 338.214844 C 103.488281 338.214844 93.453125 328.164062 93.453125 315.8125 L 93.453125 80.589844 C 93.453125 68.234375 103.484375 58.1875 115.820312 58.1875 L 440.222656 58.1875 C 452.5625 58.1875 462.59375 68.234375 462.59375 80.59375 L 462.59375 315.8125 C 462.59375 328.164062 452.5625 338.21875 440.222656 338.214844 Z M 440.226562 338.214844 " fill-opacity="1" fill-rule="evenodd"/></g><path fill="#000000" d="M 424.277344 303.914062 L 344.84375 303.914062 C 342.59375 303.914062 340.769531 302.089844 340.769531 299.835938 C 340.769531 297.582031 342.59375 295.757812 344.84375 295.757812 L 420.203125 295.753906 L 420.203125 100.640625 L 135.847656 100.640625 L 135.847656 295.753906 L 211.207031 295.753906 C 213.457031 295.753906 215.28125 297.582031 215.28125 299.835938 C 215.28125 302.089844 213.457031 303.914062 211.207031 303.914062 L 131.773438 303.914062 C 129.523438 303.914062 127.699219 302.089844 127.699219 299.835938 L 127.699219 96.570312 C 127.699219 94.308594 129.523438 92.480469 131.773438 92.480469 L 424.277344 92.480469 C 426.527344 92.480469 428.351562 94.308594 428.351562 96.570312 L 428.351562 299.835938 C 428.351562 302.089844 426.527344 303.914062 424.277344 303.914062 Z M 424.277344 303.914062 " fill-opacity="1" fill-rule="evenodd"/><path fill="#000000" d="M 191.089844 209 L 364.957031 209 L 354.480469 196.542969 C 353.203125 195.019531 353.203125 192.800781 354.480469 191.289062 L 364.957031 178.828125 L 191.089844 178.828125 L 201.566406 191.289062 C 202.84375 192.800781 202.84375 195.019531 201.566406 196.542969 Z M 373.710938 217.160156 L 182.335938 217.160156 C 180.75 217.160156 179.308594 216.242188 178.640625 214.804688 C 177.972656 213.359375 178.199219 211.667969 179.21875 210.453125 L 193.125 193.914062 L 179.21875 177.375 C 178.199219 176.160156 177.972656 174.460938 178.640625 173.027344 C 179.308594 171.589844 180.75 170.671875 182.335938 170.671875 L 373.710938 170.671875 C 375.296875 170.671875 376.738281 171.589844 377.40625 173.027344 C 378.074219 174.460938 377.847656 176.160156 376.828125 177.375 L 362.921875 193.914062 L 376.828125 210.453125 C 377.847656 211.667969 378.074219 213.359375 377.40625 214.804688 C 376.738281 216.242188 375.296875 217.160156 373.710938 217.160156 Z M 373.710938 217.160156 " fill-opacity="1" fill-rule="evenodd"/><path fill="#000000" d="M 329.644531 127.878906 L 226.402344 127.878906 C 224.152344 127.878906 222.328125 126.050781 222.328125 123.800781 C 222.332031 121.546875 224.152344 119.71875 226.402344 119.71875 L 329.644531 119.71875 C 331.894531 119.71875 333.71875 121.546875 333.71875 123.800781 C 333.71875 126.050781 331.894531 127.878906 329.644531 127.878906 Z M 329.644531 127.878906 " fill-opacity="1" fill-rule="evenodd"/><path fill="#000000" d="M 329.644531 151.589844 L 226.402344 151.589844 C 224.152344 151.589844 222.328125 149.765625 222.328125 147.511719 C 222.332031 145.257812 224.152344 143.433594 226.402344 143.433594 L 329.644531 143.433594 C 331.894531 143.433594 333.71875 145.257812 333.71875 147.511719 C 333.71875 149.761719 331.894531 151.589844 329.644531 151.589844 Z M 329.644531 151.589844 " fill-opacity="1" fill-rule="evenodd"/><path fill="#000000" d="M 278.023438 250.992188 C 275.011719 250.992188 271.820312 253.296875 268.441406 255.734375 C 265.621094 257.777344 262.703125 259.882812 259.398438 260.988281 C 255.980469 262.125 252.3125 262.144531 248.761719 262.152344 C 244.878906 262.167969 241.207031 262.1875 239.105469 263.726562 C 237.011719 265.261719 235.910156 268.738281 234.742188 272.429688 C 233.679688 275.792969 232.578125 279.269531 230.472656 282.140625 C 228.390625 284.988281 225.441406 287.089844 222.585938 289.109375 C 219.375 291.398438 216.34375 293.554688 215.488281 296.132812 C 214.628906 298.707031 215.75 302.351562 216.9375 306.210938 C 218.003906 309.675781 219.109375 313.265625 219.109375 316.988281 C 219.109375 320.710938 218.003906 324.296875 216.9375 327.773438 C 215.75 331.621094 214.628906 335.269531 215.488281 337.851562 C 216.34375 340.417969 219.375 342.578125 222.585938 344.863281 C 225.441406 346.886719 228.390625 348.984375 230.472656 351.832031 C 232.578125 354.703125 233.675781 358.179688 234.742188 361.546875 C 235.910156 365.234375 237.011719 368.710938 239.109375 370.25 C 241.207031 371.796875 244.878906 371.804688 248.765625 371.820312 C 252.3125 371.828125 255.980469 371.847656 259.398438 372.984375 C 262.703125 374.089844 265.621094 376.199219 268.445312 378.238281 C 271.820312 380.675781 275.011719 382.980469 278.023438 382.980469 C 281.035156 382.980469 284.226562 380.679688 287.605469 378.238281 C 290.425781 376.199219 293.34375 374.089844 296.648438 372.984375 C 300.066406 371.847656 303.734375 371.832031 307.28125 371.820312 C 311.167969 371.804688 314.839844 371.796875 316.941406 370.25 C 319.035156 368.710938 320.136719 365.234375 321.304688 361.546875 C 322.371094 358.179688 323.46875 354.707031 325.574219 351.832031 C 327.65625 348.984375 330.605469 346.886719 333.460938 344.863281 C 336.671875 342.578125 339.703125 340.417969 340.558594 337.851562 C 341.417969 335.269531 340.296875 331.621094 339.109375 327.773438 C 338.042969 324.296875 336.9375 320.710938 336.9375 316.988281 C 336.9375 313.265625 338.042969 309.679688 339.109375 306.210938 C 340.296875 302.351562 341.417969 298.707031 340.558594 296.132812 C 339.703125 293.554688 336.671875 291.398438 333.460938 289.121094 C 330.609375 287.089844 327.65625 284.988281 325.574219 282.140625 C 323.46875 279.269531 322.367188 275.792969 321.304688 272.429688 C 320.136719 268.738281 319.035156 265.261719 316.941406 263.726562 C 314.839844 262.1875 311.167969 262.167969 307.28125 262.152344 C 303.734375 262.144531 300.066406 262.128906 296.644531 260.988281 C 293.34375 259.882812 290.425781 257.777344 287.605469 255.734375 C 284.226562 253.296875 281.035156 250.992188 278.023438 250.992188 Z M 278.023438 391.140625 C 272.378906 391.140625 267.753906 387.800781 263.675781 384.851562 C 261.242188 383.089844 258.945312 381.433594 256.828125 380.730469 C 254.648438 379.996094 251.773438 379.988281 248.734375 379.980469 C 243.949219 379.964844 238.527344 379.9375 234.292969 376.828125 C 230.050781 373.714844 228.417969 368.558594 226.976562 364.011719 C 226.070312 361.15625 225.214844 358.453125 223.902344 356.652344 C 222.597656 354.875 220.300781 353.242188 217.871094 351.507812 C 213.925781 348.703125 209.453125 345.527344 207.757812 340.425781 C 206.074219 335.363281 207.640625 330.28125 209.152344 325.367188 C 210.082031 322.339844 210.960938 319.476562 210.960938 316.988281 C 210.960938 314.496094 210.082031 311.632812 209.152344 308.609375 C 207.640625 303.695312 206.074219 298.613281 207.757812 293.546875 C 209.457031 288.449219 213.925781 285.269531 217.871094 282.464844 C 220.300781 280.730469 222.597656 279.101562 223.902344 277.324219 C 225.214844 275.519531 226.070312 272.820312 226.976562 269.964844 C 228.417969 265.414062 230.050781 260.257812 234.292969 257.148438 C 238.527344 254.035156 243.949219 254.011719 248.734375 253.992188 C 251.773438 253.984375 254.644531 253.976562 256.828125 253.246094 C 258.945312 252.539062 261.242188 250.882812 263.675781 249.125 C 267.753906 246.175781 272.378906 242.835938 278.023438 242.835938 C 283.667969 242.835938 288.292969 246.175781 292.371094 249.125 C 294.804688 250.882812 297.101562 252.539062 299.21875 253.246094 C 301.402344 253.976562 304.273438 253.984375 307.3125 253.992188 C 312.097656 254.011719 317.519531 254.035156 321.753906 257.148438 C 325.996094 260.257812 327.628906 265.417969 329.070312 269.964844 C 329.976562 272.816406 330.832031 275.523438 332.144531 277.324219 C 333.449219 279.097656 335.746094 280.730469 338.175781 282.464844 C 342.121094 285.269531 346.59375 288.449219 348.289062 293.546875 C 349.96875 298.613281 348.40625 303.695312 346.894531 308.609375 C 345.964844 311.632812 345.085938 314.496094 345.085938 316.988281 C 345.085938 319.476562 345.964844 322.339844 346.894531 325.367188 C 348.40625 330.277344 349.96875 335.363281 348.289062 340.425781 C 346.59375 345.527344 342.121094 348.707031 338.175781 351.507812 C 335.746094 353.242188 333.449219 354.875 332.144531 356.652344 C 330.832031 358.453125 329.976562 361.15625 329.070312 364.011719 C 327.628906 368.558594 325.996094 373.71875 321.757812 376.828125 C 317.519531 379.9375 312.09375 379.964844 307.3125 379.980469 C 304.273438 379.988281 301.402344 379.996094 299.21875 380.730469 C 297.101562 381.433594 294.804688 383.089844 292.371094 384.851562 C 288.292969 387.800781 283.667969 391.140625 278.023438 391.140625 Z M 278.023438 391.140625 " fill-opacity="1" fill-rule="evenodd"/><path fill="#000000" d="M 382.527344 248.9375 L 346.769531 248.9375 C 344.519531 248.9375 342.695312 247.109375 342.695312 244.859375 C 342.695312 242.605469 344.519531 240.777344 346.769531 240.777344 L 382.527344 240.777344 C 384.777344 240.777344 386.597656 242.605469 386.597656 244.859375 C 386.597656 247.109375 384.777344 248.9375 382.527344 248.9375 Z M 382.527344 248.9375 " fill-opacity="1" fill-rule="evenodd"/><path fill="#000000" d="M 392.09375 271.128906 L 356.335938 271.128906 C 354.089844 271.128906 352.265625 269.308594 352.265625 267.046875 C 352.265625 264.796875 354.089844 262.96875 356.335938 262.96875 L 392.09375 262.96875 C 394.34375 262.96875 396.167969 264.796875 396.167969 267.046875 C 396.167969 269.308594 394.34375 271.128906 392.09375 271.128906 Z M 392.09375 271.128906 " fill-opacity="1" fill-rule="evenodd"/><path fill="#000000" d="M 209.277344 248.9375 L 173.523438 248.9375 C 171.273438 248.9375 169.449219 247.109375 169.449219 244.859375 C 169.449219 242.605469 171.273438 240.777344 173.523438 240.777344 L 209.277344 240.777344 C 211.527344 240.777344 213.351562 242.605469 213.351562 244.859375 C 213.351562 247.109375 211.527344 248.9375 209.277344 248.9375 Z M 209.277344 248.9375 " fill-opacity="1" fill-rule="evenodd"/><path fill="#000000" d="M 199.710938 271.128906 L 163.953125 271.128906 C 161.703125 271.128906 159.878906 269.308594 159.878906 267.046875 C 159.878906 264.796875 161.703125 262.96875 163.953125 262.96875 L 199.710938 262.96875 C 201.960938 262.96875 203.785156 264.796875 203.785156 267.046875 C 203.785156 269.308594 201.960938 271.128906 199.710938 271.128906 Z M 199.710938 271.128906 " fill-opacity="1" fill-rule="evenodd"/><path fill="#000000" d="M 278.023438 280.714844 C 258.054688 280.714844 241.808594 296.988281 241.808594 316.988281 C 241.808594 336.984375 258.054688 353.261719 278.023438 353.261719 C 297.992188 353.261719 314.238281 336.984375 314.238281 316.988281 C 314.238281 296.988281 297.992188 280.714844 278.023438 280.714844 Z M 278.023438 361.417969 C 253.5625 361.417969 233.664062 341.488281 233.664062 316.988281 C 233.664062 292.484375 253.5625 272.554688 278.023438 272.554688 C 302.484375 272.554688 322.382812 292.484375 322.382812 316.988281 C 322.382812 341.488281 302.484375 361.417969 278.023438 361.417969 Z M 278.023438 361.417969 " fill-opacity="1" fill-rule="evenodd"/><path fill="#000000" d="M 232.960938 431.882812 C 232.769531 431.882812 232.574219 431.867188 232.382812 431.839844 C 230.738281 431.609375 229.398438 430.394531 229 428.773438 L 222.039062 400.34375 L 193.96875 408.519531 C 192.371094 408.988281 190.652344 408.425781 189.628906 407.117188 C 188.601562 405.808594 188.472656 404.007812 189.304688 402.5625 L 220.289062 348.808594 C 221.414062 346.859375 223.90625 346.191406 225.855469 347.320312 C 227.800781 348.441406 228.46875 350.941406 227.34375 352.894531 L 201.429688 397.84375 L 223.84375 391.316406 C 224.910156 391.011719 226.058594 391.148438 227.019531 391.699219 C 227.980469 392.261719 228.671875 393.1875 228.9375 394.269531 L 234.5 416.976562 L 257.902344 376.367188 C 259.027344 374.421875 261.519531 373.75 263.464844 374.882812 C 265.414062 376.003906 266.082031 378.503906 264.957031 380.457031 L 236.484375 429.84375 C 235.75 431.117188 234.398438 431.882812 232.960938 431.882812 Z M 232.960938 431.882812 " fill-opacity="1" fill-rule="evenodd"/><path fill="#000000" d="M 323.089844 431.882812 C 321.648438 431.882812 320.296875 431.117188 319.5625 429.84375 L 291.089844 380.457031 C 289.964844 378.503906 290.632812 376.003906 292.582031 374.882812 C 294.527344 373.75 297.019531 374.421875 298.144531 376.367188 L 321.550781 416.976562 L 327.109375 394.265625 C 327.375 393.1875 328.066406 392.261719 329.03125 391.699219 C 329.992188 391.148438 331.140625 391.011719 332.203125 391.320312 L 354.621094 397.84375 L 328.703125 352.894531 C 327.578125 350.941406 328.246094 348.441406 330.195312 347.320312 C 332.140625 346.1875 334.632812 346.859375 335.757812 348.808594 L 366.742188 402.5625 C 367.574219 404.007812 367.445312 405.808594 366.421875 407.117188 C 365.394531 408.425781 363.675781 408.988281 362.078125 408.519531 L 334.007812 400.34375 L 327.046875 428.773438 C 326.648438 430.394531 325.3125 431.613281 323.664062 431.839844 C 323.472656 431.867188 323.28125 431.882812 323.089844 431.882812 Z M 323.089844 431.882812 " fill-opacity="1" fill-rule="evenodd"/></svg>