<svg xmlns="http://www.w3.org/2000/svg" xmlns:xlink="http://www.w3.org/1999/xlink" width="1072" zoomAndPan="magnify" viewBox="0 0 804 553.499988" height="738" preserveAspectRatio="xMidYMid meet" version="1.0"><defs><clipPath id="fcfe664a84"><path d="M 599 0.121094 L 706 0.121094 L 706 93 L 599 93 Z M 599 0.121094 " clip-rule="nonzero"/></clipPath><clipPath id="9c5e193c30"><path d="M 123 385 L 307 385 L 307 544.878906 L 123 544.878906 Z M 123 385 " clip-rule="nonzero"/></clipPath><clipPath id="a1d44889bb"><path d="M 615 143 L 802.886719 143 L 802.886719 306 L 615 306 Z M 615 143 " clip-rule="nonzero"/></clipPath><clipPath id="730e2e3cb9"><path d="M 0.363281 198 L 177 198 L 177 351 L 0.363281 351 Z M 0.363281 198 " clip-rule="nonzero"/></clipPath></defs><path fill="#a3e635" d="M 325.125 293.464844 L 190.542969 293.464844 L 123.25 410.238281 L 190.542969 527.011719 L 325.125 527.011719 L 392.414062 410.238281 Z M 325.125 293.464844 " fill-opacity="1" fill-rule="nonzero"/><path fill="#a3e635" d="M 689.535156 107.011719 L 554.957031 107.011719 L 487.664062 223.785156 L 554.957031 340.558594 L 689.535156 340.558594 L 756.824219 223.785156 Z M 689.535156 107.011719 " fill-opacity="1" fill-rule="nonzero"/><path fill="#a3e635" d="M 95.230469 363.683594 L 41.996094 363.683594 L 15.378906 409.871094 L 41.996094 456.0625 L 95.230469 456.0625 L 121.847656 409.871094 Z M 95.230469 363.683594 " fill-opacity="1" fill-rule="nonzero"/><path fill="#a3e635" d="M 711.898438 371.5 L 658.667969 371.5 L 632.050781 417.691406 L 658.667969 463.882812 L 711.898438 463.882812 L 738.515625 417.691406 Z M 711.898438 371.5 " fill-opacity="1" fill-rule="nonzero"/><g clip-path="url(#fcfe664a84)"><path fill="#a3e635" d="M 679.375 0.00390625 L 626.144531 0.00390625 L 599.523438 46.195312 L 626.144531 92.386719 L 679.375 92.386719 L 705.992188 46.195312 Z M 679.375 0.00390625 " fill-opacity="1" fill-rule="nonzero"/></g><g clip-path="url(#9c5e193c30)"><path fill="#000000" d="M 306.480469 465.351562 L 260.660156 544.875 L 168.988281 544.875 L 123.167969 465.351562 L 168.988281 385.832031 L 260.660156 385.832031 Z M 255.597656 536.113281 L 296.371094 465.351562 L 255.597656 394.59375 L 174.0625 394.59375 L 133.285156 465.351562 L 174.0625 536.113281 Z M 255.597656 536.113281 " fill-opacity="1" fill-rule="nonzero"/></g><path fill="#000000" d="M 428.777344 286.773438 L 382.949219 366.296875 L 291.292969 366.296875 L 245.46875 286.773438 L 291.292969 207.253906 L 382.949219 207.253906 Z M 377.890625 357.535156 L 418.664062 286.773438 L 377.890625 216.015625 L 296.351562 216.015625 L 255.578125 286.773438 L 296.351562 357.535156 Z M 377.890625 357.535156 " fill-opacity="1" fill-rule="nonzero"/><g clip-path="url(#a1d44889bb)"><path fill="#000000" d="M 802.769531 224.207031 L 755.988281 305.386719 L 662.417969 305.386719 L 615.640625 224.207031 L 662.417969 143.027344 L 755.988281 143.027344 Z M 750.929688 296.625 L 792.660156 224.207031 L 750.929688 151.785156 L 667.480469 151.785156 L 625.75 224.203125 L 667.480469 296.625 Z M 750.929688 296.625 " fill-opacity="1" fill-rule="nonzero"/></g><path fill="#ffffff" d="M 482.539062 342.824219 L 394.660156 342.824219 L 350.71875 419.078125 L 394.660156 495.332031 L 482.539062 495.332031 L 526.480469 419.078125 Z M 482.539062 342.824219 " fill-opacity="1" fill-rule="nonzero"/><g clip-path="url(#730e2e3cb9)"><path fill="#ffffff" d="M 132.574219 198.136719 L 44.691406 198.136719 L 0.75 274.390625 L 44.691406 350.644531 L 132.574219 350.644531 L 176.515625 274.390625 Z M 132.574219 198.136719 " fill-opacity="1" fill-rule="nonzero"/></g><path fill="#ffffff" d="M 610.035156 234.632812 L 522.152344 234.632812 L 478.214844 310.890625 L 522.152344 387.144531 L 610.035156 387.144531 L 653.976562 310.890625 Z M 610.035156 234.632812 " fill-opacity="1" fill-rule="nonzero"/><path fill="#ede6dd" d="M 601.890625 467.910156 C 605.300781 471.3125 607.640625 480.535156 608.890625 486.699219 C 609.644531 490.441406 610.90625 494.050781 612.632812 497.457031 C 618.3125 508.597656 628.816406 535.355469 601.292969 539.828125 C 575.171875 544.074219 575.722656 519.273438 577.667969 506.5 C 578.339844 502.097656 578.160156 497.636719 577.417969 493.25 C 576.058594 485.273438 577.117188 475.980469 577.117188 475.980469 C 577.5 466.21875 596.597656 462.609375 601.890625 467.910156 Z M 453 456.539062 C 446.410156 458.386719 430.746094 470.355469 414.457031 475.667969 C 394.746094 482.09375 389.296875 493.726562 392.597656 499.039062 C 399.34375 509.929688 431.585938 501.308594 438.570312 501.078125 C 445.558594 500.851562 470.140625 505.167969 475.21875 496.125 C 480.296875 487.085938 475.960938 469.144531 475.960938 469.144531 C 475.664062 456.671875 460.753906 454.367188 453 456.539062 Z M 453 456.539062 " fill-opacity="1" fill-rule="nonzero"/><path fill="#6e9692" d="M 582.167969 269.15625 L 526.703125 283.667969 L 488.351562 270.730469 L 508.9375 130.898438 L 537.78125 118.6875 L 580.539062 137.289062 Z M 582.167969 269.15625 " fill-opacity="1" fill-rule="nonzero"/><path fill="#000000" d="M 577.898438 260.464844 C 600.332031 267.105469 599.960938 306.800781 599.429688 317.605469 C 599.347656 319.296875 599.117188 320.964844 598.746094 322.609375 C 598.195312 325.03125 597.332031 328.867188 596.707031 331.386719 C 594.222656 341.472656 603.199219 464.839844 603.835938 471.445312 C 595.660156 481.988281 585.78125 480.753906 580.910156 479.242188 C 579.0625 478.664062 577.632812 477.179688 577.09375 475.308594 L 536.257812 325.367188 C 536.257812 325.367188 479.121094 473.304688 476.945312 474.359375 C 463.921875 480.65625 445.726562 465.460938 445.726562 465.460938 C 462.289062 365.191406 485.902344 267.742188 485.636719 264.902344 C 485.636719 264.863281 485.660156 264.839844 485.683594 264.839844 C 488.300781 264.722656 577.222656 260.5 577.882812 260.464844 C 577.882812 260.464844 577.882812 260.464844 577.898438 260.464844 Z M 612.910156 525.820312 C 612.742188 526.023438 612.453125 526.082031 612.214844 525.976562 C 612.058594 525.902344 596.476562 519.332031 587.03125 531.144531 C 586.910156 531.289062 586.742188 531.371094 586.5625 531.371094 C 586.503906 531.371094 586.441406 531.359375 586.394531 531.347656 C 586.046875 531.242188 577.753906 528.578125 576.371094 513.429688 C 576.335938 513.097656 576.589844 512.808594 576.914062 512.785156 C 577.234375 512.761719 577.535156 513 577.558594 513.324219 C 578.699219 525.820312 584.808594 529.34375 586.371094 530.054688 C 595.492188 519.117188 609.585938 523.710938 612.25 524.703125 C 613.332031 523.207031 617.375 516.632812 615.347656 504.90625 C 615.289062 504.582031 615.515625 504.269531 615.839844 504.210938 C 616.164062 504.160156 616.476562 504.378906 616.535156 504.699219 C 618.949219 518.695312 613.164062 525.53125 612.910156 525.820312 Z M 585.195312 493.355469 C 585.472656 493.355469 585.734375 493.261719 585.964844 493.082031 C 592.492188 487.625 599.804688 490.285156 600.113281 490.40625 C 600.738281 490.644531 601.421875 490.335938 601.664062 489.710938 C 601.902344 489.085938 601.589844 488.402344 600.96875 488.164062 C 600.605469 488.03125 592.0625 484.867188 584.425781 491.234375 C 583.921875 491.652344 583.851562 492.421875 584.269531 492.925781 C 584.511719 493.210938 584.847656 493.355469 585.195312 493.355469 Z M 585.6875 496.847656 C 585.183594 497.265625 585.109375 498.035156 585.53125 498.535156 C 585.769531 498.824219 586.105469 498.96875 586.453125 498.96875 C 586.730469 498.96875 586.996094 498.871094 587.222656 498.691406 C 593.753906 493.238281 601.0625 495.898438 601.375 496.019531 C 601.988281 496.257812 602.683594 495.945312 602.925781 495.324219 C 603.164062 494.699219 602.851562 494.015625 602.226562 493.777344 C 601.878906 493.632812 593.332031 490.464844 585.6875 496.847656 Z M 586.335938 502.445312 C 585.832031 502.867188 585.757812 503.632812 586.179688 504.136719 C 586.417969 504.425781 586.753906 504.570312 587.101562 504.570312 C 587.378906 504.570312 587.644531 504.472656 587.871094 504.292969 C 594.402344 498.847656 601.710938 501.5 602.023438 501.617188 C 602.648438 501.859375 603.332031 501.546875 603.570312 500.921875 C 603.8125 500.300781 603.5 499.617188 602.875 499.375 C 602.527344 499.234375 593.980469 496.066406 586.335938 502.445312 Z M 476.800781 490.835938 C 441.800781 498.667969 415.777344 493.320312 412.429688 492.566406 C 410.375 482.851562 401.242188 481.507812 401.144531 481.496094 C 400.820312 481.4375 400.519531 481.675781 400.472656 482.011719 C 400.425781 482.347656 400.652344 482.648438 400.988281 482.683594 C 401.335938 482.730469 409.59375 483.964844 411.335938 493.175781 C 411.382812 493.402344 411.550781 493.585938 411.78125 493.644531 C 411.949219 493.691406 422.390625 496.246094 439.183594 496.246094 C 449.664062 496.246094 462.613281 495.25 477.078125 492.011719 C 477.402344 491.941406 477.605469 491.617188 477.535156 491.292969 C 477.449219 490.96875 477.140625 490.765625 476.800781 490.835938 Z M 476.800781 490.835938 " fill-opacity="1" fill-rule="nonzero"/><path fill="#f4bba8" d="M 560.742188 102.019531 C 559.542969 102.941406 558.367188 103.820312 557.191406 104.621094 L 561.402344 123.640625 C 561.402344 123.640625 559.375 137.289062 541.140625 137.289062 C 528.886719 137 524.3125 123.640625 524.3125 123.640625 L 528.503906 104.695312 C 527.554688 104.058594 526.617188 103.410156 525.691406 102.726562 C 518.5625 97.472656 515.035156 87.484375 515.035156 77.710938 C 515.035156 60.824219 527.492188 47.117188 542.859375 47.117188 C 558.222656 47.117188 570.671875 60.824219 570.671875 77.710938 C 570.660156 87.113281 567.5 96.777344 560.742188 102.019531 Z M 560.742188 102.019531 " fill-opacity="1" fill-rule="nonzero"/><path fill="#000000" d="M 556.914062 104.8125 C 555.03125 110.523438 549.449219 114.648438 542.859375 114.648438 C 536.316406 114.648438 530.746094 110.558594 528.8125 104.910156 C 533.109375 107.714844 537.660156 109.816406 542.859375 109.816406 C 548.128906 109.816406 552.546875 107.777344 556.914062 104.8125 Z M 553.230469 64.292969 C 549.988281 65.179688 547.671875 66.976562 548.03125 68.308594 C 548.390625 69.640625 551.320312 70.011719 554.550781 69.136719 C 557.789062 68.25 560.105469 66.449219 559.746094 65.117188 C 559.386719 63.777344 556.457031 63.402344 553.230469 64.292969 Z M 525.945312 65.105469 C 525.585938 66.449219 527.902344 68.25 531.144531 69.125 C 534.382812 70.011719 537.300781 69.640625 537.660156 68.296875 C 538.019531 66.953125 535.703125 65.15625 532.464844 64.28125 C 529.234375 63.402344 526.304688 63.777344 525.945312 65.105469 Z M 525.945312 65.105469 " fill-opacity="1" fill-rule="nonzero"/><path fill="#f28f69" d="M 582.265625 68.742188 C 580.070312 70.839844 575.136719 68.378906 575.136719 68.378906 C 575.136719 68.378906 575.316406 72.675781 568.28125 73.464844 C 561.246094 74.269531 561.390625 62.625 561.390625 62.625 C 547.191406 60.261719 543.902344 49.480469 543.902344 49.480469 C 546.699219 54.410156 550.109375 63.992188 547.011719 64.449219 C 543.902344 64.902344 538.152344 56.234375 538.152344 56.234375 C 538.152344 56.234375 544.359375 66.089844 540.253906 65.996094 C 536.148438 65.898438 529.65625 54.15625 529.65625 54.15625 C 529.65625 54.15625 533.746094 64.6875 531.804688 66.1875 C 530.78125 66.964844 526.460938 64.734375 523.402344 60.320312 C 521.683594 72.722656 517.121094 86.25 513.328125 81.523438 C 507.242188 73.945312 510.785156 65.597656 510.785156 65.597656 C 510.785156 65.597656 505.035156 70.804688 502.5625 67.792969 C 500.101562 64.78125 506.761719 61.820312 509.691406 52.875 C 511.839844 46.304688 520.039062 42.140625 521.527344 42.007812 C 533.855469 20.472656 572.316406 38.902344 574.917969 43.425781 C 576.035156 45.355469 569.722656 45.59375 566.566406 44.9375 C 574.570312 47.371094 583.65625 56.710938 581.269531 59.265625 C 578.710938 62 573.417969 57.070312 573.417969 57.070312 C 574.523438 61.628906 584.460938 66.640625 582.265625 68.742188 Z M 582.265625 68.742188 " fill-opacity="1" fill-rule="nonzero"/><path fill="#f4bba8" d="M 523.304688 77.78125 C 525.933594 83.609375 524.734375 89.824219 520.628906 91.683594 C 516.523438 93.527344 510.066406 90.316406 507.4375 84.488281 C 504.808594 78.660156 507.003906 72.433594 511.097656 70.585938 C 515.214844 68.742188 520.675781 71.964844 523.304688 77.78125 Z M 562.398438 77.78125 C 559.769531 83.609375 560.972656 89.824219 565.078125 91.683594 C 569.183594 93.527344 575.640625 90.316406 578.269531 84.488281 C 580.898438 78.660156 578.699219 72.433594 574.609375 70.585938 C 570.515625 68.742188 565.027344 71.964844 562.398438 77.78125 Z M 562.398438 77.78125 " fill-opacity="1" fill-rule="nonzero"/><path fill="#000000" d="M 549.015625 134.183594 L 546.890625 119.109375 C 546.6875 117.683594 547.515625 116.316406 548.882812 115.835938 L 563.863281 110.5 C 564.992188 110.089844 566.21875 110.785156 566.457031 111.960938 L 568.199219 120.558594 C 568.199219 120.558594 596.695312 132.539062 604.640625 138.558594 C 612.585938 144.582031 634.242188 233.011719 633.136719 240.6875 C 632.03125 248.363281 627.519531 324.191406 591.570312 295.722656 L 587.367188 292.253906 L 557.789062 298.839844 C 555.113281 299.101562 552.785156 297.027344 552.714844 294.34375 Z M 532.222656 137.21875 L 528.8125 132.085938 L 530.84375 119.074219 C 531.09375 117.464844 530.300781 115.871094 528.863281 115.101562 L 518.996094 109.777344 C 517.171875 108.796875 514.890625 109.695312 514.21875 111.660156 L 512.777344 115.894531 C 507.710938 114.121094 500.941406 112.367188 492.828125 111.710938 C 482.15625 110.859375 465.675781 111.816406 446.769531 111.710938 L 403.726562 55.742188 L 383.835938 71.714844 L 421.585938 143.128906 L 427.707031 136.523438 L 483.453125 166.480469 C 483.238281 192.730469 483.332031 225.335938 483.332031 225.335938 L 471.195312 257.105469 L 457.355469 291.5 C 455.917969 295.074219 458.761719 298.910156 462.601562 298.574219 L 500.523438 296.082031 C 503.917969 295.863281 506.726562 293.347656 507.316406 290 L 533.207031 142.507812 C 533.617188 140.695312 533.265625 138.777344 532.222656 137.21875 Z M 532.222656 137.21875 " fill-opacity="1" fill-rule="nonzero"/><path fill="#f28f69" d="M 527.804688 148.140625 C 527.324219 150.230469 525.25 151.535156 523.160156 151.054688 C 521.070312 150.578125 519.761719 148.503906 520.242188 146.414062 C 520.722656 144.328125 522.800781 143.023438 524.890625 143.5 C 526.976562 143.980469 528.285156 146.054688 527.804688 148.140625 Z M 520.050781 164.667969 C 517.960938 164.1875 515.886719 165.496094 515.40625 167.582031 C 514.925781 169.667969 516.234375 171.742188 518.324219 172.222656 C 520.410156 172.703125 522.488281 171.394531 522.96875 169.308594 C 523.4375 167.222656 522.140625 165.148438 520.050781 164.667969 Z M 515.203125 185.835938 C 513.113281 185.355469 511.035156 186.660156 510.558594 188.75 C 510.078125 190.835938 511.386719 192.910156 513.472656 193.390625 C 515.5625 193.871094 517.640625 192.5625 518.117188 190.476562 C 518.597656 188.390625 517.289062 186.3125 515.203125 185.835938 Z M 510.363281 207 C 508.277344 206.523438 506.199219 207.828125 505.71875 209.914062 C 505.238281 212.003906 506.546875 214.078125 508.636719 214.554688 C 510.726562 215.035156 512.800781 213.730469 513.28125 211.640625 C 513.761719 209.554688 512.441406 207.480469 510.363281 207 Z M 507.460938 231.800781 C 506.476562 229.90625 504.148438 229.152344 502.238281 230.132812 C 500.328125 231.117188 499.585938 233.445312 500.570312 235.351562 C 501.554688 237.246094 503.882812 238 505.792969 237.019531 C 507.699219 236.035156 508.445312 233.695312 507.460938 231.800781 Z M 507.460938 231.800781 " fill-opacity="1" fill-rule="nonzero"/><path fill="#6e9692" d="M 611.84375 289.878906 C 610.378906 292.398438 607.726562 293.921875 604.582031 294.355469 C 601.253906 294.820312 597.390625 294.078125 593.8125 292.015625 C 588.820312 289.125 585.757812 284.472656 585.542969 280.15625 C 585.445312 278.523438 585.769531 276.953125 586.550781 275.527344 C 586.585938 275.464844 586.609375 275.40625 586.648438 275.347656 C 587.644531 273.632812 589.203125 272.359375 591.089844 271.617188 C 594.894531 270.070312 600.03125 270.535156 604.675781 273.210938 C 606.980469 274.542969 608.878906 276.257812 610.269531 278.128906 C 610.871094 278.945312 611.386719 279.796875 611.792969 280.648438 C 613.292969 283.800781 613.425781 287.160156 611.84375 289.878906 Z M 611.84375 289.878906 " fill-opacity="1" fill-rule="nonzero"/><path fill="#000000" d="M 540.890625 88.324219 C 540.636719 88.324219 540.398438 88.15625 540.3125 87.90625 C 539.894531 86.550781 539.964844 85.339844 540.554688 84.308594 C 541.550781 82.519531 543.664062 81.96875 543.757812 81.945312 C 544.082031 81.859375 544.40625 82.050781 544.492188 82.375 C 544.574219 82.699219 544.382812 83.023438 544.058594 83.109375 C 544.046875 83.109375 542.34375 83.574219 541.597656 84.894531 C 541.191406 85.625 541.140625 86.523438 541.464844 87.542969 C 541.5625 87.855469 541.382812 88.191406 541.070312 88.300781 C 541.007812 88.324219 540.949219 88.324219 540.890625 88.324219 Z M 570.550781 75.910156 C 571.425781 74.496094 572.351562 73.789062 573.289062 73.789062 C 574.929688 73.789062 576.265625 75.898438 576.289062 75.910156 C 576.46875 76.1875 576.828125 76.285156 577.117188 76.105469 C 577.40625 75.925781 577.488281 75.5625 577.308594 75.277344 C 577.234375 75.167969 575.605469 72.578125 573.300781 72.578125 C 571.917969 72.578125 570.644531 73.488281 569.53125 75.277344 C 569.351562 75.550781 569.445312 75.925781 569.722656 76.105469 C 569.816406 76.164062 569.925781 76.199219 570.035156 76.199219 C 570.238281 76.1875 570.429688 76.09375 570.550781 75.910156 Z M 516.007812 76.105469 C 516.28125 75.925781 516.378906 75.5625 516.199219 75.277344 C 515.082031 73.488281 513.820312 72.578125 512.429688 72.578125 C 510.125 72.578125 508.480469 75.15625 508.40625 75.277344 C 508.226562 75.550781 508.324219 75.925781 508.601562 76.105469 C 508.875 76.285156 509.25 76.1875 509.429688 75.910156 C 509.441406 75.886719 510.785156 73.789062 512.429688 73.789062 C 513.367188 73.789062 514.289062 74.507812 515.167969 75.910156 C 515.273438 76.09375 515.476562 76.199219 515.671875 76.199219 C 515.800781 76.1875 515.910156 76.164062 516.007812 76.105469 Z M 537.902344 262.597656 C 538.007812 262.285156 537.851562 261.9375 537.539062 261.832031 L 522.546875 256.480469 C 522.234375 256.375 521.886719 256.53125 521.78125 256.839844 C 521.671875 257.152344 521.828125 257.5 522.140625 257.609375 L 537.132812 262.957031 C 537.203125 262.980469 537.265625 262.992188 537.335938 262.992188 C 537.578125 262.992188 537.804688 262.839844 537.902344 262.597656 Z M 549.484375 79.523438 C 549.507812 79.496094 551.5625 76.65625 554.695312 76.199219 C 556.507812 75.9375 558.355469 76.523438 560.179688 77.9375 C 560.574219 78.25 561.140625 78.167969 561.441406 77.78125 C 561.738281 77.386719 561.667969 76.824219 561.285156 76.523438 C 559.050781 74.785156 556.734375 74.078125 554.429688 74.425781 C 550.539062 75 548.117188 78.347656 548.019531 78.476562 C 547.730469 78.886719 547.828125 79.449219 548.234375 79.738281 C 548.390625 79.84375 548.570312 79.90625 548.75 79.90625 C 549.039062 79.894531 549.316406 79.761719 549.484375 79.523438 Z M 537.457031 79.726562 C 537.863281 79.4375 537.960938 78.875 537.671875 78.476562 C 537.578125 78.335938 535.140625 74.988281 531.261719 74.425781 C 528.957031 74.089844 526.640625 74.796875 524.410156 76.523438 C 524.011719 76.824219 523.941406 77.398438 524.253906 77.78125 C 524.554688 78.179688 525.117188 78.25 525.511719 77.9375 C 527.335938 76.523438 529.1875 75.9375 530.988281 76.1875 C 534.109375 76.644531 536.195312 79.484375 536.207031 79.511719 C 536.386719 79.75 536.664062 79.882812 536.941406 79.882812 C 537.121094 79.894531 537.300781 79.832031 537.457031 79.726562 Z M 537.457031 79.726562 " fill-opacity="1" fill-rule="nonzero"/><path fill="#ede6dd" d="M 549.21875 134.746094 C 549.148438 134.769531 549.089844 134.78125 549.015625 134.78125 C 548.765625 134.78125 548.535156 134.625 548.453125 134.386719 C 548.34375 134.074219 548.5 133.726562 548.8125 133.621094 C 564.082031 128.175781 567.609375 120.402344 567.644531 120.320312 C 567.777344 120.019531 568.125 119.875 568.4375 120.007812 C 568.738281 120.140625 568.882812 120.488281 568.75 120.800781 C 568.605469 121.136719 565.039062 129.097656 549.21875 134.746094 Z M 528.8125 132.683594 C 529.066406 132.683594 529.304688 132.515625 529.390625 132.265625 C 529.484375 131.953125 529.304688 131.617188 528.996094 131.519531 C 516.148438 127.636719 511.769531 120.34375 511.722656 120.273438 C 511.554688 119.984375 511.191406 119.886719 510.90625 120.054688 C 510.617188 120.222656 510.519531 120.582031 510.6875 120.871094 C 510.867188 121.183594 515.308594 128.644531 528.644531 132.671875 C 528.695312 132.671875 528.753906 132.683594 528.8125 132.683594 Z M 616.210938 223.742188 C 616.199219 224.066406 615.949219 224.316406 615.585938 224.304688 C 615.429688 224.292969 600.296875 223.828125 592.0625 246.359375 L 591.917969 246.757812 C 583.503906 269.804688 578.867188 282.503906 590.320312 295.3125 C 590.535156 295.566406 590.523438 295.9375 590.273438 296.164062 C 590.164062 296.261719 590.019531 296.320312 589.875 296.320312 C 589.707031 296.320312 589.550781 296.25 589.433594 296.117188 C 579.167969 284.652344 581.4375 272.898438 587.546875 255.390625 L 586.453125 255.65625 C 585.675781 255.847656 584.894531 255.929688 584.125 255.929688 C 579.589844 255.929688 575.460938 252.835938 574.332031 248.253906 L 573.382812 244.382812 C 573.3125 244.070312 573.492188 243.746094 573.804688 243.660156 L 589.707031 239.128906 L 587.007812 223.144531 C 586.851562 222.230469 586.875 221.320312 587.054688 220.421875 L 600.773438 153.765625 C 600.847656 153.441406 601.160156 153.238281 601.484375 153.300781 C 601.808594 153.371094 602.011719 153.683594 601.953125 154.007812 L 588.230469 220.660156 C 588.074219 221.417969 588.0625 222.183594 588.183594 222.949219 L 591.726562 243.902344 C 600.425781 222.578125 615.503906 223.105469 615.648438 223.105469 C 615.972656 223.132812 616.222656 223.40625 616.210938 223.742188 Z M 590.789062 246.359375 L 590.882812 246.109375 L 589.910156 240.339844 L 574.691406 244.667969 L 575.496094 247.980469 C 576.648438 252.703125 581.449219 255.617188 586.167969 254.492188 L 588.015625 254.046875 C 588.867188 251.601562 589.804688 249.046875 590.789062 246.359375 Z M 558.882812 165.363281 L 586.238281 166.96875 C 586.394531 166.984375 586.550781 167.054688 586.648438 167.175781 C 586.742188 167.292969 586.804688 167.449219 586.804688 167.605469 L 586.371094 174.980469 C 586.347656 175.304688 586.082031 175.546875 585.769531 175.546875 C 585.757812 175.546875 585.746094 175.546875 585.734375 175.546875 L 558.378906 173.9375 C 558.042969 173.914062 557.789062 173.636719 557.816406 173.300781 L 558.246094 165.925781 C 558.257812 165.769531 558.332031 165.617188 558.449219 165.519531 C 558.570312 165.421875 558.726562 165.351562 558.882812 165.363281 Z M 559.050781 172.773438 L 585.207031 174.320312 L 585.566406 168.144531 L 559.410156 166.597656 Z M 512.046875 263.003906 C 511.734375 262.945312 511.410156 263.171875 511.347656 263.496094 L 506.488281 291.90625 C 506.164062 293.8125 504.578125 295.242188 502.644531 295.363281 L 479.613281 296.859375 C 479.277344 296.882812 479.035156 297.171875 479.046875 297.496094 C 479.070312 297.808594 479.335938 298.058594 479.648438 298.058594 C 479.660156 298.058594 479.671875 298.058594 479.683594 298.058594 L 502.71875 296.5625 C 505.214844 296.394531 507.242188 294.570312 507.664062 292.113281 L 512.523438 263.703125 C 512.585938 263.367188 512.371094 263.066406 512.046875 263.003906 Z M 578.605469 293.898438 L 557.550781 297.964844 C 556.324219 298.203125 555.066406 297.878906 554.105469 297.089844 C 553.144531 296.296875 552.59375 295.121094 552.59375 293.875 L 552.59375 261.710938 C 552.59375 261.375 552.328125 261.109375 551.992188 261.109375 C 551.65625 261.109375 551.394531 261.375 551.394531 261.710938 L 551.394531 293.875 C 551.394531 295.480469 552.101562 296.992188 553.347656 298.011719 C 554.320312 298.816406 555.523438 299.246094 556.769531 299.246094 C 557.105469 299.246094 557.453125 299.210938 557.789062 299.152344 L 578.84375 295.085938 C 579.167969 295.027344 579.386719 294.714844 579.324219 294.378906 C 579.242188 294.042969 578.917969 293.839844 578.605469 293.898438 Z M 521.757812 90.148438 C 522.03125 91.359375 523.234375 92.101562 524.433594 91.839844 L 530.289062 90.507812 C 531.503906 90.230469 532.246094 89.03125 531.984375 87.832031 L 531.636719 86.320312 C 531.359375 85.109375 530.160156 84.367188 528.957031 84.628906 L 523.101562 85.960938 C 521.886719 86.238281 521.144531 87.4375 521.40625 88.636719 Z M 559.953125 99.824219 C 560.753906 100.773438 562.160156 100.890625 563.109375 100.089844 L 564.296875 99.09375 C 565.246094 98.289062 565.363281 96.886719 564.5625 95.9375 L 560.683594 91.347656 C 559.878906 90.398438 558.476562 90.277344 557.527344 91.082031 L 556.339844 92.078125 C 555.390625 92.882812 555.269531 94.285156 556.074219 95.230469 Z M 522.777344 311.046875 C 522.546875 310.808594 522.164062 310.808594 521.925781 311.035156 C 521.683594 311.261719 521.683594 311.648438 521.910156 311.886719 L 535.992188 326.433594 C 536.113281 326.554688 536.269531 326.613281 536.425781 326.613281 C 536.582031 326.613281 536.722656 326.554688 536.84375 326.445312 C 537.085938 326.21875 537.085938 325.835938 536.855469 325.59375 Z M 554.921875 91.96875 C 555.34375 90.988281 554.574219 89.917969 553.503906 90.015625 L 532.679688 92.03125 C 531.71875 92.125 531.144531 93.132812 531.539062 94.007812 C 532.621094 96.347656 535.488281 100.101562 542.847656 100.101562 C 550.359375 100.101562 553.636719 94.992188 554.921875 91.96875 Z M 554.921875 91.96875 " fill-opacity="1" fill-rule="nonzero"/><path fill="#f4bba8" d="M 606.835938 287.121094 L 606.199219 288.359375 C 606.199219 288.359375 605.78125 291.945312 604.582031 296.632812 C 603.414062 301.152344 601.554688 306.707031 598.652344 311.09375 C 596.359375 314.550781 591.554688 315.222656 588.386719 312.535156 C 585.675781 310.207031 582.363281 305.902344 578.867188 297.988281 C 578.246094 296.574219 578.328125 294.941406 579.109375 293.597656 L 585.554688 282.421875 L 588.855469 277.613281 L 588.867188 277.613281 C 597.691406 276.089844 603.429688 280.09375 606.140625 282.746094 C 607.304688 283.910156 607.582031 285.671875 606.835938 287.121094 Z M 405.875 56.003906 L 405.875 55.992188 L 405.5625 52.585938 C 405.058594 47.058594 402.910156 41.792969 399.355469 37.523438 C 399.210938 37.34375 399.128906 37.25 399.128906 37.25 C 399.128906 37.25 394.496094 12.375 388.539062 6.210938 C 382.585938 0.046875 391.289062 36.984375 391.289062 36.984375 C 391.289062 36.984375 373.453125 13.707031 368.84375 14.210938 C 364.234375 14.714844 384.328125 41.121094 384.328125 41.121094 C 384.328125 41.121094 376.632812 41.132812 380.089844 47.527344 C 380.089844 47.527344 374.21875 48.820312 379.226562 55.308594 C 381.6875 58.488281 385.382812 61.773438 389.394531 63.679688 L 388.492188 68.429688 C 387.820312 71.980469 390.125 75.382812 393.667969 76.140625 C 395.382812 76.5 397.386719 76.65625 399.546875 76.308594 C 403.664062 75.648438 406.570312 71.90625 406.390625 67.746094 L 405.933594 56.902344 C 406.019531 56.554688 405.898438 56.066406 405.875 56.003906 Z M 405.875 56.003906 " fill-opacity="1" fill-rule="nonzero"/><path fill="#ede6dd" d="M 249.886719 468.902344 C 249.886719 468.902344 261.976562 487.792969 253.214844 495.957031 C 246.480469 502.230469 241.976562 505.410156 233.625 513.585938 C 225.257812 521.765625 197.445312 528.121094 185.261719 517.761719 C 173.078125 507.410156 222.507812 469.359375 222.507812 469.359375 Z M 298.371094 463.472656 C 298.371094 463.472656 286.28125 482.359375 295.046875 490.527344 C 301.777344 496.796875 306.28125 499.976562 314.636719 508.15625 C 323 516.332031 350.8125 522.691406 362.996094 512.328125 C 375.179688 501.980469 325.75 463.925781 325.75 463.925781 Z M 298.371094 463.472656 " fill-opacity="1" fill-rule="nonzero"/><path fill="#000000" d="M 224.25 488.128906 C 223.875 488.128906 223.503906 487.949219 223.265625 487.625 C 218.425781 480.8125 209.375 481.640625 209.292969 481.652344 C 208.632812 481.710938 208.042969 481.242188 207.972656 480.585938 C 207.898438 479.925781 208.378906 479.335938 209.039062 479.265625 C 209.460938 479.21875 219.566406 478.269531 225.21875 486.246094 C 225.605469 486.785156 225.472656 487.527344 224.933594 487.910156 C 224.742188 488.066406 224.488281 488.128906 224.25 488.128906 Z M 217.40625 494.4375 C 217.945312 494.050781 218.078125 493.308594 217.695312 492.769531 C 212.039062 484.792969 201.933594 485.742188 201.515625 485.789062 C 200.855469 485.859375 200.375 486.449219 200.445312 487.109375 C 200.515625 487.769531 201.09375 488.234375 201.765625 488.175781 C 201.863281 488.164062 210.914062 487.335938 215.738281 494.148438 C 215.976562 494.484375 216.339844 494.652344 216.722656 494.652344 C 216.949219 494.652344 217.203125 494.578125 217.40625 494.4375 Z M 210.757812 501.332031 C 211.296875 500.949219 211.429688 500.203125 211.042969 499.664062 C 205.390625 491.6875 195.285156 492.648438 194.863281 492.683594 C 194.203125 492.757812 193.722656 493.34375 193.796875 494.003906 C 193.867188 494.664062 194.445312 495.144531 195.117188 495.070312 C 195.210938 495.070312 204.238281 494.207031 209.089844 501.042969 C 209.328125 501.378906 209.6875 501.546875 210.070312 501.546875 C 210.300781 501.558594 210.539062 501.488281 210.757812 501.332031 Z M 324.980469 482.191406 C 329.820312 475.378906 338.871094 476.207031 338.953125 476.21875 C 339.613281 476.265625 340.203125 475.8125 340.273438 475.152344 C 340.347656 474.492188 339.867188 473.90625 339.207031 473.832031 C 338.773438 473.785156 328.679688 472.835938 323.027344 480.8125 C 322.640625 481.351562 322.773438 482.09375 323.3125 482.480469 C 323.53125 482.636719 323.769531 482.695312 324.011719 482.695312 C 324.371094 482.695312 324.742188 482.527344 324.980469 482.191406 Z M 332.519531 488.714844 C 337.359375 481.902344 346.410156 482.730469 346.492188 482.742188 C 347.152344 482.789062 347.742188 482.335938 347.8125 481.675781 C 347.886719 481.015625 347.40625 480.429688 346.746094 480.355469 C 346.324219 480.308594 336.21875 479.359375 330.5625 487.335938 C 330.179688 487.875 330.3125 488.621094 330.851562 489.003906 C 331.066406 489.160156 331.308594 489.21875 331.546875 489.21875 C 331.90625 489.21875 332.28125 489.050781 332.519531 488.714844 Z M 339.171875 495.609375 C 344.007812 488.800781 353.058594 489.625 353.140625 489.636719 C 353.800781 489.699219 354.390625 489.230469 354.460938 488.570312 C 354.535156 487.910156 354.054688 487.324219 353.394531 487.253906 C 352.972656 487.203125 342.867188 486.257812 337.214844 494.230469 C 336.828125 494.769531 336.960938 495.515625 337.5 495.898438 C 337.71875 496.054688 337.957031 496.113281 338.199219 496.113281 C 338.570312 496.125 338.941406 495.945312 339.171875 495.609375 Z M 293.917969 283.453125 C 283.703125 255.054688 193.277344 263.75 191.730469 289.015625 C 190.277344 312.75 216.183594 450.617188 219.472656 468.003906 C 219.699219 469.203125 220.441406 470.246094 221.5 470.847656 C 232.386719 477.011719 244.03125 473.316406 249.144531 471.109375 C 250.738281 470.414062 251.738281 468.808594 251.628906 467.070312 C 250.078125 440.648438 248.84375 351.378906 248.578125 332.046875 C 248.566406 331.160156 249.78125 330.882812 250.152344 331.6875 C 266.285156 366.210938 291.421875 451.226562 295.574219 465.4375 C 295.957031 466.746094 296.953125 467.800781 298.261719 468.21875 C 310.445312 472.191406 319.507812 467.765625 323.300781 465.28125 C 324.527344 464.480469 325.234375 463.085938 325.164062 461.625 C 321.847656 394.957031 295.441406 289.402344 294.050781 283.898438 C 294.023438 283.753906 293.976562 283.609375 293.917969 283.453125 Z M 293.917969 283.453125 " fill-opacity="1" fill-rule="nonzero"/><path fill="#f4bba8" d="M 205.761719 236.25 C 205.761719 236.25 215.640625 298 195.597656 287.648438 C 175.550781 277.300781 178.742188 274.027344 180.925781 272.214844 C 183.113281 270.40625 188.203125 274.914062 188.203125 274.914062 C 184.203125 263.078125 185.476562 248.003906 185.476562 248.003906 Z M 295.007812 82.449219 L 299.953125 97.042969 L 315.296875 91.886719 L 307.902344 76.789062 C 309.761719 71.488281 306.675781 61.460938 306.675781 61.460938 C 306.675781 61.460938 311.214844 50.789062 310.410156 48.628906 C 308.789062 44.265625 301.273438 59.253906 301.273438 59.253906 C 301.273438 59.253906 300.132812 36.707031 296.199219 37.03125 C 292.261719 37.355469 294.671875 58.101562 294.671875 58.101562 C 294.671875 58.101562 285.800781 31.769531 282.488281 34.394531 C 279.175781 37.03125 287.78125 60.886719 287.78125 60.886719 C 274.171875 42.105469 271.085938 39.996094 271.265625 44.085938 C 271.554688 50.441406 285.226562 70.40625 285.226562 70.40625 C 272.285156 64.460938 269.238281 69.664062 271.121094 72.300781 C 273.007812 74.941406 275.921875 74.558594 286.378906 78.695312 C 290.171875 80.230469 292.957031 82.039062 295.007812 82.449219 Z M 295.007812 82.449219 " fill-opacity="1" fill-rule="nonzero"/><path fill="#f28f69" d="M 313.734375 80.949219 C 312.65625 79.558594 310.996094 78.742188 309.246094 78.707031 C 303.171875 78.574219 298 81.019531 294.792969 83.023438 C 292.667969 84.355469 291.683594 86.910156 292.296875 89.332031 L 297.78125 111.109375 C 278.410156 112.691406 264.089844 116.925781 256.226562 119.816406 C 254.761719 120.355469 253.667969 121.398438 253.03125 122.660156 C 242.589844 120.152344 238.246094 123.449219 238.246094 123.449219 C 197.203125 125.429688 171.566406 154.988281 171.566406 154.988281 C 171.566406 154.988281 124.929688 204.832031 131.195312 222.949219 C 137.476562 241.070312 177.554688 247.066406 177.554688 247.066406 L 181.816406 253.027344 C 183.351562 255.175781 186.292969 255.75 188.527344 254.335938 C 189.640625 253.628906 190.792969 252.824219 191.945312 251.984375 C 191.875 252.824219 191.789062 253.640625 191.730469 254.417969 C 190.363281 270.765625 193.363281 274.578125 193.363281 274.578125 L 191.730469 289.015625 C 241.628906 309.992188 293.726562 284.664062 293.988281 283.679688 C 294.265625 282.710938 288.613281 268.304688 288.613281 268.304688 C 293.050781 265.070312 295.164062 208.164062 296.03125 174.308594 C 308.019531 166.371094 340.574219 143.980469 342.820312 133.558594 C 345.230469 122.441406 320.289062 89.390625 313.734375 80.949219 Z M 177.554688 206.199219 L 192.714844 200.5625 L 197.191406 210.191406 C 197.191406 210.191406 196.496094 214.890625 195.597656 221.570312 C 187.144531 211.1875 177.554688 206.199219 177.554688 206.199219 Z M 177.554688 206.199219 " fill-opacity="1" fill-rule="nonzero"/><path fill="#ede6dd" d="M 260.222656 138.894531 C 260.042969 146.761719 254.339844 161.8125 249.3125 173.636719 C 245.289062 183.089844 241.703125 190.476562 241.703125 190.476562 C 239.972656 188.855469 235.941406 182.921875 231.511719 175.929688 C 223.804688 163.792969 214.863281 148.476562 214.488281 146.96875 C 214.453125 146.800781 214.441406 146.632812 214.453125 146.464844 C 216.746094 118.183594 260.917969 109.742188 260.222656 138.894531 Z M 260.222656 138.894531 " fill-opacity="1" fill-rule="nonzero"/><path fill="#6e9692" d="M 249.3125 173.648438 C 245.289062 183.101562 241.703125 190.488281 241.703125 190.488281 C 239.972656 188.867188 235.941406 182.933594 231.511719 175.941406 L 234.835938 158.203125 C 234.882812 157.867188 234.847656 157.542969 234.691406 157.246094 L 229.21875 146.570312 C 228.917969 145.984375 229.050781 145.253906 229.542969 144.796875 L 237.164062 137.671875 C 237.691406 137.191406 238.472656 137.144531 239.046875 137.527344 L 248.039062 143.742188 C 248.605469 144.136719 248.832031 144.855469 248.578125 145.515625 L 244.402344 156.417969 C 244.269531 156.730469 244.257812 157.066406 244.355469 157.386719 C 244.976562 159.464844 247.5 167.667969 249.3125 173.648438 Z M 249.3125 173.648438 " fill-opacity="1" fill-rule="nonzero"/><path fill="#ede6dd" d="M 236.097656 118.773438 C 261.699219 109.261719 262.742188 138.199219 262.359375 148.347656 C 262.289062 150.085938 260.59375 151.308594 258.878906 150.851562 L 239.242188 145.648438 C 238.617188 145.457031 237.945312 145.492188 237.34375 145.71875 L 218.1875 153.167969 C 216.445312 153.839844 214.5 152.734375 214.285156 150.925781 C 210.179688 117.980469 230.957031 118.546875 234.835938 118.941406 C 235.253906 119 235.6875 118.929688 236.097656 118.773438 Z M 236.097656 118.773438 " fill-opacity="1" fill-rule="nonzero"/><path fill="#f4bba8" d="M 250.390625 111.097656 C 250.332031 111.144531 250.273438 111.195312 250.210938 111.242188 C 250.464844 111.746094 250.667969 112.285156 250.824219 112.847656 L 253.199219 121.640625 C 254.054688 124.78125 253.09375 128.128906 250.714844 130.34375 L 239.0625 141.210938 L 226.074219 133.679688 C 223.109375 131.953125 221.414062 128.667969 221.738281 125.25 L 222.6875 115.402344 C 222.722656 115.089844 222.796875 114.792969 222.855469 114.492188 C 222.820312 114.480469 222.773438 114.457031 222.722656 114.445312 C 222.304688 114.277344 221.894531 114.109375 221.5 113.917969 C 213.207031 110.269531 207.46875 101.324219 206.472656 91.214844 C 204.875 75.085938 216.832031 60.214844 231.1875 58.800781 C 245.542969 57.382812 259.828125 69.21875 261.410156 85.363281 C 262.214844 93.433594 260.476562 101.742188 255.167969 106.804688 C 253.523438 108.386719 251.953125 109.839844 250.390625 111.097656 Z M 250.390625 111.097656 " fill-opacity="1" fill-rule="nonzero"/><path fill="#000000" d="M 210.371094 78.058594 L 208.1875 93.410156 C 208.1875 93.410156 192.738281 88.78125 200.914062 67.074219 C 209.089844 45.367188 218.90625 50.8125 218.90625 50.8125 C 223.457031 40.726562 231.628906 42.1875 254.449219 50.992188 C 277.269531 59.792969 263.644531 89.34375 258.804688 91.957031 C 253.96875 94.585938 252.445312 69.148438 252.445312 69.148438 C 230.539062 68.871094 226.804688 61.894531 226.804688 61.894531 C 227.441406 66.164062 236.898438 74.878906 231.257812 74.246094 C 225.617188 73.609375 220.082031 61.714844 220.082031 61.714844 C 218.03125 69.339844 210.371094 78.058594 210.371094 78.058594 Z M 210.371094 78.058594 " fill-opacity="1" fill-rule="nonzero"/><path fill="#f4bba8" d="M 269.152344 93.253906 C 267.496094 98.6875 262.660156 102.03125 258.339844 100.722656 C 254.015625 99.417969 251.84375 93.949219 253.5 88.503906 C 255.15625 83.070312 259.996094 79.726562 264.316406 81.03125 C 268.636719 82.339844 270.796875 87.820312 269.152344 93.253906 Z M 202.148438 105.234375 C 205.292969 109.96875 210.902344 111.769531 214.65625 109.273438 C 218.425781 106.78125 218.917969 100.917969 215.773438 96.191406 C 212.628906 91.464844 207.023438 89.65625 203.265625 92.148438 C 199.507812 94.644531 199.003906 100.507812 202.148438 105.234375 Z M 202.148438 105.234375 " fill-opacity="1" fill-rule="nonzero"/><path fill="#000000" d="M 250.390625 111.097656 C 248.941406 117.707031 243.035156 122.671875 235.976562 122.671875 C 230.167969 122.671875 225.136719 119.324219 222.734375 114.445312 C 227.140625 116.265625 232.085938 117.71875 236.984375 117.238281 C 242.167969 116.710938 246.238281 114.492188 250.390625 111.097656 Z M 244.773438 78.957031 C 242.660156 78.957031 240.957031 80.660156 240.957031 82.773438 C 240.957031 84.882812 242.660156 86.585938 244.773438 86.585938 C 246.886719 86.585938 248.589844 84.882812 248.589844 82.773438 C 248.605469 80.671875 246.886719 78.957031 244.773438 78.957031 Z M 226.445312 88.742188 C 226.851562 88.457031 226.949219 87.890625 226.660156 87.484375 C 226.625 87.4375 222.890625 82.363281 215.484375 86.308594 C 215.042969 86.550781 214.886719 87.089844 215.113281 87.53125 C 215.355469 87.976562 215.894531 88.132812 216.339844 87.90625 C 222.292969 84.726562 225.066406 88.359375 225.195312 88.527344 C 225.375 88.769531 225.652344 88.898438 225.929688 88.898438 C 226.097656 88.910156 226.277344 88.851562 226.445312 88.742188 Z M 248.589844 72.804688 C 248.339844 72.804688 248.085938 72.734375 247.882812 72.566406 C 242.074219 68.261719 236.109375 71.546875 236.046875 71.582031 C 235.472656 71.90625 234.738281 71.703125 234.414062 71.128906 C 234.089844 70.550781 234.296875 69.820312 234.871094 69.496094 C 235.171875 69.328125 242.265625 65.429688 249.3125 70.648438 C 249.839844 71.042969 249.960938 71.796875 249.5625 72.328125 C 249.324219 72.636719 248.964844 72.804688 248.589844 72.804688 Z M 213.78125 80.0625 C 215.820312 74.089844 222.472656 74.042969 222.710938 74.066406 C 223.382812 74.101562 223.914062 73.539062 223.925781 72.878906 C 223.9375 72.21875 223.394531 71.667969 222.734375 71.667969 C 219.808594 71.59375 213.601562 73.179688 211.511719 79.292969 C 211.296875 79.917969 211.632812 80.601562 212.257812 80.816406 C 212.390625 80.863281 212.519531 80.875 212.640625 80.875 C 213.144531 80.863281 213.613281 80.554688 213.78125 80.0625 Z M 259.261719 87.414062 C 260.332031 85.566406 261.449219 84.617188 262.601562 84.582031 C 262.625 84.582031 262.636719 84.582031 262.660156 84.582031 C 264.4375 84.582031 265.851562 86.753906 265.875 86.765625 C 266.058594 87.039062 266.429688 87.125 266.703125 86.945312 C 266.980469 86.765625 267.066406 86.394531 266.886719 86.117188 C 266.8125 85.996094 265.085938 83.324219 262.585938 83.382812 C 260.980469 83.417969 259.515625 84.570312 258.230469 86.8125 C 258.0625 87.101562 258.160156 87.472656 258.445312 87.628906 C 258.542969 87.675781 258.636719 87.710938 258.746094 87.710938 C 258.949219 87.710938 259.15625 87.605469 259.261719 87.414062 Z M 201.945312 99.117188 C 201.863281 99.117188 201.777344 99.105469 201.695312 99.070312 C 201.394531 98.9375 201.261719 98.578125 201.394531 98.277344 C 201.453125 98.15625 202.785156 95.242188 205.246094 94.945312 C 206.84375 94.753906 208.453125 95.675781 210.058594 97.703125 C 210.265625 97.964844 210.214844 98.335938 209.964844 98.542969 C 209.699219 98.746094 209.328125 98.699219 209.125 98.445312 C 207.804688 96.765625 206.554688 96 205.402344 96.132812 C 203.613281 96.347656 202.496094 98.746094 202.484375 98.769531 C 202.390625 98.984375 202.175781 99.117188 201.945312 99.117188 Z M 230.371094 94.824219 C 230.070312 94.824219 229.816406 94.609375 229.769531 94.308594 C 229.46875 92.101562 229.867188 90.554688 230.957031 89.738281 C 232.734375 88.394531 235.578125 89.632812 235.699219 89.679688 C 236 89.8125 236.144531 90.171875 236.011719 90.472656 C 235.878906 90.769531 235.53125 90.914062 235.21875 90.78125 C 234.570312 90.507812 232.6875 89.941406 231.679688 90.699219 C 230.789062 91.371094 230.800781 92.941406 230.96875 94.140625 C 231.019531 94.464844 230.789062 94.777344 230.453125 94.8125 C 230.429688 94.8125 230.394531 94.824219 230.371094 94.824219 Z M 216.253906 153.984375 C 216.3125 153.984375 216.386719 153.972656 216.445312 153.945312 L 239.253906 146.273438 L 258.722656 151.429688 C 259.046875 151.511719 259.371094 151.320312 259.453125 150.996094 C 259.539062 150.671875 259.347656 150.347656 259.023438 150.265625 L 239.386719 145.058594 C 239.277344 145.035156 239.15625 145.035156 239.035156 145.074219 L 216.050781 152.796875 C 215.738281 152.902344 215.570312 153.238281 215.679688 153.550781 C 215.761719 153.828125 216.003906 153.984375 216.253906 153.984375 Z M 244.796875 157.003906 C 244.738281 157.328125 244.425781 157.542969 244.101562 157.484375 C 244.054688 157.472656 238.605469 156.523438 235.183594 158.226562 C 235.097656 158.277344 235.003906 158.289062 234.917969 158.289062 C 234.703125 158.289062 234.488281 158.167969 234.378906 157.953125 C 234.234375 157.652344 234.355469 157.292969 234.644531 157.148438 C 238.414062 155.265625 244.066406 156.261719 244.304688 156.296875 C 244.640625 156.371094 244.859375 156.679688 244.796875 157.003906 Z M 184.925781 186.027344 C 184.78125 185.726562 184.902344 185.367188 185.199219 185.222656 C 185.5 185.078125 185.859375 185.199219 186.003906 185.5 L 193.890625 201.664062 C 194.035156 201.964844 193.914062 202.324219 193.617188 202.46875 C 193.53125 202.503906 193.433594 202.527344 193.351562 202.527344 C 193.125 202.527344 192.917969 202.40625 192.8125 202.191406 Z M 178.058594 206.523438 C 177.878906 206.796875 177.507812 206.882812 177.230469 206.6875 C 176.953125 206.507812 170.425781 202.394531 161.097656 209.125 C 160.988281 209.195312 160.871094 209.230469 160.75 209.230469 C 160.558594 209.230469 160.378906 209.148438 160.257812 208.980469 C 160.066406 208.714844 160.125 208.332031 160.390625 208.140625 C 170.425781 200.898438 177.589844 205.476562 177.890625 205.671875 C 178.167969 205.875 178.238281 206.246094 178.058594 206.523438 Z M 289.164062 268.042969 C 289.308594 268.34375 289.1875 268.703125 288.886719 268.847656 C 288.71875 268.929688 271.675781 277.15625 250.738281 278.789062 C 250.726562 278.789062 250.703125 278.789062 250.691406 278.789062 C 250.632812 278.789062 250.558594 278.777344 250.5 278.75 L 251.292969 297.269531 C 251.304688 297.605469 251.050781 297.878906 250.714844 297.890625 C 250.703125 297.890625 250.703125 297.890625 250.691406 297.890625 C 250.367188 297.890625 250.105469 297.640625 250.09375 297.316406 L 245.78125 196.125 C 245.769531 195.980469 245.820312 195.835938 245.914062 195.726562 C 272.910156 161.585938 266.742188 117.847656 266.679688 117.40625 C 266.632812 117.082031 266.859375 116.769531 267.183594 116.722656 C 267.507812 116.675781 267.820312 116.902344 267.871094 117.226562 C 267.941406 117.667969 274.160156 161.765625 246.996094 196.292969 L 250.453125 277.636719 C 250.511719 277.613281 250.570312 277.589844 250.644531 277.589844 C 271.339844 275.96875 288.179688 267.839844 288.347656 267.753906 C 288.660156 267.636719 289.019531 267.753906 289.164062 268.042969 Z M 242.445312 207.039062 C 241.582031 207.074219 240.789062 207.445312 240.199219 208.082031 C 239.613281 208.714844 239.3125 209.542969 239.347656 210.394531 C 239.421875 212.121094 240.847656 213.476562 242.566406 213.476562 C 242.613281 213.476562 242.660156 213.476562 242.710938 213.476562 C 243.574219 213.441406 244.367188 213.070312 244.953125 212.433594 C 245.542969 211.796875 245.84375 210.96875 245.792969 210.121094 C 245.734375 208.332031 244.222656 206.964844 242.445312 207.039062 Z M 244.078125 211.617188 C 243.707031 212.015625 243.214844 212.253906 242.671875 212.265625 C 242.144531 212.289062 241.617188 212.097656 241.222656 211.738281 C 240.824219 211.378906 240.585938 210.875 240.574219 210.335938 C 240.550781 209.796875 240.742188 209.28125 241.101562 208.882812 C 241.460938 208.488281 241.964844 208.25 242.503906 208.222656 C 242.53125 208.222656 242.566406 208.222656 242.589844 208.222656 C 243.09375 208.222656 243.585938 208.417969 243.957031 208.753906 C 244.355469 209.125 244.59375 209.617188 244.605469 210.15625 C 244.617188 210.695312 244.4375 211.222656 244.078125 211.617188 Z M 243.023438 220.492188 C 242.15625 220.527344 241.367188 220.902344 240.789062 221.535156 C 240.199219 222.171875 239.902344 223 239.9375 223.851562 C 239.972656 224.703125 240.34375 225.503906 240.980469 226.09375 C 241.582031 226.644531 242.351562 226.945312 243.152344 226.945312 C 243.203125 226.945312 243.25 226.945312 243.296875 226.945312 C 245.074219 226.871094 246.453125 225.363281 246.382812 223.585938 C 246.3125 221.800781 244.808594 220.433594 243.023438 220.492188 Z M 243.25 225.734375 C 242.710938 225.757812 242.195312 225.566406 241.796875 225.207031 C 241.402344 224.847656 241.160156 224.34375 241.148438 223.800781 C 241.125 223.261719 241.316406 222.746094 241.675781 222.351562 C 242.039062 221.957031 242.542969 221.714844 243.082031 221.691406 C 243.105469 221.691406 243.140625 221.691406 243.164062 221.691406 C 244.246094 221.691406 245.148438 222.542969 245.195312 223.632812 C 245.230469 224.738281 244.367188 225.683594 243.25 225.734375 Z M 243.597656 233.949219 C 242.734375 233.984375 241.941406 234.355469 241.351562 234.992188 C 240.765625 235.628906 240.464844 236.453125 240.5 237.304688 C 240.574219 239.03125 242 240.386719 243.71875 240.386719 C 243.765625 240.386719 243.8125 240.386719 243.863281 240.386719 C 245.640625 240.316406 247.019531 238.804688 246.945312 237.03125 C 246.886719 235.253906 245.386719 233.886719 243.597656 233.949219 Z M 245.230469 238.527344 C 244.871094 238.925781 244.367188 239.164062 243.824219 239.175781 C 242.722656 239.226562 241.761719 238.363281 241.714844 237.246094 C 241.691406 236.707031 241.882812 236.191406 242.242188 235.796875 C 242.613281 235.398438 243.105469 235.160156 243.644531 235.136719 C 243.671875 235.136719 243.707031 235.136719 243.730469 235.136719 C 244.808594 235.136719 245.710938 235.988281 245.757812 237.078125 C 245.78125 237.617188 245.601562 238.132812 245.230469 238.527344 Z M 244.175781 247.402344 C 242.398438 247.476562 241.015625 248.988281 241.089844 250.761719 C 241.125 251.625 241.496094 252.417969 242.132812 253.003906 C 242.734375 253.554688 243.503906 253.855469 244.304688 253.855469 C 244.355469 253.855469 244.402344 253.855469 244.449219 253.855469 C 246.226562 253.785156 247.605469 252.273438 247.535156 250.496094 C 247.5 249.632812 247.128906 248.84375 246.492188 248.253906 C 245.867188 247.667969 245.039062 247.367188 244.175781 247.402344 Z M 245.808594 251.996094 C 245.445312 252.390625 244.941406 252.632812 244.402344 252.644531 C 243.875 252.667969 243.347656 252.476562 242.949219 252.117188 C 242.554688 251.757812 242.3125 251.253906 242.289062 250.714844 C 242.265625 250.175781 242.457031 249.660156 242.816406 249.261719 C 243.191406 248.867188 243.683594 248.625 244.222656 248.613281 C 244.246094 248.613281 244.28125 248.613281 244.304688 248.613281 C 244.808594 248.613281 245.300781 248.808594 245.675781 249.140625 C 246.070312 249.515625 246.3125 250.007812 246.324219 250.546875 C 246.359375 251.074219 246.179688 251.589844 245.808594 251.996094 Z M 242.519531 261.902344 C 241.929688 262.539062 241.628906 263.367188 241.664062 264.21875 C 241.738281 265.945312 243.164062 267.300781 244.882812 267.300781 C 244.929688 267.300781 244.976562 267.300781 245.027344 267.300781 C 246.804688 267.226562 248.183594 265.714844 248.113281 263.941406 C 248.074219 263.078125 247.703125 262.285156 247.066406 261.710938 C 246.429688 261.121094 245.613281 260.824219 244.75 260.859375 C 243.898438 260.894531 243.105469 261.265625 242.519531 261.902344 Z M 244.894531 262.058594 C 245.398438 262.058594 245.890625 262.25 246.261719 262.585938 C 246.660156 262.945312 246.898438 263.449219 246.921875 263.988281 C 246.945312 264.527344 246.753906 265.042969 246.394531 265.441406 C 246.035156 265.835938 245.53125 266.074219 244.992188 266.085938 C 244.460938 266.113281 243.933594 265.921875 243.539062 265.558594 C 243.140625 265.199219 242.902344 264.695312 242.878906 264.15625 C 242.855469 263.617188 243.046875 263.101562 243.40625 262.707031 C 243.765625 262.308594 244.269531 262.070312 244.808594 262.058594 C 244.835938 262.058594 244.871094 262.058594 244.894531 262.058594 Z M 245.339844 274.316406 C 244.472656 274.351562 243.683594 274.722656 243.09375 275.359375 C 242.503906 275.992188 242.207031 276.808594 242.242188 277.671875 C 242.3125 279.398438 243.742188 280.753906 245.457031 280.753906 C 245.507812 280.753906 245.554688 280.753906 245.601562 280.753906 C 247.378906 280.683594 248.757812 279.171875 248.6875 277.398438 C 248.617188 275.621094 247.128906 274.277344 245.339844 274.316406 Z M 246.972656 278.90625 C 246.597656 279.304688 246.105469 279.542969 245.566406 279.554688 C 244.472656 279.652344 243.503906 278.738281 243.453125 277.625 C 243.429688 277.085938 243.621094 276.570312 243.980469 276.171875 C 244.34375 275.777344 244.847656 275.539062 245.386719 275.527344 C 245.410156 275.527344 245.445312 275.527344 245.46875 275.527344 C 245.976562 275.527344 246.46875 275.71875 246.839844 276.054688 C 247.234375 276.425781 247.476562 276.917969 247.5 277.457031 C 247.523438 277.996094 247.332031 278.511719 246.972656 278.90625 Z M 237.933594 197.179688 L 242.78125 297.28125 C 242.792969 297.617188 242.542969 297.890625 242.207031 297.902344 C 242.195312 297.902344 242.183594 297.902344 242.183594 297.902344 C 241.859375 297.902344 241.59375 297.652344 241.582031 297.328125 L 240.667969 278.441406 C 240.574219 278.632812 240.382812 278.777344 240.152344 278.789062 C 237.175781 278.894531 234.320312 278.945312 231.59375 278.945312 C 210.636719 278.945312 196.988281 276.042969 193.890625 275.308594 L 192.332031 289.078125 C 192.296875 289.378906 192.03125 289.605469 191.730469 289.605469 C 191.707031 289.605469 191.683594 289.605469 191.660156 289.605469 C 191.335938 289.570312 191.09375 289.269531 191.128906 288.945312 L 192.75 274.664062 C 190.710938 270.429688 190.554688 261.675781 191.144531 252.464844 L 186.210938 243.804688 C 186.042969 243.519531 186.148438 243.144531 186.4375 242.992188 C 186.726562 242.824219 187.085938 242.929688 187.253906 243.21875 L 191.296875 250.304688 C 192.332031 236.539062 194.816406 222.460938 194.996094 221.464844 C 195.054688 221.140625 195.355469 220.914062 195.691406 220.984375 C 196.015625 221.042969 196.230469 221.355469 196.171875 221.679688 C 196.101562 222.101562 188.800781 263.4375 193.785156 274.074219 C 196.089844 274.636719 213.289062 278.597656 240.105469 277.613281 C 240.332031 277.613281 240.523438 277.734375 240.644531 277.925781 L 236.742188 197.429688 C 206.628906 157.554688 201.40625 133.929688 201.359375 133.703125 C 201.285156 133.378906 201.5 133.054688 201.824219 132.996094 C 202.148438 132.925781 202.472656 133.140625 202.535156 133.464844 C 202.582031 133.691406 207.792969 157.148438 237.824219 196.867188 C 237.882812 196.941406 237.933594 197.058594 237.933594 197.179688 Z M 187.984375 254.503906 C 188.164062 254.777344 188.082031 255.152344 187.804688 255.332031 C 187.710938 255.390625 187.589844 255.425781 187.480469 255.425781 C 187.277344 255.425781 187.085938 255.332031 186.976562 255.152344 L 181.875 247.117188 C 181.695312 246.839844 181.78125 246.46875 182.054688 246.289062 C 182.332031 246.109375 182.703125 246.191406 182.882812 246.46875 Z M 320.734375 145.804688 C 320.660156 146.066406 320.421875 146.246094 320.15625 146.246094 C 320.109375 146.246094 320.0625 146.234375 320 146.222656 C 300.820312 141.1875 297.324219 112.382812 297.183594 111.15625 C 297.144531 110.835938 297.386719 110.535156 297.710938 110.5 C 298.035156 110.460938 298.335938 110.703125 298.371094 111.027344 C 298.40625 111.3125 301.921875 140.238281 320.300781 145.074219 C 320.625 145.15625 320.816406 145.492188 320.734375 145.804688 Z M 307.515625 79.257812 C 307.359375 78.96875 307.457031 78.597656 307.746094 78.441406 C 308.03125 78.285156 308.40625 78.382812 308.5625 78.671875 L 313.003906 86.667969 C 313.160156 86.957031 313.0625 87.328125 312.773438 87.484375 C 312.679688 87.53125 312.582031 87.558594 312.488281 87.558594 C 312.269531 87.558594 312.066406 87.449219 311.957031 87.246094 Z M 302.019531 79.773438 C 301.898438 79.460938 302.042969 79.113281 302.355469 78.992188 C 302.667969 78.875 303.015625 79.019531 303.136719 79.328125 L 306.773438 88.457031 C 306.894531 88.769531 306.75 89.117188 306.4375 89.234375 C 306.363281 89.257812 306.292969 89.285156 306.21875 89.285156 C 305.980469 89.285156 305.753906 89.140625 305.667969 88.898438 Z M 299.511719 91.070312 L 296.4375 81.945312 C 296.328125 81.632812 296.496094 81.285156 296.808594 81.1875 C 297.121094 81.082031 297.457031 81.25 297.566406 81.558594 L 300.640625 90.6875 C 300.746094 91 300.578125 91.347656 300.265625 91.441406 C 300.207031 91.464844 300.132812 91.476562 300.074219 91.476562 C 299.824219 91.476562 299.59375 91.324219 299.511719 91.070312 Z M 295.441406 70.71875 C 295.285156 71.007812 294.914062 71.113281 294.625 70.960938 C 290.125 68.476562 285.550781 70.933594 285.515625 70.960938 C 285.417969 71.007812 285.324219 71.03125 285.226562 71.03125 C 285.011719 71.03125 284.804688 70.921875 284.699219 70.71875 C 284.542969 70.429688 284.648438 70.058594 284.9375 69.902344 C 285.140625 69.785156 290.136719 67.109375 295.214844 69.902344 C 295.5 70.070312 295.609375 70.429688 295.441406 70.71875 Z M 295.441406 70.71875 " fill-opacity="1" fill-rule="nonzero"/><path fill="#ede6dd" d="M 250.175781 332.296875 C 250.105469 332.296875 250.03125 332.285156 249.960938 332.261719 L 227.980469 323.820312 C 227.667969 323.699219 227.511719 323.351562 227.632812 323.039062 C 227.753906 322.726562 228.101562 322.570312 228.414062 322.691406 L 250.390625 331.136719 C 250.703125 331.253906 250.859375 331.601562 250.738281 331.914062 C 250.644531 332.152344 250.417969 332.296875 250.175781 332.296875 Z M 246.792969 94.558594 L 222.542969 99.105469 C 221.679688 99.273438 221.222656 100.21875 221.632812 101 C 223.011719 103.554688 226.566406 108.230469 233.960938 107.789062 C 244.511719 107.152344 247.476562 99.691406 248.292969 96.121094 C 248.507812 95.207031 247.703125 94.390625 246.792969 94.558594 Z M 246.792969 94.558594 " fill-opacity="1" fill-rule="nonzero"/><path fill="#ede6dd" d="M 452.757812 480.621094 C 452.757812 480.621094 456.324219 489.960938 475.914062 513.753906 C 495.503906 537.558594 485.710938 544.226562 471.90625 548.234375 C 458.101562 552.238281 443.636719 550.222656 439.628906 540.449219 C 435.773438 531.046875 433.167969 520.207031 426.050781 509.089844 C 418.933594 497.972656 424.707031 482.625 424.707031 482.625 C 435.390625 465.726562 452.757812 480.621094 452.757812 480.621094 Z M 330.070312 491.292969 C 326.792969 494.316406 323.074219 496.808594 319.003906 498.621094 C 301.960938 506.164062 272.324219 519.222656 294.144531 533.507812 C 311.71875 545.007812 337.226562 531.335938 344.824219 525.6875 C 347.25 523.878906 349.972656 522.496094 352.867188 521.609375 C 359.851562 519.476562 364.59375 516.886719 367.617188 514.796875 C 370.546875 512.773438 372.5625 509.617188 373.09375 506.09375 C 375.132812 492.707031 370.210938 482.71875 370.210938 482.71875 C 358.496094 468.230469 339.015625 483.042969 330.070312 491.292969 Z M 330.070312 491.292969 " fill-opacity="1" fill-rule="nonzero"/><path fill="#000000" d="M 336.867188 287.085938 C 362.121094 242.089844 438.679688 260.8125 444.5 292.015625 C 449.890625 320.917969 456.023438 455.867188 457.007812 478.160156 C 457.105469 480.238281 456.167969 482.25 454.464844 483.449219 C 443.996094 490.765625 431.632812 487.40625 425.8125 485.105469 C 423.746094 484.289062 422.292969 482.417969 421.996094 480.222656 C 418.742188 456.875 399.355469 319.957031 392.5 324.515625 C 385.683594 329.046875 373.273438 458.722656 371.101562 481.964844 C 370.882812 484.242188 369.429688 486.207031 367.332031 487.097656 C 353.707031 492.804688 343.984375 490 339.171875 487.636719 C 337.058594 486.59375 335.738281 484.433594 335.738281 482.070312 L 336.121094 290.0625 C 336.109375 289.015625 336.363281 287.984375 336.867188 287.085938 Z M 336.867188 287.085938 " fill-opacity="1" fill-rule="nonzero"/><path fill="#f28f69" d="M 448.964844 291.917969 C 448.964844 291.917969 388.347656 299.964844 335.015625 290.382812 L 357.789062 133.105469 L 431.320312 133.105469 Z M 448.964844 291.917969 " fill-opacity="1" fill-rule="nonzero"/><path fill="#6e9692" d="M 371.039062 145.695312 L 379.394531 278.871094 C 379.527344 281.066406 378.253906 283.09375 376.214844 283.921875 C 365.132812 288.382812 330.769531 301.992188 328.113281 300.074219 C 324.945312 297.773438 334.25 232.519531 334.25 232.519531 C 334.25 232.519531 313.148438 245.558594 289.257812 232.519531 C 264.917969 219.234375 269.40625 202.238281 287.820312 182.117188 C 306.234375 161.992188 318.894531 145.996094 328.679688 145.253906 C 328.679688 145.253906 351.355469 128.449219 363.175781 125.585938 C 375.011719 122.695312 371.039062 145.695312 371.039062 145.695312 Z M 417.78125 145.875 L 409.425781 279.050781 C 409.292969 281.246094 410.566406 283.273438 412.609375 284.101562 C 423.6875 288.5625 458.054688 302.171875 460.707031 300.253906 C 463.875 297.953125 454.570312 232.699219 454.570312 232.699219 C 454.570312 232.699219 475.675781 245.738281 499.5625 232.699219 C 523.90625 219.414062 519.414062 202.421875 501 182.296875 C 482.589844 162.171875 466.804688 142.960938 457.019531 142.21875 C 457.019531 142.21875 437.46875 128.628906 425.644531 125.753906 C 413.808594 122.875 417.78125 145.875 417.78125 145.875 Z M 417.78125 145.875 " fill-opacity="1" fill-rule="nonzero"/><path fill="#000000" d="M 416.75 210.359375 C 416.617188 210.359375 416.484375 210.3125 416.363281 210.226562 C 416.113281 210.011719 416.078125 209.640625 416.28125 209.386719 C 431.34375 191.039062 434.503906 177.34375 434.910156 175.269531 L 422.785156 161.800781 C 422.667969 161.667969 422.617188 161.503906 422.644531 161.335938 C 422.667969 161.167969 422.761719 161.011719 422.894531 160.914062 L 435.847656 152.113281 L 423.566406 131.292969 C 423.398438 131.003906 423.496094 130.644531 423.78125 130.476562 C 424.070312 130.308594 424.429688 130.40625 424.597656 130.695312 L 437.167969 151.992188 C 437.324219 152.269531 437.25 152.617188 436.988281 152.796875 L 424.144531 161.527344 L 436.003906 174.707031 C 436.121094 174.835938 436.171875 175.015625 436.148438 175.199219 C 436.050781 175.796875 433.746094 190.03125 417.207031 210.167969 C 417.097656 210.273438 416.929688 210.359375 416.75 210.359375 Z M 369.503906 213.441406 C 369.753906 213.226562 369.792969 212.855469 369.585938 212.601562 C 354.523438 194.253906 351.367188 180.558594 350.957031 178.484375 L 363.082031 165.015625 C 363.203125 164.882812 363.25 164.714844 363.238281 164.546875 C 363.214844 164.378906 363.117188 164.222656 362.972656 164.128906 L 350.019531 155.324219 L 362.300781 134.507812 C 362.46875 134.21875 362.375 133.859375 362.085938 133.691406 C 361.796875 133.523438 361.4375 133.621094 361.269531 133.90625 L 348.699219 155.207031 C 348.546875 155.480469 348.617188 155.828125 348.882812 156.007812 L 361.726562 164.75 L 349.867188 177.929688 C 349.746094 178.0625 349.683594 178.242188 349.722656 178.421875 C 349.816406 179.023438 352.121094 193.257812 368.664062 213.394531 C 368.78125 213.535156 368.949219 213.609375 369.132812 213.609375 C 369.261719 213.574219 369.394531 213.523438 369.503906 213.441406 Z M 456.996094 260.738281 C 457.128906 260.441406 456.984375 260.078125 456.671875 259.960938 L 435.511719 251.121094 C 433.636719 250.34375 432.390625 248.589844 432.257812 246.5625 L 431.585938 235.878906 L 454.105469 245.773438 C 454.402344 245.90625 454.765625 245.773438 454.894531 245.460938 C 455.027344 245.160156 454.894531 244.800781 454.585938 244.667969 L 431.164062 234.378906 C 430.972656 234.296875 430.757812 234.320312 430.578125 234.441406 C 430.410156 234.558594 430.3125 234.765625 430.324219 234.96875 L 431.058594 246.636719 C 431.214844 249.128906 432.738281 251.265625 435.042969 252.238281 L 456.203125 261.074219 C 456.277344 261.109375 456.359375 261.121094 456.433594 261.121094 C 456.683594 261.109375 456.902344 260.96875 456.996094 260.738281 Z M 331.054688 262.753906 L 352.21875 253.914062 C 354.523438 252.957031 356.046875 250.808594 356.203125 248.316406 L 356.933594 236.648438 C 356.949219 236.441406 356.851562 236.238281 356.683594 236.117188 C 356.515625 236 356.289062 235.976562 356.09375 236.058594 L 332.675781 246.347656 C 332.375 246.480469 332.230469 246.839844 332.363281 247.140625 C 332.496094 247.441406 332.855469 247.582031 333.15625 247.453125 L 355.664062 237.558594 L 354.992188 248.242188 C 354.859375 250.269531 353.621094 252.019531 351.738281 252.8125 L 330.574219 261.652344 C 330.277344 261.78125 330.121094 262.128906 330.25 262.429688 C 330.347656 262.65625 330.574219 262.800781 330.804688 262.800781 C 330.898438 262.800781 330.984375 262.777344 331.054688 262.753906 Z M 331.054688 262.753906 " fill-opacity="1" fill-rule="nonzero"/><path fill="#f28f69" d="M 432.484375 128.679688 C 428.609375 146.90625 413.988281 165.664062 391.167969 165.664062 C 368.351562 165.664062 353.730469 147.433594 349.851562 128.679688 C 346.023438 110.125 368.351562 94.367188 391.167969 94.367188 C 413.988281 94.367188 436.421875 110.152344 432.484375 128.679688 Z M 432.484375 128.679688 " fill-opacity="1" fill-rule="nonzero"/><path fill="#ede6dd" d="M 413.339844 129.300781 C 411.539062 137.746094 405.453125 146.390625 395.945312 148.597656 C 394.445312 148.945312 392.851562 149.136719 391.179688 149.136719 C 389.644531 149.136719 388.167969 148.980469 386.777344 148.695312 C 377.066406 146.667969 370.835938 138.09375 369.023438 129.289062 C 366.957031 119.347656 378.9375 110.894531 391.179688 110.894531 C 403.414062 110.90625 415.441406 119.371094 413.339844 129.300781 Z M 394.398438 325.59375 C 394.589844 325.332031 394.53125 324.945312 394.253906 324.753906 L 379.753906 314.429688 C 379.476562 314.238281 379.105469 314.296875 378.914062 314.574219 C 378.722656 314.835938 378.78125 315.222656 379.058594 315.414062 L 393.558594 325.738281 C 393.667969 325.808594 393.785156 325.847656 393.90625 325.847656 C 394.097656 325.847656 394.289062 325.761719 394.398438 325.59375 Z M 394.398438 325.59375 " fill-opacity="1" fill-rule="nonzero"/><path fill="#f4bba8" d="M 418.382812 81.09375 C 418.382812 91.753906 413.964844 102.355469 405.898438 107.152344 C 405.308594 107.511719 404.722656 107.847656 404.132812 108.171875 L 405.417969 120.667969 C 405.597656 122.480469 404.757812 124.230469 403.234375 125.226562 L 391.195312 133.019531 L 391.195312 133.105469 L 391.121094 133.054688 L 391.050781 133.105469 L 391.050781 133.019531 L 379.011719 125.226562 C 377.484375 124.242188 376.632812 122.480469 376.824219 120.667969 L 378.074219 108.554688 C 377.4375 108.207031 376.800781 107.859375 376.140625 107.488281 C 367.835938 102.761719 363.1875 91.96875 363.1875 81.09375 C 363.1875 64.265625 375.539062 50.632812 390.785156 50.632812 C 406.019531 50.632812 418.382812 64.265625 418.382812 81.09375 Z M 418.382812 81.09375 " fill-opacity="1" fill-rule="nonzero"/><path fill="#000000" d="M 406.882812 71.714844 C 406.582031 71.714844 406.28125 71.59375 406.042969 71.367188 C 405.886719 71.222656 402.609375 68.164062 396.800781 69.722656 C 396.164062 69.902344 395.503906 69.519531 395.335938 68.871094 C 395.167969 68.238281 395.539062 67.578125 396.1875 67.410156 C 403.390625 65.480469 407.554688 69.496094 407.734375 69.664062 C 408.203125 70.132812 408.214844 70.886719 407.746094 71.355469 C 407.496094 71.59375 407.183594 71.714844 406.882812 71.714844 Z M 375.242188 72.121094 C 375.277344 72.085938 379.117188 68.355469 384.820312 68.585938 C 385.46875 68.621094 386.042969 68.09375 386.066406 67.433594 C 386.09375 66.773438 385.574219 66.210938 384.914062 66.1875 C 378.132812 65.945312 373.742188 70.238281 373.558594 70.417969 C 373.09375 70.886719 373.09375 71.644531 373.558594 72.109375 C 373.800781 72.351562 374.101562 72.457031 374.414062 72.457031 C 374.699219 72.46875 375.011719 72.351562 375.242188 72.121094 Z M 403.113281 75.949219 C 401.121094 75.949219 399.5 77.566406 399.5 79.558594 C 399.5 81.546875 401.121094 83.167969 403.113281 83.167969 C 405.105469 83.167969 406.726562 81.546875 406.726562 79.558594 C 406.726562 77.554688 405.105469 75.949219 403.113281 75.949219 Z M 379.261719 75.949219 C 377.269531 75.949219 375.648438 77.566406 375.648438 79.558594 C 375.648438 81.546875 377.269531 83.167969 379.261719 83.167969 C 381.253906 83.167969 382.875 81.546875 382.875 79.558594 C 382.875 77.554688 381.253906 75.949219 379.261719 75.949219 Z M 399.210938 42.019531 C 399.210938 42.019531 397.84375 35.882812 389.214844 35.882812 C 379.574219 35.882812 360.957031 43.039062 355.902344 49.179688 C 350.851562 55.320312 362.050781 50.644531 362.050781 50.644531 C 362.050781 50.644531 354.847656 55.320312 354.59375 60.359375 C 354.34375 65.394531 359.660156 81.714844 361.039062 82.089844 C 361.496094 82.207031 363.105469 83.011719 363.835938 81.105469 C 367.101562 72.578125 371.988281 62.996094 379.730469 58.140625 C 384.074219 55.40625 388.890625 53.175781 393.246094 52.945312 C 393.246094 52.945312 396.367188 57.972656 401.324219 58.992188 C 406.28125 60.011719 401.324219 53.042969 401.324219 53.042969 L 403.339844 54.984375 C 408.957031 60.394531 412.871094 67.3125 414.707031 74.894531 C 415.441406 77.890625 416.195312 80.347656 416.738281 80.457031 C 422.332031 81.535156 424.070312 62.589844 423.433594 57.359375 C 422.785156 52.132812 416.101562 47.8125 416.101562 47.8125 C 416.101562 47.8125 421.324219 49.757812 422.425781 46.914062 C 423.53125 44.035156 405.8125 37.441406 399.210938 42.019531 Z M 390.785156 112.367188 C 386.320312 112.367188 382.671875 111 378.648438 108.878906 C 380.222656 113.941406 385.214844 117.632812 391.121094 117.632812 C 397.207031 117.632812 402.308594 113.710938 403.714844 108.410156 C 399.5 110.773438 395.550781 112.367188 390.785156 112.367188 Z M 400.808594 165.101562 C 409.941406 162.785156 416.195312 157.304688 416.449219 157.078125 C 416.699219 156.859375 416.714844 156.476562 416.496094 156.226562 C 416.28125 155.972656 415.898438 155.949219 415.644531 156.175781 C 415.585938 156.238281 409.34375 161.695312 400.496094 163.9375 C 400.171875 164.019531 399.980469 164.34375 400.0625 164.667969 C 400.136719 164.945312 400.375 165.125 400.640625 165.125 C 400.710938 165.125 400.761719 165.113281 400.808594 165.101562 Z M 380.210938 164.140625 C 380.292969 163.816406 380.113281 163.492188 379.789062 163.410156 C 377.832031 162.867188 372.058594 160.0625 372 160.039062 C 371.699219 159.894531 371.339844 160.015625 371.195312 160.316406 C 371.050781 160.613281 371.171875 160.972656 371.472656 161.117188 C 371.710938 161.238281 377.402344 164.007812 379.464844 164.570312 C 379.515625 164.585938 379.574219 164.597656 379.621094 164.597656 C 379.898438 164.585938 380.136719 164.417969 380.210938 164.140625 Z M 380.210938 164.140625 " fill-opacity="1" fill-rule="nonzero"/><path fill="#f4bba8" d="M 371.039062 86.765625 C 371.039062 91.765625 368.832031 96.289062 364.292969 96.289062 C 359.757812 96.289062 354.59375 91.765625 354.59375 86.765625 C 354.59375 81.765625 358.28125 77.722656 362.816406 77.722656 C 367.355469 77.722656 371.039062 81.777344 371.039062 86.765625 Z M 411.203125 86.765625 C 411.203125 91.765625 413.410156 96.289062 417.949219 96.289062 C 422.488281 96.289062 427.648438 91.765625 427.648438 86.765625 C 427.648438 81.765625 423.964844 77.722656 419.425781 77.722656 C 414.875 77.722656 411.203125 81.777344 411.203125 86.765625 Z M 411.203125 86.765625 " fill-opacity="1" fill-rule="nonzero"/><path fill="#6e9692" d="M 398.15625 141.894531 L 395.945312 148.597656 C 394.445312 148.945312 392.851562 149.136719 391.179688 149.136719 C 389.644531 149.136719 388.167969 148.980469 386.777344 148.695312 L 384.015625 142.132812 C 383.582031 141.113281 383.929688 139.941406 384.855469 139.316406 L 391.132812 135.046875 L 397.28125 139.230469 C 398.121094 139.832031 398.492188 140.910156 398.15625 141.894531 Z M 398.15625 141.894531 " fill-opacity="1" fill-rule="nonzero"/><path fill="#000000" d="M 390.640625 92.929688 C 390.472656 92.929688 390.304688 92.855469 390.183594 92.714844 C 389.945312 92.4375 387.878906 89.957031 387.582031 88.683594 C 387.246094 87.28125 389.707031 85.324219 390.773438 84.558594 C 391.039062 84.367188 391.421875 84.425781 391.613281 84.691406 C 391.804688 84.953125 391.746094 85.339844 391.480469 85.53125 C 389.859375 86.707031 388.683594 88.046875 388.757812 88.40625 C 388.9375 89.152344 390.292969 90.972656 391.109375 91.933594 C 391.324219 92.1875 391.289062 92.570312 391.039062 92.773438 C 390.917969 92.882812 390.773438 92.929688 390.640625 92.929688 Z M 405.175781 93.746094 C 405.417969 93.515625 405.417969 93.132812 405.175781 92.894531 C 404.9375 92.652344 404.566406 92.652344 404.324219 92.894531 C 403.90625 93.3125 393.835938 103.0625 380.917969 95.53125 C 380.628906 95.363281 380.269531 95.460938 380.101562 95.746094 C 379.933594 96.035156 380.03125 96.394531 380.316406 96.5625 C 384.050781 98.734375 387.570312 99.523438 390.738281 99.523438 C 399.222656 99.523438 405.09375 93.816406 405.175781 93.746094 Z M 358.386719 87.015625 C 358.617188 84.894531 359.300781 83.429688 360.417969 82.675781 C 361.761719 81.765625 363.34375 82.195312 363.355469 82.207031 C 363.679688 82.292969 364.003906 82.125 364.101562 81.800781 C 364.199219 81.476562 364.015625 81.152344 363.695312 81.058594 C 363.609375 81.03125 361.582031 80.457031 359.757812 81.667969 C 358.328125 82.628906 357.464844 84.378906 357.1875 86.886719 C 357.152344 87.207031 357.390625 87.507812 357.714844 87.542969 C 357.738281 87.542969 357.765625 87.542969 357.777344 87.542969 C 358.101562 87.558594 358.351562 87.328125 358.386719 87.015625 Z M 424.515625 87.558594 C 424.839844 87.519531 425.078125 87.222656 425.042969 86.898438 C 424.765625 84.390625 423.902344 82.640625 422.476562 81.679688 C 420.648438 80.46875 418.621094 81.042969 418.539062 81.070312 C 418.226562 81.164062 418.035156 81.488281 418.128906 81.8125 C 418.226562 82.125 418.550781 82.316406 418.875 82.21875 C 418.886719 82.21875 420.46875 81.777344 421.816406 82.6875 C 422.929688 83.441406 423.613281 84.894531 423.84375 87.027344 C 423.878906 87.339844 424.132812 87.570312 424.441406 87.570312 C 424.46875 87.558594 424.492188 87.558594 424.515625 87.558594 Z M 377.820312 144.59375 L 391.121094 135.765625 L 404.421875 144.59375 C 404.699219 144.773438 405.070312 144.699219 405.25 144.425781 C 405.429688 144.148438 405.359375 143.777344 405.082031 143.597656 L 391.457031 134.554688 C 391.253906 134.421875 391 134.421875 390.796875 134.554688 L 377.160156 143.597656 C 376.886719 143.777344 376.8125 144.148438 376.992188 144.425781 C 377.113281 144.605469 377.292969 144.6875 377.496094 144.6875 C 377.605469 144.6875 377.714844 144.664062 377.820312 144.59375 Z M 326.160156 202.671875 C 326.339844 202.394531 326.253906 202.023438 325.976562 201.84375 C 302.128906 186.375 287.964844 198.019531 287.820312 198.140625 C 287.566406 198.355469 287.53125 198.726562 287.746094 198.976562 C 287.964844 199.230469 288.335938 199.265625 288.585938 199.050781 C 288.71875 198.941406 302.257812 187.886719 325.316406 202.851562 C 325.414062 202.910156 325.535156 202.949219 325.640625 202.949219 C 325.847656 202.949219 326.050781 202.851562 326.160156 202.671875 Z M 338.796875 191.316406 C 339.121094 191.242188 339.328125 190.917969 339.253906 190.59375 L 329.28125 145.109375 C 329.207031 144.785156 328.882812 144.582031 328.558594 144.652344 C 328.234375 144.722656 328.03125 145.046875 328.101562 145.371094 L 338.078125 190.859375 C 338.136719 191.136719 338.390625 191.328125 338.667969 191.328125 C 338.703125 191.328125 338.75 191.328125 338.796875 191.316406 Z M 451.847656 191.867188 L 457.042969 144.160156 C 457.082031 143.835938 456.839844 143.539062 456.515625 143.5 C 456.214844 143.476562 455.890625 143.707031 455.855469 144.027344 L 450.660156 191.734375 C 450.621094 192.058594 450.863281 192.359375 451.1875 192.394531 C 451.210938 192.394531 451.234375 192.394531 451.246094 192.394531 C 451.558594 192.394531 451.8125 192.167969 451.847656 191.867188 Z M 460.082031 202.058594 C 474.113281 191.554688 499.226562 194.925781 499.476562 194.960938 C 499.800781 195.007812 500.113281 194.78125 500.148438 194.445312 C 500.199219 194.121094 499.96875 193.808594 499.632812 193.773438 C 498.589844 193.628906 473.789062 190.296875 459.351562 201.101562 C 459.085938 201.304688 459.027344 201.675781 459.230469 201.941406 C 459.351562 202.097656 459.53125 202.179688 459.710938 202.179688 C 459.855469 202.179688 459.972656 202.144531 460.082031 202.058594 Z M 460.082031 202.058594 " fill-opacity="1" fill-rule="nonzero"/><path fill="#000000" d="M 333.683594 240.21875 C 333.445312 240.21875 333.203125 240.195312 332.964844 240.148438 C 331.019531 239.753906 329.757812 237.859375 330.15625 235.902344 C 338.449219 195.042969 341.859375 133.535156 341.894531 132.910156 C 342.003906 130.933594 343.683594 129.410156 345.6875 129.519531 C 347.667969 129.625 349.191406 131.316406 349.085938 133.308594 C 349.050781 133.929688 345.617188 195.957031 337.214844 237.34375 C 336.867188 239.03125 335.363281 240.21875 333.683594 240.21875 Z M 455.582031 240.148438 C 457.523438 239.753906 458.785156 237.859375 458.390625 235.902344 C 450.09375 195.042969 446.6875 133.535156 446.648438 132.910156 C 446.542969 130.933594 444.8125 129.410156 442.855469 129.519531 C 440.875 129.625 439.351562 131.316406 439.460938 133.308594 C 439.496094 133.929688 442.929688 195.957031 451.332031 237.34375 C 451.679688 239.046875 453.179688 240.21875 454.859375 240.21875 C 455.101562 240.21875 455.339844 240.195312 455.582031 240.148438 Z M 446.335938 499.066406 C 452.808594 492.839844 460.800781 494.601562 460.886719 494.617188 C 461.367188 494.722656 461.859375 494.421875 461.964844 493.945312 C 462.074219 493.464844 461.773438 492.972656 461.292969 492.863281 C 460.933594 492.78125 452.292969 490.851562 445.089844 497.769531 C 444.730469 498.117188 444.71875 498.679688 445.066406 499.039062 C 445.246094 499.21875 445.472656 499.316406 445.714844 499.316406 C 445.941406 499.316406 446.167969 499.234375 446.335938 499.066406 Z M 452.097656 506.738281 C 458.570312 500.515625 466.5625 502.277344 466.648438 502.289062 C 467.128906 502.398438 467.621094 502.097656 467.726562 501.617188 C 467.835938 501.140625 467.535156 500.648438 467.054688 500.539062 C 466.695312 500.457031 458.042969 498.523438 450.851562 505.445312 C 450.492188 505.792969 450.480469 506.355469 450.828125 506.714844 C 451.007812 506.894531 451.234375 506.992188 451.476562 506.992188 C 451.703125 506.992188 451.917969 506.90625 452.097656 506.738281 Z M 457.464844 516.644531 C 463.933594 510.421875 471.929688 512.183594 472.011719 512.195312 C 472.492188 512.304688 472.984375 512.003906 473.09375 511.523438 C 473.203125 511.046875 472.902344 510.554688 472.421875 510.445312 C 472.0625 510.363281 463.417969 508.429688 456.214844 515.351562 C 455.855469 515.699219 455.84375 516.261719 456.191406 516.621094 C 456.371094 516.800781 456.601562 516.898438 456.839844 516.898438 C 457.070312 516.898438 457.285156 516.8125 457.464844 516.644531 Z M 339.625 503.539062 C 340.09375 503.382812 340.359375 502.878906 340.203125 502.410156 C 337.453125 493.96875 330 492.21875 329.6875 492.144531 C 329.207031 492.050781 328.726562 492.347656 328.617188 492.828125 C 328.511719 493.308594 328.8125 493.789062 329.304688 493.90625 C 329.578125 493.96875 336.085938 495.527344 338.496094 502.972656 C 338.617188 503.359375 338.976562 503.597656 339.351562 503.597656 C 339.433594 503.585938 339.53125 503.574219 339.625 503.539062 Z M 332.160156 507.578125 C 332.628906 507.421875 332.890625 506.917969 332.734375 506.453125 C 329.988281 498.007812 322.535156 496.257812 322.222656 496.1875 C 321.742188 496.078125 321.261719 496.390625 321.152344 496.871094 C 321.042969 497.351562 321.34375 497.828125 321.835938 497.949219 C 322.113281 498.007812 328.617188 499.570312 331.03125 507.015625 C 331.152344 507.398438 331.511719 507.640625 331.882812 507.640625 C 331.980469 507.628906 332.0625 507.617188 332.160156 507.578125 Z M 322.976562 512.460938 C 323.445312 512.304688 323.710938 511.800781 323.554688 511.332031 C 320.804688 502.890625 313.351562 501.140625 313.039062 501.066406 C 312.546875 500.960938 312.078125 501.269531 311.96875 501.75 C 311.863281 502.230469 312.175781 502.722656 312.65625 502.832031 C 312.726562 502.84375 319.425781 504.414062 321.847656 511.882812 C 321.96875 512.269531 322.328125 512.507812 322.703125 512.507812 C 322.796875 512.507812 322.882812 512.496094 322.976562 512.460938 Z M 322.976562 512.460938 " fill-opacity="1" fill-rule="nonzero"/><path fill="#ede6dd" d="M 311.632812 215.097656 C 313.277344 206.84375 319.554688 201.136719 325.652344 202.347656 C 331.753906 203.558594 335.363281 211.234375 333.71875 219.484375 C 332.074219 227.734375 325.796875 233.445312 319.699219 232.234375 C 313.601562 231.023438 309.988281 223.347656 311.632812 215.097656 Z M 477.605469 214.449219 C 475.960938 206.199219 469.683594 200.488281 463.585938 201.699219 C 457.488281 202.910156 453.875 210.585938 455.519531 218.835938 C 457.164062 227.089844 463.441406 232.796875 469.539062 231.585938 C 475.652344 230.375 479.25 222.699219 477.605469 214.449219 Z M 477.605469 214.449219 " fill-opacity="1" fill-rule="nonzero"/><path fill="#f4bba8" d="M 318.1875 222.542969 C 317.457031 219.640625 317.109375 215.417969 319.039062 210.730469 C 319.542969 209.496094 320.324219 208.40625 321.25 207.433594 C 324.824219 203.714844 334.898438 193.4375 337.992188 192.429688 C 341.785156 191.207031 352.636719 197.898438 352.507812 200.5 C 352.375 203.089844 348.460938 204.640625 348.460938 204.640625 C 348.460938 204.640625 350.621094 206.199219 349.949219 209.316406 C 349.277344 212.433594 346.503906 212.121094 346.503906 212.121094 C 346.503906 212.121094 349.804688 217.972656 344.703125 219.675781 C 344.703125 219.675781 347.632812 224.929688 342.808594 225.828125 C 339.328125 226.476562 328.894531 226.574219 323.324219 226.574219 C 320.902344 226.574219 318.789062 224.917969 318.1875 222.542969 Z M 471.054688 221.894531 C 471.785156 218.992188 472.132812 214.773438 470.199219 210.082031 C 469.695312 208.847656 468.917969 207.757812 467.992188 206.785156 C 464.414062 203.066406 454.34375 192.789062 451.246094 191.78125 C 447.453125 190.558594 436.601562 197.25 436.734375 199.855469 C 436.867188 202.445312 440.78125 203.992188 440.78125 203.992188 C 440.78125 203.992188 438.621094 205.550781 439.292969 208.667969 C 439.964844 211.785156 442.738281 211.472656 442.738281 211.472656 C 442.738281 211.472656 439.4375 217.328125 444.539062 219.03125 C 444.539062 219.03125 441.609375 224.28125 446.433594 225.183594 C 449.914062 225.828125 460.347656 225.925781 465.914062 225.925781 C 468.351562 225.925781 470.453125 224.257812 471.054688 221.894531 Z M 471.054688 221.894531 " fill-opacity="1" fill-rule="nonzero"/><path fill="#000000" d="M 349.660156 205.117188 C 349.554688 205.117188 349.445312 205.09375 349.347656 205.035156 C 349.289062 205 343.792969 201.699219 340.167969 200.5 C 339.855469 200.394531 339.6875 200.058594 339.78125 199.746094 C 339.890625 199.433594 340.226562 199.265625 340.539062 199.363281 C 344.285156 200.609375 349.734375 203.871094 349.960938 204.015625 C 350.25 204.183594 350.332031 204.554688 350.164062 204.84375 C 350.070312 205.023438 349.867188 205.117188 349.660156 205.117188 Z M 348.066406 212.132812 C 348.171875 211.820312 348.003906 211.472656 347.691406 211.378906 C 347.417969 211.28125 340.828125 209.039062 337.585938 208.523438 C 337.25 208.464844 336.949219 208.691406 336.902344 209.015625 C 336.855469 209.339844 337.070312 209.652344 337.394531 209.699219 C 340.539062 210.203125 347.238281 212.480469 347.308594 212.503906 C 347.367188 212.53125 347.441406 212.542969 347.5 212.542969 C 347.742188 212.542969 347.980469 212.386719 348.066406 212.132812 Z M 346.074219 219.570312 C 346.144531 219.246094 345.941406 218.921875 345.628906 218.851562 C 345.339844 218.777344 338.402344 217.183594 335.832031 217.363281 C 335.496094 217.386719 335.257812 217.675781 335.28125 218 C 335.304688 218.335938 335.59375 218.585938 335.917969 218.550781 C 338.328125 218.382812 345.292969 219.988281 345.351562 220 C 345.398438 220.011719 345.449219 220.011719 345.484375 220.011719 C 345.761719 220.035156 346 219.855469 346.074219 219.570312 Z M 439.890625 204.386719 C 439.953125 204.351562 445.449219 201.054688 449.074219 199.855469 C 449.386719 199.746094 449.554688 199.410156 449.457031 199.097656 C 449.351562 198.785156 449.015625 198.605469 448.703125 198.714844 C 444.945312 199.960938 439.507812 203.222656 439.28125 203.367188 C 438.992188 203.535156 438.90625 203.90625 439.074219 204.195312 C 439.183594 204.386719 439.386719 204.484375 439.589844 204.484375 C 439.6875 204.472656 439.796875 204.445312 439.890625 204.386719 Z M 441.945312 211.859375 C 442.015625 211.835938 448.714844 209.554688 451.859375 209.050781 C 452.183594 209.003906 452.410156 208.691406 452.363281 208.367188 C 452.316406 208.042969 451.992188 207.816406 451.679688 207.875 C 448.4375 208.390625 441.847656 210.636719 441.574219 210.730469 C 441.261719 210.839844 441.09375 211.175781 441.199219 211.488281 C 441.285156 211.738281 441.523438 211.894531 441.765625 211.894531 C 441.824219 211.894531 441.882812 211.882812 441.945312 211.859375 Z M 443.902344 219.378906 C 443.972656 219.367188 450.945312 217.757812 453.335938 217.925781 C 453.660156 217.9375 453.949219 217.699219 453.972656 217.375 C 453.996094 217.039062 453.742188 216.761719 453.417969 216.738281 C 450.839844 216.558594 443.925781 218.152344 443.625 218.226562 C 443.300781 218.296875 443.097656 218.621094 443.167969 218.945312 C 443.230469 219.222656 443.480469 219.414062 443.757812 219.414062 C 443.816406 219.390625 443.851562 219.390625 443.902344 219.378906 Z M 443.902344 219.378906 " fill-opacity="1" fill-rule="nonzero"/></svg>