<svg xmlns="http://www.w3.org/2000/svg" xmlns:xlink="http://www.w3.org/1999/xlink" width="711" zoomAndPan="magnify" viewBox="0 0 533.25 428.99999" height="572" preserveAspectRatio="xMidYMid meet" version="1.0"><defs><clipPath id="d5a3ded11b"><path d="M 33 24 L 455 24 L 455 389.753906 L 33 389.753906 Z M 33 24 " clip-rule="nonzero"/></clipPath><clipPath id="588b7a76e6"><path d="M 42 0.300781 L 491 0.300781 L 491 354 L 42 354 Z M 42 0.300781 " clip-rule="nonzero"/></clipPath></defs><path fill="#a3e635" d="M 326.132812 4.097656 C 319.589844 1.167969 311.355469 0.289062 300.753906 1.929688 L 300.753906 1.933594 C 300.609375 1.953125 300.464844 1.964844 300.324219 1.964844 C 300.25 1.964844 300.179688 1.996094 300.128906 2.042969 L 300.105469 2.035156 C 300.019531 2.058594 299.933594 2.082031 299.847656 2.097656 L 299.84375 2.097656 C 272.746094 7.410156 243.882812 13.976562 227.484375 28.34375 C 222.242188 32.9375 217.210938 37.976562 213.261719 44.15625 C 182.8125 91.800781 163.011719 120.589844 153.078125 129 C 153.027344 129.042969 152.992188 129.105469 152.980469 129.175781 L 152.964844 129.167969 C 146.003906 138.605469 113.667969 165.425781 58.253906 210.757812 C 47.046875 219.925781 39.472656 228.570312 33.808594 235.042969 C 33.097656 235.851562 32.726562 236.273438 32.058594 237.035156 C 4.867188 267.871094 0.0820312 298.558594 17.195312 330.679688 C 25.425781 346.125 38.082031 357.855469 55.382812 365.601562 C 74.988281 374.378906 100.546875 378.039062 132.390625 376.230469 C 154.910156 374.949219 175.15625 372.578125 192.664062 367.640625 C 244.289062 353.089844 316.03125 336.078125 408.171875 317.152344 C 425.925781 313.507812 440.410156 308.152344 452.121094 303.066406 C 510.582031 277.6875 531.976562 245.082031 517.417969 206.238281 C 514.289062 197.890625 507.554688 190.113281 497.820312 185.210938 C 446.65625 159.449219 415.972656 143.738281 410.085938 134.953125 L 410.070312 134.945312 C 410.058594 134.882812 410.027344 134.828125 409.980469 134.785156 C 402.566406 128.054688 394.359375 119.558594 388.589844 107.679688 C 363.144531 55.253906 346.4375 24.222656 337.820312 13.359375 C 334.636719 9.351562 330.828125 6.199219 326.132812 4.097656 Z M 326.132812 4.097656 " fill-opacity="1" fill-rule="nonzero"/><path fill="#000000" d="M 210.660156 25.289062 C 189.109375 38.65625 166.535156 53.625 157.164062 71.203125 C 154.15625 76.835938 151.488281 82.773438 150.113281 89.324219 C 139.355469 140.515625 131.65625 171.800781 125.816406 182.019531 L 126.09375 181.320312 C 123.730469 191.039062 104.554688 224.78125 71.109375 282.710938 C 64.476562 294.199219 60.789062 304.058594 58.023438 311.449219 C 57.746094 312.195312 57.429688 313.039062 57.171875 313.726562 C 43.871094 348.933594 49.714844 376.707031 74.738281 398.644531 C 100.402344 421.140625 137.816406 422.667969 188.117188 400.308594 C 207.023438 391.902344 223.613281 383.304688 237.019531 373.402344 C 276.613281 344.152344 332.671875 306.265625 405.621094 260.109375 C 419.65625 251.230469 430.339844 241.945312 438.730469 233.789062 C 480.644531 193.058594 488.296875 158.292969 463.335938 129.84375 C 457.988281 123.746094 449.742188 119.285156 439.859375 118.246094 C 386.472656 112.621094 354.683594 109.058594 347.613281 103.144531 L 348.355469 103.582031 C 339.71875 100.199219 329.738281 95.542969 320.785156 87.074219 C 281.921875 50.328125 257.53125 29.140625 246.640625 22.632812 C 237.066406 16.914062 226.046875 16.550781 211.378906 24.855469 C 210.089844 25.585938 208.449219 25.132812 207.71875 23.84375 C 206.988281 22.554688 207.445312 20.917969 208.734375 20.1875 C 224.6875 11.152344 237.808594 11.105469 249.394531 18.027344 C 260.910156 24.90625 285.785156 46.59375 324.472656 83.175781 C 332.6875 90.941406 341.917969 95.292969 350.3125 98.585938 C 350.582031 98.691406 350.835938 98.839844 351.054688 99.027344 C 356.472656 103.554688 385.460938 107.117188 440.421875 112.90625 C 451.574219 114.082031 461.085938 119.136719 467.371094 126.304688 C 495.324219 158.167969 484.960938 196.347656 442.46875 237.640625 C 433.898438 245.972656 422.925781 255.511719 408.492188 264.644531 C 335.601562 310.765625 279.65625 348.574219 240.207031 377.71875 C 226.339844 387.964844 209.332031 396.753906 190.296875 405.214844 C 139.195312 427.933594 99.179688 427.210938 71.199219 402.679688 C 44.234375 379.042969 38.1875 348.792969 52.148438 311.832031 C 52.414062 311.132812 52.710938 310.335938 52.996094 309.570312 C 55.773438 302.144531 59.589844 291.929688 66.460938 280.027344 C 100.269531 221.464844 118.753906 188.78125 120.878906 180.050781 C 120.9375 179.808594 121.03125 179.574219 121.15625 179.355469 C 126.460938 170.074219 133.996094 139.925781 144.859375 88.21875 C 146.386719 80.953125 149.316406 74.503906 152.425781 68.675781 C 162.609375 49.578125 186.609375 33.890625 207.832031 20.726562 C 209.09375 19.945312 210.746094 20.335938 211.527344 21.59375 C 212.308594 22.851562 211.921875 24.507812 210.660156 25.289062 Z M 210.660156 25.289062 " fill-opacity="1" fill-rule="nonzero"/><path fill="#e67d22" d="M 200.792969 174.820312 C 200.816406 174.929688 200.824219 175.042969 200.804688 175.152344 L 200.425781 177.453125 L 200.179688 178.949219 C 200.054688 179.703125 199.683594 180.398438 199.121094 180.925781 L 194.765625 184.984375 L 194.664062 186.050781 C 194.742188 186.136719 194.742188 186.261719 194.675781 186.347656 L 183.6875 200.429688 C 183.035156 201.277344 177.679688 201.230469 176.992188 200.722656 L 169.851562 195.703125 C 169.804688 195.671875 169.746094 195.703125 169.746094 195.75 L 169.066406 200.820312 C 169.054688 201.785156 169.21875 202.742188 169.550781 203.648438 L 176.707031 222.914062 C 176.753906 223.03125 176.6875 223.164062 176.570312 223.203125 L 175.761719 223.515625 L 183.210938 241.367188 C 183.839844 242.753906 184.171875 244.25 184.183594 245.769531 L 185.644531 277.464844 C 185.652344 277.550781 185.578125 277.625 185.480469 277.625 L 185.324219 277.941406 L 185.554688 281.3125 C 185.675781 282.277344 186.191406 283.144531 186.996094 283.699219 L 193.183594 288.023438 L 193.308594 288.835938 L 194.71875 289.671875 C 195.101562 289.945312 195.328125 290.375 195.328125 290.84375 L 194.953125 292.230469 C 194.953125 292.582031 194.667969 292.867188 194.3125 292.867188 L 185.3125 292.839844 C 184.882812 292.839844 184.484375 292.648438 184.195312 292.332031 L 179.992188 287.945312 C 179.925781 287.871094 179.800781 287.917969 179.800781 288.015625 L 179.574219 292.28125 C 179.574219 292.597656 179.316406 292.855469 179.003906 292.855469 L 176.675781 292.730469 C 176.398438 292.730469 176.160156 292.539062 176.101562 292.28125 C 175.453125 289.320312 175.316406 287.15625 176.050781 284.082031 C 176.097656 283.890625 175.84375 283.441406 175.851562 283.242188 C 175.851562 283.144531 175.851562 283.039062 175.84375 282.933594 L 175.457031 278.121094 L 175.453125 278.117188 L 175.105469 277.851562 C 175.007812 277.851562 174.933594 277.777344 174.933594 277.691406 L 175.496094 248.570312 C 175.484375 247.660156 175.21875 246.78125 174.722656 246.019531 L 161.972656 226.460938 C 161.90625 226.355469 161.800781 226.28125 161.675781 226.25 L 157.636719 225.710938 C 157.472656 225.671875 157.300781 225.789062 157.273438 225.949219 L 151.601562 253.78125 C 151.382812 254.90625 151.011719 256.003906 150.496094 257.027344 L 137.429688 284.3125 C 137.34375 284.484375 137.144531 284.550781 136.972656 284.484375 L 136.257812 285.328125 L 136.257812 285.332031 L 135.652344 286.574219 L 135.1875 287.539062 C 134.933594 288.15625 134.878906 288.824219 134.996094 289.464844 C 135.050781 289.757812 135.128906 290.050781 135.265625 290.324219 L 136.582031 293.113281 L 138.492188 297.140625 L 138.492188 297.144531 L 138.507812 297.980469 L 139.078125 299.394531 C 139.164062 299.585938 139.15625 299.804688 139.058594 299.988281 L 137.988281 301.980469 C 137.816406 302.285156 137.425781 302.390625 137.109375 302.21875 L 129.199219 297.625 C 128.824219 297.414062 128.566406 297.042969 128.480469 296.632812 L 127.167969 290.304688 C 127.148438 290.210938 127.015625 290.191406 126.964844 290.277344 L 124.570312 294.414062 C 124.410156 294.683594 124.066406 294.785156 123.789062 294.625 L 121.660156 293.027344 C 121.421875 292.882812 121.304688 292.605469 121.382812 292.347656 C 122.289062 289.457031 123.394531 287.515625 125.550781 285.214844 C 125.683594 285.070312 125.695312 284.578125 125.800781 284.40625 C 125.851562 284.328125 125.90625 284.234375 125.945312 284.136719 L 127.214844 281.425781 L 126.84375 280.539062 C 126.664062 280.464844 126.578125 280.234375 126.671875 280.054688 L 141.183594 253.941406 C 141.59375 253.140625 141.824219 252.253906 141.851562 251.355469 C 142.117188 244.195312 142.320312 235.597656 142.769531 228.675781 L 140.894531 228.570312 C 140.761719 228.558594 140.667969 228.445312 140.675781 228.320312 L 142.542969 206.449219 C 142.601562 205.769531 142.234375 204.476562 142.113281 203.816406 L 141.464844 202.175781 L 136.222656 209.941406 C 135.71875 210.855469 135.316406 211.820312 135.019531 212.824219 L 130.269531 235.269531 C 130.25 235.355469 130.164062 235.40625 130.078125 235.375 L 129.664062 235.511719 L 129.726562 235.835938 C 129.753906 235.964844 129.757812 236.09375 129.777344 236.222656 C 129.8125 236.496094 129.835938 236.769531 129.835938 237.046875 C 129.835938 237.25 129.84375 237.457031 129.824219 237.660156 L 129.652344 239.597656 L 129.59375 240.265625 C 129.59375 240.265625 129.589844 240.265625 129.589844 240.269531 C 129.589844 240.292969 129.574219 240.308594 129.570312 240.328125 C 129.550781 240.410156 129.53125 240.492188 129.484375 240.554688 C 129.441406 240.617188 129.382812 240.65625 129.320312 240.695312 C 129.300781 240.710938 129.285156 240.730469 129.265625 240.742188 C 129.203125 240.773438 129.132812 240.777344 129.0625 240.785156 C 129.035156 240.789062 129.007812 240.804688 128.980469 240.800781 C 128.929688 240.800781 128.878906 240.769531 128.824219 240.75 C 128.78125 240.734375 128.734375 240.734375 128.695312 240.703125 C 128.695312 240.703125 128.695312 240.703125 128.691406 240.703125 C 128.304688 240.433594 127.90625 239.980469 127.726562 239.300781 C 127.691406 239.164062 127.652344 239.035156 127.636719 238.882812 C 127.625 238.769531 127.613281 238.660156 127.597656 238.550781 C 127.59375 238.527344 127.589844 238.5 127.585938 238.476562 C 127.566406 238.363281 127.546875 238.253906 127.511719 238.144531 L 127.03125 237.1875 L 126.527344 236.191406 L 126.074219 238.023438 L 125.757812 239.328125 C 125.742188 239.394531 125.742188 239.457031 125.738281 239.523438 C 125.71875 239.726562 125.726562 239.929688 125.78125 240.132812 C 126.023438 240.914062 126.460938 242.746094 125.945312 244.152344 C 125.914062 244.238281 125.867188 244.3125 125.804688 244.375 C 125.792969 244.386719 125.777344 244.390625 125.765625 244.402344 C 125.71875 244.449219 125.664062 244.492188 125.605469 244.523438 C 125.453125 244.59375 125.277344 244.613281 125.105469 244.566406 L 123.269531 244.03125 L 121.621094 243.550781 C 121.488281 243.511719 121.375 243.433594 121.273438 243.347656 C 121.136719 243.226562 121.035156 243.070312 120.988281 242.890625 C 120.976562 242.851562 120.957031 242.816406 120.953125 242.777344 L 120.59375 240.335938 L 120.320312 238.46875 C 120.25 237.984375 120.308594 237.488281 120.488281 237.03125 L 121.84375 233.636719 L 122.171875 232.808594 L 122.171875 232.804688 L 120.960938 231.960938 C 120.882812 231.929688 120.84375 231.855469 120.863281 231.777344 L 127.894531 210.046875 C 128.164062 209.160156 128.449219 208.273438 128.765625 207.402344 L 135.671875 187.019531 C 133.90625 185.1875 133.097656 182.296875 133.839844 179.871094 C 133.886719 179.691406 133.394531 179.449219 133.242188 179.546875 C 133.242188 179.546875 132.449219 179.988281 131.742188 180.429688 C 131.246094 180.742188 130.863281 180.734375 130.917969 180.144531 C 131.511719 174.605469 134.378906 171.550781 140.976562 170.011719 C 143.671875 169.375 144.902344 167.667969 145.304688 167.113281 C 145.457031 166.914062 145.476562 166.667969 145.378906 166.4375 C 144.910156 165.261719 145.117188 163.683594 145.117188 162.300781 C 145.117188 158.214844 148.199219 156.117188 152.582031 156.117188 C 156.972656 156.117188 159.671875 158.289062 159.671875 162.375 C 159.671875 162.929688 160.46875 163.652344 160.28125 164.1875 C 160.28125 164.191406 160.28125 164.191406 160.28125 164.191406 C 160.683594 164.621094 160.863281 165.296875 160.785156 166.019531 C 160.78125 166.042969 160.773438 166.066406 160.769531 166.089844 C 160.75 166.246094 160.722656 166.40625 160.679688 166.566406 C 160.65625 166.640625 160.621094 166.714844 160.59375 166.792969 C 160.554688 166.898438 160.523438 167.007812 160.476562 167.109375 C 160.453125 167.15625 160.421875 167.199219 160.398438 167.246094 C 160.328125 167.378906 160.257812 167.511719 160.171875 167.636719 C 160.050781 167.804688 159.914062 167.96875 159.761719 168.125 C 159.351562 168.53125 158.820312 168.875 158.152344 169.085938 L 158.589844 170.949219 L 159.03125 172.828125 L 165.765625 177.289062 C 168.34375 178.550781 170.585938 180.390625 172.316406 182.675781 L 179.453125 191.546875 C 179.527344 191.652344 179.671875 191.652344 179.746094 191.566406 L 189.488281 180.390625 C 189.582031 180.285156 189.746094 180.285156 189.839844 180.390625 L 190.402344 180.066406 L 190.914062 178.730469 L 192.285156 175.15625 C 192.484375 174.652344 193.191406 174.585938 193.441406 175.0625 C 193.449219 175.082031 193.457031 175.105469 193.464844 175.121094 C 193.558594 175.320312 193.621094 175.578125 193.632812 175.894531 C 193.636719 175.988281 193.636719 176.085938 193.628906 176.195312 C 193.621094 176.320312 193.609375 176.449219 193.585938 176.589844 C 193.542969 176.820312 193.558594 177.054688 193.652344 177.265625 L 193.996094 178.03125 C 194.109375 178.28125 194.441406 178.316406 194.59375 178.089844 L 195.683594 176.53125 L 196.234375 175.742188 C 196.476562 175.394531 196.617188 174.988281 196.652344 174.570312 C 196.660156 174.433594 196.660156 174.300781 196.648438 174.164062 C 196.601562 173.640625 196.648438 172.933594 197.097656 172.292969 C 197.203125 172.144531 197.355469 172.058594 197.519531 172.015625 C 197.765625 171.945312 198.039062 171.984375 198.242188 172.175781 C 198.355469 172.28125 198.492188 172.410156 198.628906 172.539062 C 198.945312 172.835938 199.289062 173.160156 199.632812 173.484375 C 199.972656 173.800781 200.296875 174.105469 200.523438 174.324219 C 200.605469 174.402344 200.667969 174.492188 200.714844 174.589844 C 200.75 174.664062 200.777344 174.738281 200.792969 174.820312 Z M 383.957031 103.160156 C 383.941406 103.058594 383.910156 102.957031 383.859375 102.863281 L 382.789062 100.886719 L 382.050781 99.511719 C 382.019531 99.460938 381.984375 99.417969 381.941406 99.378906 C 381.785156 99.21875 381.550781 99.144531 381.335938 99.230469 C 381.15625 99.304688 380.980469 99.402344 380.808594 99.496094 C 380.546875 99.632812 380.296875 99.800781 380.050781 99.980469 C 380.011719 100.011719 379.972656 100.039062 379.933594 100.070312 C 379.699219 100.25 379.46875 100.441406 379.242188 100.652344 C 378.996094 100.882812 378.753906 101.121094 378.515625 101.382812 C 378.457031 101.453125 378.375 101.507812 378.300781 101.570312 C 378.246094 101.613281 378.199219 101.667969 378.140625 101.703125 C 377.449219 102.125 375.308594 103.433594 375.230469 103.480469 C 375.226562 103.480469 375.214844 103.488281 375.214844 103.488281 L 375.492188 101.992188 C 375.503906 101.890625 375.539062 101.800781 375.566406 101.703125 C 375.632812 101.453125 375.730469 101.214844 375.890625 101.007812 C 376.117188 100.714844 376.398438 100.265625 376.539062 99.753906 C 376.582031 99.601562 376.617188 99.445312 376.628906 99.285156 C 376.640625 99.132812 376.605469 98.996094 376.539062 98.882812 C 376.480469 98.78125 376.390625 98.699219 376.292969 98.640625 C 376.28125 98.632812 376.273438 98.621094 376.261719 98.617188 C 376.234375 98.601562 376.203125 98.59375 376.175781 98.585938 C 376.144531 98.574219 376.113281 98.558594 376.082031 98.550781 C 376.070312 98.546875 376.054688 98.550781 376.042969 98.546875 C 375.863281 98.519531 375.671875 98.554688 375.507812 98.6875 L 373.003906 100.699219 C 372.875 100.804688 372.757812 100.921875 372.636719 101.03125 C 372.5625 101.097656 372.484375 101.160156 372.414062 101.226562 L 369.460938 104.230469 L 369.019531 104.683594 L 369.015625 104.683594 L 368.304688 104.664062 C 368.269531 104.578125 368.183594 104.542969 368.097656 104.578125 L 351.773438 111.703125 C 351.316406 111.882812 350.789062 111.828125 350.371094 111.558594 L 336.691406 102.523438 C 335.441406 101.699219 334.132812 100.964844 332.777344 100.335938 L 326.855469 96.234375 L 326.84375 96.226562 L 325.804688 92.808594 L 326.070312 92.5 C 326.695312 92.171875 327.164062 91.738281 327.496094 91.265625 C 327.511719 91.238281 327.535156 91.214844 327.550781 91.191406 C 327.585938 91.136719 327.613281 91.082031 327.648438 91.023438 C 327.6875 90.953125 327.734375 90.878906 327.773438 90.808594 C 327.785156 90.777344 327.792969 90.75 327.808594 90.722656 C 327.855469 90.621094 327.898438 90.519531 327.933594 90.417969 C 327.960938 90.347656 327.972656 90.277344 327.992188 90.207031 C 328.007812 90.144531 328.03125 90.085938 328.042969 90.023438 C 328.070312 89.894531 328.085938 89.765625 328.09375 89.636719 C 328.09375 89.636719 328.09375 89.632812 328.09375 89.632812 C 328.941406 87.40625 328.339844 85.625 328.003906 84.203125 C 327.824219 83.441406 327.222656 82.855469 326.46875 82.675781 L 326.046875 82.601562 C 325.757812 82.535156 325.519531 82.355469 325.359375 82.105469 L 324.976562 81.496094 C 324.671875 81.007812 324.183594 80.652344 323.609375 80.550781 C 321.023438 80.070312 318.988281 80.21875 316.238281 80.457031 C 315.265625 80.542969 314.472656 81.289062 314.339844 82.261719 C 314.082031 84.246094 313.980469 85.449219 314.371094 87.042969 C 314.371094 87.046875 314.371094 87.046875 314.375 87.050781 L 314.375 87.054688 L 314.382812 87.058594 C 314.371094 87.246094 314.378906 87.433594 314.371094 87.621094 C 314.328125 88.796875 314.351562 89.976562 314.480469 91.125 C 314.632812 92.453125 314.898438 93.742188 315.289062 94.945312 C 315.328125 95.0625 315.390625 95.164062 315.457031 95.257812 C 315.542969 95.386719 315.648438 95.5 315.773438 95.589844 C 315.996094 95.746094 316.261719 95.832031 316.539062 95.832031 L 316.90625 95.832031 L 316.804688 96.597656 L 312.113281 99.789062 C 309.265625 100.9375 306.996094 103.179688 305.820312 106.027344 L 298.050781 124.78125 L 288.464844 146.933594 C 288.433594 147.019531 288.472656 147.113281 288.550781 147.144531 L 288.777344 147.632812 L 285.011719 153.90625 C 284.960938 153.988281 284.933594 154.085938 284.894531 154.179688 C 284.792969 154.417969 284.71875 154.667969 284.703125 154.929688 L 284.464844 159.757812 L 284.421875 160.578125 C 284.414062 160.691406 284.445312 160.796875 284.492188 160.894531 C 284.519531 160.953125 284.546875 161.007812 284.589844 161.054688 C 284.699219 161.183594 284.859375 161.269531 285.042969 161.285156 L 286.902344 161.429688 C 286.984375 161.433594 287.0625 161.421875 287.144531 161.414062 C 287.324219 161.394531 287.5 161.355469 287.652344 161.257812 C 289.535156 160.082031 289.839844 158.109375 289.878906 157.226562 C 289.890625 156.878906 289.980469 156.542969 290.125 156.226562 L 291.660156 152.855469 C 291.671875 152.828125 291.695312 152.816406 291.714844 152.796875 C 291.824219 152.695312 292.015625 152.738281 292.039062 152.902344 L 292.386719 153.964844 L 292.714844 154.972656 C 292.730469 155.023438 292.761719 155.074219 292.78125 155.125 C 292.820312 155.222656 292.859375 155.328125 292.910156 155.421875 L 293.777344 156.898438 L 293.863281 157.042969 L 293.863281 157.046875 C 293.875 157.066406 293.898438 157.070312 293.910156 157.089844 C 294.15625 157.410156 294.671875 157.398438 294.839844 157.019531 C 294.914062 156.855469 294.964844 156.683594 295 156.507812 C 295.121094 155.949219 295.09375 155.363281 295.046875 154.953125 C 294.992188 154.507812 295 154.058594 295.046875 153.597656 L 295.21875 151.984375 L 295.382812 150.457031 L 295.933594 149.570312 C 296.011719 149.609375 296.105469 149.570312 296.144531 149.492188 L 304.542969 133.832031 L 304.289062 144.320312 C 304.28125 144.445312 304.375 144.550781 304.511719 144.550781 L 306.210938 144.550781 L 304.550781 180.710938 L 303.238281 226.917969 C 303.238281 226.984375 303.296875 227.042969 303.375 227.03125 L 303.859375 226.976562 L 303.785156 227.175781 C 303.402344 228.1875 302.597656 230.980469 301.917969 231.832031 L 297.132812 237.03125 C 296.808594 237.433594 296.796875 238.007812 297.105469 238.417969 L 297.765625 239.925781 C 298.117188 240.40625 298.777344 240.539062 299.28125 240.222656 L 306.8125 235.53125 C 307.367188 235.1875 307.804688 234.703125 308.089844 234.121094 L 308.925781 232.386719 L 309.800781 233.140625 C 309.945312 233.261719 310.15625 233.292969 310.316406 233.195312 L 312.554688 231.855469 C 312.792969 231.730469 312.945312 231.484375 312.945312 231.207031 C 312.917969 229.496094 312.441406 227.699219 311.90625 225.933594 L 312.289062 225.886719 C 312.347656 225.878906 312.382812 225.839844 312.394531 225.78125 L 315.5 181.066406 C 315.546875 180.347656 315.632812 179.632812 315.738281 178.925781 L 320.144531 152.351562 C 320.164062 152.257812 320.257812 152.210938 320.34375 152.246094 L 322.683594 153.007812 C 322.875 153.101562 323.035156 153.238281 323.171875 153.410156 L 338.921875 173.820312 C 339.410156 174.496094 339.820312 175.242188 340.144531 176.015625 L 353.398438 209.695312 C 353.417969 209.75 353.484375 209.789062 353.539062 209.769531 L 354.171875 209.578125 L 354.171875 209.710938 C 354.171875 210.113281 354.113281 211.539062 354.199219 211.980469 C 354.21875 212.09375 354.304688 212.191406 354.417969 212.226562 C 354.90625 212.398438 356.105469 212.746094 356.699219 212.957031 C 356.851562 213.015625 357.035156 212.957031 357.128906 212.8125 L 357.730469 211.898438 L 359.054688 213.675781 C 359.160156 213.90625 359.320312 214.105469 359.511719 214.269531 C 360.285156 214.878906 361.878906 216.765625 363.730469 217.441406 C 364.914062 217.871094 365.625 218.164062 366.847656 217.832031 C 368.070312 217.488281 369.101562 216.953125 369.855469 216.160156 C 370.917969 215.03125 370.730469 214.089844 369.46875 213.199219 L 364.722656 209.867188 C 364.113281 209.449219 362.96875 208.402344 362.605469 207.75 L 362.488281 207.550781 L 363.023438 207.398438 C 363.089844 207.378906 363.128906 207.304688 363.101562 207.234375 L 350.515625 172.847656 C 350.238281 172.054688 349.867188 171.289062 349.417969 170.582031 L 334.195312 144.847656 L 335.148438 144.847656 C 335.265625 144.847656 335.359375 144.753906 335.359375 144.628906 L 335.449219 115.90625 L 345.871094 120.492188 C 346.960938 120.980469 348.144531 121.226562 349.335938 121.226562 L 351.800781 121.226562 C 353.175781 121.226562 354.53125 120.894531 355.742188 120.261719 L 371.746094 112.105469 C 371.824219 112.058594 371.863281 111.964844 371.824219 111.886719 L 371.804688 110.84375 L 375.484375 109.839844 L 377.71875 109.230469 C 377.917969 109.175781 378.109375 109.09375 378.292969 108.996094 C 378.308594 108.984375 378.324219 108.984375 378.339844 108.976562 C 378.535156 108.863281 378.71875 108.730469 378.882812 108.570312 L 380.671875 106.851562 L 383.652344 103.988281 C 383.71875 103.929688 383.773438 103.863281 383.820312 103.792969 C 383.820312 103.792969 383.824219 103.789062 383.824219 103.785156 C 383.867188 103.714844 383.902344 103.640625 383.925781 103.5625 C 383.945312 103.5 383.957031 103.433594 383.964844 103.367188 C 383.96875 103.296875 383.96875 103.226562 383.957031 103.160156 Z M 383.957031 103.160156 " fill-opacity="1" fill-rule="nonzero"/><path fill="#ab1d09" d="M 258.199219 165.453125 L 257.527344 164.960938 L 259.652344 179.617188 L 276.183594 197.253906 C 277.628906 198.734375 278.453125 200.71875 278.484375 202.792969 L 280.316406 243.992188 C 280.316406 244.058594 280.265625 244.113281 280.199219 244.121094 L 279.199219 244.191406 L 288.558594 248.535156 C 288.847656 248.675781 289.027344 248.96875 289.027344 249.292969 L 288.921875 251.097656 C 288.921875 251.5625 288.546875 251.941406 288.085938 251.941406 L 276.183594 251.039062 C 276.039062 251.039062 275.902344 250.96875 275.816406 250.851562 L 275.023438 249.769531 L 273.714844 251.105469 C 273.628906 251.234375 273.484375 251.3125 273.332031 251.3125 L 271.085938 251.488281 C 270.878906 251.488281 270.691406 251.351562 270.636719 251.152344 C 270.074219 249.105469 270.203125 246.445312 270.585938 244.085938 L 270.09375 244.121094 C 270.023438 244.128906 269.964844 244.074219 269.960938 244.003906 L 268.152344 203.402344 C 268.109375 202.738281 267.726562 202.144531 267.144531 201.832031 L 247.367188 191.703125 L 238.753906 214.910156 C 238.273438 216.316406 237.601562 217.652344 236.757812 218.875 L 216.585938 248.605469 C 216.515625 248.707031 216.378906 248.730469 216.28125 248.660156 L 215.804688 248.324219 L 221.792969 259.519531 C 221.9375 259.804688 221.910156 260.152344 221.714844 260.40625 L 221.195312 261.125 C 220.917969 261.496094 220.390625 261.570312 220.019531 261.289062 L 210.386719 253.96875 C 210.269531 253.882812 210.199219 253.742188 210.203125 253.59375 L 209.734375 251.421875 L 208.527344 251.835938 C 208.382812 251.886719 208.226562 251.863281 208.105469 251.773438 C 207.566406 251.363281 206.425781 250.851562 205.796875 250.375 C 205.632812 250.25 205.570312 250.03125 205.644531 249.835938 C 206.550781 247.539062 208.605469 246.199219 210.789062 244.375 L 210.488281 244.160156 C 210.394531 244.09375 210.367188 243.964844 210.429688 243.867188 L 228.410156 215.824219 C 229.066406 214.769531 229.535156 213.605469 229.804688 212.390625 L 234.667969 185.917969 L 232.78125 179.320312 L 230.25 179.199219 C 230.039062 179.207031 229.863281 179.039062 229.867188 178.824219 L 229.171875 165.175781 L 227.855469 167.054688 C 227.230469 167.957031 226.550781 168.816406 225.820312 169.636719 L 214.265625 182.621094 C 214.167969 182.726562 214 182.726562 213.90625 182.621094 L 212.722656 182.324219 L 212.25 183.101562 C 211.957031 183.582031 211.777344 184.121094 211.726562 184.683594 C 211.625 185.816406 211.238281 187.855469 209.78125 188.53125 C 209.492188 188.664062 209.152344 188.457031 209.113281 188.136719 L 208.695312 184.863281 C 208.667969 184.65625 208.421875 184.566406 208.273438 184.710938 L 205.582031 187.273438 C 205.386719 187.457031 205.238281 187.683594 205.125 187.929688 C 204.832031 188.574219 203.9375 189.914062 201.554688 189.96875 C 201.042969 189.980469 200.675781 189.464844 200.828125 188.972656 L 201.945312 185.398438 C 202.289062 184.296875 202.898438 183.300781 203.726562 182.5 L 208.640625 177.730469 L 208.625 177.667969 L 208.242188 176.1875 C 208.167969 176.101562 208.160156 175.972656 208.230469 175.878906 L 221.84375 159.238281 C 222.578125 158.253906 223.183594 157.179688 223.648438 156.042969 L 233.757812 136.175781 L 236.125 132.195312 L 236.929688 130.03125 C 236.664062 129.867188 236.429688 129.710938 236.203125 129.550781 C 236.148438 129.511719 236.097656 129.472656 236.046875 129.433594 C 235.878906 129.3125 235.714844 129.1875 235.566406 129.0625 C 235.519531 129.023438 235.476562 128.984375 235.433594 128.945312 C 235.277344 128.808594 235.128906 128.671875 234.992188 128.527344 C 234.964844 128.5 234.933594 128.472656 234.90625 128.441406 C 234.742188 128.269531 234.582031 128.089844 234.429688 127.898438 C 233.980469 127.34375 233.554688 126.699219 233.042969 125.871094 C 232.191406 124.496094 231.878906 122.84375 232.109375 121.242188 L 232.378906 119.382812 C 232.609375 117.792969 233.566406 116.390625 234.980469 115.640625 C 237.007812 114.558594 237.882812 113.636719 239.980469 112.980469 C 241.0625 112.644531 242.242188 112.878906 243.109375 113.613281 L 245.339844 115.496094 C 246.074219 116.117188 246.4375 117.078125 246.292969 118.035156 L 246.328125 118.371094 L 246.386719 118.964844 L 246.789062 119.789062 C 246.960938 120.144531 247.230469 120.445312 247.5625 120.652344 L 248.972656 121.539062 C 249.453125 121.839844 249.523438 122.507812 249.117188 122.902344 L 248.273438 123.722656 C 248.25 123.800781 248.230469 123.863281 248.207031 123.9375 L 248.929688 127.230469 C 249.027344 127.679688 248.808594 128.15625 248.390625 128.347656 C 247.445312 128.777344 246.460938 129.113281 245.449219 129.386719 L 246.183594 132.144531 L 250.132812 138.824219 C 251.632812 140.71875 253.128906 143.699219 253.582031 146.070312 L 254.210938 149.382812 L 261.394531 156.761719 C 262.203125 157.527344 263.152344 158.132812 264.1875 158.542969 L 278.222656 162.890625 C 278.390625 162.957031 278.476562 163.148438 278.410156 163.316406 L 278.855469 164.128906 L 285.195312 164.128906 C 285.558594 164.128906 285.910156 164.261719 286.183594 164.503906 L 290.257812 168.113281 C 290.386719 168.226562 290.433594 168.410156 290.371094 168.570312 L 288.898438 172.484375 C 288.804688 172.734375 288.523438 172.871094 288.273438 172.78125 C 287.660156 172.5625 286.605469 172.035156 286.152344 170.898438 C 286.03125 170.597656 285.738281 170.398438 285.414062 170.367188 L 282.957031 170.148438 C 282.710938 170.125 282.460938 170.15625 282.230469 170.25 C 281.472656 170.558594 279.371094 171.171875 276.949219 170.101562 C 276.949219 170.101562 276.949219 170.101562 276.945312 170.101562 C 276.835938 170.054688 276.730469 170.019531 276.617188 169.964844 L 275.828125 170.585938 C 275.765625 170.746094 275.597656 170.832031 275.4375 170.789062 Z M 118.929688 248.695312 C 118.648438 248.363281 118.285156 248.113281 117.875 247.96875 L 112.691406 246.136719 L 112.308594 245.800781 C 112.339844 245.746094 112.324219 245.675781 112.273438 245.640625 L 99.265625 237.074219 C 99.023438 236.902344 98.816406 236.683594 98.664062 236.433594 L 88.492188 220.015625 C 87.402344 218.277344 86.34375 217.042969 84.425781 216.335938 L 80.457031 214.75 L 78.511719 213.226562 L 78.160156 212.367188 C 79.796875 211.953125 80.625 211.886719 81.183594 211.886719 C 81.425781 211.886719 81.640625 211.738281 81.738281 211.515625 C 81.996094 210.914062 81.835938 210.46875 81.605469 209.707031 C 81.484375 209.308594 81.457031 208.886719 81.554688 208.480469 C 81.765625 207.589844 81.796875 206.675781 81.492188 205.894531 C 81.371094 205.589844 81.351562 205.253906 81.398438 204.929688 C 81.675781 202.933594 81.554688 201.914062 81.554688 201.914062 C 81.554688 201.914062 81.402344 201.386719 81.113281 200.738281 C 81.105469 200.710938 81.085938 200.671875 81.066406 200.644531 C 80.914062 200.289062 80.730469 199.957031 80.511719 199.628906 C 80.167969 199.085938 79.75 198.582031 79.261719 198.140625 C 79.03125 197.921875 78.785156 197.722656 78.515625 197.539062 C 77.734375 197.003906 76.902344 196.585938 76.042969 196.308594 C 75.507812 196.117188 74.964844 195.984375 74.421875 195.898438 C 70.917969 195.351562 67.953125 195.757812 65.5 199.347656 C 65.355469 199.558594 65.171875 199.746094 64.980469 199.921875 C 64.058594 200.761719 63.703125 202.007812 63.84375 203.167969 C 63.894531 203.597656 63.777344 204.035156 63.484375 204.347656 C 62.554688 205.347656 62.289062 206.488281 62.582031 207.753906 C 62.667969 208.132812 62.59375 208.539062 62.371094 208.859375 C 61.746094 209.761719 61.664062 210.1875 61.800781 211.21875 C 61.84375 211.519531 62.085938 211.75 62.390625 211.75 C 63.511719 211.75 65.675781 212.367188 68.925781 212.367188 L 68.601562 214.011719 L 68.601562 214.007812 L 66.734375 215.761719 L 62.351562 218.636719 C 60.222656 220.023438 59.351562 222.207031 58.480469 224.59375 L 52.378906 241.757812 C 52.242188 242.121094 52.089844 242.476562 51.929688 242.828125 L 43.746094 258.734375 C 43.707031 258.8125 43.746094 258.90625 43.824219 258.957031 L 44.0625 259.820312 L 40.125 265.179688 C 39.867188 265.527344 39.707031 265.9375 39.660156 266.371094 L 39.164062 270.824219 C 39.128906 271.136719 39.277344 271.4375 39.785156 271.738281 L 42.203125 273.15625 C 42.707031 273.453125 43.375 273.339844 43.699219 272.851562 C 44.664062 271.417969 44.691406 269.867188 44.648438 269.179688 C 44.632812 268.925781 44.6875 268.675781 44.808594 268.449219 L 46.148438 265.945312 C 46.234375 265.785156 46.46875 265.800781 46.523438 265.976562 C 46.75 266.6875 47.1875 268.066406 47.453125 268.894531 C 47.582031 269.296875 48.082031 269.410156 48.394531 269.125 C 49.355469 268.246094 49.402344 266.671875 49.335938 265.761719 C 49.296875 265.242188 49.414062 264.726562 49.644531 264.265625 L 50.082031 263.398438 L 50.296875 262.957031 C 50.382812 263.015625 50.5 262.976562 50.546875 262.890625 L 57.722656 247.660156 C 57.941406 247.25 58.152344 246.820312 58.355469 246.398438 L 63.441406 236.671875 C 63.46875 236.597656 63.582031 236.605469 63.601562 236.691406 L 66.203125 246.082031 C 66.40625 247 66.394531 247.953125 66.15625 248.871094 L 62.054688 263.585938 C 61.988281 263.84375 62.1875 264.082031 62.445312 264.074219 L 64.320312 263.972656 L 64.976562 267.84375 C 65.742188 271.039062 67.488281 273.375 69.511719 275.964844 L 76.164062 285.335938 L 49.867188 311.542969 C 49.75 311.660156 49.738281 311.84375 49.839844 311.972656 L 50.703125 313.089844 C 48.039062 314.4375 45.96875 315.789062 44.164062 318.039062 C 44 318.246094 44 318.550781 44.175781 318.765625 L 45.46875 320.84375 C 45.667969 321.089844 46.027344 321.128906 46.273438 320.929688 L 49.871094 318.246094 C 49.945312 318.1875 50.0625 318.253906 50.046875 318.339844 L 49.050781 324.105469 C 48.984375 324.527344 49.085938 324.957031 49.355469 325.292969 L 55.328125 332.800781 C 55.546875 333.078125 55.949219 333.121094 56.226562 332.898438 L 57.582031 331.476562 C 57.746094 331.347656 57.832031 331.144531 57.820312 330.933594 L 57.71875 329.292969 L 58.113281 328.648438 L 58.5625 323.738281 L 59.875 323.976562 C 60.007812 324.144531 60.265625 324.144531 60.394531 323.976562 L 83.324219 293.621094 L 85.1875 329.746094 C 85.199219 329.910156 85.351562 330.027344 85.515625 329.996094 L 86.910156 329.695312 C 86.984375 332.09375 87.300781 334.59375 88.167969 336.804688 C 88.265625 337.046875 88.53125 337.199219 88.804688 337.15625 L 90.96875 336.582031 C 91.277344 336.53125 91.492188 336.238281 91.441406 335.925781 L 90.945312 331.65625 C 90.929688 331.558594 91.046875 331.492188 91.113281 331.550781 L 96.09375 335.3125 C 96.425781 335.578125 96.851562 335.703125 97.277344 335.636719 L 106.269531 334.140625 C 106.617188 334.085938 106.855469 333.757812 106.800781 333.410156 L 106.542969 331.691406 C 106.507812 331.484375 106.375 331.3125 106.1875 331.214844 L 104.546875 330.191406 L 104.230469 329.585938 L 100.71875 327.125 L 102.128906 326.195312 C 102.277344 326.164062 102.371094 326.015625 102.335938 325.867188 L 93.921875 293.824219 C 93.253906 291.066406 92.539062 288.195312 91.195312 285.699219 L 88.886719 281.488281 L 91.460938 270.71875 C 92.152344 268.140625 92.1875 265.433594 91.554688 262.84375 L 90.878906 260.074219 L 94.359375 258.71875 C 94.445312 258.679688 94.484375 258.578125 94.453125 258.492188 L 88.101562 243.261719 C 87.941406 242.863281 87.835938 242.441406 87.792969 242.011719 L 87.703125 232.96875 C 87.691406 232.882812 87.808594 232.84375 87.855469 232.921875 L 93.957031 240.613281 C 94.558594 241.519531 95.3125 242.3125 96.183594 242.964844 L 107.949219 253.21875 C 108.003906 253.261719 108.085938 253.246094 108.121094 253.183594 L 108.960938 252.273438 L 109.488281 252.566406 C 109.941406 252.820312 110.328125 253.183594 110.585938 253.628906 C 111.042969 254.421875 111.964844 255.695312 113.253906 255.882812 C 113.671875 255.945312 114.023438 255.570312 113.90625 255.160156 C 113.65625 254.328125 113.246094 252.941406 113.03125 252.226562 C 112.980469 252.054688 113.164062 251.90625 113.324219 251.992188 L 115.84375 253.308594 C 116.070312 253.425781 116.253906 253.601562 116.386719 253.824219 C 116.734375 254.414062 117.632812 255.683594 119.234375 256.328125 C 119.777344 256.546875 120.394531 256.265625 120.644531 255.738281 L 121.84375 253.203125 C 122.09375 252.667969 122.050781 252.335938 121.847656 252.097656 Z M 118.929688 248.695312 " fill-opacity="1" fill-rule="nonzero"/><g clip-path="url(#d5a3ded11b)"><path fill="#5ca3ff" d="M 325.28125 81.027344 C 325.25 80.980469 325.214844 80.941406 325.183594 80.898438 C 329.273438 48.976562 356.527344 24.296875 389.5625 24.296875 C 425.425781 24.296875 454.496094 53.367188 454.496094 89.226562 C 454.492188 125.085938 425.421875 154.15625 389.5625 154.15625 C 367.707031 154.15625 348.386719 143.347656 336.621094 126.796875 L 336.488281 117.359375 L 345.746094 121.496094 C 346.839844 121.984375 348.019531 122.234375 349.214844 122.234375 L 351.683594 122.234375 C 353.054688 122.234375 354.40625 121.902344 355.625 121.265625 L 365.664062 116.007812 C 372.011719 121.675781 380.382812 125.128906 389.5625 125.128906 C 409.390625 125.128906 425.464844 109.054688 425.464844 89.226562 C 425.464844 69.398438 409.390625 53.328125 389.5625 53.328125 C 369.734375 53.324219 353.664062 69.398438 353.664062 89.226562 C 353.664062 96.046875 355.5625 102.421875 358.863281 107.851562 L 352.183594 110.507812 C 351.71875 110.691406 351.195312 110.636719 350.777344 110.363281 L 337.261719 101.472656 C 336.011719 100.648438 334.699219 99.914062 333.34375 99.277344 L 326.855469 96.234375 L 326.84375 96.226562 L 325.804688 92.808594 L 326.070312 92.5 C 326.695312 92.171875 327.164062 91.738281 327.496094 91.265625 C 327.511719 91.238281 327.535156 91.214844 327.550781 91.191406 C 327.585938 91.136719 327.613281 91.082031 327.648438 91.023438 C 327.6875 90.953125 327.734375 90.878906 327.773438 90.808594 C 327.785156 90.777344 327.792969 90.75 327.808594 90.722656 C 327.855469 90.621094 327.898438 90.519531 327.933594 90.417969 C 327.960938 90.347656 327.972656 90.277344 327.992188 90.207031 C 328.007812 90.144531 328.03125 90.085938 328.042969 90.023438 C 328.070312 89.894531 328.085938 89.765625 328.09375 89.636719 C 328.09375 89.636719 328.09375 89.632812 328.09375 89.632812 C 329.367188 87.679688 329.109375 85.292969 328.769531 83.867188 C 328.59375 83.109375 327.992188 82.527344 327.234375 82.34375 L 326.351562 82.132812 C 326.066406 82.0625 325.816406 81.886719 325.660156 81.636719 Z M 389.5625 104.644531 C 398.078125 104.644531 404.976562 97.742188 404.976562 89.226562 C 404.980469 80.714844 398.078125 73.8125 389.5625 73.8125 C 381.050781 73.8125 374.148438 80.714844 374.148438 89.226562 C 374.148438 93.765625 376.121094 97.832031 379.242188 100.652344 C 379.738281 100.1875 380.257812 99.789062 380.808594 99.496094 C 380.980469 99.402344 381.15625 99.304688 381.335938 99.230469 C 381.550781 99.144531 381.785156 99.21875 381.941406 99.378906 C 381.984375 99.417969 382.019531 99.460938 382.050781 99.511719 L 382.789062 100.886719 L 383.859375 102.863281 C 383.910156 102.957031 383.941406 103.058594 383.957031 103.160156 C 383.980469 103.296875 383.964844 103.433594 383.925781 103.5625 C 385.671875 104.253906 387.570312 104.644531 389.5625 104.644531 Z M 447.933594 165.082031 L 365.710938 165.082031 C 364.894531 165.082031 364.410156 166 364.875 166.675781 L 378.300781 186.210938 C 378.625 186.683594 378.496094 187.332031 378.015625 187.640625 L 368.464844 193.804688 L 361.160156 198.519531 L 364.265625 207.394531 C 364.289062 207.460938 364.253906 207.53125 364.183594 207.550781 L 363.65625 207.707031 L 363.765625 207.90625 C 364.128906 208.558594 364.625 209.109375 365.234375 209.53125 L 369.980469 212.863281 C 371.242188 213.75 371.488281 215.574219 370.429688 216.699219 C 369.675781 217.492188 368.644531 218.027344 367.421875 218.371094 C 366.199219 218.707031 364.914062 218.480469 363.726562 218.046875 C 361.875 217.371094 359.75 215.765625 358.976562 215.148438 C 358.777344 214.992188 358.621094 214.792969 358.515625 214.566406 L 357.652344 212.757812 L 357.046875 213.671875 C 356.957031 213.8125 356.78125 213.871094 356.621094 213.816406 C 356.035156 213.609375 354.652344 213.128906 354.15625 212.957031 C 354.039062 212.917969 353.960938 212.824219 353.9375 212.707031 C 353.851562 212.269531 353.644531 211.1875 353.644531 210.78125 L 353.644531 210.652344 L 353.015625 210.835938 C 352.953125 210.855469 352.890625 210.824219 352.867188 210.765625 L 350.597656 205.332031 L 314.191406 228.828125 C 314.394531 229.863281 314.527344 230.890625 314.539062 231.902344 C 314.542969 232.175781 314.390625 232.425781 314.152344 232.554688 L 310.78125 234.394531 C 310.617188 234.484375 310.414062 234.460938 310.273438 234.339844 L 309.386719 233.578125 L 308.894531 234.589844 C 308.609375 235.175781 308.167969 235.667969 307.617188 236.011719 L 299.117188 241.3125 C 298.613281 241.625 297.953125 241.5 297.597656 241.023438 L 296.851562 240.015625 L 287.054688 246.335938 C 286.753906 246.53125 286.371094 246.550781 286.050781 246.390625 L 281.84375 244.289062 L 281.179688 244.335938 L 289.925781 248.601562 C 290.214844 248.746094 290.398438 249.039062 290.398438 249.359375 L 290.398438 251.320312 C 290.398438 251.785156 290.019531 252.164062 289.554688 252.164062 L 276.316406 252.164062 C 276.167969 252.164062 276.03125 252.09375 275.941406 251.972656 L 275.148438 250.894531 L 274.429688 251.957031 C 274.34375 252.085938 274.199219 252.164062 274.046875 252.164062 L 270.667969 252.164062 C 270.460938 252.164062 270.273438 252.027344 270.21875 251.824219 C 269.648438 249.777344 269.519531 247.519531 269.902344 245.160156 L 269.410156 245.195312 C 269.339844 245.199219 269.277344 245.148438 269.273438 245.078125 L 269.035156 240.792969 L 193.355469 288.144531 L 193.613281 288.320312 L 194.984375 289.28125 C 195.367188 289.546875 195.597656 289.984375 195.597656 290.453125 L 195.597656 292.675781 C 195.597656 293.027344 195.3125 293.3125 194.957031 293.3125 L 185.089844 293.3125 L 182.136719 295.160156 C 181.886719 295.316406 181.582031 295.359375 181.300781 295.273438 L 149.695312 285.683594 C 149.421875 285.597656 149.128906 285.636719 148.882812 285.78125 L 136.582031 293.113281 L 138.492188 297.140625 L 138.492188 297.144531 L 138.71875 297.617188 L 139.613281 299.5 C 139.703125 299.691406 139.699219 299.910156 139.59375 300.09375 L 138.289062 302.382812 C 138.113281 302.6875 137.722656 302.796875 137.417969 302.621094 L 128.835938 297.730469 L 100.222656 314.785156 L 103.023438 326.34375 C 103.058594 326.492188 102.96875 326.640625 102.816406 326.671875 L 100.71875 327.125 L 104.230469 329.585938 L 104.703125 329.8125 L 106.578125 330.722656 C 106.769531 330.816406 106.902344 330.988281 106.933594 331.195312 L 107.351562 333.796875 C 107.40625 334.148438 107.167969 334.476562 106.820312 334.53125 L 97.015625 336.097656 C 96.589844 336.164062 96.164062 336.039062 95.832031 335.773438 L 91.550781 332.164062 C 91.484375 332.105469 91.371094 332.171875 91.382812 332.265625 L 92.03125 336.3125 C 92.078125 336.621094 91.867188 336.917969 91.554688 336.96875 L 88.445312 337.464844 C 88.171875 337.507812 87.902344 337.355469 87.808594 337.109375 C 86.941406 334.902344 86.410156 332.617188 86.335938 330.214844 L 84.941406 330.515625 C 84.78125 330.550781 84.625 330.433594 84.613281 330.265625 L 84.253906 324.304688 L 33.925781 354.304688 C 33.441406 354.59375 33.285156 355.21875 33.574219 355.703125 L 53.855469 389.410156 C 54.152344 389.902344 54.800781 390.050781 55.28125 389.738281 L 151.695312 327.105469 C 151.953125 326.941406 152.269531 326.898438 152.558594 326.992188 L 188.304688 338.460938 C 188.59375 338.554688 188.90625 338.511719 189.164062 338.347656 L 275.523438 283.058594 C 275.78125 282.894531 276.101562 282.851562 276.390625 282.949219 L 298.773438 290.320312 C 299.078125 290.421875 299.410156 290.371094 299.671875 290.191406 L 402.972656 218.542969 C 403.425781 218.230469 404.046875 218.332031 404.371094 218.777344 L 422.210938 243.101562 C 422.699219 243.769531 423.742188 243.605469 423.996094 242.816406 L 443.75 182.21875 L 448.902344 166.414062 C 449.113281 165.757812 448.625 165.082031 447.933594 165.082031 Z M 238.382812 134.511719 L 244.699219 134.605469 L 247.664062 134.648438 L 248.410156 134.660156 L 246.535156 132.300781 C 246.457031 132.203125 246.335938 132.144531 246.210938 132.144531 L 246.183594 132.144531 L 236.125 132.195312 L 233.921875 134.445312 L 234.777344 134.457031 Z M 324.023438 135.8125 L 326.300781 103.824219 L 326.730469 97.78125 L 325.371094 99.039062 L 321.90625 102.246094 L 323.054688 105.394531 L 322.351562 106.914062 C 322.195312 107.257812 322.125 107.632812 322.148438 108.011719 L 323.332031 125.8125 L 319.984375 131.859375 L 318.363281 131.859375 L 316.628906 125.8125 L 318.4375 107.769531 C 318.46875 107.460938 318.433594 107.148438 318.339844 106.851562 L 317.761719 105.054688 L 319.632812 102.191406 L 316.761719 98.074219 L 315.640625 135.8125 L 315.601562 137.15625 L 323.929688 137.15625 Z M 80.792969 235.273438 C 80.90625 235.433594 81.15625 235.367188 81.183594 235.175781 L 80.667969 214.832031 L 80.648438 214.171875 L 78.511719 213.226562 L 76.800781 222.746094 C 76.753906 222.964844 76.488281 223.039062 76.335938 222.867188 L 68.601562 214.011719 L 68.601562 214.007812 L 66.25 215.382812 L 66.59375 215.851562 Z M 80.792969 235.273438 " fill-opacity="1" fill-rule="nonzero"/></g><g clip-path="url(#588b7a76e6)"><path fill="#1800ad" d="M 303.816406 136.898438 L 303.550781 140.523438 C 303.285156 139.972656 303.027344 139.417969 302.773438 138.859375 Z M 337.765625 175.335938 L 323.25 155.007812 C 323.121094 154.839844 322.953125 154.703125 322.765625 154.609375 L 321.453125 153.945312 C 321.367188 153.902344 321.261719 153.957031 321.25 154.050781 L 319.679688 164.59375 C 325.890625 171.414062 333.046875 177.359375 340.941406 182.21875 L 338.984375 177.53125 C 338.664062 176.757812 338.253906 176.019531 337.765625 175.335938 Z M 392.347656 0.300781 C 338.105469 0.300781 294.132812 44.273438 294.132812 98.519531 C 294.132812 107.019531 295.214844 115.269531 297.242188 123.136719 L 304.660156 105.191406 C 305.835938 102.347656 308.105469 100.101562 310.957031 98.953125 L 316.800781 96.601562 L 316.804688 96.597656 L 316.90625 95.832031 L 316.539062 95.832031 C 316.261719 95.832031 315.996094 95.746094 315.773438 95.589844 C 315.648438 95.5 315.542969 95.386719 315.457031 95.257812 C 315.390625 95.164062 315.328125 95.0625 315.289062 94.945312 C 314.898438 93.742188 314.632812 92.453125 314.480469 91.125 C 314.351562 89.976562 314.328125 88.796875 314.371094 87.621094 C 314.378906 87.433594 314.371094 87.246094 314.382812 87.058594 L 314.375 87.054688 C 314.375 87.050781 314.375 87.050781 314.375 87.050781 C 314.371094 87.046875 314.371094 87.046875 314.371094 87.042969 C 313.5625 85.4375 313.746094 83.542969 314.003906 81.5625 C 314.132812 80.585938 314.925781 79.839844 315.90625 79.753906 C 318.652344 79.511719 321.328125 79.597656 323.914062 80.078125 C 324.429688 80.171875 324.875 80.480469 325.183594 80.898438 C 329.273438 48.976562 356.527344 24.296875 389.5625 24.296875 C 425.425781 24.296875 454.496094 53.367188 454.496094 89.226562 C 454.492188 125.085938 425.421875 154.15625 389.5625 154.15625 C 367.707031 154.15625 348.386719 143.347656 336.621094 126.796875 L 336.878906 145.351562 C 336.882812 145.472656 336.785156 145.570312 336.664062 145.570312 L 335.714844 145.570312 L 350.632812 169.292969 C 351.078125 170.007812 351.445312 170.765625 351.722656 171.558594 L 358.429688 190.71875 C 361.695312 191.917969 365.046875 192.949219 368.464844 193.804688 L 378.015625 187.640625 C 378.496094 187.332031 378.625 186.683594 378.300781 186.210938 L 364.875 166.675781 C 364.410156 166 364.894531 165.082031 365.710938 165.082031 L 447.933594 165.082031 C 448.625 165.082031 449.113281 165.757812 448.902344 166.414062 L 443.75 182.21875 C 471.835938 164.9375 490.566406 133.914062 490.566406 98.519531 C 490.566406 44.273438 446.589844 0.300781 392.347656 0.300781 Z M 365.664062 116.007812 C 372.011719 121.675781 380.382812 125.128906 389.5625 125.128906 C 409.390625 125.128906 425.464844 109.054688 425.464844 89.226562 C 425.464844 69.398438 409.390625 53.328125 389.5625 53.328125 C 369.734375 53.324219 353.664062 69.398438 353.664062 89.226562 C 353.664062 96.046875 355.5625 102.421875 358.863281 107.851562 L 368.539062 104.003906 C 368.621094 103.972656 368.714844 104.011719 368.75 104.089844 L 369.019531 104.683594 L 369.460938 104.230469 L 372.414062 101.226562 C 372.484375 101.160156 372.5625 101.097656 372.636719 101.03125 C 372.757812 100.921875 372.875 100.804688 373.003906 100.699219 L 375.507812 98.6875 C 375.671875 98.554688 375.863281 98.519531 376.042969 98.546875 C 376.054688 98.550781 376.070312 98.546875 376.082031 98.550781 C 376.113281 98.558594 376.144531 98.574219 376.175781 98.585938 C 376.203125 98.59375 376.234375 98.601562 376.261719 98.617188 C 376.273438 98.621094 376.28125 98.632812 376.292969 98.640625 C 376.390625 98.699219 376.480469 98.78125 376.539062 98.882812 C 376.605469 98.996094 376.640625 99.132812 376.628906 99.285156 C 376.617188 99.445312 376.582031 99.601562 376.539062 99.753906 C 376.398438 100.265625 376.117188 100.714844 375.890625 101.007812 C 375.730469 101.214844 375.632812 101.453125 375.566406 101.703125 C 375.539062 101.800781 375.503906 101.890625 375.492188 101.992188 L 375.214844 103.488281 C 375.214844 103.488281 375.226562 103.480469 375.230469 103.480469 C 375.308594 103.433594 377.449219 102.125 378.140625 101.703125 C 378.199219 101.667969 378.246094 101.613281 378.300781 101.570312 C 378.375 101.507812 378.457031 101.453125 378.515625 101.382812 C 378.753906 101.121094 378.996094 100.882812 379.242188 100.652344 C 376.121094 97.832031 374.148438 93.765625 374.148438 89.226562 C 374.148438 80.714844 381.050781 73.8125 389.5625 73.8125 C 398.078125 73.8125 404.980469 80.714844 404.976562 89.226562 C 404.976562 97.742188 398.078125 104.644531 389.5625 104.644531 C 387.570312 104.644531 385.671875 104.253906 383.925781 103.5625 C 383.875 103.726562 383.789062 103.875 383.652344 103.988281 L 380.671875 106.851562 L 378.882812 108.570312 C 378.71875 108.730469 378.535156 108.863281 378.339844 108.976562 C 378.324219 108.984375 378.308594 108.984375 378.292969 108.996094 C 378.109375 109.09375 377.917969 109.175781 377.71875 109.230469 L 375.484375 109.839844 L 371.804688 110.84375 L 372.453125 112.277344 C 372.492188 112.355469 372.457031 112.449219 372.378906 112.492188 Z M 320.371094 346.082031 L 242.8125 346.082031 C 242.285156 346.082031 241.859375 346.511719 241.859375 347.039062 C 241.859375 347.566406 242.285156 347.992188 242.8125 347.992188 L 320.371094 347.992188 L 320.371094 353.984375 L 330.722656 346.824219 L 320.371094 339.660156 Z M 445.941406 289.316406 L 368.382812 289.316406 C 367.855469 289.316406 367.429688 289.742188 367.429688 290.269531 C 367.429688 290.800781 367.855469 291.226562 368.382812 291.226562 L 445.941406 291.226562 L 445.941406 297.21875 L 456.296875 290.058594 L 445.941406 282.894531 Z M 178.640625 22.867188 L 256.195312 22.867188 L 256.195312 28.859375 L 266.550781 21.699219 L 256.195312 14.535156 L 256.195312 20.957031 L 178.640625 20.957031 C 178.113281 20.957031 177.683594 21.386719 177.683594 21.914062 C 177.683594 22.441406 178.113281 22.867188 178.640625 22.867188 Z M 59.136719 65.085938 L 136.691406 65.085938 L 136.691406 71.078125 L 147.046875 63.917969 L 136.691406 56.753906 L 136.691406 63.175781 L 59.136719 63.175781 C 58.609375 63.175781 58.179688 63.601562 58.179688 64.128906 C 58.179688 64.65625 58.609375 65.085938 59.136719 65.085938 Z M 151.859375 207.398438 L 151.847656 206.644531 C 151.839844 205.6875 151.769531 204.734375 151.648438 203.785156 L 148.542969 179.902344 L 148.363281 178.503906 L 148.207031 177.308594 L 147.761719 173.882812 L 141.648438 177.992188 C 138.808594 179.90625 136.648438 182.675781 135.492188 185.898438 L 135.265625 186.535156 L 135.042969 187.148438 L 127.808594 207.300781 C 127.496094 208.179688 127.203125 209.0625 126.9375 209.953125 L 120.332031 231.992188 C 120.308594 232.070312 120.347656 232.148438 120.421875 232.175781 L 122.171875 232.804688 L 122.175781 232.808594 L 129.664062 235.507812 L 129.671875 235.507812 L 130.148438 235.679688 C 130.230469 235.710938 130.320312 235.664062 130.339844 235.582031 L 136.265625 213.707031 C 136.5625 212.703125 136.964844 211.734375 137.472656 210.816406 L 141.328125 203.84375 L 141.417969 204.332031 C 141.535156 204.996094 141.566406 205.675781 141.511719 206.347656 L 139.636719 229.042969 C 139.628906 229.171875 139.726562 229.28125 139.851562 229.289062 L 141.726562 229.398438 L 142.722656 229.457031 L 151.878906 229.980469 C 152.011719 229.988281 152.121094 229.882812 152.121094 229.75 L 151.867188 208.0625 Z M 194.765625 184.984375 L 194.765625 184.980469 L 190.402344 180.070312 L 190.398438 180.066406 L 190.015625 179.632812 C 189.917969 179.527344 189.753906 179.53125 189.660156 179.636719 L 180.050781 190.726562 C 179.972656 190.816406 179.832031 190.8125 179.757812 190.714844 L 173.0625 181.863281 C 171.332031 179.578125 169.089844 177.730469 166.511719 176.476562 L 159.03125 172.828125 L 159.121094 175.957031 L 159.183594 178.027344 L 159.890625 202.136719 C 159.925781 203.398438 160.101562 204.652344 160.414062 205.875 L 160.535156 206.351562 L 160.753906 207.191406 L 166.0625 227.859375 C 166.078125 227.925781 166.121094 227.976562 166.175781 228.007812 C 166.234375 228.035156 166.300781 228.042969 166.363281 228.015625 L 176.101562 224.335938 L 177.109375 223.953125 L 177.925781 223.644531 C 178.042969 223.601562 178.101562 223.46875 178.058594 223.351562 L 170.765625 203.429688 C 170.433594 202.527344 170.265625 201.570312 170.273438 200.605469 L 170.296875 197.167969 C 170.300781 197.113281 170.355469 197.085938 170.398438 197.117188 L 176.683594 201.6875 C 177.371094 202.1875 178.214844 202.433594 179.0625 202.382812 L 181.59375 202.234375 C 182.660156 202.171875 183.644531 201.648438 184.296875 200.804688 L 195.550781 186.152344 C 195.621094 186.0625 195.613281 185.9375 195.539062 185.851562 Z M 318.363281 131.859375 L 319.984375 131.859375 L 323.332031 125.8125 L 322.148438 108.011719 C 322.125 107.632812 322.195312 107.257812 322.351562 106.914062 L 323.054688 105.394531 L 321.90625 102.246094 L 319.632812 102.191406 L 317.761719 105.054688 L 318.339844 106.851562 C 318.433594 107.148438 318.46875 107.460938 318.4375 107.769531 L 316.628906 125.8125 Z M 99.8125 236.101562 C 99.574219 235.929688 99.363281 235.710938 99.210938 235.460938 L 89.109375 219.363281 C 88.019531 217.628906 86.386719 216.300781 84.46875 215.59375 L 80.648438 214.171875 L 80.667969 214.832031 L 81.183594 235.175781 C 81.15625 235.367188 80.90625 235.433594 80.792969 235.273438 L 66.59375 215.851562 L 66.25 215.382812 L 62.03125 218.132812 C 59.902344 219.519531 58.289062 221.5625 57.417969 223.949219 L 51.300781 240.828125 C 51.164062 241.191406 51.011719 241.542969 50.851562 241.898438 L 42.992188 259.007812 C 42.953125 259.085938 42.992188 259.179688 43.070312 259.226562 L 44.0625 259.820312 L 50.082031 263.398438 L 50.375 263.570312 C 50.460938 263.628906 50.574219 263.589844 50.621094 263.503906 L 58.71875 248.46875 C 58.9375 248.054688 59.148438 247.625 59.347656 247.207031 L 63.320312 238.433594 C 63.347656 238.355469 63.464844 238.367188 63.484375 238.453125 L 65.21875 246.148438 C 65.421875 247.0625 65.410156 248.019531 65.171875 248.933594 L 61.164062 264.144531 C 61.097656 264.402344 61.296875 264.640625 61.554688 264.632812 L 63.429688 264.53125 L 64.40625 264.476562 L 82.167969 263.523438 C 82.226562 263.523438 82.28125 263.46875 82.28125 263.398438 L 83.132812 245.1875 C 83.136719 245.082031 83.289062 245.066406 83.316406 245.167969 L 87.992188 262.550781 C 88.011719 262.625 88.085938 262.675781 88.164062 262.636719 L 91.179688 261.316406 L 92.070312 260.929688 L 95.648438 259.359375 C 95.734375 259.324219 95.773438 259.21875 95.746094 259.132812 L 89.191406 243.0625 C 89.03125 242.664062 88.925781 242.242188 88.882812 241.8125 L 88.171875 234.824219 C 88.164062 234.738281 88.277344 234.699219 88.328125 234.773438 L 93.15625 242.078125 C 93.757812 242.988281 94.511719 243.777344 95.382812 244.429688 L 107.910156 253.753906 C 107.964844 253.796875 108.046875 253.78125 108.082031 253.722656 L 108.960938 252.273438 L 112.691406 246.136719 L 112.980469 245.667969 C 113.011719 245.613281 112.996094 245.546875 112.945312 245.511719 Z M 99.8125 236.101562 " fill-opacity="1" fill-rule="nonzero"/></g><path fill="#000000" d="M 290.398438 249.359375 L 290.398438 251.320312 C 290.398438 251.785156 290.019531 252.164062 289.554688 252.164062 L 276.316406 252.164062 C 276.167969 252.164062 276.03125 252.09375 275.941406 251.972656 L 275.148438 250.894531 L 274.429688 251.957031 C 274.34375 252.085938 274.199219 252.164062 274.046875 252.164062 L 270.667969 252.164062 C 270.460938 252.164062 270.273438 252.027344 270.21875 251.824219 C 269.648438 249.777344 269.519531 247.519531 269.902344 245.160156 L 269.410156 245.195312 C 269.339844 245.199219 269.277344 245.148438 269.273438 245.078125 L 269.035156 240.792969 L 267.003906 204.613281 C 266.960938 203.949219 266.578125 203.355469 265.992188 203.046875 L 248.710938 193.859375 C 248.609375 193.804688 248.484375 193.855469 248.445312 193.964844 L 240.808594 216.230469 C 240.324219 217.636719 239.648438 218.972656 238.796875 220.195312 L 218.214844 249.84375 C 218.144531 249.945312 218.007812 249.96875 217.90625 249.898438 L 217.429688 249.5625 L 222.503906 259.574219 C 222.648438 259.859375 222.617188 260.207031 222.425781 260.460938 L 221.242188 262.023438 C 220.960938 262.394531 220.433594 262.46875 220.0625 262.1875 L 209.503906 254.203125 C 209.386719 254.113281 209.316406 253.972656 209.320312 253.828125 L 209.339844 252.488281 L 208.121094 252.902344 C 207.976562 252.953125 207.820312 252.929688 207.699219 252.835938 C 207.15625 252.425781 205.613281 251.257812 204.984375 250.785156 C 204.824219 250.664062 204.765625 250.453125 204.839844 250.265625 C 205.746094 247.964844 207.296875 245.789062 209.496094 243.960938 L 209.195312 243.75 C 209.101562 243.683594 209.074219 243.554688 209.136719 243.453125 L 226.757812 215.113281 C 227.414062 214.054688 227.890625 212.894531 228.15625 211.679688 L 233.753906 186.378906 C 233.832031 186.019531 233.824219 185.648438 233.722656 185.292969 L 232.21875 180.011719 L 229.214844 180.136719 C 229.003906 180.144531 228.828125 179.972656 228.832031 179.761719 L 229.082031 166.695312 L 227.761719 168.574219 C 227.132812 169.476562 226.449219 170.335938 225.71875 171.15625 L 214.449219 183.785156 C 214.351562 183.890625 214.183594 183.890625 214.085938 183.785156 L 212.800781 182.34375 L 212.78125 182.324219 L 208.679688 177.730469 L 208.625 177.667969 L 207.664062 176.59375 C 207.585938 176.507812 207.582031 176.378906 207.648438 176.289062 L 220.816406 158.675781 C 221.550781 157.691406 222.160156 156.617188 222.628906 155.480469 L 228.414062 141.457031 C 229.210938 139.519531 230.414062 137.769531 231.9375 136.328125 L 233.921875 134.445312 L 234.777344 134.457031 L 238.382812 134.511719 L 244.699219 134.605469 L 247.664062 134.648438 L 248.410156 134.660156 L 251.703125 138.800781 C 253.207031 140.691406 254.230469 142.921875 254.6875 145.296875 L 255.320312 148.605469 L 262.484375 155.351562 C 263.296875 156.117188 264.25 156.722656 265.292969 157.128906 L 279.453125 162.695312 C 279.621094 162.761719 279.703125 162.953125 279.636719 163.121094 L 279.25 164.128906 L 277 169.964844 L 276.945312 170.101562 L 276.398438 171.527344 C 276.335938 171.683594 276.167969 171.769531 276.003906 171.726562 L 258.816406 166.863281 L 260.988281 178.210938 C 261.066406 178.617188 261.261719 178.992188 261.550781 179.289062 L 278.308594 196.398438 C 279.761719 197.882812 280.589844 199.867188 280.621094 201.941406 L 282.304688 244.132812 C 282.304688 244.199219 282.253906 244.257812 282.1875 244.261719 L 281.84375 244.289062 L 281.179688 244.335938 L 289.925781 248.601562 C 290.214844 248.746094 290.398438 249.039062 290.398438 249.359375 Z M 234.429688 127.898438 C 235.246094 128.722656 236.136719 129.4375 237.113281 130.03125 L 238.09375 127.40625 L 238.101562 127.402344 C 235.226562 126.640625 235.417969 122.703125 237.980469 122.824219 L 239.472656 123.894531 L 240.90625 123.136719 L 240.308594 118.828125 L 245.707031 117.101562 L 246.328125 118.371094 L 246.617188 118.964844 L 246.847656 117.433594 C 246.988281 116.476562 246.625 115.515625 245.886719 114.894531 L 243.644531 113.011719 C 242.773438 112.28125 241.585938 112.042969 240.496094 112.382812 C 238.390625 113.035156 236.320312 113.925781 234.28125 115.007812 C 232.863281 115.757812 231.902344 117.160156 231.667969 118.746094 L 231.398438 120.605469 C 231.164062 122.222656 231.488281 123.878906 232.351562 125.265625 C 232.96875 126.253906 233.664062 127.125 234.429688 127.898438 Z M 194.984375 289.28125 L 193.613281 288.320312 L 193.355469 288.144531 L 193.183594 288.023438 L 190.449219 288.148438 C 189.257812 288.207031 188.054688 288.003906 186.9375 287.566406 L 175.851562 283.242188 C 175.84375 283.441406 175.8125 283.640625 175.765625 283.832031 C 175.03125 286.90625 175.125 289.90625 175.777344 292.863281 C 175.832031 293.121094 176.070312 293.3125 176.347656 293.3125 L 179.5 293.3125 C 179.816406 293.3125 180.074219 293.054688 180.074219 292.742188 L 180.074219 288.644531 C 180.074219 288.546875 180.195312 288.5 180.257812 288.574219 L 183.910156 292.808594 C 184.195312 293.121094 184.597656 293.3125 185.027344 293.3125 L 194.957031 293.3125 C 195.3125 293.3125 195.597656 293.027344 195.597656 292.675781 L 195.597656 290.453125 C 195.597656 289.984375 195.367188 289.546875 194.984375 289.28125 Z M 138.71875 297.617188 L 138.492188 297.144531 L 136.058594 295.902344 C 135.363281 295.550781 134.726562 295.089844 134.15625 294.558594 C 133.847656 294.277344 133.554688 293.980469 133.292969 293.65625 L 125.804688 284.410156 C 125.804688 284.414062 125.800781 284.417969 125.796875 284.421875 C 125.691406 284.585938 125.570312 284.742188 125.4375 284.882812 C 123.277344 287.1875 121.875 289.839844 120.972656 292.734375 C 120.894531 292.984375 121.007812 293.269531 121.25 293.40625 L 123.988281 294.96875 C 124.261719 295.125 124.613281 295.027344 124.769531 294.753906 L 126.796875 291.195312 C 126.84375 291.113281 126.976562 291.132812 126.992188 291.21875 L 128.070312 296.710938 C 128.164062 297.128906 128.417969 297.492188 128.789062 297.703125 L 128.835938 297.730469 L 137.417969 302.621094 C 137.722656 302.796875 138.113281 302.6875 138.289062 302.382812 L 139.59375 300.09375 C 139.699219 299.910156 139.703125 299.691406 139.613281 299.5 Z M 175.457031 278.117188 L 185.324219 277.941406 L 185.761719 277.933594 C 185.855469 277.933594 185.929688 277.855469 185.929688 277.765625 L 185.75 245.132812 C 185.742188 243.613281 185.410156 242.117188 184.78125 240.734375 L 177.109375 223.953125 L 176.101562 224.335938 L 166.363281 228.015625 C 166.300781 228.042969 166.234375 228.035156 166.175781 228.007812 C 166.121094 227.976562 166.078125 227.925781 166.0625 227.859375 L 160.753906 207.191406 L 160.535156 206.351562 L 160.414062 205.875 C 160.101562 204.652344 159.925781 203.398438 159.890625 202.136719 L 159.183594 178.027344 L 159.121094 175.957031 C 156.824219 179.824219 151.703125 180.742188 148.886719 178.09375 C 148.640625 177.859375 148.414062 177.597656 148.207031 177.308594 L 148.363281 178.503906 L 148.542969 179.902344 L 151.648438 203.785156 C 151.769531 204.734375 151.839844 205.6875 151.847656 206.644531 L 151.859375 207.398438 L 151.867188 208.0625 L 152.121094 229.75 C 152.121094 229.882812 152.011719 229.988281 151.878906 229.980469 L 142.722656 229.457031 L 141.726562 229.398438 C 141.28125 236.324219 140.925781 243.53125 140.660156 250.6875 C 140.628906 251.589844 140.398438 252.476562 139.992188 253.28125 L 126.164062 280.5625 C 126.070312 280.742188 126.152344 280.964844 126.339844 281.046875 L 127.214844 281.425781 L 127.21875 281.425781 L 136.257812 285.328125 L 136.964844 285.632812 C 137.136719 285.707031 137.339844 285.636719 137.421875 285.464844 L 151.351562 257.511719 C 151.863281 256.484375 152.238281 255.390625 152.460938 254.261719 L 157.902344 226.835938 C 157.933594 226.664062 158.101562 226.554688 158.269531 226.59375 L 160.617188 227.101562 C 160.738281 227.128906 160.84375 227.203125 160.914062 227.308594 L 173.535156 246.761719 C 174.027344 247.519531 174.292969 248.402344 174.304688 249.304688 L 174.632812 277.964844 C 174.636719 278.058594 174.707031 278.128906 174.800781 278.128906 L 175.453125 278.117188 Z M 131.789062 180.808594 C 132.492188 180.367188 133.25 179.894531 133.25 179.894531 C 133.402344 179.796875 133.585938 179.945312 133.53125 180.117188 C 132.792969 182.546875 133.277344 185.3125 135.042969 187.148438 L 135.265625 186.535156 L 135.492188 185.898438 C 136.648438 182.675781 138.808594 179.90625 141.648438 177.992188 L 147.761719 173.882812 L 148.160156 171.65625 C 147.296875 170.855469 146.589844 169.714844 146.125 168.234375 C 145.921875 167.578125 145.765625 166.851562 145.664062 166.058594 C 145.636719 165.835938 145.609375 165.601562 145.589844 165.367188 C 145.527344 164.621094 145.980469 163.925781 146.683594 163.671875 C 148.636719 162.964844 150.71875 161.902344 152.925781 160.492188 C 153.363281 160.214844 153.933594 160.363281 154.1875 160.8125 C 154.898438 162.058594 155.796875 163.300781 156.890625 164.53125 C 157.140625 164.8125 157.585938 164.804688 157.832031 164.523438 L 158.390625 163.871094 C 159.238281 163.582031 159.871094 163.761719 160.28125 164.191406 C 160.28125 164.191406 160.28125 164.191406 160.28125 164.1875 C 160.46875 163.652344 160.582031 163.101562 160.582031 162.542969 C 160.582031 158.457031 157.027344 155.140625 152.644531 155.140625 C 148.261719 155.140625 144.382812 158.40625 144.382812 162.496094 C 144.382812 163.882812 144.605469 165.234375 145.074219 166.410156 C 145.164062 166.636719 145.140625 166.890625 144.996094 167.089844 C 144.59375 167.644531 143.503906 168.707031 140.8125 169.339844 C 134.214844 170.882812 131.289062 174.59375 130.703125 180.132812 C 130.644531 180.71875 131.289062 181.125 131.789062 180.808594 Z M 314.375 87.050781 C 314.375 87.050781 314.375 87.050781 314.375 87.054688 L 314.382812 87.054688 C 314.398438 86.785156 314.421875 86.511719 314.449219 86.242188 C 314.488281 85.828125 314.851562 85.515625 315.269531 85.527344 L 322.601562 85.710938 C 323.03125 85.722656 323.371094 86.074219 323.367188 86.503906 L 323.332031 89.246094 C 323.328125 89.355469 323.40625 89.453125 323.515625 89.472656 L 324.417969 89.660156 C 324.507812 89.679688 324.589844 89.636719 324.640625 89.566406 C 324.652344 89.554688 324.667969 89.550781 324.675781 89.535156 L 325.59375 87.585938 C 327.28125 87.179688 328.183594 88.292969 328.09375 89.632812 C 329.367188 87.679688 329.109375 85.292969 328.769531 83.867188 C 328.59375 83.109375 327.992188 82.527344 327.234375 82.34375 L 326.351562 82.132812 C 326.066406 82.0625 325.816406 81.886719 325.660156 81.636719 L 325.28125 81.027344 C 325.25 80.980469 325.214844 80.941406 325.183594 80.898438 C 324.875 80.480469 324.429688 80.171875 323.914062 80.078125 C 321.328125 79.597656 318.652344 79.511719 315.90625 79.753906 C 314.925781 79.839844 314.132812 80.585938 314.003906 81.5625 C 313.746094 83.542969 313.5625 85.4375 314.371094 87.042969 C 314.375 87.046875 314.375 87.050781 314.375 87.050781 Z M 349.214844 122.234375 L 351.683594 122.234375 C 353.054688 122.234375 354.40625 121.902344 355.625 121.265625 L 365.664062 116.007812 L 372.378906 112.492188 C 372.457031 112.449219 372.492188 112.355469 372.453125 112.277344 L 371.804688 110.84375 L 371.804688 110.839844 L 369.019531 104.683594 L 368.75 104.089844 C 368.714844 104.011719 368.621094 103.972656 368.539062 104.003906 L 358.863281 107.851562 L 352.183594 110.507812 C 351.71875 110.691406 351.195312 110.636719 350.777344 110.363281 L 337.261719 101.472656 C 336.011719 100.648438 334.699219 99.914062 333.34375 99.277344 L 326.855469 96.234375 L 326.839844 96.226562 L 326.761719 97.359375 L 326.730469 97.78125 L 326.300781 103.824219 L 324.023438 135.8125 L 323.929688 137.15625 L 315.601562 137.15625 L 315.640625 135.8125 L 316.761719 98.074219 L 316.78125 97.359375 L 316.804688 96.601562 L 316.800781 96.601562 L 310.957031 98.953125 C 308.105469 100.101562 305.835938 102.347656 304.660156 105.191406 L 297.242188 123.136719 L 296.980469 123.773438 L 287.613281 146.964844 C 287.578125 147.046875 287.617188 147.140625 287.699219 147.175781 L 288.773438 147.632812 L 288.777344 147.636719 L 295.382812 150.457031 L 296.234375 150.820312 C 296.3125 150.855469 296.402344 150.824219 296.441406 150.75 L 302.773438 138.859375 L 303.816406 136.898438 L 303.550781 140.523438 L 303.191406 145.339844 C 303.183594 145.464844 303.28125 145.574219 303.40625 145.574219 L 305.109375 145.574219 L 303.441406 180.699219 L 302.195312 227.941406 C 302.191406 228.011719 302.253906 228.066406 302.320312 228.058594 L 302.808594 227.996094 L 302.734375 228.195312 C 302.355469 229.203125 301.816406 230.148438 301.144531 230.988281 L 295.996094 237.433594 C 295.671875 237.839844 295.660156 238.410156 295.96875 238.824219 L 296.851562 240.015625 L 297.597656 241.023438 C 297.953125 241.5 298.613281 241.625 299.117188 241.3125 L 307.617188 236.011719 C 308.167969 235.667969 308.609375 235.175781 308.894531 234.589844 L 309.386719 233.578125 L 310.273438 234.339844 C 310.414062 234.460938 310.617188 234.484375 310.78125 234.394531 L 314.152344 232.554688 C 314.390625 232.425781 314.542969 232.175781 314.539062 231.902344 C 314.527344 230.890625 314.394531 229.863281 314.191406 228.828125 C 314.046875 228.113281 313.875 227.398438 313.652344 226.679688 L 314.042969 226.632812 C 314.097656 226.625 314.136719 226.582031 314.140625 226.527344 L 317.210938 181.773438 C 317.261719 181.058594 317.339844 180.347656 317.445312 179.636719 L 319.679688 164.59375 L 321.25 154.050781 C 321.261719 153.957031 321.367188 153.902344 321.453125 153.945312 L 322.765625 154.609375 C 322.953125 154.703125 323.121094 154.839844 323.25 155.007812 L 337.765625 175.335938 C 338.253906 176.019531 338.664062 176.757812 338.984375 177.53125 L 340.941406 182.21875 L 350.597656 205.332031 L 352.867188 210.765625 C 352.890625 210.824219 352.953125 210.855469 353.015625 210.835938 L 353.644531 210.652344 L 353.644531 210.78125 C 353.644531 211.1875 353.851562 212.269531 353.9375 212.707031 C 353.960938 212.824219 354.039062 212.917969 354.15625 212.957031 C 354.652344 213.128906 356.035156 213.609375 356.621094 213.816406 C 356.78125 213.871094 356.957031 213.8125 357.046875 213.671875 L 357.652344 212.757812 L 358.515625 214.566406 C 358.621094 214.792969 358.777344 214.992188 358.976562 215.148438 C 359.75 215.765625 361.875 217.371094 363.726562 218.046875 C 364.914062 218.480469 366.199219 218.707031 367.421875 218.371094 C 368.644531 218.027344 369.675781 217.492188 370.429688 216.699219 C 371.488281 215.574219 371.242188 213.75 369.980469 212.863281 L 365.234375 209.53125 C 364.625 209.109375 364.128906 208.558594 363.765625 207.90625 L 363.65625 207.707031 L 364.183594 207.550781 C 364.253906 207.53125 364.289062 207.460938 364.265625 207.394531 L 361.160156 198.519531 L 358.429688 190.71875 L 351.722656 171.558594 C 351.445312 170.765625 351.078125 170.007812 350.632812 169.292969 L 335.714844 145.570312 L 336.664062 145.570312 C 336.785156 145.570312 336.882812 145.472656 336.878906 145.351562 L 336.621094 126.796875 L 336.488281 117.359375 L 345.746094 121.496094 C 346.839844 121.984375 348.019531 122.234375 349.214844 122.234375 Z M 106.578125 330.722656 L 104.703125 329.8125 L 104.230469 329.585938 L 101.554688 330.140625 C 100.386719 330.386719 99.167969 330.375 97.992188 330.117188 L 92.417969 328.910156 L 100.71875 327.125 L 102.816406 326.671875 C 102.96875 326.640625 103.058594 326.492188 103.023438 326.34375 L 100.222656 314.785156 L 94.777344 292.324219 C 94.109375 289.566406 93.089844 286.90625 91.746094 284.410156 L 90.046875 281.257812 L 92.652344 271.570312 C 93.34375 268.996094 93.375 266.285156 92.746094 263.695312 L 92.070312 260.929688 L 91.179688 261.316406 L 88.164062 262.636719 C 88.085938 262.675781 88.011719 262.625 87.992188 262.550781 L 83.316406 245.167969 C 83.289062 245.066406 83.136719 245.082031 83.132812 245.1875 L 82.28125 263.398438 C 82.28125 263.46875 82.226562 263.523438 82.167969 263.523438 L 64.40625 264.476562 L 63.429688 264.53125 L 64.210938 267.792969 C 64.976562 270.988281 66.417969 273.980469 68.4375 276.570312 L 74.96875 284.9375 L 49.195312 311.125 C 49.082031 311.242188 49.070312 311.425781 49.171875 311.554688 L 50.035156 312.671875 C 47.371094 314.019531 45.222656 315.890625 43.417969 318.140625 C 43.253906 318.347656 43.253906 318.652344 43.429688 318.867188 L 45.40625 321.320312 C 45.605469 321.566406 45.96875 321.605469 46.210938 321.40625 L 49.402344 318.835938 C 49.476562 318.773438 49.589844 318.839844 49.574219 318.925781 L 48.570312 324.433594 C 48.503906 324.855469 48.609375 325.289062 48.878906 325.621094 L 55.113281 333.351562 C 55.335938 333.625 55.738281 333.667969 56.011719 333.449219 L 58.0625 331.792969 C 58.226562 331.660156 58.308594 331.460938 58.296875 331.246094 L 58.152344 329.167969 L 58.113281 328.648438 L 56.304688 326.601562 C 55.507812 325.707031 54.910156 324.644531 54.550781 323.5 L 51.878906 315.066406 L 58.5625 323.738281 L 59.621094 325.109375 C 59.75 325.28125 60.007812 325.28125 60.140625 325.109375 L 82.539062 296.023438 L 84.253906 324.304688 L 84.613281 330.265625 C 84.625 330.433594 84.78125 330.550781 84.941406 330.515625 L 86.335938 330.214844 C 86.410156 332.617188 86.941406 334.902344 87.808594 337.109375 C 87.902344 337.355469 88.171875 337.507812 88.445312 337.464844 L 91.554688 336.96875 C 91.867188 336.917969 92.078125 336.621094 92.03125 336.3125 L 91.382812 332.265625 C 91.371094 332.171875 91.484375 332.105469 91.550781 332.164062 L 95.832031 335.773438 C 96.164062 336.039062 96.589844 336.164062 97.015625 336.097656 L 106.820312 334.53125 C 107.167969 334.476562 107.40625 334.148438 107.351562 333.796875 L 106.933594 331.195312 C 106.902344 330.988281 106.769531 330.816406 106.578125 330.722656 Z M 61.667969 212.367188 C 62.789062 212.367188 65.675781 212.367188 68.925781 212.367188 L 69.625 208.828125 L 69.628906 208.828125 C 66.464844 206.839844 67.550781 202.53125 70.839844 203.34375 L 70.839844 203.339844 L 70.84375 203.34375 L 77.347656 200.027344 C 77.945312 199.726562 78.675781 199.9375 79.019531 200.511719 L 80.550781 203.097656 C 81.015625 207.4375 79.855469 210.417969 77.8125 211.519531 L 78.160156 212.367188 C 79.746094 212.367188 80.972656 212.367188 81.535156 212.367188 C 81.777344 212.367188 81.992188 212.21875 82.085938 211.996094 C 82.347656 211.394531 82.335938 210.578125 82.105469 209.820312 C 81.984375 209.421875 81.957031 209 82.054688 208.59375 C 82.265625 207.703125 82.296875 206.789062 81.992188 206.007812 C 81.871094 205.703125 81.851562 205.363281 81.898438 205.042969 C 82.175781 203.046875 81.644531 200.9375 81.644531 200.9375 C 81.644531 200.9375 81.488281 200.414062 81.203125 199.761719 C 81.195312 199.734375 81.175781 199.695312 81.15625 199.667969 C 81.003906 199.3125 80.820312 198.980469 80.601562 198.65625 C 80.257812 198.109375 79.839844 197.605469 79.351562 197.167969 C 79.121094 196.945312 78.875 196.746094 78.605469 196.566406 C 77.824219 196.03125 76.992188 195.609375 76.132812 195.332031 C 75.597656 195.140625 75.054688 195.007812 74.511719 194.921875 C 71.007812 194.375 67.277344 195.808594 64.824219 199.398438 C 64.679688 199.609375 64.496094 199.796875 64.304688 199.972656 C 63.382812 200.8125 63.027344 202.0625 63.167969 203.222656 C 63.21875 203.648438 63.101562 204.085938 62.808594 204.402344 C 61.878906 205.398438 61.613281 206.542969 61.90625 207.804688 C 61.992188 208.183594 61.917969 208.589844 61.695312 208.910156 C 61.070312 209.816406 60.941406 210.800781 61.078125 211.832031 C 61.121094 212.132812 61.363281 212.367188 61.667969 212.367188 Z M 61.667969 212.367188 " fill-opacity="1" fill-rule="nonzero"/></svg>