<svg xmlns="http://www.w3.org/2000/svg" xmlns:xlink="http://www.w3.org/1999/xlink" width="711" zoomAndPan="magnify" viewBox="0 0 533.25 428.99999" height="572" preserveAspectRatio="xMidYMid meet" version="1.0"><defs><clipPath id="fb42478a49"><path d="M 216 275 L 281 275 L 281 353.40625 L 216 353.40625 Z M 216 275 " clip-rule="nonzero"/></clipPath><clipPath id="1e40f6775e"><path d="M 188 29.859375 L 344.625 29.859375 L 344.625 137 L 188 137 Z M 188 29.859375 " clip-rule="nonzero"/></clipPath><clipPath id="217201bc36"><path d="M 187.417969 68 L 341 68 L 341 180 L 187.417969 180 Z M 187.417969 68 " clip-rule="nonzero"/></clipPath><clipPath id="72fd4910a0"><path d="M 216 329 L 281 329 L 281 353.40625 L 216 353.40625 Z M 216 329 " clip-rule="nonzero"/></clipPath></defs><path fill="#a3e635" d="M 326.132812 4.097656 C 319.589844 1.167969 311.355469 0.289062 300.753906 1.929688 L 300.753906 1.933594 C 300.609375 1.953125 300.464844 1.964844 300.324219 1.964844 C 300.25 1.964844 300.179688 1.996094 300.128906 2.042969 L 300.105469 2.035156 C 300.019531 2.058594 299.933594 2.082031 299.847656 2.097656 L 299.84375 2.097656 C 272.746094 7.410156 243.882812 13.976562 227.484375 28.34375 C 222.242188 32.9375 217.210938 37.976562 213.261719 44.15625 C 182.8125 91.800781 163.011719 120.589844 153.078125 129 C 153.027344 129.042969 152.992188 129.105469 152.980469 129.175781 L 152.964844 129.167969 C 146.003906 138.605469 113.667969 165.425781 58.253906 210.757812 C 47.046875 219.925781 39.472656 228.570312 33.808594 235.042969 C 33.097656 235.851562 32.726562 236.273438 32.058594 237.035156 C 4.867188 267.871094 0.0820312 298.558594 17.195312 330.679688 C 25.425781 346.125 38.082031 357.855469 55.382812 365.601562 C 74.988281 374.378906 100.546875 378.039062 132.390625 376.230469 C 154.910156 374.949219 175.15625 372.578125 192.664062 367.640625 C 244.289062 353.089844 316.03125 336.078125 408.171875 317.152344 C 425.925781 313.507812 440.410156 308.152344 452.121094 303.066406 C 510.582031 277.6875 531.976562 245.082031 517.417969 206.238281 C 514.289062 197.890625 507.554688 190.113281 497.820312 185.210938 C 446.65625 159.449219 415.972656 143.738281 410.085938 134.953125 L 410.070312 134.945312 C 410.058594 134.882812 410.027344 134.828125 409.980469 134.785156 C 402.566406 128.054688 394.359375 119.558594 388.589844 107.679688 C 363.144531 55.253906 346.4375 24.222656 337.820312 13.359375 C 334.636719 9.351562 330.828125 6.199219 326.132812 4.097656 Z M 326.132812 4.097656 " fill-opacity="1" fill-rule="nonzero"/><path fill="#000000" d="M 210.660156 25.289062 C 189.109375 38.65625 166.535156 53.625 157.164062 71.203125 C 154.15625 76.835938 151.488281 82.773438 150.113281 89.324219 C 139.355469 140.515625 131.65625 171.800781 125.816406 182.019531 L 126.09375 181.320312 C 123.730469 191.039062 104.554688 224.78125 71.109375 282.710938 C 64.476562 294.199219 60.789062 304.058594 58.023438 311.449219 C 57.746094 312.195312 57.429688 313.039062 57.171875 313.726562 C 43.871094 348.933594 49.714844 376.707031 74.738281 398.644531 C 100.402344 421.140625 137.816406 422.667969 188.117188 400.308594 C 207.023438 391.902344 223.613281 383.304688 237.019531 373.402344 C 276.613281 344.152344 332.671875 306.265625 405.621094 260.109375 C 419.65625 251.230469 430.339844 241.945312 438.730469 233.789062 C 480.644531 193.058594 488.296875 158.292969 463.335938 129.84375 C 457.988281 123.746094 449.742188 119.285156 439.859375 118.246094 C 386.472656 112.621094 354.683594 109.058594 347.613281 103.144531 L 348.355469 103.582031 C 339.71875 100.199219 329.738281 95.542969 320.785156 87.074219 C 281.921875 50.328125 257.53125 29.140625 246.640625 22.632812 C 237.066406 16.914062 226.046875 16.550781 211.378906 24.855469 C 210.089844 25.585938 208.449219 25.132812 207.71875 23.84375 C 206.988281 22.554688 207.445312 20.917969 208.734375 20.1875 C 224.6875 11.152344 237.808594 11.105469 249.394531 18.027344 C 260.910156 24.90625 285.785156 46.59375 324.472656 83.175781 C 332.6875 90.941406 341.917969 95.292969 350.3125 98.585938 C 350.582031 98.691406 350.835938 98.839844 351.054688 99.027344 C 356.472656 103.554688 385.460938 107.117188 440.421875 112.90625 C 451.574219 114.082031 461.085938 119.136719 467.371094 126.304688 C 495.324219 158.167969 484.960938 196.347656 442.46875 237.640625 C 433.898438 245.972656 422.925781 255.511719 408.492188 264.644531 C 335.601562 310.765625 279.65625 348.574219 240.207031 377.71875 C 226.339844 387.964844 209.332031 396.753906 190.296875 405.214844 C 139.195312 427.933594 99.179688 427.210938 71.199219 402.679688 C 44.234375 379.042969 38.1875 348.792969 52.148438 311.832031 C 52.414062 311.132812 52.710938 310.335938 52.996094 309.570312 C 55.773438 302.144531 59.589844 291.929688 66.460938 280.027344 C 100.269531 221.464844 118.753906 188.78125 120.878906 180.050781 C 120.9375 179.808594 121.03125 179.574219 121.15625 179.355469 C 126.460938 170.074219 133.996094 139.925781 144.859375 88.21875 C 146.386719 80.953125 149.316406 74.503906 152.425781 68.675781 C 162.609375 49.578125 186.609375 33.890625 207.832031 20.726562 C 209.09375 19.945312 210.746094 20.335938 211.527344 21.59375 C 212.308594 22.851562 211.921875 24.507812 210.660156 25.289062 Z M 210.660156 25.289062 " fill-opacity="1" fill-rule="nonzero"/><path fill="#004a62" d="M 312.320312 280.191406 C 312.320312 280.191406 305.109375 285.390625 297.398438 287.914062 C 289.691406 290.425781 273.089844 290.761719 273.089844 290.761719 C 263.480469 298.773438 235.175781 296.289062 227.878906 295.492188 C 226.761719 295.375 225.695312 294.953125 224.792969 294.261719 C 202.136719 276.710938 196.644531 261.207031 195.847656 251.6875 C 195.320312 245.453125 196.808594 241.789062 196.808594 241.789062 L 294.546875 252.691406 C 294.546875 252.691406 296.773438 254.421875 299.703125 256.910156 C 304.980469 261.355469 312.535156 268.214844 313.640625 271.785156 C 313.640625 271.785156 313.644531 271.789062 313.644531 271.792969 C 313.644531 271.792969 313.652344 271.808594 313.652344 271.8125 C 315.324219 277.347656 312.316406 280.191406 312.316406 280.191406 Z M 312.320312 280.191406 " fill-opacity="1" fill-rule="nonzero"/><path fill="#000000" d="M 299.710938 256.910156 C 282.03125 263.746094 259.253906 259.367188 259.253906 259.367188 C 230.394531 263.160156 206.4375 255.808594 195.851562 251.6875 C 195.324219 245.453125 196.8125 241.789062 196.8125 241.789062 L 294.550781 252.691406 C 294.550781 252.691406 296.777344 254.421875 299.710938 256.910156 Z M 299.710938 256.910156 " fill-opacity="1" fill-rule="nonzero"/><path fill="#000000" d="M 312.320312 280.191406 C 312.320312 280.191406 305.109375 285.390625 297.398438 287.914062 C 289.691406 290.425781 273.089844 290.761719 273.089844 290.761719 C 264.234375 298.144531 239.507812 296.613281 229.96875 295.707031 C 227.753906 295.496094 226.363281 293.226562 227.1875 291.15625 C 228.648438 287.5 232.144531 282.085938 240.527344 277.753906 C 250.304688 272.707031 259.003906 272.960938 263.378906 273.582031 C 265.617188 273.898438 267.691406 274.976562 269.199219 276.660156 C 270.96875 278.640625 273.054688 281.886719 273.828125 286.707031 C 273.828125 286.707031 281.621094 275.195312 295.542969 271.070312 C 304.707031 268.355469 310.542969 269.5 313.640625 271.78125 C 313.640625 271.78125 313.644531 271.78125 313.648438 271.785156 C 313.648438 271.785156 313.652344 271.800781 313.652344 271.808594 C 315.324219 277.339844 312.316406 280.1875 312.316406 280.1875 Z M 312.320312 280.191406 " fill-opacity="1" fill-rule="nonzero"/><g clip-path="url(#fb42478a49)"><path fill="#fe9e73" d="M 272.589844 352.859375 C 266.105469 354 226.765625 354.230469 217.210938 344.445312 C 217.210938 344.445312 215.84375 343.558594 216.640625 341.726562 C 216.816406 341.308594 217.890625 338.621094 219.433594 334.683594 C 220.085938 332.996094 220.828125 331.085938 221.625 329.019531 C 223.003906 325.441406 224.535156 321.417969 226.050781 317.363281 C 230.578125 305.21875 234.898438 292.859375 234.265625 291.65625 C 233.015625 289.261719 231.984375 288.929688 231.984375 288.929688 C 231.984375 288.929688 240.0625 272.199219 265.195312 275.839844 C 265.195312 275.839844 273.582031 283.394531 273.078125 290.765625 C 272.746094 295.761719 267.578125 312.007812 264.285156 321.976562 C 262.703125 326.734375 261.558594 330.066406 261.558594 330.066406 C 261.558594 330.066406 264.660156 329.683594 268.421875 330.933594 C 271.339844 331.90625 274.660156 333.851562 277.242188 337.730469 C 283.152344 346.609375 279.0625 351.722656 272.578125 352.859375 Z M 272.589844 352.859375 " fill-opacity="1" fill-rule="nonzero"/></g><path fill="#fe9e73" d="M 275.425781 347.355469 L 270.621094 333.40625 C 270.621094 333.40625 270.777344 332.65625 271.042969 331.367188 C 271.199219 330.570312 271.402344 329.566406 271.636719 328.40625 C 272.191406 325.644531 272.921875 321.972656 273.679688 318.085938 C 275.546875 308.394531 277.585938 297.269531 277.515625 294.921875 C 277.382812 290.59375 275.429688 287.859375 275.429688 287.859375 C 275.429688 287.859375 282.484375 272.953125 307.808594 272.628906 C 307.808594 272.628906 315.019531 279.6875 314.699219 292.351562 C 314.5 300.105469 311.839844 311.226562 309.816406 318.679688 C 308.527344 323.410156 307.488281 326.660156 307.488281 326.660156 C 307.488281 326.660156 314.101562 326.902344 320.597656 329.378906 C 325.933594 331.398438 331.195312 334.949219 332.648438 341.089844 C 335.851562 354.710938 275.429688 347.34375 275.429688 347.34375 Z M 275.425781 347.355469 " fill-opacity="1" fill-rule="nonzero"/><path fill="#ffffff" d="M 320.589844 329.386719 C 319.386719 330.988281 314.148438 337.277344 305.320312 338.003906 C 295.191406 338.847656 281.917969 338.398438 274.824219 336.8125 C 272.519531 336.300781 271.4375 334.101562 271.03125 331.367188 C 271.1875 330.570312 271.394531 329.566406 271.625 328.40625 C 272.179688 325.644531 272.914062 321.972656 273.667969 318.085938 C 278.585938 319.417969 295.355469 323.300781 309.804688 318.683594 C 308.515625 323.414062 307.476562 326.664062 307.476562 326.664062 C 307.476562 326.664062 314.089844 326.90625 320.589844 329.382812 Z M 320.589844 329.386719 " fill-opacity="1" fill-rule="nonzero"/><path fill="#2d7c85" d="M 298.738281 210.585938 C 299.234375 227.359375 294.546875 252.691406 294.546875 252.691406 C 294.546875 252.691406 293.199219 262.417969 249.617188 258.726562 C 206.027344 255.039062 191.445312 241.953125 191.445312 241.953125 C 191.105469 235.914062 193.113281 216.964844 198.148438 203.878906 C 203.171875 190.796875 202.167969 177.207031 210.71875 166.476562 C 214.765625 161.390625 219.863281 160.148438 224.121094 160.242188 C 228.84375 160.351562 232.511719 162.117188 232.511719 162.117188 C 232.511719 162.117188 301.753906 151.210938 315.667969 166.980469 C 316.332031 167.734375 316.984375 168.503906 317.628906 169.285156 C 330.5 184.902344 339.46875 205.890625 339.46875 205.890625 C 331.253906 205.890625 298.734375 210.59375 298.734375 210.59375 Z M 298.738281 210.585938 " fill-opacity="1" fill-rule="nonzero"/><path fill="#000000" d="M 317.636719 169.285156 C 317.636719 169.285156 313.4375 191.429688 267.707031 185.988281 C 238.472656 182.515625 227.929688 169.308594 224.125 160.242188 C 228.847656 160.351562 232.519531 162.117188 232.519531 162.117188 C 232.519531 162.117188 301.757812 151.210938 315.671875 166.980469 C 316.335938 167.734375 316.988281 168.503906 317.636719 169.285156 Z M 317.636719 169.285156 " fill-opacity="1" fill-rule="nonzero"/><g clip-path="url(#1e40f6775e)"><path fill="#000000" d="M 335.285156 113.972656 C 335.285156 113.972656 344.84375 92.5 335.285156 74.886719 C 335.285156 74.886719 347.859375 73.878906 343.832031 58.113281 C 339.808594 42.34375 278.121094 3.933594 212.066406 56.9375 C 212.066406 56.9375 219.105469 42.679688 212.066406 41.84375 C 205.027344 41 207.703125 56.433594 207.703125 56.433594 C 207.703125 56.433594 192.445312 48.886719 190.9375 55.09375 C 189.429688 61.296875 206.53125 61.132812 206.53125 61.132812 C 206.53125 61.132812 174.511719 84.449219 195.132812 121.515625 C 215.75 158.582031 335.28125 113.964844 335.28125 113.964844 Z M 335.285156 113.972656 " fill-opacity="1" fill-rule="nonzero"/></g><g clip-path="url(#217201bc36)"><path fill="#fe9e73" d="M 330.316406 76.316406 C 330.316406 76.316406 312.34375 75.703125 298.863281 71.613281 C 285.382812 67.527344 277.824219 68.957031 277.824219 68.957031 C 277.824219 68.957031 289.464844 73.042969 283.335938 78.765625 C 277.207031 84.484375 242.484375 81.011719 230.84375 72.019531 C 230.84375 72.019531 233.902344 106.558594 214.910156 122.085938 C 214.910156 122.085938 208.578125 111.664062 196.9375 116.980469 C 185.292969 122.292969 185.089844 140.28125 192.238281 150.089844 C 199.382812 159.898438 213.074219 159.285156 218.585938 154.382812 C 218.585938 154.382812 232.269531 181.359375 281.089844 179.316406 C 329.90625 177.273438 340.929688 158.269531 340.933594 137.21875 C 340.9375 120.570312 336.4375 114.53125 335.421875 100.636719 C 334.402344 86.738281 332.761719 81.019531 330.316406 76.316406 Z M 330.316406 76.316406 " fill-opacity="1" fill-rule="nonzero"/></g><path fill="#fe9e73" d="M 293.523438 149.917969 C 293.523438 149.917969 295.953125 148.382812 298.253906 149.152344 C 298.253906 149.152344 299.917969 142.367188 306.570312 144.800781 C 306.570312 144.800781 319.105469 138.660156 322.5625 163.359375 C 322.5625 163.359375 326.527344 159.519531 330.238281 162.847656 C 333.945312 166.175781 331.511719 182.050781 323.839844 191.007812 C 323.839844 191.007812 330.964844 200.261719 333.410156 206.257812 L 339.46875 205.890625 C 339.46875 205.890625 346.992188 230.554688 325.117188 236.957031 C 303.242188 243.359375 297.097656 223.128906 292.621094 205.984375 C 288.144531 188.828125 285.070312 186.015625 285.070312 186.015625 L 293.515625 149.917969 Z M 293.523438 149.917969 " fill-opacity="1" fill-rule="nonzero"/><path fill="#ffffff" d="M 259.859375 135.746094 C 267.617188 135.746094 273.90625 128.023438 273.90625 118.496094 C 273.90625 108.96875 267.617188 101.246094 259.859375 101.246094 C 252.101562 101.246094 245.8125 108.96875 245.8125 118.496094 C 245.8125 128.023438 252.101562 135.746094 259.859375 135.746094 Z M 259.859375 135.746094 " fill-opacity="1" fill-rule="nonzero"/><path fill="#000000" d="M 261.503906 132.695312 C 266.621094 132.695312 270.773438 127.597656 270.773438 121.3125 C 270.773438 115.023438 266.621094 109.925781 261.503906 109.925781 C 256.382812 109.925781 252.234375 115.023438 252.234375 121.3125 C 252.234375 127.597656 256.382812 132.695312 261.503906 132.695312 Z M 261.503906 132.695312 " fill-opacity="1" fill-rule="nonzero"/><path fill="#ffffff" d="M 309.371094 131.121094 C 317.128906 131.121094 323.417969 123.398438 323.417969 113.871094 C 323.417969 104.34375 317.128906 96.617188 309.371094 96.617188 C 301.617188 96.617188 295.328125 104.34375 295.328125 113.871094 C 295.328125 123.398438 301.617188 131.121094 309.371094 131.121094 Z M 309.371094 131.121094 " fill-opacity="1" fill-rule="nonzero"/><path fill="#000000" d="M 308.359375 128.066406 C 313.480469 128.066406 317.628906 122.96875 317.628906 116.683594 C 317.628906 110.398438 313.480469 105.300781 308.359375 105.300781 C 303.242188 105.300781 299.089844 110.398438 299.089844 116.683594 C 299.089844 122.96875 303.242188 128.066406 308.359375 128.066406 Z M 308.359375 128.066406 " fill-opacity="1" fill-rule="nonzero"/><path fill="#000000" d="M 261.46875 83.445312 C 263.367188 82.253906 265.753906 83.945312 265.347656 86.152344 C 264.828125 88.933594 262.992188 93.511719 256.609375 95.886719 C 247.046875 99.445312 242.800781 96.628906 242.375 93.707031 C 242 91.109375 245.824219 91.699219 246.671875 91.867188 C 246.816406 91.894531 246.953125 91.910156 247.097656 91.917969 C 248.546875 91.953125 255.730469 91.742188 260.726562 84.195312 C 260.914062 83.914062 261.148438 83.65625 261.433594 83.472656 C 261.445312 83.464844 261.453125 83.457031 261.464844 83.449219 Z M 261.46875 83.445312 " fill-opacity="1" fill-rule="nonzero"/><path fill="#000000" d="M 303.011719 80.96875 C 301.117188 79.777344 298.730469 81.472656 299.136719 83.675781 C 299.65625 86.460938 301.492188 91.039062 307.875 93.410156 C 317.4375 96.96875 321.683594 94.152344 322.109375 91.230469 C 322.484375 88.632812 318.660156 89.226562 317.8125 89.394531 C 317.667969 89.417969 317.53125 89.4375 317.386719 89.441406 C 315.9375 89.480469 308.753906 89.269531 303.757812 81.71875 C 303.570312 81.4375 303.335938 81.179688 303.050781 80.996094 C 303.039062 80.992188 303.027344 80.980469 303.019531 80.976562 Z M 303.011719 80.96875 " fill-opacity="1" fill-rule="nonzero"/><path fill="#000000" d="M 275.425781 347.355469 L 270.621094 333.40625 C 270.621094 333.40625 271.027344 331.449219 271.636719 328.40625 C 296.695312 336.621094 307.488281 326.671875 307.488281 326.671875 C 307.488281 326.671875 329.4375 327.472656 332.644531 341.105469 C 335.847656 354.726562 275.425781 347.359375 275.425781 347.359375 Z M 275.425781 347.355469 " fill-opacity="1" fill-rule="nonzero"/><path fill="#ffffff" d="M 268.433594 330.933594 C 263.933594 333.476562 259.207031 335.574219 259.207031 335.574219 C 259.207031 335.574219 223.808594 335.574219 222.84375 335.679688 C 222.527344 335.71875 221.140625 335.289062 219.433594 334.683594 C 220.085938 332.996094 220.828125 331.085938 221.625 329.019531 C 223.003906 325.441406 224.535156 321.417969 226.050781 317.363281 C 231.515625 319.003906 245.40625 322.441406 264.285156 321.980469 C 262.703125 326.734375 261.558594 330.066406 261.558594 330.066406 C 261.558594 330.066406 264.660156 329.683594 268.421875 330.933594 Z M 268.433594 330.933594 " fill-opacity="1" fill-rule="nonzero"/><g clip-path="url(#72fd4910a0)"><path fill="#000000" d="M 272.589844 352.859375 C 266.105469 354 226.765625 354.230469 217.210938 344.445312 C 217.210938 344.445312 215.84375 343.558594 216.640625 341.726562 C 216.898438 341.132812 218.972656 335.902344 221.621094 329.019531 C 231.234375 334.332031 250.039062 333.964844 254.125 331.269531 C 258.359375 328.476562 261.558594 330.066406 261.558594 330.066406 C 261.558594 330.066406 271.328125 328.851562 277.246094 337.730469 C 283.160156 346.609375 279.066406 351.722656 272.582031 352.859375 Z M 272.589844 352.859375 " fill-opacity="1" fill-rule="nonzero"/></g><path fill="#fe9e73" d="M 238.886719 207.234375 L 250.453125 188.277344 C 250.453125 188.277344 242.574219 174.863281 243.75 167.480469 C 244.925781 160.097656 253.546875 163.242188 255.058594 168.441406 C 255.058594 168.441406 258.839844 152.890625 262.527344 147.851562 C 266.214844 142.820312 272.417969 144.164062 272.417969 144.164062 C 272.417969 144.164062 275.5 141.144531 279.65625 141.3125 C 283.816406 141.476562 283.3125 144.332031 283.3125 144.332031 C 283.3125 144.332031 284.992188 142.488281 288.511719 142.652344 C 292.03125 142.820312 292.195312 147.683594 292.195312 147.683594 C 292.195312 147.683594 296.890625 148.1875 297.390625 152.714844 C 297.894531 157.246094 295.046875 178.710938 294.207031 184.917969 C 293.367188 191.125 287.167969 192.96875 285.152344 199.84375 C 283.140625 206.722656 272.578125 239.597656 250.113281 242.785156 C 227.652344 245.972656 222.957031 230.878906 222.957031 230.878906 C 222.957031 230.878906 221.113281 217.289062 238.882812 207.226562 Z M 238.886719 207.234375 " fill-opacity="1" fill-rule="nonzero"/><path fill="#000000" d="M 287.980469 142.546875 C 287.476562 142.546875 286.957031 142.53125 286.433594 142.492188 C 285.777344 142.449219 285.285156 141.882812 285.332031 141.226562 C 285.375 140.566406 285.945312 140.078125 286.597656 140.121094 C 291.523438 140.449219 295.488281 139.074219 297.203125 136.441406 C 298.269531 134.808594 298.292969 132.824219 297.269531 130.859375 C 294.730469 126.003906 285.308594 129.582031 285.210938 129.617188 C 284.601562 129.851562 283.914062 129.550781 283.675781 128.9375 C 283.4375 128.320312 283.742188 127.636719 284.355469 127.398438 C 284.824219 127.214844 295.855469 123.019531 299.375 129.753906 C 300.792969 132.472656 300.726562 135.386719 299.191406 137.734375 C 297.199219 140.792969 293.074219 142.539062 287.988281 142.539062 Z M 287.980469 142.546875 " fill-opacity="1" fill-rule="nonzero"/><path fill="#000000" d="M 212.667969 140.109375 C 212.242188 140.109375 211.839844 139.882812 211.621094 139.484375 C 211.386719 139.039062 205.679688 128.726562 195.679688 132.234375 C 195.0625 132.453125 194.382812 132.128906 194.167969 131.507812 C 193.949219 130.886719 194.273438 130.207031 194.894531 129.992188 C 206.820312 125.808594 213.644531 138.230469 213.714844 138.363281 C 214.027344 138.9375 213.804688 139.660156 213.230469 139.972656 C 213.050781 140.070312 212.855469 140.113281 212.667969 140.113281 Z M 212.667969 140.109375 " fill-opacity="1" fill-rule="nonzero"/><path fill="#000000" d="M 203.210938 147.3125 C 202.855469 147.3125 202.507812 147.15625 202.273438 146.855469 C 202.152344 146.703125 199.414062 143.132812 200.082031 138.683594 C 200.519531 135.777344 202.289062 133.222656 205.339844 131.097656 C 205.878906 130.722656 206.617188 130.855469 206.992188 131.394531 C 207.371094 131.933594 207.234375 132.671875 206.695312 133.050781 C 204.207031 134.785156 202.773438 136.804688 202.433594 139.039062 C 201.917969 142.488281 204.121094 145.367188 204.140625 145.394531 C 204.546875 145.910156 204.453125 146.660156 203.9375 147.066406 C 203.722656 147.230469 203.464844 147.320312 203.203125 147.320312 Z M 203.210938 147.3125 " fill-opacity="1" fill-rule="nonzero"/><path fill="#000000" d="M 287.148438 196.914062 C 286.816406 196.914062 286.488281 196.777344 286.25 196.507812 C 285.820312 196.015625 285.863281 195.261719 286.359375 194.832031 C 286.453125 194.746094 292.320312 189.433594 293.488281 180.707031 C 294.847656 170.59375 296.320312 153.460938 295.453125 150.6875 C 294.78125 148.554688 292.632812 148.824219 292.390625 148.859375 C 291.742188 148.957031 291.132812 148.519531 291.03125 147.878906 C 290.925781 147.230469 291.355469 146.628906 292.003906 146.515625 C 293.523438 146.25 296.675781 146.644531 297.722656 149.976562 C 298.945312 153.882812 296.777344 174.101562 295.851562 181.027344 C 294.554688 190.691406 288.203125 196.378906 287.933594 196.617188 C 287.707031 196.816406 287.425781 196.914062 287.148438 196.914062 Z M 287.148438 196.914062 " fill-opacity="1" fill-rule="nonzero"/><path fill="#000000" d="M 289.820312 166.824219 C 289.726562 166.824219 289.636719 166.8125 289.542969 166.789062 C 288.902344 166.640625 288.511719 165.996094 288.660156 165.363281 C 290.132812 159.160156 291.960938 148.363281 290.617188 145.78125 C 289.898438 144.402344 288.746094 143.640625 287.351562 143.648438 C 286.203125 143.667969 285.140625 144.28125 284.714844 145.183594 C 284.429688 145.777344 283.730469 146.023438 283.128906 145.742188 C 282.539062 145.464844 282.285156 144.75 282.570312 144.160156 C 283.390625 142.4375 285.25 141.304688 287.308594 141.269531 C 287.339844 141.269531 287.378906 141.269531 287.410156 141.269531 C 289.632812 141.269531 291.609375 142.539062 292.722656 144.6875 C 294.914062 148.898438 291.382812 164.1875 290.972656 165.910156 C 290.84375 166.457031 290.351562 166.828125 289.820312 166.828125 Z M 289.820312 166.824219 " fill-opacity="1" fill-rule="nonzero"/><path fill="#000000" d="M 269.75 165.925781 C 269.65625 165.925781 269.558594 165.917969 269.46875 165.894531 C 268.832031 165.738281 268.4375 165.097656 268.59375 164.460938 C 268.628906 164.320312 271.949219 150.613281 271.660156 145.417969 C 271.542969 143.273438 272.820312 141.363281 275.085938 140.3125 C 277.460938 139.207031 280.949219 139.121094 283.390625 141.417969 C 287.066406 144.882812 283.988281 161.644531 283.335938 164.972656 C 283.207031 165.621094 282.582031 166.035156 281.941406 165.910156 C 281.292969 165.78125 280.878906 165.160156 281.003906 164.515625 C 282.523438 156.78125 283.761719 145.042969 281.757812 143.15625 C 280.132812 141.628906 277.675781 141.730469 276.085938 142.476562 C 275.441406 142.777344 273.941406 143.65625 274.035156 145.296875 C 274.339844 150.839844 271.042969 164.457031 270.902344 165.03125 C 270.769531 165.578125 270.28125 165.9375 269.75 165.9375 Z M 269.75 165.925781 " fill-opacity="1" fill-rule="nonzero"/><path fill="#000000" d="M 254.691406 172.257812 C 254.578125 172.257812 254.464844 172.242188 254.351562 172.210938 C 253.71875 172.027344 253.363281 171.363281 253.546875 170.730469 C 253.773438 169.957031 259.167969 151.71875 261.46875 147.300781 C 263.109375 144.160156 266.308594 143.042969 268.828125 143.042969 C 268.886719 143.042969 268.941406 143.042969 269 143.042969 C 271.34375 143.089844 273.25 144.070312 273.972656 145.609375 C 274.253906 146.203125 274 146.914062 273.402344 147.195312 C 272.808594 147.476562 272.097656 147.214844 271.816406 146.621094 C 271.5 145.941406 270.316406 145.445312 268.945312 145.414062 C 268.902344 145.414062 268.859375 145.414062 268.820312 145.414062 C 267.011719 145.414062 264.71875 146.195312 263.578125 148.398438 C 261.382812 152.609375 255.882812 171.210938 255.828125 171.402344 C 255.675781 171.917969 255.203125 172.253906 254.691406 172.253906 Z M 254.691406 172.257812 " fill-opacity="1" fill-rule="nonzero"/><path fill="#000000" d="M 245.527344 178.976562 C 245.09375 178.976562 244.675781 178.738281 244.464844 178.324219 C 242.757812 174.9375 241.453125 169.941406 242.9375 166.0625 C 243.652344 164.175781 244.984375 162.808594 246.785156 162.105469 C 251.515625 160.25 255.074219 164.683594 256.292969 167.285156 C 256.570312 167.878906 256.3125 168.589844 255.71875 168.867188 C 255.128906 169.148438 254.421875 168.886719 254.140625 168.292969 C 254.03125 168.066406 251.5 162.808594 247.652344 164.316406 C 246.476562 164.773438 245.636719 165.648438 245.15625 166.910156 C 244.179688 169.46875 244.753906 173.621094 246.589844 177.25 C 246.886719 177.839844 246.648438 178.550781 246.066406 178.847656 C 245.894531 178.933594 245.710938 178.976562 245.535156 178.976562 Z M 245.527344 178.976562 " fill-opacity="1" fill-rule="nonzero"/><path fill="#000000" d="M 322.675781 168.328125 C 322.640625 168.328125 322.605469 168.328125 322.570312 168.328125 C 321.921875 168.273438 321.433594 167.695312 321.488281 167.042969 C 321.5 166.925781 322.039062 159.445312 317.640625 150.738281 C 313.585938 142.714844 307.375 145.734375 307.109375 145.863281 C 306.527344 146.152344 305.808594 145.921875 305.515625 145.332031 C 305.21875 144.746094 305.453125 144.035156 306.042969 143.738281 C 306.128906 143.695312 314.65625 139.542969 319.765625 149.664062 C 324.496094 159.035156 323.886719 166.914062 323.859375 167.242188 C 323.804688 167.863281 323.289062 168.332031 322.679688 168.332031 Z M 322.675781 168.328125 " fill-opacity="1" fill-rule="nonzero"/><path fill="#000000" d="M 313.707031 162.515625 C 313.160156 162.515625 312.667969 162.136719 312.546875 161.582031 C 311.054688 154.777344 307.421875 145.214844 303.992188 145.214844 L 303.972656 145.214844 C 302.382812 145.238281 301.191406 145.65625 300.433594 146.464844 C 299.398438 147.566406 299.445312 149.074219 299.445312 149.085938 C 299.476562 149.746094 298.976562 150.300781 298.320312 150.332031 C 297.6875 150.363281 297.105469 149.863281 297.074219 149.207031 C 297.070312 149.101562 296.964844 146.679688 298.695312 144.832031 C 299.914062 143.53125 301.675781 142.859375 303.941406 142.832031 L 303.992188 142.832031 C 310.546875 142.832031 314.203125 158.015625 314.871094 161.0625 C 315.011719 161.707031 314.605469 162.335938 313.964844 162.476562 C 313.878906 162.496094 313.792969 162.503906 313.710938 162.503906 Z M 313.707031 162.515625 " fill-opacity="1" fill-rule="nonzero"/><path fill="#000000" d="M 303.234375 163.445312 C 302.671875 163.445312 302.171875 163.046875 302.070312 162.476562 C 301.519531 159.527344 299.476562 151.484375 296.664062 149.6875 C 296.226562 149.40625 295.828125 149.328125 295.402344 149.433594 C 294.765625 149.597656 294.121094 149.210938 293.960938 148.574219 C 293.796875 147.9375 294.179688 147.292969 294.816406 147.128906 C 295.878906 146.859375 296.960938 147.046875 297.941406 147.679688 C 302.125 150.355469 304.183594 160.847656 304.402344 162.039062 C 304.523438 162.6875 304.097656 163.308594 303.457031 163.425781 C 303.378906 163.441406 303.308594 163.445312 303.234375 163.445312 Z M 303.234375 163.445312 " fill-opacity="1" fill-rule="nonzero"/><path fill="#000000" d="M 330.855469 177.988281 C 330.6875 177.988281 330.515625 177.953125 330.355469 177.875 C 329.761719 177.601562 329.503906 176.894531 329.777344 176.296875 C 329.816406 176.214844 333.378906 168.390625 330.097656 164.621094 C 327.109375 161.1875 323.785156 163.515625 323.417969 163.792969 C 322.894531 164.1875 322.152344 164.082031 321.753906 163.558594 C 321.359375 163.039062 321.457031 162.296875 321.972656 161.898438 C 323.820312 160.480469 328.269531 158.902344 331.882812 163.058594 C 336.179688 167.992188 332.105469 176.917969 331.929688 177.300781 C 331.726562 177.730469 331.296875 177.984375 330.851562 177.984375 Z M 330.855469 177.988281 " fill-opacity="1" fill-rule="nonzero"/><path fill="#000000" d="M 222.960938 232.070312 C 222.304688 232.070312 221.777344 231.539062 221.777344 230.878906 C 221.8125 213.726562 238.242188 206.21875 238.410156 206.144531 C 239.007812 205.875 239.707031 206.144531 239.976562 206.75 C 240.246094 207.347656 239.976562 208.046875 239.378906 208.316406 C 239.226562 208.386719 224.191406 215.296875 224.160156 230.886719 C 224.160156 231.542969 223.625 232.070312 222.96875 232.070312 Z M 222.960938 232.070312 " fill-opacity="1" fill-rule="nonzero"/><path fill="#000000" d="M 335.160156 211.277344 C 334.710938 211.277344 334.277344 211.019531 334.078125 210.578125 C 334.039062 210.496094 330.320312 202.257812 327.511719 198.207031 C 327.140625 197.667969 327.269531 196.929688 327.808594 196.550781 C 328.347656 196.179688 329.085938 196.308594 329.464844 196.847656 C 332.402344 201.074219 336.089844 209.25 336.246094 209.59375 C 336.515625 210.195312 336.246094 210.898438 335.648438 211.167969 C 335.492188 211.238281 335.324219 211.273438 335.160156 211.273438 Z M 335.160156 211.277344 " fill-opacity="1" fill-rule="nonzero"/><path fill="#000000" d="M 273.957031 288.539062 C 273.304688 288.539062 272.777344 288.015625 272.765625 287.363281 C 272.765625 287.203125 272.519531 276.898438 264.132812 270.058594 C 263.625 269.644531 263.546875 268.894531 263.960938 268.386719 C 264.375 267.882812 265.125 267.800781 265.632812 268.214844 C 274.929688 275.796875 275.132812 286.875 275.136719 287.34375 C 275.144531 288 274.617188 288.535156 273.964844 288.546875 L 273.953125 288.546875 Z M 273.957031 288.539062 " fill-opacity="1" fill-rule="nonzero"/><path fill="#000000" d="M 221.722656 236.71875 C 218.429688 236.71875 214.089844 235.34375 211.691406 230.199219 C 209.085938 224.613281 204.296875 210.785156 204.832031 198.480469 C 204.859375 197.824219 205.410156 197.3125 206.070312 197.34375 C 206.730469 197.371094 207.234375 197.925781 207.207031 198.582031 C 206.695312 210.4375 211.324219 223.789062 213.847656 229.195312 C 216.984375 235.921875 223.59375 234.15625 223.871094 234.078125 C 224.507812 233.898438 225.160156 234.269531 225.339844 234.902344 C 225.515625 235.53125 225.144531 236.191406 224.515625 236.367188 C 223.765625 236.578125 222.800781 236.722656 221.726562 236.722656 Z M 221.722656 236.71875 " fill-opacity="1" fill-rule="nonzero"/><path fill="#000000" d="M 312.902344 238.191406 C 312.789062 238.191406 312.671875 238.175781 312.558594 238.144531 C 295.332031 232.933594 292.523438 210.695312 292.417969 209.75 C 292.339844 209.101562 292.804688 208.511719 293.457031 208.429688 C 294.109375 208.355469 294.703125 208.820312 294.777344 209.472656 C 294.804688 209.6875 297.519531 231.113281 313.246094 235.863281 C 313.878906 236.050781 314.234375 236.714844 314.039062 237.34375 C 313.882812 237.855469 313.414062 238.191406 312.902344 238.191406 Z M 312.902344 238.191406 " fill-opacity="1" fill-rule="nonzero"/><path fill="#000000" d="M 237.988281 191.402344 C 237.5625 191.402344 237.152344 191.175781 236.941406 190.777344 L 233.503906 184.371094 C 233.191406 183.792969 233.414062 183.070312 233.988281 182.757812 C 234.566406 182.449219 235.289062 182.660156 235.601562 183.242188 L 239.039062 189.648438 C 239.351562 190.226562 239.132812 190.949219 238.554688 191.261719 C 238.375 191.359375 238.183594 191.402344 237.992188 191.402344 Z M 237.988281 191.402344 " fill-opacity="1" fill-rule="nonzero"/><path fill="#004a62" d="M 250.078125 337.300781 C 249.949219 337.300781 249.816406 337.277344 249.6875 337.234375 C 249.070312 337.019531 248.742188 336.34375 248.949219 335.722656 C 251.121094 329.40625 258.246094 328.488281 261.695312 328.882812 C 262.347656 328.957031 262.816406 329.542969 262.742188 330.195312 C 262.667969 330.851562 262.074219 331.320312 261.425781 331.242188 C 261.085938 331.207031 253.285156 330.417969 251.191406 336.496094 C 251.027344 336.984375 250.5625 337.300781 250.066406 337.300781 Z M 250.078125 337.300781 " fill-opacity="1" fill-rule="nonzero"/><path fill="#004a62" d="M 258.175781 337.546875 C 257.976562 337.546875 257.777344 337.496094 257.59375 337.390625 C 257.023438 337.066406 256.824219 336.34375 257.148438 335.773438 C 259.089844 332.332031 264.5625 331.542969 264.796875 331.511719 C 265.4375 331.425781 266.046875 331.878906 266.132812 332.527344 C 266.222656 333.171875 265.765625 333.777344 265.121094 333.863281 C 263.859375 334.042969 260.351562 334.9375 259.21875 336.9375 C 259.003906 337.324219 258.597656 337.542969 258.183594 337.542969 Z M 258.175781 337.546875 " fill-opacity="1" fill-rule="nonzero"/><path fill="#004a62" d="M 279.507812 349.511719 C 279.390625 349.511719 279.277344 349.496094 279.160156 349.457031 C 278.535156 349.265625 278.179688 348.601562 278.371094 347.976562 C 278.394531 347.894531 279.882812 342.789062 277.355469 338.308594 C 275.667969 335.3125 272.566406 333.222656 268.136719 332.085938 C 267.5 331.921875 267.117188 331.273438 267.28125 330.636719 C 267.441406 330.003906 268.089844 329.621094 268.726562 329.78125 C 273.816406 331.089844 277.425781 333.574219 279.433594 337.164062 C 282.457031 342.5625 280.71875 348.421875 280.640625 348.671875 C 280.484375 349.183594 280.015625 349.511719 279.503906 349.511719 Z M 279.507812 349.511719 " fill-opacity="1" fill-rule="nonzero"/><path fill="#004a62" d="M 302.097656 332.121094 C 301.910156 332.121094 301.71875 332.078125 301.542969 331.980469 C 300.960938 331.675781 300.746094 330.953125 301.050781 330.375 C 303.34375 326.058594 307.476562 325.546875 309.339844 325.882812 C 309.988281 325.996094 310.417969 326.617188 310.300781 327.261719 C 310.1875 327.910156 309.566406 328.335938 308.929688 328.226562 C 308.769531 328.203125 305.179688 327.667969 303.152344 331.496094 C 302.9375 331.902344 302.527344 332.125 302.101562 332.125 Z M 302.097656 332.121094 " fill-opacity="1" fill-rule="nonzero"/><path fill="#004a62" d="M 310.371094 331.539062 C 310.101562 331.539062 309.824219 331.449219 309.605469 331.257812 C 309.101562 330.832031 309.039062 330.082031 309.464844 329.582031 C 311.796875 326.816406 314.074219 327.042969 314.324219 327.074219 C 314.976562 327.167969 315.429688 327.765625 315.339844 328.410156 C 315.253906 329.054688 314.664062 329.5 314.027344 329.429688 C 313.925781 329.421875 312.71875 329.398438 311.273438 331.113281 C 311.039062 331.394531 310.703125 331.535156 310.363281 331.535156 Z M 310.371094 331.539062 " fill-opacity="1" fill-rule="nonzero"/></svg>