<svg xmlns="http://www.w3.org/2000/svg" xmlns:xlink="http://www.w3.org/1999/xlink" width="674" zoomAndPan="magnify" viewBox="0 0 505.5 473.999983" height="632" preserveAspectRatio="xMidYMid meet" version="1.0"><path fill="#a3e635" d="M 168.714844 27.136719 C 123.613281 27 88.945312 45.777344 64.710938 83.472656 C 64.6875 83.503906 64.671875 83.542969 64.664062 83.582031 L 64.644531 83.582031 C 60.503906 90.535156 57.59375 99.214844 55.917969 109.617188 C 55.90625 109.683594 55.917969 109.753906 55.945312 109.8125 L 55.925781 109.8125 C 53.871094 165.972656 51.015625 197.355469 47.355469 203.96875 C 47.324219 204.027344 47.308594 204.09375 47.316406 204.15625 L 47.296875 204.15625 C 20.902344 270.886719 7.1875 307.976562 6.15625 315.4375 C 6.144531 315.527344 6.171875 315.621094 6.234375 315.691406 L 6.238281 315.695312 C 6.519531 316.277344 6.605469 316.945312 6.46875 317.601562 C 2.359375 337.304688 3.152344 354.996094 8.851562 370.671875 C 8.863281 370.707031 8.882812 370.742188 8.90625 370.769531 L 8.886719 370.769531 C 22.351562 406.835938 48.167969 425.160156 86.34375 425.742188 L 86.347656 425.742188 C 86.363281 425.742188 86.375 425.738281 86.390625 425.738281 L 86.378906 425.738281 C 96.171875 424.832031 106.480469 422.46875 117.304688 418.648438 L 117.289062 418.648438 L 117.402344 418.617188 C 181.839844 387.792969 222.464844 372.125 239.273438 371.613281 L 239.285156 371.613281 L 239.304688 371.609375 L 239.433594 371.574219 C 242.492188 369.964844 250.253906 369.179688 262.726562 369.21875 C 285.289062 369.289062 323.148438 372.070312 376.308594 377.5625 L 376.367188 377.5625 L 376.390625 377.566406 C 377.027344 377.574219 377.664062 377.582031 378.304688 377.582031 C 388.796875 377.613281 399.300781 376.402344 409.816406 373.941406 L 409.824219 373.9375 L 409.828125 373.941406 L 409.855469 373.925781 L 409.871094 373.929688 C 434.128906 367.683594 452.3125 353.992188 464.425781 332.855469 L 464.425781 332.859375 L 464.472656 332.777344 L 464.472656 332.78125 C 477.246094 311.894531 479.878906 289.113281 472.371094 264.429688 L 472.34375 264.429688 C 472.351562 264.382812 472.34375 264.335938 472.328125 264.292969 C 469.882812 257.152344 466.09375 248.960938 460.960938 239.71875 L 460.9375 239.71875 C 460.933594 239.65625 460.914062 239.597656 460.878906 239.546875 C 435.800781 202.800781 420.230469 177.179688 414.164062 162.6875 L 414.140625 162.6875 C 414.152344 162.609375 414.132812 162.53125 414.085938 162.460938 C 409.332031 155.511719 400.140625 127.640625 386.515625 78.84375 L 386.53125 78.847656 C 386.527344 78.832031 386.527344 78.824219 386.519531 78.8125 C 381.375 65.636719 375.363281 55.003906 368.488281 46.914062 L 368.414062 46.824219 C 361.773438 38.421875 351.886719 33.585938 338.75 32.3125 C 338.210938 32.261719 337.707031 32.066406 337.28125 31.761719 L 337.261719 31.765625 C 337.210938 31.671875 337.121094 31.609375 337.011719 31.597656 C 336.304688 31.515625 335.289062 31.472656 333.972656 31.46875 C 323.863281 31.4375 295.566406 33.695312 249.089844 38.238281 L 248.90625 38.25 L 248.902344 38.25 C 248.144531 38.28125 247.351562 38.292969 246.523438 38.289062 C 236.710938 38.257812 222.097656 36.011719 202.683594 31.539062 C 201.941406 31.371094 201.328125 30.9375 200.914062 30.367188 L 200.894531 30.367188 C 200.878906 30.226562 200.773438 30.109375 200.628906 30.085938 C 189.46875 28.152344 178.828125 27.167969 168.714844 27.136719 Z M 168.714844 27.136719 " fill-opacity="1" fill-rule="nonzero"/><path fill="#000000" d="M 158.179688 43.511719 C 96.15625 48.613281 56.78125 77.277344 40.066406 129.503906 L 40.09375 129.410156 C 37.867188 137.15625 37.292969 146.265625 38.367188 156.738281 L 38.300781 156.335938 C 50.917969 211.390625 56.257812 242.46875 54.332031 249.570312 L 54.425781 249.082031 C 45.871094 323.085938 42.273438 362.558594 43.636719 367.503906 C 43.347656 366.464844 42.550781 365.871094 41.238281 365.71875 C 40.5 365.632812 39.832031 365.792969 39.230469 366.191406 C 40.214844 365.535156 41.476562 365.457031 42.535156 365.988281 C 43.59375 366.519531 44.285156 367.574219 44.351562 368.757812 C 45.46875 388.640625 50.75 405.335938 60.199219 418.847656 L 60.183594 418.828125 C 82.304688 449.949219 111.722656 460.863281 148.4375 451.574219 L 148.109375 451.675781 C 157.375 448.269531 166.761719 443.292969 176.273438 436.742188 L 176 436.953125 C 231.144531 389.757812 266.476562 364.167969 282 360.1875 L 279.996094 361.671875 C 280.148438 361.425781 280.320312 361.183594 280.515625 360.949219 C 286.027344 354.324219 330.519531 344.335938 414.003906 330.980469 L 413.730469 331.035156 C 424.511719 328.367188 434.941406 324.332031 445.019531 318.929688 L 444.960938 318.960938 C 466.554688 306.792969 480.433594 289.0625 486.597656 265.761719 L 486.625 265.671875 C 493.5 242.394531 490.144531 219.902344 476.558594 198.1875 L 476.617188 198.277344 C 472.390625 191.992188 466.5625 185.015625 459.132812 177.359375 L 459.347656 177.5625 C 425.398438 148.367188 403.753906 127.621094 394.410156 115.328125 L 394.953125 115.890625 C 388.742188 110.84375 372.617188 86.296875 346.585938 42.253906 L 346.765625 42.53125 C 338.472656 31.25 330.003906 22.625 321.367188 16.65625 L 321.269531 16.585938 C 312.824219 10.289062 302.183594 8.210938 289.351562 10.347656 C 288.183594 10.542969 287 10.097656 286.253906 9.179688 C 285.503906 8.261719 285.300781 7.015625 285.726562 5.910156 C 284.992188 7.824219 285.578125 9.148438 287.484375 9.878906 C 287.769531 9.988281 288.015625 10.042969 288.21875 10.039062 C 284.066406 10.09375 256.324219 19.757812 204.996094 39.023438 L 204.808594 39.085938 C 195.527344 41.960938 180.15625 43.777344 158.691406 44.535156 C 156.867188 44.601562 155.339844 43.175781 155.273438 41.351562 C 155.210938 39.53125 156.636719 38 158.457031 37.9375 C 179.335938 37.199219 194.132812 35.476562 202.855469 32.777344 L 202.671875 32.839844 C 254.722656 13.300781 283.210938 3.5 288.132812 3.433594 C 288.773438 3.425781 289.347656 3.519531 289.851562 3.710938 C 292.054688 4.558594 292.734375 6.078125 291.894531 8.273438 L 288.265625 3.832031 C 302.949219 1.386719 315.265625 3.871094 325.21875 11.289062 L 325.121094 11.222656 C 334.367188 17.609375 343.355469 26.742188 352.089844 38.617188 C 352.152344 38.707031 352.214844 38.796875 352.269531 38.894531 C 377.902344 82.257812 393.519531 106.214844 399.121094 110.765625 C 399.324219 110.929688 399.507812 111.121094 399.667969 111.328125 C 408.730469 123.253906 430.058594 143.660156 463.65625 172.554688 C 463.730469 172.621094 463.800781 172.6875 463.871094 172.761719 C 471.578125 180.699219 477.652344 187.980469 482.097656 194.59375 L 482.15625 194.683594 C 496.796875 218.078125 500.394531 242.363281 492.957031 267.542969 L 492.984375 267.453125 C 486.34375 292.546875 471.414062 311.636719 448.203125 324.714844 L 448.140625 324.75 C 437.574219 330.414062 426.636719 334.644531 415.320312 337.445312 C 415.226562 337.46875 415.136719 337.484375 415.046875 337.5 C 333.195312 350.597656 290.046875 359.820312 285.59375 365.171875 C 285.605469 365.15625 285.625 365.132812 285.644531 365.101562 C 285.195312 365.839844 284.476562 366.371094 283.640625 366.585938 C 269.109375 370.3125 234.664062 395.441406 180.296875 441.972656 C 180.207031 442.046875 180.117188 442.117188 180.019531 442.183594 C 170.050781 449.046875 160.171875 454.277344 150.386719 457.875 C 150.28125 457.914062 150.171875 457.949219 150.058594 457.976562 C 110.421875 468.007812 78.667969 456.234375 54.800781 422.65625 L 54.785156 422.632812 C 44.621094 408.09375 38.945312 390.257812 37.757812 369.125 L 42.882812 371.691406 C 42.140625 372.183594 41.339844 372.378906 40.480469 372.28125 C 38.839844 372.089844 37.769531 371.082031 37.265625 369.253906 C 35.679688 363.484375 39.210938 323.175781 47.863281 248.324219 C 47.882812 248.160156 47.914062 248 47.957031 247.839844 C 49.597656 241.800781 44.230469 211.792969 31.863281 157.8125 C 31.832031 157.679688 31.808594 157.542969 31.796875 157.410156 C 30.636719 146.089844 31.285156 136.148438 33.746094 127.585938 L 33.773438 127.492188 C 51.390625 72.457031 92.679688 42.269531 157.636719 36.929688 C 159.457031 36.78125 161.050781 38.132812 161.199219 39.949219 C 161.351562 41.769531 159.996094 43.363281 158.179688 43.511719 Z M 158.179688 43.511719 " fill-opacity="1" fill-rule="nonzero"/><path fill="#bf5a49" d="M 361.574219 130.664062 C 327.605469 122.753906 294.714844 118.496094 292.410156 124.75 C 292.410156 124.75 227.402344 285.144531 295.886719 316.890625 C 296.054688 316.964844 296.214844 317.023438 296.382812 317.097656 C 388.652344 358.925781 433.277344 159.070312 433.277344 159.070312 C 435.664062 151.804688 397.847656 139.117188 361.574219 130.664062 Z M 361.574219 130.664062 " fill-opacity="1" fill-rule="nonzero"/><path fill="#040140" d="M 287.171875 179.136719 C 291.027344 177.035156 286.578125 197.707031 301.898438 202.765625 C 317.777344 208.003906 325.34375 193.328125 327.886719 195.582031 C 330.449219 197.855469 313.644531 226.4375 295.269531 219.964844 C 277.644531 213.753906 282.558594 181.644531 287.171875 179.136719 Z M 287.171875 179.136719 " fill-opacity="1" fill-rule="nonzero"/><path fill="#040140" d="M 400.398438 214.039062 C 397.980469 209.597656 387.070312 230.875 368.65625 224.796875 C 350.933594 218.949219 354.144531 202.285156 350.492188 202.648438 C 346.863281 203.011719 342.316406 236.539062 362.757812 243.742188 C 384.125 251.269531 403.339844 219.429688 400.398438 214.039062 Z M 400.398438 214.039062 " fill-opacity="1" fill-rule="nonzero"/><path fill="#040140" d="M 289.519531 266.171875 C 291.332031 270.570312 301.761719 250.511719 318.097656 256.789062 C 335.050781 263.3125 331.65625 280.671875 335.347656 280.546875 C 339.0625 280.417969 343.753906 245.511719 324.039062 238.382812 C 305.148438 231.554688 287.367188 260.933594 289.519531 266.171875 Z M 289.519531 266.171875 " fill-opacity="1" fill-rule="nonzero"/><path fill="#f2c849" d="M 215.152344 79.207031 C 211.835938 74.851562 182.703125 83.855469 150.542969 96.914062 C 112.605469 112.324219 68.53125 134.179688 71.789062 140.933594 C 71.789062 140.933594 156.792969 398.472656 263.722656 273.929688 C 263.878906 273.746094 264.035156 273.589844 264.191406 273.40625 C 319.578125 208.371094 215.152344 79.207031 215.152344 79.207031 Z M 215.152344 79.207031 " fill-opacity="1" fill-rule="nonzero"/><path fill="#0a151c" d="M 255.359375 160.617188 C 254.113281 164.554688 244.457031 147.460938 230.652344 154.121094 C 215.613281 161.371094 220.160156 177.109375 216.75 177.378906 C 213.277344 177.652344 205.636719 144.808594 223.910156 137.074219 C 240.429688 130.085938 256.84375 155.921875 255.355469 160.617188 Z M 255.359375 160.617188 " fill-opacity="1" fill-rule="nonzero"/><path fill="#0a151c" d="M 142.410156 221.757812 C 148.5625 222.796875 139.644531 198.015625 161.671875 187.390625 C 181.542969 177.808594 191.796875 192.257812 194.421875 189.207031 C 197.011719 186.195312 174.703125 157.90625 150.632812 168.09375 C 123.421875 179.609375 134.773438 220.472656 142.410156 221.757812 Z M 142.410156 221.757812 " fill-opacity="1" fill-rule="nonzero"/><path fill="#0a151c" d="M 186.351562 208.554688 C 187.011719 202.945312 203.082031 222.023438 218.960938 209.652344 C 236.496094 196 228.78125 175.796875 233.132812 174.464844 C 237.554688 173.113281 249.992188 214.007812 229.453125 228.414062 C 211.082031 241.296875 185.582031 215.105469 186.351562 208.554688 Z M 186.351562 208.554688 " fill-opacity="1" fill-rule="nonzero"/></svg>