<svg xmlns="http://www.w3.org/2000/svg" xmlns:xlink="http://www.w3.org/1999/xlink" width="711" zoomAndPan="magnify" viewBox="0 0 533.25 428.250001" height="571" preserveAspectRatio="xMidYMid meet" version="1.0"><defs><clipPath id="af2830c84f"><path d="M 145.363281 133 L 386.441406 133 L 386.441406 375.144531 L 145.363281 375.144531 Z M 145.363281 133 " clip-rule="nonzero"/></clipPath><clipPath id="2c847e5f0c"><path d="M 156 134 L 386.441406 134 L 386.441406 375 L 156 375 Z M 156 134 " clip-rule="nonzero"/></clipPath><clipPath id="c547a34d80"><path d="M 233 51.710938 L 299 51.710938 L 299 118 L 233 118 Z M 233 51.710938 " clip-rule="nonzero"/></clipPath></defs><path fill="#a3e635" d="M 182.578125 17.65625 C 162.519531 21.96875 141.769531 32.101562 120.378906 47.867188 L 120.378906 47.871094 C 120.289062 47.933594 120.207031 47.988281 120.113281 48.046875 C 120.039062 48.089844 119.984375 48.15625 119.957031 48.230469 L 119.933594 48.234375 C 77.75 95.675781 20.113281 185.175781 18.253906 255.863281 C 16.347656 328.421875 36.496094 380.21875 76.265625 409.644531 C 93.773438 422.597656 113.785156 426.847656 134.757812 424.679688 C 139.992188 424.140625 145.214844 423.527344 150.3125 422.429688 C 154.109375 421.613281 157.847656 420.527344 161.476562 419.003906 C 203.796875 401.269531 234.9375 389.625 255.269531 385.253906 C 257.535156 384.765625 259.664062 384.371094 261.660156 384.066406 C 272.566406 382.398438 287.316406 380.28125 305.542969 382.554688 C 375.460938 391.28125 413.710938 394.625 422.367188 393.691406 C 428.699219 393.011719 434.839844 392.078125 440.761719 390.804688 C 458.398438 387.011719 474.136719 380.183594 487.441406 367.886719 C 514.765625 342.632812 529.152344 310.589844 530.4375 272.980469 C 531.746094 234.726562 518.933594 204.804688 493.648438 182.972656 C 484.910156 175.425781 476.207031 168.898438 466.304688 166.191406 C 399.863281 148.023438 359.414062 135.363281 347.625 124.816406 L 347.601562 124.820312 C 347.570312 124.738281 347.507812 124.667969 347.421875 124.628906 C 328.261719 115.003906 298.089844 83.625 254.375 33.96875 C 247.351562 25.996094 238.644531 21.183594 230.261719 18.824219 L 230.257812 18.824219 C 230.246094 18.820312 230.234375 18.816406 230.222656 18.8125 C 214.824219 14.492188 198.933594 14.136719 182.578125 17.65625 Z M 182.578125 17.65625 " fill-opacity="0.996" fill-rule="nonzero"/><path fill="#000000" d="M 158.914062 22.183594 C 202.296875 2.636719 240.929688 0.0703125 273.421875 17.210938 C 281.714844 21.585938 289.820312 28.632812 295.425781 38.648438 C 327.066406 95.207031 348.660156 129.761719 363.71875 141.660156 C 363.964844 141.851562 364.175781 142.082031 364.347656 142.339844 C 371.585938 153.089844 405.402344 172.597656 466.277344 204.191406 C 476.285156 209.386719 483.820312 218.230469 490.578125 227.183594 C 511.140625 254.414062 517.371094 287.035156 508 324.363281 C 498.796875 361.015625 477.808594 389.605469 445.566406 408.683594 C 423.988281 421.449219 400.371094 423.199219 375.460938 420.585938 C 366.261719 419.617188 330 408.359375 266.195312 386.082031 C 250.230469 380.503906 236.53125 379.539062 225.992188 378.902344 C 207.398438 377.78125 174.292969 382.371094 125.730469 391.460938 C 116.074219 393.269531 106.515625 392.421875 97.710938 391.457031 C 76.300781 389.117188 56.90625 380.503906 41.949219 363.519531 C 8.710938 325.773438 0.398438 270.628906 17.164062 201.558594 C 33.847656 132.820312 108.542969 58.609375 158.210938 22.441406 C 159.550781 21.46875 161.425781 21.761719 162.402344 23.101562 C 163.375 24.441406 163.082031 26.316406 161.742188 27.289062 C 112.300781 63.289062 39.144531 136.417969 22.988281 202.976562 C 6.480469 271 14.996094 323.835938 46.449219 359.554688 C 60.273438 375.253906 78.207031 383.292969 98.363281 385.496094 C 107.171875 386.460938 115.933594 387.195312 124.628906 385.566406 C 173.015625 376.507812 206.882812 371.742188 226.351562 372.917969 C 236.988281 373.558594 251.382812 374.554688 268.175781 380.417969 C 332.414062 402.851562 367.777344 413.75 376.085938 414.621094 C 400.367188 417.167969 422.496094 415.363281 442.511719 403.519531 C 473.339844 385.28125 493.359375 358.042969 502.183594 322.902344 C 511.160156 287.160156 505.15625 256.4375 485.792969 230.796875 C 479.078125 221.90625 472.234375 214.039062 463.515625 209.515625 C 403.621094 178.433594 367.714844 158.074219 359.375 145.6875 L 360.003906 146.367188 C 343.773438 133.546875 321.550781 97.628906 290.191406 41.574219 C 285.214844 32.679688 278.011719 26.410156 270.621094 22.515625 C 240.34375 6.542969 203.777344 8.546875 161.378906 27.652344 C 159.867188 28.332031 158.09375 27.660156 157.410156 26.152344 C 156.730469 24.640625 157.402344 22.867188 158.914062 22.183594 Z M 158.914062 22.183594 " fill-opacity="0.996" fill-rule="nonzero"/><path fill="#b3b3b3" d="M 265.902344 139.421875 C 262.878906 139.421875 260.425781 136.96875 260.425781 133.941406 L 260.425781 95.566406 C 260.425781 92.539062 262.878906 90.085938 265.902344 90.085938 C 268.925781 90.085938 271.378906 92.539062 271.378906 95.566406 L 271.378906 133.941406 C 271.378906 136.96875 268.925781 139.421875 265.902344 139.421875 Z M 265.902344 139.421875 " fill-opacity="1" fill-rule="nonzero"/><g clip-path="url(#af2830c84f)"><path fill="#daa520" d="M 386.363281 254.542969 C 386.363281 319.285156 335.386719 372.128906 271.378906 374.980469 C 269.570312 375.089844 267.765625 375.144531 265.902344 375.144531 C 199.375 375.144531 145.441406 321.148438 145.441406 254.542969 C 145.441406 187.9375 199.375 133.941406 265.902344 133.941406 C 267.765625 133.941406 269.570312 133.996094 271.378906 134.105469 C 335.386719 136.953125 386.363281 189.800781 386.363281 254.542969 Z M 386.363281 254.542969 " fill-opacity="1" fill-rule="nonzero"/></g><g clip-path="url(#2c847e5f0c)"><path fill="#e2b550" d="M 386.363281 254.542969 C 386.363281 256.511719 386.320312 258.484375 386.226562 260.453125 C 386.132812 262.421875 385.996094 264.386719 385.8125 266.347656 C 385.625 268.308594 385.394531 270.265625 385.121094 272.214844 C 384.84375 274.164062 384.523438 276.105469 384.15625 278.039062 C 383.789062 279.972656 383.375 281.894531 382.917969 283.804688 C 382.460938 285.71875 381.960938 287.617188 381.414062 289.503906 C 380.867188 291.390625 380.277344 293.261719 379.644531 295.117188 C 379.007812 296.972656 378.332031 298.808594 377.613281 300.632812 C 376.890625 302.453125 376.128906 304.253906 375.324219 306.035156 C 374.519531 307.816406 373.675781 309.578125 372.789062 311.316406 C 371.898438 313.054688 370.972656 314.769531 370.003906 316.460938 C 369.039062 318.148438 368.03125 319.816406 366.984375 321.453125 C 365.941406 323.09375 364.855469 324.703125 363.734375 326.285156 C 362.613281 327.871094 361.457031 329.421875 360.265625 330.945312 C 359.070312 332.46875 357.839844 333.960938 356.578125 335.421875 C 355.3125 336.882812 354.015625 338.308594 352.6875 339.703125 C 351.355469 341.097656 349.992188 342.457031 348.597656 343.78125 C 347.203125 345.105469 345.78125 346.390625 344.324219 347.640625 C 342.871094 348.890625 341.386719 350.105469 339.875 351.277344 C 338.363281 352.453125 336.824219 353.585938 335.261719 354.683594 C 333.695312 355.777344 332.105469 356.832031 330.492188 357.84375 C 328.878906 358.859375 327.242188 359.828125 325.582031 360.757812 C 323.921875 361.6875 322.242188 362.574219 320.542969 363.417969 C 318.839844 364.257812 317.121094 365.058594 315.382812 365.8125 C 313.644531 366.566406 311.886719 367.273438 310.117188 367.9375 C 308.34375 368.601562 306.558594 369.222656 304.757812 369.792969 C 302.957031 370.367188 301.144531 370.890625 299.316406 371.371094 C 297.492188 371.847656 295.65625 372.28125 293.8125 372.664062 C 291.964844 373.050781 290.113281 373.386719 288.25 373.675781 C 286.390625 373.964844 284.523438 374.207031 282.648438 374.398438 C 280.777344 374.59375 278.898438 374.738281 277.019531 374.835938 C 275.140625 374.929688 273.261719 374.980469 271.378906 374.980469 C 269.496094 374.980469 267.617188 374.929688 265.734375 374.835938 C 263.855469 374.738281 261.980469 374.59375 260.109375 374.398438 C 258.234375 374.207031 256.367188 373.964844 254.507812 373.675781 C 252.644531 373.386719 250.792969 373.050781 248.945312 372.664062 C 247.101562 372.28125 245.265625 371.847656 243.4375 371.371094 C 241.613281 370.890625 239.800781 370.367188 238 369.792969 C 236.199219 369.222656 234.414062 368.601562 232.640625 367.9375 C 230.867188 367.273438 229.113281 366.566406 227.375 365.8125 C 225.636719 365.058594 223.917969 364.257812 222.214844 363.417969 C 220.515625 362.574219 218.832031 361.6875 217.175781 360.757812 C 215.515625 359.828125 213.878906 358.859375 212.261719 357.84375 C 210.648438 356.832031 209.058594 355.777344 207.496094 354.683594 C 205.929688 353.585938 204.390625 352.453125 202.878906 351.277344 C 201.371094 350.105469 199.886719 348.890625 198.429688 347.640625 C 196.976562 346.390625 195.550781 345.105469 194.15625 343.78125 C 192.765625 342.457031 191.402344 341.097656 190.070312 339.703125 C 188.738281 338.308594 187.441406 336.882812 186.179688 335.421875 C 184.914062 333.960938 183.6875 332.46875 182.492188 330.945312 C 181.296875 329.421875 180.140625 327.871094 179.019531 326.285156 C 177.898438 324.703125 176.816406 323.09375 175.769531 321.453125 C 174.726562 319.816406 173.71875 318.148438 172.75 316.460938 C 171.785156 314.769531 170.855469 313.054688 169.96875 311.316406 C 169.082031 309.578125 168.234375 307.816406 167.433594 306.035156 C 166.628906 304.253906 165.863281 302.453125 165.144531 300.632812 C 164.425781 298.808594 163.746094 296.972656 163.113281 295.117188 C 162.480469 293.261719 161.890625 291.390625 161.34375 289.503906 C 160.796875 287.617188 160.296875 285.71875 159.835938 283.804688 C 159.378906 281.894531 158.96875 279.972656 158.601562 278.039062 C 158.234375 276.105469 157.914062 274.164062 157.636719 272.214844 C 157.359375 270.265625 157.128906 268.308594 156.945312 266.347656 C 156.761719 264.386719 156.621094 262.421875 156.53125 260.453125 C 156.4375 258.484375 156.390625 256.511719 156.390625 254.542969 C 156.390625 252.570312 156.4375 250.601562 156.53125 248.632812 C 156.621094 246.664062 156.761719 244.699219 156.945312 242.738281 C 157.128906 240.773438 157.359375 238.820312 157.636719 236.871094 C 157.914062 234.921875 158.234375 232.980469 158.601562 231.046875 C 158.96875 229.113281 159.378906 227.191406 159.835938 225.277344 C 160.296875 223.367188 160.796875 221.464844 161.34375 219.582031 C 161.890625 217.695312 162.480469 215.824219 163.113281 213.96875 C 163.746094 212.113281 164.425781 210.273438 165.144531 208.453125 C 165.863281 206.632812 166.628906 204.828125 167.433594 203.046875 C 168.234375 201.265625 169.082031 199.507812 169.96875 197.769531 C 170.855469 196.03125 171.785156 194.316406 172.75 192.625 C 173.71875 190.933594 174.726562 189.269531 175.769531 187.628906 C 176.816406 185.992188 177.898438 184.378906 179.019531 182.796875 C 180.140625 181.214844 181.296875 179.660156 182.492188 178.136719 C 183.6875 176.613281 184.914062 175.121094 186.179688 173.660156 C 187.441406 172.199219 188.738281 170.773438 190.070312 169.378906 C 191.402344 167.984375 192.765625 166.625 194.15625 165.304688 C 195.550781 163.980469 196.976562 162.691406 198.429688 161.441406 C 199.886719 160.191406 201.371094 158.980469 202.878906 157.804688 C 204.390625 156.632812 205.929688 155.496094 207.496094 154.402344 C 209.058594 153.304688 210.648438 152.253906 212.261719 151.238281 C 213.878906 150.226562 215.515625 149.253906 217.175781 148.324219 C 218.832031 147.394531 220.515625 146.511719 222.214844 145.667969 C 223.917969 144.824219 225.636719 144.027344 227.375 143.273438 C 229.113281 142.515625 230.867188 141.808594 232.640625 141.144531 C 234.414062 140.480469 236.199219 139.863281 238 139.289062 C 239.800781 138.71875 241.613281 138.191406 243.4375 137.714844 C 245.265625 137.234375 247.101562 136.800781 248.945312 136.417969 C 250.792969 136.035156 252.644531 135.695312 254.507812 135.40625 C 256.367188 135.117188 258.234375 134.878906 260.109375 134.683594 C 261.980469 134.492188 263.855469 134.347656 265.734375 134.25 C 267.617188 134.152344 269.496094 134.105469 271.378906 134.105469 C 273.261719 134.105469 275.140625 134.152344 277.019531 134.25 C 278.898438 134.347656 280.777344 134.492188 282.648438 134.683594 C 284.523438 134.878906 286.390625 135.117188 288.25 135.40625 C 290.113281 135.695312 291.964844 136.035156 293.8125 136.417969 C 295.65625 136.800781 297.492188 137.234375 299.316406 137.714844 C 301.144531 138.191406 302.957031 138.71875 304.757812 139.289062 C 306.558594 139.863281 308.34375 140.480469 310.117188 141.144531 C 311.886719 141.808594 313.644531 142.515625 315.382812 143.273438 C 317.121094 144.027344 318.839844 144.824219 320.542969 145.667969 C 322.242188 146.511719 323.921875 147.394531 325.582031 148.324219 C 327.242188 149.253906 328.878906 150.226562 330.492188 151.238281 C 332.105469 152.253906 333.695312 153.304688 335.261719 154.402344 C 336.824219 155.496094 338.363281 156.632812 339.875 157.804688 C 341.386719 158.980469 342.871094 160.191406 344.324219 161.441406 C 345.78125 162.691406 347.203125 163.980469 348.597656 165.304688 C 349.992188 166.625 351.355469 167.984375 352.6875 169.378906 C 354.015625 170.773438 355.3125 172.199219 356.578125 173.660156 C 357.839844 175.121094 359.070312 176.613281 360.265625 178.136719 C 361.457031 179.660156 362.613281 181.214844 363.734375 182.796875 C 364.855469 184.378906 365.941406 185.992188 366.984375 187.628906 C 368.03125 189.269531 369.039062 190.933594 370.003906 192.625 C 370.972656 194.316406 371.898438 196.03125 372.789062 197.769531 C 373.675781 199.507812 374.519531 201.265625 375.324219 203.046875 C 376.128906 204.828125 376.890625 206.632812 377.613281 208.453125 C 378.332031 210.273438 379.007812 212.113281 379.644531 213.96875 C 380.277344 215.824219 380.867188 217.695312 381.414062 219.582031 C 381.960938 221.464844 382.460938 223.367188 382.917969 225.277344 C 383.375 227.191406 383.789062 229.113281 384.15625 231.046875 C 384.523438 232.980469 384.84375 234.921875 385.121094 236.871094 C 385.394531 238.820312 385.625 240.773438 385.8125 242.738281 C 385.996094 244.699219 386.132812 246.664062 386.226562 248.632812 C 386.320312 250.601562 386.363281 252.570312 386.363281 254.542969 Z M 386.363281 254.542969 " fill-opacity="1" fill-rule="nonzero"/></g><path fill="#f9d895" d="M 364.460938 254.542969 C 364.460938 256.15625 364.421875 257.769531 364.34375 259.382812 C 364.265625 260.996094 364.144531 262.605469 363.988281 264.214844 C 363.828125 265.820312 363.632812 267.421875 363.394531 269.019531 C 363.160156 270.617188 362.882812 272.207031 362.570312 273.792969 C 362.253906 275.375 361.902344 276.953125 361.507812 278.519531 C 361.117188 280.085938 360.6875 281.640625 360.21875 283.1875 C 359.75 284.730469 359.246094 286.265625 358.699219 287.785156 C 358.15625 289.304688 357.578125 290.8125 356.960938 292.304688 C 356.34375 293.796875 355.6875 295.269531 355 296.730469 C 354.308594 298.191406 353.585938 299.632812 352.824219 301.058594 C 352.0625 302.480469 351.269531 303.886719 350.441406 305.269531 C 349.609375 306.65625 348.75 308.019531 347.851562 309.363281 C 346.957031 310.707031 346.027344 312.023438 345.066406 313.320312 C 344.105469 314.621094 343.113281 315.890625 342.089844 317.140625 C 341.066406 318.390625 340.015625 319.609375 338.929688 320.808594 C 337.847656 322.003906 336.734375 323.171875 335.59375 324.316406 C 334.453125 325.457031 333.285156 326.570312 332.089844 327.65625 C 330.894531 328.738281 329.675781 329.792969 328.429688 330.820312 C 327.179688 331.84375 325.910156 332.835938 324.613281 333.796875 C 323.320312 334.761719 322 335.691406 320.660156 336.585938 C 319.320312 337.484375 317.957031 338.347656 316.574219 339.179688 C 315.1875 340.007812 313.785156 340.804688 312.363281 341.566406 C 310.941406 342.328125 309.5 343.050781 308.042969 343.742188 C 306.585938 344.433594 305.109375 345.085938 303.621094 345.707031 C 302.128906 346.324219 300.625 346.90625 299.105469 347.449219 C 297.585938 347.992188 296.058594 348.5 294.511719 348.96875 C 292.96875 349.4375 291.414062 349.867188 289.851562 350.257812 C 288.285156 350.652344 286.710938 351.003906 285.128906 351.320312 C 283.546875 351.636719 281.960938 351.910156 280.363281 352.148438 C 278.769531 352.386719 277.167969 352.582031 275.5625 352.742188 C 273.957031 352.898438 272.351562 353.019531 270.738281 353.097656 C 269.128906 353.175781 267.515625 353.214844 265.902344 353.214844 C 264.289062 353.214844 262.675781 353.175781 261.066406 353.097656 C 259.457031 353.019531 257.847656 352.898438 256.242188 352.742188 C 254.636719 352.582031 253.035156 352.386719 251.441406 352.148438 C 249.84375 351.910156 248.257812 351.636719 246.675781 351.320312 C 245.09375 351.003906 243.519531 350.652344 241.953125 350.257812 C 240.390625 349.867188 238.835938 349.4375 237.292969 348.96875 C 235.75 348.5 234.21875 347.992188 232.699219 347.449219 C 231.179688 346.90625 229.675781 346.324219 228.183594 345.707031 C 226.695312 345.085938 225.222656 344.433594 223.761719 343.742188 C 222.304688 343.050781 220.863281 342.328125 219.441406 341.566406 C 218.019531 340.804688 216.617188 340.007812 215.234375 339.179688 C 213.847656 338.347656 212.488281 337.484375 211.144531 336.585938 C 209.804688 335.691406 208.484375 334.761719 207.191406 333.796875 C 205.894531 332.835938 204.625 331.84375 203.378906 330.820312 C 202.128906 329.792969 200.910156 328.738281 199.714844 327.65625 C 198.519531 326.570312 197.351562 325.457031 196.210938 324.316406 C 195.070312 323.171875 193.957031 322.003906 192.875 320.808594 C 191.792969 319.609375 190.738281 318.390625 189.714844 317.140625 C 188.691406 315.890625 187.699219 314.621094 186.738281 313.320312 C 185.777344 312.023438 184.847656 310.707031 183.953125 309.363281 C 183.058594 308.019531 182.195312 306.65625 181.363281 305.269531 C 180.535156 303.886719 179.742188 302.480469 178.980469 301.058594 C 178.21875 299.632812 177.496094 298.191406 176.804688 296.730469 C 176.117188 295.269531 175.460938 293.796875 174.84375 292.304688 C 174.226562 290.8125 173.648438 289.304688 173.105469 287.785156 C 172.5625 286.265625 172.054688 284.730469 171.585938 283.1875 C 171.117188 281.640625 170.6875 280.085938 170.296875 278.519531 C 169.90625 276.953125 169.550781 275.375 169.238281 273.792969 C 168.921875 272.207031 168.644531 270.617188 168.410156 269.019531 C 168.171875 267.421875 167.976562 265.820312 167.816406 264.214844 C 167.660156 262.605469 167.539062 260.996094 167.460938 259.382812 C 167.382812 257.769531 167.34375 256.15625 167.34375 254.542969 C 167.34375 252.925781 167.382812 251.3125 167.460938 249.699219 C 167.539062 248.085938 167.660156 246.476562 167.816406 244.871094 C 167.976562 243.261719 168.171875 241.660156 168.410156 240.0625 C 168.644531 238.464844 168.921875 236.875 169.238281 235.292969 C 169.550781 233.707031 169.90625 232.132812 170.296875 230.566406 C 170.6875 229 171.117188 227.445312 171.585938 225.898438 C 172.054688 224.351562 172.5625 222.820312 173.105469 221.300781 C 173.648438 219.777344 174.226562 218.273438 174.84375 216.78125 C 175.460938 215.289062 176.117188 213.8125 176.804688 212.351562 C 177.496094 210.894531 178.21875 209.449219 178.980469 208.027344 C 179.742188 206.601562 180.535156 205.199219 181.363281 203.8125 C 182.195312 202.429688 183.058594 201.0625 183.953125 199.722656 C 184.847656 198.378906 185.777344 197.058594 186.738281 195.761719 C 187.699219 194.464844 188.691406 193.191406 189.714844 191.941406 C 190.738281 190.695312 191.792969 189.472656 192.875 188.277344 C 193.957031 187.078125 195.070312 185.910156 196.210938 184.769531 C 197.351562 183.625 198.519531 182.511719 199.714844 181.429688 C 200.910156 180.34375 202.128906 179.289062 203.378906 178.265625 C 204.625 177.242188 205.894531 176.246094 207.191406 175.285156 C 208.484375 174.324219 209.804688 173.394531 211.144531 172.496094 C 212.488281 171.601562 213.847656 170.734375 215.234375 169.90625 C 216.617188 169.074219 218.019531 168.28125 219.441406 167.519531 C 220.863281 166.757812 222.304688 166.03125 223.761719 165.339844 C 225.222656 164.652344 226.695312 163.996094 228.183594 163.378906 C 229.675781 162.761719 231.179688 162.179688 232.699219 161.636719 C 234.21875 161.089844 235.75 160.585938 237.292969 160.117188 C 238.835938 159.648438 240.390625 159.214844 241.953125 158.824219 C 243.519531 158.433594 245.09375 158.078125 246.675781 157.761719 C 248.257812 157.449219 249.84375 157.171875 251.441406 156.933594 C 253.035156 156.699219 254.636719 156.5 256.242188 156.34375 C 257.847656 156.183594 259.457031 156.066406 261.066406 155.984375 C 262.675781 155.90625 264.289062 155.867188 265.902344 155.867188 C 267.515625 155.867188 269.128906 155.90625 270.738281 155.984375 C 272.351562 156.066406 273.957031 156.183594 275.5625 156.34375 C 277.167969 156.5 278.769531 156.699219 280.363281 156.933594 C 281.960938 157.171875 283.546875 157.449219 285.128906 157.761719 C 286.710938 158.078125 288.285156 158.433594 289.851562 158.824219 C 291.414062 159.214844 292.96875 159.648438 294.511719 160.117188 C 296.058594 160.585938 297.585938 161.089844 299.105469 161.636719 C 300.625 162.179688 302.128906 162.761719 303.621094 163.378906 C 305.109375 163.996094 306.585938 164.652344 308.042969 165.339844 C 309.5 166.03125 310.941406 166.757812 312.363281 167.519531 C 313.785156 168.28125 315.1875 169.074219 316.574219 169.90625 C 317.957031 170.734375 319.320312 171.601562 320.660156 172.496094 C 322 173.394531 323.320312 174.324219 324.613281 175.285156 C 325.910156 176.246094 327.179688 177.242188 328.429688 178.265625 C 329.675781 179.289062 330.894531 180.34375 332.089844 181.429688 C 333.285156 182.511719 334.453125 183.625 335.59375 184.769531 C 336.734375 185.910156 337.847656 187.078125 338.929688 188.277344 C 340.015625 189.472656 341.066406 190.695312 342.089844 191.941406 C 343.113281 193.191406 344.105469 194.464844 345.066406 195.761719 C 346.027344 197.058594 346.957031 198.378906 347.851562 199.722656 C 348.75 201.0625 349.609375 202.429688 350.441406 203.8125 C 351.269531 205.199219 352.0625 206.601562 352.824219 208.027344 C 353.585938 209.449219 354.308594 210.894531 355 212.351562 C 355.6875 213.8125 356.34375 215.289062 356.960938 216.78125 C 357.578125 218.273438 358.15625 219.777344 358.699219 221.300781 C 359.246094 222.820312 359.75 224.351562 360.21875 225.898438 C 360.6875 227.445312 361.117188 229 361.507812 230.566406 C 361.902344 232.132812 362.253906 233.707031 362.570312 235.292969 C 362.882812 236.875 363.160156 238.464844 363.394531 240.0625 C 363.632812 241.660156 363.828125 243.261719 363.988281 244.871094 C 364.144531 246.476562 364.265625 248.085938 364.34375 249.699219 C 364.421875 251.3125 364.460938 252.925781 364.460938 254.542969 Z M 364.460938 254.542969 " fill-opacity="1" fill-rule="nonzero"/><g clip-path="url(#c547a34d80)"><path fill="#cecece" d="M 265.902344 117.492188 C 247.785156 117.492188 233.050781 102.738281 233.050781 84.601562 C 233.050781 66.464844 247.785156 51.710938 265.902344 51.710938 C 284.019531 51.710938 298.757812 66.464844 298.757812 84.601562 C 298.757812 102.738281 284.019531 117.492188 265.902344 117.492188 Z M 265.902344 62.675781 C 253.824219 62.675781 244 72.511719 244 84.601562 C 244 96.691406 253.824219 106.53125 265.902344 106.53125 C 277.980469 106.53125 287.804688 96.691406 287.804688 84.601562 C 287.804688 72.511719 277.980469 62.675781 265.902344 62.675781 Z M 265.902344 62.675781 " fill-opacity="1" fill-rule="nonzero"/></g><path fill="#29abe2" d="M 284.683594 235.738281 L 247.121094 273.34375 C 246.847656 273.617188 246.355469 273.507812 246.246094 273.179688 L 219.414062 208 L 228.722656 211.835938 L 284.519531 234.863281 C 284.847656 234.972656 284.957031 235.464844 284.683594 235.738281 Z M 284.683594 235.738281 " fill-opacity="1" fill-rule="nonzero"/><path fill="#40c3f2" d="M 284.683594 235.738281 L 252.597656 267.863281 C 252.324219 268.136719 251.832031 268.027344 251.722656 267.699219 L 228.722656 211.835938 L 284.519531 234.863281 C 284.847656 234.972656 284.957031 235.464844 284.683594 235.738281 Z M 284.683594 235.738281 " fill-opacity="1" fill-rule="nonzero"/><path fill="#c1272d" d="M 312.390625 301.082031 L 247.285156 274.222656 C 246.957031 274.113281 246.847656 273.617188 247.121094 273.34375 L 284.683594 235.738281 C 284.957031 235.464844 285.449219 235.574219 285.558594 235.902344 L 308.558594 291.765625 Z M 312.390625 301.082031 " fill-opacity="1" fill-rule="nonzero"/><path fill="#d6434e" d="M 308.558594 291.765625 L 252.761719 268.738281 C 252.433594 268.628906 252.324219 268.136719 252.597656 267.863281 L 284.683594 235.738281 C 284.957031 235.464844 285.449219 235.574219 285.558594 235.902344 Z M 308.558594 291.765625 " fill-opacity="1" fill-rule="nonzero"/><path fill="#aa7815" d="M 260.425781 155.867188 L 271.378906 155.867188 L 271.378906 177.792969 L 260.425781 177.792969 Z M 260.425781 155.867188 " fill-opacity="1" fill-rule="nonzero"/><path fill="#aa7815" d="M 260.425781 331.289062 L 271.378906 331.289062 L 271.378906 353.214844 L 260.425781 353.214844 Z M 260.425781 331.289062 " fill-opacity="1" fill-rule="nonzero"/><path fill="#aa7815" d="M 342.558594 249.058594 L 364.460938 249.058594 L 364.460938 260.023438 L 342.558594 260.023438 Z M 342.558594 249.058594 " fill-opacity="1" fill-rule="nonzero"/><path fill="#aa7815" d="M 167.34375 249.058594 L 189.246094 249.058594 L 189.246094 260.023438 L 167.34375 260.023438 Z M 167.34375 249.058594 " fill-opacity="1" fill-rule="nonzero"/></svg>