<svg xmlns="http://www.w3.org/2000/svg" xmlns:xlink="http://www.w3.org/1999/xlink" width="711" zoomAndPan="magnify" viewBox="0 0 533.25 428.99999" height="572" preserveAspectRatio="xMidYMid meet" version="1.0"><defs><clipPath id="56f415dd53"><path d="M 105.082031 29.859375 L 427.128906 29.859375 L 427.128906 353.40625 L 105.082031 353.40625 Z M 105.082031 29.859375 " clip-rule="nonzero"/></clipPath></defs><path fill="#a3e635" d="M 326.132812 4.097656 C 319.589844 1.167969 311.355469 0.289062 300.753906 1.929688 L 300.753906 1.933594 C 300.609375 1.953125 300.464844 1.964844 300.324219 1.964844 C 300.25 1.964844 300.179688 1.996094 300.128906 2.042969 L 300.105469 2.035156 C 300.019531 2.058594 299.933594 2.082031 299.847656 2.097656 L 299.84375 2.097656 C 272.746094 7.410156 243.882812 13.976562 227.484375 28.34375 C 222.242188 32.9375 217.210938 37.976562 213.261719 44.15625 C 182.8125 91.800781 163.011719 120.589844 153.078125 129 C 153.027344 129.042969 152.992188 129.105469 152.980469 129.175781 L 152.964844 129.167969 C 146.003906 138.605469 113.667969 165.425781 58.253906 210.757812 C 47.046875 219.925781 39.472656 228.570312 33.808594 235.042969 C 33.097656 235.851562 32.726562 236.273438 32.058594 237.035156 C 4.867188 267.871094 0.0820312 298.558594 17.195312 330.679688 C 25.425781 346.125 38.082031 357.855469 55.382812 365.601562 C 74.988281 374.378906 100.546875 378.039062 132.390625 376.230469 C 154.910156 374.949219 175.15625 372.578125 192.664062 367.640625 C 244.289062 353.089844 316.03125 336.078125 408.171875 317.152344 C 425.925781 313.507812 440.410156 308.152344 452.121094 303.066406 C 510.582031 277.6875 531.976562 245.082031 517.417969 206.238281 C 514.289062 197.890625 507.554688 190.113281 497.820312 185.210938 C 446.65625 159.449219 415.972656 143.738281 410.085938 134.953125 L 410.070312 134.945312 C 410.058594 134.882812 410.027344 134.828125 409.980469 134.785156 C 402.566406 128.054688 394.359375 119.558594 388.589844 107.679688 C 363.144531 55.253906 346.4375 24.222656 337.820312 13.359375 C 334.636719 9.351562 330.828125 6.199219 326.132812 4.097656 Z M 326.132812 4.097656 " fill-opacity="1" fill-rule="nonzero"/><path fill="#000000" d="M 210.660156 25.289062 C 189.109375 38.65625 166.535156 53.625 157.164062 71.203125 C 154.15625 76.835938 151.488281 82.773438 150.113281 89.324219 C 139.355469 140.515625 131.65625 171.800781 125.816406 182.019531 L 126.09375 181.320312 C 123.730469 191.039062 104.554688 224.78125 71.109375 282.710938 C 64.476562 294.199219 60.789062 304.058594 58.023438 311.449219 C 57.746094 312.195312 57.429688 313.039062 57.171875 313.726562 C 43.871094 348.933594 49.714844 376.707031 74.738281 398.644531 C 100.402344 421.140625 137.816406 422.667969 188.117188 400.308594 C 207.023438 391.902344 223.613281 383.304688 237.019531 373.402344 C 276.613281 344.152344 332.671875 306.265625 405.621094 260.109375 C 419.65625 251.230469 430.339844 241.945312 438.730469 233.789062 C 480.644531 193.058594 488.296875 158.292969 463.335938 129.84375 C 457.988281 123.746094 449.742188 119.285156 439.859375 118.246094 C 386.472656 112.621094 354.683594 109.058594 347.613281 103.144531 L 348.355469 103.582031 C 339.71875 100.199219 329.738281 95.542969 320.785156 87.074219 C 281.921875 50.328125 257.53125 29.140625 246.640625 22.632812 C 237.066406 16.914062 226.046875 16.550781 211.378906 24.855469 C 210.089844 25.585938 208.449219 25.132812 207.71875 23.84375 C 206.988281 22.554688 207.445312 20.917969 208.734375 20.1875 C 224.6875 11.152344 237.808594 11.105469 249.394531 18.027344 C 260.910156 24.90625 285.785156 46.59375 324.472656 83.175781 C 332.6875 90.941406 341.917969 95.292969 350.3125 98.585938 C 350.582031 98.691406 350.835938 98.839844 351.054688 99.027344 C 356.472656 103.554688 385.460938 107.117188 440.421875 112.90625 C 451.574219 114.082031 461.085938 119.136719 467.371094 126.304688 C 495.324219 158.167969 484.960938 196.347656 442.46875 237.640625 C 433.898438 245.972656 422.925781 255.511719 408.492188 264.644531 C 335.601562 310.765625 279.65625 348.574219 240.207031 377.71875 C 226.339844 387.964844 209.332031 396.753906 190.296875 405.214844 C 139.195312 427.933594 99.179688 427.210938 71.199219 402.679688 C 44.234375 379.042969 38.1875 348.792969 52.148438 311.832031 C 52.414062 311.132812 52.710938 310.335938 52.996094 309.570312 C 55.773438 302.144531 59.589844 291.929688 66.460938 280.027344 C 100.269531 221.464844 118.753906 188.78125 120.878906 180.050781 C 120.9375 179.808594 121.03125 179.574219 121.15625 179.355469 C 126.460938 170.074219 133.996094 139.925781 144.859375 88.21875 C 146.386719 80.953125 149.316406 74.503906 152.425781 68.675781 C 162.609375 49.578125 186.609375 33.890625 207.832031 20.726562 C 209.09375 19.945312 210.746094 20.335938 211.527344 21.59375 C 212.308594 22.851562 211.921875 24.507812 210.660156 25.289062 Z M 210.660156 25.289062 " fill-opacity="1" fill-rule="nonzero"/><path fill="#fe3b3e" d="M 395.441406 225.082031 C 394.246094 227.164062 392.710938 228.902344 390.902344 230.269531 C 389.160156 231.601562 389.332031 234.261719 391.207031 235.355469 L 422.246094 253.171875 L 404.421875 284.195312 C 403.328125 286.105469 404.523438 288.460938 406.710938 288.734375 C 409.101562 289.042969 411.421875 289.828125 413.605469 291.15625 C 421.734375 296.074219 424.535156 306.652344 419.890625 314.914062 C 415.074219 323.582031 404.113281 326.585938 395.546875 321.671875 C 393.460938 320.476562 391.722656 318.90625 390.355469 317.128906 C 389.023438 315.390625 386.359375 315.5625 385.265625 317.4375 L 367.445312 348.460938 L 335.246094 329.964844 C 333.710938 329.863281 332.242188 330.953125 332.035156 332.625 C 331.730469 335.015625 330.945312 337.335938 329.613281 339.519531 C 324.695312 347.644531 314.109375 350.441406 305.847656 345.800781 C 297.175781 340.988281 294.171875 330.03125 299.089844 321.464844 C 300.28125 319.382812 301.820312 317.644531 303.628906 316.277344 C 304.960938 315.253906 305.164062 313.445312 304.3125 312.148438 L 272.113281 293.648438 L 289.9375 262.625 C 291.03125 260.714844 289.835938 258.359375 287.648438 258.085938 C 285.257812 257.777344 282.9375 256.992188 280.753906 255.660156 C 272.625 250.746094 269.828125 240.167969 274.46875 231.90625 C 279.285156 223.238281 290.246094 220.234375 298.816406 225.148438 C 300.898438 226.34375 302.640625 227.878906 304.039062 229.6875 C 305.371094 231.429688 308.035156 231.257812 309.125 229.382812 L 326.949219 198.355469 L 357.988281 216.171875 C 359.898438 217.265625 362.253906 216.070312 362.527344 213.886719 C 362.835938 211.496094 363.621094 209.175781 364.953125 206.992188 C 369.867188 198.867188 380.453125 196.070312 388.714844 200.710938 C 397.390625 205.523438 400.394531 216.480469 395.476562 225.046875 Z M 395.441406 225.082031 " fill-opacity="1" fill-rule="nonzero"/><path fill="#2996e2" d="M 210.140625 183.714844 C 210.210938 181.15625 209.734375 178.730469 208.8125 176.511719 C 207.992188 174.5 209.425781 172.28125 211.609375 172.28125 L 247.394531 172.28125 C 247.394531 172.28125 247.394531 208.050781 247.394531 208.050781 C 247.394531 210.234375 245.175781 211.703125 243.160156 210.847656 C 241.078125 209.996094 238.789062 209.515625 236.398438 209.515625 C 226.53125 209.515625 218.507812 217.605469 218.679688 227.503906 C 218.816406 236.992188 226.496094 244.773438 235.988281 244.980469 C 238.550781 245.046875 240.976562 244.570312 243.195312 243.648438 C 245.207031 242.828125 247.429688 244.261719 247.429688 246.445312 L 247.429688 282.214844 C 247.429688 282.214844 210.277344 282.214844 210.277344 282.214844 C 208.914062 282.898438 208.195312 284.570312 208.84375 286.140625 C 209.765625 288.359375 210.246094 290.78125 210.175781 293.34375 C 209.9375 302.832031 202.1875 310.507812 192.695312 310.644531 C 182.792969 310.78125 174.699219 302.796875 174.699219 292.933594 C 174.699219 290.542969 175.179688 288.257812 176.03125 286.175781 C 176.679688 284.605469 175.964844 282.933594 174.597656 282.25 L 137.449219 282.25 C 137.449219 282.25 137.449219 245.117188 137.449219 245.117188 C 136.765625 243.75 135.09375 243.035156 133.523438 243.683594 C 131.304688 244.605469 128.878906 245.082031 126.320312 245.011719 C 116.828125 244.773438 109.144531 237.027344 109.007812 227.539062 C 108.871094 217.640625 116.859375 209.550781 126.730469 209.550781 C 129.117188 209.550781 131.40625 210.03125 133.488281 210.882812 C 135.058594 211.53125 136.734375 210.816406 137.414062 209.449219 L 137.414062 172.316406 C 137.414062 172.316406 173.199219 172.316406 173.199219 172.316406 C 175.382812 172.316406 176.851562 174.535156 176 176.546875 C 175.144531 178.628906 174.667969 180.917969 174.667969 183.304688 C 174.667969 193.167969 182.757812 201.191406 192.660156 201.054688 C 202.152344 200.917969 209.9375 193.238281 210.140625 183.75 Z M 210.140625 183.714844 " fill-opacity="1" fill-rule="nonzero"/><path fill="#88b31b" d="M 320.121094 51.628906 C 320.121094 54.019531 319.644531 56.304688 318.789062 58.386719 C 318.140625 59.957031 318.855469 61.628906 320.222656 62.3125 L 357.371094 62.3125 C 357.371094 62.3125 357.371094 99.445312 357.371094 99.445312 C 358.054688 100.8125 359.726562 101.527344 361.296875 100.878906 C 363.519531 99.957031 365.941406 99.480469 368.503906 99.550781 C 377.996094 99.789062 385.675781 107.535156 385.8125 117.023438 C 385.949219 126.921875 377.960938 135.011719 368.09375 135.011719 C 365.703125 135.011719 363.414062 134.53125 361.332031 133.679688 C 359.761719 133.03125 358.089844 133.746094 357.40625 135.113281 L 357.40625 172.246094 C 357.40625 172.246094 321.621094 172.246094 321.621094 172.246094 C 319.4375 172.246094 317.96875 170.027344 318.824219 168.015625 C 319.675781 165.933594 320.15625 163.644531 320.15625 161.257812 C 320.15625 151.394531 312.0625 143.40625 302.160156 143.542969 C 292.667969 143.679688 284.882812 151.359375 284.679688 160.847656 C 284.609375 163.40625 285.089844 165.832031 286.011719 168.050781 C 286.832031 170.0625 285.394531 172.28125 283.210938 172.28125 L 247.429688 172.28125 C 247.429688 172.28125 247.429688 62.347656 247.429688 62.347656 L 284.578125 62.347656 C 285.941406 61.664062 286.660156 59.992188 286.011719 58.421875 C 285.089844 56.203125 284.609375 53.78125 284.679688 51.21875 C 284.917969 41.730469 292.667969 34.054688 302.160156 33.917969 C 312.0625 33.78125 320.15625 41.765625 320.15625 51.628906 Z M 320.121094 51.628906 " fill-opacity="1" fill-rule="nonzero"/><path fill="#f7c730" d="M 210.140625 51.289062 C 210.140625 53.679688 209.664062 55.964844 208.8125 58.046875 C 207.992188 60.058594 209.425781 62.277344 211.609375 62.277344 L 247.394531 62.277344 C 247.394531 62.277344 247.394531 99.414062 247.394531 99.414062 C 248.078125 100.777344 249.75 101.496094 251.320312 100.847656 C 253.539062 99.925781 255.964844 99.445312 258.523438 99.515625 C 268.015625 99.753906 275.699219 107.5 275.835938 116.988281 C 275.972656 126.886719 267.984375 134.976562 258.113281 134.976562 C 255.726562 134.976562 253.4375 134.5 251.355469 133.644531 C 249.785156 132.996094 248.109375 133.714844 247.429688 135.078125 L 247.429688 172.214844 C 247.429688 172.214844 210.277344 172.214844 210.277344 172.214844 C 208.914062 172.894531 208.195312 174.566406 208.84375 176.136719 C 209.765625 178.355469 210.246094 180.78125 210.175781 183.339844 C 209.9375 192.828125 202.1875 200.507812 192.695312 200.644531 C 182.792969 200.78125 174.699219 192.792969 174.699219 182.894531 C 174.699219 180.507812 175.179688 178.21875 176.03125 176.136719 C 176.679688 174.566406 175.964844 172.894531 174.597656 172.214844 L 137.449219 172.214844 C 137.449219 172.214844 137.449219 136.445312 137.449219 136.445312 C 137.449219 134.261719 135.230469 132.792969 133.214844 133.644531 C 130.996094 134.566406 128.574219 135.046875 126.011719 134.976562 C 116.519531 134.738281 108.835938 126.988281 108.699219 117.5 C 108.5625 107.605469 116.554688 99.515625 126.421875 99.515625 C 128.8125 99.515625 131.097656 99.992188 133.183594 100.847656 C 135.195312 101.664062 137.414062 100.230469 137.414062 98.046875 L 137.414062 62.277344 C 137.414062 62.277344 173.199219 62.277344 173.199219 62.277344 C 175.382812 62.277344 176.851562 60.058594 176 58.046875 C 175.078125 55.828125 174.597656 53.40625 174.667969 50.84375 C 174.90625 41.355469 182.65625 33.675781 192.148438 33.542969 C 202.050781 33.40625 210.140625 41.390625 210.140625 51.289062 Z M 210.140625 51.289062 " fill-opacity="1" fill-rule="nonzero"/><g clip-path="url(#56f415dd53)"><path fill="#ffffff" d="M 111.226562 102.3125 C 115.257812 98.21875 120.652344 95.964844 126.386719 95.964844 C 128.949219 95.964844 131.441406 96.410156 133.832031 97.296875 L 133.832031 58.730469 C 133.832031 58.730469 172.414062 58.730469 172.414062 58.730469 C 171.457031 56.203125 171.011719 53.507812 171.082031 50.777344 C 171.21875 45.246094 173.472656 40.058594 177.398438 36.167969 C 181.359375 32.277344 186.582031 30.058594 192.113281 29.992188 C 197.886719 29.921875 203.28125 32.109375 207.375 36.136719 C 211.472656 40.164062 213.726562 45.554688 213.726562 51.324219 C 213.726562 53.882812 213.285156 56.375 212.394531 58.761719 L 250.980469 58.761719 C 250.980469 58.761719 250.980469 97.226562 250.980469 97.226562 C 253.402344 96.375 255.996094 95.964844 258.628906 96 C 264.160156 96.136719 269.347656 98.390625 273.242188 102.3125 C 277.167969 106.273438 279.351562 111.460938 279.421875 116.988281 C 279.488281 122.722656 277.339844 128.152344 273.273438 132.246094 C 269.246094 136.34375 263.851562 138.59375 258.082031 138.59375 C 255.621094 138.59375 253.230469 138.183594 250.980469 137.367188 L 250.980469 175.832031 C 250.980469 175.832031 212.5 175.832031 212.5 175.832031 C 213.351562 178.253906 213.761719 180.847656 213.726562 183.476562 C 213.589844 189.003906 211.335938 194.191406 207.410156 198.082031 C 203.449219 202.007812 198.261719 204.191406 192.730469 204.261719 C 186.992188 204.328125 181.5625 202.144531 177.464844 198.117188 C 173.371094 194.089844 171.117188 188.699219 171.117188 182.929688 C 171.117188 180.472656 171.527344 178.082031 172.34375 175.832031 L 133.863281 175.832031 C 133.863281 175.832031 133.863281 137.261719 133.863281 137.261719 C 131.304688 138.21875 128.640625 138.664062 125.910156 138.59375 C 120.378906 138.457031 115.1875 136.207031 111.296875 132.28125 C 107.367188 128.320312 105.148438 123.097656 105.082031 117.605469 C 105.082031 117.5 105.082031 117.398438 105.082031 117.296875 C 105.082031 111.664062 107.265625 106.339844 111.226562 102.347656 Z M 175.417969 168.664062 L 176.167969 169.039062 C 179.242188 170.609375 180.640625 174.328125 179.308594 177.539062 C 178.59375 179.242188 178.25 181.054688 178.25 182.929688 C 178.25 186.753906 179.753906 190.335938 182.484375 193 C 185.21875 195.695312 188.800781 197.128906 192.625 197.058594 C 200.136719 196.957031 206.421875 190.746094 206.589844 183.269531 C 206.625 181.257812 206.285156 179.347656 205.53125 177.503906 C 204.203125 174.296875 205.601562 170.574219 208.675781 169.003906 L 209.425781 168.628906 L 243.84375 168.628906 C 243.84375 168.628906 243.84375 134.226562 243.84375 134.226562 L 244.21875 133.476562 C 245.753906 130.367188 249.511719 129.003906 252.71875 130.335938 C 254.425781 131.050781 256.269531 131.394531 258.113281 131.394531 C 261.9375 131.394531 265.523438 129.890625 268.1875 127.160156 C 270.886719 124.429688 272.320312 120.847656 272.25 117.023438 C 272.148438 109.515625 265.933594 103.234375 258.421875 103.066406 C 256.40625 103.03125 254.496094 103.371094 252.6875 104.121094 C 249.476562 105.453125 245.753906 104.054688 244.183594 100.984375 L 243.808594 100.230469 L 243.808594 65.828125 C 243.808594 65.828125 211.609375 65.828125 211.609375 65.828125 C 209.390625 65.828125 207.34375 64.734375 206.113281 62.894531 C 204.882812 61.050781 204.644531 58.695312 205.5 56.648438 C 206.214844 54.941406 206.558594 53.132812 206.558594 51.253906 C 206.558594 47.433594 205.054688 43.847656 202.324219 41.1875 C 199.59375 38.488281 196.007812 37.054688 192.183594 37.125 C 184.671875 37.226562 178.386719 43.4375 178.21875 50.914062 C 178.183594 52.925781 178.523438 54.839844 179.277344 56.648438 C 180.128906 58.695312 179.890625 61.050781 178.660156 62.894531 C 177.433594 64.734375 175.382812 65.828125 173.164062 65.828125 L 140.964844 65.828125 C 140.964844 65.828125 140.964844 98.011719 140.964844 98.011719 C 140.964844 100.230469 139.875 102.28125 138.03125 103.507812 C 136.1875 104.738281 133.832031 104.976562 131.78125 104.121094 C 130.074219 103.40625 128.230469 103.066406 126.386719 103.066406 C 122.5625 103.066406 118.976562 104.566406 116.316406 107.296875 C 113.617188 110.027344 112.183594 113.609375 112.25 117.433594 C 112.355469 124.941406 118.566406 131.222656 126.078125 131.394531 C 128.058594 131.425781 130.007812 131.085938 131.816406 130.335938 C 133.863281 129.480469 136.21875 129.71875 138.0625 130.949219 C 139.90625 132.179688 141 134.226562 141 136.445312 L 141 168.628906 C 141 168.628906 175.417969 168.628906 175.417969 168.628906 Z M 282.289062 58.730469 C 281.433594 56.304688 281.027344 53.710938 281.058594 51.085938 C 281.195312 45.554688 283.449219 40.367188 287.375 36.476562 C 291.335938 32.550781 296.527344 30.367188 302.058594 30.296875 C 307.792969 30.230469 313.222656 32.378906 317.320312 36.441406 C 321.417969 40.46875 323.671875 45.863281 323.671875 51.628906 C 323.671875 54.085938 323.261719 56.476562 322.441406 58.730469 L 360.921875 58.730469 C 360.921875 58.730469 360.921875 97.195312 360.921875 97.195312 C 363.347656 96.339844 365.941406 95.929688 368.570312 95.964844 C 374.101562 96.101562 379.292969 98.355469 383.183594 102.28125 C 387.113281 106.238281 389.296875 111.425781 389.363281 116.957031 C 389.433594 122.691406 387.28125 128.117188 383.21875 132.210938 C 379.191406 136.308594 373.796875 138.558594 368.023438 138.558594 C 362.253906 138.558594 363.175781 138.152344 360.921875 137.332031 L 360.921875 175.796875 C 360.921875 175.796875 321.554688 175.796875 321.554688 175.796875 C 319.335938 175.796875 317.285156 174.703125 316.058594 172.863281 C 314.828125 171.019531 314.589844 168.664062 315.441406 166.617188 C 316.160156 164.910156 316.5 163.101562 316.5 161.222656 C 316.5 157.402344 315 153.816406 312.265625 151.15625 C 309.535156 148.457031 305.949219 147.023438 302.125 147.09375 C 294.613281 147.195312 288.332031 153.40625 288.160156 160.882812 C 288.128906 162.894531 288.46875 164.808594 289.21875 166.648438 C 290.074219 168.730469 289.835938 171.050781 288.605469 172.894531 C 287.375 174.738281 285.328125 175.832031 283.109375 175.832031 L 243.742188 175.832031 C 243.742188 175.832031 243.742188 58.730469 243.742188 58.730469 Z M 282.425781 168.664062 C 281.46875 166.136719 281.027344 163.441406 281.09375 160.710938 C 281.230469 155.183594 283.484375 149.992188 287.410156 146.101562 C 291.371094 142.179688 296.5625 139.992188 302.09375 139.925781 C 307.828125 139.855469 313.257812 142.042969 317.355469 146.070312 C 321.453125 150.097656 323.707031 155.488281 323.707031 161.222656 C 323.707031 163.78125 323.261719 166.308594 322.375 168.664062 L 353.820312 168.664062 C 353.820312 168.664062 353.820312 134.261719 353.820312 134.261719 L 354.195312 133.507812 C 355.734375 130.402344 359.488281 129.039062 362.699219 130.367188 C 364.40625 131.085938 366.214844 131.425781 368.09375 131.425781 C 371.917969 131.425781 375.503906 129.925781 378.164062 127.195312 C 380.863281 124.464844 382.296875 120.878906 382.230469 117.058594 C 382.125 109.550781 375.910156 103.269531 368.398438 103.097656 C 366.386719 103.066406 364.472656 103.40625 362.664062 104.15625 C 359.453125 105.488281 355.734375 104.089844 354.164062 101.015625 L 353.785156 100.265625 L 353.785156 65.863281 C 353.785156 65.863281 319.371094 65.863281 319.371094 65.863281 L 318.617188 65.488281 C 315.546875 63.917969 314.144531 60.195312 315.476562 56.988281 C 316.195312 55.28125 316.535156 53.472656 316.535156 51.597656 C 316.535156 47.773438 315.03125 44.191406 312.300781 41.527344 C 309.570312 38.832031 305.984375 37.398438 302.160156 37.464844 C 294.648438 37.570312 288.367188 43.78125 288.195312 51.289062 C 288.160156 53.269531 288.503906 55.214844 289.253906 57.023438 C 290.585938 60.230469 289.1875 63.953125 286.113281 65.519531 L 285.363281 65.898438 L 250.945312 65.898438 C 250.945312 65.898438 250.945312 168.699219 250.945312 168.699219 L 282.390625 168.699219 Z M 111.535156 212.28125 C 115.5625 208.1875 120.957031 205.933594 126.695312 205.933594 C 129.152344 205.933594 131.542969 206.34375 133.796875 207.164062 L 133.796875 168.699219 C 133.796875 168.699219 173.164062 168.699219 173.164062 168.699219 C 175.382812 168.699219 177.433594 169.789062 178.660156 171.632812 C 179.890625 173.476562 180.128906 175.832031 179.277344 177.878906 C 178.558594 179.585938 178.21875 181.394531 178.21875 183.269531 C 178.21875 187.09375 179.71875 190.675781 182.453125 193.339844 C 185.183594 196.035156 188.769531 197.46875 192.59375 197.402344 C 200.105469 197.300781 206.386719 191.085938 206.558594 183.613281 C 206.589844 181.597656 206.25 179.6875 205.5 177.84375 C 204.644531 175.761719 204.882812 173.441406 206.113281 171.597656 C 207.34375 169.753906 209.390625 168.664062 211.609375 168.664062 L 250.980469 168.664062 C 250.980469 168.664062 250.980469 208.015625 250.980469 208.015625 C 250.980469 210.234375 249.886719 212.28125 248.042969 213.511719 C 246.199219 214.738281 243.84375 214.976562 241.792969 214.125 C 240.085938 213.410156 238.242188 213.066406 236.398438 213.066406 C 232.574219 213.066406 228.988281 214.570312 226.328125 217.300781 C 223.664062 220.03125 222.195312 223.613281 222.261719 227.4375 C 222.367188 234.945312 228.582031 241.226562 236.058594 241.394531 C 238.074219 241.429688 239.984375 241.089844 241.792969 240.335938 C 243.84375 239.484375 246.199219 239.722656 248.042969 240.953125 C 249.886719 242.179688 250.980469 244.226562 250.980469 246.445312 L 250.980469 285.800781 C 250.980469 285.800781 212.5 285.800781 212.5 285.800781 C 213.351562 288.222656 213.761719 290.816406 213.726562 293.445312 C 213.589844 298.972656 211.335938 304.160156 207.410156 308.050781 C 203.449219 311.941406 198.261719 314.160156 192.730469 314.230469 C 186.992188 314.296875 181.5625 312.148438 177.464844 308.085938 C 173.371094 304.058594 171.117188 298.667969 171.117188 292.898438 C 171.117188 290.441406 171.527344 288.050781 172.34375 285.800781 L 133.863281 285.800781 C 133.863281 285.800781 133.863281 247.335938 133.863281 247.335938 C 131.441406 248.1875 128.878906 248.597656 126.214844 248.5625 C 120.683594 248.425781 115.496094 246.171875 111.601562 242.25 C 107.675781 238.289062 105.492188 233.101562 105.421875 227.574219 C 105.421875 227.46875 105.421875 227.367188 105.421875 227.265625 C 105.421875 221.632812 107.609375 216.308594 111.570312 212.316406 Z M 175.417969 278.632812 L 176.167969 279.007812 C 179.277344 280.578125 180.640625 284.296875 179.308594 287.503906 C 178.59375 289.210938 178.25 291.054688 178.25 292.898438 C 178.25 296.722656 179.753906 300.304688 182.484375 302.964844 C 185.21875 305.664062 188.800781 307.097656 192.625 307.027344 C 200.136719 306.925781 206.421875 300.714844 206.589844 293.238281 C 206.625 291.226562 206.285156 289.316406 205.53125 287.503906 C 204.203125 284.296875 205.566406 280.578125 208.675781 279.007812 L 209.425781 278.632812 L 243.84375 278.632812 C 243.84375 278.632812 243.84375 247.230469 243.84375 247.230469 C 241.316406 248.1875 238.617188 248.632812 235.886719 248.5625 C 230.355469 248.425781 225.164062 246.171875 221.273438 242.25 C 217.382812 238.289062 215.160156 233.101562 215.09375 227.574219 C 215.023438 221.804688 217.175781 216.410156 221.238281 212.316406 C 225.269531 208.21875 230.664062 205.96875 236.433594 205.96875 C 238.996094 205.96875 241.488281 206.410156 243.875 207.300781 L 243.875 175.898438 C 243.875 175.898438 212.464844 175.898438 212.464844 175.898438 C 213.421875 178.425781 213.863281 181.121094 213.796875 183.851562 C 213.660156 189.378906 211.40625 194.570312 207.480469 198.460938 C 203.519531 202.382812 198.328125 204.570312 192.796875 204.636719 C 187.0625 204.707031 181.632812 202.519531 177.535156 198.492188 C 173.4375 194.464844 171.183594 189.074219 171.183594 183.304688 C 171.183594 180.746094 171.628906 178.253906 172.515625 175.863281 L 141.101562 175.863281 C 141.101562 175.863281 141.101562 210.269531 141.101562 210.269531 L 140.726562 211.019531 C 139.15625 214.125 135.433594 215.492188 132.226562 214.160156 C 130.519531 213.441406 128.707031 213.101562 126.832031 213.101562 C 123.007812 213.101562 119.421875 214.601562 116.757812 217.332031 C 114.0625 220.0625 112.628906 223.648438 112.695312 227.46875 C 112.796875 234.980469 119.011719 241.257812 126.488281 241.429688 C 128.503906 241.464844 130.417969 241.121094 132.226562 240.371094 C 135.433594 239.039062 139.15625 240.40625 140.726562 243.511719 L 141.101562 244.261719 L 141.101562 278.664062 C 141.101562 278.664062 175.519531 278.664062 175.519531 278.664062 Z M 284.234375 220.0625 C 289.765625 218.527344 295.570312 219.246094 300.554688 222.113281 C 302.777344 223.375 304.722656 225.011719 306.359375 226.957031 L 325.582031 193.511719 L 359.042969 212.726562 C 359.488281 210.0625 360.445312 207.503906 361.84375 205.148438 C 364.710938 200.4375 369.253906 197.058594 374.613281 195.625 C 379.976562 194.191406 385.609375 194.910156 390.421875 197.570312 C 395.441406 200.371094 399.0625 204.945312 400.597656 210.507812 C 402.132812 216.035156 401.417969 221.839844 398.550781 226.820312 C 397.253906 229.039062 395.648438 230.984375 393.667969 232.625 L 427.128906 251.839844 L 407.90625 285.289062 C 410.566406 285.730469 413.128906 286.6875 415.484375 288.085938 C 420.195312 290.953125 423.578125 295.492188 425.011719 300.851562 C 426.445312 306.210938 425.726562 311.839844 423.066406 316.652344 C 420.265625 321.671875 415.691406 325.289062 410.125 326.824219 C 404.59375 328.359375 398.789062 327.644531 393.804688 324.777344 C 391.585938 323.511719 389.636719 321.875 388 319.894531 L 368.777344 353.34375 L 335.417969 334.195312 C 334.9375 336.757812 334.015625 339.179688 332.652344 341.433594 C 329.785156 346.140625 325.242188 349.519531 319.882812 350.953125 C 314.519531 352.386719 308.886719 351.671875 304.074219 349.007812 C 299.054688 346.210938 295.433594 341.636719 293.898438 336.074219 C 292.363281 330.542969 293.078125 324.742188 295.945312 319.757812 C 297.175781 317.644531 298.710938 315.765625 300.554688 314.195312 L 267.199219 295.046875 L 286.421875 261.601562 C 283.757812 261.15625 281.195312 260.203125 278.875 258.800781 C 274.164062 255.933594 270.78125 251.394531 269.347656 246.039062 C 267.914062 240.679688 268.632812 235.046875 271.292969 230.234375 C 271.328125 230.132812 271.398438 230.0625 271.429688 229.960938 C 274.230469 225.082031 278.773438 221.566406 284.199219 220.0625 Z M 306.839844 309.554688 L 307.316406 310.269531 C 309.230469 313.171875 308.578125 317.0625 305.8125 319.210938 C 304.347656 320.339844 303.117188 321.738281 302.195312 323.375 C 300.28125 326.6875 299.804688 330.542969 300.828125 334.230469 C 301.855469 337.917969 304.242188 340.953125 307.589844 342.796875 C 314.144531 346.449219 322.679688 344.195312 326.574219 337.78125 C 327.597656 336.074219 328.246094 334.195312 328.519531 332.25 C 328.964844 328.804688 332.035156 326.277344 335.484375 326.449219 L 336.339844 326.449219 C 336.339844 326.484375 366.179688 343.617188 366.179688 343.617188 L 382.230469 315.699219 C 383.320312 313.785156 385.300781 312.523438 387.519531 312.386719 C 389.742188 312.25 391.890625 313.207031 393.257812 314.980469 C 394.382812 316.449219 395.785156 317.675781 397.421875 318.597656 C 400.734375 320.507812 404.59375 320.988281 408.246094 319.964844 C 411.933594 318.941406 414.972656 316.550781 416.851562 313.207031 C 420.503906 306.652344 418.25 298.121094 411.832031 294.230469 C 410.125 293.207031 408.246094 292.558594 406.300781 292.285156 C 404.082031 292.011719 402.167969 290.644531 401.179688 288.632812 C 400.1875 286.652344 400.257812 284.332031 401.382812 282.386719 L 417.429688 254.46875 L 389.5 238.425781 C 387.589844 237.332031 386.359375 235.355469 386.1875 233.136719 C 386.054688 230.917969 387.007812 228.765625 388.785156 227.402344 C 390.253906 226.277344 391.480469 224.875 392.402344 223.238281 C 394.316406 219.925781 394.792969 216.070312 393.769531 212.382812 C 392.746094 208.699219 390.355469 205.660156 387.007812 203.785156 C 380.453125 200.132812 371.917969 202.382812 368.023438 208.800781 C 367 210.507812 366.351562 212.382812 366.078125 214.328125 C 365.804688 216.546875 364.441406 218.460938 362.425781 219.449219 C 360.445312 220.4375 358.121094 220.371094 356.175781 219.246094 L 328.246094 203.203125 L 312.199219 231.121094 C 311.105469 233.035156 309.125 234.296875 306.90625 234.433594 C 304.6875 234.570312 302.535156 233.613281 301.171875 231.839844 C 300.042969 230.371094 298.644531 229.140625 297.003906 228.222656 C 293.691406 226.308594 289.835938 225.832031 286.148438 226.855469 C 282.460938 227.878906 279.421875 230.269531 277.578125 233.613281 C 273.921875 240.167969 276.175781 248.699219 282.597656 252.589844 C 284.304688 253.613281 286.179688 254.261719 288.128906 254.535156 C 290.347656 254.808594 292.257812 256.175781 293.25 258.1875 C 294.238281 260.167969 294.171875 262.488281 293.042969 264.433594 L 276.996094 292.351562 L 306.839844 309.484375 Z M 306.839844 309.554688 " fill-opacity="1" fill-rule="nonzero"/></g></svg>