<svg xmlns="http://www.w3.org/2000/svg" xmlns:xlink="http://www.w3.org/1999/xlink" width="674" zoomAndPan="magnify" viewBox="0 0 505.5 473.999983" height="632" preserveAspectRatio="xMidYMid meet" version="1.0"><path fill="#a3e635" d="M 168.714844 27.136719 C 123.613281 27 88.945312 45.777344 64.710938 83.472656 C 64.6875 83.503906 64.671875 83.542969 64.664062 83.582031 L 64.644531 83.582031 C 60.503906 90.535156 57.59375 99.214844 55.917969 109.617188 C 55.90625 109.683594 55.917969 109.753906 55.945312 109.8125 L 55.925781 109.8125 C 53.871094 165.972656 51.015625 197.355469 47.355469 203.96875 C 47.324219 204.027344 47.308594 204.09375 47.316406 204.15625 L 47.296875 204.15625 C 20.902344 270.886719 7.1875 307.976562 6.15625 315.4375 C 6.144531 315.527344 6.171875 315.621094 6.234375 315.691406 L 6.238281 315.695312 C 6.519531 316.277344 6.605469 316.945312 6.46875 317.601562 C 2.359375 337.304688 3.152344 354.996094 8.851562 370.671875 C 8.863281 370.707031 8.882812 370.742188 8.90625 370.769531 L 8.886719 370.769531 C 22.351562 406.835938 48.167969 425.160156 86.34375 425.742188 L 86.347656 425.742188 C 86.363281 425.742188 86.375 425.738281 86.390625 425.738281 L 86.378906 425.738281 C 96.171875 424.832031 106.480469 422.46875 117.304688 418.648438 L 117.289062 418.648438 L 117.402344 418.617188 C 181.839844 387.792969 222.464844 372.125 239.273438 371.613281 L 239.285156 371.613281 L 239.304688 371.609375 L 239.433594 371.574219 C 242.492188 369.964844 250.253906 369.179688 262.726562 369.21875 C 285.289062 369.289062 323.148438 372.070312 376.308594 377.5625 L 376.367188 377.5625 L 376.390625 377.566406 C 377.027344 377.574219 377.664062 377.582031 378.304688 377.582031 C 388.796875 377.613281 399.300781 376.402344 409.816406 373.941406 L 409.824219 373.9375 L 409.828125 373.941406 L 409.855469 373.925781 L 409.871094 373.929688 C 434.128906 367.683594 452.3125 353.992188 464.425781 332.855469 L 464.425781 332.859375 L 464.472656 332.777344 L 464.472656 332.78125 C 477.246094 311.894531 479.878906 289.113281 472.371094 264.429688 L 472.34375 264.429688 C 472.351562 264.382812 472.34375 264.335938 472.328125 264.292969 C 469.882812 257.152344 466.09375 248.960938 460.960938 239.71875 L 460.9375 239.71875 C 460.933594 239.65625 460.914062 239.597656 460.878906 239.546875 C 435.800781 202.800781 420.230469 177.179688 414.164062 162.6875 L 414.140625 162.6875 C 414.152344 162.609375 414.132812 162.53125 414.085938 162.460938 C 409.332031 155.511719 400.140625 127.640625 386.515625 78.84375 L 386.53125 78.847656 C 386.527344 78.832031 386.527344 78.824219 386.519531 78.8125 C 381.375 65.636719 375.363281 55.003906 368.488281 46.914062 L 368.414062 46.824219 C 361.773438 38.421875 351.886719 33.585938 338.75 32.3125 C 338.210938 32.261719 337.707031 32.066406 337.28125 31.761719 L 337.261719 31.765625 C 337.210938 31.671875 337.121094 31.609375 337.011719 31.597656 C 336.304688 31.515625 335.289062 31.472656 333.972656 31.46875 C 323.863281 31.4375 295.566406 33.695312 249.089844 38.238281 L 248.90625 38.25 L 248.902344 38.25 C 248.144531 38.28125 247.351562 38.292969 246.523438 38.289062 C 236.710938 38.257812 222.097656 36.011719 202.683594 31.539062 C 201.941406 31.371094 201.328125 30.9375 200.914062 30.367188 L 200.894531 30.367188 C 200.878906 30.226562 200.773438 30.109375 200.628906 30.085938 C 189.46875 28.152344 178.828125 27.167969 168.714844 27.136719 Z M 168.714844 27.136719 " fill-opacity="1" fill-rule="nonzero"/><path fill="#000000" d="M 158.179688 43.511719 C 96.15625 48.613281 56.78125 77.277344 40.066406 129.503906 L 40.09375 129.410156 C 37.867188 137.15625 37.292969 146.265625 38.367188 156.738281 L 38.300781 156.335938 C 50.917969 211.390625 56.257812 242.46875 54.332031 249.570312 L 54.425781 249.082031 C 45.871094 323.085938 42.273438 362.558594 43.636719 367.503906 C 43.347656 366.464844 42.550781 365.871094 41.238281 365.71875 C 40.5 365.632812 39.832031 365.792969 39.230469 366.191406 C 40.214844 365.535156 41.476562 365.457031 42.535156 365.988281 C 43.59375 366.519531 44.285156 367.574219 44.351562 368.757812 C 45.46875 388.640625 50.75 405.335938 60.199219 418.847656 L 60.183594 418.828125 C 82.304688 449.949219 111.722656 460.863281 148.4375 451.574219 L 148.109375 451.675781 C 157.375 448.269531 166.761719 443.292969 176.273438 436.742188 L 176 436.953125 C 231.144531 389.757812 266.476562 364.167969 282 360.1875 L 279.996094 361.671875 C 280.148438 361.425781 280.320312 361.183594 280.515625 360.949219 C 286.027344 354.324219 330.519531 344.335938 414.003906 330.980469 L 413.730469 331.035156 C 424.511719 328.367188 434.941406 324.332031 445.019531 318.929688 L 444.960938 318.960938 C 466.554688 306.792969 480.433594 289.0625 486.597656 265.761719 L 486.625 265.671875 C 493.5 242.394531 490.144531 219.902344 476.558594 198.1875 L 476.617188 198.277344 C 472.390625 191.992188 466.5625 185.015625 459.132812 177.359375 L 459.347656 177.5625 C 425.398438 148.367188 403.753906 127.621094 394.410156 115.328125 L 394.953125 115.890625 C 388.742188 110.84375 372.617188 86.296875 346.585938 42.253906 L 346.765625 42.53125 C 338.472656 31.25 330.003906 22.625 321.367188 16.65625 L 321.269531 16.585938 C 312.824219 10.289062 302.183594 8.210938 289.351562 10.347656 C 288.183594 10.542969 287 10.097656 286.253906 9.179688 C 285.503906 8.261719 285.300781 7.015625 285.726562 5.910156 C 284.992188 7.824219 285.578125 9.148438 287.484375 9.878906 C 287.769531 9.988281 288.015625 10.042969 288.21875 10.039062 C 284.066406 10.09375 256.324219 19.757812 204.996094 39.023438 L 204.808594 39.085938 C 195.527344 41.960938 180.15625 43.777344 158.691406 44.535156 C 156.867188 44.601562 155.339844 43.175781 155.273438 41.351562 C 155.210938 39.53125 156.636719 38 158.457031 37.9375 C 179.335938 37.199219 194.132812 35.476562 202.855469 32.777344 L 202.671875 32.839844 C 254.722656 13.300781 283.210938 3.5 288.132812 3.433594 C 288.773438 3.425781 289.347656 3.519531 289.851562 3.710938 C 292.054688 4.558594 292.734375 6.078125 291.894531 8.273438 L 288.265625 3.832031 C 302.949219 1.386719 315.265625 3.871094 325.21875 11.289062 L 325.121094 11.222656 C 334.367188 17.609375 343.355469 26.742188 352.089844 38.617188 C 352.152344 38.707031 352.214844 38.796875 352.269531 38.894531 C 377.902344 82.257812 393.519531 106.214844 399.121094 110.765625 C 399.324219 110.929688 399.507812 111.121094 399.667969 111.328125 C 408.730469 123.253906 430.058594 143.660156 463.65625 172.554688 C 463.730469 172.621094 463.800781 172.6875 463.871094 172.761719 C 471.578125 180.699219 477.652344 187.980469 482.097656 194.59375 L 482.15625 194.683594 C 496.796875 218.078125 500.394531 242.363281 492.957031 267.542969 L 492.984375 267.453125 C 486.34375 292.546875 471.414062 311.636719 448.203125 324.714844 L 448.140625 324.75 C 437.574219 330.414062 426.636719 334.644531 415.320312 337.445312 C 415.226562 337.46875 415.136719 337.484375 415.046875 337.5 C 333.195312 350.597656 290.046875 359.820312 285.59375 365.171875 C 285.605469 365.15625 285.625 365.132812 285.644531 365.101562 C 285.195312 365.839844 284.476562 366.371094 283.640625 366.585938 C 269.109375 370.3125 234.664062 395.441406 180.296875 441.972656 C 180.207031 442.046875 180.117188 442.117188 180.019531 442.183594 C 170.050781 449.046875 160.171875 454.277344 150.386719 457.875 C 150.28125 457.914062 150.171875 457.949219 150.058594 457.976562 C 110.421875 468.007812 78.667969 456.234375 54.800781 422.65625 L 54.785156 422.632812 C 44.621094 408.09375 38.945312 390.257812 37.757812 369.125 L 42.882812 371.691406 C 42.140625 372.183594 41.339844 372.378906 40.480469 372.28125 C 38.839844 372.089844 37.769531 371.082031 37.265625 369.253906 C 35.679688 363.484375 39.210938 323.175781 47.863281 248.324219 C 47.882812 248.160156 47.914062 248 47.957031 247.839844 C 49.597656 241.800781 44.230469 211.792969 31.863281 157.8125 C 31.832031 157.679688 31.808594 157.542969 31.796875 157.410156 C 30.636719 146.089844 31.285156 136.148438 33.746094 127.585938 L 33.773438 127.492188 C 51.390625 72.457031 92.679688 42.269531 157.636719 36.929688 C 159.457031 36.78125 161.050781 38.132812 161.199219 39.949219 C 161.351562 41.769531 159.996094 43.363281 158.179688 43.511719 Z M 158.179688 43.511719 " fill-opacity="1" fill-rule="nonzero"/><path fill="#f89d47" d="M 321.429688 366.742188 C 330.007812 366.691406 338.582031 366.546875 347.160156 366.75 C 346.308594 369.277344 344.183594 371.195312 343.65625 373.890625 C 340.601562 377.890625 337.84375 382.40625 334.117188 385.820312 C 327.878906 391.535156 312.175781 393.25 303.9375 394.535156 C 306.128906 390.660156 309.53125 387.167969 312.226562 383.613281 C 316.136719 378.46875 318.917969 372.664062 321.429688 366.742188 Z M 321.429688 366.742188 " fill-opacity="1" fill-rule="nonzero"/><path fill="#fccdaf" d="M 169.136719 365.378906 C 175.742188 366.253906 185.621094 364.761719 191.589844 366.433594 C 194.003906 369.171875 196.738281 371.589844 198.902344 374.539062 C 199.621094 375.792969 200.375 376.996094 201.183594 378.1875 C 203.992188 383.027344 206.816406 387.753906 208.738281 393.03125 C 202.230469 391.160156 185.378906 390.449219 180.726562 387.261719 C 177.078125 386.398438 172.679688 386.886719 168.582031 386.113281 C 168.632812 381.3125 168.042969 375.800781 169.160156 371.125 C 168.460938 369.40625 168.921875 367.183594 169.136719 365.378906 Z M 169.136719 365.378906 " fill-opacity="1" fill-rule="nonzero"/><path fill="#f89d47" d="M 169.160156 371.125 C 171.230469 374.109375 173.335938 377.070312 175.480469 380 C 177.242188 382.371094 179.257812 384.707031 180.726562 387.261719 C 177.078125 386.398438 172.679688 386.886719 168.582031 386.113281 C 168.632812 381.3125 168.042969 375.800781 169.160156 371.125 Z M 169.160156 371.125 " fill-opacity="1" fill-rule="nonzero"/><path fill="#c6504b" d="M 317.597656 170.59375 C 304.828125 168.003906 292.773438 163.191406 285.121094 152.035156 C 278.457031 142.320312 276.535156 129.59375 278.65625 118.136719 C 280.199219 109.800781 284.160156 100.992188 291.367188 96.125 C 296.046875 92.960938 301.195312 92.464844 306.632812 93.550781 C 307.214844 100.597656 307.046875 102.261719 311.722656 108.019531 C 306.582031 110.695312 302.78125 113.859375 301.007812 119.578125 C 299.839844 123.34375 300.011719 127.066406 300.070312 130.949219 C 297.78125 131.445312 296.160156 131.835938 294.824219 133.960938 C 293.585938 135.941406 293.511719 138.589844 294.074219 140.800781 C 294.113281 140.949219 294.152344 141.101562 294.199219 141.25 C 294.242188 141.398438 294.292969 141.546875 294.34375 141.691406 C 294.394531 141.839844 294.453125 141.984375 294.511719 142.128906 C 294.570312 142.269531 294.636719 142.414062 294.703125 142.554688 C 294.769531 142.695312 294.839844 142.832031 294.914062 142.96875 C 294.988281 143.105469 295.066406 143.238281 295.144531 143.371094 C 295.226562 143.503906 295.3125 143.636719 295.398438 143.765625 C 295.484375 143.894531 295.578125 144.019531 295.671875 144.144531 C 295.765625 144.265625 295.863281 144.390625 295.960938 144.507812 C 296.0625 144.625 296.164062 144.742188 296.273438 144.855469 C 296.378906 144.96875 296.488281 145.082031 296.597656 145.1875 C 296.710938 145.296875 296.824219 145.402344 296.941406 145.503906 C 297.058594 145.609375 297.179688 145.707031 297.300781 145.804688 C 297.421875 145.898438 297.546875 145.992188 297.675781 146.082031 C 297.800781 146.171875 297.929688 146.257812 298.0625 146.339844 C 298.195312 146.425781 298.328125 146.503906 298.460938 146.582031 C 300.238281 147.59375 301.945312 147.792969 303.960938 147.921875 C 306.332031 156.390625 310.5625 163.855469 318.230469 168.605469 Z M 317.597656 170.59375 " fill-opacity="1" fill-rule="nonzero"/><path fill="#e07a62" d="M 306.632812 93.550781 C 308.53125 87.375 311.355469 82.726562 317.242188 79.617188 C 326.207031 74.882812 338.242188 75.195312 347.757812 78.191406 C 362.257812 82.757812 375.359375 94.542969 382.328125 107.945312 C 387.285156 117.46875 389.828125 128.792969 386.4375 139.257812 C 386.234375 139.871094 386.007812 140.480469 385.761719 141.082031 C 385.519531 141.679688 385.257812 142.273438 384.976562 142.855469 C 384.695312 143.441406 384.398438 144.015625 384.082031 144.578125 C 383.761719 145.144531 383.425781 145.699219 383.074219 146.242188 C 382.722656 146.785156 382.355469 147.320312 381.96875 147.839844 C 381.582031 148.359375 381.179688 148.867188 380.765625 149.363281 C 380.347656 149.859375 379.914062 150.339844 379.46875 150.808594 C 379.019531 151.277344 378.554688 151.730469 378.078125 152.167969 C 378.03125 150.460938 379.695312 148.238281 379.9375 146.355469 C 380.1875 144.402344 379.632812 142.695312 378.4375 141.164062 C 375.339844 137.191406 368.257812 134.460938 363.382812 133.804688 C 362.429688 133.234375 361.578125 132.886719 360.511719 132.578125 L 358.976562 132.058594 C 353.980469 130.289062 349.253906 128.09375 344.414062 125.960938 L 342.242188 124.785156 C 338.8125 122.582031 335.273438 120.328125 332.339844 117.472656 C 329.480469 114.691406 327.144531 110.980469 323.757812 108.816406 C 319.980469 106.40625 315.847656 107.109375 311.722656 108.019531 C 307.046875 102.261719 307.214844 100.597656 306.632812 93.550781 Z M 306.632812 93.550781 " fill-opacity="1" fill-rule="nonzero"/><path fill="#fccdaf" d="M 311.722656 108.019531 C 315.847656 107.109375 319.980469 106.40625 323.757812 108.816406 C 327.144531 110.980469 329.480469 114.691406 332.339844 117.472656 C 335.273438 120.328125 338.8125 122.582031 342.242188 124.785156 L 344.414062 125.960938 C 349.253906 128.09375 353.980469 130.289062 358.976562 132.058594 L 360.511719 132.578125 C 361.578125 132.886719 362.429688 133.234375 363.382812 133.804688 C 368.257812 134.460938 375.339844 137.191406 378.4375 141.164062 C 379.632812 142.695312 380.1875 144.402344 379.9375 146.355469 C 379.695312 148.238281 378.03125 150.460938 378.078125 152.167969 C 369.183594 162.3125 355.359375 167.5 342.585938 170.519531 C 342.554688 169.84375 342.410156 169.164062 342.300781 168.496094 C 340.773438 169.496094 339.0625 170.363281 337.347656 170.984375 C 330.515625 173.472656 324.527344 171.488281 318.230469 168.605469 C 310.5625 163.855469 306.332031 156.390625 303.960938 147.921875 C 301.945312 147.792969 300.238281 147.59375 298.460938 146.582031 C 298.328125 146.503906 298.195312 146.425781 298.0625 146.339844 C 297.929688 146.257812 297.800781 146.171875 297.675781 146.082031 C 297.546875 145.992188 297.421875 145.898438 297.300781 145.804688 C 297.179688 145.707031 297.058594 145.605469 296.941406 145.503906 C 296.824219 145.402344 296.710938 145.296875 296.597656 145.1875 C 296.488281 145.082031 296.378906 144.96875 296.273438 144.855469 C 296.164062 144.742188 296.0625 144.625 295.960938 144.507812 C 295.863281 144.390625 295.765625 144.265625 295.671875 144.144531 C 295.578125 144.019531 295.484375 143.894531 295.398438 143.765625 C 295.3125 143.636719 295.226562 143.503906 295.144531 143.371094 C 295.066406 143.238281 294.988281 143.105469 294.914062 142.96875 C 294.839844 142.832031 294.769531 142.695312 294.703125 142.554688 C 294.636719 142.414062 294.570312 142.269531 294.511719 142.128906 C 294.453125 141.984375 294.394531 141.839844 294.34375 141.691406 C 294.292969 141.546875 294.242188 141.398438 294.199219 141.25 C 294.152344 141.101562 294.113281 140.949219 294.074219 140.800781 C 293.511719 138.589844 293.585938 135.941406 294.824219 133.960938 C 296.160156 131.835938 297.78125 131.445312 300.070312 130.949219 C 300.011719 127.066406 299.839844 123.34375 301.007812 119.578125 C 302.78125 113.859375 306.582031 110.695312 311.722656 108.019531 Z M 311.722656 108.019531 " fill-opacity="1" fill-rule="nonzero"/><path fill="#ae2b62" d="M 342.242188 124.785156 L 344.414062 125.960938 C 342.96875 126.363281 340.214844 127.734375 338.8125 127.195312 C 339.332031 125.898438 341.054688 125.304688 342.242188 124.785156 Z M 342.242188 124.785156 " fill-opacity="1" fill-rule="nonzero"/><path fill="#ae2b62" d="M 315.054688 124.605469 C 316.1875 124.675781 317.476562 124.878906 318.519531 125.332031 C 319.210938 125.632812 320.113281 126.121094 320.410156 126.824219 L 320.058594 127.113281 C 318.34375 127.292969 316.847656 126.585938 315.269531 126.011719 C 313.554688 126.40625 311.980469 127.292969 310.203125 127.375 L 309.917969 127.105469 C 309.980469 127 310.042969 126.898438 310.109375 126.796875 C 311.226562 125.113281 313.238281 124.898438 315.054688 124.605469 Z M 315.054688 124.605469 " fill-opacity="1" fill-rule="nonzero"/><path fill="#f89d47" d="M 328.765625 133.648438 C 328.894531 133.714844 329.019531 133.773438 329.128906 133.871094 C 330.890625 135.519531 328.417969 139.753906 328.445312 141.859375 C 328.46875 143.878906 330.449219 143.941406 331.535156 145.148438 C 331.953125 145.617188 331.859375 145.96875 331.863281 146.546875 C 330.378906 146.261719 328.847656 145.75 327.976562 144.429688 C 326.183594 141.722656 328.214844 136.695312 328.765625 133.648438 Z M 328.765625 133.648438 " fill-opacity="1" fill-rule="nonzero"/><path fill="#f89d47" d="M 358.976562 132.058594 L 360.511719 132.578125 L 359.425781 135.820312 C 360.238281 137.628906 361.035156 139.722656 360.625 141.730469 L 360.34375 141.769531 C 359.75 140.917969 359.59375 139.996094 359.378906 139.007812 C 358.972656 140.273438 358.625 141.691406 357.9375 142.835938 L 357.59375 142.804688 C 356.554688 139.820312 358.289062 135.027344 358.976562 132.058594 Z M 358.976562 132.058594 " fill-opacity="1" fill-rule="nonzero"/><path fill="#f89d47" d="M 299.878906 133.242188 C 299.894531 133.261719 299.914062 133.28125 299.929688 133.300781 C 301.269531 134.945312 301.90625 139.890625 301.710938 142.003906 C 301.660156 142.554688 301.722656 142.738281 301.296875 143.105469 C 300.707031 142.597656 300.523438 141.878906 300.261719 141.171875 C 300.113281 140.410156 299.917969 139.726562 299.636719 139.007812 C 299.160156 139.136719 298.835938 140.910156 298.21875 141.429688 L 297.816406 141.308594 C 297.019531 139.332031 299.050781 135.191406 299.878906 133.242188 Z M 299.878906 133.242188 " fill-opacity="1" fill-rule="nonzero"/><path fill="#28184a" d="M 314.003906 131.199219 C 315.179688 131.175781 316.144531 131.222656 317.09375 131.988281 C 317.734375 132.507812 318.113281 133.253906 318.128906 134.078125 C 318.160156 135.570312 317.378906 136.503906 316.4375 137.539062 C 316.382812 137.550781 316.324219 137.5625 316.269531 137.574219 C 315.335938 137.738281 314.359375 137.613281 313.589844 137.027344 C 312.898438 136.503906 312.597656 135.722656 312.539062 134.878906 C 312.433594 133.316406 313.070312 132.34375 314.003906 131.199219 Z M 314.003906 131.199219 " fill-opacity="1" fill-rule="nonzero"/><path fill="#28184a" d="M 343.429688 131.214844 C 343.511719 131.214844 343.59375 131.214844 343.675781 131.21875 C 344.875 131.242188 345.886719 131.484375 346.710938 132.421875 C 347.246094 133.03125 347.472656 133.824219 347.390625 134.625 C 347.25 136.011719 346.457031 136.777344 345.449219 137.609375 C 344.328125 137.695312 343.308594 137.644531 342.425781 136.859375 C 341.78125 136.285156 341.519531 135.472656 341.542969 134.621094 C 341.59375 133.042969 342.347656 132.21875 343.429688 131.214844 Z M 343.429688 131.214844 " fill-opacity="1" fill-rule="nonzero"/><path fill="#f16f89" d="M 323.183594 151.625 C 328.144531 151.488281 333.15625 151.746094 338.128906 151.675781 C 337.449219 152.609375 336.707031 153.441406 335.917969 154.289062 C 335.335938 154.679688 334.738281 155.082031 334.089844 155.355469 C 331.886719 156.296875 329.085938 156.195312 326.894531 155.265625 C 325.128906 154.519531 323.90625 153.414062 323.183594 151.625 Z M 323.183594 151.625 " fill-opacity="1" fill-rule="nonzero"/><path fill="#c6504b" d="M 363.382812 133.804688 C 368.257812 134.460938 375.339844 137.191406 378.4375 141.164062 C 379.632812 142.695312 380.1875 144.402344 379.9375 146.355469 C 379.695312 148.238281 378.03125 150.460938 378.078125 152.167969 C 369.183594 162.3125 355.359375 167.5 342.585938 170.519531 C 342.554688 169.84375 342.410156 169.164062 342.300781 168.496094 C 350.375 163.742188 353.632812 156.421875 356.007812 147.78125 C 358.925781 146.921875 361.371094 145.472656 362.855469 142.710938 C 364.414062 139.808594 364.292969 136.882812 363.382812 133.804688 Z M 363.382812 133.804688 " fill-opacity="1" fill-rule="nonzero"/><path fill="#fab0b4" d="M 342.300781 168.496094 C 342.410156 169.164062 342.554688 169.84375 342.585938 170.519531 C 343.449219 176.222656 344.808594 181.757812 346.246094 187.339844 L 346.757812 189.902344 C 351.226562 191.304688 355.722656 192.414062 360.300781 193.394531 C 363.148438 194.050781 366.039062 194.769531 368.953125 195.050781 C 369.574219 204.902344 373.359375 216.085938 371.390625 225.789062 C 368.933594 237.90625 355.488281 243.339844 359.375 257.453125 C 360.695312 262.253906 363.265625 266.738281 366.289062 270.671875 C 366.238281 270.722656 366.1875 270.773438 366.132812 270.824219 C 363.347656 273.46875 359.738281 275.292969 356.828125 277.855469 C 346.996094 286.511719 343.695312 298.53125 343.246094 311.167969 C 342.902344 320.945312 343.761719 330.730469 343.519531 340.492188 L 343.171875 343.765625 C 341.242188 340 339.6875 336.039062 337.808594 332.246094 C 331.648438 319.785156 318.625 295.242188 309.148438 285.902344 C 303.855469 282.898438 298.769531 280.023438 292.808594 278.578125 C 293.152344 274.855469 293.863281 270.761719 293.710938 267.039062 C 293.683594 266.324219 293.679688 266.148438 293.164062 265.664062 L 293.90625 265.460938 C 297.890625 265.648438 302.296875 263.824219 306.023438 262.546875 C 309.738281 260.71875 312.820312 258.601562 315.796875 255.722656 C 306.015625 242.425781 304.742188 225.78125 301.449219 210.144531 C 300.378906 205.066406 298.992188 200.195312 297.257812 195.304688 L 303.464844 193.007812 C 307.136719 191.773438 310.796875 190.480469 314.542969 189.480469 C 315.808594 183.648438 316.082031 177.695312 317.527344 171.871094 L 317.597656 170.59375 L 318.230469 168.605469 C 324.527344 171.488281 330.515625 173.472656 337.347656 170.984375 C 339.0625 170.363281 340.773438 169.496094 342.300781 168.496094 Z M 342.300781 168.496094 " fill-opacity="1" fill-rule="nonzero"/><path fill="#f16f89" d="M 293.90625 265.460938 C 297.890625 265.648438 302.296875 263.824219 306.023438 262.546875 C 306.738281 266.464844 307.308594 270.40625 307.726562 274.371094 C 308.101562 278.058594 308.042969 282.355469 309.148438 285.902344 C 303.855469 282.898438 298.769531 280.023438 292.808594 278.578125 C 293.152344 274.855469 293.863281 270.761719 293.710938 267.039062 C 293.683594 266.324219 293.679688 266.148438 293.164062 265.664062 Z M 293.90625 265.460938 " fill-opacity="1" fill-rule="nonzero"/><path fill="#fccdaf" d="M 342.300781 168.496094 C 342.410156 169.164062 342.554688 169.84375 342.585938 170.519531 C 343.449219 176.222656 344.808594 181.757812 346.246094 187.339844 L 346.757812 189.902344 C 351.226562 191.304688 355.722656 192.414062 360.300781 193.394531 C 357.269531 200.839844 352.632812 206.773438 345.40625 210.5625 C 338.875 213.992188 331.34375 214.347656 324.363281 212.09375 C 314.765625 209 307.917969 201.785156 303.464844 193.007812 C 307.136719 191.773438 310.796875 190.480469 314.542969 189.480469 C 315.808594 183.648438 316.082031 177.695312 317.527344 171.871094 L 317.597656 170.59375 L 318.230469 168.605469 C 324.527344 171.488281 330.515625 173.472656 337.347656 170.984375 C 339.0625 170.363281 340.773438 169.496094 342.300781 168.496094 Z M 342.300781 168.496094 " fill-opacity="1" fill-rule="nonzero"/><path fill="#e07a62" d="M 342.300781 168.496094 C 342.410156 169.164062 342.554688 169.84375 342.585938 170.519531 C 343.449219 176.222656 344.808594 181.757812 346.246094 187.339844 C 338.492188 186.058594 322.308594 178.0625 317.527344 171.871094 L 317.597656 170.59375 L 318.230469 168.605469 C 324.527344 171.488281 330.515625 173.472656 337.347656 170.984375 C 339.0625 170.363281 340.773438 169.496094 342.300781 168.496094 Z M 342.300781 168.496094 " fill-opacity="1" fill-rule="nonzero"/><path fill="#28184a" d="M 368.953125 195.050781 C 369.695312 181.976562 373.71875 170.75 383.699219 161.839844 C 392.375 154.101562 404.558594 151.039062 415.992188 151.761719 C 422.5625 152.179688 429.683594 154.371094 434.183594 159.445312 C 435.410156 160.832031 436.886719 163.003906 436.96875 164.910156 C 443.089844 165.925781 447.769531 168.679688 451.425781 173.753906 C 458.175781 183.121094 457.1875 196.082031 455.480469 206.882812 C 454.417969 213.636719 452.71875 220.449219 454.972656 227.164062 C 458.257812 236.960938 468.925781 244.089844 466.953125 255.355469 C 466.292969 259.132812 463.054688 266.953125 459.78125 269.21875 C 459.679688 269.285156 459.578125 269.347656 459.476562 269.414062 C 458.628906 268.851562 457.171875 268.4375 456.207031 268 C 450.792969 265.539062 444.671875 262.019531 438.757812 261.171875 L 438.851562 261.800781 C 437.789062 263.632812 435.980469 265.121094 434.316406 266.40625 C 426.976562 272.0625 418.601562 275.070312 409.25 273.820312 C 400.40625 272.640625 393.65625 268.027344 388.320312 261.070312 C 382.902344 262.621094 377.617188 265.210938 372.5625 267.664062 C 370.714844 268.558594 368.269531 270.25 366.289062 270.671875 C 363.265625 266.738281 360.695312 262.253906 359.375 257.453125 C 355.488281 243.339844 368.933594 237.90625 371.390625 225.789062 C 373.359375 216.085938 369.574219 204.902344 368.953125 195.050781 Z M 368.953125 195.050781 " fill-opacity="1" fill-rule="nonzero"/><path fill="#e07a62" d="M 401.238281 230.128906 C 403.65625 230.65625 406 231.484375 408.417969 232.007812 C 413.242188 233.046875 420.171875 233.371094 424.773438 231.191406 C 426.054688 233.152344 425.878906 242.882812 426.46875 246.011719 C 426.753906 247.546875 427.878906 250.828125 427.574219 252.265625 C 427.523438 252.5 427.46875 252.578125 427.359375 252.808594 C 429.601562 253.902344 430.667969 256.566406 432.683594 257.980469 C 434.433594 259.203125 437.476562 259.527344 438.757812 261.171875 L 438.851562 261.800781 C 437.789062 263.632812 435.980469 265.121094 434.316406 266.40625 C 426.976562 272.0625 418.601562 275.070312 409.25 273.820312 C 400.40625 272.640625 393.65625 268.027344 388.320312 261.070312 C 392.09375 259.5 395.414062 257.613281 397.503906 253.957031 C 399.585938 250.320312 402.230469 240.363281 401.121094 236.339844 C 401.828125 234.359375 402.109375 232.101562 401.238281 230.128906 Z M 401.238281 230.128906 " fill-opacity="1" fill-rule="nonzero"/><path fill="#c6504b" d="M 401.238281 230.128906 C 403.65625 230.65625 406 231.484375 408.417969 232.007812 C 413.242188 233.046875 420.171875 233.371094 424.773438 231.191406 C 426.054688 233.152344 425.878906 242.882812 426.46875 246.011719 C 426.753906 247.546875 427.878906 250.828125 427.574219 252.265625 C 427.523438 252.5 427.46875 252.578125 427.359375 252.808594 C 427.183594 252.632812 427.144531 252.585938 426.914062 252.421875 C 425.609375 251.476562 424.003906 250.710938 422.609375 249.890625 C 419.960938 248.335938 417.355469 246.714844 414.792969 245.019531 C 410.832031 242.417969 407.082031 239.109375 403.015625 236.742188 C 402.261719 236.300781 401.960938 236.246094 401.121094 236.339844 C 401.828125 234.359375 402.109375 232.101562 401.238281 230.128906 Z M 401.238281 230.128906 " fill-opacity="1" fill-rule="nonzero"/><path fill="#e07a62" d="M 388.019531 197.667969 C 392.347656 194.199219 397.699219 191.765625 402.488281 188.957031 C 409.292969 184.960938 416.699219 180.015625 423.761719 176.75 C 425.5625 175.914062 427.996094 174.855469 430.03125 175.0625 C 432.628906 175.320312 434.804688 177.160156 436.339844 179.152344 C 439.472656 183.238281 441.609375 190.460938 440.871094 195.539062 C 440.800781 196.042969 440.65625 196.554688 440.378906 196.988281 C 442.84375 197.925781 444.820312 199.105469 445.921875 201.621094 C 445.96875 201.730469 446.011719 201.839844 446.054688 201.953125 C 446.09375 202.066406 446.132812 202.179688 446.171875 202.292969 C 446.203125 202.40625 446.238281 202.523438 446.269531 202.636719 C 446.296875 202.753906 446.320312 202.871094 446.34375 202.988281 C 446.367188 203.101562 446.390625 203.222656 446.40625 203.339844 C 446.425781 203.457031 446.441406 203.574219 446.453125 203.695312 C 446.464844 203.8125 446.472656 203.933594 446.476562 204.050781 C 446.484375 204.171875 446.488281 204.289062 446.488281 204.410156 C 446.488281 204.527344 446.484375 204.648438 446.476562 204.769531 C 446.472656 204.886719 446.464844 205.007812 446.449219 205.125 C 446.4375 205.242188 446.421875 205.363281 446.402344 205.480469 C 446.386719 205.597656 446.363281 205.714844 446.339844 205.832031 C 446.316406 205.949219 446.289062 206.066406 446.261719 206.179688 C 446.230469 206.296875 446.195312 206.410156 446.160156 206.523438 C 446.121094 206.640625 446.082031 206.75 446.042969 206.863281 C 446 206.976562 445.957031 207.085938 445.910156 207.195312 C 445.023438 209.261719 443.046875 210.835938 440.96875 211.613281 C 441.375 215.78125 438.3125 220.808594 435.789062 223.894531 C 433.003906 227.304688 429.082031 230.101562 424.773438 231.191406 C 420.171875 233.371094 413.242188 233.046875 408.417969 232.007812 C 406 231.484375 403.65625 230.65625 401.238281 230.128906 C 400.871094 229.226562 394.890625 225.5625 393.578125 224.105469 C 390.183594 220.34375 388.277344 215.511719 386.804688 210.738281 C 384.746094 210.019531 383.117188 209.195312 382.085938 207.140625 C 381.199219 205.371094 381.234375 203.316406 381.925781 201.492188 C 382.546875 199.84375 383.601562 198.523438 384.972656 197.429688 Z M 388.019531 197.667969 " fill-opacity="1" fill-rule="nonzero"/><path fill="#ae2b62" d="M 413.96875 197.878906 C 414.253906 197.90625 414.421875 197.910156 414.660156 198.082031 C 416.101562 199.128906 412.453125 207.90625 413 210.003906 C 413.265625 211 413.898438 211.195312 414.738281 211.632812 L 414.714844 211.949219 L 413.816406 212.382812 C 413.734375 212.40625 413.648438 212.433594 413.566406 212.449219 C 412.71875 212.613281 412.105469 212.414062 411.410156 211.945312 C 411.035156 210.902344 412.207031 208.832031 412.453125 207.660156 C 413.125 204.449219 413.371094 201.113281 413.96875 197.878906 Z M 413.96875 197.878906 " fill-opacity="1" fill-rule="nonzero"/><path fill="#28184a" d="M 425.386719 194.523438 C 427.5625 194.265625 429.589844 194.234375 431.628906 195.113281 C 432.25 195.378906 432.96875 195.722656 433.242188 196.378906 L 432.871094 196.734375 C 431.734375 197.050781 430.65625 196.613281 429.554688 196.308594 C 427.652344 195.539062 424.367188 196.542969 422.34375 196.785156 L 422.140625 196.550781 L 422.363281 196.027344 C 423.238281 195.28125 424.332031 194.933594 425.386719 194.523438 Z M 425.386719 194.523438 " fill-opacity="1" fill-rule="nonzero"/><path fill="#28184a" d="M 398.351562 194.519531 C 400.734375 194.257812 402.550781 194.246094 404.835938 195.066406 C 405.484375 195.300781 405.949219 195.464844 406.242188 196.089844 C 406.199219 196.144531 406.160156 196.207031 406.105469 196.253906 C 405.179688 197.136719 402.503906 196.542969 401.300781 196.429688 C 399.222656 195.855469 397.148438 197.269531 395.027344 197.203125 L 394.847656 196.769531 C 395.46875 195.558594 397.15625 195.003906 398.351562 194.519531 Z M 398.351562 194.519531 " fill-opacity="1" fill-rule="nonzero"/><path fill="#28184a" d="M 426.386719 200.472656 C 426.960938 200.394531 427.652344 200.25 428.222656 200.375 C 429.039062 200.550781 429.855469 201.367188 430.214844 202.089844 C 430.523438 202.703125 430.605469 203.480469 430.382812 204.132812 C 430.082031 204.996094 429.5625 205.511719 428.765625 205.910156 C 428.722656 205.957031 428.6875 206.015625 428.636719 206.058594 C 428.152344 206.453125 427.609375 206.808594 426.992188 206.753906 C 426.515625 206.382812 426.21875 205.855469 426.015625 205.289062 C 425.378906 203.519531 425.652344 202.132812 426.386719 200.472656 Z M 426.386719 200.472656 " fill-opacity="1" fill-rule="nonzero"/><path fill="#28184a" d="M 399.179688 200.210938 C 399.789062 200.109375 400.46875 199.960938 401.078125 200.125 C 401.984375 200.371094 402.761719 201.203125 403.164062 202.023438 C 403.59375 202.898438 403.628906 203.882812 403.246094 204.78125 C 402.898438 205.585938 402.414062 205.964844 401.617188 206.273438 C 400.96875 206.664062 400.355469 206.890625 399.59375 206.746094 C 399.171875 206.421875 398.921875 206.109375 398.71875 205.609375 C 397.976562 203.742188 398.394531 201.949219 399.179688 200.210938 Z M 399.179688 200.210938 " fill-opacity="1" fill-rule="nonzero"/><path fill="#fefefe" d="M 408.617188 215.480469 C 411.203125 215.3125 414.773438 214.964844 417.277344 215.457031 C 418.132812 215.621094 418.449219 215.878906 418.910156 216.597656 C 418.90625 216.878906 418.914062 217.140625 418.816406 217.410156 C 418.355469 218.703125 417.324219 219.539062 416.117188 220.074219 C 415.621094 220.714844 414.472656 220.984375 413.699219 221.066406 C 412.332031 221.210938 410.78125 220.363281 409.722656 219.535156 C 408.699219 218.722656 407.757812 217.726562 407.582031 216.390625 C 407.90625 215.722656 407.972656 215.761719 408.617188 215.480469 Z M 408.617188 215.480469 " fill-opacity="1" fill-rule="nonzero"/><path fill="#ae2b62" d="M 366.289062 270.671875 C 368.269531 270.25 370.714844 268.558594 372.5625 267.664062 C 377.617188 265.210938 382.902344 262.621094 388.320312 261.070312 C 393.65625 268.027344 400.40625 272.640625 409.25 273.820312 C 418.601562 275.070312 426.976562 272.0625 434.316406 266.40625 C 435.980469 265.121094 437.789062 263.632812 438.851562 261.800781 L 438.757812 261.171875 C 444.671875 262.019531 450.792969 265.539062 456.207031 268 C 457.171875 268.4375 458.628906 268.851562 459.476562 269.414062 C 461.949219 270.617188 464.257812 272.480469 466.386719 274.210938 C 473.476562 279.964844 478.957031 286.5 481.984375 295.210938 C 482.550781 296.820312 483.019531 298.460938 483.390625 300.125 C 483.761719 301.789062 484.039062 303.46875 484.214844 305.167969 C 484.976562 312.632812 484.480469 320.320312 484.53125 327.824219 C 484.558594 331.886719 485.359375 340.125 484.351562 343.742188 C 483.59375 344.539062 481.296875 344.460938 480.203125 344.519531 C 480.585938 344.972656 480.691406 345.289062 480.765625 345.867188 C 481.457031 351.472656 481.046875 357.589844 481.078125 363.261719 C 481.117188 370.007812 481.566406 377.121094 480.992188 383.828125 C 480.953125 384.308594 480.820312 384.65625 480.601562 385.082031 C 478.507812 387.859375 463.113281 391.367188 459.421875 391.898438 L 459.214844 391.929688 C 455.382812 393.546875 450.675781 393.882812 446.585938 394.503906 C 424.269531 397.886719 402.421875 397.570312 380.03125 395.234375 L 371.152344 393.996094 L 370.210938 393.921875 C 367.5625 393.132812 364.566406 392.84375 361.84375 392.289062 C 356.800781 391.273438 351.8125 390.019531 346.886719 388.53125 C 345.675781 383.679688 344.601562 378.800781 343.65625 373.890625 C 344.183594 371.195312 346.308594 369.277344 347.160156 366.75 C 347.917969 366.734375 348.445312 366.828125 349.101562 366.40625 C 350.734375 362.085938 344.976562 348.304688 343.171875 343.765625 L 343.519531 340.492188 C 343.761719 330.730469 342.902344 320.945312 343.246094 311.167969 C 343.695312 298.53125 346.996094 286.511719 356.828125 277.855469 C 359.738281 275.292969 363.347656 273.46875 366.132812 270.824219 C 366.1875 270.773438 366.238281 270.722656 366.289062 270.671875 Z M 456.179688 379.417969 C 457.164062 376.398438 457.179688 347.410156 456.078125 345.003906 L 455.863281 344.609375 L 455.386719 344.632812 C 454.53125 346.03125 454.382812 348.203125 454.078125 349.8125 C 452.167969 360.019531 452.707031 362.785156 454.820312 372.683594 C 455.261719 374.757812 455.480469 377.0625 456.058594 379.074219 C 456.089844 379.191406 456.140625 379.304688 456.179688 379.417969 Z M 456.179688 379.417969 " fill-opacity="1" fill-rule="nonzero"/><path fill="#8f135e" d="M 456.394531 310.703125 C 457.070312 310.585938 457.625 310.539062 458.257812 310.859375 C 460.507812 312 461.679688 314.855469 462.457031 317.097656 C 464.46875 322.917969 463.699219 328.578125 461.035156 334.058594 C 459.347656 337.523438 456.378906 342.914062 452.589844 344.230469 C 452.304688 344.511719 452.148438 344.527344 451.765625 344.632812 C 451.1875 344.316406 451.171875 344.292969 450.898438 343.695312 C 450.914062 343.464844 450.910156 343.265625 451.035156 343.058594 C 451.664062 342.003906 452.75 340.976562 453.527344 340.007812 C 455.96875 336.96875 458.453125 333.816406 460.042969 330.234375 C 462.085938 325.644531 461.867188 321.097656 459.488281 316.683594 C 458.476562 314.800781 457.261719 313.003906 456.5 310.996094 Z M 456.394531 310.703125 " fill-opacity="1" fill-rule="nonzero"/><path fill="#8f135e" d="M 377.984375 342.898438 C 378.625 336.183594 379.113281 329.359375 379.3125 322.617188 C 379.425781 318.863281 379.125 314.886719 379.527344 311.175781 C 379.632812 310.234375 379.742188 309.328125 380.464844 308.667969 C 381.039062 308.976562 381.152344 309.167969 381.328125 309.800781 C 382.445312 313.855469 381.652344 324.476562 381.621094 329.199219 C 381.5 351.261719 381.335938 373.195312 380.03125 395.234375 L 371.152344 393.996094 C 371.859375 389.816406 372.453125 385.621094 372.925781 381.410156 C 373.398438 377.199219 373.753906 372.976562 373.992188 368.746094 C 374.230469 364.511719 374.347656 360.277344 374.347656 356.039062 C 374.347656 351.800781 374.230469 347.566406 373.992188 343.335938 C 374.9375 342.617188 376.796875 342.867188 377.984375 342.898438 Z M 377.984375 342.898438 " fill-opacity="1" fill-rule="nonzero"/><path fill="#e07a62" d="M 456.078125 345.003906 C 456.183594 344.929688 456.28125 344.847656 456.390625 344.78125 C 457.53125 344.0625 478.097656 344.058594 480.203125 344.519531 C 480.585938 344.972656 480.691406 345.289062 480.765625 345.867188 C 481.457031 351.472656 481.046875 357.589844 481.078125 363.261719 C 481.117188 370.007812 481.566406 377.121094 480.992188 383.828125 C 480.953125 384.308594 480.820312 384.65625 480.601562 385.082031 C 478.507812 387.859375 463.113281 391.367188 459.421875 391.898438 L 459.214844 391.929688 C 459.730469 389.328125 457.011719 382.230469 456.179688 379.417969 C 457.164062 376.398438 457.179688 347.410156 456.078125 345.003906 Z M 456.078125 345.003906 " fill-opacity="1" fill-rule="nonzero"/><path fill="#e07a62" d="M 343.171875 343.765625 L 343.519531 340.492188 C 343.527344 341.195312 343.390625 342.308594 343.753906 342.917969 C 348.207031 343.234375 352.785156 342.972656 357.25 342.953125 C 362.050781 342.929688 366.988281 343.140625 371.773438 342.816406 C 372.550781 342.839844 373.398438 342.75 373.992188 343.335938 C 374.230469 347.566406 374.347656 351.800781 374.347656 356.039062 C 374.347656 360.277344 374.230469 364.511719 373.992188 368.746094 C 373.753906 372.976562 373.398438 377.199219 372.925781 381.410156 C 372.453125 385.621094 371.859375 389.816406 371.152344 393.996094 L 370.210938 393.921875 C 367.5625 393.132812 364.566406 392.84375 361.84375 392.289062 C 356.800781 391.273438 351.8125 390.019531 346.886719 388.53125 C 345.675781 383.679688 344.601562 378.800781 343.65625 373.890625 C 344.183594 371.195312 346.308594 369.277344 347.160156 366.75 C 347.917969 366.734375 348.445312 366.828125 349.101562 366.40625 C 350.734375 362.085938 344.976562 348.304688 343.171875 343.765625 Z M 343.171875 343.765625 " fill-opacity="1" fill-rule="nonzero"/><path fill="#fab0b4" d="M 371.773438 342.816406 C 372.550781 342.839844 373.398438 342.75 373.992188 343.335938 C 374.230469 347.566406 374.347656 351.800781 374.347656 356.039062 C 374.347656 360.277344 374.230469 364.511719 373.992188 368.746094 C 373.753906 372.976562 373.398438 377.199219 372.925781 381.410156 C 372.453125 385.621094 371.859375 389.816406 371.152344 393.996094 L 370.210938 393.921875 C 371.175781 388.074219 370.695312 382.070312 370.832031 376.167969 Z M 371.773438 342.816406 " fill-opacity="1" fill-rule="nonzero"/><path fill="#fac477" d="M 116.082031 255.765625 C 119.644531 261.480469 123.191406 262.667969 129.199219 265.066406 C 131.152344 265.800781 133.332031 266.4375 135.195312 267.359375 C 146.589844 271.011719 160.761719 276.519531 166.492188 287.945312 C 168.003906 290.953125 168.613281 293.71875 171.140625 296.109375 C 170.796875 297.3125 170.40625 298.554688 170.300781 299.804688 C 169.808594 305.703125 171.609375 340.375 169.945312 342.816406 L 168.847656 343.160156 C 168.429688 346.902344 168.171875 351.507812 169.042969 355.191406 C 169.019531 358.566406 168.667969 362.03125 169.136719 365.378906 C 168.921875 367.183594 168.460938 369.40625 169.160156 371.125 C 168.042969 375.800781 168.632812 381.3125 168.582031 386.113281 L 168.535156 389.617188 C 163.507812 390.4375 158.503906 391.382812 153.523438 392.449219 C 118.730469 397.761719 91.066406 398.484375 56.210938 391.515625 C 49.023438 389.890625 41.921875 388.066406 35.039062 385.394531 C 34.300781 371.429688 33.75 357.453125 33.394531 343.472656 L 29.554688 343.476562 C 29.609375 329.371094 28.410156 314.097656 29.714844 300.179688 C 30.03125 296.777344 31.449219 293.511719 31.84375 290.128906 C 31.851562 290.058594 31.859375 289.988281 31.863281 289.921875 C 32.761719 288.101562 33.640625 286.265625 34.617188 284.488281 C 41.894531 271.246094 56.324219 267.710938 69.722656 263.804688 C 74.699219 262.375 79.046875 260.46875 82.65625 256.636719 C 83.21875 257.15625 83.882812 257.5625 84.546875 257.933594 C 91.511719 261.847656 101.144531 262.59375 108.75 260.375 C 111.378906 259.605469 114.683594 258.28125 116.082031 255.765625 Z M 58.773438 343.660156 C 58.808594 354.304688 58.355469 364.863281 57.867188 375.492188 C 57.710938 378.957031 57.828125 382.457031 57.570312 385.90625 C 59.503906 383.082031 64.667969 367.402344 66.3125 362.976562 C 64.527344 356.328125 63.304688 349.546875 61.496094 342.90625 C 60.570312 343.117188 59.667969 343.324219 58.773438 343.660156 Z M 142.796875 363.058594 C 143.746094 365.902344 144.5625 369.054688 146.027344 371.671875 C 146.238281 364.738281 146.011719 357.855469 145.710938 350.933594 L 145.355469 350.816406 C 144.480469 354.882812 143.902344 359.054688 142.796875 363.058594 Z M 142.796875 363.058594 " fill-opacity="1" fill-rule="nonzero"/><path fill="#e07a62" d="M 61.214844 310.070312 C 61.78125 310.21875 62.074219 310.367188 62.542969 310.722656 C 63.691406 313.441406 62.871094 338.527344 62.648438 342.8125 C 62.066406 342.757812 61.742188 342.722656 61.269531 342.328125 C 60.503906 339.574219 60.546875 312.929688 61.214844 310.070312 Z M 61.214844 310.070312 " fill-opacity="1" fill-rule="nonzero"/><path fill="#e07a62" d="M 148.457031 309.972656 C 148.695312 309.980469 148.921875 309.984375 149.152344 310.050781 C 150.367188 310.390625 151.535156 312.140625 152.09375 313.214844 C 154.902344 318.605469 155.265625 325.761719 153.386719 331.492188 C 151.546875 337.113281 147.929688 340.601562 142.753906 343.242188 C 142.238281 343.03125 141.914062 342.796875 141.484375 342.449219 C 141.265625 341.855469 141.117188 341.566406 141.441406 340.972656 C 141.835938 340.253906 142.746094 339.671875 143.386719 339.171875 C 146.871094 336.449219 149.125 334.125 150.359375 329.785156 C 152.296875 322.964844 149.933594 317.34375 146.648438 311.433594 Z M 148.457031 309.972656 " fill-opacity="1" fill-rule="nonzero"/><path fill="#fccdaf" d="M 146.65625 343.660156 C 154.066406 343.722656 161.464844 343.964844 168.847656 343.160156 C 168.429688 346.902344 168.171875 351.507812 169.042969 355.191406 C 169.019531 358.566406 168.667969 362.03125 169.136719 365.378906 C 168.921875 367.183594 168.460938 369.40625 169.160156 371.125 C 168.042969 375.800781 168.632812 381.3125 168.582031 386.113281 L 168.535156 389.617188 C 163.507812 390.4375 158.503906 391.382812 153.523438 392.449219 C 152.015625 385.328125 147.492188 378.820312 146.027344 371.671875 C 146.238281 364.738281 146.011719 357.855469 145.710938 350.933594 C 145.378906 348.855469 146.425781 345.832031 146.65625 343.660156 Z M 146.65625 343.660156 " fill-opacity="1" fill-rule="nonzero"/><path fill="#fccdaf" d="M 33.394531 343.472656 C 41.703125 344.066406 50.4375 343.886719 58.773438 343.660156 C 58.808594 354.304688 58.355469 364.863281 57.867188 375.492188 C 57.710938 378.957031 57.828125 382.457031 57.570312 385.90625 C 57.839844 387.382812 56.683594 390.058594 56.210938 391.515625 C 49.023438 389.890625 41.921875 388.066406 35.039062 385.394531 C 34.300781 371.429688 33.75 357.453125 33.394531 343.472656 Z M 33.394531 343.472656 " fill-opacity="1" fill-rule="nonzero"/><path fill="#e07a62" d="M 116.082031 255.765625 C 119.644531 261.480469 123.191406 262.667969 129.199219 265.066406 C 129.261719 266.644531 129.773438 268.308594 130.109375 269.851562 C 130.894531 273.457031 131.746094 277.042969 131.855469 280.75 C 132.160156 291.183594 125.074219 294.78125 118.949219 301.671875 C 116.234375 304.726562 114.199219 308.074219 112.203125 311.625 C 103.847656 301.679688 98.757812 300.105469 86.863281 296.765625 C 83.511719 295.824219 80.152344 294.808594 77.203125 292.894531 C 69.230469 287.710938 69.363281 278.308594 69.710938 269.800781 C 69.78125 268.175781 70.203125 265.714844 69.820312 264.164062 C 69.789062 264.042969 69.753906 263.925781 69.722656 263.804688 C 74.699219 262.375 79.046875 260.46875 82.65625 256.636719 C 83.21875 257.15625 83.882812 257.5625 84.546875 257.933594 C 91.511719 261.847656 101.144531 262.59375 108.75 260.375 C 111.378906 259.605469 114.683594 258.28125 116.082031 255.765625 Z M 116.082031 255.765625 " fill-opacity="1" fill-rule="nonzero"/><path fill="#575aaf" d="M 286.121094 231.367188 C 287.898438 234.71875 287.753906 241.605469 288.617188 245.554688 C 289.511719 249.523438 290.519531 253.457031 291.652344 257.363281 C 292.429688 260.039062 293.441406 262.710938 293.90625 265.460938 L 293.164062 265.664062 C 293.679688 266.148438 293.683594 266.324219 293.710938 267.039062 C 293.863281 270.761719 293.152344 274.855469 292.808594 278.578125 C 298.769531 280.023438 303.855469 282.898438 309.148438 285.902344 C 318.625 295.242188 331.648438 319.785156 337.808594 332.246094 C 339.6875 336.039062 341.242188 340 343.171875 343.765625 C 344.976562 348.304688 350.734375 362.085938 349.101562 366.40625 C 348.445312 366.828125 347.917969 366.734375 347.160156 366.75 C 338.582031 366.546875 330.007812 366.691406 321.429688 366.742188 C 318.917969 372.664062 316.136719 378.46875 312.226562 383.613281 C 309.53125 387.167969 306.128906 390.660156 303.9375 394.535156 L 303.105469 394.695312 C 271.242188 398.460938 243.980469 397.261719 212.21875 393.578125 C 211.050781 393.460938 209.894531 393.238281 208.738281 393.03125 C 206.816406 387.753906 203.992188 383.027344 201.183594 378.1875 C 200.375 376.996094 199.621094 375.792969 198.902344 374.539062 C 196.738281 371.589844 194.003906 369.171875 191.589844 366.433594 C 185.621094 364.761719 175.742188 366.253906 169.136719 365.378906 C 168.667969 362.03125 169.019531 358.566406 169.042969 355.191406 C 172.085938 346.550781 176.128906 338.160156 179.855469 329.789062 C 183.09375 322.433594 186.496094 315.15625 190.054688 307.949219 C 192.335938 303.3125 194.597656 298.566406 197.402344 294.222656 C 201.414062 288.019531 208.8125 281.578125 215.957031 279.542969 C 219.589844 278.507812 223.488281 278.195312 227.195312 277.394531 C 233.015625 274.878906 239.226562 272.585938 244.734375 269.464844 C 244.957031 263.996094 244.992188 258.527344 244.835938 253.054688 C 244.539062 251.609375 244.726562 249.878906 244.734375 248.398438 C 251.855469 251.449219 259.222656 253.644531 266.820312 250.679688 C 267.734375 250.320312 268.632812 249.90625 269.523438 249.492188 C 277.253906 244.992188 282.507812 239.671875 286.121094 231.367188 Z M 286.121094 231.367188 " fill-opacity="1" fill-rule="nonzero"/><path fill="#fab0b4" d="M 307.953125 337.070312 C 309.453125 339.855469 311.277344 342.503906 312.910156 345.214844 L 322.726562 361.664062 L 321.429688 366.742188 C 318.917969 372.664062 316.136719 378.46875 312.226562 383.613281 C 309.53125 387.167969 306.128906 390.660156 303.9375 394.535156 L 303.105469 394.695312 C 301.789062 390.859375 300.953125 386.746094 300.015625 382.804688 C 297.292969 371.351562 296.191406 366.082031 296.457031 354.3125 C 302.726562 349.480469 305.53125 344.492188 307.953125 337.070312 Z M 307.953125 337.070312 " fill-opacity="1" fill-rule="nonzero"/><path fill="#f89d47" d="M 211.292969 334.851562 C 214.972656 343.570312 217.628906 352.703125 221.300781 361.449219 C 218.242188 371.296875 214.035156 383.664062 212.21875 393.578125 C 211.050781 393.460938 209.894531 393.238281 208.738281 393.03125 C 206.816406 387.753906 203.992188 383.027344 201.183594 378.1875 C 200.375 376.996094 199.621094 375.792969 198.902344 374.539062 C 196.738281 371.589844 194.003906 369.171875 191.589844 366.433594 C 194.503906 363.140625 196.648438 358.96875 198.917969 355.214844 C 203.019531 348.4375 207.042969 341.53125 211.292969 334.851562 Z M 211.292969 334.851562 " fill-opacity="1" fill-rule="nonzero"/><path fill="#fac477" d="M 198.902344 374.539062 C 199.859375 374.101562 200.742188 373.671875 201.804688 374.046875 C 202.277344 374.210938 202.578125 374.546875 202.898438 374.917969 C 203.128906 375.550781 203.242188 375.996094 202.945312 376.636719 C 202.585938 377.402344 201.890625 377.785156 201.183594 378.1875 C 200.375 376.996094 199.621094 375.792969 198.902344 374.539062 Z M 198.902344 374.539062 " fill-opacity="1" fill-rule="nonzero"/><path fill="#fac477" d="M 208.003906 355.476562 C 208.742188 355.503906 209.558594 355.492188 210.230469 355.855469 C 210.789062 356.15625 211.117188 356.636719 211.234375 357.253906 C 211.421875 358.207031 210.824219 358.972656 210.320312 359.71875 C 209.550781 359.753906 208.695312 359.78125 208.023438 359.332031 C 207.546875 359.019531 207.316406 358.625 207.195312 358.078125 C 206.976562 357.078125 207.519531 356.292969 208.003906 355.476562 Z M 208.003906 355.476562 " fill-opacity="1" fill-rule="nonzero"/><path fill="#fccdaf" d="M 286.121094 231.367188 C 287.898438 234.71875 287.753906 241.605469 288.617188 245.554688 C 289.511719 249.523438 290.519531 253.457031 291.652344 257.363281 C 292.429688 260.039062 293.441406 262.710938 293.90625 265.460938 L 293.164062 265.664062 C 293.679688 266.148438 293.683594 266.324219 293.710938 267.039062 C 293.863281 270.761719 293.152344 274.855469 292.808594 278.578125 C 290.929688 278.417969 289.105469 278.230469 287.253906 277.839844 C 284.445312 279.21875 281.929688 281.089844 279.21875 282.636719 C 275.921875 284.519531 272.054688 285.8125 268.371094 286.71875 C 253.140625 290.476562 240.09375 285.171875 227.195312 277.394531 C 233.015625 274.878906 239.226562 272.585938 244.734375 269.464844 C 244.957031 263.996094 244.992188 258.527344 244.835938 253.054688 C 244.539062 251.609375 244.726562 249.878906 244.734375 248.398438 C 251.855469 251.449219 259.222656 253.644531 266.820312 250.679688 C 267.734375 250.320312 268.632812 249.90625 269.523438 249.492188 C 277.253906 244.992188 282.507812 239.671875 286.121094 231.367188 Z M 286.121094 231.367188 " fill-opacity="1" fill-rule="nonzero"/><path fill="#e07a62" d="M 244.734375 248.398438 C 251.855469 251.449219 259.222656 253.644531 266.820312 250.679688 C 267.734375 250.320312 268.632812 249.90625 269.523438 249.492188 C 269.8125 255.613281 270.234375 261.765625 270.308594 267.890625 L 270.34375 269.96875 C 268.988281 269.46875 267.460938 269.195312 266.0625 268.785156 C 262.085938 267.617188 258.363281 266.019531 254.957031 263.632812 C 252.507812 261.917969 250.363281 259.390625 248.5625 257.03125 C 247.730469 255.945312 246.683594 254.128906 245.589844 253.328125 C 245.429688 253.210938 245.035156 253.128906 244.835938 253.054688 C 244.539062 251.609375 244.726562 249.878906 244.734375 248.398438 Z M 244.734375 248.398438 " fill-opacity="1" fill-rule="nonzero"/><path fill="#28184a" d="M 286.121094 231.367188 C 287.898438 234.71875 287.753906 241.605469 288.617188 245.554688 C 289.511719 249.523438 290.519531 253.457031 291.652344 257.363281 C 292.429688 260.039062 293.441406 262.710938 293.90625 265.460938 L 293.164062 265.664062 C 293.679688 266.148438 293.683594 266.324219 293.710938 267.039062 C 293.863281 270.761719 293.152344 274.855469 292.808594 278.578125 C 290.929688 278.417969 289.105469 278.230469 287.253906 277.839844 C 281.800781 274.863281 276.035156 272.453125 270.34375 269.96875 L 270.308594 267.890625 C 270.234375 261.765625 269.8125 255.613281 269.523438 249.492188 C 277.253906 244.992188 282.507812 239.671875 286.121094 231.367188 Z M 286.121094 231.367188 " fill-opacity="1" fill-rule="nonzero"/><path fill="#fab0b4" d="M 270.308594 267.890625 C 277.984375 267.546875 285.5625 266.71875 293.164062 265.664062 C 293.679688 266.148438 293.683594 266.324219 293.710938 267.039062 C 293.863281 270.761719 293.152344 274.855469 292.808594 278.578125 C 290.929688 278.417969 289.105469 278.230469 287.253906 277.839844 C 281.800781 274.863281 276.035156 272.453125 270.34375 269.96875 Z M 270.308594 267.890625 " fill-opacity="1" fill-rule="nonzero"/><path fill="#28184a" d="M 132.484375 163.40625 C 137.074219 154.253906 130.472656 150.96875 127.992188 143.121094 C 124.558594 132.25 136.304688 130.101562 139.003906 122.183594 C 140.953125 116.464844 138.683594 110.425781 141.65625 104.730469 C 147.183594 94.148438 156.929688 99.238281 163.847656 93.648438 C 168.253906 90.085938 169.386719 83.824219 175.375 82.042969 C 181.011719 80.367188 184.703125 83.480469 189.410156 85.964844 C 195 88.910156 199.386719 86.582031 204.925781 84.847656 C 211.378906 82.824219 217.339844 83.773438 221.277344 89.691406 C 223.410156 92.890625 224.894531 96.621094 228.007812 99.046875 C 231.515625 101.777344 236.007812 101.578125 239.808594 103.601562 C 242.15625 104.855469 243.804688 106.746094 244.960938 109.125 C 249.265625 117.980469 244.203125 123.054688 246.417969 130.277344 C 247.847656 134.945312 252.097656 138.0625 253.492188 142.753906 C 255.023438 147.910156 252.6875 152.367188 250.335938 156.804688 C 247.941406 161.320312 246.882812 164.738281 248.421875 169.746094 C 262.542969 169.453125 276.382812 170.339844 287.183594 180.730469 C 291.925781 185.292969 293.980469 189.753906 297.257812 195.304688 C 298.992188 200.195312 300.378906 205.066406 301.449219 210.144531 C 304.742188 225.78125 306.015625 242.425781 315.796875 255.722656 C 312.820312 258.601562 309.738281 260.71875 306.023438 262.546875 C 302.296875 263.824219 297.890625 265.648438 293.90625 265.460938 C 293.441406 262.710938 292.429688 260.039062 291.652344 257.363281 C 290.519531 253.457031 289.511719 249.523438 288.617188 245.554688 C 287.753906 241.605469 287.898438 234.71875 286.121094 231.367188 C 282.507812 239.671875 277.253906 244.992188 269.523438 249.492188 C 268.632812 249.90625 267.734375 250.320312 266.820312 250.679688 C 259.222656 253.644531 251.855469 251.449219 244.734375 248.398438 C 244.726562 249.878906 244.539062 251.609375 244.835938 253.054688 C 244.992188 258.527344 244.957031 263.996094 244.734375 269.464844 C 239.226562 272.585938 233.015625 274.878906 227.195312 277.394531 C 223.488281 278.195312 219.589844 278.507812 215.957031 279.542969 C 208.8125 281.578125 201.414062 288.019531 197.402344 294.222656 C 194.597656 298.566406 192.335938 303.3125 190.054688 307.949219 C 186.496094 315.15625 183.09375 322.433594 179.855469 329.789062 C 176.128906 338.160156 172.085938 346.550781 169.042969 355.191406 C 168.171875 351.507812 168.429688 346.902344 168.847656 343.160156 L 169.945312 342.816406 C 171.609375 340.375 169.808594 305.703125 170.300781 299.804688 C 170.40625 298.554688 170.796875 297.3125 171.140625 296.109375 C 168.613281 293.71875 168.003906 290.953125 166.492188 287.945312 C 160.761719 276.519531 146.589844 271.011719 135.195312 267.359375 C 133.332031 266.4375 131.152344 265.800781 129.199219 265.066406 C 123.191406 262.667969 119.644531 261.480469 116.082031 255.765625 C 114.683594 258.28125 111.378906 259.605469 108.75 260.375 C 101.144531 262.59375 91.511719 261.847656 84.546875 257.933594 C 83.882812 257.5625 83.21875 257.15625 82.65625 256.636719 C 79.046875 260.46875 74.699219 262.375 69.722656 263.804688 C 56.324219 267.710938 41.894531 271.246094 34.617188 284.488281 C 33.640625 286.265625 32.761719 288.101562 31.863281 289.921875 C 29.648438 286.625 27.921875 282.8125 26.484375 279.121094 C 19.332031 260.785156 20.265625 240.3125 35.578125 226.335938 C 42.199219 220.292969 50.058594 215.972656 54.027344 207.480469 C 59.390625 196.007812 54.835938 183.390625 60.101562 171.621094 C 63.878906 163.175781 71.054688 156.179688 79.753906 152.941406 C 90.070312 149.105469 100.175781 150.191406 110.019531 154.683594 C 111.976562 154.269531 113.941406 153.988281 115.949219 154.0625 C 123.0625 154.328125 127.902344 158.414062 132.484375 163.40625 Z M 138.683594 177.613281 C 140.601562 188.617188 139.476562 198.25 138.710938 209.222656 C 142.148438 207.917969 156.539062 200.632812 158.996094 200.820312 C 159.234375 200.839844 159.601562 201.023438 159.839844 201.101562 C 162.445312 201.3125 170.078125 197.167969 172.503906 195.75 C 172.4375 195.746094 172.371094 195.746094 172.304688 195.746094 C 166.421875 195.675781 160.28125 197.65625 155.523438 192.859375 C 154.070312 191.394531 153.097656 189.558594 152.070312 187.792969 C 148.757812 182.097656 144.785156 179.746094 138.683594 177.613281 Z M 138.683594 177.613281 " fill-opacity="1" fill-rule="nonzero"/><path fill="#fccdaf" d="M 85.921875 232.4375 C 92.699219 236.703125 99.671875 239.023438 107.71875 237.238281 C 110.144531 236.699219 112.425781 235.828125 114.695312 234.832031 C 114.765625 241.808594 114.8125 248.644531 115.992188 255.546875 L 116.082031 255.765625 C 114.683594 258.28125 111.378906 259.605469 108.75 260.375 C 101.144531 262.59375 91.511719 261.847656 84.546875 257.933594 C 83.882812 257.5625 83.21875 257.15625 82.65625 256.636719 C 85.980469 250.023438 86.015625 242.46875 86.214844 235.246094 Z M 85.921875 232.4375 " fill-opacity="1" fill-rule="nonzero"/><path fill="#e07a62" d="M 85.921875 232.4375 C 92.699219 236.703125 99.671875 239.023438 107.71875 237.238281 C 110.144531 236.699219 112.425781 235.828125 114.695312 234.832031 C 114.765625 241.808594 114.8125 248.644531 115.992188 255.546875 C 102.203125 252.015625 96.167969 244.242188 86.214844 235.246094 Z M 85.921875 232.4375 " fill-opacity="1" fill-rule="nonzero"/><path fill="#c6504b" d="M 177.863281 173.175781 C 180.984375 174.914062 183.785156 176.550781 187.371094 177.144531 C 194.132812 178.265625 199.746094 175.660156 205.109375 171.8125 C 204.3125 177.792969 205.335938 183.8125 205.945312 189.765625 C 206.226562 191.300781 206.460938 192.855469 206.796875 194.378906 C 209.847656 196.234375 213.132812 197.609375 216.269531 199.300781 C 214.308594 204.542969 213.261719 210.027344 212.191406 215.507812 C 211.738281 217.816406 211.453125 220.371094 210.695312 222.589844 C 209.019531 221.921875 204.246094 223.707031 202.351562 224.105469 C 192.996094 226.074219 181.761719 224.027344 173.84375 218.773438 C 169.324219 215.769531 160.957031 206.65625 159.839844 201.101562 C 162.445312 201.3125 170.078125 197.167969 172.503906 195.75 C 173.511719 194.964844 175.398438 194.417969 176.601562 193.867188 C 177.601562 188.140625 177.78125 182.441406 177.875 176.640625 Z M 177.863281 173.175781 " fill-opacity="1" fill-rule="nonzero"/><path fill="#ae2b62" d="M 177.863281 173.175781 C 180.984375 174.914062 183.785156 176.550781 187.371094 177.144531 C 194.132812 178.265625 199.746094 175.660156 205.109375 171.8125 C 204.3125 177.792969 205.335938 183.8125 205.945312 189.765625 C 194.035156 186.273438 187.914062 183.882812 177.875 176.640625 Z M 177.863281 173.175781 " fill-opacity="1" fill-rule="nonzero"/><path fill="#fccdaf" d="M 87.4375 193.902344 C 96.328125 187.441406 103.203125 179.585938 107.945312 169.625 C 110.746094 174.09375 113.53125 178.601562 116.667969 182.84375 C 121.0625 188.789062 126.972656 193.109375 128.929688 200.546875 C 130.207031 199.761719 131.628906 198.765625 133.210938 199.171875 C 134.367188 199.46875 135.332031 200.375 135.902344 201.398438 C 137.398438 204.070312 137.027344 207.925781 136.128906 210.726562 C 135.480469 212.742188 134.390625 214.925781 132.4375 215.921875 C 131.347656 216.480469 129.691406 216.820312 128.839844 217.6875 C 127.183594 219.375 127.011719 222.382812 125.734375 224.394531 C 122.90625 228.84375 118.589844 231.496094 114.695312 234.832031 C 112.425781 235.828125 110.144531 236.699219 107.71875 237.238281 C 99.671875 239.023438 92.699219 236.703125 85.921875 232.4375 C 80.515625 228.210938 77.558594 223.324219 75.128906 216.992188 L 72.371094 217.089844 C 69.105469 214.957031 66.699219 212.535156 65.890625 208.582031 C 65.414062 206.246094 65.707031 203.710938 67.066406 201.703125 C 67.65625 200.835938 68.476562 200.046875 69.535156 199.820312 C 70.308594 199.652344 71.339844 199.722656 72.011719 200.175781 C 72.625 200.589844 73.15625 201.390625 73.613281 201.96875 C 79.273438 198.605469 81.691406 197.367188 88.375 196.148438 C 90.277344 195.800781 94.28125 196.644531 95.707031 195.507812 C 95.078125 194.625 93.617188 194.21875 92.558594 194.054688 C 90.886719 193.796875 89.121094 193.871094 87.4375 193.902344 Z M 87.4375 193.902344 " fill-opacity="1" fill-rule="nonzero"/><path fill="#e07a62" d="M 130.601562 204.582031 C 131.28125 205.070312 131.925781 205.78125 132.246094 206.558594 C 132.902344 208.136719 132.117188 209.667969 131.457031 211.089844 C 131.117188 211.253906 131.050781 211.25 130.6875 211.234375 C 129.746094 209.894531 130.46875 206.222656 130.601562 204.582031 Z M 130.601562 204.582031 " fill-opacity="1" fill-rule="nonzero"/><path fill="#28184a" d="M 114.753906 193.933594 C 117.023438 193.765625 119.46875 193.617188 121.617188 194.527344 C 122.410156 194.863281 123.632812 195.5625 123.914062 196.441406 C 124.035156 196.832031 123.949219 196.839844 123.796875 197.1875 C 123.191406 197.289062 123.132812 197.207031 122.574219 196.929688 C 119.5 195.863281 115.574219 196.949219 112.761719 195.5 L 112.652344 195.078125 C 113.175781 194.363281 113.949219 194.207031 114.753906 193.933594 Z M 114.753906 193.933594 " fill-opacity="1" fill-rule="nonzero"/><path fill="#e07a62" d="M 72.832031 203.367188 C 72.96875 203.554688 72.941406 203.511719 73.082031 203.777344 C 73.839844 205.234375 74.496094 210.640625 74.035156 212.253906 C 73.449219 212.570312 73.289062 212.417969 72.65625 212.269531 C 72.492188 212.109375 72.332031 211.941406 72.175781 211.773438 C 71.085938 210.59375 70.273438 209.035156 70.390625 207.386719 C 70.523438 205.546875 71.523438 204.507812 72.832031 203.367188 Z M 72.832031 203.367188 " fill-opacity="1" fill-rule="nonzero"/><path fill="#28184a" d="M 116.765625 200.566406 C 117.808594 200.617188 118.753906 200.648438 119.613281 201.335938 C 120.171875 201.785156 120.5 202.375 120.546875 203.09375 C 120.628906 204.46875 119.875 205.398438 119.046875 206.378906 C 117.988281 206.386719 116.9375 206.246094 116.121094 205.511719 C 115.589844 205.035156 115.292969 204.421875 115.265625 203.707031 C 115.207031 202.324219 115.902344 201.523438 116.765625 200.566406 Z M 116.765625 200.566406 " fill-opacity="1" fill-rule="nonzero"/><path fill="#28184a" d="M 87.84375 200.597656 C 89.039062 200.527344 90.082031 200.558594 91.054688 201.351562 C 91.652344 201.839844 91.992188 202.507812 92 203.277344 C 92.015625 204.570312 91.332031 205.328125 90.507812 206.214844 C 89.46875 206.320312 88.496094 206.382812 87.617188 205.722656 C 87.046875 205.292969 86.722656 204.679688 86.640625 203.976562 C 86.472656 202.601562 87.082031 201.648438 87.84375 200.597656 Z M 87.84375 200.597656 " fill-opacity="1" fill-rule="nonzero"/><path fill="#c6504b" d="M 95.957031 220.214844 C 101.414062 221.605469 105.921875 221.773438 111.378906 220.449219 L 109.671875 222.605469 C 109.285156 222.984375 108.855469 223.320312 108.414062 223.632812 C 108.304688 223.710938 108.195312 223.785156 108.082031 223.855469 C 107.96875 223.929688 107.855469 223.996094 107.738281 224.0625 C 107.621094 224.128906 107.503906 224.191406 107.386719 224.253906 C 107.265625 224.3125 107.144531 224.371094 107.023438 224.421875 C 106.902344 224.476562 106.777344 224.527344 106.652344 224.574219 C 106.53125 224.625 106.402344 224.667969 106.277344 224.710938 C 106.148438 224.75 106.023438 224.789062 105.894531 224.824219 C 105.765625 224.859375 105.636719 224.890625 105.503906 224.917969 C 105.375 224.945312 105.242188 224.972656 105.113281 224.992188 C 104.980469 225.015625 104.847656 225.035156 104.714844 225.046875 C 104.582031 225.0625 104.449219 225.074219 104.316406 225.082031 C 104.183594 225.089844 104.050781 225.097656 103.917969 225.097656 C 103.78125 225.101562 103.648438 225.097656 103.515625 225.09375 C 103.382812 225.085938 103.25 225.078125 103.117188 225.066406 C 102.984375 225.054688 102.851562 225.039062 102.71875 225.019531 C 102.585938 225.003906 102.457031 224.980469 102.324219 224.957031 C 99.402344 224.394531 97.566406 222.585938 95.957031 220.214844 Z M 95.957031 220.214844 " fill-opacity="1" fill-rule="nonzero"/><path fill="#e07a62" d="M 102.304688 196.222656 C 102.816406 196.328125 103.109375 196.445312 103.535156 196.746094 C 104.910156 199.925781 104.527344 206.8125 104.714844 210.449219 C 105.375 210.761719 106.042969 211.074219 106.6875 211.417969 C 107.601562 211.910156 108.046875 212.445312 108.34375 213.429688 C 108.234375 214.023438 108.242188 214.269531 107.773438 214.71875 C 106.378906 216.050781 104.101562 215.90625 102.328125 215.902344 C 101.859375 215.703125 101.410156 215.445312 100.957031 215.21875 L 101.347656 215.410156 L 100.722656 214.941406 L 100.703125 214.597656 C 102.152344 213.5625 104.878906 214.949219 106.488281 213.601562 L 106.390625 213.1875 C 105.542969 212.257812 104.285156 211.769531 103.175781 211.207031 C 102.402344 206.234375 102.332031 201.242188 102.304688 196.222656 Z M 102.304688 196.222656 " fill-opacity="1" fill-rule="nonzero"/><path fill="#e07a62" d="M 175.988281 118.035156 C 184.449219 118.183594 187.148438 117.160156 194 112.3125 C 195.503906 114.425781 196.964844 116.863281 198.964844 118.542969 C 203.285156 122.167969 210.675781 121.171875 214.207031 125.453125 C 216.621094 128.382812 216.246094 132.9375 215.929688 136.464844 C 218.460938 139.679688 222.515625 141.753906 223.582031 145.921875 C 223.617188 146.058594 223.648438 146.199219 223.675781 146.335938 C 223.703125 146.476562 223.730469 146.613281 223.75 146.753906 C 223.773438 146.894531 223.789062 147.035156 223.804688 147.175781 C 223.816406 147.316406 223.828125 147.457031 223.835938 147.597656 C 223.84375 147.742188 223.847656 147.882812 223.847656 148.023438 C 223.847656 148.164062 223.84375 148.304688 223.835938 148.449219 C 223.828125 148.589844 223.820312 148.730469 223.804688 148.871094 C 223.792969 149.011719 223.773438 149.152344 223.753906 149.292969 C 223.730469 149.433594 223.707031 149.570312 223.679688 149.710938 C 223.652344 149.847656 223.621094 149.988281 223.585938 150.125 C 223.550781 150.261719 223.511719 150.398438 223.472656 150.535156 C 223.429688 150.667969 223.386719 150.804688 223.335938 150.9375 C 223.289062 151.070312 223.238281 151.203125 223.183594 151.332031 C 223.128906 151.460938 223.070312 151.589844 223.007812 151.71875 C 222.949219 151.847656 222.882812 151.972656 222.816406 152.097656 C 222.75 152.222656 222.679688 152.34375 222.605469 152.464844 C 220.96875 155.132812 218.617188 156.074219 215.679688 156.75 C 213.082031 162.574219 209.761719 167.425781 205.109375 171.8125 C 199.746094 175.660156 194.132812 178.265625 187.371094 177.144531 C 183.785156 176.550781 180.984375 174.914062 177.863281 173.175781 C 172.523438 168.304688 169.019531 163.207031 165.945312 156.695312 C 164.410156 156.664062 163.128906 156.566406 161.703125 155.941406 C 159.703125 155.0625 158.09375 153.589844 157.324219 151.503906 C 157.277344 151.375 157.234375 151.246094 157.191406 151.117188 C 157.152344 150.984375 157.113281 150.851562 157.078125 150.71875 C 157.046875 150.589844 157.015625 150.453125 156.988281 150.320312 C 156.960938 150.1875 156.9375 150.050781 156.914062 149.917969 C 156.894531 149.78125 156.878906 149.644531 156.863281 149.507812 C 156.851562 149.371094 156.839844 149.238281 156.835938 149.101562 C 156.828125 148.964844 156.824219 148.824219 156.828125 148.6875 C 156.828125 148.550781 156.832031 148.414062 156.839844 148.277344 C 156.847656 148.140625 156.855469 148.007812 156.871094 147.871094 C 156.886719 147.734375 156.902344 147.597656 156.925781 147.460938 C 156.945312 147.328125 156.972656 147.191406 157 147.058594 C 157.027344 146.925781 157.058594 146.792969 157.09375 146.660156 C 157.128906 146.527344 157.167969 146.394531 157.210938 146.265625 C 157.25 146.136719 157.296875 146.007812 157.34375 145.878906 C 157.394531 145.75 157.445312 145.625 157.5 145.496094 C 157.554688 145.371094 157.613281 145.25 157.675781 145.125 C 159.234375 142.058594 162.117188 141.085938 165.183594 140.136719 C 165.046875 135.851562 164.429688 130.261719 167.558594 126.828125 C 168.621094 125.660156 170.03125 124.765625 171.289062 123.820312 C 173.476562 122.171875 174.824219 120.5 175.988281 118.035156 Z M 175.988281 118.035156 " fill-opacity="1" fill-rule="nonzero"/><path fill="#ae2b62" d="M 184.582031 159.429688 C 187.25 159.992188 190.042969 160.515625 192.777344 160.265625 C 194.179688 160.140625 196.691406 159.234375 197.910156 159.808594 L 197.984375 160.476562 C 197.722656 160.585938 197.457031 160.691406 197.191406 160.789062 C 194.3125 161.835938 188.5625 162.6875 185.753906 161.117188 C 184.949219 160.667969 184.871094 160.25 184.582031 159.429688 Z M 184.582031 159.429688 " fill-opacity="1" fill-rule="nonzero"/><path fill="#28184a" d="M 202.15625 133.328125 C 204.628906 133.320312 207.582031 133.339844 209.691406 134.824219 C 210.324219 135.269531 210.816406 135.78125 210.960938 136.554688 L 210.445312 136.992188 C 208.835938 136.566406 207.328125 136.390625 205.679688 136.214844 C 204.324219 136.070312 202.375 136.023438 201.457031 134.898438 C 201.417969 134.085938 201.671875 133.957031 202.15625 133.328125 Z M 202.15625 133.328125 " fill-opacity="1" fill-rule="nonzero"/><path fill="#28184a" d="M 205.773438 140.777344 C 206.804688 140.816406 207.78125 141.195312 208.472656 141.992188 C 209.007812 142.609375 209.226562 143.414062 209.125 144.21875 C 208.953125 145.53125 208.234375 146.144531 207.207031 146.875 C 207.066406 146.875 206.925781 146.875 206.785156 146.871094 C 205.769531 146.835938 204.730469 146.664062 204.039062 145.839844 C 203.652344 145.382812 203.503906 144.816406 203.550781 144.226562 C 203.683594 142.664062 204.6875 141.761719 205.773438 140.777344 Z M 205.773438 140.777344 " fill-opacity="1" fill-rule="nonzero"/><path fill="#28184a" d="M 176.59375 133.628906 C 177.222656 133.59375 177.859375 133.558594 178.488281 133.585938 C 179.917969 133.648438 182.039062 134.09375 182.984375 135.265625 C 183.261719 135.609375 183.171875 135.644531 183.140625 136.054688 C 181.789062 136.96875 179.898438 136.382812 178.40625 136.125 C 176.28125 136.140625 174.050781 137.242188 171.957031 136.894531 C 171.695312 136.847656 171.683594 136.699219 171.539062 136.488281 C 171.589844 136.386719 171.636719 136.28125 171.695312 136.183594 C 172.605469 134.535156 174.921875 134.015625 176.59375 133.628906 Z M 176.59375 133.628906 " fill-opacity="1" fill-rule="nonzero"/><path fill="#28184a" d="M 176.390625 140.523438 C 177.597656 140.46875 178.730469 140.582031 179.675781 141.414062 C 179.742188 141.46875 179.804688 141.53125 179.867188 141.59375 C 179.925781 141.660156 179.980469 141.726562 180.035156 141.796875 C 180.085938 141.863281 180.136719 141.9375 180.183594 142.011719 C 180.226562 142.085938 180.269531 142.164062 180.308594 142.242188 C 180.347656 142.320312 180.378906 142.402344 180.410156 142.484375 C 180.441406 142.566406 180.464844 142.648438 180.488281 142.734375 C 180.507812 142.820312 180.527344 142.902344 180.539062 142.992188 C 180.550781 143.078125 180.558594 143.164062 180.5625 143.25 C 180.644531 144.722656 179.851562 145.648438 178.921875 146.648438 C 177.757812 146.804688 176.726562 146.914062 175.75 146.144531 C 175.109375 145.640625 174.785156 144.871094 174.753906 144.074219 C 174.691406 142.488281 175.351562 141.589844 176.390625 140.523438 Z M 176.390625 140.523438 " fill-opacity="1" fill-rule="nonzero"/><path fill="#ae2b62" d="M 191.058594 138.582031 C 191.359375 138.722656 191.605469 138.894531 191.832031 139.132812 C 194.089844 141.5 189.566406 148.027344 189.667969 150.976562 C 189.695312 151.695312 189.910156 151.878906 190.417969 152.351562 C 192.75 152.507812 194.046875 149.753906 196.011719 148.863281 C 196.59375 148.597656 196.859375 148.863281 197.394531 149.101562 C 196.933594 149.933594 196.359375 150.71875 195.652344 151.363281 C 194.46875 152.449219 191.601562 153.84375 189.957031 153.65625 C 189.476562 153.601562 189.03125 153.429688 188.726562 153.042969 C 187.09375 150.984375 190.027344 145.714844 190.582031 143.445312 C 190.949219 141.9375 190.910156 140.144531 191.058594 138.582031 Z M 191.058594 138.582031 " fill-opacity="1" fill-rule="nonzero"/><path fill="#f89d47" d="M 138.710938 209.222656 C 142.148438 207.917969 156.539062 200.632812 158.996094 200.820312 C 159.234375 200.839844 159.601562 201.023438 159.839844 201.101562 C 160.957031 206.65625 169.324219 215.769531 173.84375 218.773438 C 181.761719 224.027344 192.996094 226.074219 202.351562 224.105469 C 204.246094 223.707031 209.019531 221.921875 210.695312 222.589844 C 207.667969 234.339844 204.550781 246.273438 197.652344 256.4375 C 204.773438 259.621094 211.917969 262.496094 219.324219 264.949219 C 227.683594 267.894531 236.21875 267.609375 244.734375 269.464844 C 239.226562 272.585938 233.015625 274.878906 227.195312 277.394531 C 223.488281 278.195312 219.589844 278.507812 215.957031 279.542969 C 208.8125 281.578125 201.414062 288.019531 197.402344 294.222656 C 194.597656 298.566406 192.335938 303.3125 190.054688 307.949219 C 186.496094 315.15625 183.09375 322.433594 179.855469 329.789062 C 176.128906 338.160156 172.085938 346.550781 169.042969 355.191406 C 168.171875 351.507812 168.429688 346.902344 168.847656 343.160156 L 169.945312 342.816406 C 171.609375 340.375 169.808594 305.703125 170.300781 299.804688 C 170.40625 298.554688 170.796875 297.3125 171.140625 296.109375 C 168.613281 293.71875 168.003906 290.953125 166.492188 287.945312 C 160.761719 276.519531 146.589844 271.011719 135.195312 267.359375 C 137.90625 264.558594 139.867188 261 141.355469 257.417969 C 148.664062 239.777344 137.277344 226.453125 138.710938 209.222656 Z M 138.710938 209.222656 " fill-opacity="1" fill-rule="nonzero"/><path fill="#fac477" d="M 165.289062 221.976562 C 165.914062 222.015625 166.65625 222.09375 167.183594 222.46875 C 167.644531 222.792969 167.886719 223.175781 167.960938 223.734375 C 168.089844 224.695312 167.398438 225.472656 166.835938 226.164062 C 166.152344 226.179688 165.175781 226.140625 164.644531 225.644531 C 164.28125 225.308594 164.144531 224.917969 164.117188 224.429688 C 164.0625 223.425781 164.6875 222.703125 165.289062 221.976562 Z M 165.289062 221.976562 " fill-opacity="1" fill-rule="nonzero"/><path fill="#fac477" d="M 195.984375 232.089844 C 196.746094 232.1875 197.671875 232.253906 198.253906 232.820312 C 198.632812 233.1875 198.789062 233.566406 198.796875 234.089844 C 198.816406 235.09375 198.046875 235.742188 197.390625 236.390625 C 196.667969 236.320312 195.925781 236.214844 195.375 235.6875 C 194.871094 235.210938 194.714844 234.675781 194.742188 234 C 194.773438 233.1875 195.449219 232.621094 195.984375 232.089844 Z M 195.984375 232.089844 " fill-opacity="1" fill-rule="nonzero"/><path fill="#fac477" d="M 190.121094 256.886719 C 190.90625 257.03125 191.84375 257.164062 192.414062 257.789062 C 192.796875 258.210938 192.9375 258.632812 192.925781 259.195312 C 192.910156 260.15625 192.242188 260.703125 191.589844 261.324219 C 190.800781 261.339844 190.335938 261.257812 189.640625 260.882812 C 189.445312 260.628906 189.160156 260.363281 189.105469 260.046875 C 188.867188 258.679688 189.375 257.953125 190.121094 256.886719 Z M 190.121094 256.886719 " fill-opacity="1" fill-rule="nonzero"/><path fill="#fac477" d="M 145.925781 262.390625 C 146.664062 262.453125 147.507812 262.503906 148.070312 263.046875 C 148.457031 263.417969 148.617188 263.832031 148.636719 264.363281 C 148.671875 265.390625 147.988281 266.066406 147.335938 266.761719 C 146.566406 266.628906 145.703125 266.46875 145.109375 265.914062 C 144.679688 265.511719 144.546875 265.113281 144.539062 264.546875 C 144.527344 263.597656 145.296875 263 145.925781 262.390625 Z M 145.925781 262.390625 " fill-opacity="1" fill-rule="nonzero"/><path fill="#fac477" d="M 153.019531 205.730469 C 153.78125 205.734375 154.558594 205.707031 155.242188 206.109375 C 155.691406 206.375 156.003906 206.796875 156.09375 207.304688 C 156.296875 208.4375 155.691406 209.167969 155.074219 210.035156 C 154.382812 209.964844 153.753906 209.867188 153.144531 209.507812 C 152.550781 209.160156 152.230469 208.65625 152.121094 207.996094 C 151.96875 207.082031 152.507812 206.425781 153.019531 205.730469 Z M 153.019531 205.730469 " fill-opacity="1" fill-rule="nonzero"/><path fill="#fac477" d="M 176.339844 243.207031 C 177.050781 243.246094 177.863281 243.289062 178.46875 243.707031 C 178.949219 244.039062 179.1875 244.390625 179.304688 244.960938 C 179.5 245.902344 178.863281 246.734375 178.390625 247.492188 C 177.582031 247.476562 176.660156 247.492188 175.988281 246.960938 C 175.542969 246.605469 175.351562 246.230469 175.28125 245.664062 C 175.160156 244.691406 175.800781 243.941406 176.339844 243.207031 Z M 176.339844 243.207031 " fill-opacity="1" fill-rule="nonzero"/><path fill="#fac477" d="M 177.648438 318.507812 C 178.441406 318.582031 179.308594 318.671875 179.976562 319.15625 C 180.492188 319.53125 180.777344 320.046875 180.820312 320.683594 C 180.882812 321.554688 180.222656 322.320312 179.730469 322.976562 C 179.042969 322.984375 178.390625 322.984375 177.761719 322.667969 C 177.28125 322.421875 176.925781 321.996094 176.792969 321.476562 C 176.484375 320.289062 177.058594 319.472656 177.648438 318.507812 Z M 177.648438 318.507812 " fill-opacity="1" fill-rule="nonzero"/><path fill="#fac477" d="M 164.753906 260.023438 C 165.527344 260.070312 166.25 260.171875 166.9375 260.558594 C 167.425781 260.835938 167.800781 261.257812 167.933594 261.8125 C 168.175781 262.820312 167.648438 263.597656 167.164062 264.425781 C 166.359375 264.503906 165.578125 264.535156 164.851562 264.117188 C 164.386719 263.847656 164.113281 263.464844 163.988281 262.941406 C 163.71875 261.816406 164.222656 260.964844 164.753906 260.023438 Z M 164.753906 260.023438 " fill-opacity="1" fill-rule="nonzero"/><path fill="#fac477" d="M 145.90625 222.746094 C 146.476562 222.878906 147.011719 223.03125 147.519531 223.324219 C 148.117188 223.671875 148.605469 224.152344 148.726562 224.855469 C 148.914062 225.910156 148.273438 226.59375 147.667969 227.363281 C 146.84375 227.367188 145.917969 227.316406 145.234375 226.800781 C 144.929688 226.574219 144.609375 226.105469 144.574219 225.726562 C 144.453125 224.386719 145.097656 223.703125 145.90625 222.746094 Z M 145.90625 222.746094 " fill-opacity="1" fill-rule="nonzero"/><path fill="#fac477" d="M 180.152344 276.34375 C 180.78125 276.386719 181.535156 276.605469 182.03125 276.996094 C 182.464844 277.339844 182.714844 277.800781 182.738281 278.355469 C 182.796875 279.570312 182.023438 280.378906 181.269531 281.21875 C 180.484375 280.960938 179.550781 280.726562 178.964844 280.109375 C 178.546875 279.667969 178.382812 279.128906 178.457031 278.53125 C 178.578125 277.542969 179.4375 276.929688 180.152344 276.34375 Z M 180.152344 276.34375 " fill-opacity="1" fill-rule="nonzero"/><path fill="#fac477" d="M 156.027344 241.6875 C 156.78125 241.753906 157.566406 241.839844 158.199219 242.292969 C 158.636719 242.605469 158.894531 243.097656 158.933594 243.625 C 159.019531 244.835938 158.285156 245.566406 157.539062 246.40625 C 156.511719 246.433594 155.847656 246.273438 155.03125 245.644531 C 154.75 245.230469 154.546875 244.875 154.554688 244.355469 C 154.578125 243.164062 155.257812 242.488281 156.027344 241.6875 Z M 156.027344 241.6875 " fill-opacity="1" fill-rule="nonzero"/><path fill="#fac477" d="M 224.765625 268.375 C 225.746094 268.359375 226.785156 268.394531 227.578125 269.046875 C 227.972656 269.371094 228.214844 269.828125 228.234375 270.339844 C 228.277344 271.398438 227.59375 272.167969 226.964844 272.929688 C 226.253906 273.09375 225.285156 272.996094 224.65625 272.617188 C 224.152344 272.316406 223.875 271.839844 223.773438 271.269531 C 223.566406 270.070312 224.125 269.308594 224.765625 268.375 Z M 224.765625 268.375 " fill-opacity="1" fill-rule="nonzero"/><path fill="#fac477" d="M 190.742188 293.445312 C 191.640625 293.453125 192.683594 293.5 193.417969 294.09375 C 193.816406 294.414062 194.039062 294.914062 194.050781 295.410156 C 194.082031 296.574219 193.273438 297.371094 192.550781 298.171875 C 191.746094 298.199219 190.957031 298.175781 190.261719 297.71875 C 189.765625 297.394531 189.453125 296.984375 189.378906 296.390625 C 189.230469 295.125 189.976562 294.328125 190.742188 293.445312 Z M 190.742188 293.445312 " fill-opacity="1" fill-rule="nonzero"/><path fill="#fac477" d="M 202.289062 274.03125 C 203.253906 274.035156 204.230469 274.097656 205.035156 274.6875 C 205.476562 275.011719 205.804688 275.507812 205.855469 276.058594 C 205.960938 277.175781 205.238281 277.96875 204.566406 278.75 C 203.78125 278.878906 202.859375 278.90625 202.15625 278.480469 C 201.679688 278.195312 201.398438 277.777344 201.296875 277.234375 C 201.054688 275.957031 201.640625 275.054688 202.289062 274.03125 Z M 202.289062 274.03125 " fill-opacity="1" fill-rule="nonzero"/><path fill="#282783" d="M 248.421875 169.746094 C 262.542969 169.453125 276.382812 170.339844 287.183594 180.730469 C 291.925781 185.292969 293.980469 189.753906 297.257812 195.304688 C 298.992188 200.195312 300.378906 205.066406 301.449219 210.144531 C 304.742188 225.78125 306.015625 242.425781 315.796875 255.722656 C 312.820312 258.601562 309.738281 260.71875 306.023438 262.546875 C 302.296875 263.824219 297.890625 265.648438 293.90625 265.460938 C 293.441406 262.710938 292.429688 260.039062 291.652344 257.363281 C 290.519531 253.457031 289.511719 249.523438 288.617188 245.554688 C 287.753906 241.605469 287.898438 234.71875 286.121094 231.367188 C 282.507812 239.671875 277.253906 244.992188 269.523438 249.492188 C 268.632812 249.90625 267.734375 250.320312 266.820312 250.679688 C 259.222656 253.644531 251.855469 251.449219 244.734375 248.398438 C 244.726562 249.878906 244.539062 251.609375 244.835938 253.054688 C 244.992188 258.527344 244.957031 263.996094 244.734375 269.464844 C 236.21875 267.609375 227.683594 267.894531 219.324219 264.949219 C 211.917969 262.496094 204.773438 259.621094 197.652344 256.4375 C 204.550781 246.273438 207.667969 234.339844 210.695312 222.589844 C 211.453125 220.371094 211.738281 217.816406 212.191406 215.507812 C 213.261719 210.027344 214.308594 204.542969 216.269531 199.300781 C 217.707031 195.265625 219.191406 191.300781 221.507812 187.671875 C 227.636719 178.054688 237.460938 172.199219 248.421875 169.746094 Z M 248.421875 169.746094 " fill-opacity="1" fill-rule="nonzero"/><path fill="#28184a" d="M 227.699219 228.050781 C 227.742188 228.101562 227.78125 228.15625 227.820312 228.210938 C 229.070312 229.96875 229.453125 232.34375 230.457031 234.265625 C 233.65625 240.398438 238.933594 244.855469 244.734375 248.398438 C 244.726562 249.878906 244.539062 251.609375 244.835938 253.054688 C 244.992188 258.527344 244.957031 263.996094 244.734375 269.464844 C 236.21875 267.609375 227.683594 267.894531 219.324219 264.949219 C 223.34375 257.523438 225.023438 249.59375 225.867188 241.246094 C 226.253906 237.402344 225.976562 231.53125 227.699219 228.050781 Z M 227.699219 228.050781 " fill-opacity="1" fill-rule="nonzero"/><path fill="#fccdaf" d="M 227.09375 212.582031 C 230.558594 205.804688 235.289062 201.449219 242.59375 199.054688 C 244.171875 198.550781 245.765625 198.125 247.382812 197.78125 C 249 197.4375 250.632812 197.171875 252.273438 196.992188 C 258.203125 196.347656 263.667969 197.203125 266.816406 191.082031 C 268.042969 188.703125 268.746094 186.058594 269.8125 183.609375 C 269.695312 187.359375 268.453125 194.195312 271.121094 197.140625 C 273.847656 200.148438 278.71875 200.867188 281.949219 203.332031 C 284.957031 205.625 286.574219 208.84375 289.183594 211.441406 C 291.722656 213.96875 294.253906 211.871094 294.175781 217.925781 C 294.140625 220.644531 293.355469 224.496094 291.261719 226.417969 C 290.113281 227.472656 288.503906 227.785156 287.152344 228.476562 C 286.761719 229.425781 286.332031 230.355469 286.121094 231.367188 C 282.507812 239.671875 277.253906 244.992188 269.523438 249.492188 C 268.632812 249.90625 267.734375 250.320312 266.820312 250.679688 C 259.222656 253.644531 251.855469 251.449219 244.734375 248.398438 C 238.933594 244.855469 233.65625 240.398438 230.457031 234.265625 C 229.453125 232.34375 229.070312 229.96875 227.820312 228.210938 C 227.78125 228.15625 227.742188 228.101562 227.699219 228.050781 C 225.699219 227.789062 224.191406 226.988281 222.921875 225.382812 C 220.816406 222.714844 220.1875 218.472656 220.679688 215.1875 C 220.886719 213.789062 221.390625 212.25 222.570312 211.378906 C 223.199219 210.910156 223.976562 210.746094 224.742188 210.929688 C 225.628906 211.144531 226.453125 211.960938 227.09375 212.582031 Z M 227.09375 212.582031 " fill-opacity="1" fill-rule="nonzero"/><path fill="#01001c" d="M 271.175781 214.003906 C 272.292969 214.011719 273.347656 214.097656 274.273438 214.796875 C 274.804688 215.195312 275.164062 215.820312 275.199219 216.492188 C 275.273438 217.75 274.488281 218.503906 273.683594 219.328125 C 272.609375 219.433594 271.480469 219.398438 270.605469 218.671875 C 270.050781 218.210938 269.78125 217.578125 269.757812 216.863281 C 269.71875 215.59375 270.378906 214.875 271.175781 214.003906 Z M 271.175781 214.003906 " fill-opacity="1" fill-rule="nonzero"/><path fill="#01001c" d="M 241.449219 213.789062 C 242.511719 213.8125 243.550781 213.898438 244.390625 214.632812 C 244.90625 215.082031 245.164062 215.703125 245.144531 216.382812 C 245.105469 217.746094 244.234375 218.503906 243.296875 219.34375 C 242.175781 219.21875 241.003906 218.957031 240.226562 218.074219 C 239.773438 217.558594 239.601562 216.96875 239.679688 216.289062 C 239.820312 215.121094 240.617188 214.5 241.449219 213.789062 Z M 241.449219 213.789062 " fill-opacity="1" fill-rule="nonzero"/><path fill="#f16f89" d="M 256.527344 214.875 C 256.980469 214.996094 257.390625 215.253906 257.71875 215.585938 C 260.941406 218.832031 255.804688 223.328125 255.863281 226.691406 C 255.890625 228.429688 258.414062 228.046875 259.511719 229.058594 C 259.460938 229.082031 259.414062 229.109375 259.367188 229.132812 C 258.332031 229.605469 256.648438 229.757812 255.570312 229.382812 C 252.980469 227.03125 256.519531 222.378906 257.011719 219.648438 C 257.269531 218.207031 256.765625 216.328125 256.527344 214.875 Z M 256.527344 214.875 " fill-opacity="1" fill-rule="nonzero"/><path fill="#28184a" d="M 270.300781 205.316406 C 271.527344 205.265625 272.828125 205.15625 274.046875 205.273438 C 277.40625 205.589844 279.246094 207.523438 281.316406 209.972656 L 277.441406 208.730469 C 276.457031 208.542969 275.460938 208.433594 274.457031 208.398438 C 273.453125 208.363281 272.453125 208.40625 271.457031 208.519531 C 270.101562 208.675781 268.371094 209.191406 267.039062 209.003906 C 266.65625 208.5 266.707031 208.46875 266.738281 207.824219 C 267.695312 206.441406 268.789062 205.894531 270.300781 205.316406 Z M 270.300781 205.316406 " fill-opacity="1" fill-rule="nonzero"/><path fill="#28184a" d="M 240.65625 204.789062 C 242.515625 204.585938 245.34375 204.292969 246.980469 205.277344 C 247.792969 205.761719 248.363281 206.332031 248.578125 207.261719 L 248.195312 207.832031 C 246.3125 208.59375 243.15625 207.957031 241.136719 207.878906 C 238.652344 208.1875 236.269531 208.894531 233.875 209.597656 C 235.835938 206.925781 237.527344 205.867188 240.65625 204.789062 Z M 240.65625 204.789062 " fill-opacity="1" fill-rule="nonzero"/><path fill="#f16f89" d="M 257.941406 233.566406 C 259.25 233.566406 260.808594 233.753906 261.964844 234.386719 C 262.769531 234.828125 263.472656 235.5625 263.652344 236.484375 C 263.800781 237.230469 263.5625 237.945312 263.125 238.546875 C 262.074219 239.980469 260.238281 240.28125 258.609375 240.597656 C 257.074219 240.5 255.417969 240.207031 254.121094 239.332031 C 253.339844 238.804688 252.578125 238.035156 252.421875 237.066406 C 252.332031 236.492188 252.496094 235.902344 252.84375 235.433594 C 253.992188 233.890625 256.183594 233.746094 257.941406 233.566406 Z M 257.941406 233.566406 " fill-opacity="1" fill-rule="nonzero"/></svg>