<svg xmlns="http://www.w3.org/2000/svg" xmlns:xlink="http://www.w3.org/1999/xlink" width="614" zoomAndPan="magnify" viewBox="0 0 460.5 473.999983" height="632" preserveAspectRatio="xMidYMid meet" version="1.0"><path fill="#a3e635" d="M 227.269531 62.15625 C 258.15625 55.808594 287.363281 0.601562 311.539062 20.875 C 341.886719 46.347656 300.289062 103.445312 318.425781 138.699219 C 329.078125 159.378906 364.144531 148.386719 383.683594 160.855469 C 407.371094 175.976562 454.171875 192.566406 443.976562 218.804688 C 429.917969 255.140625 365.792969 241.421875 340.921875 271.363281 C 327.78125 287.167969 350.027344 311.304688 350.019531 331.875 C 350.019531 362.652344 356.460938 396.40625 340.863281 422.875 C 326.519531 447.226562 297.71875 472.722656 269.941406 467.828125 C 236.613281 461.949219 220.984375 422.160156 197.664062 397.625 C 183.449219 382.644531 178.195312 356.265625 158.441406 350.359375 C 129.359375 341.664062 96.886719 370.117188 68.601562 359.046875 C 44.558594 349.625 32.992188 321.035156 22.824219 297.246094 C 12.28125 272.554688 8.507812 245.492188 8.589844 218.628906 C 8.679688 190.789062 5.429688 158.386719 23.300781 137.148438 C 42.34375 114.523438 79.890625 120.191406 104.800781 104.308594 C 125.242188 91.28125 132.507812 60.804688 155.34375 52.921875 C 178.425781 44.988281 203.394531 67.050781 227.269531 62.15625 Z M 227.269531 62.15625 " fill-opacity="1" fill-rule="evenodd"/><path fill="#762912" d="M 443.09375 218.546875 C 455.324219 204.132812 459.253906 181.542969 451.765625 163.757812 C 444.277344 145.945312 453.042969 99.484375 442.300781 81.246094 C 431.554688 63.007812 376.992188 45.972656 350.347656 46.695312 C 328.625 47.503906 306.8125 54.410156 293.90625 74.648438 C 280.996094 94.910156 277.363281 141.761719 265.164062 163.222656 C 252.964844 184.679688 261.925781 207.542969 278.542969 216.175781 C 282.144531 211.621094 284.816406 199.785156 284.816406 199.785156 C 284.816406 199.785156 288.6875 214.316406 306.296875 223.339844 C 323.929688 232.347656 399.726562 240.222656 416.246094 224.796875 C 418.332031 233.429688 412.460938 242.40625 412.460938 242.40625 C 412.460938 242.40625 430.886719 232.964844 443.09375 218.546875 Z M 443.09375 218.546875 " fill-opacity="1" fill-rule="nonzero"/><path fill="#ffc1a0" d="M 311.460938 257.816406 L 281.84375 246.492188 C 281.84375 246.492188 271.1875 263.570312 269.566406 268.546875 C 267.945312 273.519531 272.410156 312.507812 272.410156 312.507812 C 272.410156 312.507812 276.988281 330.769531 281.058594 333.082031 C 285.132812 335.398438 298.992188 332.1875 302.996094 328.820312 C 307 325.453125 304.4375 320.257812 304.4375 320.257812 C 304.4375 320.257812 307.125 320.773438 307.847656 316.492188 C 308.566406 312.210938 295.195312 299.28125 295.195312 299.28125 L 297.042969 271.488281 Z M 311.460938 257.816406 " fill-opacity="1" fill-rule="nonzero"/><path fill="#ffc1a0" d="M 399.96875 329.34375 C 404.539062 331.886719 418.761719 332.394531 422.316406 329.34375 C 425.871094 326.296875 426.886719 307.496094 426.886719 307.496094 C 426.886719 307.496094 423.839844 268.371094 421.300781 263.800781 C 418.761719 259.226562 405.050781 244.492188 405.050781 244.492188 L 378.132812 261.257812 L 394.890625 271.929688 L 402 298.859375 C 402 298.859375 391.335938 314.101562 392.859375 318.167969 C 394.382812 322.230469 396.921875 321.214844 396.921875 321.214844 C 396.921875 321.214844 395.398438 326.804688 399.96875 329.34375 Z M 399.96875 329.34375 " fill-opacity="1" fill-rule="nonzero"/><path fill="#80b3ff" d="M 334.851562 462.164062 C 338.128906 457.863281 331.886719 438.460938 331.886719 438.460938 L 307.988281 438.710938 C 307.988281 438.710938 272.519531 455.21875 271.988281 460.667969 C 271.453125 466.113281 331.570312 466.46875 334.851562 462.164062 Z M 334.851562 462.164062 " fill-opacity="1" fill-rule="nonzero"/><path fill="#f9427a" d="M 304.894531 439.605469 C 305.667969 441.792969 317.425781 446.535156 324.976562 445.320312 C 332.527344 444.105469 336.066406 443.523438 335.167969 439.296875 C 334.269531 435.074219 334.773438 431.804688 334.324219 428.097656 C 333.875 424.390625 332.832031 424.292969 327.90625 423.160156 C 322.980469 422.027344 315.195312 420.730469 307.769531 422.640625 C 307.769531 422.640625 304.554688 423.578125 304.101562 425.457031 C 303.652344 427.335938 305.378906 429.988281 305.542969 432.09375 C 305.703125 434.199219 304.121094 437.421875 304.894531 439.605469 Z M 304.894531 439.605469 " fill-opacity="1" fill-rule="nonzero"/><path fill="#ffc1a0" d="M 331.769531 427.375 C 333.398438 404.925781 336.664062 375.941406 336.664062 375.941406 L 307.695312 371.859375 L 308.917969 426.152344 C 308.917969 426.152344 322.792969 431.867188 331.769531 427.375 Z M 331.769531 427.375 " fill-opacity="1" fill-rule="nonzero"/><path fill="#2a7fff" d="M 304.664062 449.734375 C 305.28125 446.769531 300.992188 441.777344 300.992188 441.777344 C 296.339844 442.085938 288.234375 447.914062 288.234375 447.914062 C 288.234375 447.914062 290.246094 453.675781 292.175781 454.84375 C 294.109375 456.011719 304.050781 452.695312 304.664062 449.734375 Z M 304.664062 449.734375 " fill-opacity="1" fill-rule="nonzero"/><path fill="#2a7fff" d="M 334.851562 462.167969 C 335.457031 461.371094 335.738281 460.054688 335.792969 458.445312 C 327.546875 462.800781 308.183594 462.964844 293.664062 462.238281 C 282.074219 461.660156 275.527344 459.988281 272.804688 459.117188 C 272.328125 459.695312 272.03125 460.21875 271.988281 460.667969 C 271.453125 466.117188 331.570312 466.46875 334.851562 462.167969 Z M 334.851562 462.167969 " fill-opacity="1" fill-rule="nonzero"/><path fill="#80b3ff" d="M 388.492188 468.632812 C 391.769531 464.328125 385.527344 444.925781 385.527344 444.925781 L 361.628906 445.179688 C 361.628906 445.179688 326.164062 461.683594 325.628906 467.132812 C 325.09375 472.582031 385.210938 472.9375 388.492188 468.632812 Z M 388.492188 468.632812 " fill-opacity="1" fill-rule="nonzero"/><path fill="#f9427a" d="M 356.378906 446.074219 C 357.152344 448.257812 368.910156 453 376.460938 451.789062 C 384.011719 450.574219 387.554688 449.988281 386.65625 445.765625 C 385.757812 441.539062 386.261719 438.269531 385.808594 434.5625 C 385.359375 430.855469 384.316406 430.757812 379.390625 429.625 C 374.464844 428.492188 366.679688 427.199219 359.257812 429.109375 C 359.257812 429.109375 356.039062 430.046875 355.589844 431.925781 C 355.140625 433.804688 356.867188 436.457031 357.027344 438.5625 C 357.191406 440.667969 355.609375 443.886719 356.378906 446.074219 Z M 356.378906 446.074219 " fill-opacity="1" fill-rule="nonzero"/><path fill="#ffc1a0" d="M 383.253906 433.84375 C 378.78125 411.390625 376.65625 377.378906 376.65625 377.378906 L 344.097656 373.296875 L 360.40625 432.617188 C 360.40625 432.617188 374.277344 438.332031 383.253906 433.84375 Z M 383.253906 433.84375 " fill-opacity="1" fill-rule="nonzero"/><path fill="#f9427a" d="M 403.003906 370.648438 C 400.4375 359.394531 387.253906 309.03125 387.253906 309.03125 L 300.199219 310.40625 C 300.199219 310.40625 297.410156 352.976562 298.425781 379.511719 C 332.089844 395.257812 370.4375 386.1875 403.003906 370.648438 Z M 403.003906 370.648438 " fill-opacity="1" fill-rule="nonzero"/><path fill="#80b3ff" d="M 411.914062 250.285156 C 399.429688 233.460938 386.832031 219.792969 366.488281 215.734375 C 358.164062 214.964844 335.378906 211.003906 317.074219 215.988281 C 298.769531 220.972656 285.644531 233.425781 278.257812 249.890625 C 281.832031 260.007812 301.585938 265.046875 301.585938 265.046875 C 301.585938 265.046875 297 283.355469 293.3125 311.300781 C 328.765625 332.304688 391.328125 314.925781 391.328125 314.925781 C 391.328125 314.925781 391.242188 296.324219 385.644531 265.183594 C 397.011719 266.765625 411.914062 250.285156 411.914062 250.285156 Z M 411.914062 250.285156 " fill-opacity="1" fill-rule="nonzero"/><path fill="#2a7fff" d="M 358.308594 456.199219 C 358.925781 453.234375 354.632812 448.246094 354.632812 448.246094 C 349.980469 448.554688 341.875 454.378906 341.875 454.378906 C 341.875 454.378906 343.886719 460.144531 345.816406 461.308594 C 347.75 462.476562 357.691406 459.164062 358.308594 456.199219 Z M 358.308594 456.199219 " fill-opacity="1" fill-rule="nonzero"/><path fill="#2a7fff" d="M 388.492188 468.632812 C 389.097656 467.835938 389.378906 466.523438 389.433594 464.914062 C 381.191406 469.269531 361.824219 469.429688 347.304688 468.707031 C 335.71875 468.128906 329.167969 466.453125 326.445312 465.582031 C 325.972656 466.164062 325.671875 466.6875 325.628906 467.132812 C 325.097656 472.582031 385.210938 472.9375 388.492188 468.632812 Z M 388.492188 468.632812 " fill-opacity="1" fill-rule="nonzero"/><path fill="#2a7fff" d="M 365.109375 216.480469 C 365.109375 210.855469 355.78125 206.296875 344.277344 206.296875 C 332.773438 206.296875 323.445312 210.855469 323.445312 216.480469 C 323.445312 222.101562 332.773438 226.664062 344.277344 226.664062 C 355.78125 226.664062 365.109375 222.101562 365.109375 216.480469 Z M 365.109375 216.480469 " fill-opacity="1" fill-rule="nonzero"/><path fill="#ffa778" d="M 359.945312 216.480469 C 359.945312 212.25 352.929688 208.820312 344.277344 208.820312 C 335.625 208.820312 328.609375 212.25 328.609375 216.480469 C 328.609375 220.707031 335.625 224.136719 344.277344 224.136719 C 352.929688 224.136719 359.945312 220.710938 359.945312 216.480469 Z M 359.945312 216.480469 " fill-opacity="1" fill-rule="nonzero"/><path fill="#ffc1a0" d="M 421.265625 195.554688 C 434.246094 192.832031 443.214844 168.640625 431.035156 159.09375 C 418.855469 149.519531 404.71875 169.234375 404.71875 169.234375 L 401.539062 190.605469 C 401.539062 190.605469 408.3125 198.253906 421.265625 195.554688 Z M 421.265625 195.554688 " fill-opacity="1" fill-rule="nonzero"/><path fill="#ff8e52" d="M 417.984375 184.503906 C 423.59375 183.3125 427.492188 172.847656 422.214844 168.710938 C 416.9375 164.570312 410.816406 173.09375 410.816406 173.09375 L 409.445312 182.351562 C 409.445312 182.351562 412.375 185.671875 417.984375 184.503906 Z M 417.984375 184.503906 " fill-opacity="1" fill-rule="nonzero"/><path fill="#ffc1a0" d="M 312.765625 185.164062 L 312.226562 163.566406 C 312.226562 163.566406 300.601562 142.300781 287.339844 150.289062 C 274.101562 158.300781 280.054688 183.402344 292.589844 187.667969 L 292.566406 187.667969 C 305.121094 191.9375 312.765625 185.164062 312.765625 185.164062 Z M 312.765625 185.164062 " fill-opacity="1" fill-rule="nonzero"/><path fill="#ff8e52" d="M 297.195312 177.074219 C 302.609375 178.929688 305.929688 175.996094 305.929688 175.996094 L 305.6875 166.652344 C 305.6875 166.652344 300.667969 157.457031 294.921875 160.910156 L 294.921875 160.886719 C 289.199219 164.363281 291.757812 175.21875 297.195312 177.074219 Z M 297.195312 177.074219 " fill-opacity="1" fill-rule="nonzero"/><path fill="#ffc1a0" d="M 407.316406 199.734375 C 419.597656 182.390625 421.886719 134.558594 409.253906 102.101562 L 311.804688 108.929688 C 295.425781 139.535156 288.554688 174.0625 298.691406 192.855469 C 308.300781 210.679688 327.851562 220.394531 351.5 221.886719 L 351.476562 221.886719 C 375.148438 223.378906 395.675781 216.199219 407.316406 199.734375 Z M 407.316406 199.734375 " fill-opacity="1" fill-rule="nonzero"/><path fill="#632d28" d="M 360.910156 211.617188 C 363.691406 209.015625 360.378906 196.320312 356.984375 190.257812 C 353.367188 183.898438 333.429688 184.574219 333.429688 184.574219 C 329.902344 185.355469 323.347656 206.113281 327.75 208.144531 L 327.746094 208.164062 C 332.183594 209.9375 358.132812 214.21875 360.910156 211.617188 Z M 360.910156 211.617188 " fill-opacity="1" fill-rule="nonzero"/><path fill="#fefefe" d="M 337.457031 195.402344 L 338.945312 191.410156 L 340.167969 195.242188 C 340.167969 195.242188 350.554688 196.558594 353.9375 195.027344 C 355.484375 194.488281 356.410156 192.890625 357.351562 191.296875 C 357.394531 190.820312 357.191406 190.546875 356.984375 190.277344 C 353.367188 183.917969 333.425781 184.59375 333.425781 184.59375 C 331.910156 184.878906 329.976562 188.566406 328.425781 193.03125 C 330.386719 196.960938 337.457031 195.402344 337.457031 195.402344 Z M 337.457031 195.402344 " fill-opacity="1" fill-rule="nonzero"/><path fill="#d84141" d="M 361.589844 204.320312 C 357.121094 202.785156 349.339844 200.320312 342.097656 201.371094 C 337.359375 201.988281 332.921875 204.125 330.113281 208.929688 C 337.941406 210.894531 358.441406 213.734375 360.914062 211.597656 C 362.03125 210.511719 362.164062 207.574219 361.589844 204.320312 Z M 361.589844 204.320312 " fill-opacity="1" fill-rule="nonzero"/><path fill="#fefefe" d="M 375.324219 178.222656 C 383.050781 178.265625 390.875 173.648438 393.050781 163.855469 C 395.609375 152.265625 386.238281 144.191406 375.3125 145.371094 C 366.019531 145.390625 359.386719 152.253906 359.191406 162.617188 C 359 172.980469 367.574219 178.179688 375.300781 178.222656 Z M 375.324219 178.222656 " fill-opacity="1" fill-rule="nonzero"/><path fill="#853500" d="M 392.222656 153.285156 C 390.820312 142.257812 370.148438 135.972656 360.761719 153.660156 C 378.019531 134.960938 392.222656 153.285156 392.222656 153.285156 Z M 392.222656 153.285156 " fill-opacity="1" fill-rule="nonzero"/><path fill="#24b8d4" d="M 380.582031 163.605469 C 380.933594 157.722656 376.457031 152.625 370.550781 152.273438 C 364.667969 151.925781 359.574219 156.402344 359.222656 162.308594 C 358.875 168.195312 363.375 173.292969 369.257812 173.644531 C 375.140625 173.992188 380.230469 169.515625 380.582031 163.605469 Z M 380.582031 163.605469 " fill-opacity="1" fill-rule="nonzero"/><path fill="#1d0703" d="M 374.746094 163.285156 C 374.925781 160.609375 372.882812 158.292969 370.203125 158.136719 C 367.53125 157.957031 365.214844 160 365.058594 162.675781 L 365.054688 162.699219 C 364.875 165.375 366.917969 167.691406 369.59375 167.847656 C 372.273438 168.007812 374.585938 165.960938 374.746094 163.285156 Z M 374.746094 163.285156 " fill-opacity="1" fill-rule="nonzero"/><path fill="#fefefe" d="M 371.179688 158.777344 C 371.324219 156.609375 369.675781 154.730469 367.507812 154.609375 C 365.339844 154.460938 363.460938 156.113281 363.339844 158.28125 C 363.191406 160.449219 364.84375 162.328125 367.011719 162.453125 C 369.175781 162.597656 371.054688 160.949219 371.179688 158.777344 Z M 371.179688 158.777344 " fill-opacity="1" fill-rule="nonzero"/><path fill="#fefefe" d="M 374.464844 168.132812 C 374.527344 167.117188 373.742188 166.242188 372.730469 166.175781 C 371.714844 166.109375 370.839844 166.894531 370.773438 167.910156 C 370.707031 168.925781 371.492188 169.800781 372.507812 169.867188 C 373.519531 169.933594 374.398438 169.148438 374.464844 168.132812 Z M 374.464844 168.132812 " fill-opacity="1" fill-rule="nonzero"/><path fill="#ff8e52" d="M 342.585938 175.25 C 345.332031 175.394531 349.039062 179.683594 349.039062 179.683594 C 348.601562 175.847656 342.808594 170.070312 341.050781 171.921875 L 341.027344 171.917969 C 340.316406 172.675781 338.050781 175.097656 339.902344 179.761719 C 339.902344 179.761719 339.859375 175.113281 342.585938 175.25 Z M 342.585938 175.25 " fill-opacity="1" fill-rule="nonzero"/><path fill="#f2957c" d="M 400.714844 188.214844 C 400.90625 185.214844 397.480469 182.582031 393.078125 182.304688 C 388.671875 182.027344 384.96875 184.242188 384.777344 187.238281 C 384.582031 190.238281 388.007812 192.871094 392.410156 193.148438 C 396.816406 193.429688 400.519531 191.214844 400.714844 188.214844 Z M 400.714844 188.214844 " fill-opacity="1" fill-rule="nonzero"/><path fill="#f2957c" d="M 317.054688 180.996094 C 317.25 178 313.824219 175.367188 309.421875 175.085938 C 305.015625 174.808594 301.3125 177.023438 301.117188 180.023438 C 300.925781 183.023438 304.351562 185.65625 308.753906 185.933594 C 313.160156 186.210938 316.863281 183.996094 317.054688 180.996094 Z M 317.054688 180.996094 " fill-opacity="1" fill-rule="nonzero"/><path fill="#fefefe" d="M 313.914062 173.308594 C 321.589844 174.226562 330.730469 170.105469 331.800781 159.792969 C 332.871094 149.480469 327.117188 141.875 317.914062 140.714844 C 307.230469 138.207031 296.925781 145.082031 298.058594 156.894531 L 298.058594 156.871094 C 299.023438 166.851562 306.234375 172.410156 313.914062 173.308594 Z M 313.914062 173.308594 " fill-opacity="1" fill-rule="nonzero"/><path fill="#853500" d="M 331.339844 150.726562 C 324.160156 132.507812 302.90625 135.730469 300.179688 146.511719 C 300.179688 146.511719 316.511719 130.058594 331.339844 150.726562 Z M 331.339844 150.726562 " fill-opacity="1" fill-rule="nonzero"/><path fill="#24b8d4" d="M 320.460938 158.085938 C 320.808594 152.199219 316.332031 147.101562 310.429688 146.75 C 304.546875 146.402344 299.453125 150.878906 299.101562 156.789062 C 298.75 162.675781 303.226562 167.769531 309.132812 168.121094 C 315.015625 168.46875 320.109375 163.992188 320.460938 158.085938 Z M 320.460938 158.085938 " fill-opacity="1" fill-rule="nonzero"/><path fill="#1d0703" d="M 314.621094 157.761719 C 314.800781 155.089844 312.757812 152.769531 310.082031 152.613281 C 307.40625 152.433594 305.09375 154.476562 304.933594 157.15625 L 304.914062 157.152344 C 304.753906 159.832031 306.796875 162.148438 309.472656 162.304688 C 312.148438 162.484375 314.464844 160.441406 314.621094 157.761719 Z M 314.621094 157.761719 " fill-opacity="1" fill-rule="nonzero"/><path fill="#fefefe" d="M 316.867188 153.621094 C 317.015625 151.453125 315.363281 149.574219 313.195312 149.449219 C 311.027344 149.304688 309.152344 150.953125 309.027344 153.125 C 308.878906 155.292969 310.53125 157.171875 312.699219 157.296875 C 314.867188 157.441406 316.71875 155.789062 316.867188 153.621094 Z M 316.867188 153.621094 " fill-opacity="1" fill-rule="nonzero"/><path fill="#fefefe" d="M 308.320312 162.246094 C 308.386719 161.230469 307.601562 160.355469 306.585938 160.289062 C 305.570312 160.222656 304.695312 161.007812 304.628906 162.023438 C 304.5625 163.039062 305.347656 163.914062 306.363281 163.980469 C 307.378906 164.046875 308.253906 163.261719 308.320312 162.246094 Z M 308.320312 162.246094 " fill-opacity="1" fill-rule="nonzero"/><path fill="#762912" d="M 292.164062 158.101562 C 292.160156 158.085938 292.152344 158.070312 292.148438 158.054688 C 292.144531 158.066406 292.144531 158.082031 292.140625 158.097656 Z M 292.164062 158.101562 " fill-opacity="1" fill-rule="nonzero"/><path fill="#762912" d="M 400.304688 108.785156 C 400.304688 108.785156 405.777344 122.679688 406.207031 134.34375 C 406.636719 146.007812 411.847656 169.421875 411.847656 169.421875 L 423.863281 147.914062 C 426.859375 125.429688 416.050781 87.339844 416.050781 87.339844 C 416.050781 87.339844 398.890625 84.792969 394.460938 83.929688 C 390.003906 83.066406 319.742188 80.304688 313.554688 80.804688 C 307.367188 81.328125 293.320312 103.980469 292.21875 107.226562 C 291.121094 110.449219 286.230469 144.402344 292.148438 158.054688 C 293.242188 144.535156 304.003906 123.605469 318.214844 119.910156 C 332.460938 116.234375 349.472656 113.820312 349.472656 113.820312 L 336.449219 125.34375 C 336.449219 125.34375 344.480469 125.347656 353.71875 124.351562 C 362.953125 123.375 381.039062 111.832031 381.039062 111.832031 C 381.039062 111.832031 380.976562 113.894531 378.828125 125.527344 C 392.355469 122.472656 400.304688 108.785156 400.304688 108.785156 Z M 400.304688 108.785156 " fill-opacity="1" fill-rule="nonzero"/><path fill="#762912" d="M 378.542969 131.351562 C 378.855469 129.472656 380.421875 128.21875 375.722656 126.964844 C 371.027344 125.714844 355.371094 132.605469 354.746094 137.929688 L 358.1875 142.003906 C 358.1875 142.003906 378.230469 133.230469 378.542969 131.351562 Z M 378.542969 131.351562 " fill-opacity="1" fill-rule="nonzero"/><path fill="#762912" d="M 328.585938 140.203125 L 332.441406 137.691406 C 333.246094 133.136719 322.019531 123.554688 317.828125 123.425781 C 313.636719 123.296875 314.621094 124.71875 314.414062 126.351562 C 314.207031 127.980469 328.585938 140.203125 328.585938 140.203125 Z M 328.585938 140.203125 " fill-opacity="1" fill-rule="nonzero"/><path fill="#ffc1a0" d="M 223.472656 196.113281 L 197.363281 192.652344 L 178.921875 213.523438 L 159.160156 215.527344 L 175.683594 242.601562 C 175.683594 242.601562 194.550781 235.59375 198.871094 232.648438 C 203.191406 229.707031 223.472656 196.113281 223.472656 196.113281 Z M 223.472656 196.113281 " fill-opacity="1" fill-rule="nonzero"/><path fill="#ffc1a0" d="M 232.519531 182.167969 C 232.996094 173.710938 215.976562 166.882812 211.890625 166.523438 C 207.800781 166.164062 205.183594 170.835938 203.363281 174.21875 C 199.332031 171.710938 193.753906 177.25 191.984375 181.992188 C 190.101562 187.035156 202.027344 200.105469 216.335938 202.046875 C 221.292969 203.394531 232.042969 190.628906 232.519531 182.167969 Z M 232.519531 182.167969 " fill-opacity="1" fill-rule="nonzero"/><path fill="#f2957c" d="M 208.320312 192.117188 C 208.25 192.117188 208.183594 192.097656 208.117188 192.0625 C 207.9375 191.949219 207.878906 191.714844 207.988281 191.53125 C 208.484375 190.714844 208.605469 189.863281 208.351562 188.925781 C 207.769531 186.761719 205.339844 184.75 203.648438 183.574219 C 202.578125 182.957031 201.949219 182.5 201.914062 182.472656 C 201.75 182.351562 201.707031 182.128906 201.816406 181.957031 C 201.921875 181.785156 202.140625 181.726562 202.324219 181.824219 C 202.40625 181.871094 203.144531 182.277344 204.109375 182.949219 C 204.542969 183.199219 205.050781 183.472656 205.613281 183.75 C 206.324219 184.101562 207.085938 184.140625 207.816406 183.867188 C 208.933594 183.445312 209.917969 182.34375 210.574219 180.765625 C 210.925781 179.921875 210.523438 178.058594 203.863281 175.074219 C 203.671875 174.988281 203.539062 174.925781 203.488281 174.898438 C 203.300781 174.800781 203.230469 174.566406 203.332031 174.378906 C 203.425781 174.191406 203.660156 174.113281 203.851562 174.222656 C 203.898438 174.246094 204.011719 174.296875 204.179688 174.371094 C 209.710938 176.851562 212.097656 179.105469 211.28125 181.066406 C 210.542969 182.839844 209.410156 184.089844 208.085938 184.585938 C 207.53125 184.792969 206.964844 184.859375 206.40625 184.789062 C 207.605469 185.910156 208.703125 187.265625 209.09375 188.722656 C 209.398438 189.859375 209.25 190.9375 208.648438 191.929688 C 208.574219 192.050781 208.449219 192.117188 208.320312 192.117188 Z M 208.320312 192.117188 " fill-opacity="1" fill-rule="nonzero"/><path fill="#f2957c" d="M 210.078125 178.238281 C 210.011719 178.238281 209.941406 178.21875 209.878906 178.183594 C 209.699219 178.070312 209.640625 177.835938 209.75 177.652344 L 214.628906 169.605469 C 214.734375 169.425781 214.96875 169.363281 215.15625 169.476562 C 215.335938 169.585938 215.394531 169.824219 215.285156 170.003906 L 210.410156 178.050781 C 210.335938 178.171875 210.207031 178.238281 210.078125 178.238281 Z M 210.078125 178.238281 " fill-opacity="1" fill-rule="nonzero"/><path fill="#f2957c" d="M 210.269531 186.875 C 210.113281 186.875 209.957031 186.859375 209.804688 186.832031 C 208.839844 186.671875 208.164062 186.304688 207.800781 185.746094 C 207.402344 185.140625 207.535156 184.546875 207.550781 184.480469 C 207.605469 184.273438 207.8125 184.152344 208.015625 184.203125 C 208.222656 184.253906 208.347656 184.460938 208.296875 184.664062 C 208.296875 184.683594 208.230469 185.007812 208.453125 185.339844 C 208.695312 185.699219 209.207031 185.953125 209.933594 186.074219 C 212 186.445312 214.472656 183.40625 220.628906 173.1875 C 220.738281 173.003906 220.972656 172.945312 221.160156 173.054688 C 221.339844 173.164062 221.398438 173.402344 221.289062 173.585938 C 215.171875 183.738281 212.617188 186.875 210.269531 186.875 Z M 210.269531 186.875 " fill-opacity="1" fill-rule="nonzero"/><path fill="#f2957c" d="M 215.800781 190.703125 C 215.496094 190.703125 215.214844 190.628906 214.953125 190.488281 C 211.191406 188.4375 212.605469 185.242188 212.621094 185.214844 C 212.710938 185.019531 212.933594 184.933594 213.132812 185.023438 C 213.324219 185.113281 213.40625 185.339844 213.320312 185.535156 C 213.273438 185.636719 212.207031 188.113281 215.320312 189.808594 C 215.582031 189.953125 215.886719 189.964844 216.25 189.855469 C 219.855469 188.746094 225.960938 176.929688 226.019531 176.808594 C 226.121094 176.621094 226.355469 176.550781 226.539062 176.640625 C 226.726562 176.738281 226.800781 176.972656 226.707031 177.160156 C 226.449219 177.660156 220.386719 189.386719 216.476562 190.59375 C 216.242188 190.664062 216.015625 190.703125 215.800781 190.703125 Z M 215.800781 190.703125 " fill-opacity="1" fill-rule="nonzero"/><path fill="#f2957c" d="M 222.140625 194.746094 C 222.070312 194.746094 222.003906 194.742188 221.9375 194.730469 C 218.980469 194.34375 218.3125 191.386719 218.09375 190.417969 C 218.066406 190.289062 218.046875 190.191406 218.027344 190.140625 C 217.953125 189.945312 218.042969 189.71875 218.238281 189.636719 C 218.425781 189.558594 218.644531 189.640625 218.730469 189.828125 C 218.761719 189.894531 218.800781 190.042969 218.847656 190.25 C 219.074219 191.269531 219.613281 193.652344 222.039062 193.972656 C 222.078125 193.976562 222.121094 193.976562 222.164062 193.976562 C 224.335938 193.976562 229.101562 187.292969 231.648438 182.984375 C 231.757812 182.800781 231.996094 182.746094 232.175781 182.847656 C 232.359375 182.957031 232.417969 183.195312 232.3125 183.375 C 231.613281 184.5625 225.492188 194.746094 222.140625 194.746094 Z M 222.140625 194.746094 " fill-opacity="1" fill-rule="nonzero"/><path fill="#ffc1a0" d="M 48.753906 259.4375 L 21.839844 242.667969 C 21.839844 242.667969 8.125 257.402344 5.585938 261.976562 C 3.046875 266.550781 0 305.675781 0 305.675781 C 0 305.675781 1.015625 324.472656 4.570312 327.523438 C 8.125 330.570312 22.347656 330.0625 26.917969 327.523438 C 31.488281 324.984375 29.964844 319.394531 29.964844 319.394531 C 29.964844 319.394531 32.503906 320.410156 34.027344 316.34375 C 35.550781 312.28125 24.886719 297.035156 24.886719 297.035156 L 31.996094 270.105469 Z M 48.753906 259.4375 " fill-opacity="1" fill-rule="nonzero"/><path fill="#735858" d="M 122.027344 464.433594 C 121.898438 458.960938 87.746094 439.882812 87.746094 439.882812 L 63.929688 437.867188 C 63.929688 437.867188 56.273438 456.753906 59.226562 461.289062 C 62.179688 465.820312 122.160156 469.90625 122.027344 464.433594 Z M 122.027344 464.433594 " fill-opacity="1" fill-rule="nonzero"/><path fill="#241c1c" d="M 102.324219 457.136719 C 104.335938 456.113281 106.765625 450.515625 106.765625 450.515625 C 106.765625 450.515625 99.113281 444.105469 94.496094 443.453125 C 94.496094 443.453125 89.847656 448.113281 90.246094 451.117188 C 90.640625 454.117188 100.3125 458.15625 102.324219 457.136719 Z M 102.324219 457.136719 " fill-opacity="1" fill-rule="nonzero"/><path fill="#241c1c" d="M 122.027344 464.433594 C 122.019531 463.984375 121.757812 463.441406 121.332031 462.828125 C 118.550781 463.492188 111.894531 464.679688 100.296875 464.402344 C 85.761719 464.050781 66.460938 462.460938 58.5625 457.507812 C 58.5 459.121094 58.679688 460.449219 59.226562 461.289062 C 62.179688 465.824219 122.160156 469.90625 122.027344 464.433594 Z M 122.027344 464.433594 " fill-opacity="1" fill-rule="nonzero"/><path fill="#241c1c" d="M 91.546875 442.875 C 93 441.066406 92.5625 437.503906 93.40625 435.570312 C 94.253906 433.636719 96.757812 431.699219 96.949219 429.777344 C 97.144531 427.855469 94.414062 425.910156 94.414062 425.910156 C 88.035156 421.660156 80.257812 420.316406 75.234375 419.761719 C 70.207031 419.210938 69.191406 418.957031 67.546875 422.308594 C 65.902344 425.660156 65.300781 428.914062 63.0625 432.609375 C 60.820312 436.300781 63.972656 438.019531 70.703125 441.652344 C 77.433594 445.289062 90.097656 444.683594 91.546875 442.875 Z M 91.546875 442.875 " fill-opacity="1" fill-rule="nonzero"/><path fill="#916f6f" d="M 74.714844 463.613281 C 74.347656 458.152344 39.398438 440.574219 39.398438 440.574219 L 15.515625 439.597656 C 15.515625 439.597656 8.6875 458.800781 11.835938 463.203125 C 14.984375 467.601562 75.082031 469.078125 74.714844 463.613281 Z M 74.714844 463.613281 " fill-opacity="1" fill-rule="nonzero"/><path fill="#241c1c" d="M 54.714844 457.179688 C 56.679688 456.070312 58.863281 450.375 58.863281 450.375 C 58.863281 450.375 50.9375 444.300781 46.296875 443.851562 C 46.296875 443.851562 41.859375 448.710938 42.382812 451.691406 C 42.910156 454.671875 52.746094 458.289062 54.714844 457.179688 Z M 54.714844 457.179688 " fill-opacity="1" fill-rule="nonzero"/><path fill="#241c1c" d="M 74.714844 463.613281 C 74.683594 463.167969 74.402344 462.632812 73.949219 462.039062 C 71.199219 462.828125 64.601562 464.300781 53.003906 464.527344 C 38.464844 464.808594 19.117188 464.058594 11.007812 459.453125 C 11.015625 461.066406 11.253906 462.386719 11.835938 463.203125 C 14.984375 467.601562 75.082031 469.078125 74.714844 463.613281 Z M 74.714844 463.613281 " fill-opacity="1" fill-rule="nonzero"/><path fill="#241c1c" d="M 23.09375 421.242188 C 18.046875 421.496094 17.003906 421.40625 15.914062 424.976562 C 14.820312 428.550781 14.742188 431.855469 13.117188 435.859375 C 11.492188 439.859375 14.875 441.054688 22.097656 443.574219 C 29.320312 446.09375 41.726562 443.488281 42.871094 441.46875 C 44.019531 439.453125 43.019531 436.007812 43.546875 433.964844 C 44.078125 431.917969 46.242188 429.609375 46.128906 427.679688 C 46.015625 425.753906 43.011719 424.265625 43.011719 424.265625 C 36.035156 421.082031 28.144531 420.992188 23.097656 421.242188 Z M 23.09375 421.242188 " fill-opacity="1" fill-rule="nonzero"/><path fill="#733a1c" d="M 93.839844 440.214844 C 117.847656 382.035156 139.199219 325.835938 136.285156 326.363281 C 133.371094 326.890625 46.339844 309.605469 46.339844 309.605469 L 9.609375 434.996094 C 9.609375 434.996094 30.398438 447.175781 48.789062 441.191406 C 56.664062 420.109375 79.519531 362.933594 83.773438 363.933594 C 88.027344 364.9375 60.96875 436.597656 60.96875 436.597656 C 60.96875 436.597656 78.175781 448.542969 93.839844 440.214844 Z M 93.839844 440.214844 " fill-opacity="1" fill-rule="nonzero"/><path fill="#916f6f" d="M 168.777344 212.160156 L 141.773438 215.144531 C 126.484375 208.207031 112.28125 211.402344 112.28125 211.402344 C 53.761719 201.109375 41.082031 216.304688 17.28125 242.941406 C 23.96875 260.023438 51.328125 265.207031 51.328125 265.207031 C 51.328125 265.207031 43.65625 284.34375 43.445312 317.957031 C 80.515625 342.515625 138.34375 330.964844 138.34375 330.964844 C 142.460938 305.929688 141.695312 284.3125 139.144531 254.96875 L 176.015625 247.777344 C 178.421875 240.78125 175.195312 222.476562 168.777344 212.160156 Z M 168.777344 212.160156 " fill-opacity="1" fill-rule="nonzero"/><path fill="#ffa778" d="M 119.945312 212.976562 L 80.242188 207.890625 C 80.242188 207.890625 84.390625 230.023438 105.363281 230.199219 C 126.339844 230.371094 119.945312 212.976562 119.945312 212.976562 Z M 119.945312 212.976562 " fill-opacity="1" fill-rule="nonzero"/><path fill="#733a1c" d="M 8.238281 107.644531 C 7.835938 133.398438 27.394531 174.40625 28.941406 177.597656 C 28.941406 177.597656 146.136719 178.015625 189.414062 149.65625 C 194.757812 124.984375 170.183594 93.625 170.183594 93.625 C 170.183594 93.625 192.394531 81.78125 184.101562 65.328125 C 175.8125 48.878906 157.496094 60.222656 157.496094 60.222656 C 157.496094 60.222656 169.992188 49.589844 148.578125 41.011719 C 127.164062 32.429688 105.617188 49.542969 105.617188 49.542969 C 105.617188 49.542969 114.074219 38.316406 92.921875 38.4375 C 71.773438 38.582031 49.605469 59.742188 49.605469 59.742188 C 49.605469 59.742188 53.195312 50.242188 35.976562 52.417969 L 35.980469 52.464844 C 18.761719 54.644531 8.363281 81.929688 8.238281 107.644531 Z M 8.238281 107.644531 " fill-opacity="1" fill-rule="nonzero"/><path fill="#ffc1a0" d="M 188.152344 183.566406 C 201.429688 177.351562 205.101562 148.917969 189.566406 141.621094 C 174.03125 134.324219 163.664062 159.226562 163.664062 159.226562 L 165.550781 183.136719 C 165.550781 183.136719 174.875 189.777344 188.152344 183.566406 Z M 188.152344 183.566406 " fill-opacity="1" fill-rule="nonzero"/><path fill="#ff8e52" d="M 181.855469 172.4375 L 181.875 172.410156 C 187.53125 169.785156 189.25 157.273438 182.410156 154.210938 C 175.75 150.914062 171.246094 161.773438 171.246094 161.773438 L 172.132812 172.160156 C 172.132812 172.160156 175.996094 175.089844 181.855469 172.4375 Z M 181.855469 172.4375 " fill-opacity="1" fill-rule="nonzero"/><path fill="#ffc1a0" d="M 61.101562 196.824219 L 61.125 196.820312 L 55.140625 173.605469 C 55.140625 173.605469 37.242188 153.4375 24.925781 165.394531 C 12.605469 177.351562 25.328125 203.015625 39.886719 204.597656 C 54.464844 206.152344 61.101562 196.824219 61.101562 196.824219 Z M 61.101562 196.824219 " fill-opacity="1" fill-rule="nonzero"/><path fill="#ff8e52" d="M 51.351562 188.5625 L 51.328125 188.5625 L 48.804688 178.464844 C 48.804688 178.464844 41.265625 169.835938 35.804688 174.949219 C 30.371094 180.273438 35.824219 191.375 42.238281 191.976562 C 48.453125 192.632812 51.351562 188.5625 51.351562 188.5625 Z M 51.351562 188.5625 " fill-opacity="1" fill-rule="nonzero"/><path fill="#ffc1a0" d="M 180.269531 186.792969 C 189.65625 164.792969 181.191406 125.578125 159.039062 93.679688 C 116.570312 134.277344 75.585938 100.699219 51.160156 113.191406 C 40.558594 150.546875 41.40625 189.574219 57.417969 207.339844 C 72.445312 224.1875 96.71875 229.613281 123.527344 225.140625 C 150.15625 220.691406 171.339844 207.660156 180.269531 186.792969 Z M 180.269531 186.792969 " fill-opacity="1" fill-rule="nonzero"/><path fill="#fefefe" d="M 172.609375 149.730469 C 172.53125 136.691406 160.308594 130.300781 148.789062 134.34375 C 138.644531 136.664062 133.230469 145.78125 135.734375 156.953125 C 138.035156 168.152344 148.703125 171.632812 157.050781 169.8125 L 157.027344 169.8125 C 165.355469 167.996094 172.800781 160.863281 172.609375 149.730469 Z M 172.609375 149.730469 " fill-opacity="1" fill-rule="nonzero"/><path fill="#632d28" d="M 169.082031 138.742188 C 164.804688 127.039062 140.78125 125.566406 135.089844 146.953125 C 149.074219 122.28125 169.054688 138.535156 169.082031 138.742188 Z M 169.082031 138.742188 " fill-opacity="1" fill-rule="nonzero"/><path fill="#632d28" d="M 162.03125 163.78125 C 168.386719 162.71875 172.839844 156.710938 171.75 150.148438 C 170.683594 143.792969 164.679688 139.335938 158.121094 140.425781 C 151.765625 141.492188 147.339844 147.703125 148.402344 154.0625 C 149.46875 160.417969 155.675781 164.847656 162.03125 163.78125 Z M 162.03125 163.78125 " fill-opacity="1" fill-rule="nonzero"/><path fill="#1d0703" d="M 160.96875 157.449219 C 163.839844 156.96875 165.875 154.109375 165.398438 151.238281 C 164.917969 148.367188 162.058594 146.328125 159.1875 146.808594 C 156.320312 147.289062 154.28125 150.148438 154.761719 153.019531 C 155.242188 155.890625 158.101562 157.929688 160.96875 157.449219 Z M 160.96875 157.449219 " fill-opacity="1" fill-rule="nonzero"/><path fill="#fefefe" d="M 156.957031 152.210938 C 159.417969 151.808594 160.945312 149.648438 160.542969 147.183594 C 160.144531 144.722656 157.980469 143.195312 155.519531 143.597656 C 153.058594 144 151.535156 146.160156 151.933594 148.625 C 152.335938 151.085938 154.496094 152.613281 156.957031 152.210938 Z M 156.957031 152.210938 " fill-opacity="1" fill-rule="nonzero"/><path fill="#fefefe" d="M 166.503906 156.515625 C 166.292969 155.289062 165.132812 154.652344 164.109375 154.8125 C 162.878906 155.023438 162.191406 155.980469 162.40625 157.210938 C 162.617188 158.4375 163.570312 159.125 164.800781 158.914062 C 166.027344 158.703125 166.664062 157.542969 166.503906 156.515625 Z M 166.503906 156.515625 " fill-opacity="1" fill-rule="nonzero"/><path fill="#ff8e52" d="M 131.21875 168.910156 L 131.191406 168.890625 C 129.5625 166.636719 122.289062 172.277344 121.308594 176.441406 C 121.308594 176.441406 126.082031 172.277344 129.058594 172.414062 C 132.035156 172.550781 131.425781 177.710938 131.425781 177.710938 C 134.191406 172.820312 131.996094 169.828125 131.21875 168.910156 Z M 131.21875 168.910156 " fill-opacity="1" fill-rule="nonzero"/><path fill="#f2957c" d="M 169.351562 184.394531 C 174.273438 183.570312 177.714844 180.261719 177.160156 176.984375 C 176.601562 173.703125 172.28125 171.699219 167.359375 172.523438 C 162.441406 173.347656 158.996094 176.65625 159.554688 179.933594 C 160.113281 183.214844 164.433594 185.21875 169.351562 184.394531 Z M 169.351562 184.394531 " fill-opacity="1" fill-rule="nonzero"/><path fill="#f2957c" d="M 77 199.855469 C 81.917969 199.03125 85.363281 195.726562 84.804688 192.445312 C 84.246094 189.164062 79.925781 187.160156 75.007812 187.984375 C 70.085938 188.8125 66.640625 192.117188 67.199219 195.398438 C 67.757812 198.679688 72.078125 200.683594 77 199.855469 Z M 77 199.855469 " fill-opacity="1" fill-rule="nonzero"/><path fill="#fefefe" d="M 88.867188 181.4375 C 97.324219 180.4375 106.3125 173.683594 104.835938 162.347656 C 103.359375 151.015625 95.265625 144.160156 85.136719 145.21875 C 72.875 144.960938 63.59375 154.921875 67.597656 167.523438 C 71.046875 178.105469 80.378906 182.230469 88.867188 181.4375 Z M 88.867188 181.4375 " fill-opacity="1" fill-rule="nonzero"/><path fill="#632d28" d="M 102.136719 152.484375 C 89.871094 134.539062 67.554688 143.324219 67.320312 155.773438 C 67.292969 155.566406 80.886719 133.699219 102.136719 152.484375 Z M 102.136719 152.484375 " fill-opacity="1" fill-rule="nonzero"/><path fill="#632d28" d="M 94.613281 177.070312 C 100.96875 176.003906 105.421875 170 104.332031 163.4375 C 103.238281 156.871094 97.265625 152.621094 90.703125 153.714844 C 84.351562 154.777344 79.894531 160.785156 80.988281 167.347656 C 82.050781 173.703125 88.054688 178.164062 94.613281 177.070312 Z M 94.613281 177.070312 " fill-opacity="1" fill-rule="nonzero"/><path fill="#1d0703" d="M 93.550781 170.710938 C 96.417969 170.234375 98.457031 167.371094 97.976562 164.5 C 97.496094 161.628906 94.636719 159.589844 91.769531 160.070312 C 88.898438 160.550781 86.863281 163.410156 87.339844 166.28125 C 87.820312 169.152344 90.679688 171.191406 93.550781 170.710938 Z M 93.550781 170.710938 " fill-opacity="1" fill-rule="nonzero"/><path fill="#fefefe" d="M 95.871094 164.433594 C 98.332031 164.035156 99.859375 161.871094 99.457031 159.410156 C 99.058594 156.945312 96.894531 155.421875 94.433594 155.820312 C 91.972656 156.222656 90.449219 158.386719 90.847656 160.847656 C 91.25 163.308594 93.410156 164.835938 95.871094 164.433594 Z M 95.871094 164.433594 " fill-opacity="1" fill-rule="nonzero"/><path fill="#fefefe" d="M 92.320312 170.925781 C 92.109375 169.695312 90.953125 169.058594 89.925781 169.21875 C 88.695312 169.433594 88.007812 170.386719 88.222656 171.617188 C 88.433594 172.84375 89.589844 173.480469 90.617188 173.320312 C 91.84375 173.109375 92.480469 171.949219 92.320312 170.925781 Z M 92.320312 170.925781 " fill-opacity="1" fill-rule="nonzero"/><path fill="#733a1c" d="M 82.523438 124.1875 L 77.222656 133.003906 L 101.589844 147.96875 L 106.503906 142.726562 Z M 82.523438 124.1875 " fill-opacity="1" fill-rule="nonzero"/><path fill="#733a1c" d="M 148.253906 112.648438 L 128.886719 135.964844 L 134.820312 140.011719 L 155.347656 120.097656 Z M 148.253906 112.648438 " fill-opacity="1" fill-rule="nonzero"/><path fill="#632d28" d="M 136.644531 181.203125 C 136.644531 181.203125 113.695312 180.425781 109.53125 187.742188 C 105.628906 194.722656 101.816406 209.332031 105.015625 212.324219 C 108.210938 215.320312 138.078125 210.390625 143.183594 208.351562 L 143.183594 208.328125 C 148.246094 205.992188 140.703125 182.101562 136.644531 181.203125 Z M 136.644531 181.203125 " fill-opacity="1" fill-rule="nonzero"/><path fill="#fefefe" d="M 130.296875 189.070312 L 132.011719 193.664062 C 132.011719 193.664062 140.144531 195.457031 142.402344 190.933594 C 140.617188 185.792969 138.394531 181.550781 136.648438 181.226562 C 136.648438 181.226562 113.699219 180.445312 109.535156 187.765625 C 109.296875 188.074219 109.0625 188.386719 109.113281 188.941406 C 110.195312 190.773438 111.257812 192.613281 113.042969 193.234375 C 116.933594 194.992188 128.886719 193.476562 128.886719 193.476562 C 128.886719 193.476562 130.296875 189.070312 130.296875 189.070312 Z M 130.296875 189.070312 " fill-opacity="1" fill-rule="nonzero"/><path fill="#d84141" d="M 140.460938 209.230469 C 137.226562 203.699219 132.121094 201.242188 126.667969 200.53125 C 118.332031 199.324219 109.375 202.160156 104.234375 203.925781 C 103.574219 207.671875 103.726562 211.054688 105.011719 212.300781 C 107.855469 214.761719 131.449219 211.492188 140.460938 209.230469 Z M 140.460938 209.230469 " fill-opacity="1" fill-rule="nonzero"/></svg>