<svg xmlns="http://www.w3.org/2000/svg" xmlns:xlink="http://www.w3.org/1999/xlink" width="579" zoomAndPan="magnify" viewBox="0 0 434.25 470.999988" height="628" preserveAspectRatio="xMidYMid meet" version="1.0"><defs><clipPath id="8d795df8be"><path d="M 16 6 L 424 6 L 424 469.84375 L 16 469.84375 Z M 16 6 " clip-rule="nonzero"/></clipPath></defs><g clip-path="url(#8d795df8be)"><path fill="#a3e635" d="M 164.34375 25.027344 C 137.613281 41.070312 121.132812 76.621094 134.234375 104.910156 C 140.121094 117.621094 143.265625 119.121094 142.332031 127.238281 C 139.640625 150.730469 92.5 146.652344 55.980469 184.769531 C 51.976562 188.949219 18.136719 222.433594 29.496094 252.234375 C 32.863281 261.0625 38.941406 268.558594 43.488281 276.839844 C 57.007812 301.457031 55.707031 333.507812 40.242188 356.949219 C 32.007812 369.425781 19.839844 380.269531 17.382812 395.019531 C 15.21875 408.023438 21.511719 421.355469 30.996094 430.515625 C 40.476562 439.671875 52.789062 445.285156 65.132812 449.917969 C 95.320312 461.242188 127.316406 467.734375 159.53125 469.070312 C 178.164062 469.839844 197.117188 468.855469 214.871094 463.152344 C 236.839844 456.101562 251.148438 445.269531 276.753906 423.257812 C 339.753906 369.105469 371.691406 341.230469 393.09375 301.992188 C 399.421875 290.386719 406.9375 276.425781 413.003906 256.3125 C 433.148438 189.539062 424.117188 98.847656 381.378906 79.449219 C 353.925781 66.988281 338.027344 95.503906 304.074219 82.964844 C 263.0625 67.816406 266.203125 18.789062 226.496094 8.261719 C 197.019531 0.445312 170.320312 21.441406 164.34375 25.027344 Z M 164.34375 25.027344 " fill-opacity="1" fill-rule="nonzero"/></g><path fill="#ffb289" d="M 208.429688 307.136719 L 214.5 322.269531 L 252.207031 327.597656 C 252.207031 327.597656 264.996094 317.039062 265.742188 306.484375 C 266.488281 295.925781 267.238281 251.363281 267.238281 251.363281 L 234.007812 249.121094 C 234.007812 249.121094 236.992188 287.613281 234.007812 292.1875 C 231.113281 296.582031 208.429688 307.136719 208.429688 307.136719 Z M 208.429688 307.136719 " fill-opacity="1" fill-rule="nonzero"/><path fill="#535d6c" d="M 268.078125 236.882812 C 279.183594 237.257812 314.28125 221.75 314 218.480469 C 313.71875 215.210938 296.917969 208.109375 280.492188 202.597656 C 264.0625 197.085938 233.726562 199.140625 231.488281 203.066406 C 229.246094 206.988281 233.445312 232.960938 233.445312 232.960938 C 233.355469 232.960938 256.96875 236.605469 268.078125 236.882812 Z M 268.078125 236.882812 " fill-opacity="1" fill-rule="nonzero"/><path fill="#3771c8" d="M 274.703125 253.417969 C 276.664062 248.46875 276.476562 233.054688 273.957031 229.878906 C 271.4375 226.703125 242.128906 222.402344 233.632812 231.839844 C 233.632812 231.839844 231.671875 239.03125 233.820312 242.863281 C 235.96875 246.691406 235.3125 256.78125 235.3125 256.78125 C 235.3125 256.78125 272.742188 258.371094 274.703125 253.417969 Z M 274.703125 253.417969 " fill-opacity="1" fill-rule="nonzero"/><path fill="#3771c8" d="M 295.332031 231.277344 C 297.386719 228.570312 299.253906 225.300781 295.613281 223.992188 C 291.972656 222.777344 283.382812 225.582031 283.382812 225.582031 C 283.382812 225.582031 277.785156 237.632812 281.238281 238.285156 C 284.691406 239.125 293.277344 233.988281 295.332031 231.277344 Z M 295.332031 231.277344 " fill-opacity="1" fill-rule="nonzero"/><path fill="#3771c8" d="M 304.292969 215.585938 C 306.71875 216.796875 309.332031 218.855469 311.855469 220.722656 C 313.160156 219.789062 314 219.039062 313.90625 218.574219 C 313.628906 215.304688 296.824219 208.203125 280.398438 202.691406 C 267.050781 198.207031 244.554688 198.675781 235.3125 201.195312 C 233.167969 201.757812 231.765625 202.410156 231.394531 203.160156 C 230.925781 203.90625 230.738281 205.679688 230.738281 207.832031 C 239.046875 206.523438 252.863281 204.558594 263.875 204.933594 C 280.585938 205.402344 297.945312 212.3125 304.292969 215.585938 Z M 304.292969 215.585938 " fill-opacity="1" fill-rule="nonzero"/><path fill="#535d6c" d="M 423.957031 253.980469 C 424.515625 250.804688 410.050781 239.59375 395.675781 229.972656 C 381.300781 220.347656 351.429688 214.464844 348.164062 217.734375 C 344.988281 220.910156 342.28125 247.066406 342.28125 247.066406 C 342.28125 247.066406 364.125 256.6875 374.859375 259.867188 C 385.5 263.136719 423.398438 257.25 423.957031 253.980469 Z M 423.957031 253.980469 " fill-opacity="1" fill-rule="nonzero"/><path fill="#ffc1a0" d="M 357.03125 344.132812 C 361.511719 334.324219 377.378906 260.332031 377.378906 260.332031 L 344.898438 252.765625 L 326.136719 309.378906 C 326.136719 309.378906 281.609375 317.695312 278.625 318.441406 L 297.480469 368.980469 C 297.480469 369.074219 352.550781 353.941406 357.03125 344.132812 Z M 357.03125 344.132812 " fill-opacity="1" fill-rule="nonzero"/><path fill="#3771c8" d="M 303.453125 313.957031 C 303.453125 313.957031 251.367188 314.703125 231.765625 310.96875 C 212.164062 307.230469 177.441406 325.355469 177.441406 325.355469 L 221.964844 394.859375 C 221.964844 394.859375 295.144531 385.796875 317.734375 363.191406 C 329.121094 333.574219 303.453125 313.957031 303.453125 313.957031 Z M 303.453125 313.957031 " fill-opacity="1" fill-rule="nonzero"/><path fill="#ffb289" d="M 74.019531 383.835938 C 74.953125 358.050781 67.953125 338.339844 67.953125 338.339844 C 67.953125 338.339844 8.867188 356.648438 7.46875 378.230469 C 6.066406 399.8125 23.335938 413.355469 74.019531 383.835938 Z M 74.019531 383.835938 " fill-opacity="1" fill-rule="nonzero"/><path fill="#89a02c" d="M 93.714844 391.683594 C 119.851562 400.929688 155.414062 406.628906 164.5625 408.40625 C 179.589844 411.207031 234.007812 414.945312 234.007812 414.945312 C 234.007812 414.945312 241.472656 389.628906 244.367188 376.457031 C 247.167969 363.28125 233.074219 343.570312 219.074219 334.230469 C 205.070312 324.886719 87.742188 336.097656 87.742188 336.097656 C 87.742188 336.097656 62.445312 342.636719 53.019531 352.074219 C 43.589844 361.507812 49.285156 388.226562 54.882812 395.699219 C 56.9375 398.691406 79.992188 394.765625 93.714844 391.683594 Z M 93.714844 391.683594 " fill-opacity="1" fill-rule="nonzero"/><path fill="#ffb289" d="M 137.304688 354.875 L 96.980469 350.203125 C 96.980469 350.203125 99.78125 367.113281 117.609375 369.914062 C 135.4375 372.71875 137.304688 354.875 137.304688 354.875 Z M 137.304688 354.875 " fill-opacity="1" fill-rule="nonzero"/><path fill="#632d28" d="M 209.363281 321.148438 C 223.925781 305.921875 239.515625 256.6875 240.539062 240.058594 C 241.660156 223.429688 235.875 192.042969 194.710938 173.078125 C 153.546875 154.113281 110.050781 146.453125 80.367188 174.292969 C 50.683594 202.132812 48.722656 249.871094 48.722656 253.605469 C 48.722656 253.605469 106.316406 299.945312 109.675781 301.90625 C 112.941406 303.960938 194.804688 336.378906 209.363281 321.148438 Z M 209.363281 321.148438 " fill-opacity="1" fill-rule="nonzero"/><path fill="#ffc1a0" d="M 219.351562 298.449219 C 207.125 283.96875 185.28125 304.054688 185.28125 304.054688 L 176.136719 328.902344 C 176.136719 328.902344 182.390625 339.742188 198.539062 339.742188 C 214.871094 339.742188 231.578125 312.929688 219.351562 298.449219 Z M 219.351562 298.449219 " fill-opacity="1" fill-rule="nonzero"/><path fill="#ff8e52" d="M 191.628906 310.21875 L 187.710938 320.964844 C 187.710938 320.964844 190.417969 325.632812 197.417969 325.632812 C 204.417969 325.632812 211.699219 314.050781 206.378906 307.789062 C 201.152344 301.53125 191.628906 310.21875 191.628906 310.21875 Z M 191.628906 310.21875 " fill-opacity="1" fill-rule="nonzero"/><path fill="#ffc1a0" d="M 66.179688 296.300781 L 70.941406 270.328125 C 70.941406 270.328125 62.257812 241.929688 44.429688 248.1875 C 26.507812 254.445312 27.441406 286.023438 41.445312 294.339844 C 55.351562 302.558594 66.179688 296.300781 66.179688 296.300781 Z M 66.179688 296.300781 " fill-opacity="1" fill-rule="nonzero"/><path fill="#ff8e52" d="M 60.296875 283.59375 L 62.351562 272.289062 C 62.351562 272.289062 58.617188 259.960938 50.871094 262.667969 C 43.125 265.378906 43.496094 279.109375 49.5625 282.660156 C 55.539062 286.304688 60.296875 283.59375 60.296875 283.59375 Z M 60.296875 283.59375 " fill-opacity="1" fill-rule="nonzero"/><path fill="#ffc1a0" d="M 60.953125 241.742188 C 50.964844 267.433594 43.589844 291.816406 47.789062 305.082031 C 55.257812 328.902344 77.007812 345.53125 105.847656 353.472656 C 134.691406 361.414062 161.949219 358.050781 180.429688 341.234375 C 190.601562 331.988281 187.335938 311.902344 193.402344 288.640625 C 199.003906 267.433594 219.445312 250.804688 207.496094 222.589844 C 198.164062 200.542969 171.375 209.230469 153.265625 202.597656 C 136.464844 196.433594 121.4375 173.730469 99.410156 182.886719 C 73.925781 193.441406 69.914062 218.761719 60.953125 241.742188 Z M 60.953125 241.742188 " fill-opacity="1" fill-rule="nonzero"/><path fill="#e85d1f" d="M 123.210938 327.222656 C 122.371094 327.222656 121.53125 326.753906 121.15625 325.914062 C 117.050781 317.695312 106.035156 315.171875 94.367188 319.75 C 93.15625 320.214844 91.847656 319.65625 91.382812 318.441406 C 90.914062 317.226562 91.472656 315.917969 92.6875 315.453125 C 106.6875 309.9375 120.128906 313.394531 125.359375 323.859375 C 125.917969 324.980469 125.449219 326.382812 124.332031 327.035156 C 123.957031 327.128906 123.585938 327.222656 123.210938 327.222656 Z M 123.210938 327.222656 " fill-opacity="1" fill-rule="nonzero"/><path fill="#ff8e52" d="M 63.9375 308.351562 C 60.207031 307.511719 58.339844 311.621094 58.339844 311.621094 C 58.339844 311.621094 57.871094 303.585938 49.75 310.40625 C 56.566406 326.195312 70.007812 338.527344 87.835938 346.933594 C 86.0625 335.910156 76.820312 328.996094 77.285156 322.925781 C 77.753906 316.386719 77.472656 309.191406 73.367188 308.632812 C 69.164062 308.070312 66.925781 314.890625 66.925781 314.890625 C 66.925781 314.890625 67.671875 309.191406 63.9375 308.351562 Z M 63.9375 308.351562 " fill-opacity="1" fill-rule="nonzero"/><path fill="#632d28" d="M 168.109375 260.238281 C 168.761719 260.425781 169.507812 260.519531 170.253906 260.425781 C 170.722656 260.332031 171.09375 260.050781 171.28125 259.679688 C 171.375 259.492188 171.375 259.304688 171.375 259.117188 C 171.375 258.464844 170.722656 257.902344 170.160156 257.4375 C 167.546875 255.289062 165.214844 253.605469 163.722656 250.710938 C 162.972656 249.214844 162.226562 247.8125 161.386719 246.414062 C 160.828125 245.386719 159.707031 244.359375 158.679688 243.796875 C 157.933594 243.332031 156.90625 243.144531 156.066406 243.421875 C 154.851562 243.796875 154.105469 245.105469 154.011719 246.320312 C 153.734375 248.933594 155.132812 250.992188 156.71875 252.859375 C 159.519531 256.128906 163.90625 259.117188 168.109375 260.238281 Z M 168.109375 260.238281 " fill-opacity="1" fill-rule="nonzero"/><path fill="#632d28" d="M 94.554688 232.304688 C 96.886719 231.652344 99.222656 230.71875 100.433594 228.476562 C 101.089844 227.355469 101.183594 225.859375 100.34375 224.925781 C 99.78125 224.179688 98.941406 223.804688 98.007812 223.710938 C 96.886719 223.617188 95.394531 223.804688 94.367188 224.273438 C 92.875 225.019531 91.472656 225.765625 90.074219 226.515625 C 87.179688 228.007812 84.289062 228.101562 80.925781 228.382812 C 80.179688 228.476562 79.433594 228.570312 78.96875 229.035156 C 78.875 229.222656 78.78125 229.410156 78.78125 229.597656 C 78.78125 229.972656 78.875 230.4375 79.246094 230.8125 C 79.714844 231.277344 80.367188 231.652344 81.113281 231.839844 C 85.222656 233.335938 90.542969 233.425781 94.554688 232.304688 Z M 94.554688 232.304688 " fill-opacity="1" fill-rule="nonzero"/><path fill="#ff8e52" d="M 98.570312 290.695312 C 101.835938 289.855469 107.714844 293.589844 107.714844 293.589844 C 105.847656 289.292969 96.980469 284.621094 95.582031 287.425781 C 95.023438 288.546875 93.25 292.1875 97.074219 297.046875 C 97.074219 296.953125 95.394531 291.441406 98.570312 290.695312 Z M 98.570312 290.695312 " fill-opacity="1" fill-rule="nonzero"/><path fill="#f2957c" d="M 165.308594 324.328125 C 166.242188 320.777344 162.789062 316.757812 157.652344 315.359375 C 152.425781 313.957031 147.480469 315.636719 146.453125 319.1875 C 145.519531 322.738281 148.972656 326.753906 154.105469 328.15625 C 159.332031 329.558594 164.375 327.875 165.308594 324.328125 Z M 165.308594 324.328125 " fill-opacity="1" fill-rule="nonzero"/><path fill="#f2957c" d="M 75.046875 294.898438 C 75.980469 291.347656 72.527344 287.332031 67.390625 285.929688 C 62.257812 284.527344 57.21875 286.210938 56.191406 289.761719 C 55.257812 293.308594 58.710938 297.328125 63.84375 298.730469 C 69.074219 300.222656 74.113281 298.449219 75.046875 294.898438 Z M 75.046875 294.898438 " fill-opacity="1" fill-rule="nonzero"/><path fill="#fefefe" d="M 100.25 272.570312 C 104.074219 260.425781 99.128906 249.964844 88.394531 246.226562 C 76.167969 240.527344 62.164062 246.226562 60.578125 260.707031 C 59.273438 272.945312 66.550781 281.351562 75.511719 284.34375 C 84.472656 287.332031 96.421875 284.714844 100.25 272.570312 Z M 100.25 272.570312 " fill-opacity="1" fill-rule="nonzero"/><path fill="#632d28" d="M 101.929688 261.640625 C 97.820312 238.003906 71.59375 236.605469 65.617188 248.84375 C 65.617188 248.84375 89.328125 233.148438 101.929688 261.640625 Z M 101.929688 261.640625 " fill-opacity="1" fill-rule="nonzero"/><path fill="#632d28" d="M 96.609375 275.839844 C 98.476562 268.835938 94.367188 261.640625 87.367188 259.773438 C 80.367188 257.902344 73.179688 262.015625 71.3125 269.019531 C 69.445312 276.027344 73.554688 283.222656 80.554688 285.089844 C 87.554688 286.957031 94.742188 282.847656 96.609375 275.839844 Z M 96.609375 275.839844 " fill-opacity="1" fill-rule="nonzero"/><path fill="#1d0703" d="M 89.699219 273.972656 C 90.542969 270.796875 88.675781 267.527344 85.5 266.683594 C 82.328125 265.84375 79.058594 267.714844 78.21875 270.890625 C 77.378906 274.066406 79.246094 277.335938 82.421875 278.175781 C 85.59375 279.015625 88.859375 277.148438 89.699219 273.972656 Z M 89.699219 273.972656 " fill-opacity="1" fill-rule="nonzero"/><path fill="#fefefe" d="M 93.433594 269.582031 C 94.089844 267.058594 92.59375 264.351562 90.074219 263.695312 C 87.554688 263.042969 84.847656 264.535156 84.195312 267.058594 C 83.539062 269.582031 85.035156 272.289062 87.554688 272.945312 C 90.074219 273.691406 92.78125 272.199219 93.433594 269.582031 Z M 93.433594 269.582031 " fill-opacity="1" fill-rule="nonzero"/><path fill="#fefefe" d="M 81.019531 277.800781 C 81.394531 276.589844 80.648438 275.375 79.433594 275 C 78.21875 274.625 77.007812 275.375 76.632812 276.589844 C 76.261719 277.800781 77.007812 279.015625 78.21875 279.390625 C 79.433594 279.765625 80.742188 279.015625 81.019531 277.800781 Z M 81.019531 277.800781 " fill-opacity="1" fill-rule="nonzero"/><path fill="#fefefe" d="M 168.480469 297.515625 C 176.601562 285.464844 169.507812 272.105469 156.441406 268.554688 C 145.894531 264.441406 135.25 269.300781 130.398438 281.074219 C 125.542969 292.84375 133.011719 302.558594 141.785156 306.015625 C 150.652344 309.472656 161.667969 307.699219 168.480469 297.515625 Z M 168.480469 297.515625 " fill-opacity="1" fill-rule="nonzero"/><path fill="#632d28" d="M 172.308594 285.089844 C 175.667969 271.917969 154.574219 256.035156 136.277344 271.542969 C 164.28125 257.902344 172.308594 285.089844 172.308594 285.089844 Z M 172.308594 285.089844 " fill-opacity="1" fill-rule="nonzero"/><path fill="#632d28" d="M 161.855469 296.671875 C 163.722656 289.667969 159.613281 282.472656 152.613281 280.605469 C 145.613281 278.738281 138.425781 282.847656 136.558594 289.855469 C 134.691406 296.859375 138.796875 304.054688 145.800781 305.921875 C 152.707031 307.789062 159.894531 303.679688 161.855469 296.671875 Z M 161.855469 296.671875 " fill-opacity="1" fill-rule="nonzero"/><path fill="#1d0703" d="M 154.945312 294.804688 C 155.785156 291.628906 153.921875 288.359375 150.746094 287.519531 C 147.574219 286.675781 144.304688 288.546875 143.464844 291.722656 C 142.625 294.898438 144.492188 298.167969 147.667969 299.007812 C 150.839844 299.851562 154.105469 297.980469 154.945312 294.804688 Z M 154.945312 294.804688 " fill-opacity="1" fill-rule="nonzero"/><path fill="#fefefe" d="M 158.679688 290.414062 C 159.332031 287.890625 157.839844 285.183594 155.320312 284.527344 C 152.800781 283.875 150.09375 285.371094 149.441406 287.890625 C 148.785156 290.414062 150.28125 293.125 152.800781 293.777344 C 155.320312 294.523438 157.933594 293.03125 158.679688 290.414062 Z M 158.679688 290.414062 " fill-opacity="1" fill-rule="nonzero"/><path fill="#fefefe" d="M 146.265625 298.636719 C 146.640625 297.421875 145.894531 296.207031 144.679688 295.832031 C 143.464844 295.460938 142.253906 296.207031 141.878906 297.421875 C 141.503906 298.636719 142.253906 299.851562 143.464844 300.222656 C 144.679688 300.597656 145.894531 299.851562 146.265625 298.636719 Z M 146.265625 298.636719 " fill-opacity="1" fill-rule="nonzero"/><path fill="#ffc1a0" d="M 91.566406 240.339844 C 78.875 237.164062 64.125 240.339844 59.832031 253.511719 C 59.832031 253.511719 80.460938 274.160156 102.582031 271.449219 C 109.488281 260.425781 104.261719 243.515625 91.566406 240.339844 Z M 91.566406 240.339844 " fill-opacity="1" fill-rule="nonzero"/><path fill="#ffc1a0" d="M 173.894531 295.179688 C 180.242188 282.847656 172.027344 270.140625 160.828125 263.414062 C 149.625 256.6875 133.945312 264.910156 130.957031 277.617188 C 144.773438 295.179688 173.894531 295.179688 173.894531 295.179688 Z M 173.894531 295.179688 " fill-opacity="1" fill-rule="nonzero"/><path fill="#632d28" d="M 173.429688 293.777344 C 148.597656 293.21875 131.703125 276.308594 131.703125 276.308594 C 135.90625 291.628906 160.734375 298.542969 173.429688 293.777344 Z M 173.429688 293.777344 " fill-opacity="1" fill-rule="nonzero"/><path fill="#632d28" d="M 102.675781 271.167969 C 102.675781 271.167969 78.78125 270.890625 61.046875 253.511719 C 66.460938 265.9375 88.769531 278.921875 102.675781 271.167969 Z M 102.675781 271.167969 " fill-opacity="1" fill-rule="nonzero"/><path fill="#ffc1a0" d="M 201.617188 460.066406 C 201.617188 460.066406 257.902344 450.632812 267.328125 439.421875 C 276.757812 428.117188 271.0625 410.273438 264.53125 399.996094 C 257.996094 389.628906 211.976562 365.246094 211.976562 365.246094 C 194.804688 368.140625 183.230469 392.148438 192.285156 406.535156 C 201.710938 413.078125 216.644531 419.710938 216.644531 419.710938 L 182.855469 433.816406 Z M 201.617188 460.066406 " fill-opacity="1" fill-rule="nonzero"/><path fill="#ffc1a0" d="M 57.40625 315.078125 C 55.816406 318.253906 55.816406 320.871094 55.816406 320.871094 C 55.816406 320.871094 56.9375 317.972656 57.40625 315.078125 Z M 57.40625 315.078125 " fill-opacity="1" fill-rule="nonzero"/><path fill="#ffc1a0" d="M 3.265625 371.597656 C 0 384.300781 9.894531 397.660156 21.5625 398.78125 C 44.992188 401.117188 77.378906 353.285156 77.378906 353.285156 C 77.378906 353.285156 83.445312 352.351562 84.847656 347.214844 C 86.246094 342.078125 76.445312 327.96875 74.488281 324.234375 C 72.621094 320.496094 76.820312 314.332031 73.554688 312.460938 C 70.285156 310.59375 67.019531 314.796875 66.085938 319.933594 C 66.550781 310.5 63.285156 307.699219 59.550781 311.996094 C 58.617188 313.023438 57.964844 314.050781 57.40625 315.078125 C 56.9375 317.878906 55.816406 320.871094 55.816406 320.871094 C 55.816406 320.871094 55.816406 318.160156 57.40625 315.078125 C 57.871094 312.179688 57.683594 309.378906 54.882812 310.125 C 49.285156 311.527344 47.882812 317.132812 48.816406 322.832031 C 49.75 328.4375 56.285156 335.070312 56.285156 335.070312 C 56.191406 334.976562 6.535156 358.890625 3.265625 371.597656 Z M 3.265625 371.597656 " fill-opacity="1" fill-rule="nonzero"/><path fill="#ffc1a0" d="M 164 425.40625 C 156.71875 424.101562 142.066406 430.078125 136.09375 434.003906 C 130.117188 438.019531 126.105469 442.597656 129.464844 445.960938 C 132.824219 449.324219 152.054688 439.328125 152.054688 439.328125 C 152.054688 439.328125 131.519531 451.285156 134.132812 456.609375 C 136.746094 461.75 159.425781 449.976562 160.640625 449.324219 C 160.640625 449.324219 160.734375 449.324219 160.734375 449.324219 C 160.734375 449.324219 160.734375 449.324219 160.640625 449.324219 C 159.613281 449.882812 144.210938 458.105469 146.734375 462.589844 C 149.347656 467.261719 171.28125 457.917969 171.28125 457.917969 C 171.28125 457.917969 159.988281 463.242188 162.695312 466.511719 C 165.308594 469.875 187.242188 462.496094 187.242188 462.496094 C 187.242188 462.496094 201.804688 467.167969 209.179688 457.171875 C 193.964844 441.195312 187.242188 434.5625 187.242188 434.5625 C 187.242188 434.75 171.28125 426.714844 164 425.40625 Z M 164 425.40625 " fill-opacity="1" fill-rule="nonzero"/><path fill="#3771c8" d="M 377.007812 277.523438 C 380.179688 273.226562 383.914062 258.277344 382.328125 254.539062 C 380.738281 250.804688 353.484375 239.03125 342.84375 246.039062 C 342.84375 246.039062 339.109375 252.484375 340.136719 256.6875 C 341.164062 260.988281 337.988281 270.609375 337.988281 270.609375 C 337.988281 270.609375 373.738281 281.820312 377.007812 277.523438 Z M 377.007812 277.523438 " fill-opacity="1" fill-rule="nonzero"/><path fill="#3771c8" d="M 402.582031 261.453125 C 405.289062 259.304688 407.902344 256.6875 404.726562 254.539062 C 401.554688 252.390625 392.5 252.953125 392.5 252.953125 C 392.5 252.953125 384.007812 263.136719 387.179688 264.722656 C 390.355469 266.3125 399.875 263.601562 402.582031 261.453125 Z M 402.582031 261.453125 " fill-opacity="1" fill-rule="nonzero"/><path fill="#3771c8" d="M 348.164062 217.734375 C 347.511719 218.386719 346.855469 219.976562 346.296875 222.125 C 354.605469 222.964844 368.511719 224.738281 379.058594 227.914062 C 395.019531 232.679688 409.957031 243.890625 415.371094 248.75 C 417.421875 250.617188 419.476562 253.140625 421.34375 255.660156 C 422.929688 255.101562 423.863281 254.539062 423.863281 254.074219 C 424.421875 250.898438 409.957031 239.6875 395.582031 230.0625 C 383.914062 222.21875 361.976562 216.890625 352.457031 216.890625 C 350.308594 216.796875 348.816406 217.078125 348.164062 217.734375 Z M 348.164062 217.734375 " fill-opacity="1" fill-rule="nonzero"/></svg>