<svg xmlns="http://www.w3.org/2000/svg" xmlns:xlink="http://www.w3.org/1999/xlink" width="711" zoomAndPan="magnify" viewBox="0 0 533.25 428.99999" height="572" preserveAspectRatio="xMidYMid meet" version="1.0"><defs><clipPath id="ea1a217692"><path d="M 130 120 L 433 120 L 433 427.949219 L 130 427.949219 Z M 130 120 " clip-rule="nonzero"/></clipPath></defs><path fill="#a3e635" d="M 326.132812 4.097656 C 319.589844 1.167969 311.355469 0.289062 300.753906 1.929688 L 300.753906 1.933594 C 300.609375 1.953125 300.464844 1.964844 300.324219 1.964844 C 300.25 1.964844 300.179688 1.996094 300.128906 2.042969 L 300.105469 2.035156 C 300.019531 2.058594 299.933594 2.082031 299.847656 2.097656 L 299.84375 2.097656 C 272.746094 7.410156 243.882812 13.976562 227.484375 28.34375 C 222.242188 32.9375 217.210938 37.976562 213.261719 44.15625 C 182.8125 91.800781 163.011719 120.589844 153.078125 129 C 153.027344 129.042969 152.992188 129.105469 152.980469 129.175781 L 152.964844 129.167969 C 146.003906 138.605469 113.667969 165.425781 58.253906 210.757812 C 47.046875 219.925781 39.472656 228.570312 33.808594 235.042969 C 33.097656 235.851562 32.726562 236.273438 32.058594 237.035156 C 4.867188 267.871094 0.0820312 298.558594 17.195312 330.679688 C 25.425781 346.125 38.082031 357.855469 55.382812 365.601562 C 74.988281 374.378906 100.546875 378.039062 132.390625 376.230469 C 154.910156 374.949219 175.15625 372.578125 192.664062 367.640625 C 244.289062 353.089844 316.03125 336.078125 408.171875 317.152344 C 425.925781 313.507812 440.410156 308.152344 452.121094 303.066406 C 510.582031 277.6875 531.976562 245.082031 517.417969 206.238281 C 514.289062 197.890625 507.554688 190.113281 497.820312 185.210938 C 446.65625 159.449219 415.972656 143.738281 410.085938 134.953125 L 410.070312 134.945312 C 410.058594 134.882812 410.027344 134.828125 409.980469 134.785156 C 402.566406 128.054688 394.359375 119.558594 388.589844 107.679688 C 363.144531 55.253906 346.4375 24.222656 337.820312 13.359375 C 334.636719 9.351562 330.828125 6.199219 326.132812 4.097656 Z M 326.132812 4.097656 " fill-opacity="1" fill-rule="nonzero"/><path fill="#000000" d="M 210.660156 25.289062 C 189.109375 38.65625 166.535156 53.625 157.164062 71.203125 C 154.15625 76.835938 151.488281 82.773438 150.113281 89.324219 C 139.355469 140.515625 131.65625 171.800781 125.816406 182.019531 L 126.09375 181.320312 C 123.730469 191.039062 104.554688 224.78125 71.109375 282.710938 C 64.476562 294.199219 60.789062 304.058594 58.023438 311.449219 C 57.746094 312.195312 57.429688 313.039062 57.171875 313.726562 C 43.871094 348.933594 49.714844 376.707031 74.738281 398.644531 C 100.402344 421.140625 137.816406 422.667969 188.117188 400.308594 C 207.023438 391.902344 223.613281 383.304688 237.019531 373.402344 C 276.613281 344.152344 332.671875 306.265625 405.621094 260.109375 C 419.65625 251.230469 430.339844 241.945312 438.730469 233.789062 C 480.644531 193.058594 488.296875 158.292969 463.335938 129.84375 C 457.988281 123.746094 449.742188 119.285156 439.859375 118.246094 C 386.472656 112.621094 354.683594 109.058594 347.613281 103.144531 L 348.355469 103.582031 C 339.71875 100.199219 329.738281 95.542969 320.785156 87.074219 C 281.921875 50.328125 257.53125 29.140625 246.640625 22.632812 C 237.066406 16.914062 226.046875 16.550781 211.378906 24.855469 C 210.089844 25.585938 208.449219 25.132812 207.71875 23.84375 C 206.988281 22.554688 207.445312 20.917969 208.734375 20.1875 C 224.6875 11.152344 237.808594 11.105469 249.394531 18.027344 C 260.910156 24.90625 285.785156 46.59375 324.472656 83.175781 C 332.6875 90.941406 341.917969 95.292969 350.3125 98.585938 C 350.582031 98.691406 350.835938 98.839844 351.054688 99.027344 C 356.472656 103.554688 385.460938 107.117188 440.421875 112.90625 C 451.574219 114.082031 461.085938 119.136719 467.371094 126.304688 C 495.324219 158.167969 484.960938 196.347656 442.46875 237.640625 C 433.898438 245.972656 422.925781 255.511719 408.492188 264.644531 C 335.601562 310.765625 279.65625 348.574219 240.207031 377.71875 C 226.339844 387.964844 209.332031 396.753906 190.296875 405.214844 C 139.195312 427.933594 99.179688 427.210938 71.199219 402.679688 C 44.234375 379.042969 38.1875 348.792969 52.148438 311.832031 C 52.414062 311.132812 52.710938 310.335938 52.996094 309.570312 C 55.773438 302.144531 59.589844 291.929688 66.460938 280.027344 C 100.269531 221.464844 118.753906 188.78125 120.878906 180.050781 C 120.9375 179.808594 121.03125 179.574219 121.15625 179.355469 C 126.460938 170.074219 133.996094 139.925781 144.859375 88.21875 C 146.386719 80.953125 149.316406 74.503906 152.425781 68.675781 C 162.609375 49.578125 186.609375 33.890625 207.832031 20.726562 C 209.09375 19.945312 210.746094 20.335938 211.527344 21.59375 C 212.308594 22.851562 211.921875 24.507812 210.660156 25.289062 Z M 210.660156 25.289062 " fill-opacity="1" fill-rule="nonzero"/><path fill="#641ac9" d="M 263.679688 159.765625 C 256.824219 161.894531 247.1875 160.96875 240.054688 151.523438 C 233.015625 142.078125 231.4375 111.796875 231.4375 111.796875 C 231.4375 111.796875 237.367188 105.871094 246.820312 105.683594 C 256.269531 105.5 257.84375 107.816406 257.84375 107.816406 C 258.214844 112.722656 262.382812 129.300781 262.382812 129.300781 C 262.382812 129.300781 262.382812 129.300781 267.109375 114.390625 C 271.832031 99.480469 297.589844 96.515625 297.589844 96.515625 L 329.460938 97.074219 L 332.148438 97.257812 L 332.054688 90.035156 C 332.054688 90.035156 342.339844 87.070312 352.34375 97.722656 C 364.109375 110.316406 368.464844 182.363281 368.464844 182.363281 C 368.464844 182.363281 357.253906 190.046875 336.871094 184.675781 L 339.097656 162.542969 C 338.632812 162.636719 338.261719 162.730469 337.707031 162.730469 C 319.640625 165.691406 283.601562 169.210938 283.601562 169.210938 C 277.671875 154.488281 276.742188 143.003906 276.742188 143.003906 C 276.742188 143.003906 270.628906 157.542969 263.679688 159.765625 Z M 146.664062 161.894531 C 146.664062 161.894531 140.179688 172.359375 116.925781 168.378906 C 116.925781 168.378906 103.304688 170.695312 96.636719 178.378906 C 96.636719 178.378906 82.183594 199.585938 91.261719 226.535156 C 96.914062 243.386719 105.902344 247.277344 105.902344 247.277344 C 105.902344 247.277344 137.03125 248.667969 147.777344 249.039062 C 158.617188 249.40625 168.808594 226.628906 166.863281 204.03125 C 164.917969 181.34375 146.664062 161.894531 146.664062 161.894531 Z M 420.71875 247.277344 L 368.742188 239.222656 L 334.464844 261.632812 L 259.789062 309.695312 C 259.789062 309.695312 256.824219 319.695312 269.515625 342.753906 C 282.210938 365.8125 302.316406 371.089844 302.316406 371.089844 C 304.632812 366.273438 313.988281 353.496094 324.363281 340.160156 C 320.84375 366.183594 316.675781 397.761719 316.675781 397.761719 C 316.675781 397.761719 355.125 416.28125 388.753906 391.464844 L 370.597656 305.433594 C 395.332031 322.84375 422.757812 310.34375 430.167969 292.5625 C 438.785156 271.910156 420.71875 247.277344 420.71875 247.277344 Z M 420.71875 247.277344 " fill-opacity="1" fill-rule="nonzero"/><path fill="#f9c994" d="M 204.664062 193.753906 L 201.882812 160.136719 L 223.378906 160.136719 L 220.785156 192.828125 Z M 224.210938 106.425781 C 230.140625 108.832031 236.164062 108 236.164062 108 C 236.164062 108 236.164062 110.128906 236.257812 113.371094 C 236.257812 113.371094 239.3125 114.390625 243.484375 114.203125 C 247.652344 114.019531 252.75 111.054688 252.75 111.054688 C 250.433594 105.964844 248.300781 101.519531 246.910156 99.574219 C 245.984375 98.371094 244.78125 97.535156 243.296875 97.257812 C 242.558594 97.074219 241.539062 96.886719 240.519531 96.886719 C 239.5 94.015625 237.554688 89.109375 235.886719 89.570312 C 235.050781 89.757812 234.402344 92.074219 233.941406 93.925781 L 233.753906 93.738281 C 233.753906 93.738281 230.976562 86.144531 229.679688 86.332031 C 228.566406 86.515625 227.824219 87.441406 228.382812 91.238281 C 227.546875 89.015625 225.878906 85.21875 224.953125 85.40625 C 223.65625 85.589844 222.914062 86.792969 223.933594 91.792969 C 222.914062 89.851562 221.617188 87.71875 220.96875 87.90625 C 219.859375 88.089844 219.210938 89.109375 220.042969 92.8125 C 218.28125 90.960938 217.355469 90.867188 216.984375 92.8125 C 216.984375 92.8125 217.171875 103.371094 224.210938 106.425781 Z M 296.109375 82.625 L 298.054688 97.90625 L 310.003906 102.90625 L 329.277344 96.980469 L 331.960938 75.496094 C 332.054688 75.496094 332.148438 75.589844 332.242188 75.589844 C 338.167969 76.976562 344.007812 73.457031 345.488281 67.625 C 346.878906 61.882812 343.359375 56.050781 337.613281 54.566406 C 337.613281 54.566406 337.613281 54.566406 337.613281 54.476562 C 336.503906 54.195312 343.542969 28.546875 315.5625 18.542969 C 289.898438 9.375 285.269531 29.378906 279.429688 40.304688 C 279.246094 40.675781 277.671875 47.898438 277.207031 51.695312 C 275.632812 64.292969 280.171875 77.625 296.109375 82.625 Z M 297.683594 163.933594 L 273.128906 163.933594 L 274.890625 201.902344 L 295.089844 199.492188 Z M 178.816406 261.167969 L 161.398438 246.074219 L 105.902344 247.277344 C 105.902344 247.277344 85.054688 279.96875 103.585938 297.285156 C 122.113281 314.601562 157.136719 304.785156 157.136719 304.785156 L 148.425781 386.925781 C 148.425781 386.925781 164.546875 392.851562 185.394531 387.667969 L 190.023438 327.382812 L 214.113281 389.703125 C 214.113281 389.703125 237.738281 392.480469 254.230469 379.515625 L 214.484375 262.648438 Z M 410.804688 213.105469 L 410.15625 217.179688 L 369.671875 207.921875 C 369.023438 205.976562 368.742188 204.402344 366.984375 202.640625 C 369.207031 199.679688 371.429688 197.917969 372.914062 193.9375 C 375.042969 188.195312 376.804688 182.175781 379.582031 174.953125 C 379.769531 188.75 389.035156 199.957031 389.035156 199.957031 C 418.402344 187.175781 421.183594 173.472656 421.183594 173.472656 L 417.199219 171.0625 L 417.847656 159.210938 C 422.292969 157.265625 423.960938 156.433594 425.074219 155.320312 C 425.351562 155.507812 425.628906 155.597656 426 155.691406 C 432.113281 157.636719 437.488281 152.730469 439.339844 146.617188 C 441.195312 140.691406 441.378906 132.820312 435.359375 130.875 C 435.359375 130.78125 434.0625 129.207031 434.0625 129.207031 C 437.859375 118 428.59375 99.480469 420.070312 90.683594 C 411.546875 81.886719 396.910156 84.015625 383.382812 87.628906 C 369.855469 91.238281 370.6875 114.945312 370.6875 114.945312 C 370.6875 114.945312 369.113281 121.707031 368.1875 125.78125 C 368.003906 126.707031 367.910156 127.539062 367.726562 128.375 C 367.261719 128.097656 366.707031 128.28125 365.871094 128.835938 C 365.871094 128.835938 358.550781 138.28125 360.867188 145.042969 C 363.183594 151.800781 369.023438 155.878906 369.023438 155.878906 C 369.023438 155.878906 353.457031 171.433594 344.007812 184.121094 L 336.964844 184.585938 C 336.964844 184.585938 321.679688 189.585938 324.550781 191.992188 C 327.421875 194.402344 335.574219 189.492188 335.574219 189.492188 C 335.574219 189.492188 327.421875 196.4375 328.628906 198.660156 C 329.367188 200.050781 333.816406 198.289062 336.964844 196.714844 C 336.871094 196.902344 336.871094 196.992188 336.871094 197.085938 C 335.945312 205.882812 336.132812 211.253906 341.96875 212.644531 C 341.78125 214.3125 341.875 216.347656 341.875 216.347656 C 338.539062 218.386719 344.191406 222.644531 344.191406 222.644531 C 347.898438 229.960938 360.21875 226.535156 360.21875 226.535156 C 360.21875 226.535156 385.234375 247.742188 416.828125 245.980469 C 444.066406 246.351562 442.121094 211.902344 442.304688 211.625 C 422.941406 218.292969 410.804688 213.105469 410.804688 213.105469 Z M 289.53125 260.335938 L 313.617188 260.148438 L 315.191406 220.328125 L 287.398438 220.421875 Z M 289.53125 260.335938 " fill-opacity="1" fill-rule="nonzero"/><path fill="#bf6070" d="M 178.722656 107.351562 L 179.832031 98.460938 C 175.292969 93 168.902344 77.8125 172.328125 77.070312 C 175.757812 76.328125 178.628906 83.273438 178.628906 83.273438 L 179.464844 79.847656 C 179.464844 79.847656 179.09375 63.644531 183.261719 64.847656 C 187.339844 66.050781 186.597656 78.828125 186.597656 78.828125 C 186.597656 78.828125 186.691406 78.828125 186.78125 78.828125 C 186.875 78.644531 186.875 78.460938 186.96875 78.273438 C 187.246094 77.441406 187.988281 76.886719 188.820312 76.976562 C 189.746094 77.070312 190.671875 77.535156 191.230469 78.460938 C 193.730469 78.273438 195.121094 79.109375 196.601562 80.867188 C 200.773438 82.625 200.585938 86.144531 199.660156 89.664062 C 200.03125 95.40625 195.675781 99.945312 195.675781 99.945312 L 195.121094 109.390625 C 195.121094 109.390625 199.011719 141.152344 195.953125 151.339844 C 193.359375 159.859375 175.480469 180.878906 164.175781 191.808594 C 164.175781 191.808594 158.246094 175.324219 146.480469 161.894531 L 169.828125 140.132812 Z M 194.195312 222.273438 C 187.246094 218.476562 168.253906 220.328125 168.253906 220.328125 C 168.253906 220.328125 149.351562 223.292969 135.457031 227.738281 C 135.457031 227.738281 124.152344 192.457031 111.921875 176.25 C 110.070312 173.84375 106.917969 172.824219 104.046875 173.75 C 99.785156 175.230469 93.949219 178.84375 92.375 187.917969 C 89.964844 201.4375 95.894531 220.976562 103.863281 234.5 C 111.828125 248.113281 115.628906 257.558594 131.285156 255.148438 C 146.109375 252.925781 171.679688 240.054688 174.089844 238.664062 C 175.851562 238.757812 180.945312 238.851562 183.726562 235.703125 C 183.726562 235.703125 185.394531 245.148438 188.914062 245.425781 C 191.601562 245.609375 192.339844 244.128906 191.878906 241.257812 C 192.527344 244.40625 193.453125 246.445312 195.769531 245.796875 C 197.621094 245.242188 197.53125 243.019531 196.882812 239.871094 C 197.714844 242.832031 199.382812 245.703125 201.328125 244.964844 C 203.273438 244.222656 202.53125 240.886719 201.882812 238.296875 C 202.625 240.238281 203.644531 241.8125 204.570312 241.628906 C 206.886719 241.074219 205.496094 228.570312 194.195312 222.273438 Z M 222.453125 179.492188 L 223.285156 168.5625 L 201.792969 168.5625 L 202.71875 179.492188 L 202.347656 181.714844 L 203.738281 180.972656 L 221.617188 180.972656 L 223.101562 181.621094 Z M 177.332031 389.054688 C 177.332031 389.054688 168.34375 389.425781 163.25 389.242188 C 156.671875 389.054688 150.558594 387.480469 150.558594 387.480469 C 150.558594 387.480469 150.742188 388.128906 149.445312 400.632812 C 157.136719 406.835938 175.203125 414.246094 188.265625 413.316406 C 199.847656 412.484375 201.882812 404.890625 203.460938 401.464844 C 192.339844 397.390625 176.5 394.242188 176.5 394.242188 Z M 101.917969 153.007812 C 102.75 154.023438 103.675781 155.136719 104.601562 156.246094 C 104.601562 156.246094 108.402344 159.210938 114.980469 160.785156 C 116.277344 164.117188 118.222656 169.210938 118.222656 169.210938 L 112.847656 170.695312 C 112.847656 170.695312 122.484375 173.566406 129.894531 173.007812 L 147.871094 167.175781 L 143.980469 167.082031 L 145.832031 154.949219 C 160.191406 145.875 165.9375 128.097656 158.617188 112.445312 C 149.722656 93.277344 141.941406 83.644531 132.027344 81.144531 C 122.113281 78.644531 81.441406 97.535156 86.722656 117.355469 C 88.296875 123.09375 81.625 125.226562 82.921875 129.207031 C 82.738281 129.300781 79.496094 132.078125 79.402344 132.171875 C 73.566406 135.410156 73.195312 145.691406 76.4375 151.523438 C 79.679688 157.171875 96.078125 156.15625 101.917969 153.007812 Z M 200.125 161.894531 L 225.230469 161.894531 L 225.230469 157.359375 L 221.0625 157.359375 L 221.0625 154.859375 L 204.199219 154.859375 L 204.199219 157.359375 L 200.125 157.359375 Z M 297.589844 187.824219 L 297.683594 173.933594 L 273.128906 173.933594 L 273.871094 187.734375 Z M 299.90625 160.785156 L 295.179688 160.785156 L 295.179688 157.914062 L 275.910156 157.914062 L 275.910156 160.785156 L 271.183594 160.785156 L 271.183594 165.601562 L 299.90625 165.601562 Z M 224.121094 100.128906 C 224.210938 100.222656 224.304688 100.222656 224.304688 100.3125 L 224.398438 100.3125 C 224.398438 100.3125 224.398438 100.3125 224.492188 100.3125 C 224.582031 100.3125 234.496094 98.183594 238.386719 101.703125 C 238.480469 101.796875 238.574219 101.796875 238.664062 101.796875 C 238.757812 101.796875 238.945312 101.703125 239.035156 101.609375 C 239.222656 101.425781 239.222656 101.148438 239.035156 100.960938 C 235.886719 98.09375 229.402344 98.554688 226.25 99.019531 C 227.546875 98.183594 229.863281 97.164062 233.292969 96.796875 C 236.257812 96.425781 239.3125 96.703125 241.816406 97.351562 C 242.09375 97.445312 242.277344 97.257812 242.371094 96.980469 C 242.464844 96.703125 242.277344 96.515625 242 96.425781 C 239.3125 95.683594 236.164062 95.5 233.105469 95.871094 C 232.828125 95.871094 232.550781 95.960938 232.179688 95.960938 C 232.179688 95.871094 232.085938 95.871094 231.996094 95.777344 C 230.789062 95.035156 228.9375 91.886719 228.382812 90.683594 C 228.289062 90.5 228.011719 90.40625 227.734375 90.5 C 227.546875 90.589844 227.457031 90.867188 227.546875 91.144531 C 227.640625 91.332031 229.402344 94.664062 230.976562 96.148438 C 229.957031 96.332031 229.121094 96.609375 228.382812 96.886719 C 228.382812 96.796875 228.289062 96.703125 228.195312 96.609375 C 226.992188 95.871094 225.140625 92.722656 224.582031 91.515625 C 224.492188 91.332031 224.210938 91.238281 223.933594 91.332031 C 223.75 91.425781 223.65625 91.703125 223.75 91.980469 C 223.84375 92.164062 225.878906 95.960938 227.457031 97.257812 C 225.878906 97.90625 224.859375 98.648438 224.398438 99.109375 L 220.597656 94.296875 C 220.414062 94.109375 220.136719 94.015625 219.949219 94.203125 C 219.765625 94.386719 219.671875 94.664062 219.859375 94.851562 Z M 383.660156 160.136719 C 383.660156 160.507812 383.289062 161.617188 383.195312 161.894531 C 382.363281 163.65625 381.621094 166.339844 380.417969 169.582031 C 381.898438 169.582031 385.882812 169.769531 386.71875 169.859375 L 385.511719 161.15625 Z M 417.847656 122.355469 C 417.011719 118.835938 412.566406 115.132812 407.5625 114.945312 C 406.820312 114.945312 404.226562 115.039062 404.414062 116.335938 C 404.597656 117.261719 405.523438 117.722656 406.820312 118.09375 C 409.136719 118.835938 411.269531 119.855469 413.214844 121.152344 C 417.011719 123.835938 417.753906 123.652344 417.847656 122.355469 Z M 386.070312 109.296875 C 381.621094 107.351562 376.25 108.925781 374.023438 111.796875 C 373.5625 113 374.117188 113.371094 378.5625 112.628906 C 380.789062 112.261719 383.105469 112.167969 385.421875 112.445312 C 386.71875 112.628906 387.738281 112.628906 388.199219 111.796875 C 388.941406 110.6875 386.71875 109.574219 386.070312 109.296875 Z M 457.316406 146.894531 C 457.5 146.894531 457.6875 146.894531 457.871094 146.894531 C 465.5625 146.894531 471.769531 140.691406 471.769531 133.003906 C 471.769531 125.316406 465.5625 119.113281 457.871094 119.113281 C 456.480469 119.113281 455.09375 119.296875 453.886719 119.667969 C 454.351562 104.109375 447.957031 77.164062 416.457031 75.960938 C 416.457031 75.960938 374.859375 62.347656 366.613281 103.09375 C 366.613281 103.09375 358.460938 121.152344 362.445312 134.761719 C 362.445312 134.761719 366.425781 129.761719 367.632812 128.558594 C 367.632812 128.558594 372.171875 120.964844 370.96875 108.371094 C 370.96875 107.90625 382.734375 104.574219 390.144531 92.257812 C 390.421875 91.886719 393.851562 108.277344 402.652344 111.425781 C 414.417969 115.59375 416.363281 103.183594 416.363281 103.183594 C 416.363281 103.183594 416.457031 117.261719 420.625 119.945312 C 422.480469 121.335938 424.425781 121.335938 424.425781 121.335938 C 424.425781 121.335938 421.460938 128.652344 424.054688 132.261719 C 424.054688 132.261719 432.949219 129.390625 437.765625 136.617188 C 440.730469 143.097656 439.25 148.652344 434.894531 151.894531 C 429.800781 155.691406 423.5 153.375 423.5 153.375 C 421.460938 156.804688 415.347656 159.117188 415.347656 159.117188 L 414.511719 169.121094 C 432.484375 172.636719 436.46875 180.789062 436.46875 180.789062 L 451.386719 205.976562 C 447.21875 209.867188 440.640625 211.164062 440.640625 211.164062 C 442.398438 226.441406 433.414062 237.089844 433.414062 237.089844 C 444.160156 246.351562 451.015625 239.222656 451.015625 239.222656 L 452.683594 237.925781 C 457.410156 238.851562 464.914062 236.90625 464.914062 236.90625 C 477.328125 212.457031 461.113281 195.605469 461.113281 195.605469 C 461.113281 195.605469 470.285156 183.472656 470.007812 170.785156 C 469.730469 159.027344 462.597656 153.097656 457.316406 146.894531 Z M 361.148438 144.207031 C 361.148438 144.207031 356.605469 155.507812 362.074219 163.101562 C 366.058594 158.839844 369.949219 155.230469 369.949219 155.230469 C 369.949219 155.230469 363.460938 150.96875 361.148438 144.207031 Z M 311.023438 212.457031 L 290.363281 214.03125 L 290.363281 217.089844 L 285.359375 217.089844 L 284.804688 222.921875 L 317.417969 222.273438 L 317.417969 216.996094 L 313.15625 214.867188 Z M 288.695312 246.351562 L 314.175781 246.351562 L 315.285156 231.351562 L 287.398438 231.257812 Z M 361.515625 175.230469 L 358.644531 174.582031 C 358.089844 174.492188 357.535156 174.769531 357.441406 175.324219 L 353.921875 190.046875 L 351.417969 200.605469 C 352.992188 200.140625 353.921875 200.699219 353.921875 200.699219 C 353.921875 200.699219 352.53125 196.902344 355.03125 196.34375 C 355.496094 196.253906 356.328125 196.34375 357.253906 196.714844 L 357.535156 196.902344 L 362.351562 176.527344 C 362.445312 175.972656 362.074219 175.417969 361.515625 175.230469 Z M 249.136719 390.539062 L 247.558594 383.777344 C 247.558594 383.777344 240.703125 386.277344 235.144531 387.667969 C 228.105469 389.425781 221.804688 389.890625 221.804688 389.890625 C 221.804688 389.890625 222.636719 393.316406 225.601562 405.539062 C 235.886719 407.945312 252.75 408.6875 264.792969 403.503906 C 275.445312 398.871094 276.464844 392.203125 276.835938 388.5 C 265.070312 388.222656 249.136719 390.539062 249.136719 390.539062 Z M 249.136719 390.539062 " fill-opacity="1" fill-rule="nonzero"/><path fill="#3d1937" d="M 307.597656 51.605469 C 306.207031 53.457031 305.648438 55.492188 305.648438 55.492188 C 305.648438 55.679688 305.742188 55.769531 305.835938 55.863281 C 306.019531 55.863281 306.113281 55.769531 306.207031 55.679688 C 306.207031 55.679688 306.667969 53.640625 308.058594 51.976562 C 309.542969 50.121094 311.394531 49.289062 313.523438 49.382812 C 312.691406 50.03125 312.042969 51.046875 311.765625 52.4375 C 311.300781 54.84375 313.0625 57.066406 315.378906 57.347656 C 317.417969 57.625 319.363281 56.140625 319.917969 54.105469 C 320.566406 55.679688 320.660156 56.976562 320.660156 56.976562 C 320.660156 57.160156 320.75 57.253906 320.9375 57.253906 C 321.121094 57.253906 321.214844 57.066406 321.214844 56.976562 C 321.214844 56.882812 320.660156 50.308594 315.285156 49.011719 C 311.394531 48.085938 308.984375 49.9375 307.597656 51.605469 Z M 307.597656 51.605469 " fill-opacity="1" fill-rule="nonzero"/><path fill="#3d1937" d="M 277.484375 160.601562 C 277.484375 160.878906 277.671875 161.0625 277.949219 161.0625 L 293.421875 161.0625 C 293.699219 161.0625 293.882812 160.878906 293.882812 160.601562 C 293.882812 160.320312 293.699219 160.136719 293.421875 160.136719 L 277.949219 160.136719 C 277.671875 160.136719 277.484375 160.320312 277.484375 160.601562 Z M 277.484375 160.601562 " fill-opacity="1" fill-rule="nonzero"/><path fill="#3d1937" d="M 292.679688 217.089844 C 292.679688 217.367188 292.863281 217.550781 293.144531 217.550781 L 308.613281 217.550781 C 308.894531 217.550781 309.078125 217.367188 309.078125 217.089844 C 309.078125 216.8125 308.894531 216.625 308.613281 216.625 L 293.144531 216.625 C 292.863281 216.625 292.679688 216.8125 292.679688 217.089844 Z M 292.679688 217.089844 " fill-opacity="1" fill-rule="nonzero"/><path fill="#3d1937" d="M 295.179688 82.8125 C 296.476562 83.273438 297.867188 83.644531 299.257812 84.015625 C 303.054688 84.941406 306.578125 85.3125 309.632812 85.3125 C 317.878906 85.3125 323.808594 82.625 327.792969 80.035156 C 327.976562 79.847656 328.070312 79.570312 327.886719 79.386719 C 327.699219 79.199219 327.421875 79.109375 327.238281 79.292969 C 321.957031 82.90625 312.875 86.421875 299.441406 83.183594 C 298.054688 82.8125 296.757812 82.441406 295.457031 81.980469 C 295.179688 81.886719 294.996094 81.980469 294.902344 82.257812 C 294.808594 82.441406 294.902344 82.71875 295.179688 82.8125 Z M 295.179688 82.8125 " fill-opacity="1" fill-rule="nonzero"/><path fill="#3d1937" d="M 296.476562 38.730469 C 297.125 37.621094 294.902344 36.695312 294.347656 36.417969 C 289.992188 34.84375 284.988281 36.601562 283.136719 39.378906 C 282.765625 40.585938 283.320312 40.863281 287.398438 39.9375 C 289.53125 39.472656 291.660156 39.289062 293.882812 39.472656 C 295.089844 39.566406 296.015625 39.566406 296.476562 38.730469 Z M 296.476562 38.730469 " fill-opacity="1" fill-rule="nonzero"/><path fill="#3d1937" d="M 297.960938 60.402344 C 298.886719 60.863281 299.628906 61.140625 299.722656 61.140625 C 299.90625 61.234375 300.089844 61.140625 300.089844 60.957031 C 300.183594 60.773438 300.089844 60.585938 299.90625 60.585938 C 299.8125 60.585938 294.53125 58.828125 294.625 55.585938 C 294.625 54.660156 294.902344 54.011719 295.457031 53.550781 C 296.199219 52.902344 297.589844 52.714844 299.441406 52.902344 C 300.738281 53.085938 301.945312 51.976562 302.316406 50.863281 C 302.777344 49.472656 302.964844 47.992188 302.777344 46.511719 C 302.777344 46.324219 302.59375 46.234375 302.40625 46.234375 C 302.222656 46.234375 302.128906 46.417969 302.128906 46.605469 C 302.222656 48.085938 302.128906 49.382812 301.667969 50.679688 C 301.386719 51.605469 300.554688 52.4375 299.535156 52.34375 C 297.496094 52.066406 296.015625 52.34375 295.089844 53.085938 C 294.441406 53.640625 294.070312 54.476562 294.070312 55.585938 C 293.976562 57.992188 296.292969 59.566406 297.960938 60.402344 Z M 297.960938 60.402344 " fill-opacity="1" fill-rule="nonzero"/><path fill="#3d1937" d="M 264.238281 139.023438 C 264.605469 138.929688 264.699219 138.746094 264.699219 138.46875 L 262.847656 129.113281 C 262.753906 128.835938 262.570312 128.742188 262.289062 128.742188 C 262.011719 128.835938 261.921875 129.023438 261.921875 129.300781 L 263.773438 138.652344 C 263.773438 138.929688 263.957031 139.023438 264.238281 139.023438 Z M 264.238281 139.023438 " fill-opacity="1" fill-rule="nonzero"/><path fill="#3d1937" d="M 186.226562 89.480469 C 186.691406 89.664062 187.152344 89.664062 187.523438 89.480469 C 188.171875 89.203125 188.636719 88.367188 189.097656 87.441406 C 188.820312 89.851562 189.007812 92.351562 190.210938 93.183594 C 190.582031 93.460938 190.953125 93.460938 191.320312 93.367188 C 192.527344 92.90625 193.824219 90.3125 194.75 87.90625 C 194.472656 90.035156 194.472656 92.351562 195.304688 93.367188 C 195.675781 93.832031 196.140625 94.015625 196.695312 94.015625 C 197.066406 94.015625 197.34375 93.925781 197.714844 93.832031 C 198.640625 93.367188 199.476562 92.164062 199.9375 90.21875 C 200.585938 87.996094 201.050781 85.496094 200.125 83.460938 C 200.03125 83.273438 199.847656 83.273438 199.753906 83.273438 C 199.566406 83.367188 199.566406 83.554688 199.566406 83.644531 C 200.402344 85.496094 199.9375 87.90625 199.289062 90.035156 C 198.640625 92.351562 197.714844 93.460938 196.601562 93.460938 C 196.234375 93.460938 195.953125 93.277344 195.675781 93 C 194.101562 90.960938 196.140625 83.367188 196.140625 83.183594 C 196.140625 82.996094 196.046875 82.90625 195.953125 82.8125 C 195.769531 82.8125 195.675781 82.90625 195.585938 82.996094 C 194.933594 85.496094 192.804688 92.074219 191.042969 92.722656 C 190.859375 92.8125 190.671875 92.8125 190.488281 92.628906 C 189.097656 91.703125 189.5625 87.628906 190.117188 84.480469 C 190.582031 82.90625 190.765625 81.515625 190.765625 81.421875 C 190.765625 81.238281 190.671875 81.144531 190.582031 81.050781 C 190.394531 81.050781 190.304688 81.144531 190.210938 81.238281 C 190.117188 81.609375 189.839844 82.8125 189.46875 84.386719 C 188.914062 86.332031 188.171875 88.277344 187.152344 88.832031 C 186.875 88.925781 186.597656 88.925781 186.320312 88.832031 C 184.746094 87.996094 185.671875 82.90625 187.058594 78.273438 C 187.152344 78.089844 187.058594 77.996094 186.875 77.902344 C 186.691406 77.8125 186.597656 77.902344 186.503906 78.089844 C 185.484375 81.980469 183.910156 88.367188 186.226562 89.480469 Z M 186.226562 89.480469 " fill-opacity="1" fill-rule="nonzero"/><path fill="#3d1937" d="M 206.238281 157.636719 L 218.746094 157.636719 C 219.023438 157.636719 219.210938 157.453125 219.210938 157.171875 C 219.210938 156.894531 219.023438 156.710938 218.746094 156.710938 L 206.238281 156.710938 C 205.960938 156.710938 205.773438 156.894531 205.773438 157.171875 C 205.773438 157.453125 205.960938 157.636719 206.238281 157.636719 Z M 206.238281 157.636719 " fill-opacity="1" fill-rule="nonzero"/><path fill="#3d1937" d="M 293.421875 52.902344 C 293.605469 52.902344 293.699219 52.808594 293.792969 52.621094 C 293.792969 52.53125 294.625 46.789062 290.269531 44.660156 C 287.027344 43.085938 284.617188 44.195312 283.136719 45.398438 C 281.5625 46.695312 280.726562 48.269531 280.726562 48.363281 C 280.636719 48.546875 280.726562 48.640625 280.820312 48.734375 C 281.003906 48.824219 281.097656 48.734375 281.191406 48.640625 C 281.191406 48.640625 282.023438 47.066406 283.507812 45.863281 C 285.082031 44.660156 286.75 44.195312 288.511719 44.660156 C 287.769531 45.03125 287.121094 45.769531 286.65625 46.789062 C 285.824219 48.824219 286.933594 51.046875 288.882812 51.789062 C 290.457031 52.34375 292.214844 51.695312 293.234375 50.214844 C 293.421875 51.511719 293.234375 52.4375 293.234375 52.53125 C 293.144531 52.714844 293.234375 52.902344 293.421875 52.902344 Z M 293.421875 52.902344 " fill-opacity="1" fill-rule="nonzero"/><path fill="#3d1937" d="M 276.742188 143.46875 C 276.835938 143.46875 276.835938 143.46875 276.929688 143.46875 C 277.207031 143.375 277.300781 143.097656 277.207031 142.820312 C 277.207031 142.726562 273.128906 132.820312 278.320312 118.929688 C 278.410156 118.648438 278.320312 118.464844 278.042969 118.371094 C 277.761719 118.28125 277.578125 118.371094 277.484375 118.648438 C 272.203125 132.820312 276.1875 142.726562 276.375 143.191406 C 276.375 143.375 276.558594 143.46875 276.742188 143.46875 Z M 276.742188 143.46875 " fill-opacity="1" fill-rule="nonzero"/><path fill="#3d1937" d="M 320.75 46.324219 C 324.179688 49.011719 324.828125 48.917969 325.015625 47.714844 C 324.457031 44.289062 320.472656 40.492188 315.75 40.121094 C 315.007812 40.121094 312.597656 40.027344 312.691406 41.234375 C 312.785156 42.160156 313.617188 42.621094 314.824219 43.085938 C 317.046875 43.824219 318.992188 44.9375 320.75 46.324219 Z M 320.75 46.324219 " fill-opacity="1" fill-rule="nonzero"/><path fill="#3d1937" d="M 231.253906 112.167969 C 231.347656 112.261719 234.589844 113.835938 239.5 114.203125 C 240.054688 114.203125 240.609375 114.296875 241.167969 114.296875 C 245.613281 114.296875 251.730469 113.09375 258.121094 108.277344 C 258.308594 108.09375 258.398438 107.816406 258.214844 107.628906 C 258.027344 107.445312 257.75 107.351562 257.566406 107.539062 C 244.222656 117.722656 231.808594 111.519531 231.71875 111.425781 C 231.53125 111.335938 231.253906 111.425781 231.070312 111.613281 C 230.882812 111.796875 230.976562 112.074219 231.253906 112.167969 Z M 231.253906 112.167969 " fill-opacity="1" fill-rule="nonzero"/><path fill="#3d1937" d="M 422.015625 148.5625 C 422.109375 148.5625 422.109375 148.5625 422.203125 148.5625 C 422.386719 148.46875 422.480469 148.285156 422.386719 148.191406 C 421.832031 146.710938 421.738281 145.136719 422.203125 143.5625 C 422.386719 143.003906 422.574219 142.542969 422.851562 142.078125 C 424.054688 141.800781 425.257812 141.800781 426.464844 142.171875 C 428.222656 142.726562 429.707031 143.929688 430.539062 145.597656 C 430.539062 145.691406 430.632812 145.691406 430.726562 145.785156 C 430.816406 145.785156 430.910156 145.785156 430.910156 145.785156 C 431.097656 145.691406 431.097656 145.503906 431.003906 145.414062 C 430.078125 143.5625 428.5 142.265625 426.554688 141.707031 C 425.445312 141.339844 424.332031 141.339844 423.3125 141.523438 C 424.980469 139.207031 428.039062 138.097656 430.816406 138.929688 C 433.597656 139.765625 435.542969 142.355469 435.636719 145.414062 C 435.636719 145.597656 435.820312 145.691406 435.914062 145.691406 C 436.097656 145.691406 436.191406 145.503906 436.191406 145.414062 C 436.097656 142.171875 433.96875 139.300781 430.910156 138.375 C 427.574219 137.355469 424.054688 138.839844 422.292969 141.800781 C 422.203125 141.800781 422.203125 141.894531 422.203125 141.988281 C 421.925781 142.449219 421.644531 143.003906 421.460938 143.5625 C 420.996094 145.226562 420.996094 146.988281 421.644531 148.5625 C 421.832031 148.46875 421.925781 148.46875 422.015625 148.5625 Z M 422.015625 148.5625 " fill-opacity="1" fill-rule="nonzero"/><path fill="#3d1937" d="M 396.722656 162.359375 C 392.832031 162.265625 389.40625 161.804688 386.347656 161.0625 C 386.160156 161.0625 385.976562 161.15625 385.976562 161.339844 C 385.976562 161.527344 386.070312 161.710938 386.253906 161.710938 C 389.3125 162.453125 392.832031 162.914062 396.722656 163.007812 C 405.15625 163.285156 412.472656 161.617188 418.679688 158.007812 C 418.867188 157.914062 418.867188 157.730469 418.773438 157.542969 C 418.679688 157.359375 418.496094 157.359375 418.3125 157.453125 C 412.289062 160.96875 405.0625 162.636719 396.722656 162.359375 Z M 396.722656 162.359375 " fill-opacity="1" fill-rule="nonzero"/><path fill="#3d1937" d="M 368.558594 132.449219 C 368.558594 132.171875 368.375 131.984375 368.09375 131.984375 C 367.816406 131.984375 367.632812 132.171875 367.632812 132.449219 C 367.539062 133.375 367.445312 134.394531 367.167969 135.78125 C 366.148438 142.171875 368.003906 144.855469 368.929688 146.152344 L 369.113281 146.429688 C 369.390625 146.800781 369.855469 146.988281 370.320312 146.988281 C 377.265625 146.617188 381.066406 150.96875 382.734375 153.5625 C 383.566406 154.859375 383.84375 156.433594 383.660156 158.007812 C 383.660156 158.285156 383.753906 158.46875 384.03125 158.5625 L 384.125 158.5625 C 384.308594 158.5625 384.585938 158.378906 384.585938 158.191406 C 384.863281 156.433594 384.492188 154.582031 383.566406 153.191406 C 381.808594 150.414062 377.730469 145.785156 370.320312 146.246094 C 370.132812 146.246094 370.039062 146.152344 369.949219 146.0625 L 369.761719 145.785156 C 368.835938 144.488281 367.167969 142.078125 368.1875 136.058594 C 368.28125 134.484375 368.464844 133.375 368.558594 132.449219 Z M 368.558594 132.449219 " fill-opacity="1" fill-rule="nonzero"/><path fill="#3d1937" d="M 451.292969 243.386719 C 451.386719 267.835938 445.269531 286.449219 432.855469 298.859375 C 417.660156 314.136719 398.113281 314.324219 397.929688 314.324219 C 397.1875 314.324219 396.539062 314.972656 396.539062 315.714844 C 396.539062 316.453125 397.1875 317.101562 397.929688 317.101562 C 398.113281 317.101562 418.773438 316.917969 434.800781 300.804688 C 447.679688 287.839844 454.164062 268.484375 453.980469 243.296875 C 453.980469 242.554688 453.332031 241.90625 452.589844 241.90625 C 452.21875 241.90625 451.847656 242.09375 451.570312 242.277344 C 451.386719 242.648438 451.292969 243.019531 451.292969 243.386719 Z M 451.292969 243.386719 " fill-opacity="1" fill-rule="nonzero"/><path fill="#3d1937" d="M 414.976562 169.210938 L 414.882812 171.433594 L 418.867188 173.84375 C 418.867188 173.84375 412.472656 185.140625 389.960938 195.140625 C 389.960938 195.140625 383.011719 185.324219 379.863281 170.695312 C 377.082031 177.917969 373.5625 186.25 371.429688 191.992188 C 370.039062 195.789062 368.1875 199.214844 366.058594 202.085938 C 362.351562 198.382812 356.976562 195.417969 355.03125 195.976562 C 354.382812 196.160156 353.828125 196.53125 353.550781 197.085938 C 353.085938 198.011719 353.179688 199.214844 353.363281 200.050781 C 352.53125 199.863281 351.140625 199.957031 349.472656 201.253906 C 347.15625 203.011719 347.527344 206.625 347.621094 207.828125 C 345.675781 208.570312 345.027344 209.867188 344.746094 210.605469 C 344.65625 210.882812 344.746094 211.070312 345.027344 211.164062 C 345.117188 211.164062 345.117188 211.164062 345.210938 211.164062 C 345.394531 211.164062 345.582031 211.070312 345.675781 210.882812 C 345.859375 210.234375 346.507812 209.21875 348.359375 208.570312 C 348.546875 208.476562 348.730469 208.292969 348.640625 208.011719 C 348.640625 208.011719 347.804688 203.753906 350.027344 201.996094 C 352.34375 200.328125 353.734375 201.160156 353.734375 201.160156 C 353.921875 201.253906 354.105469 201.253906 354.289062 201.160156 C 354.476562 201.066406 354.476562 200.789062 354.476562 200.605469 C 354.289062 200.050781 353.828125 198.382812 354.382812 197.457031 C 354.570312 197.085938 354.847656 196.902344 355.308594 196.808594 C 356.605469 196.4375 361.609375 198.847656 365.5 202.734375 C 365.6875 202.921875 365.964844 202.921875 366.148438 202.734375 L 366.890625 203.570312 C 368.1875 205.050781 369.113281 206.625 369.578125 208.199219 L 409.601562 217.273438 C 409.601562 217.550781 409.695312 217.738281 409.972656 217.828125 L 410.066406 217.828125 C 410.25 217.828125 410.527344 217.644531 410.527344 217.460938 L 411.082031 213.476562 C 413.308594 214.3125 424.886719 217.738281 442.214844 211.71875 C 448.328125 208.941406 451.941406 206.4375 451.941406 206.4375 C 451.941406 206.4375 443.972656 191.53125 436.746094 179.863281 C 432.949219 173.84375 423.40625 170.785156 414.976562 169.210938 Z M 414.976562 169.210938 " fill-opacity="1" fill-rule="nonzero"/><path fill="#3d1937" d="M 280.355469 38.824219 C 285.359375 32.15625 291.753906 32.433594 294.253906 32.898438 C 309.261719 35.769531 317.507812 22.617188 317.507812 22.617188 C 317.417969 35.027344 328.535156 41.601562 328.535156 41.601562 C 326.125 52.808594 331.3125 54.660156 331.3125 54.660156 C 331.777344 54.476562 332.332031 54.382812 332.796875 54.289062 C 336.871094 53.917969 342.710938 55.125 344.933594 62.4375 C 347.34375 70.496094 340.023438 74.570312 340.023438 74.570312 C 340.023438 74.570312 349.84375 77.71875 357.902344 66.234375 C 365.222656 55.679688 364.945312 45.675781 363.832031 39.9375 C 369.300781 38.175781 373.746094 33.730469 375.230469 27.804688 C 377.546875 18.542969 372.636719 12.710938 363.742188 9.285156 C 357.535156 6.875 351.789062 7.246094 347.0625 11.507812 C 342.429688 8.542969 336.410156 6.414062 328.71875 6.136719 C 328.71875 6.136719 323.53125 3.171875 316.488281 1.78125 C 309.078125 0.300781 279.523438 0.671875 279.429688 37.621094 C 279.339844 39.195312 279.429688 40.214844 279.429688 40.214844 Z M 280.355469 38.824219 " fill-opacity="1" fill-rule="nonzero"/><path fill="#3d1937" d="M 399.039062 129.484375 C 399.226562 129.578125 399.410156 129.484375 399.503906 129.300781 C 399.503906 129.300781 400.152344 127.910156 401.355469 126.613281 C 401.355469 126.707031 401.355469 126.890625 401.261719 126.984375 C 400.335938 129.578125 402.652344 131.246094 404.414062 131.429688 C 406.171875 131.613281 408.488281 130.410156 408.769531 128.1875 C 408.953125 126.335938 408.210938 125.226562 407.472656 124.667969 C 411.453125 125.503906 412.9375 129.855469 412.9375 129.949219 C 413.03125 130.132812 413.214844 130.226562 413.398438 130.132812 C 413.585938 130.039062 413.679688 129.855469 413.585938 129.671875 C 413.585938 129.578125 411.734375 124.113281 406.453125 123.742188 C 401.171875 123.371094 398.855469 129.023438 398.761719 129.023438 C 398.855469 129.207031 398.855469 129.390625 399.039062 129.484375 Z M 399.039062 129.484375 " fill-opacity="1" fill-rule="nonzero"/><path fill="#3d1937" d="M 374.117188 120.59375 C 374.023438 120.78125 374.023438 120.964844 374.210938 121.058594 C 374.394531 121.152344 374.582031 121.152344 374.671875 120.964844 C 375.136719 120.316406 375.96875 119.574219 377.175781 119.113281 C 376.988281 119.207031 376.898438 119.390625 376.710938 119.574219 C 375.507812 121.058594 375.601562 123.1875 376.988281 124.300781 C 378.378906 125.410156 380.601562 125.226562 381.714844 123.742188 C 382.640625 122.355469 382.734375 121.058594 382.085938 120.039062 C 384.863281 121.984375 384.402344 125.78125 384.402344 125.875 C 384.402344 126.058594 384.492188 126.242188 384.679688 126.242188 C 384.863281 126.242188 385.050781 126.152344 385.050781 125.964844 C 385.050781 125.875 385.699219 120.59375 381.160156 118.742188 C 377.359375 117.355469 375.042969 119.296875 374.117188 120.59375 Z M 374.117188 120.59375 " fill-opacity="1" fill-rule="nonzero"/><path fill="#3d1937" d="M 337.058594 60.585938 C 339.746094 61.234375 341.691406 63.550781 341.96875 66.421875 C 341.96875 66.605469 342.152344 66.699219 342.246094 66.699219 C 342.429688 66.699219 342.523438 66.511719 342.523438 66.421875 C 342.246094 63.363281 340.117188 60.773438 337.152344 60.03125 C 333.90625 59.289062 330.664062 60.863281 329.183594 63.734375 L 329.183594 63.828125 C 328.90625 64.292969 328.71875 64.847656 328.628906 65.402344 C 328.257812 66.976562 328.347656 68.644531 329.089844 70.125 C 329.089844 70.21875 329.183594 70.308594 329.277344 70.308594 C 329.367188 70.308594 329.367188 70.308594 329.460938 70.308594 C 329.644531 70.21875 329.644531 70.03125 329.644531 69.941406 C 328.996094 68.550781 328.90625 67.070312 329.277344 65.585938 C 329.367188 65.125 329.554688 64.660156 329.832031 64.199219 C 330.941406 63.828125 332.054688 63.828125 333.167969 64.105469 C 334.835938 64.476562 336.316406 65.585938 337.152344 67.160156 C 337.152344 67.253906 337.242188 67.253906 337.335938 67.253906 C 337.429688 67.253906 337.519531 67.253906 337.519531 67.253906 C 337.707031 67.160156 337.707031 66.976562 337.613281 66.882812 C 336.59375 65.21875 335.113281 64.011719 333.257812 63.550781 C 332.242188 63.273438 331.128906 63.273438 330.109375 63.550781 C 331.589844 61.140625 334.277344 59.9375 337.058594 60.585938 Z M 337.058594 60.585938 " fill-opacity="1" fill-rule="nonzero"/><path fill="#3d1937" d="M 384.214844 129.671875 C 384.03125 132.261719 386.347656 134.023438 388.105469 135.042969 C 389.035156 135.597656 389.867188 135.875 389.960938 135.96875 C 390.144531 136.058594 390.332031 135.96875 390.421875 135.78125 C 390.515625 135.597656 390.421875 135.410156 390.238281 135.320312 C 390.144531 135.320312 384.679688 133.1875 384.957031 129.761719 C 385.050781 128.835938 385.328125 128.097656 385.976562 127.632812 C 386.808594 126.984375 388.199219 126.800781 390.144531 127.167969 C 391.535156 127.449219 392.832031 126.335938 393.296875 125.132812 C 393.851562 123.742188 394.128906 122.167969 394.035156 120.59375 C 394.035156 120.410156 393.851562 120.222656 393.667969 120.222656 C 393.480469 120.222656 393.296875 120.410156 393.296875 120.59375 C 393.296875 122.078125 393.109375 123.558594 392.554688 124.945312 C 392.183594 125.875 391.257812 126.707031 390.144531 126.519531 C 388.015625 126.152344 386.441406 126.335938 385.421875 127.078125 C 384.679688 127.632812 384.308594 128.464844 384.214844 129.671875 Z M 384.214844 129.671875 " fill-opacity="1" fill-rule="nonzero"/><path fill="#3d1937" d="M 385.140625 138.558594 C 385.050781 138.375 384.863281 138.28125 384.679688 138.375 C 384.492188 138.46875 384.402344 138.652344 384.492188 138.839844 C 385.050781 140.042969 385.976562 140.96875 387.179688 141.707031 C 388.292969 142.355469 389.589844 142.726562 390.980469 142.726562 C 394.316406 142.726562 397.1875 140.597656 397.835938 137.726562 C 397.835938 137.542969 397.742188 137.355469 397.558594 137.355469 C 397.371094 137.355469 397.1875 137.449219 397.1875 137.632812 C 396.632812 140.226562 393.945312 142.171875 390.980469 142.171875 C 388.476562 141.988281 386.160156 140.597656 385.140625 138.558594 Z M 385.140625 138.558594 " fill-opacity="1" fill-rule="nonzero"/><path fill="#3d1937" d="M 117.019531 112.074219 C 116.925781 110.6875 114.238281 111.148438 113.496094 111.335938 C 108.308594 112.628906 104.601562 117.355469 104.601562 121.242188 C 104.972656 122.539062 105.714844 122.539062 109.050781 119.019531 C 110.8125 117.261719 112.757812 115.6875 114.886719 114.484375 C 116.183594 113.648438 117.109375 113 117.019531 112.074219 Z M 117.019531 112.074219 " fill-opacity="1" fill-rule="nonzero"/><path fill="#3d1937" d="M 259.789062 309.695312 C 259.789062 309.695312 250.339844 295.523438 246.171875 297.5625 C 241.445312 299.878906 238.757812 312.007812 252.378906 335.066406 C 265.996094 358.125 277.484375 370.441406 282.488281 369.886719 C 287.492188 369.332031 290.179688 363.960938 290.179688 363.960938 C 263.308594 345.71875 259.789062 309.695312 259.789062 309.695312 Z M 259.789062 309.695312 " fill-opacity="1" fill-rule="nonzero"/><path fill="#3d1937" d="M 203.550781 401.464844 C 201.976562 404.796875 197.714844 409.152344 186.132812 409.984375 C 172.976562 410.910156 157.96875 404.707031 149.539062 400.632812 C 149.816406 404.335938 150.277344 407.390625 150.835938 408.59375 C 152.964844 412.855469 175.015625 418.597656 189.46875 418.6875 C 203.828125 418.875 216.613281 414.523438 214.019531 407.761719 C 213.1875 405.632812 208.925781 403.410156 203.550781 401.464844 Z M 203.550781 401.464844 " fill-opacity="1" fill-rule="nonzero"/><path fill="#3d1937" d="M 316.675781 397.761719 C 316.675781 397.761719 299.722656 399.613281 299.722656 404.242188 C 299.628906 409.519531 309.171875 417.484375 335.855469 416.003906 C 362.535156 414.523438 378.84375 410.078125 380.601562 405.355469 C 382.363281 400.632812 378.933594 395.816406 378.933594 395.816406 C 350.308594 411.1875 316.675781 397.761719 316.675781 397.761719 Z M 316.675781 397.761719 " fill-opacity="1" fill-rule="nonzero"/><path fill="#3d1937" d="M 189.46875 340.992188 L 194.195312 279.691406 C 194.195312 279.410156 194.007812 279.226562 193.730469 279.226562 C 193.453125 279.226562 193.269531 279.410156 193.269531 279.691406 L 188.542969 340.992188 C 188.449219 341.179688 188.726562 341.457031 189.007812 341.457031 C 189.285156 341.457031 189.46875 341.273438 189.46875 340.992188 Z M 189.46875 340.992188 " fill-opacity="1" fill-rule="nonzero"/><path fill="#3d1937" d="M 178.535156 83.554688 C 178.535156 83.554688 184.835938 87.71875 185.113281 93.648438 C 185.113281 93.832031 185.300781 93.925781 185.394531 93.925781 L 185.484375 93.925781 C 185.578125 93.832031 185.671875 93.738281 185.671875 93.648438 C 185.394531 87.441406 179.09375 83.273438 178.816406 83.089844 C 178.722656 82.996094 178.535156 82.996094 178.445312 83.183594 C 178.351562 83.273438 178.351562 83.460938 178.535156 83.554688 Z M 178.535156 83.554688 " fill-opacity="1" fill-rule="nonzero"/><path fill="#3d1937" d="M 185.394531 227.367188 C 185.113281 227.277344 184.929688 227.460938 184.835938 227.738281 C 184.746094 228.015625 184.929688 228.203125 185.207031 228.292969 C 185.207031 228.292969 189.375 229.21875 190.117188 235.980469 C 190.117188 236.257812 190.304688 236.351562 190.582031 236.351562 C 190.582031 236.351562 190.582031 236.351562 190.671875 236.351562 L 190.765625 236.351562 C 190.953125 236.257812 191.042969 236.074219 191.042969 235.886719 C 190.210938 228.386719 185.578125 227.367188 185.394531 227.367188 Z M 185.394531 227.367188 " fill-opacity="1" fill-rule="nonzero"/><path fill="#3d1937" d="M 399.78125 323.121094 C 397.09375 323.398438 394.40625 323.585938 391.90625 323.675781 L 408.121094 404.796875 C 408.582031 406.929688 410.621094 408.316406 412.75 407.855469 C 414.882812 407.390625 416.273438 405.355469 415.808594 403.222656 Z M 399.78125 323.121094 " fill-opacity="1" fill-rule="nonzero"/><path fill="#3d1937" d="M 200.679688 236.074219 C 200.679688 236.257812 200.957031 236.441406 201.144531 236.441406 L 201.234375 236.441406 C 201.511719 236.441406 201.699219 236.164062 201.605469 235.886719 C 200.125 227.089844 195.863281 226.535156 195.675781 226.535156 C 195.398438 226.535156 195.214844 226.71875 195.121094 226.90625 C 195.027344 227.089844 195.304688 227.367188 195.492188 227.460938 C 195.492188 227.460938 199.289062 228.109375 200.679688 236.074219 Z M 200.679688 236.074219 " fill-opacity="1" fill-rule="nonzero"/><path fill="#3d1937" d="M 430.632812 313.121094 C 428.410156 314.601562 426 315.992188 423.40625 317.101562 L 438.785156 393.871094 C 439.25 396 441.289062 397.390625 443.417969 396.925781 C 445.550781 396.464844 446.9375 394.425781 446.476562 392.296875 Z M 430.632812 313.121094 " fill-opacity="1" fill-rule="nonzero"/><path fill="#3d1937" d="M 190.765625 227.183594 C 190.488281 227.183594 190.304688 227.367188 190.210938 227.554688 C 190.210938 227.832031 190.394531 228.015625 190.582031 228.109375 C 190.671875 228.015625 194.378906 228.664062 195.769531 236.722656 C 195.769531 236.90625 196.046875 237.089844 196.234375 237.089844 L 196.324219 237.089844 C 196.601562 237.089844 196.789062 236.8125 196.695312 236.535156 C 195.214844 227.738281 190.953125 227.183594 190.765625 227.183594 Z M 190.765625 227.183594 " fill-opacity="1" fill-rule="nonzero"/><g clip-path="url(#ea1a217692)"><path fill="#3d1937" d="M 370.6875 279.042969 L 393.203125 279.042969 L 393.203125 269.597656 L 385.421875 253.945312 C 407.75 264.964844 432.765625 250.980469 432.765625 250.980469 L 426.554688 241.722656 C 423.589844 242.925781 420.070312 243.667969 415.902344 243.574219 C 401.078125 243.386719 386.070312 238.386719 375.414062 233.941406 C 375.136719 233.851562 374.765625 233.664062 374.488281 233.574219 C 374.117188 233.386719 373.746094 233.203125 373.285156 233.109375 C 373.003906 233.015625 372.726562 232.832031 372.355469 232.738281 C 371.800781 232.460938 371.246094 232.277344 370.6875 232 C 370.410156 231.90625 370.226562 231.71875 369.949219 231.628906 C 369.578125 231.441406 369.207031 231.257812 368.835938 231.164062 C 363.742188 228.757812 360.589844 226.90625 360.589844 226.90625 C 360.589844 226.90625 349.289062 228.480469 345.582031 221.164062 C 345.582031 221.164062 341.78125 217.273438 345.117188 215.238281 C 345.117188 215.238281 344.46875 213.753906 344.65625 212.089844 C 338.816406 210.699219 335.667969 205.976562 336.59375 197.179688 C 336.964844 193.382812 342.429688 185.882812 348.082031 178.84375 L 337.613281 179.492188 L 340.300781 152.730469 C 340.300781 152.636719 340.300781 152.636719 340.300781 152.542969 L 332.796875 121.058594 C 332.703125 120.78125 332.519531 120.6875 332.242188 120.6875 C 331.960938 120.78125 331.871094 120.964844 331.871094 121.242188 L 339.375 152.636719 L 336.6875 179.398438 C 336.6875 179.398438 336.6875 179.398438 336.6875 179.492188 L 297.125 178.007812 L 296.570312 187.734375 L 295.738281 187.734375 L 294.902344 199.585938 L 276.464844 199.585938 L 275.261719 187.734375 L 274.335938 187.734375 L 273.5 179.492188 L 222.453125 179.492188 L 222.359375 180.972656 L 221.617188 180.972656 L 220.878906 191.34375 L 204.757812 191.34375 L 203.738281 180.972656 L 202.902344 180.972656 L 202.71875 179.492188 L 188.542969 179.492188 L 165.011719 221.070312 C 167.328125 220.699219 168.160156 220.515625 168.160156 220.515625 C 168.160156 220.515625 187.152344 219.21875 194.101562 223.015625 C 205.40625 229.21875 206.425781 240.519531 204.199219 240.980469 C 203.367188 241.167969 202.902344 240.980469 202.160156 239.128906 C 202.8125 241.722656 202.253906 242.648438 200.308594 243.386719 C 198.363281 244.128906 197.898438 243.667969 197.160156 240.703125 C 197.808594 243.851562 197.25 244.871094 195.398438 245.425781 C 193.082031 246.074219 192.433594 244.5 191.785156 241.351562 C 192.339844 244.316406 191.878906 245.242188 189.191406 244.964844 C 185.578125 244.683594 184.003906 234.867188 184.003906 234.867188 C 181.222656 238.015625 174.089844 237.832031 172.328125 237.738281 C 170.753906 238.664062 159.265625 245.425781 147.40625 250.335938 L 136.289062 269.6875 L 136.289062 279.132812 L 158.800781 279.132812 L 130.359375 421.097656 C 129.527344 423.875 131.195312 426.652344 134.066406 427.300781 C 136.9375 427.949219 139.902344 426.097656 140.734375 423.226562 L 169.734375 279.042969 L 359.757812 279.042969 L 364.574219 302.933594 C 361.886719 301.914062 359.199219 300.804688 356.421875 299.601562 C 356.234375 299.507812 356.050781 299.601562 355.867188 299.691406 C 355.679688 299.878906 338.632812 320.804688 323.808594 340.066406 C 323.625 340.253906 323.714844 340.53125 323.902344 340.714844 C 323.996094 340.808594 324.085938 340.808594 324.179688 340.808594 C 324.273438 340.808594 324.457031 340.714844 324.550781 340.625 C 338.449219 322.566406 354.382812 303.117188 356.421875 300.617188 C 359.292969 301.914062 362.074219 303.027344 364.761719 304.042969 L 388.753906 423.320312 C 389.589844 426.097656 392.554688 427.949219 395.425781 427.394531 C 398.296875 426.839844 399.964844 424.058594 399.132812 421.191406 Z M 316.304688 222.367188 L 313.894531 222.367188 L 313.246094 231.351562 L 313.988281 231.351562 L 313.0625 245.980469 L 312.136719 245.980469 L 311.210938 258.761719 L 291.84375 258.761719 L 290.640625 245.980469 L 289.621094 245.980469 L 288.230469 231.351562 L 289.25 231.351562 L 288.417969 222.367188 L 286.195312 222.367188 L 286.195312 217.179688 L 291.195312 217.179688 L 291.195312 214.125 L 310.5625 214.03125 L 310.5625 217.089844 L 315.5625 217.089844 Z M 316.304688 222.367188 " fill-opacity="1" fill-rule="nonzero"/></g><path fill="#3d1937" d="M 276.929688 388.5 C 276.558594 392.203125 273.964844 397.667969 263.308594 402.296875 C 251.171875 407.484375 234.960938 406.652344 225.601562 405.539062 C 227.085938 408.964844 228.472656 411.742188 229.492188 412.671875 C 232.921875 415.910156 255.621094 414.058594 269.238281 409.429688 C 282.859375 404.796875 293.421875 396.558594 288.789062 391 C 287.304688 389.148438 282.582031 388.5 276.929688 388.5 Z M 276.929688 388.5 " fill-opacity="1" fill-rule="nonzero"/><path fill="#3d1937" d="M 110.441406 129.578125 C 110.441406 129.484375 113.128906 125.132812 117.203125 124.113281 C 116.832031 124.484375 116.460938 124.855469 116.183594 125.410156 C 115.257812 127.355469 115.90625 129.578125 117.667969 130.503906 C 119.519531 131.429688 121.742188 130.597656 122.667969 128.652344 C 123.597656 126.707031 123.132812 125.410156 122.019531 124.484375 C 122.949219 124.945312 123.96875 125.59375 124.894531 126.429688 C 124.984375 126.519531 125.171875 126.519531 125.265625 126.429688 C 125.265625 126.429688 125.355469 126.429688 125.355469 126.335938 C 125.449219 126.242188 125.449219 125.964844 125.355469 125.875 C 122.855469 123.652344 120.355469 122.726562 117.757812 123.1875 C 113.035156 123.929688 109.976562 128.929688 109.882812 129.113281 C 109.792969 129.390625 109.882812 129.578125 109.976562 129.671875 C 110.164062 129.761719 110.347656 129.671875 110.441406 129.578125 Z M 110.441406 129.578125 " fill-opacity="1" fill-rule="nonzero"/><path fill="#3d1937" d="M 140.273438 158.378906 C 143.421875 156.988281 146.203125 155.320312 148.703125 153.46875 C 148.890625 153.285156 148.980469 153.007812 148.796875 152.820312 C 148.613281 152.636719 148.332031 152.542969 148.148438 152.730469 C 145.738281 154.582031 142.960938 156.15625 139.902344 157.542969 C 132.121094 161.0625 124.429688 162.175781 116.832031 160.691406 C 116.554688 160.691406 116.371094 160.785156 116.277344 161.0625 C 116.277344 161.15625 116.277344 161.25 116.277344 161.339844 C 115.90625 161.25 115.535156 161.25 115.164062 161.25 C 114.792969 161.25 114.425781 161.339844 114.144531 161.617188 C 113.867188 161.894531 113.683594 162.265625 113.683594 162.636719 C 113.683594 163.378906 114.238281 164.027344 114.980469 164.117188 C 116.183594 164.210938 117.390625 164.582031 118.316406 165.324219 C 119.519531 166.15625 120.355469 167.359375 120.632812 168.65625 C 120.910156 169.859375 120.722656 170.972656 120.074219 171.898438 C 119.425781 172.730469 118.40625 173.285156 117.109375 173.378906 C 116.832031 173.378906 116.554688 173.378906 116.277344 173.378906 C 116.183594 173.378906 116.09375 173.378906 116 173.378906 C 115.074219 173.195312 114.144531 172.824219 113.3125 172.175781 C 112.480469 171.527344 111.828125 170.695312 111.367188 169.859375 C 111.367188 169.675781 111.273438 169.488281 111.179688 169.304688 C 111.089844 169.121094 111.089844 168.933594 110.996094 168.75 C 110.902344 168.378906 110.71875 168.101562 110.347656 167.914062 C 110.070312 167.730469 109.699219 167.636719 109.328125 167.730469 C 108.957031 167.824219 108.679688 168.007812 108.496094 168.378906 C 108.308594 168.75 108.214844 169.027344 108.308594 169.398438 C 108.308594 169.488281 108.308594 169.488281 108.402344 169.582031 L 100.25 175.417969 C 99.601562 175.878906 99.507812 176.714844 99.972656 177.363281 C 100.25 177.730469 100.621094 177.917969 101.082031 177.917969 C 101.359375 177.917969 101.640625 177.824219 101.917969 177.640625 L 109.605469 172.175781 C 110.164062 173.007812 110.902344 173.75 111.738281 174.398438 C 111.921875 174.492188 112.109375 174.675781 112.292969 174.769531 L 110.902344 180.511719 L 110.8125 180.511719 C 110.441406 180.601562 110.164062 180.878906 109.976562 181.160156 C 105.992188 188.472656 98.859375 197.269531 87.183594 197.828125 C 87.648438 195.605469 88.667969 191.066406 90.796875 186.34375 C 91.078125 185.601562 90.796875 184.863281 90.058594 184.492188 C 89.6875 184.308594 89.316406 184.308594 89.039062 184.492188 C 88.667969 184.585938 88.390625 184.863281 88.296875 185.234375 C 85.148438 192.363281 84.222656 198.9375 84.222656 199.03125 C 84.128906 199.402344 84.3125 199.863281 84.5 200.140625 C 84.777344 200.421875 85.148438 200.605469 85.519531 200.605469 L 90.519531 199.679688 C 95.710938 198.105469 99.042969 196.808594 102.9375 193.289062 C 103.027344 193.195312 103.214844 193.105469 103.304688 193.011719 C 104.324219 192.085938 105.34375 191.066406 106.269531 190.046875 C 107.476562 188.75 108.773438 187.457031 109.976562 186.066406 C 110.164062 186.4375 110.441406 186.714844 110.902344 186.898438 C 110.996094 186.898438 111.089844 186.898438 111.179688 186.898438 C 111.828125 186.898438 112.386719 186.4375 112.570312 185.789062 L 114.886719 175.972656 L 117.019531 189.492188 C 117.109375 190.140625 117.667969 190.695312 118.40625 190.695312 L 118.59375 190.695312 C 119.335938 190.605469 119.890625 189.863281 119.707031 189.121094 L 117.667969 176.15625 C 119.613281 175.972656 121.28125 175.046875 122.390625 173.566406 C 123.503906 171.992188 123.875 170.046875 123.410156 168.007812 C 122.949219 166.0625 121.742188 164.304688 120.074219 163.007812 C 119.425781 162.542969 118.777344 162.175781 118.128906 161.894531 C 119.796875 162.175781 121.558594 162.265625 123.226562 162.265625 C 128.96875 162.265625 134.621094 160.96875 140.273438 158.378906 Z M 140.273438 158.378906 " fill-opacity="1" fill-rule="nonzero"/><path fill="#3d1937" d="M 151.855469 110.871094 C 151.945312 110.6875 151.761719 110.5 151.667969 110.5 C 151.484375 110.410156 146.945312 109.203125 143.980469 111.703125 C 142.125 113.1875 141.386719 115.6875 141.664062 119.207031 C 141.664062 119.390625 141.847656 119.484375 142.035156 119.484375 L 142.125 119.484375 C 142.21875 119.390625 142.3125 119.296875 142.3125 119.113281 C 142.035156 115.871094 142.773438 113.464844 144.441406 112.167969 C 145.089844 111.613281 145.832031 111.335938 146.574219 111.054688 C 146.203125 111.425781 145.925781 111.796875 145.648438 112.445312 C 144.90625 114.113281 145.648438 115.964844 147.222656 116.613281 C 148.796875 117.261719 150.558594 116.425781 151.296875 114.761719 C 151.945312 113.277344 151.390625 111.613281 150.09375 110.777344 C 150.925781 110.871094 151.574219 111.054688 151.574219 111.054688 C 151.667969 111.148438 151.855469 111.054688 151.855469 110.871094 Z M 151.855469 110.871094 " fill-opacity="1" fill-rule="nonzero"/><path fill="#3d1937" d="M 93.394531 162.824219 C 93.394531 162.824219 98.210938 165.414062 104.046875 164.304688 C 109.882812 163.101562 111.460938 159.582031 111.460938 159.582031 C 111.460938 159.582031 105.992188 158.378906 102.101562 153.007812 C 102.101562 153.007812 96.542969 155.691406 89.5 152.171875 C 82.273438 148.5625 80.976562 133.375 95.339844 130.6875 C 95.339844 130.6875 106.457031 126.984375 99.136719 109.296875 C 99.136719 109.296875 121.1875 112.261719 127.949219 93 C 127.949219 93 134.34375 100.128906 147.871094 98.554688 L 156.117188 115.59375 C 156.117188 115.59375 163.15625 128.003906 157.042969 143.375 C 157.042969 143.375 171.773438 136.429688 169.457031 124.855469 C 168.160156 118.464844 161.582031 114.203125 161.582031 114.203125 C 161.582031 114.203125 174.089844 105.964844 167.695312 90.40625 C 163.066406 79.476562 151.574219 79.292969 151.574219 79.292969 C 151.574219 79.292969 151.945312 61.050781 134.714844 59.476562 C 118.40625 57.902344 112.109375 69.199219 112.109375 69.199219 C 112.109375 69.199219 96.914062 59.011719 78.292969 73.828125 C 64.949219 84.292969 66.988281 100.871094 68.75 104.296875 C 69.027344 104.851562 69.210938 105.128906 69.210938 105.128906 C 69.210938 105.128906 59.390625 108.648438 56.890625 123.652344 C 54.945312 139.855469 68.5625 144.578125 68.5625 144.578125 C 68.5625 144.578125 64.300781 156.894531 74.679688 163.472656 C 85.238281 170.046875 93.394531 162.824219 93.394531 162.824219 Z M 93.394531 162.824219 " fill-opacity="1" fill-rule="nonzero"/><path fill="#3d1937" d="M 131.933594 121.242188 C 129.804688 120.964844 129.15625 115.316406 129.15625 113.1875 C 129.15625 113 128.96875 112.910156 128.785156 112.910156 C 128.597656 112.910156 128.507812 113.09375 128.507812 113.277344 C 128.507812 114.113281 128.878906 121.613281 131.84375 121.796875 C 133.230469 121.890625 134.527344 121.152344 135.640625 120.503906 C 137.308594 119.484375 138.328125 119.019531 139.253906 120.410156 C 140.273438 121.890625 140.367188 125.132812 137.585938 129.761719 C 137.492188 129.949219 137.492188 130.132812 137.679688 130.226562 C 137.773438 130.316406 137.863281 130.316406 138.050781 130.226562 L 138.140625 130.132812 C 140.644531 126.152344 141.292969 122.167969 139.808594 120.132812 C 138.511719 118.1875 136.9375 119.113281 135.363281 120.039062 C 134.25 120.6875 133.140625 121.335938 131.933594 121.242188 Z M 131.933594 121.242188 " fill-opacity="1" fill-rule="nonzero"/><path fill="#3d1937" d="M 130.824219 318.304688 C 131.5625 318.304688 132.210938 317.65625 132.210938 316.917969 C 132.210938 316.175781 131.65625 315.527344 130.824219 315.527344 C 130.636719 315.527344 111.089844 315.25 95.894531 300.0625 C 83.570312 287.652344 77.363281 268.949219 77.457031 244.59375 C 77.457031 243.851562 76.808594 243.203125 76.066406 243.203125 C 75.328125 243.203125 74.679688 243.851562 74.679688 244.59375 C 74.585938 269.78125 80.976562 289.136719 93.855469 302.101562 C 110.070312 318.121094 130.636719 318.304688 130.824219 318.304688 Z M 130.824219 318.304688 " fill-opacity="1" fill-rule="nonzero"/><path fill="#3d1937" d="M 129.0625 324.511719 L 113.035156 404.613281 C 112.570312 406.742188 113.960938 408.78125 116.09375 409.242188 C 118.222656 409.707031 120.261719 408.316406 120.722656 406.1875 L 136.9375 325.066406 C 134.4375 324.972656 131.75 324.789062 129.0625 324.511719 Z M 129.0625 324.511719 " fill-opacity="1" fill-rule="nonzero"/><path fill="#3d1937" d="M 103.492188 146.429688 C 103.585938 146.429688 103.675781 146.429688 103.675781 146.429688 C 103.769531 146.339844 103.863281 146.339844 103.863281 146.152344 C 104.140625 144.394531 103.769531 142.542969 102.9375 140.96875 C 102.65625 140.414062 102.289062 139.949219 101.824219 139.484375 C 101.824219 139.394531 101.730469 139.394531 101.640625 139.300781 C 99.136719 136.707031 95.246094 135.96875 92.097656 137.726562 C 89.132812 139.394531 87.648438 142.726562 88.296875 146.0625 C 88.296875 146.246094 88.484375 146.339844 88.667969 146.339844 C 88.851562 146.339844 88.945312 146.152344 88.945312 145.96875 C 88.390625 142.914062 89.78125 139.765625 92.464844 138.28125 C 95.152344 136.800781 98.488281 137.261719 100.804688 139.207031 C 99.601562 139.300781 98.488281 139.578125 97.46875 140.132812 C 95.617188 141.152344 94.320312 142.914062 93.761719 144.949219 C 93.761719 145.136719 93.855469 145.320312 93.949219 145.320312 C 94.042969 145.320312 94.132812 145.320312 94.226562 145.320312 C 94.320312 145.320312 94.320312 145.226562 94.414062 145.136719 C 94.875 143.191406 96.078125 141.617188 97.839844 140.691406 C 98.953125 140.042969 100.25 139.765625 101.453125 139.765625 C 101.824219 140.132812 102.101562 140.597656 102.378906 141.152344 C 103.214844 142.632812 103.492188 144.300781 103.304688 145.96875 C 103.121094 146.246094 103.304688 146.339844 103.492188 146.429688 Z M 103.492188 146.429688 " fill-opacity="1" fill-rule="nonzero"/><path fill="#3d1937" d="M 137.121094 104.296875 C 139.347656 103.464844 141.753906 103 144.164062 102.90625 C 148.890625 102.722656 149.351562 102.167969 148.613281 101.054688 C 145.738281 98.554688 139.902344 98.183594 135.734375 101.242188 C 135.175781 101.703125 133.140625 103.371094 134.066406 104.390625 C 134.808594 104.945312 135.824219 104.757812 137.121094 104.296875 Z M 137.121094 104.296875 " fill-opacity="1" fill-rule="nonzero"/><path fill="#3d1937" d="M 82.273438 393.59375 C 81.8125 395.722656 83.203125 397.761719 85.332031 398.222656 C 87.464844 398.6875 89.5 397.296875 89.964844 395.167969 L 105.34375 318.398438 C 102.75 317.289062 100.339844 315.898438 98.117188 314.417969 Z M 82.273438 393.59375 " fill-opacity="1" fill-rule="nonzero"/><path fill="#3d1937" d="M 129.804688 135.132812 C 129.894531 135.320312 131.933594 138.746094 136.011719 138.652344 C 137.585938 138.652344 138.789062 138.191406 139.625 137.542969 C 141.570312 136.246094 142.3125 134.207031 142.3125 134.207031 C 142.402344 134.023438 142.3125 133.929688 142.125 133.835938 C 141.941406 133.746094 130.082031 134.578125 129.894531 134.671875 C 129.804688 134.855469 129.710938 134.949219 129.804688 135.132812 Z M 129.804688 135.132812 " fill-opacity="1" fill-rule="nonzero"/><path fill="#ffffff" d="M 345.027344 211.902344 C 344.839844 213.570312 345.488281 215.050781 345.488281 215.050781 C 342.152344 217.089844 345.953125 220.976562 345.953125 220.976562 C 349.65625 228.292969 360.21875 225.609375 360.21875 225.609375 C 360.21875 225.609375 361.609375 227.089844 362.8125 227.738281 L 363.460938 238.851562 L 313.804688 233.292969 L 313.710938 231.628906 L 312.507812 231.535156 L 313.15625 222.273438 L 315.5625 222.273438 L 315.5625 217.089844 L 310.5625 217.089844 L 310.5625 214.03125 L 299.351562 214.03125 L 303.519531 188.75 L 340.023438 189.863281 C 338.261719 192.734375 337.058594 195.234375 336.871094 196.992188 C 335.855469 205.882812 339.003906 210.605469 345.027344 211.902344 Z M 426.1875 185.601562 L 423.035156 193.289062 L 429.242188 187.824219 L 432.394531 195.511719 L 432.949219 187.269531 L 440.640625 190.417969 L 435.171875 184.214844 L 438.507812 182.824219 C 438.042969 182.085938 437.675781 181.34375 437.210938 180.695312 L 434.617188 180.511719 L 435.542969 178.289062 C 434.988281 177.640625 434.339844 176.992188 433.691406 176.433594 L 431.558594 178.289062 L 429.800781 173.933594 C 429.335938 173.65625 428.78125 173.378906 428.316406 173.195312 L 427.945312 178.9375 L 420.257812 175.789062 L 425.722656 181.992188 L 418.03125 185.140625 Z M 369.484375 208.199219 L 379.675781 210.515625 L 377.914062 208.476562 L 385.605469 205.328125 L 377.359375 204.773438 L 380.511719 197.085938 L 374.300781 202.550781 L 371.152344 194.863281 L 370.597656 203.105469 L 366.425781 201.347656 C 366.148438 201.714844 365.964844 201.996094 365.6875 202.273438 C 367.445312 204.21875 368.929688 206.160156 369.484375 208.199219 Z M 297.589844 67.996094 C 297.773438 68.089844 297.960938 68.273438 298.144531 68.367188 C 299.164062 68.828125 300.371094 69.105469 301.851562 68.921875 C 303.519531 68.644531 304.816406 67.71875 305.742188 66.792969 C 306.949219 65.496094 307.503906 64.199219 307.597656 64.105469 C 307.6875 63.921875 307.597656 63.734375 307.410156 63.734375 C 307.226562 63.644531 295.457031 64.9375 295.273438 64.9375 C 295.089844 65.03125 295.089844 65.21875 295.179688 65.402344 C 295.179688 65.308594 296.015625 66.882812 297.589844 67.996094 Z M 438.042969 207.085938 L 434.894531 199.402344 L 434.339844 207.644531 L 426.648438 204.496094 L 432.113281 210.699219 L 424.425781 213.847656 L 432.300781 214.402344 C 435.265625 213.847656 438.507812 213.015625 442.027344 211.808594 C 443.972656 210.976562 445.640625 210.515625 447.03125 209.679688 L 441.007812 209.308594 L 444.160156 201.625 Z M 335.390625 79.847656 C 338.167969 79.847656 340.394531 77.625 340.394531 74.847656 C 340.394531 72.070312 338.167969 69.847656 335.390625 69.847656 C 332.609375 69.847656 330.386719 72.070312 330.386719 74.847656 C 330.386719 77.625 332.609375 79.847656 335.390625 79.847656 Z M 401.355469 205.421875 L 398.207031 213.105469 L 404.414062 207.644531 L 407.5625 215.328125 L 408.121094 207.085938 L 415.808594 210.234375 L 410.34375 204.03125 L 418.03125 200.882812 L 409.785156 200.328125 L 412.9375 192.640625 L 406.730469 198.105469 L 403.578125 190.417969 L 403.023438 198.660156 L 395.332031 195.511719 L 400.800781 201.714844 L 393.109375 204.863281 Z M 296.847656 174.027344 L 297.40625 174.121094 L 297.125 179.492188 L 336.6875 180.140625 L 338.910156 158.746094 C 338.910156 158.746094 325.847656 164.304688 299.8125 162.359375 L 299.90625 165.601562 L 297.21875 165.601562 Z M 381.808594 187.457031 L 382.363281 179.582031 C 381.4375 176.898438 380.511719 173.933594 379.863281 170.695312 C 378.285156 174.675781 376.527344 179.027344 374.859375 183.101562 L 378.65625 179.769531 Z M 363.832031 38.640625 C 363.832031 38.640625 368.464844 34.65625 363.277344 23.453125 C 358.089844 12.246094 347.527344 11.597656 347.527344 11.597656 C 347.527344 11.597656 362.257812 21.136719 363.832031 38.640625 Z M 383.660156 246.167969 L 380.511719 238.480469 L 379.953125 246.722656 L 373.652344 244.035156 L 372.355469 243.480469 L 374.582031 245.980469 L 375.414062 246.90625 C 380.601562 251.351562 385.882812 254.222656 390.980469 255.984375 L 387.457031 252 L 395.148438 248.851562 L 386.902344 248.296875 L 390.054688 240.609375 Z M 95.523438 125.59375 L 94.96875 124.855469 L 95.800781 124.484375 C 96.542969 124.113281 113.21875 116.148438 128.507812 117.722656 L 129.0625 117.816406 L 129.246094 118.371094 C 129.246094 118.371094 129.339844 118.835938 129.527344 119.574219 C 130.914062 118.464844 132.675781 117.910156 133.878906 117.632812 C 133.324219 116.984375 132.953125 116.613281 132.953125 116.613281 L 132.675781 116.148438 L 132.953125 115.6875 C 141.753906 103.09375 156.394531 99.757812 156.949219 99.574219 L 157.597656 99.386719 L 157.875 99.945312 C 157.96875 100.128906 164.453125 115.59375 153.984375 122.816406 C 153.890625 122.910156 153.800781 123.003906 153.707031 123.003906 C 147.871094 126.800781 143.238281 124.855469 140.457031 123.1875 L 140.457031 122.355469 L 140.367188 121.519531 C 142.773438 123.003906 147.777344 124.945312 152.875 121.613281 C 161.488281 115.964844 157.785156 104.019531 156.765625 101.148438 C 153.890625 101.980469 142.125 105.683594 134.714844 115.964844 C 135.175781 116.519531 136.105469 117.722656 137.402344 118.929688 L 136.660156 119.207031 L 136.011719 119.574219 C 135.824219 119.390625 135.546875 119.207031 135.363281 118.929688 C 134.621094 119.019531 131.378906 119.484375 129.988281 121.335938 C 130.636719 125.964844 130.914062 134.671875 124.894531 138.746094 C 123.96875 139.394531 122.855469 139.949219 121.464844 140.320312 C 116.277344 141.800781 110.164062 139.765625 103.769531 134.207031 C 98.859375 130.226562 95.617188 125.78125 95.523438 125.59375 Z M 97.375 125.410156 C 99.972656 128.742188 110.902344 141.707031 120.816406 138.839844 C 130.824219 135.875 128.414062 122.078125 127.765625 119.207031 C 115.074219 118.09375 100.988281 123.835938 97.375 125.410156 Z M 153.800781 305.527344 L 149.722656 324.695312 C 136.105469 327.566406 123.410156 325.066406 108.402344 319.695312 C 70.230469 305.898438 63.558594 250.796875 71.433594 217.367188 C 72.082031 214.589844 72.730469 211.902344 73.382812 209.402344 C 76.160156 198.476562 82.460938 189.121094 90.984375 182.546875 C 90.519531 183.472656 90.148438 184.121094 89.6875 185.234375 C 88.203125 185.511719 84.960938 199.679688 84.960938 199.679688 C 86.722656 199.679688 88.945312 199.773438 90.429688 199.492188 C 89.59375 206.996094 89.964844 215.421875 93.394531 225.515625 C 93.578125 225.886719 93.671875 226.347656 93.855469 226.71875 C 94.597656 226.535156 95.523438 226.347656 96.726562 226.070312 C 94.597656 220.421875 93.207031 215.328125 92.464844 210.792969 C 91.726562 210.976562 90.984375 211.164062 90.429688 211.253906 C 90.429688 210.882812 90.335938 210.515625 90.335938 210.234375 C 90.890625 210.144531 91.539062 209.957031 92.28125 209.773438 C 91.632812 205.792969 91.355469 202.273438 91.355469 199.308594 L 92.097656 199.03125 C 92.1875 200.140625 92.375 201.347656 92.464844 202.457031 C 92.558594 204.585938 92.835938 206.902344 93.207031 209.496094 C 93.394531 209.496094 93.578125 209.402344 93.761719 209.402344 C 93.855469 209.773438 93.949219 210.050781 94.042969 210.421875 C 93.855469 210.515625 93.578125 210.515625 93.394531 210.605469 C 94.226562 215.144531 95.523438 220.238281 97.65625 225.886719 C 98.117188 225.792969 98.675781 225.609375 99.230469 225.515625 C 99.414062 225.886719 99.507812 226.164062 99.691406 226.535156 C 99.136719 226.628906 98.582031 226.8125 98.023438 226.90625 C 99.878906 231.441406 102.195312 236.351562 105.253906 241.535156 C 105.992188 241.351562 106.734375 241.167969 107.566406 240.980469 C 107.753906 241.257812 107.9375 241.628906 108.125 241.90625 C 107.289062 242.09375 106.550781 242.277344 105.808594 242.460938 C 106.828125 244.035156 107.847656 245.703125 108.957031 247.371094 C 108.496094 247.371094 108.03125 247.371094 107.660156 247.277344 C 106.640625 245.703125 105.714844 244.222656 104.789062 242.648438 C 103.863281 242.832031 103.027344 243.109375 102.289062 243.296875 C 104.417969 246.167969 105.902344 247.183594 105.902344 247.183594 C 105.902344 247.183594 87.464844 277.28125 105.992188 294.597656 C 121.003906 308.765625 144.71875 307.378906 153.800781 305.527344 Z M 94.320312 227.738281 C 96.820312 234.683594 99.507812 239.3125 101.640625 242.371094 C 102.472656 242.183594 103.304688 242 104.324219 241.722656 C 101.269531 236.535156 98.953125 231.71875 97.191406 227.089844 C 96.078125 227.367188 95.0625 227.554688 94.320312 227.738281 Z M 131.285156 316.917969 C 131.285156 316.640625 131.101562 316.453125 130.824219 316.453125 C 130.636719 316.453125 110.8125 316.269531 95.246094 300.710938 C 82.738281 288.117188 76.4375 269.226562 76.53125 244.59375 C 76.53125 244.316406 76.34375 244.128906 76.066406 244.128906 C 75.789062 244.128906 75.605469 244.316406 75.605469 244.59375 C 75.511719 269.503906 81.8125 288.671875 94.597656 301.359375 C 110.441406 317.195312 130.636719 317.378906 130.824219 317.378906 C 131.101562 317.378906 131.285156 317.195312 131.285156 316.917969 Z M 415.996094 243.574219 C 413.492188 243.480469 410.992188 243.296875 408.488281 243.019531 L 402.28125 245.609375 L 410.527344 246.167969 L 407.378906 253.851562 L 413.585938 248.390625 L 416.734375 256.074219 L 417.292969 247.832031 L 424.980469 250.980469 L 419.515625 244.777344 L 426.554688 241.8125 L 426.554688 241.722656 C 423.589844 242.925781 420.164062 243.667969 415.996094 243.574219 Z M 457.871094 140.691406 C 457.6875 140.597656 457.5 140.597656 457.40625 140.597656 C 457.5 140.503906 457.5 140.414062 457.59375 140.320312 C 458.148438 138.558594 457.40625 136.617188 455.742188 135.78125 C 456.203125 135.410156 456.480469 134.855469 456.667969 134.300781 C 457.222656 132.632812 456.574219 130.875 455.09375 129.949219 C 455.648438 129.484375 456.109375 128.929688 456.390625 128.1875 C 456.851562 126.890625 456.480469 125.503906 455.648438 124.578125 C 456.757812 124.207031 457.6875 123.371094 458.148438 122.167969 C 458.796875 120.132812 457.6875 118 455.742188 117.355469 C 453.703125 116.707031 451.570312 117.816406 450.921875 119.761719 C 450.460938 121.058594 450.832031 122.445312 451.664062 123.371094 C 450.550781 123.742188 449.625 124.578125 449.164062 125.78125 C 448.605469 127.449219 449.253906 129.207031 450.738281 130.132812 C 450.179688 130.597656 449.71875 131.152344 449.441406 131.890625 C 448.882812 133.652344 449.625 135.597656 451.292969 136.429688 C 450.832031 136.800781 450.550781 137.355469 450.367188 137.910156 C 449.71875 139.949219 450.832031 142.078125 452.777344 142.726562 C 452.960938 142.820312 453.144531 142.820312 453.238281 142.820312 C 453.144531 142.914062 453.144531 143.003906 453.054688 143.097656 C 452.40625 145.136719 453.515625 147.265625 455.460938 147.914062 C 457.5 148.5625 459.632812 147.449219 460.28125 145.503906 C 461.019531 143.5625 459.910156 141.339844 457.871094 140.691406 Z M 459.910156 237.925781 C 461.113281 269.6875 450.832031 307.378906 420.164062 318.492188 C 405.246094 323.863281 391.070312 324.601562 379.214844 323.585938 L 376.0625 307.101562 C 401.449219 313.675781 418.125 307.007812 425.074219 290.339844 C 430.910156 276.261719 425.539062 262.558594 421.460938 255.335938 C 425.90625 253.667969 428.59375 252 428.59375 252 L 426.554688 241.8125 L 426.648438 241.8125 L 426.648438 241.722656 L 426.554688 241.722656 C 429.335938 240.609375 431.558594 238.945312 433.414062 237.089844 C 442.675781 240.332031 451.847656 236.628906 451.847656 236.628906 C 451.847656 236.628906 454.535156 228.941406 454.535156 227.738281 C 454.535156 228.664062 454.535156 237.738281 454.535156 237.738281 C 456.390625 238.015625 458.242188 238.109375 459.910156 237.925781 Z M 453.144531 243.296875 C 453.144531 243.019531 452.960938 242.832031 452.683594 242.832031 C 452.40625 242.832031 452.21875 243.019531 452.21875 243.296875 C 452.3125 267.929688 446.105469 286.820312 433.503906 299.414062 C 418.03125 314.972656 398.113281 315.15625 397.929688 315.15625 C 397.648438 315.15625 397.464844 315.34375 397.464844 315.621094 C 397.464844 315.898438 397.648438 316.082031 397.929688 316.082031 C 398.113281 316.082031 418.402344 315.898438 434.152344 300.0625 C 446.847656 287.375 453.238281 268.300781 453.144531 243.296875 Z M 89.871094 185.882812 C 87.277344 191.621094 86.257812 196.992188 85.980469 198.660156 C 98.765625 198.660156 106.457031 189.398438 110.71875 181.527344 C 110.902344 181.34375 111.179688 181.25 111.367188 181.34375 C 111.460938 181.4375 111.550781 181.4375 111.550781 181.527344 L 113.3125 174.214844 C 112.941406 174.027344 112.570312 173.84375 112.199219 173.566406 C 111.179688 172.730469 110.347656 171.804688 109.792969 170.695312 L 101.269531 176.804688 C 101.175781 176.898438 101.082031 176.898438 100.988281 176.898438 C 100.898438 176.898438 100.710938 176.804688 100.621094 176.714844 C 100.433594 176.527344 100.527344 176.25 100.710938 176.066406 L 109.421875 169.859375 C 109.328125 169.675781 109.328125 169.398438 109.234375 169.121094 C 109.234375 168.84375 109.328125 168.65625 109.605469 168.5625 C 109.882812 168.5625 110.070312 168.65625 110.164062 168.933594 C 110.253906 169.210938 110.347656 169.398438 110.441406 169.675781 C 110.441406 169.769531 110.53125 169.769531 110.53125 169.769531 C 110.625 169.859375 110.625 169.953125 110.625 170.046875 C 111.089844 171.0625 111.921875 172.082031 112.941406 172.824219 C 113.960938 173.566406 115.074219 174.027344 116.183594 174.214844 C 116.277344 174.214844 116.277344 174.214844 116.371094 174.214844 C 116.742188 174.214844 117.109375 174.214844 117.480469 174.214844 C 118.964844 174.121094 120.261719 173.472656 121.09375 172.359375 C 121.929688 171.25 122.207031 169.859375 121.835938 168.378906 C 121.464844 166.898438 120.539062 165.507812 119.148438 164.488281 C 117.945312 163.65625 116.648438 163.191406 115.257812 163.101562 C 114.980469 163.101562 114.792969 162.914062 114.792969 162.636719 C 113.128906 162.730469 111.550781 163.378906 110.625 164.675781 C 109.976562 165.601562 109.699219 166.710938 109.699219 167.824219 C 100.621094 169.210938 94.875 175.695312 91.261719 182.453125 C 91.261719 182.363281 91.355469 182.363281 91.355469 182.269531 C 91.261719 182.363281 91.078125 182.453125 90.984375 182.546875 C 90.519531 183.378906 90.148438 184.398438 89.6875 185.234375 C 89.871094 185.417969 89.964844 185.695312 89.871094 185.882812 Z M 181.316406 240.703125 C 182.148438 240.148438 183.539062 239.59375 185.300781 238.945312 C 186.132812 241.628906 187.523438 244.59375 189.46875 244.777344 C 191.878906 244.964844 191.601562 240.332031 191.136719 237.277344 C 191.042969 236.90625 191.042969 236.535156 190.953125 236.164062 C 191.042969 236.535156 191.136719 236.90625 191.230469 237.277344 C 192.0625 240.609375 193.636719 245.796875 195.675781 245.242188 C 197.53125 244.683594 197.066406 240.332031 196.417969 237.183594 C 197.25 240.148438 198.640625 243.945312 200.585938 243.203125 C 202.53125 242.460938 201.976562 238.945312 201.328125 236.351562 C 202.070312 238.296875 202.996094 240.425781 203.921875 240.238281 C 204.941406 240.054688 205.40625 237.460938 204.386719 234.222656 C 204.941406 234.128906 205.40625 234.035156 205.960938 233.851562 L 204.941406 206.902344 C 204.757812 202.644531 207.722656 199.03125 211.613281 198.476562 L 260.066406 191.992188 C 264.421875 191.4375 267.941406 195.140625 267.570312 199.957031 L 268.589844 242.460938 C 268.3125 245.980469 265.535156 249.039062 262.105469 249.59375 L 214.390625 257.09375 C 213.003906 257.28125 211.703125 257.09375 210.5 256.632812 C 205.035156 256.539062 181.316406 247.648438 181.316406 247.648438 C 179.277344 246.722656 177.609375 243.203125 181.316406 240.703125 Z M 244.59375 225.980469 C 244.6875 222.460938 242 219.589844 238.574219 219.773438 C 235.144531 219.867188 232.273438 222.921875 232.273438 226.535156 C 232.273438 230.054688 234.960938 232.738281 238.296875 232.648438 C 241.628906 232.367188 244.503906 229.40625 244.59375 225.980469 Z M 207.074219 208.847656 L 208.460938 250.703125 C 208.460938 251.722656 208.738281 252.648438 209.203125 253.574219 C 209.296875 253.667969 209.386719 253.761719 209.480469 253.761719 C 209.574219 253.761719 209.574219 253.761719 209.667969 253.761719 C 209.851562 253.667969 209.851562 253.484375 209.851562 253.296875 C 209.480469 252.464844 209.203125 251.628906 209.203125 250.703125 L 207.8125 208.847656 C 207.722656 205.050781 210.316406 201.714844 213.929688 201.253906 L 260.253906 194.957031 C 263.125 194.585938 265.8125 196.253906 266.738281 199.125 C 266.832031 199.308594 267.015625 199.402344 267.203125 199.308594 C 267.386719 199.214844 267.480469 199.03125 267.386719 198.847656 C 266.273438 195.695312 263.402344 193.84375 260.253906 194.214844 L 213.835938 200.511719 C 209.851562 200.976562 206.886719 204.679688 207.074219 208.847656 Z M 181.964844 244.683594 C 181.964844 244.777344 182.058594 244.960938 182.242188 245.054688 L 203.738281 251.910156 C 203.921875 251.910156 204.015625 251.816406 204.109375 251.722656 C 204.199219 251.539062 204.109375 251.351562 203.921875 251.351562 L 182.429688 244.5 C 182.242188 244.40625 182.058594 244.5 181.964844 244.683594 Z M 98.117188 155.878906 L 95.800781 161.433594 L 100.339844 157.542969 L 102.566406 163.101562 L 102.9375 157.171875 L 108.496094 159.488281 L 104.601562 154.949219 L 110.164062 152.730469 L 104.234375 152.359375 L 106.550781 146.800781 L 102.007812 150.691406 L 99.785156 145.136719 L 99.414062 151.0625 L 93.855469 148.746094 L 97.746094 153.285156 L 92.1875 155.507812 Z M 157.691406 189.679688 C 159.542969 188.75 161.210938 187.824219 162.507812 186.808594 C 162.601562 187.175781 162.785156 187.457031 162.878906 187.824219 C 161.488281 188.75 159.820312 189.679688 157.96875 190.695312 C 159.542969 195.695312 160.75 200.882812 161.675781 206.070312 C 163.714844 205.050781 165.472656 204.03125 166.769531 203.011719 C 166.769531 203.382812 166.863281 203.660156 166.863281 204.03125 C 166.863281 204.125 166.863281 204.125 166.863281 204.21875 C 165.472656 205.234375 163.804688 206.160156 161.765625 207.179688 C 162.507812 211.808594 162.972656 216.535156 163.15625 221.164062 C 162.785156 221.257812 162.507812 221.257812 162.136719 221.347656 C 161.953125 216.71875 161.488281 212.179688 160.75 207.644531 C 157.96875 208.941406 154.820312 210.328125 151.390625 211.625 C 152.039062 215.515625 152.410156 219.402344 152.6875 223.292969 C 152.316406 223.386719 152.039062 223.480469 151.667969 223.480469 C 151.484375 219.589844 151.019531 215.792969 150.464844 211.996094 C 147.035156 213.292969 143.421875 214.496094 139.625 215.699219 C 140.367188 219.21875 141.105469 222.644531 141.570312 225.886719 C 141.199219 225.980469 140.921875 226.070312 140.550781 226.164062 C 139.996094 222.921875 139.347656 219.496094 138.605469 215.976562 C 136.472656 216.625 134.25 217.367188 132.121094 218.015625 C 132.027344 217.644531 131.84375 217.367188 131.75 216.996094 C 133.972656 216.347656 136.195312 215.699219 138.421875 214.960938 C 137.214844 209.867188 135.917969 204.585938 134.4375 199.585938 C 131.5625 200.511719 128.691406 201.347656 125.820312 202.179688 C 125.632812 201.808594 125.542969 201.53125 125.355469 201.160156 C 128.230469 200.328125 131.195312 199.402344 134.066406 198.566406 C 132.582031 193.476562 131.101562 188.75 129.804688 184.585938 C 127.394531 185.324219 124.984375 186.066406 122.578125 186.808594 C 123.96875 195.234375 122.949219 204.957031 114.792969 212.367188 C 114.792969 212.367188 107.289062 201.714844 106.179688 189.863281 C 108.308594 187.457031 109.976562 184.863281 111.367188 182.363281 L 110.71875 185.324219 C 110.625 185.601562 110.8125 185.789062 111.089844 185.882812 L 111.179688 185.882812 C 111.367188 185.882812 111.550781 185.695312 111.644531 185.511719 L 114.238281 174.582031 C 114.703125 174.769531 115.164062 174.953125 115.722656 175.046875 L 117.945312 189.214844 C 117.945312 189.398438 118.222656 189.585938 118.40625 189.585938 L 118.5 189.585938 C 118.777344 189.585938 118.964844 189.308594 118.871094 189.03125 L 116.648438 175.046875 C 116.742188 175.046875 116.832031 175.046875 117.019531 175.046875 C 117.203125 175.046875 117.296875 175.046875 117.480469 175.046875 C 119.242188 174.953125 120.816406 174.121094 121.835938 172.824219 C 122.855469 171.527344 123.132812 169.769531 122.667969 168.101562 C 122.300781 166.339844 121.1875 164.765625 119.613281 163.65625 C 119.519531 163.5625 119.425781 163.5625 119.242188 163.472656 C 125.265625 163.285156 135.546875 162.359375 146.574219 158.933594 C 146.574219 158.933594 148.890625 163.378906 148.242188 168.378906 C 149.445312 170.507812 150.648438 172.730469 151.667969 174.953125 C 152.964844 174.304688 154.078125 173.65625 155.097656 173.101562 C 155.28125 173.378906 155.46875 173.65625 155.652344 173.933594 C 154.632812 174.582031 153.429688 175.230469 152.132812 175.878906 C 154.355469 180.417969 156.117188 185.046875 157.691406 189.679688 Z M 151.296875 176.433594 C 148.613281 177.730469 145.367188 179.121094 141.941406 180.417969 C 143.980469 184.863281 145.832031 189.398438 147.3125 194.121094 C 150.835938 192.828125 153.984375 191.53125 156.671875 190.140625 C 155.1875 185.511719 153.429688 180.878906 151.296875 176.433594 Z M 139.4375 175.230469 C 140.179688 176.621094 140.921875 178.101562 141.570312 179.492188 C 145.089844 178.195312 148.242188 176.804688 150.925781 175.507812 C 150 173.65625 148.980469 171.804688 148.054688 169.953125 C 147.871094 170.695312 147.59375 171.433594 147.222656 172.175781 C 147.222656 172.175781 144.347656 173.75 139.4375 175.230469 Z M 129.617188 183.566406 C 128.878906 181.25 128.136719 179.121094 127.582031 177.363281 C 125.265625 177.546875 122.855469 177.640625 120.261719 177.546875 C 121.1875 179.953125 122.019531 182.824219 122.578125 185.789062 C 124.894531 185.046875 127.300781 184.308594 129.617188 183.566406 Z M 130.636719 183.289062 C 134.066406 182.175781 137.402344 181.066406 140.550781 179.863281 C 139.808594 178.378906 139.070312 176.898438 138.328125 175.507812 C 135.640625 176.25 132.304688 176.898438 128.597656 177.269531 C 129.15625 179.027344 129.894531 180.972656 130.636719 183.289062 Z M 135.175781 198.289062 C 139.070312 197.085938 142.773438 195.789062 146.296875 194.492188 C 144.8125 189.769531 142.960938 185.234375 140.921875 180.789062 C 137.773438 181.992188 134.34375 183.101562 130.914062 184.308594 C 132.304688 188.382812 133.789062 193.195312 135.175781 198.289062 Z M 150.277344 210.882812 C 149.445312 205.699219 148.148438 200.511719 146.574219 195.417969 C 143.050781 196.714844 139.253906 198.011719 135.457031 199.214844 C 136.84375 204.21875 138.234375 209.402344 139.4375 214.589844 C 143.238281 213.476562 146.945312 212.179688 150.277344 210.882812 Z M 157.042969 191.160156 C 154.261719 192.457031 151.113281 193.84375 147.683594 195.140625 C 149.261719 200.234375 150.464844 205.328125 151.390625 210.515625 C 154.910156 209.21875 158.0625 207.828125 160.75 206.53125 C 159.820312 201.347656 158.617188 196.253906 157.042969 191.160156 Z M 300.925781 113.277344 L 309.910156 102.90625 L 320.382812 112.167969 C 320.382812 112.167969 332.796875 100.777344 339.46875 89.941406 L 330.386719 85.777344 C 330.386719 85.777344 318.621094 99.757812 309.910156 102.90625 L 310.003906 102.816406 L 297.035156 92.351562 C 297.035156 92.351562 293.882812 93.554688 287.214844 98.277344 C 292.03125 106.425781 300.925781 113.277344 300.925781 113.277344 Z M 91.078125 182.363281 C 91.078125 182.453125 90.984375 182.546875 90.984375 182.546875 C 90.984375 182.453125 91.078125 182.453125 91.078125 182.363281 Z M 139.808594 270.613281 C 139.808594 270.890625 139.996094 271.078125 140.273438 271.078125 L 389.035156 271.078125 C 389.3125 271.078125 389.496094 270.890625 389.496094 270.613281 C 389.496094 270.335938 389.3125 270.152344 389.035156 270.152344 L 140.273438 270.152344 C 139.996094 270.152344 139.808594 270.335938 139.808594 270.613281 Z M 139.808594 270.613281 " fill-opacity="1" fill-rule="nonzero"/></svg>