<svg xmlns="http://www.w3.org/2000/svg" xmlns:xlink="http://www.w3.org/1999/xlink" width="666" zoomAndPan="magnify" viewBox="0 0 499.5 473.999983" height="632" preserveAspectRatio="xMidYMid meet" version="1.0"><defs><clipPath id="01f8f15038"><path d="M 45 90 L 436 90 L 436 472.871094 L 45 472.871094 Z M 45 90 " clip-rule="nonzero"/></clipPath></defs><path fill="#a3e635" d="M 31.507812 353.277344 C 33.453125 361.941406 38.410156 371.441406 46.621094 381.800781 C 46.8125 382.039062 46.949219 382.300781 47.035156 382.574219 C 47.058594 382.640625 47.101562 382.691406 47.15625 382.722656 L 47.160156 382.738281 C 67.917969 406.535156 102.023438 439.542969 137.664062 455.804688 C 171.550781 471.265625 199.582031 473.035156 222 462.558594 L 222.003906 462.554688 C 229.078125 459.25 236.515625 455.585938 243.277344 449.855469 C 284.734375 414.726562 310.234375 393.785156 320.144531 389.191406 C 320.222656 389.152344 320.277344 389.082031 320.289062 389 L 320.292969 389.015625 C 320.480469 388.753906 320.679688 388.558594 320.816406 388.429688 L 320.859375 388.378906 L 320.859375 388.390625 C 324.734375 384.894531 354.511719 372.800781 408.179688 351.007812 L 413.148438 348.992188 L 440.554688 337.855469 C 456.246094 331.472656 468.511719 323.027344 476.175781 313.269531 C 492.144531 292.929688 497.992188 272.625 493.617188 253.125 C 490.324219 238.457031 481.257812 224.273438 466.425781 210.898438 C 454.773438 200.390625 436.410156 194.691406 413.324219 191.019531 C 412.847656 190.945312 412.421875 190.730469 412.082031 190.421875 L 412.085938 190.441406 C 412.046875 190.359375 411.96875 190.300781 411.875 190.292969 C 407.953125 189.878906 394.972656 189.851562 372.078125 189.84375 L 372.015625 189.84375 C 352.777344 189.839844 326.90625 189.832031 294.425781 189.515625 C 269.304688 189.269531 249.460938 183.058594 234.414062 176.957031 C 219.78125 171.023438 203.847656 162.792969 190.316406 148.273438 L 186.285156 143.945312 L 182.425781 139.800781 C 127.351562 80.691406 98.714844 50.28125 92.671875 48.300781 L 92.675781 48.320312 C 92.628906 48.269531 92.558594 48.238281 92.480469 48.238281 C 91.976562 48.253906 91.480469 48.105469 91.0625 47.824219 C 67.226562 31.636719 47.378906 27.234375 31.761719 34.730469 C 10.777344 44.800781 0.40625 64.273438 0.925781 92.230469 C 1.023438 97.566406 1.5625 102.804688 2.691406 107.84375 C 3.289062 110.507812 4.054688 113.113281 5.003906 115.648438 C 24.308594 167.105469 35.480469 202.40625 39.761719 221.488281 C 40.464844 224.625 40.980469 227.3125 41.320312 229.570312 L 41.324219 229.589844 C 41.324219 229.601562 41.324219 229.613281 41.328125 229.625 C 44.050781 247.980469 38.6875 284.496094 34.644531 311.984375 L 34.578125 312.449219 L 34.574219 312.449219 L 34.5625 312.53125 C 32.285156 328.039062 30.46875 340.464844 30.566406 345.6875 C 30.613281 348.140625 30.921875 350.671875 31.507812 353.277344 Z M 31.507812 353.277344 " fill-opacity="1" fill-rule="nonzero"/><path fill="#000000" d="M 32.234375 328.746094 C 44.144531 356.539062 65.726562 397.09375 93.703125 422.546875 C 120.0625 446.53125 145.046875 456.289062 168.457031 453.300781 C 175.882812 452.351562 183.707031 451.1875 191.519531 447.953125 C 242.09375 426.996094 272.03125 415.171875 280.910156 414.949219 L 279.296875 419.460938 C 278.304688 418.609375 277.769531 416.886719 278.980469 415.480469 L 278.984375 415.480469 C 279.40625 414.988281 279.917969 414.722656 280.191406 414.59375 C 284.75 412.445312 317.3125 410.035156 376.035156 405.589844 L 404.285156 403.445312 C 420.4375 402.214844 434.050781 398.101562 443.847656 391.472656 C 479.726562 367.191406 487.164062 334.011719 464.808594 295.574219 C 457.289062 282.648438 442.261719 272.109375 422.285156 262.015625 C 421.285156 261.511719 420.726562 260.417969 420.90625 259.3125 C 421.085938 258.207031 421.960938 257.34375 423.066406 257.179688 C 424.132812 257.023438 420.8125 257.109375 421.226562 259.90625 C 421.40625 261.140625 422.433594 261.621094 422.050781 261.371094 C 420.378906 260.269531 408.367188 256.382812 385.035156 248.898438 C 367.460938 243.261719 343.890625 235.699219 314.300781 225.894531 C 291.417969 218.316406 275.105469 206.828125 263.148438 196.851562 C 251.523438 187.148438 239.367188 174.960938 231.246094 157.707031 L 228.835938 152.585938 L 226.523438 147.675781 C 193.070312 76.597656 175.867188 40.585938 171.292969 37.941406 C 171.28125 37.9375 171.363281 37.984375 171.511719 38.019531 C 170.953125 37.882812 170.457031 37.5625 170.101562 37.109375 C 153.109375 15.402344 136.375 5.671875 120.070312 7.925781 C 98.105469 10.960938 83.015625 25.601562 75.335938 51.183594 C 73.09375 58.648438 71.859375 66.203125 72.222656 73.65625 C 75.210938 134.945312 74.542969 172.996094 72.03125 188.292969 C 69.125 205.976562 53.371094 238.023438 41.636719 261.9375 C 35 275.464844 29.707031 286.273438 28.277344 291.046875 C 25.375 300.71875 26.566406 313.136719 32.359375 328.523438 C 32.859375 329.851562 32.1875 331.332031 30.859375 331.832031 C 29.53125 332.332031 28.050781 331.660156 27.550781 330.335938 C 21.5625 314.425781 19.996094 300.761719 23.355469 289.570312 C 24.945312 284.269531 30.527344 272.917969 37.023438 259.675781 C 48.957031 235.355469 64.210938 204.191406 66.960938 187.460938 C 69.371094 172.789062 70.082031 135.269531 67.089844 73.90625 C 66.691406 65.722656 68.054688 57.570312 70.414062 49.707031 C 78.523438 22.695312 94.941406 6.210938 119.367188 2.835938 C 138.460938 0.195312 156.8125 11.792969 174.148438 33.941406 L 172.738281 33.03125 C 173.171875 33.136719 173.550781 33.3125 173.863281 33.492188 C 180.289062 37.207031 198.5 76.070312 231.171875 145.488281 L 233.484375 150.394531 L 235.894531 155.519531 C 243.558594 171.804688 255.078125 183.425781 266.441406 192.90625 C 278.097656 202.628906 293.847656 213.707031 315.917969 221.019531 C 345.503906 230.820312 369.011719 238.363281 386.605469 244.007812 C 409.203125 251.253906 422.429688 255.464844 424.878906 257.082031 C 424.875 257.078125 426.101562 257.761719 426.308594 259.15625 C 426.75 262.140625 423.210938 262.351562 423.816406 262.265625 L 424.601562 257.429688 C 444.703125 267.585938 460.925781 278.6875 469.25 292.992188 C 492.925781 333.699219 484.90625 369.886719 446.726562 395.726562 C 435.964844 403.007812 421.402344 407.292969 404.675781 408.566406 L 376.421875 410.710938 C 316.605469 415.242188 285.800781 417.628906 282.386719 419.242188 C 282.316406 419.273438 282.585938 419.167969 282.871094 418.839844 L 282.871094 418.835938 C 283.875 417.675781 283.367188 416.191406 282.652344 415.574219 C 283.457031 416.265625 283.75 417.382812 283.394531 418.382812 C 283.035156 419.382812 282.101562 420.058594 281.039062 420.085938 C 273.414062 420.277344 244.835938 431.421875 193.484375 452.699219 C 184.984375 456.222656 176.558594 457.445312 169.109375 458.398438 C 143.65625 461.648438 117.230469 450.902344 90.246094 426.347656 C 61.4375 400.140625 39.503906 358.757812 27.511719 330.769531 C 26.953125 329.464844 27.558594 327.957031 28.863281 327.398438 C 30.167969 326.839844 31.675781 327.441406 32.234375 328.746094 Z M 32.234375 328.746094 " fill-opacity="1" fill-rule="nonzero"/><path fill="#fb78fd" d="M 184.816406 156.183594 C 184.816406 153.242188 187.25 150.804688 190.195312 150.804688 C 193.136719 150.804688 195.570312 153.242188 195.570312 156.183594 C 195.570312 159.125 193.136719 161.5625 190.195312 161.5625 C 187.25 161.5625 184.816406 159.125 184.816406 156.183594 Z M 298.671875 210.777344 L 198.3125 210.777344 L 198.3125 335.589844 L 298.671875 335.589844 Z M 353.566406 364.714844 L 127.28125 364.511719 C 126.976562 364.511719 126.773438 365.121094 126.773438 366.132812 C 126.773438 367.046875 126.976562 367.757812 127.28125 367.757812 L 353.464844 367.960938 C 353.769531 367.960938 353.972656 367.351562 353.972656 366.335938 C 354.074219 365.320312 353.769531 364.714844 353.566406 364.714844 Z M 353.566406 364.714844 " fill-opacity="1" fill-rule="nonzero"/><path fill="#bf6070" d="M 256.660156 308.597656 L 244.988281 301.292969 L 241.84375 314.6875 L 238.699219 301.292969 L 227.027344 308.597656 L 234.335938 296.929688 L 220.941406 293.78125 L 234.335938 290.636719 L 227.027344 278.96875 L 238.699219 286.273438 L 241.84375 272.878906 L 244.988281 286.273438 L 256.660156 278.96875 L 249.351562 290.636719 L 262.746094 293.78125 L 249.351562 296.929688 Z M 282.535156 319.863281 L 289.839844 308.191406 L 278.171875 315.5 L 275.027344 302.105469 L 271.878906 315.5 L 260.210938 308.191406 L 267.515625 319.863281 L 254.121094 323.007812 L 267.515625 326.152344 L 260.210938 337.824219 L 271.878906 330.515625 L 275.027344 343.910156 L 278.171875 330.515625 L 289.839844 337.824219 L 282.535156 326.152344 L 295.929688 323.007812 Z M 214.242188 260.296875 L 217.390625 273.691406 L 220.535156 260.296875 L 232.203125 267.601562 L 224.898438 255.933594 L 238.292969 252.789062 L 224.898438 249.640625 L 232.203125 237.972656 L 220.535156 245.277344 L 217.390625 231.882812 L 214.242188 245.277344 L 202.574219 237.972656 L 209.878906 249.640625 L 196.484375 252.789062 L 209.878906 255.933594 L 202.574219 267.601562 Z M 257.777344 257.859375 L 250.46875 269.53125 L 262.140625 262.222656 L 265.285156 275.617188 L 268.429688 262.222656 L 280.101562 269.53125 L 272.792969 257.859375 L 286.1875 254.714844 L 272.792969 251.570312 L 280.101562 239.898438 L 268.429688 247.207031 L 265.285156 233.8125 L 262.140625 247.207031 L 250.46875 239.898438 L 257.777344 251.570312 L 244.382812 254.714844 Z M 231.59375 328.488281 L 238.902344 316.816406 L 227.230469 324.125 L 224.085938 310.730469 L 220.941406 324.125 L 209.269531 316.816406 L 216.578125 328.488281 L 203.183594 331.632812 L 216.578125 334.777344 L 209.269531 346.449219 L 220.941406 339.140625 L 224.085938 352.535156 L 227.230469 339.140625 L 238.902344 346.449219 L 231.59375 334.777344 L 244.988281 331.632812 Z M 167.972656 179.015625 L 169.796875 195.25 C 169.796875 195.25 261.9375 199.816406 305.976562 185.507812 C 305.976562 185.507812 304.554688 175.566406 302.628906 169.78125 C 302.628906 169.78125 310.746094 178.101562 312.167969 184.496094 L 330.226562 176.78125 C 330.226562 176.78125 327.894531 155.980469 313.585938 141.976562 C 306.992188 135.585938 303.539062 126.554688 303.4375 117.320312 C 303.234375 98.953125 299.988281 71.859375 290.246094 58.871094 C 272.285156 34.921875 238.089844 27.820312 197.398438 44.257812 C 197.398438 44.257812 149.300781 52.070312 149.910156 101.996094 C 150.113281 111.636719 152.34375 120.769531 154.777344 128.175781 C 158.332031 138.628906 155.589844 149.992188 148.183594 158.113281 C 142.296875 164.503906 137.019531 174.246094 137.019531 188.351562 C 137.019531 188.351562 147.574219 194.742188 161.882812 195.25 C 161.882812 195.148438 165.230469 182.566406 167.972656 179.015625 Z M 167.972656 179.015625 " fill-opacity="1" fill-rule="nonzero"/><path fill="#641acd" d="M 415.570312 229.449219 C 415.570312 229.449219 372.238281 286.984375 350.929688 290.839844 C 336.011719 293.476562 321.5 286.375 309.121094 275.113281 C 307.5 289.824219 304.453125 301.496094 304.453125 301.496094 C 309.933594 314.382812 311.355469 335.589844 311.355469 335.589844 L 274.113281 335.589844 C 274.113281 335.589844 274.519531 327.675781 275.027344 316.003906 L 274.519531 317.628906 L 274.011719 225.894531 C 274.011719 225.894531 274.214844 221.230469 273.707031 213.617188 L 257.371094 185.914062 C 259.601562 186.320312 261.734375 186.726562 263.863281 187.132812 L 263.964844 185.003906 C 263.964844 185.003906 271.171875 185.710938 278.882812 190.988281 C 290.957031 194.640625 298.0625 198.398438 298.0625 198.398438 C 298.0625 198.398438 318.253906 213.109375 336.011719 231.78125 C 336.011719 231.78125 369.398438 201.644531 377.414062 192.511719 C 377.414062 192.511719 385.328125 195.453125 398.417969 207.734375 C 411.507812 220.011719 415.570312 229.449219 415.570312 229.449219 Z M 226.722656 186.015625 C 224.390625 186.421875 222.160156 186.828125 219.925781 187.335938 L 219.824219 185.003906 C 219.824219 185.003906 209.777344 186.015625 200.542969 193.324219 C 188.773438 197.890625 180.960938 202.457031 180.960938 202.457031 C 180.960938 202.457031 158.636719 212.5 137.324219 226.910156 C 137.324219 226.910156 111.144531 190.378906 105.257812 179.726562 C 105.257812 179.726562 96.835938 180.84375 81.515625 190.074219 C 66.191406 199.308594 60.105469 207.632812 60.105469 207.632812 C 60.105469 207.632812 90.140625 273.082031 110.128906 281.402344 C 129.613281 289.519531 152.445312 278.867188 170.8125 263.339844 C 170.203125 282.519531 173.957031 297.4375 173.957031 297.4375 C 168.476562 310.324219 165.027344 335.589844 165.027344 335.589844 L 224.59375 335.589844 C 224.59375 335.589844 223.476562 327.675781 221.753906 316.003906 L 209.878906 225.894531 Z M 226.722656 186.015625 " fill-opacity="1" fill-rule="nonzero"/><path fill="#ffbfae" d="M 434.441406 197.789062 C 434.136719 198.703125 433.730469 199.714844 433.226562 200.628906 C 428.964844 208.136719 415.0625 213.007812 415.0625 213.007812 L 404.914062 224.578125 C 389.792969 216.257812 383.707031 204.6875 383.707031 204.6875 L 394.867188 193.832031 C 394.5625 181.550781 402.273438 153.851562 407.753906 156.488281 C 413.234375 159.125 409.683594 171.8125 409.683594 171.8125 L 414.554688 167.953125 C 414.554688 167.953125 431.703125 145.425781 435.964844 151.617188 C 438.296875 154.964844 434.949219 161.359375 431.5 166.535156 C 436.269531 161.96875 442.054688 157.300781 444.792969 158.113281 C 448.75 159.226562 441.546875 170.695312 434.035156 178 C 439.007812 173.941406 446.621094 168.15625 450.171875 168.15625 C 455.246094 168.15625 445.097656 183.175781 434.136719 188.046875 C 439.007812 186.21875 451.085938 182.160156 452.199219 185.8125 C 453.824219 190.378906 441.75 195.25 434.441406 197.789062 Z M 290.652344 120.261719 C 291.566406 138.933594 284.667969 158.011719 265.285156 167.445312 L 264.472656 185.105469 L 264.371094 185.105469 L 264.472656 185.105469 L 264.167969 192.105469 L 271.679688 195.25 C 273.910156 208.847656 274.113281 219.707031 274.113281 223.96875 C 251.992188 231.78125 210.082031 227.925781 209.777344 225.894531 C 208.460938 218.285156 211.503906 197.992188 212.214844 195.25 L 220.128906 192.105469 L 218.910156 171 C 203.996094 166.636719 195.976562 157.605469 193.542969 154.457031 C 193.035156 154.558594 192.425781 154.761719 191.917969 154.863281 C 181.46875 156.589844 171.625 149.6875 169.898438 139.339844 C 168.175781 128.988281 175.175781 119.246094 185.628906 117.421875 C 187.757812 117.015625 189.890625 117.015625 191.917969 117.421875 C 191.917969 117.421875 193.644531 117.625 195.875 118.636719 C 195.875 118.636719 195.875 118.636719 195.976562 118.636719 C 195.976562 118.636719 205.210938 116 202.371094 96.210938 C 202.371094 96.210938 222.5625 86.066406 223.984375 64.449219 C 223.984375 64.449219 236.667969 88.195312 263.152344 85.152344 C 267.71875 84.644531 280.304688 84.949219 288.21875 99.867188 C 288.421875 100.675781 290.347656 113.460938 290.652344 120.261719 Z M 234.84375 135.886719 C 234.84375 136.089844 235.25 138.628906 236.871094 141.265625 C 238.089844 143.296875 240.019531 145.324219 242.960938 146.542969 C 245.597656 147.660156 248.035156 147.761719 250.164062 147.355469 C 250.570312 147.253906 250.976562 147.152344 251.382812 147.050781 C 254.933594 145.933594 257.167969 143.601562 257.167969 143.5 C 257.371094 143.296875 257.371094 142.890625 257.167969 142.6875 C 256.964844 142.484375 235.65625 135.179688 235.351562 135.179688 C 235.046875 135.382812 234.84375 135.585938 234.84375 135.886719 Z M 83.746094 137.917969 C 77.761719 139.339844 78.46875 152.429688 78.46875 152.429688 L 74.511719 147.558594 C 74.511719 147.558594 62.742188 121.785156 57.261719 126.859375 C 51.78125 131.929688 62.539062 151.414062 62.539062 151.414062 C 62.4375 151.414062 62.4375 151.515625 62.335938 151.515625 C 62.132812 151.210938 61.929688 151.007812 61.726562 150.804688 C 60.710938 149.6875 59.089844 149.382812 57.769531 150.195312 C 56.449219 151.007812 55.234375 152.429688 55.03125 154.253906 C 50.972656 155.777344 49.449219 158.214844 48.332031 162.070312 C 43.15625 167.953125 46 173.230469 50.160156 178.101562 C 53.914062 187.539062 64.265625 191.394531 64.265625 191.394531 L 71.570312 204.992188 C 88.109375 200.121094 96.632812 190.277344 96.632812 190.277344 L 88.109375 177.1875 C 91.15625 165.316406 89.734375 136.597656 83.746094 137.917969 Z M 83.746094 137.917969 " fill-opacity="1" fill-rule="nonzero"/><g clip-path="url(#01f8f15038)"><path fill="#3d1937" d="M 335.605469 232.1875 C 335.402344 231.984375 335.402344 231.679688 335.605469 231.476562 C 335.808594 231.273438 336.113281 231.273438 336.316406 231.476562 L 345.042969 240.101562 C 345.246094 240.304688 345.246094 240.609375 345.042969 240.8125 C 344.941406 240.914062 344.839844 240.914062 344.636719 240.914062 C 344.535156 240.914062 344.332031 240.914062 344.230469 240.8125 Z M 266.910156 166.636719 C 266.808594 166.433594 266.503906 166.332031 266.199219 166.433594 C 261.328125 168.96875 255.644531 170.796875 249.453125 171.8125 C 240.21875 173.332031 231.492188 173.332031 223.476562 171.710938 C 223.171875 171.609375 222.96875 171.8125 222.867188 172.113281 C 222.765625 172.417969 222.96875 172.621094 223.273438 172.722656 C 227.433594 173.535156 231.796875 174.042969 236.261719 174.042969 C 240.523438 174.042969 244.988281 173.636719 249.554688 172.925781 C 255.847656 171.8125 261.632812 169.984375 266.605469 167.445312 C 266.910156 167.246094 267.011719 166.941406 266.910156 166.636719 Z M 221.855469 111.027344 C 212.316406 112.550781 210.488281 124.015625 210.488281 124.117188 C 210.488281 124.421875 210.691406 124.625 210.894531 124.726562 C 210.894531 124.726562 210.894531 124.726562 210.996094 124.726562 C 211.199219 124.726562 211.503906 124.523438 211.503906 124.320312 C 211.503906 124.320312 211.910156 121.988281 213.128906 119.347656 C 213.835938 123 216.984375 125.640625 220.636719 125.539062 C 224.695312 125.335938 228.042969 121.683594 227.535156 117.523438 C 227.230469 114.984375 226.21875 113.058594 224.898438 111.941406 C 228.753906 112.042969 231.898438 113.765625 234.234375 117.21875 C 236.363281 120.363281 236.972656 123.914062 236.972656 123.914062 C 236.972656 124.21875 237.277344 124.421875 237.582031 124.320312 C 237.886719 124.320312 238.089844 124.015625 237.988281 123.710938 C 237.988281 123.609375 237.378906 119.957031 235.148438 116.609375 C 232.8125 113.460938 228.855469 109.910156 221.855469 111.027344 Z M 281.011719 108.390625 C 278.578125 106.15625 274.519531 103.925781 268.734375 106.257812 C 260.820312 109.503906 261.632812 119.550781 261.632812 119.652344 C 261.632812 119.957031 261.835938 120.160156 262.140625 120.160156 C 262.445312 120.160156 262.648438 119.855469 262.648438 119.652344 C 262.648438 119.652344 262.546875 117.925781 262.949219 115.695312 C 264.472656 118.332031 267.414062 119.652344 270.359375 118.839844 C 273.808594 117.828125 276.042969 114.070312 274.722656 110.417969 C 274.113281 108.59375 272.996094 107.273438 271.878906 106.460938 C 275.027344 105.953125 277.867188 106.765625 280.40625 109.097656 C 282.839844 111.332031 284.058594 114.273438 284.058594 114.273438 C 284.160156 114.578125 284.464844 114.679688 284.769531 114.578125 C 285.074219 114.476562 285.175781 114.171875 285.074219 113.867188 C 284.769531 113.765625 283.550781 110.824219 281.011719 108.390625 Z M 251.585938 119.347656 C 254.832031 119.144531 257.066406 119.652344 258.382812 120.972656 C 259.195312 121.785156 259.601562 123 259.601562 124.625 C 259.296875 130.308594 249.859375 132.640625 249.757812 132.640625 C 249.453125 132.742188 249.25 133.046875 249.351562 133.351562 C 249.453125 133.65625 249.757812 133.859375 250.0625 133.757812 C 250.164062 133.757812 251.585938 133.351562 253.210938 132.640625 C 256.253906 131.324219 260.414062 128.886719 260.71875 124.625 C 260.820312 122.695312 260.3125 121.175781 259.195312 120.160156 C 257.675781 118.636719 255.136719 118.027344 251.585938 118.230469 C 249.859375 118.332031 248.441406 116.710938 248.035156 115.085938 C 247.425781 112.753906 247.324219 110.316406 247.730469 107.882812 C 247.730469 107.578125 247.527344 107.273438 247.222656 107.273438 C 246.917969 107.273438 246.613281 107.476562 246.613281 107.78125 C 246.207031 110.417969 246.308594 112.957031 246.917969 115.390625 C 247.425781 117.421875 249.25 119.550781 251.585938 119.347656 Z M 215.257812 105.34375 C 218.503906 103.214844 222.058594 101.488281 225.8125 100.371094 C 227.941406 99.765625 229.566406 99.054688 229.769531 97.429688 C 230.175781 95.199219 225.914062 95.097656 224.695312 95.097656 C 216.375 95.300781 208.964844 101.386719 207.546875 107.171875 C 207.851562 109.300781 208.964844 109.605469 215.257812 105.34375 Z M 263.050781 96.71875 C 266.808594 96.71875 270.5625 97.226562 274.214844 98.445312 C 281.214844 100.675781 282.230469 100.066406 281.722656 98.039062 C 278.78125 92.863281 270.359375 89.210938 262.546875 91.441406 C 261.429688 91.847656 257.574219 93.167969 258.484375 95.199219 C 259.195312 96.617188 260.921875 96.71875 263.050781 96.71875 Z M 175.378906 138.121094 C 175.683594 138.121094 175.886719 138.019531 175.988281 137.714844 C 176.800781 132.84375 180.453125 128.988281 185.222656 128.175781 C 190.09375 127.363281 194.660156 129.800781 196.992188 133.960938 C 195.265625 133.453125 193.441406 133.351562 191.613281 133.65625 C 188.367188 134.164062 185.425781 136.089844 183.597656 138.832031 C 183.394531 139.035156 183.496094 139.339844 183.699219 139.542969 C 183.800781 139.644531 183.902344 139.644531 184.105469 139.644531 C 184.207031 139.644531 184.410156 139.542969 184.410156 139.441406 C 186.136719 136.902344 188.773438 135.179688 191.816406 134.671875 C 193.746094 134.367188 195.773438 134.570312 197.703125 135.28125 C 198.007812 136.089844 198.3125 136.902344 198.414062 137.816406 C 198.820312 140.453125 198.414062 143.09375 197.195312 145.324219 C 197.09375 145.527344 197.195312 145.832031 197.398438 146.035156 C 197.5 146.136719 197.601562 146.136719 197.703125 146.136719 C 197.804688 146.136719 198.007812 146.035156 198.109375 145.832031 C 199.429688 143.296875 199.933594 140.453125 199.429688 137.613281 C 199.226562 136.597656 199.023438 135.6875 198.617188 134.773438 C 198.617188 134.671875 198.515625 134.570312 198.515625 134.46875 C 196.28125 129.292969 190.800781 126.148438 185.121094 127.160156 C 179.945312 128.074219 175.886719 132.234375 174.972656 137.511719 C 174.972656 137.816406 175.074219 138.019531 175.378906 138.121094 Z M 188.164062 258.671875 L 219.214844 316.917969 C 219.316406 317.121094 219.519531 317.222656 219.621094 317.222656 C 219.722656 317.222656 219.824219 317.222656 219.824219 317.121094 C 220.027344 317.019531 220.128906 316.714844 220.027344 316.410156 L 189.078125 258.367188 L 198.414062 223.664062 C 198.515625 223.460938 198.3125 223.15625 198.109375 223.054688 L 186.945312 218.386719 C 191.003906 194.539062 209.167969 187.945312 216.78125 186.21875 C 217.085938 186.117188 217.1875 185.914062 217.1875 185.609375 C 217.085938 185.308594 216.882812 185.207031 216.578125 185.207031 C 208.664062 187.03125 189.992188 193.933594 185.933594 218.589844 C 185.933594 218.792969 186.035156 219.097656 186.234375 219.097656 L 197.296875 223.765625 L 187.960938 258.265625 C 188.0625 258.367188 188.0625 258.46875 188.164062 258.671875 Z M 265.792969 184.902344 C 265.488281 184.800781 265.285156 185.003906 265.183594 185.308594 C 265.082031 185.609375 265.285156 185.8125 265.589844 185.914062 C 270.5625 186.929688 287.304688 191.902344 293.699219 212.804688 L 285.476562 223.15625 C 285.375 223.257812 285.375 223.460938 285.375 223.664062 L 296.132812 252.179688 L 275.433594 313.265625 C 275.332031 313.570312 275.535156 313.773438 275.738281 313.875 C 275.839844 313.875 275.839844 313.875 275.941406 313.875 C 276.144531 313.875 276.34375 313.773438 276.445312 313.570312 L 297.046875 252.28125 C 297.046875 252.179688 297.046875 252.078125 297.046875 251.976562 L 286.390625 223.5625 L 294.609375 213.210938 C 294.710938 213.109375 294.710938 212.90625 294.710938 212.703125 C 288.21875 191.089844 270.867188 185.914062 265.792969 184.902344 Z M 126.976562 234.117188 C 127.078125 234.117188 127.179688 234.117188 127.28125 234.015625 L 137.628906 227.417969 C 137.832031 227.316406 137.933594 226.910156 137.832031 226.707031 C 137.628906 226.503906 137.324219 226.402344 137.121094 226.503906 L 126.773438 233.101562 C 126.570312 233.203125 126.46875 233.609375 126.570312 233.8125 C 126.671875 234.015625 126.773438 234.117188 126.976562 234.117188 Z M 326.371094 333.765625 L 368.992188 333.765625 L 368.992188 365.929688 L 358.132812 365.929688 L 346.667969 473.089844 L 133.46875 473.089844 L 122.003906 365.929688 L 111.550781 365.929688 L 111.550781 333.765625 L 155.386719 333.765625 L 141.992188 272.777344 C 140.878906 267.5 142.296875 262.019531 145.949219 258.164062 L 155.488281 247.816406 C 152.445312 242.945312 153.257812 236.449219 157.621094 232.492188 L 165.535156 225.390625 C 170.507812 220.925781 178.117188 221.332031 182.582031 226.300781 C 187.046875 231.273438 186.640625 238.886719 181.671875 243.351562 L 173.753906 250.453125 C 169.1875 254.511719 162.390625 254.511719 157.824219 250.65625 L 148.589844 260.703125 C 145.75 263.746094 144.632812 268.007812 145.546875 272.066406 L 159.144531 333.863281 L 322.515625 333.863281 L 336.113281 272.066406 C 337.027344 268.007812 335.808594 263.746094 333.070312 260.703125 L 323.835938 250.65625 C 319.269531 254.511719 312.46875 254.613281 307.902344 250.453125 L 299.988281 243.351562 C 295.015625 238.886719 294.609375 231.273438 299.074219 226.300781 C 303.539062 221.332031 311.152344 220.925781 316.125 225.390625 L 324.039062 232.492188 C 328.402344 236.449219 329.214844 242.945312 326.167969 247.816406 L 335.707031 258.164062 C 339.359375 262.121094 340.78125 267.601562 339.664062 272.777344 Z M 352.148438 365.421875 L 128.089844 365.421875 C 127.785156 365.421875 127.585938 365.625 127.585938 365.929688 C 127.585938 366.234375 127.785156 366.4375 128.089844 366.4375 L 352.148438 366.4375 C 352.453125 366.4375 352.65625 366.234375 352.65625 365.929688 C 352.65625 365.625 352.351562 365.421875 352.148438 365.421875 Z M 78.773438 152.023438 C 78.570312 151.921875 78.269531 151.921875 78.066406 152.226562 C 77.761719 152.734375 71.0625 164.097656 75.222656 174.042969 C 75.324219 174.246094 75.527344 174.347656 75.730469 174.347656 C 75.832031 174.347656 75.832031 174.347656 75.933594 174.347656 C 76.238281 174.246094 76.339844 173.941406 76.238281 173.636719 C 72.28125 164.097656 78.875 152.835938 78.976562 152.734375 C 79.078125 152.429688 78.976562 152.125 78.773438 152.023438 Z M 410.191406 171.304688 C 409.988281 171.101562 409.683594 171.203125 409.480469 171.40625 C 409.277344 171.609375 409.378906 171.910156 409.582031 172.113281 C 409.683594 172.214844 420.84375 181.144531 414.25 195.554688 C 414.148438 195.859375 414.25 196.0625 414.453125 196.265625 C 414.554688 196.265625 414.554688 196.265625 414.65625 196.265625 C 414.859375 196.265625 415.0625 196.164062 415.164062 195.960938 C 422.0625 180.84375 410.292969 171.40625 410.191406 171.304688 Z M 61.421875 150.601562 C 61.21875 150.804688 61.21875 151.109375 61.421875 151.3125 C 67.105469 157.402344 72.484375 164.808594 70.554688 167.347656 C 70.25 167.75 69.84375 167.953125 69.335938 167.953125 C 67.511719 167.953125 64.773438 165.316406 62.4375 162.78125 C 60.8125 160.546875 59.394531 158.820312 58.988281 158.414062 C 58.785156 158.214844 58.480469 158.214844 58.277344 158.316406 C 58.074219 158.515625 57.972656 158.820312 58.175781 159.023438 C 58.277344 159.226562 59.699219 161.15625 61.523438 163.285156 C 64.871094 167.851562 68.527344 173.839844 67.105469 176.375 C 66.902344 176.679688 66.699219 176.882812 66.292969 176.984375 C 63.046875 177.289062 54.828125 168.5625 51.882812 165.113281 C 51.679688 164.910156 51.375 164.910156 51.175781 165.011719 C 50.972656 165.214844 50.972656 165.519531 51.074219 165.722656 C 51.277344 165.925781 60.105469 176.375 59.191406 180.742188 C 59.089844 181.347656 58.683594 181.855469 58.074219 182.160156 C 56.246094 183.074219 54.015625 181.957031 51.277344 178.8125 C 48.738281 175.972656 46.203125 172.519531 46.101562 168.96875 C 46.101562 168.664062 45.898438 168.460938 45.59375 168.460938 C 45.289062 168.460938 45.085938 168.664062 45.085938 168.96875 C 45.1875 172.824219 47.925781 176.476562 50.464844 179.421875 C 52.796875 182.058594 54.929688 183.378906 56.753906 183.378906 C 57.363281 183.378906 57.871094 183.277344 58.480469 182.972656 C 59.394531 182.566406 59.902344 181.855469 60.105469 180.84375 C 60.609375 178.507812 58.886719 174.957031 56.855469 171.8125 C 60.105469 174.957031 64.0625 178.101562 66.292969 177.898438 C 67.003906 177.796875 67.511719 177.492188 67.917969 176.78125 C 69.136719 174.550781 67.511719 170.59375 65.277344 166.941406 C 66.699219 168.054688 68.121094 168.867188 69.238281 168.867188 C 70.046875 168.867188 70.757812 168.5625 71.367188 167.851562 C 74.105469 164.300781 66.800781 155.472656 62.234375 150.5 C 61.929688 150.398438 61.625 150.398438 61.421875 150.601562 Z M 419.832031 170.492188 C 419.628906 170.390625 419.324219 170.492188 419.121094 170.695312 C 419.019531 170.898438 419.121094 171.203125 419.324219 171.40625 C 419.527344 171.507812 435.253906 179.21875 433.933594 194.742188 C 433.933594 195.046875 434.136719 195.25 434.441406 195.25 C 434.746094 195.25 434.949219 195.046875 434.949219 194.742188 C 436.371094 178.710938 419.933594 170.59375 419.832031 170.492188 Z M 270.96875 190.277344 C 270.664062 190.277344 270.460938 190.582031 270.5625 190.886719 L 271.171875 195.351562 C 271.171875 195.65625 271.375 195.757812 271.679688 195.757812 C 271.679688 195.757812 271.679688 195.757812 271.777344 195.757812 C 272.082031 195.757812 272.285156 195.453125 272.183594 195.148438 L 271.578125 190.683594 C 271.578125 190.480469 271.273438 190.277344 270.96875 190.277344 Z M 212.722656 191.496094 L 211.707031 195.148438 C 211.605469 195.453125 211.808594 195.65625 212.011719 195.757812 L 212.113281 195.757812 C 212.316406 195.757812 212.519531 195.65625 212.621094 195.351562 L 213.632812 191.699219 C 213.734375 191.394531 213.53125 191.191406 213.328125 191.089844 C 213.027344 191.089844 212.824219 191.191406 212.722656 191.496094 Z M 212.722656 191.496094 " fill-opacity="1" fill-rule="nonzero"/></g></svg>