<svg xmlns="http://www.w3.org/2000/svg" xmlns:xlink="http://www.w3.org/1999/xlink" width="1215" zoomAndPan="magnify" viewBox="0 0 911.25 627.749981" height="837" preserveAspectRatio="xMidYMid meet" version="1.0"><defs><clipPath id="1150143eeb"><path d="M 679 0.449219 L 801 0.449219 L 801 105 L 679 105 Z M 679 0.449219 " clip-rule="nonzero"/></clipPath><clipPath id="44b3bd6cb1"><path d="M 139 437 L 348 437 L 348 617.941406 L 139 617.941406 Z M 139 437 " clip-rule="nonzero"/></clipPath><clipPath id="2875c8d8a5"><path d="M 369 313 L 434 313 L 434 627.367188 L 369 627.367188 Z M 369 313 " clip-rule="nonzero"/></clipPath><clipPath id="8b32d68650"><path d="M 424 320 L 484 320 L 484 627.367188 L 424 627.367188 Z M 424 320 " clip-rule="nonzero"/></clipPath><clipPath id="d1156a82f4"><path d="M 566 388 L 684 388 L 684 627.367188 L 566 627.367188 Z M 566 388 " clip-rule="nonzero"/></clipPath><clipPath id="e70bc87500"><path d="M 641 525 L 750 525 L 750 627.367188 L 641 627.367188 Z M 641 525 " clip-rule="nonzero"/></clipPath><clipPath id="155dc5668a"><path d="M 750 617 L 775 617 L 775 627.367188 L 750 627.367188 Z M 750 617 " clip-rule="nonzero"/></clipPath><clipPath id="d59918316e"><path d="M 774 613 L 795 613 L 795 627.367188 L 774 627.367188 Z M 774 613 " clip-rule="nonzero"/></clipPath><clipPath id="23e5814060"><path d="M 131.230469 209 L 239 209 L 239 349 L 131.230469 349 Z M 131.230469 209 " clip-rule="nonzero"/></clipPath><clipPath id="cf3a360914"><path d="M 173 394 L 295 394 L 295 627.367188 L 173 627.367188 Z M 173 394 " clip-rule="nonzero"/></clipPath><clipPath id="109c8ca3ca"><path d="M 418 471 L 485 471 L 485 627.367188 L 418 627.367188 Z M 418 471 " clip-rule="nonzero"/></clipPath><clipPath id="e4b06447f2"><path d="M 475 479 L 537 479 L 537 627.367188 L 475 627.367188 Z M 475 479 " clip-rule="nonzero"/></clipPath><clipPath id="8dca9c89c7"><path d="M 413 487 L 538 487 L 538 627.367188 L 413 627.367188 Z M 413 487 " clip-rule="nonzero"/></clipPath><clipPath id="72a7a14249"><path d="M 294.214844 321 L 325.96875 321 L 325.96875 333.75 L 294.214844 333.75 Z M 294.214844 321 " clip-rule="nonzero"/></clipPath><clipPath id="f00094b6a0"><path d="M 325.863281 333.746094 C 325.367188 331.523438 325.058594 329.179688 324.855469 326.6875 C 325.0625 329.179688 325.371094 331.523438 325.867188 333.746094 C 325.867188 333.746094 325.863281 333.746094 325.863281 333.746094 M 294.472656 329.769531 C 294.46875 329.765625 294.464844 329.761719 294.460938 329.757812 C 294.808594 327.09375 294.976562 324.257812 295.09375 321.214844 C 294.980469 324.257812 294.816406 327.097656 294.472656 329.769531 " clip-rule="nonzero"/></clipPath><clipPath id="45b17b24d4"><path d="M 250 474 L 316 474 L 316 627.367188 L 250 627.367188 Z M 250 474 " clip-rule="nonzero"/></clipPath><clipPath id="827faca016"><path d="M 306 482 L 369 482 L 369 627.367188 L 306 627.367188 Z M 306 482 " clip-rule="nonzero"/></clipPath><clipPath id="f0e8630f37"><path d="M 229 508 L 377 508 L 377 627.367188 L 229 627.367188 Z M 229 508 " clip-rule="nonzero"/></clipPath></defs><path fill="#a3e635" d="M 368.230469 332.875 L 215.632812 332.875 L 139.335938 465.28125 L 215.632812 597.6875 L 368.230469 597.6875 L 444.527344 465.28125 Z M 368.230469 332.875 " fill-opacity="1" fill-rule="nonzero"/><path fill="#a3e635" d="M 781.417969 121.464844 L 628.824219 121.464844 L 552.527344 253.871094 L 628.824219 386.277344 L 781.417969 386.277344 L 857.714844 253.871094 Z M 781.417969 121.464844 " fill-opacity="1" fill-rule="nonzero"/><path fill="#a3e635" d="M 107.566406 412.492188 L 47.207031 412.492188 L 17.027344 464.863281 L 47.207031 517.238281 L 107.566406 517.238281 L 137.746094 464.863281 Z M 107.566406 412.492188 " fill-opacity="1" fill-rule="nonzero"/><path fill="#a3e635" d="M 806.777344 421.359375 L 746.417969 421.359375 L 716.238281 473.730469 L 746.417969 526.105469 L 806.777344 526.105469 L 836.957031 473.730469 Z M 806.777344 421.359375 " fill-opacity="1" fill-rule="nonzero"/><g clip-path="url(#1150143eeb)"><path fill="#a3e635" d="M 769.898438 0.136719 L 709.542969 0.136719 L 679.359375 52.511719 L 709.542969 104.882812 L 769.898438 104.882812 L 800.078125 52.511719 Z M 769.898438 0.136719 " fill-opacity="1" fill-rule="nonzero"/></g><g clip-path="url(#44b3bd6cb1)"><path fill="#000000" d="M 347.09375 527.773438 L 295.136719 617.9375 L 191.195312 617.9375 L 139.242188 527.773438 L 191.195312 437.609375 L 295.136719 437.609375 Z M 289.398438 608.003906 L 335.628906 527.773438 L 289.398438 447.542969 L 196.949219 447.542969 L 150.714844 527.773438 L 196.949219 608.003906 Z M 289.398438 608.003906 " fill-opacity="1" fill-rule="nonzero"/></g><path fill="#000000" d="M 485.757812 325.292969 L 433.796875 415.457031 L 329.871094 415.457031 L 277.910156 325.292969 L 329.871094 235.125 L 433.796875 235.125 Z M 428.058594 405.523438 L 474.292969 325.292969 L 428.058594 245.058594 L 335.609375 245.058594 L 289.375 325.292969 L 335.609375 405.523438 Z M 428.058594 405.523438 " fill-opacity="1" fill-rule="nonzero"/><path fill="#000000" d="M 909.808594 254.347656 L 856.765625 346.394531 L 750.675781 346.394531 L 697.632812 254.347656 L 750.675781 162.304688 L 856.765625 162.304688 Z M 851.03125 336.460938 L 898.347656 254.347656 L 851.03125 172.230469 L 756.414062 172.230469 L 709.097656 254.34375 L 756.414062 336.460938 Z M 851.03125 336.460938 " fill-opacity="1" fill-rule="nonzero"/><path fill="#ffffff" d="M 546.71875 388.84375 L 447.074219 388.84375 L 397.25 475.304688 L 447.074219 561.765625 L 546.71875 561.765625 L 596.539062 475.304688 Z M 546.71875 388.84375 " fill-opacity="1" fill-rule="nonzero"/><path fill="#ffffff" d="M 149.90625 224.789062 L 50.261719 224.789062 L 0.441406 311.25 L 50.261719 397.710938 L 149.90625 397.710938 L 199.730469 311.25 Z M 149.90625 224.789062 " fill-opacity="1" fill-rule="nonzero"/><path fill="#ffffff" d="M 691.277344 266.171875 L 591.632812 266.171875 L 541.8125 352.632812 L 591.632812 439.09375 L 691.277344 439.09375 L 741.101562 352.632812 Z M 691.277344 266.171875 " fill-opacity="1" fill-rule="nonzero"/><path fill="#18100f" d="M 432.820312 74.222656 C 432.820312 74.222656 429.832031 72.269531 427.429688 71.78125 C 425.027344 71.300781 413.269531 69.21875 396.898438 81.121094 C 364.363281 104.78125 392.628906 153.621094 392.628906 172.902344 C 392.628906 220.765625 351.035156 233.238281 375.941406 273.613281 C 381.074219 281.9375 388.136719 296.585938 436.765625 289.710938 C 436.765625 289.710938 462.761719 296.921875 482.171875 272.863281 C 484.253906 270.28125 513.988281 249.3125 466.824219 166.492188 C 452.050781 140.539062 482.171875 114.175781 458.851562 86.164062 C 446.011719 70.742188 432.820312 74.222656 432.820312 74.222656 " fill-opacity="1" fill-rule="nonzero"/><path fill="#f5866c" d="M 476.167969 194.976562 C 462.933594 191.1875 459.835938 190.15625 446.847656 186.023438 C 446.785156 185.957031 446.707031 185.882812 446.664062 185.820312 C 440.496094 176.640625 442.039062 165.382812 441.050781 149.25 C 440.941406 147.339844 434.347656 142.351562 427.464844 137.644531 L 427.464844 137.546875 L 427.550781 137.546875 C 427.511719 137.515625 427.476562 137.488281 427.429688 137.460938 C 427.394531 137.488281 427.355469 137.515625 427.320312 137.542969 C 427.28125 137.515625 427.242188 137.488281 427.207031 137.460938 C 427.164062 137.488281 427.125 137.515625 427.082031 137.546875 L 427.171875 137.546875 L 427.171875 137.644531 C 420.289062 142.351562 413.703125 147.339844 413.585938 149.25 C 412.601562 165.382812 414.144531 176.640625 407.980469 185.820312 C 407.933594 185.882812 407.847656 185.957031 407.789062 186.023438 C 394.800781 190.15625 391.710938 191.1875 378.472656 194.976562 C 378.472656 194.976562 372.304688 218.726562 373.050781 227.742188 C 373.898438 237.972656 376.917969 240.621094 383.046875 253.300781 C 383.046875 253.300781 388.269531 268.703125 388.761719 285.058594 C 389.167969 298.464844 387.40625 313.8125 385.179688 324.726562 C 384.25 329.285156 384.25 329.285156 383.054688 340.304688 L 471.585938 340.304688 C 470.386719 329.285156 470.386719 329.285156 469.453125 324.726562 C 467.234375 313.8125 463.097656 300.753906 463.507812 287.34375 C 464 270.988281 469.527344 255.699219 469.527344 255.699219 C 479.320312 234.488281 481.332031 227.023438 482.171875 216.789062 C 482.921875 207.78125 476.167969 194.976562 476.167969 194.976562 " fill-opacity="1" fill-rule="nonzero"/><path fill="#f5866c" d="M 464.957031 191.199219 C 464.957031 191.199219 483.855469 195.21875 490.050781 200.039062 C 498.8125 206.859375 501.5625 211.089844 516.152344 241.820312 C 524.449219 259.289062 530.796875 266.433594 537.355469 281.890625 C 535.222656 283.207031 531.890625 284.015625 529.980469 285.660156 C 529.402344 286.125 528.835938 286.597656 528.277344 287.085938 C 527.84375 287.460938 527.417969 287.855469 527 288.253906 C 525.601562 289.574219 524.25 290.949219 523.023438 292.441406 C 522.746094 292.078125 522.472656 291.71875 522.191406 291.332031 C 512.125 277.296875 503.589844 264.59375 494.847656 250.761719 C 486.019531 236.804688 455.472656 199.101562 464.957031 191.199219 " fill-opacity="1" fill-rule="nonzero"/><path fill="#f5866c" d="M 537.386719 296.710938 C 537.386719 296.710938 529.523438 315.757812 487.074219 351.113281 L 482.171875 345.65625 C 482.171875 345.65625 519.722656 286.890625 528.179688 281.757812 C 543.09375 272.703125 537.386719 296.710938 537.386719 296.710938 " fill-opacity="1" fill-rule="nonzero"/><path fill="#5f322f" d="M 442.867188 176.695312 C 442.152344 173.503906 441.84375 170.058594 441.667969 166.277344 C 441.847656 170.058594 442.160156 173.503906 442.875 176.691406 C 442.871094 176.691406 442.871094 176.691406 442.867188 176.695312 M 412.441406 172.835938 C 412.4375 172.832031 412.433594 172.832031 412.433594 172.828125 C 412.796875 170.007812 412.960938 166.984375 413.070312 163.726562 C 412.964844 166.992188 412.804688 170.011719 412.441406 172.835938 " fill-opacity="1" fill-rule="nonzero"/><path fill="#de6b58" d="M 430.539062 179.367188 C 422.691406 179.363281 416.523438 176.015625 412.441406 172.835938 C 412.804688 170.011719 412.964844 166.992188 413.070312 163.726562 C 413.175781 160.59375 413.234375 157.234375 413.378906 153.621094 L 441.261719 153.621094 C 441.445312 158.234375 441.488281 162.429688 441.667969 166.277344 C 441.84375 170.058594 442.152344 173.503906 442.867188 176.695312 C 438.402344 178.601562 434.28125 179.367188 430.539062 179.367188 " fill-opacity="1" fill-rule="nonzero"/><path fill="#f5866c" d="M 454.894531 124.199219 C 455.230469 114.402344 454.742188 106.878906 454.742188 106.878906 C 453.851562 91.449219 440.675781 88.570312 427.597656 88.945312 C 414.507812 88.570312 401.339844 91.449219 400.449219 106.878906 C 400.449219 106.878906 399.960938 114.402344 400.292969 124.199219 C 392.65625 118.414062 391.269531 128.566406 393.761719 135.71875 C 395.917969 141.839844 400.011719 141.964844 401.875 141.925781 C 402.089844 143.328125 402.339844 144.726562 402.613281 146.097656 C 404.730469 156.519531 417.300781 169.578125 424.261719 172.46875 C 424.261719 172.46875 425.105469 172.902344 427.597656 172.902344 C 430.078125 172.902344 430.925781 172.46875 430.925781 172.46875 C 437.882812 169.578125 450.460938 156.519531 452.570312 146.097656 C 452.851562 144.726562 453.097656 143.328125 453.3125 141.925781 C 455.179688 141.964844 458.878906 142.207031 461.042969 136.078125 C 463.53125 128.933594 462.414062 118.550781 454.894531 124.199219 " fill-opacity="1" fill-rule="nonzero"/><path fill="#18100f" d="M 397.878906 122.929688 C 397.878906 122.929688 400.667969 126.863281 401.828125 126.730469 C 402.96875 126.566406 402.636719 119.105469 404.816406 103.082031 C 404.816406 103.082031 429.503906 109.089844 448.109375 102.90625 C 448.109375 102.90625 450.109375 124.929688 451.515625 127.597656 C 453.289062 130.984375 455.652344 123.160156 455.652344 123.160156 C 455.652344 123.160156 462.007812 79.773438 427.566406 81.15625 C 427.566406 81.15625 390.453125 78.691406 397.878906 122.929688 " fill-opacity="1" fill-rule="nonzero"/><g clip-path="url(#2875c8d8a5)"><path fill="#f5866c" d="M 376.367188 560.367188 C 375 576.820312 375.414062 606.054688 376.859375 627.511719 L 398.277344 627.511719 C 401.613281 609.707031 406.0625 585.246094 407.449219 564.730469 C 408.359375 551.179688 404.578125 533.261719 407.570312 517.882812 C 414.78125 480.914062 425.21875 446.089844 426.980469 429.488281 L 433.054688 336.09375 L 387.742188 313.402344 C 387.742188 313.402344 372.121094 349.601562 369.5 389.914062 C 369.5 389.914062 368.230469 409.390625 379.894531 516.082031 C 382.097656 536.230469 377.21875 550.179688 376.367188 560.367188 " fill-opacity="1" fill-rule="nonzero"/></g><g clip-path="url(#8b32d68650)"><path fill="#f5866c" d="M 434.742188 567.273438 C 434.789062 587.539062 436.859375 610.050781 438.847656 627.511719 L 461.480469 627.511719 C 464.308594 606.203125 466.183594 579.484375 465.914062 564.265625 C 465.722656 554.042969 461.894531 540.488281 465.402344 520.519531 C 483.964844 414.816406 483.964844 395.292969 483.964844 395.292969 C 483.964844 354.898438 468.132812 320.945312 468.132812 320.945312 L 424.035156 337.453125 L 424.035156 431.042969 C 424.710938 447.730469 432.871094 483.160156 437.660156 520.519531 C 439.652344 536.054688 434.707031 553.691406 434.742188 567.273438 " fill-opacity="1" fill-rule="nonzero"/></g><path fill="#f5866c" d="M 386.335938 192.699219 C 386.335938 192.699219 367.433594 196.714844 361.242188 201.535156 C 352.480469 208.355469 349.726562 212.589844 335.136719 243.316406 C 326.84375 260.789062 320.488281 267.925781 313.929688 283.390625 C 316.070312 284.703125 319.402344 285.507812 321.308594 287.15625 C 321.886719 287.621094 322.449219 288.09375 323.011719 288.582031 C 323.441406 288.953125 323.867188 289.347656 324.289062 289.746094 C 325.691406 291.066406 327.039062 292.445312 328.265625 293.933594 C 328.542969 293.574219 328.8125 293.214844 329.089844 292.828125 C 339.160156 278.792969 347.703125 266.085938 356.445312 252.253906 C 365.261719 238.300781 395.8125 200.601562 386.335938 192.699219 " fill-opacity="1" fill-rule="nonzero"/><path fill="#6cbceb" d="M 468.78125 522.699219 C 468.78125 522.699219 417.972656 527 373.726562 521.289062 C 373.726562 521.289062 347.902344 404.246094 382.019531 328.902344 L 468.703125 328.902344 C 468.703125 328.902344 505.152344 383.785156 468.78125 522.699219 " fill-opacity="1" fill-rule="nonzero"/><path fill="#6cbceb" d="M 469.96875 259.46875 C 469.453125 256.542969 472.660156 251.25 472.933594 248.164062 C 474.605469 229.132812 473.191406 212.242188 477.964844 193.714844 C 467.757812 190.058594 456.117188 187.597656 456.117188 187.597656 C 445.949219 212.078125 427.429688 230.34375 427.429688 230.34375 C 417.183594 225.957031 396.898438 189.484375 396.898438 189.484375 C 387.863281 191.507812 376.613281 194.71875 369.492188 196.820312 C 374.5625 214.574219 376.496094 223.554688 377.1875 241.886719 L 381.683594 254.738281 C 385.640625 262.242188 384.398438 309.253906 380.019531 320.945312 C 375.636719 332.640625 366.664062 381.597656 366.664062 381.597656 C 378.019531 390.367188 421.625 391.828125 421.625 391.828125 L 427.320312 358.578125 L 433.054688 391.828125 C 460.335938 391.835938 485.453125 380.332031 485.453125 380.332031 C 483.4375 366.011719 471.375 328.902344 471.375 328.902344 C 461.097656 297.371094 467.378906 268.742188 469.96875 259.46875 " fill-opacity="1" fill-rule="nonzero"/><path fill="#f5866c" d="M 313.898438 298.210938 C 313.898438 298.210938 321.761719 317.25 364.21875 352.605469 L 369.117188 347.15625 C 369.117188 347.15625 331.5625 288.390625 323.109375 283.253906 C 308.1875 274.199219 313.898438 298.210938 313.898438 298.210938 " fill-opacity="1" fill-rule="nonzero"/><path fill="#f5866c" d="M 356.445312 346.097656 C 356.445312 346.097656 367.886719 356.792969 368.890625 357.425781 C 369.894531 358.058594 374.910156 358.5625 377.847656 356.285156 C 380.78125 354.003906 382.082031 349.839844 383.21875 349.230469 C 383.21875 349.230469 392.335938 351.472656 393.15625 349.230469 C 393.96875 346.992188 383.382812 346.667969 381.917969 346.335938 L 378.679688 346.992188 C 378.679688 346.992188 380.457031 345.851562 382.40625 345.035156 C 384.363281 344.21875 394.460938 347.972656 395.433594 345.035156 L 386.640625 342.917969 C 386.640625 342.917969 395.273438 344.382812 395.433594 341.613281 L 384.84375 340.304688 C 384.84375 340.304688 392.335938 341.121094 392.5 338.355469 C 392.5 338.355469 381.589844 338.1875 380.78125 338.355469 C 379.960938 338.515625 378.679688 338.355469 377.671875 340.304688 C 377.671875 340.304688 370.105469 347.96875 369.460938 347.804688 L 362.1875 337.648438 L 356.445312 346.097656 " fill-opacity="1" fill-rule="nonzero"/><path fill="#f5866c" d="M 494.847656 344.597656 C 494.847656 344.597656 483.40625 355.292969 482.402344 355.929688 C 481.398438 356.566406 476.375 357.070312 473.441406 354.789062 C 470.511719 352.503906 469.207031 348.34375 468.066406 347.738281 C 468.066406 347.738281 458.953125 349.976562 458.136719 347.738281 C 457.320312 345.496094 467.90625 345.171875 469.371094 344.84375 L 472.609375 345.496094 C 472.609375 345.496094 470.839844 344.355469 468.875 343.542969 C 466.933594 342.722656 456.835938 346.472656 455.851562 343.542969 L 464.648438 341.421875 C 464.648438 341.421875 456.019531 342.886719 455.851562 340.117188 L 466.4375 338.808594 C 466.4375 338.808594 458.953125 339.628906 458.785156 336.855469 C 458.785156 336.855469 469.695312 336.695312 470.511719 336.855469 C 471.324219 337.019531 472.609375 336.855469 473.609375 338.808594 C 473.609375 338.808594 481.183594 346.472656 481.835938 346.304688 L 489.101562 336.152344 L 494.847656 344.597656 " fill-opacity="1" fill-rule="nonzero"/><g clip-path="url(#d1156a82f4)"><path fill="#343f6a" d="M 611.585938 627.511719 C 616.046875 573.898438 621.285156 513.960938 623.867188 495.296875 C 628.167969 464.265625 631.046875 444.585938 631.046875 444.585938 C 627.855469 475.210938 628.820312 495.671875 628.820312 495.671875 C 629.054688 512.207031 623.785156 574.824219 620.175781 627.511719 L 664.683594 627.511719 C 669.046875 587.660156 675.257812 549.507812 676.746094 537.375 C 683.367188 483.644531 683.21875 388.207031 683.21875 388.207031 L 569.503906 397.363281 L 566.15625 627.511719 L 611.585938 627.511719 " fill-opacity="1" fill-rule="nonzero"/></g><path fill="#e66d57" d="M 604.324219 206.960938 C 613.097656 202.484375 612.808594 164.660156 612.808594 164.660156 C 612.808594 164.660156 620.527344 164.074219 628.660156 163.882812 L 628.691406 163.882812 C 636.824219 164.074219 644.542969 164.660156 644.542969 164.660156 C 644.542969 164.660156 644.253906 202.484375 653.019531 206.960938 L 652.273438 233.859375 L 628.691406 237.453125 L 628.660156 237.453125 L 605.078125 233.859375 L 604.324219 206.960938 " fill-opacity="1" fill-rule="nonzero"/><path fill="#c95347" d="M 612.472656 176.222656 L 645.246094 181.457031 C 645.5 184.511719 645.863281 187.683594 646.351562 190.730469 C 642.253906 194.429688 634.640625 200.722656 630.316406 200.667969 C 625.144531 200.601562 615.21875 194.105469 611.113281 190.039062 C 611.820312 185.382812 612.234375 180.476562 612.472656 176.222656 " fill-opacity="1" fill-rule="nonzero"/><path fill="#4d51ac" d="M 564.898438 416.667969 C 568.824219 385.527344 573.167969 288.367188 571.40625 281.402344 C 564.882812 255.664062 564.898438 214.429688 564.898438 214.429688 C 571.640625 212.105469 581.894531 210.824219 609.492188 199.351562 C 609.492188 199.351562 629.238281 222.554688 635.207031 222.554688 C 642.007812 222.554688 648.152344 199.4375 648.152344 199.4375 C 673.578125 209.597656 677.679688 209.132812 681.023438 210.253906 C 681.023438 210.253906 692.761719 255.765625 686.238281 281.496094 C 684.472656 288.460938 684.585938 380.167969 685.734375 416.667969 C 685.734375 416.667969 669.570312 416.667969 650.15625 404.195312 C 650.15625 404.195312 596.597656 422.71875 564.898438 416.667969 " fill-opacity="1" fill-rule="nonzero"/><path fill="#313a81" d="M 648.304688 311.113281 C 648.304688 311.113281 648.3125 311.371094 648.328125 311.863281 C 648.4375 315.546875 648.933594 332.265625 649.402344 349.980469 C 649.878906 367.695312 650.320312 386.421875 650.320312 394.097656 C 650.320312 394.894531 650.316406 395.574219 650.304688 396.113281 C 650.296875 396.65625 650.277344 397.0625 650.261719 397.300781 C 650.222656 397.769531 650.574219 398.175781 651.039062 398.214844 C 651.511719 398.253906 651.921875 397.898438 651.953125 397.433594 C 651.980469 397.128906 651.996094 396.703125 652.007812 396.144531 C 652.015625 395.589844 652.019531 394.902344 652.019531 394.097656 C 652.019531 385.859375 651.515625 365.113281 651.011719 346.410156 C 650.507812 327.707031 650.003906 311.0625 650.003906 311.0625 C 649.992188 310.589844 649.597656 310.222656 649.128906 310.234375 C 648.660156 310.25 648.289062 310.644531 648.304688 311.113281 " fill-opacity="1" fill-rule="nonzero"/><path fill="#ffffff" d="M 595.179688 434.761719 L 668.816406 378.015625 L 628.691406 325.84375 L 555.054688 382.59375 L 595.179688 434.761719 " fill-opacity="1" fill-rule="nonzero"/><path fill="#f5866c" d="M 755.863281 257.910156 C 755.863281 257.910156 761.207031 253.511719 762.082031 250.269531 C 763.929688 243.503906 764.15625 224.648438 765.078125 221.4375 C 765.078125 221.4375 766.921875 221.871094 767.839844 224.660156 C 768.757812 227.449219 768.851562 233.238281 770.222656 233.472656 C 770.222656 233.472656 782.6875 221.683594 785.445312 218.917969 C 788.207031 216.148438 791.894531 217.535156 792.351562 218.917969 C 792.351562 218.917969 792.921875 224.484375 791.078125 229.554688 C 791.078125 229.554688 792.710938 231.394531 791.894531 233.242188 C 791.078125 235.089844 778.5 255.839844 774.632812 256.988281 C 772.257812 257.699219 770.238281 259.75 768.859375 261.59375 C 767.476562 263.4375 765.429688 269.6875 765.429688 269.6875 L 755.863281 257.910156 " fill-opacity="1" fill-rule="nonzero"/><path fill="#ffffff" d="M 754.445312 253.632812 L 759.542969 248.910156 C 759.542969 248.910156 770.605469 257.605469 772.867188 260.441406 L 769.492188 268.453125 L 754.445312 253.632812 " fill-opacity="1" fill-rule="nonzero"/><path fill="#4d51ac" d="M 671.578125 207.789062 C 671.578125 207.789062 688.214844 210.921875 694.925781 217.4375 C 697.808594 220.234375 716.480469 291.710938 716.480469 291.710938 C 716.480469 291.710938 751.320312 254.585938 753.59375 252.882812 C 755.859375 251.183594 768.902344 264.238281 770.601562 267.640625 C 770.601562 267.640625 725.367188 337.976562 712.328125 337.882812 C 703.355469 337.808594 679.816406 306.742188 674.144531 291.710938 L 671.578125 207.789062 " fill-opacity="1" fill-rule="nonzero"/><path fill="#cfd2ee" d="M 644.847656 297.761719 C 641.726562 286.132812 609.496094 199.347656 609.496094 199.347656 C 609.496094 199.347656 629.238281 222.558594 635.210938 222.558594 C 642.007812 222.558594 648.15625 199.441406 648.15625 199.441406 L 657.039062 260.585938 C 656.472656 267.113281 644.847656 297.761719 644.847656 297.761719 " fill-opacity="1" fill-rule="nonzero"/><path fill="#6876c3" d="M 644.121094 225.113281 L 642.296875 236.179688 L 635.210938 237.453125 L 630.316406 227.097656 L 635.210938 222.558594 L 644.121094 225.113281 " fill-opacity="1" fill-rule="nonzero"/><path fill="#ffffff" d="M 635.210938 222.558594 L 624.390625 239.78125 L 609.496094 199.347656 Z M 635.210938 222.558594 " fill-opacity="1" fill-rule="nonzero"/><path fill="#ffffff" d="M 635.210938 222.558594 L 648.15625 199.441406 L 653.019531 232.964844 Z M 635.210938 222.558594 " fill-opacity="1" fill-rule="nonzero"/><path fill="#6876c3" d="M 653.183594 274.46875 C 649.996094 284.054688 645.871094 295.058594 645.019531 297.332031 L 644.414062 296.261719 C 642.988281 291.609375 639.488281 281.574219 635.210938 269.621094 L 635.210938 236.457031 L 641.164062 230.007812 L 653.183594 274.46875 " fill-opacity="1" fill-rule="nonzero"/><path fill="#f5866c" d="M 615.304688 372.691406 C 615.304688 372.691406 622.625 378.640625 628.304688 380.574219 C 628.304688 380.574219 633.449219 381.28125 635.550781 383.324219 C 637.652344 385.371094 644.601562 396.417969 645.417969 398.046875 C 646.234375 399.6875 643.375 400.09375 643.375 400.09375 L 637.652344 393.957031 C 637.652344 393.957031 642.496094 403.574219 640.453125 405.210938 C 638.410156 406.84375 634.0625 411.507812 630.660156 410.28125 C 627.253906 409.058594 617.46875 402.550781 615.304688 399.6875 C 613.136719 396.820312 604.960938 383.324219 604.960938 383.324219 L 615.304688 372.691406 " fill-opacity="1" fill-rule="nonzero"/><path fill="#ffffff" d="M 596.597656 380.070312 L 606.101562 388.582031 C 606.101562 388.582031 618.199219 381.390625 618.199219 372.691406 L 607.398438 362.09375 L 596.597656 380.070312 " fill-opacity="1" fill-rule="nonzero"/><path fill="#4d51ac" d="M 575.109375 211.445312 L 557.339844 216.578125 C 557.339844 216.578125 550.910156 220.324219 549.773438 234.46875 C 549.773438 234.46875 533.640625 307.976562 533.671875 316.113281 C 533.691406 321.835938 533.070312 328.492188 536.089844 332.277344 C 539.121094 336.058594 600.808594 386.355469 600.808594 386.355469 C 600.808594 386.355469 613.132812 375.382812 614.53125 367.816406 C 614.53125 367.816406 569.429688 314.078125 569.054688 312.191406 C 568.679688 310.292969 583.042969 273.167969 586.0625 265.265625 C 589.089844 257.359375 575.109375 211.445312 575.109375 211.445312 " fill-opacity="1" fill-rule="nonzero"/><path fill="#313a81" d="M 603.496094 205.023438 L 595.628906 237.855469 L 613.5 248.917969 L 610.027344 258.808594 L 610.277344 259.167969 C 610.277344 259.167969 617.679688 269.8125 625.527344 281.066406 C 629.449219 286.695312 633.484375 292.476562 636.753906 297.164062 C 640.03125 301.84375 642.539062 305.425781 643.429688 306.664062 C 643.703125 307.046875 644.234375 307.132812 644.617188 306.859375 C 644.996094 306.582031 645.082031 306.050781 644.8125 305.671875 C 643.9375 304.453125 641.421875 300.867188 638.148438 296.183594 C 633.242188 289.160156 626.621094 279.664062 621.230469 271.921875 C 618.53125 268.050781 616.144531 264.617188 614.429688 262.15625 C 613.570312 260.921875 612.882812 259.933594 612.40625 259.25 C 611.933594 258.570312 611.671875 258.195312 611.671875 258.195312 L 610.976562 258.683594 L 611.777344 258.960938 L 615.5625 248.191406 L 597.570312 237.054688 L 605.148438 205.421875 C 605.257812 204.964844 604.976562 204.503906 604.519531 204.394531 C 604.066406 204.289062 603.605469 204.566406 603.496094 205.023438 " fill-opacity="1" fill-rule="nonzero"/><path fill="#313a81" d="M 652.476562 205.691406 L 670.421875 232.757812 L 661.40625 239.445312 L 661.566406 240.011719 C 661.570312 240.027344 662.136719 242.066406 663.046875 244.640625 C 663.503906 245.929688 664.042969 247.347656 664.636719 248.71875 C 665.234375 250.089844 665.886719 251.414062 666.582031 252.515625 L 667.304688 252.058594 L 666.507812 251.761719 L 648.355469 300.957031 C 648.191406 301.394531 648.417969 301.882812 648.859375 302.046875 C 649.304688 302.210938 649.789062 301.984375 649.953125 301.542969 L 668.242188 251.957031 L 668.019531 251.597656 C 667.394531 250.617188 666.769531 249.359375 666.199219 248.042969 C 665.335938 246.058594 664.582031 243.933594 664.050781 242.300781 C 663.785156 241.488281 663.570312 240.796875 663.425781 240.3125 C 663.355469 240.070312 663.296875 239.878906 663.257812 239.75 C 663.238281 239.683594 663.226562 239.632812 663.214844 239.601562 C 663.207031 239.566406 663.203125 239.550781 663.203125 239.550781 L 662.386719 239.78125 L 662.894531 240.464844 L 672.734375 233.164062 L 653.894531 204.753906 C 653.632812 204.359375 653.105469 204.253906 652.714844 204.511719 C 652.324219 204.773438 652.21875 205.304688 652.476562 205.691406 " fill-opacity="1" fill-rule="nonzero"/><path fill="#313a81" d="M 687.394531 226.859375 C 687.394531 226.859375 686.152344 231.5625 684.90625 236.574219 C 684.285156 239.078125 683.660156 241.660156 683.191406 243.773438 C 682.957031 244.832031 682.757812 245.773438 682.621094 246.542969 C 682.550781 246.921875 682.496094 247.257812 682.457031 247.550781 C 682.417969 247.84375 682.394531 248.085938 682.394531 248.304688 C 682.394531 248.40625 682.398438 248.503906 682.421875 248.636719 C 682.433594 248.707031 682.457031 248.78125 682.5 248.882812 C 682.546875 248.980469 682.625 249.117188 682.796875 249.242188 L 682.800781 249.242188 L 682.792969 249.242188 L 683.273438 248.582031 L 682.621094 249.074219 C 682.65625 249.121094 682.703125 249.175781 682.792969 249.242188 L 683.273438 248.582031 L 682.621094 249.074219 L 683.207031 248.636719 L 682.53125 248.910156 C 682.542969 248.933594 682.554688 248.984375 682.621094 249.074219 L 683.207031 248.636719 L 682.53125 248.910156 L 682.925781 248.746094 L 682.511719 248.863281 L 682.53125 248.910156 L 682.925781 248.746094 L 682.511719 248.863281 C 682.519531 248.878906 682.539062 248.984375 682.554688 249.132812 C 682.589844 249.417969 682.628906 249.878906 682.671875 250.46875 C 682.820312 252.695312 682.992188 256.8125 683.15625 261.828125 C 683.398438 269.347656 683.636719 278.90625 683.8125 287.25 C 683.988281 295.589844 684.105469 302.71875 684.105469 305.367188 C 684.105469 305.703125 684.101562 305.96875 684.097656 306.148438 C 684.089844 306.621094 684.464844 307.007812 684.933594 307.019531 C 685.402344 307.027344 685.792969 306.65625 685.796875 306.183594 C 685.804688 305.984375 685.804688 305.710938 685.804688 305.367188 C 685.804688 303.347656 685.742188 298.832031 685.636719 293.160156 C 685.472656 284.65625 685.21875 273.585938 684.941406 264.59375 C 684.808594 260.097656 684.667969 256.121094 684.527344 253.238281 C 684.457031 251.800781 684.394531 250.632812 684.328125 249.808594 C 684.296875 249.390625 684.261719 249.058594 684.226562 248.808594 C 684.207031 248.679688 684.191406 248.570312 684.167969 248.464844 C 684.152344 248.40625 684.136719 248.351562 684.105469 248.273438 C 684.09375 248.230469 684.070312 248.183594 684.03125 248.121094 C 683.992188 248.058594 683.9375 247.972656 683.796875 247.871094 L 683.339844 248.496094 L 684.042969 248.164062 C 684.007812 248.09375 683.949219 247.980469 683.796875 247.871094 L 683.339844 248.496094 L 684.042969 248.164062 L 683.535156 248.398438 L 684.097656 248.332031 C 684.09375 248.3125 684.09375 248.273438 684.042969 248.164062 L 683.535156 248.398438 L 684.097656 248.332031 L 683.957031 248.351562 L 684.097656 248.335938 L 684.097656 248.332031 L 683.957031 248.351562 L 684.097656 248.335938 L 684.097656 248.304688 C 684.097656 248.222656 684.109375 248.027344 684.144531 247.78125 C 684.203125 247.304688 684.335938 246.613281 684.5 245.785156 C 685.097656 242.871094 686.234375 238.234375 687.21875 234.34375 C 687.714844 232.398438 688.167969 230.636719 688.5 229.359375 C 688.664062 228.71875 688.800781 228.203125 688.898438 227.847656 C 688.988281 227.492188 689.042969 227.296875 689.042969 227.296875 C 689.164062 226.839844 688.890625 226.375 688.4375 226.25 C 687.980469 226.132812 687.515625 226.402344 687.394531 226.859375 " fill-opacity="1" fill-rule="nonzero"/><path fill="#313a81" d="M 575.5 295.523438 C 575.507812 295.507812 578.242188 289.554688 580.988281 281.636719 C 582.355469 277.675781 583.730469 273.222656 584.761719 268.769531 C 585.792969 264.316406 586.488281 259.863281 586.488281 255.875 C 586.488281 253.972656 586.328125 252.171875 585.964844 250.527344 C 584.308594 243.0625 580.925781 234.410156 577.953125 227.59375 C 574.980469 220.785156 572.425781 215.828125 572.417969 215.8125 C 572.203125 215.394531 571.6875 215.234375 571.273438 215.445312 C 570.855469 215.664062 570.691406 216.179688 570.90625 216.59375 C 570.90625 216.597656 570.941406 216.671875 571.019531 216.820312 C 571.582031 217.917969 574.144531 223.023438 576.953125 229.5625 C 579.753906 236.101562 582.796875 244.085938 584.308594 250.898438 C 584.632812 252.386719 584.785156 254.066406 584.785156 255.875 C 584.789062 259.664062 584.121094 264.015625 583.105469 268.382812 C 581.582031 274.945312 579.296875 281.566406 577.386719 286.53125 C 576.429688 289.019531 575.570312 291.09375 574.949219 292.539062 C 574.644531 293.265625 574.390625 293.835938 574.21875 294.222656 C 574.132812 294.414062 574.066406 294.5625 574.023438 294.664062 C 573.976562 294.765625 573.953125 294.8125 573.953125 294.8125 C 573.757812 295.242188 573.945312 295.746094 574.371094 295.941406 C 574.796875 296.140625 575.300781 295.953125 575.5 295.523438 " fill-opacity="1" fill-rule="nonzero"/><path fill="#1a213a" d="M 630.992188 450.152344 C 630.992188 450.152344 631.058594 450.066406 631.1875 449.898438 C 632.15625 448.644531 636.546875 442.953125 641.328125 437.050781 C 643.71875 434.097656 646.207031 431.09375 648.410156 428.566406 C 649.511719 427.304688 650.539062 426.164062 651.449219 425.210938 C 652.351562 424.253906 653.136719 423.488281 653.730469 422.996094 C 654.089844 422.691406 654.140625 422.15625 653.835938 421.792969 C 653.535156 421.433594 653 421.386719 652.636719 421.6875 C 651.914062 422.292969 651.035156 423.160156 650.027344 424.230469 C 648.261719 426.105469 646.117188 428.589844 643.875 431.269531 C 637.160156 439.308594 629.644531 449.113281 629.644531 449.117188 C 629.355469 449.492188 629.425781 450.023438 629.796875 450.3125 C 630.171875 450.597656 630.703125 450.527344 630.992188 450.152344 " fill-opacity="1" fill-rule="nonzero"/><path fill="#f5866c" d="M 602.558594 146.621094 C 602.21875 136.808594 602.710938 129.261719 602.710938 129.261719 C 603.601562 113.808594 616.800781 110.925781 629.902344 111.300781 C 643.011719 110.925781 656.207031 113.808594 657.09375 129.261719 C 657.09375 129.261719 657.589844 136.808594 657.257812 146.621094 C 664.898438 140.820312 665.113281 149.550781 662.613281 156.710938 C 660.453125 162.84375 658.347656 161.578125 656.476562 161.535156 C 656.253906 162.941406 655.199219 167.179688 654.925781 168.550781 C 652.808594 178.992188 640.210938 192.078125 633.242188 194.96875 C 633.242188 194.96875 632.394531 195.402344 629.902344 195.398438 C 627.417969 195.402344 626.566406 194.96875 626.566406 194.96875 C 619.59375 192.078125 607 178.992188 604.882812 168.550781 C 604.605469 167.179688 604.460938 163.511719 604.25 162.105469 C 602.378906 162.148438 599.957031 163.128906 597.785156 156.996094 C 595.292969 149.832031 596.652344 141.953125 602.558594 146.621094 " fill-opacity="1" fill-rule="nonzero"/><path fill="#3b4179" d="M 657.253906 146.621094 C 657.253906 146.621094 652.640625 141.105469 653.179688 136.5625 C 653.734375 132.023438 652.597656 122.5625 651.089844 121.429688 C 649.578125 120.289062 639.597656 127.863281 614.527344 123.695312 C 614.527344 123.695312 609.480469 127.863281 609.492188 132.023438 C 609.503906 136.183594 609.121094 151.699219 606.480469 151.320312 C 603.828125 150.9375 599.984375 145.273438 599.984375 145.273438 C 599.984375 145.273438 594.003906 117.640625 598.164062 114.238281 L 600.433594 111.273438 C 600.433594 111.273438 601.945312 102.507812 609.492188 101.726562 C 614.222656 101.234375 631.085938 99.402344 635.210938 93.425781 C 639.746094 86.847656 644.164062 90.777344 643.785156 97.210938 C 643.785156 97.210938 653.054688 97.585938 654.832031 89.640625 C 654.832031 89.640625 666.585938 97.585938 665.171875 111.273438 C 665.171875 111.273438 668.851562 105.972656 669.996094 107.109375 C 671.125 108.242188 669.46875 131.703125 657.253906 146.621094 " fill-opacity="1" fill-rule="nonzero"/><path fill="#f5866c" d="M 649.570312 330.082031 C 649.570312 330.082031 651.371094 324.746094 652.625 322.59375 C 653.878906 320.441406 654.535156 317.210938 653.839844 314.703125 C 653.15625 312.191406 649.570312 305.730469 649.570312 305.730469 C 649.570312 305.730469 654.171875 297.839844 653.839844 296.402344 C 653.515625 294.972656 654.121094 294.605469 651.847656 296.402344 C 649.570312 298.199219 641.082031 308.597656 641.566406 310.394531 C 642.050781 312.191406 641.566406 328.691406 641.566406 328.691406 L 649.570312 330.082031 " fill-opacity="1" fill-rule="nonzero"/><path fill="#ffffff" d="M 649.933594 341.253906 L 652.625 330.082031 L 639.210938 325.820312 L 636.847656 336.144531 L 649.933594 341.253906 " fill-opacity="1" fill-rule="nonzero"/><path fill="#f5866c" d="M 778.875 568.289062 C 778.875 568.289062 783.886719 584.972656 783.257812 586.859375 C 782.632812 588.742188 781.089844 590.890625 781.089844 590.890625 L 772.691406 600.042969 C 772.691406 600.042969 768.660156 601.929688 767.578125 600.042969 C 766.507812 598.15625 762.742188 591.96875 762.742188 591.96875 C 762.742188 591.96875 761.671875 592.238281 760.589844 589.820312 C 759.515625 587.394531 760.589844 581.746094 760.589844 581.746094 C 760.589844 581.746094 766.777344 571.519531 767.578125 568.289062 C 768.386719 565.0625 778.875 568.289062 778.875 568.289062 " fill-opacity="1" fill-rule="nonzero"/><path fill="#ffffff" d="M 783.253906 550.796875 L 783.253906 570.535156 C 783.253906 570.535156 772.378906 571.25 766.285156 569.457031 L 766.285156 560.488281 L 783.253906 550.796875 " fill-opacity="1" fill-rule="nonzero"/><g clip-path="url(#e70bc87500)"><path fill="#18213a" d="M 693.15625 627.511719 L 693.15625 627.425781 C 693.15625 627.425781 695.394531 623.238281 692.363281 594.203125 C 692.363281 594.203125 693.773438 597.648438 697.851562 627.066406 C 697.875 627.214844 697.898438 627.363281 697.914062 627.511719 L 749.417969 627.511719 L 749.398438 534.21875 L 641.582031 525.539062 C 641.582031 525.539062 642.320312 577.792969 644.199219 627.511719 L 693.15625 627.511719 " fill-opacity="1" fill-rule="nonzero"/></g><path fill="#e66d57" d="M 716.382812 353.699219 C 708.070312 349.457031 708.339844 313.59375 708.339844 313.59375 C 708.339844 313.59375 701.023438 313.035156 693.3125 312.859375 L 693.285156 312.859375 C 685.566406 313.035156 678.253906 313.59375 678.253906 313.59375 C 678.253906 313.59375 678.527344 349.457031 670.210938 353.699219 L 670.929688 379.203125 L 693.285156 382.609375 L 693.285156 382.613281 L 693.300781 382.609375 L 693.3125 382.613281 L 693.3125 382.609375 L 715.667969 379.203125 L 716.382812 353.699219 " fill-opacity="1" fill-rule="nonzero"/><path fill="#c95347" d="M 708.660156 324.558594 L 677.582031 329.523438 C 677.339844 332.414062 677 335.425781 676.539062 338.3125 C 680.425781 341.824219 687.636719 347.785156 691.738281 347.738281 C 696.640625 347.667969 706.054688 341.507812 709.949219 337.652344 C 709.277344 333.242188 708.878906 328.589844 708.660156 324.558594 " fill-opacity="1" fill-rule="nonzero"/><path fill="#4d51ac" d="M 756.511719 563.171875 C 754.566406 524.894531 752.089844 432.554688 753.765625 425.949219 C 759.949219 401.554688 753.765625 360.777344 753.765625 360.777344 C 747.371094 358.574219 737.648438 357.363281 711.488281 346.480469 C 711.488281 346.480469 692.757812 368.484375 687.097656 368.484375 C 680.648438 368.484375 674.824219 346.570312 674.824219 346.570312 C 650.726562 356.195312 646.828125 355.757812 643.667969 356.820312 C 643.667969 356.820312 632.539062 399.964844 638.71875 424.363281 C 640.394531 430.964844 640.292969 528.308594 639.210938 562.910156 C 639.210938 562.910156 674.84375 562.621094 693.246094 550.796875 C 693.246094 550.796875 726.453125 568.90625 756.511719 563.171875 " fill-opacity="1" fill-rule="nonzero"/><path fill="#4d51ac" d="M 646.914062 356.160156 L 624.949219 362.5 C 624.949219 362.5 618.851562 366.046875 617.785156 379.457031 C 617.785156 379.457031 610.464844 422.757812 610.5 430.472656 C 610.515625 435.898438 605.5625 464.722656 607.632812 468.824219 C 616.957031 487.269531 637.59375 464.699219 637.238281 462.902344 C 636.882812 461.109375 651.574219 422.171875 654.4375 414.679688 C 657.304688 407.183594 646.914062 356.160156 646.914062 356.160156 " fill-opacity="1" fill-rule="nonzero"/><path fill="#cfd2ee" d="M 691.386719 444.515625 C 692.613281 439.957031 713.160156 393.472656 713.160156 393.472656 L 711.484375 346.480469 C 711.484375 346.480469 692.757812 368.488281 687.09375 368.488281 C 680.648438 368.488281 674.824219 346.570312 674.824219 346.570312 L 670.207031 395.5 C 670.742188 401.691406 691.386719 444.515625 691.386719 444.515625 " fill-opacity="1" fill-rule="nonzero"/><path fill="#313a81" d="M 683.441406 369.175781 L 688.285156 379.667969 L 694.460938 379.667969 L 698.496094 369.175781 L 691.390625 366.492188 L 683.441406 369.175781 " fill-opacity="1" fill-rule="nonzero"/><path fill="#ffffff" d="M 691.390625 366.492188 L 712.777344 382.613281 L 711.488281 346.480469 L 691.390625 366.492188 " fill-opacity="1" fill-rule="nonzero"/><path fill="#ffffff" d="M 691.390625 366.492188 L 674.828125 346.566406 L 671.421875 382.613281 L 691.390625 366.492188 " fill-opacity="1" fill-rule="nonzero"/><path fill="#4d51ac" d="M 750.542969 360.105469 L 772.503906 366.445312 C 772.503906 366.445312 778.601562 369.996094 779.679688 383.40625 C 779.679688 383.40625 789.847656 451.621094 789.824219 459.335938 C 789.800781 464.761719 790.367188 468.203125 789.824219 472.769531 C 788.507812 483.792969 785.589844 565.699219 785.589844 565.699219 C 785.589844 565.699219 771.03125 569.125 764.796875 565.332031 C 764.796875 565.332031 759.859375 468.644531 760.21875 466.847656 C 760.574219 465.058594 745.878906 426.117188 743.015625 418.625 C 740.148438 411.132812 750.542969 360.105469 750.542969 360.105469 " fill-opacity="1" fill-rule="nonzero"/><path fill="#313a81" d="M 715.804688 350.894531 L 730.066406 365.816406 L 718.886719 391.160156 L 722.921875 408.640625 L 723.710938 408.457031 L 723.078125 407.953125 C 723.078125 407.953125 716.8125 415.800781 710.132812 424.234375 C 706.789062 428.453125 703.34375 432.8125 700.519531 436.417969 C 699.113281 438.214844 697.855469 439.828125 696.847656 441.132812 C 695.839844 442.441406 695.082031 443.441406 694.652344 444.042969 C 694.390625 444.40625 694.472656 444.910156 694.835938 445.171875 C 695.195312 445.429688 695.703125 445.347656 695.960938 444.984375 C 696.371094 444.421875 697.125 443.417969 698.125 442.121094 C 701.640625 437.558594 708.195312 429.269531 713.867188 422.121094 C 716.707031 418.542969 719.320312 415.257812 721.234375 412.859375 C 722.1875 411.660156 722.960938 410.683594 723.503906 410.011719 C 724.039062 409.339844 724.335938 408.960938 724.335938 408.960938 L 724.582031 408.65625 L 720.578125 391.316406 L 731.976562 365.480469 L 716.96875 349.777344 C 716.660156 349.457031 716.152344 349.445312 715.828125 349.753906 C 715.503906 350.0625 715.496094 350.570312 715.804688 350.894531 " fill-opacity="1" fill-rule="nonzero"/><path fill="#313a81" d="M 668.226562 349.929688 L 651.570312 378.558594 L 662.515625 387.035156 L 663.011719 386.394531 L 662.238281 386.167969 C 662.238281 386.167969 662.1875 386.335938 662.09375 386.65625 C 661.433594 388.878906 658.601562 398.292969 655.796875 406.035156 L 655.648438 406.457031 L 690.753906 450.574219 C 691.035156 450.921875 691.542969 450.984375 691.890625 450.707031 C 692.242188 450.425781 692.296875 449.917969 692.019531 449.570312 L 657.191406 405.804688 L 656.558594 406.304688 L 657.316406 406.582031 C 660.542969 397.664062 663.78125 386.632812 663.785156 386.625 L 663.941406 386.09375 L 653.675781 378.144531 L 669.621094 350.742188 C 669.84375 350.359375 669.710938 349.863281 669.328125 349.640625 C 668.941406 349.417969 668.449219 349.546875 668.226562 349.929688 " fill-opacity="1" fill-rule="nonzero"/><path fill="#313a81" d="M 636.066406 372.980469 C 636.066406 372.980469 636.140625 373.257812 636.269531 373.75 C 636.71875 375.46875 637.851562 379.796875 638.863281 383.945312 C 639.367188 386.019531 639.847656 388.046875 640.199219 389.675781 C 640.371094 390.484375 640.515625 391.199219 640.613281 391.765625 C 640.664062 392.042969 640.699219 392.289062 640.722656 392.484375 C 640.75 392.679688 640.757812 392.828125 640.757812 392.898438 L 640.757812 392.925781 L 640.929688 392.9375 L 640.757812 392.910156 L 640.757812 392.925781 L 640.929688 392.9375 L 640.757812 392.910156 L 641.292969 392.996094 L 640.796875 392.789062 C 640.769531 392.859375 640.761719 392.894531 640.757812 392.910156 L 641.292969 392.996094 L 640.796875 392.789062 L 641.46875 393.070312 L 641.039062 392.484375 C 640.878906 392.605469 640.824219 392.722656 640.796875 392.789062 L 641.46875 393.070312 L 641.039062 392.484375 L 641.042969 392.484375 C 640.953125 392.550781 640.902344 392.605469 640.867188 392.65625 C 640.792969 392.753906 640.769531 392.816406 640.75 392.867188 C 640.710938 392.964844 640.699219 393.027344 640.679688 393.097656 C 640.652344 393.234375 640.632812 393.375 640.609375 393.550781 C 640.53125 394.230469 640.453125 395.433594 640.371094 397.070312 C 640.089844 402.789062 639.78125 413.722656 639.539062 424.015625 C 639.300781 434.304688 639.128906 443.933594 639.128906 447.03125 C 639.128906 447.34375 639.132812 447.59375 639.136719 447.773438 C 639.148438 448.21875 639.511719 448.574219 639.957031 448.5625 C 640.402344 448.554688 640.757812 448.1875 640.75 447.738281 C 640.746094 447.578125 640.746094 447.339844 640.746094 447.03125 C 640.746094 445.179688 640.808594 440.898438 640.90625 435.53125 C 641.0625 427.480469 641.304688 416.96875 641.566406 408.429688 C 641.695312 404.160156 641.828125 400.386719 641.960938 397.664062 C 642.023438 396.304688 642.085938 395.207031 642.148438 394.453125 C 642.179688 394.074219 642.203125 393.777344 642.230469 393.59375 C 642.242188 393.503906 642.257812 393.441406 642.261719 393.425781 L 641.851562 393.316406 L 642.234375 393.484375 C 642.257812 393.441406 642.261719 393.425781 642.261719 393.425781 L 641.851562 393.316406 L 642.234375 393.484375 L 641.605469 393.207031 L 642.179688 393.589844 C 642.210938 393.539062 642.226562 393.507812 642.234375 393.484375 L 641.605469 393.207031 L 642.179688 393.589844 L 641.539062 393.167969 L 641.996094 393.785156 C 642.101562 393.707031 642.148438 393.636719 642.179688 393.589844 L 641.539062 393.167969 L 641.996094 393.785156 C 642.152344 393.664062 642.226562 393.535156 642.269531 393.445312 C 642.332031 393.300781 642.347656 393.207031 642.355469 393.125 C 642.367188 393.042969 642.371094 392.96875 642.371094 392.898438 C 642.371094 392.6875 642.347656 392.457031 642.3125 392.183594 C 642.242188 391.667969 642.117188 390.988281 641.953125 390.183594 C 641.378906 387.363281 640.296875 382.96875 639.359375 379.269531 C 638.417969 375.566406 637.625 372.570312 637.625 372.566406 C 637.511719 372.136719 637.070312 371.878906 636.636719 371.992188 C 636.210938 372.109375 635.953125 372.550781 636.066406 372.980469 " fill-opacity="1" fill-rule="nonzero"/><path fill="#f5866c" d="M 718.058594 296.492188 C 718.378906 287.1875 717.910156 280.035156 717.910156 280.035156 C 717.070312 265.386719 704.558594 262.648438 692.136719 263.003906 C 679.707031 262.648438 667.195312 265.386719 666.351562 280.035156 C 666.351562 280.035156 665.882812 287.1875 666.207031 296.492188 C 658.953125 290.992188 658.75 299.265625 661.121094 306.058594 C 663.167969 311.871094 665.171875 310.667969 666.941406 310.636719 C 667.152344 311.964844 668.148438 315.984375 668.410156 317.28125 C 670.421875 327.183594 682.363281 339.589844 688.96875 342.332031 C 688.96875 342.332031 689.773438 342.742188 692.136719 342.742188 C 694.492188 342.742188 695.296875 342.332031 695.296875 342.332031 C 701.902344 339.589844 713.847656 327.183594 715.859375 317.28125 C 716.121094 315.984375 716.253906 312.5 716.460938 311.175781 C 718.230469 311.210938 720.527344 312.140625 722.585938 306.324219 C 724.945312 299.535156 723.660156 292.070312 718.058594 296.492188 " fill-opacity="1" fill-rule="nonzero"/><path fill="#313a81" d="M 694.054688 529.695312 L 694.054688 458.921875 C 694.054688 458.476562 693.695312 458.121094 693.246094 458.121094 C 692.804688 458.121094 692.441406 458.476562 692.441406 458.921875 L 692.441406 529.695312 C 692.441406 530.140625 692.804688 530.5 693.246094 530.5 C 693.695312 530.5 694.054688 530.140625 694.054688 529.695312 " fill-opacity="1" fill-rule="nonzero"/><path fill="#313a81" d="M 691.390625 444.515625 C 691.875 442.738281 695.292969 434.570312 699.289062 425.277344 L 694.46875 379.667969 L 688.289062 379.667969 L 682.320312 425.199219 C 687.066406 435.527344 691.390625 444.515625 691.390625 444.515625 " fill-opacity="1" fill-rule="nonzero"/><path fill="#313a81" d="M 748.171875 426.246094 L 759.472656 397.691406 L 767.058594 373.011719 C 767.191406 372.585938 766.945312 372.132812 766.523438 372.003906 C 766.101562 371.871094 765.648438 372.109375 765.515625 372.539062 L 757.953125 397.15625 L 746.671875 425.652344 C 746.507812 426.066406 746.714844 426.535156 747.125 426.699219 C 747.539062 426.863281 748.007812 426.660156 748.171875 426.246094 " fill-opacity="1" fill-rule="nonzero"/><g clip-path="url(#155dc5668a)"><path fill="#18213a" d="M 774.070312 627.511719 L 774.070312 617.949219 L 750.921875 617.949219 L 750.921875 627.511719 L 774.070312 627.511719 " fill-opacity="1" fill-rule="nonzero"/></g><g clip-path="url(#d59918316e)"><path fill="#24325c" d="M 794.863281 627.511719 L 794.863281 613.285156 L 774.074219 617.949219 L 774.074219 627.511719 L 794.863281 627.511719 " fill-opacity="1" fill-rule="nonzero"/></g><path fill="#30406d" d="M 750.925781 617.949219 L 769.769531 613.285156 L 794.863281 613.285156 L 774.074219 617.949219 L 750.925781 617.949219 " fill-opacity="1" fill-rule="nonzero"/><path fill="#18213a" d="M 773.226562 620.101562 L 773.226562 591.28125 C 773.226562 589.367188 771.667969 587.816406 769.753906 587.816406 C 767.84375 587.816406 766.285156 589.367188 766.285156 591.28125 L 766.285156 620.101562 L 773.226562 620.101562 " fill-opacity="1" fill-rule="nonzero"/><path fill="#5b61b7" d="M 636.847656 330.082031 C 636.847656 330.082031 606.910156 429.191406 603.339844 438.476562 C 599.765625 447.757812 597.800781 464.785156 607.632812 468.824219 C 617.46875 472.867188 631.835938 471.253906 635.199219 453.09375 C 638.5625 434.933594 652.625 333.714844 652.625 333.714844 L 636.847656 330.082031 " fill-opacity="1" fill-rule="nonzero"/><path fill="#18213a" d="M 651.847656 296.402344 C 654.121094 294.605469 653.515625 294.96875 653.839844 296.402344 C 654.082031 297.410156 651.875 301.597656 650.546875 304.003906 L 651.117188 308.617188 C 652.179688 310.664062 653.460938 313.296875 653.839844 314.699219 C 654.484375 317.027344 653.957031 319.960938 652.878906 322.089844 L 665.703125 324.558594 L 659.773438 293.726562 L 649.285156 293.726562 L 649.855469 298.378906 C 650.6875 297.472656 651.394531 296.761719 651.847656 296.402344 " fill-opacity="1" fill-rule="nonzero"/><path fill="#18213a" d="M 667.578125 301.246094 C 667.578125 301.246094 667.253906 292.902344 668.925781 287.789062 C 670.601562 282.679688 668.535156 274.070312 670.207031 272.726562 C 671.882812 271.378906 684.519531 274.070312 690.808594 273.265625 C 694.445312 272.792969 711.066406 271.820312 711.066406 271.820312 C 711.066406 271.820312 711.734375 280.90625 713.824219 285.101562 C 714.964844 287.402344 716.386719 302.859375 716.386719 302.859375 C 716.386719 302.859375 723.707031 283.183594 723.707031 272.453125 C 723.707031 261.421875 720.121094 253.890625 713.285156 252.003906 C 713.285156 252.003906 710.328125 246.085938 705.484375 243.664062 C 700.648438 241.242188 690.234375 242.320312 683.246094 235.320312 C 683.246094 235.320312 681.632812 242.046875 682.4375 245.007812 C 682.4375 245.007812 675.183594 243.664062 673.300781 242.046875 C 671.417969 240.433594 673.578125 249.851562 673.578125 249.851562 C 673.578125 249.851562 663.085938 246.621094 661.746094 245.816406 C 660.398438 245.007812 661.203125 254.695312 661.476562 256.582031 C 661.476562 256.582031 657.976562 254.15625 657.175781 253.890625 C 657.175781 253.890625 659.480469 265.183594 659.773438 266.9375 L 656.558594 262.972656 C 656.558594 262.972656 656.558594 286.179688 667.578125 301.246094 " fill-opacity="1" fill-rule="nonzero"/><g clip-path="url(#23e5814060)"><path fill="#69baea" d="M 175.398438 209.546875 C 175.398438 209.546875 151.351562 219.214844 146.648438 222.835938 C 141.9375 226.453125 141.628906 235.308594 148.695312 268.082031 C 148.695312 268.082031 137.054688 307.171875 131.5625 318.308594 C 131.5625 318.308594 135.289062 344.445312 139.21875 347.589844 C 143.140625 350.730469 222.757812 347.390625 229.753906 343.265625 C 236.75 339.132812 238.390625 326.5625 238.390625 326.5625 C 238.390625 326.5625 183.714844 299.515625 178.21875 297.714844 L 175.460938 285.195312 L 175.398438 209.546875 " fill-opacity="1" fill-rule="nonzero"/></g><g clip-path="url(#cf3a360914)"><path fill="#18213a" d="M 190.601562 627.511719 L 237.511719 627.511719 C 233.875 576.550781 229.378906 521.488281 229.601562 505.894531 C 229.601562 505.894531 230.609375 484.652344 227.289062 452.859375 C 227.289062 452.859375 230.28125 473.289062 234.746094 505.503906 C 237.1875 523.125 241.90625 576.179688 246.21875 627.511719 L 294.449219 627.511719 L 291.195312 403.820312 L 173.121094 394.3125 C 173.121094 394.3125 172.96875 493.402344 179.835938 549.195312 C 181.195312 560.226562 186.3125 591.992188 190.601562 627.511719 " fill-opacity="1" fill-rule="nonzero"/></g><path fill="#e66d57" d="M 255.039062 206.132812 C 245.929688 201.480469 246.230469 162.210938 246.230469 162.210938 C 246.230469 162.210938 238.222656 161.597656 229.769531 161.40625 L 229.769531 161.402344 L 229.742188 161.402344 L 229.742188 161.40625 C 221.289062 161.597656 213.285156 162.210938 213.285156 162.210938 C 213.285156 162.210938 213.578125 201.480469 204.472656 206.132812 L 205.253906 234.0625 L 229.742188 237.789062 L 229.742188 237.792969 L 229.753906 237.789062 L 229.769531 237.792969 L 229.769531 237.789062 L 254.257812 234.0625 L 255.039062 206.132812 " fill-opacity="1" fill-rule="nonzero"/><path fill="#c95347" d="M 246.578125 174.214844 L 212.550781 179.652344 C 212.28125 182.824219 211.90625 186.117188 211.402344 189.28125 C 215.660156 193.121094 223.558594 199.65625 228.050781 199.601562 C 233.421875 199.527344 243.726562 192.78125 247.992188 188.554688 C 247.261719 183.722656 246.828125 178.632812 246.578125 174.214844 " fill-opacity="1" fill-rule="nonzero"/><path fill="#f5866c" d="M 256.875 143.476562 C 257.222656 133.292969 256.714844 125.460938 256.714844 125.460938 C 255.792969 109.410156 242.082031 106.421875 228.480469 106.804688 C 214.875 106.421875 201.167969 109.410156 200.246094 125.460938 C 200.246094 125.460938 199.738281 133.292969 200.082031 143.476562 C 192.148438 137.457031 191.925781 146.515625 194.511719 153.957031 C 196.757812 160.328125 198.960938 159.007812 200.894531 158.96875 C 201.125 160.425781 202.207031 164.828125 202.5 166.25 C 204.703125 177.089844 217.78125 190.671875 225.015625 193.679688 C 225.015625 193.679688 225.894531 194.128906 228.480469 194.128906 C 231.0625 194.128906 231.945312 193.679688 231.945312 193.679688 C 239.183594 190.671875 252.261719 177.089844 254.464844 166.25 C 254.75 164.828125 254.894531 161.015625 255.125 159.554688 C 257.0625 159.601562 259.578125 160.625 261.832031 154.253906 C 264.414062 146.816406 263.007812 138.632812 256.875 143.476562 " fill-opacity="1" fill-rule="nonzero"/><path fill="#69baea" d="M 295.976562 423.863281 C 295.976562 383.726562 293.902344 329.800781 295.976562 322.628906 C 319.921875 240.148438 307.566406 215.726562 307.566406 215.726562 C 300.570312 213.3125 278.328125 210.144531 249.675781 198.226562 C 249.675781 198.226562 229.164062 222.320312 222.96875 222.320312 C 215.902344 222.320312 209.53125 198.320312 209.53125 198.320312 C 183.136719 208.867188 178.871094 208.386719 175.398438 209.546875 C 175.398438 209.546875 161.582031 222.320312 170.511719 304.027344 C 171.328125 311.445312 171.707031 385.96875 170.511719 423.863281 C 170.511719 423.863281 187.292969 423.863281 207.449219 410.917969 C 207.449219 410.917969 263.0625 430.148438 295.976562 423.863281 " fill-opacity="1" fill-rule="nonzero"/><path fill="#4d96c2" d="M 297.765625 316.292969 L 191.617188 338.890625 C 191.617188 338.890625 272.484375 360.074219 281.699219 359.035156 C 285.484375 358.605469 290.496094 355.121094 295.089844 351.175781 C 294.96875 336.53125 295.117188 325.589844 295.976562 322.628906 C 296.605469 320.472656 297.1875 318.375 297.765625 316.292969 " fill-opacity="1" fill-rule="nonzero"/><path fill="#4d96c2" d="M 171.269531 364.027344 L 238.390625 336.65625 L 171.210938 338.441406 C 171.261719 346.355469 171.285156 355.074219 171.269531 364.027344 " fill-opacity="1" fill-rule="nonzero"/><path fill="#4587b0" d="M 207.316406 314.207031 C 207.316406 314.207031 206.792969 331.5 206.269531 350.921875 C 206.007812 360.632812 205.746094 370.878906 205.550781 379.757812 C 205.355469 388.644531 205.222656 396.160156 205.222656 400.441406 C 205.222656 401.273438 205.226562 401.988281 205.238281 402.566406 C 205.25 403.148438 205.261719 403.589844 205.289062 403.914062 L 207.636719 403.730469 C 207.617188 403.5 207.601562 403.078125 207.59375 402.523438 C 207.582031 401.964844 207.578125 401.265625 207.578125 400.441406 C 207.578125 396.203125 207.707031 388.6875 207.902344 379.8125 C 208.199219 366.496094 208.640625 350.113281 209.007812 337.058594 C 209.191406 330.53125 209.355469 324.835938 209.476562 320.773438 C 209.535156 318.742188 209.585938 317.117188 209.617188 316 C 209.652344 314.886719 209.667969 314.28125 209.667969 314.28125 L 207.316406 314.207031 " fill-opacity="1" fill-rule="nonzero"/><path fill="#cfd2ee" d="M 212.964844 300.410156 C 216.195312 288.328125 249.675781 198.226562 249.675781 198.226562 C 249.675781 198.226562 229.164062 222.320312 222.96875 222.320312 C 215.902344 222.320312 209.53125 198.320312 209.53125 198.320312 L 200.304688 261.808594 C 200.894531 268.585938 212.964844 300.410156 212.964844 300.410156 " fill-opacity="1" fill-rule="nonzero"/><path fill="#18213a" d="M 213.71875 224.976562 L 215.613281 236.464844 L 222.96875 237.792969 L 228.050781 227.039062 L 222.96875 222.320312 L 213.71875 224.976562 " fill-opacity="1" fill-rule="nonzero"/><path fill="#ffffff" d="M 222.96875 222.320312 L 234.203125 240.210938 L 249.675781 198.226562 Z M 222.96875 222.320312 " fill-opacity="1" fill-rule="nonzero"/><path fill="#ffffff" d="M 222.96875 222.320312 L 209.53125 198.320312 L 204.472656 233.132812 Z M 222.96875 222.320312 " fill-opacity="1" fill-rule="nonzero"/><path fill="#18213a" d="M 204.308594 276.21875 C 207.621094 286.175781 211.90625 297.601562 212.796875 299.957031 L 213.417969 298.84375 C 214.886719 294.019531 218.53125 283.59375 222.96875 271.1875 L 222.96875 236.753906 L 216.789062 230.058594 L 204.308594 276.21875 " fill-opacity="1" fill-rule="nonzero"/><path fill="#4587b0" d="M 253.894531 204.597656 L 261.71875 237.238281 L 243.011719 248.816406 L 247.023438 260.21875 L 248.136719 259.832031 L 247.167969 259.15625 C 247.167969 259.15625 247.050781 259.328125 246.824219 259.652344 C 245.128906 262.089844 237.46875 273.097656 229.800781 284.089844 C 225.972656 289.585938 222.136719 295.078125 219.046875 299.5 C 215.960938 303.917969 213.613281 307.261719 212.761719 308.445312 L 214.675781 309.820312 C 215.601562 308.53125 218.207031 304.8125 221.605469 299.953125 C 231.800781 285.363281 249.101562 260.503906 249.101562 260.503906 L 249.445312 260.007812 L 245.863281 249.820312 L 264.40625 238.347656 L 256.183594 204.050781 L 253.894531 204.597656 " fill-opacity="1" fill-rule="nonzero"/><path fill="#4587b0" d="M 203.328125 203.671875 L 183.613281 233.410156 L 194.050781 241.15625 L 194.753906 240.210938 L 193.617188 239.894531 L 193.613281 239.914062 C 193.546875 240.144531 192.945312 242.261719 192.035156 244.816406 C 191.578125 246.089844 191.046875 247.480469 190.46875 248.796875 C 189.894531 250.109375 189.273438 251.351562 188.65625 252.320312 L 188.339844 252.808594 L 207.386719 304.433594 L 209.597656 303.621094 L 190.753906 252.542969 L 189.648438 252.953125 L 190.640625 253.582031 C 191.378906 252.421875 192.0625 251.042969 192.683594 249.609375 C 193.621094 247.457031 194.414062 245.199219 194.980469 243.46875 C 195.546875 241.738281 195.882812 240.539062 195.886719 240.527344 L 196.105469 239.746094 L 186.8125 232.847656 L 205.289062 204.976562 L 203.328125 203.671875 " fill-opacity="1" fill-rule="nonzero"/><path fill="#4587b0" d="M 166.792969 227.324219 C 166.792969 227.324219 166.871094 227.625 167.011719 228.164062 C 167.507812 230.042969 168.742188 234.785156 169.855469 239.324219 C 170.410156 241.597656 170.933594 243.8125 171.316406 245.59375 C 171.507812 246.480469 171.664062 247.257812 171.769531 247.871094 C 171.824219 248.171875 171.863281 248.4375 171.886719 248.644531 C 171.914062 248.851562 171.925781 249.007812 171.921875 249.058594 L 171.921875 249.070312 L 171.949219 249.070312 L 171.921875 249.070312 L 171.949219 249.070312 L 171.921875 249.070312 L 172.59375 249.117188 L 171.953125 248.925781 C 171.921875 249.027344 171.925781 249.0625 171.921875 249.070312 L 172.59375 249.117188 L 171.953125 248.925781 L 172.925781 249.214844 L 172.046875 248.714844 C 171.992188 248.804688 171.96875 248.878906 171.953125 248.925781 L 172.925781 249.214844 L 172.046875 248.714844 L 173.007812 249.261719 L 172.351562 248.371094 C 172.1875 248.492188 172.101562 248.617188 172.046875 248.714844 L 173.007812 249.261719 L 172.351562 248.371094 L 172.355469 248.367188 C 172.226562 248.460938 172.15625 248.546875 172.101562 248.617188 C 172 248.757812 171.964844 248.84375 171.933594 248.917969 C 171.878906 249.050781 171.863281 249.132812 171.84375 249.214844 C 171.808594 249.378906 171.789062 249.542969 171.765625 249.738281 C 171.71875 250.121094 171.675781 250.636719 171.632812 251.28125 C 171.472656 253.703125 171.300781 258 171.128906 263.222656 C 170.875 271.046875 170.628906 280.9375 170.449219 289.5625 C 170.265625 298.1875 170.144531 305.535156 170.144531 308.308594 C 170.144531 308.667969 170.148438 308.949219 170.152344 309.15625 L 172.507812 309.109375 C 172.503906 308.929688 172.5 308.65625 172.5 308.308594 C 172.5 306.253906 172.566406 301.554688 172.679688 295.679688 C 172.847656 286.859375 173.113281 275.367188 173.398438 266.039062 C 173.539062 261.375 173.6875 257.253906 173.828125 254.28125 C 173.898438 252.800781 173.964844 251.601562 174.03125 250.78125 C 174.0625 250.371094 174.09375 250.054688 174.121094 249.867188 C 174.132812 249.773438 174.148438 249.710938 174.148438 249.710938 L 173.535156 249.5625 L 174.117188 249.796875 C 174.144531 249.726562 174.148438 249.710938 174.148438 249.710938 L 173.535156 249.5625 L 174.117188 249.796875 L 173.167969 249.414062 L 174.039062 249.953125 C 174.085938 249.875 174.105469 249.832031 174.117188 249.796875 L 173.167969 249.414062 L 174.039062 249.953125 L 173.074219 249.355469 L 173.742188 250.269531 C 173.921875 250.136719 173.992188 250.023438 174.039062 249.953125 L 173.074219 249.355469 L 173.742188 250.269531 L 173.746094 250.269531 C 173.976562 250.09375 174.078125 249.914062 174.140625 249.785156 C 174.230469 249.582031 174.246094 249.460938 174.261719 249.347656 C 174.277344 249.238281 174.277344 249.148438 174.277344 249.058594 C 174.277344 248.804688 174.25 248.550781 174.210938 248.238281 C 174.132812 247.660156 173.996094 246.914062 173.8125 246.027344 C 173.179688 242.925781 171.996094 238.113281 170.96875 234.0625 C 169.9375 230.003906 169.070312 226.71875 169.066406 226.71875 L 166.792969 227.324219 " fill-opacity="1" fill-rule="nonzero"/><path fill="#4587b0" d="M 286.835938 297.222656 C 286.835938 297.222656 286.824219 297.199219 286.804688 297.15625 C 286.484375 296.445312 283.671875 290.210938 280.953125 282.226562 C 279.59375 278.234375 278.253906 273.808594 277.261719 269.425781 C 276.265625 265.042969 275.617188 260.707031 275.621094 256.925781 C 275.621094 255.058594 275.777344 253.332031 276.117188 251.808594 C 277.777344 244.304688 281.253906 235.386719 284.3125 228.378906 C 285.839844 224.875 287.265625 221.839844 288.304688 219.6875 C 288.828125 218.609375 289.25 217.753906 289.546875 217.167969 C 289.691406 216.875 289.808594 216.648438 289.882812 216.496094 C 289.921875 216.421875 289.953125 216.363281 289.972656 216.324219 C 289.992188 216.285156 290 216.269531 290 216.269531 L 287.910156 215.183594 C 287.902344 215.203125 285.242188 220.355469 282.152344 227.433594 C 279.0625 234.519531 275.546875 243.515625 273.816406 251.296875 C 273.433594 253.035156 273.265625 254.925781 273.265625 256.925781 C 273.265625 261.101562 273.992188 265.742188 275.0625 270.382812 C 276.675781 277.335938 279.082031 284.277344 281.082031 289.492188 C 283.085938 294.707031 284.6875 298.191406 284.695312 298.207031 L 286.835938 297.222656 " fill-opacity="1" fill-rule="nonzero"/><path fill="#1a213a" d="M 228.75 457.5625 C 228.75 457.554688 224.21875 451.644531 218.976562 445.140625 C 216.359375 441.886719 213.558594 438.484375 211.0625 435.59375 C 209.808594 434.148438 208.632812 432.832031 207.585938 431.71875 C 206.539062 430.605469 205.625 429.703125 204.875 429.078125 C 204.5 428.761719 203.945312 428.8125 203.632812 429.1875 C 203.316406 429.558594 203.367188 430.121094 203.742188 430.429688 C 204.398438 430.980469 205.28125 431.847656 206.300781 432.929688 C 208.089844 434.832031 210.308594 437.390625 212.617188 440.164062 C 216.085938 444.316406 219.769531 448.933594 222.585938 452.515625 C 223.996094 454.304688 225.183594 455.835938 226.023438 456.921875 C 226.445312 457.460938 226.777344 457.890625 227 458.183594 C 227.226562 458.480469 227.347656 458.636719 227.347656 458.636719 C 227.644531 459.023438 228.199219 459.097656 228.589844 458.800781 C 228.976562 458.503906 229.046875 457.945312 228.75 457.5625 " fill-opacity="1" fill-rule="nonzero"/><path fill="#f5866c" d="M 191.617188 291.164062 C 191.617188 291.164062 177.503906 291.710938 173.101562 293.554688 C 168.699219 295.402344 162.960938 299.957031 162.960938 299.957031 L 160.410156 311.675781 L 162.960938 311.675781 L 167.515625 309.132812 C 167.515625 309.132812 180.175781 315.953125 189.128906 311.675781 L 191.617188 291.164062 " fill-opacity="1" fill-rule="nonzero"/><path fill="#69baea" d="M 160.410156 311.675781 C 160.410156 311.675781 228.636719 306.246094 236.324219 304.027344 C 244.011719 301.8125 269.917969 318.308594 269.917969 318.308594 C 269.917969 318.308594 208.097656 348.695312 152.167969 348.824219 L 160.410156 311.675781 " fill-opacity="1" fill-rule="nonzero"/><path fill="#69baea" d="M 292.4375 213.578125 C 292.4375 213.578125 313.5 214.988281 321.050781 220.664062 C 325.621094 224.097656 312.230469 327.707031 295.976562 337.5625 C 283.820312 344.933594 190.460938 319.230469 190.460938 319.230469 L 182.640625 311.378906 C 182.640625 311.378906 184.734375 296.066406 190.460938 288.816406 L 259.515625 297.714844 C 259.515625 297.714844 264.390625 292.121094 270.519531 287.5 L 292.4375 213.578125 " fill-opacity="1" fill-rule="nonzero"/><path fill="#f5866c" d="M 242.953125 295.582031 C 242.953125 295.582031 262.089844 288.253906 263.0625 287.660156 C 264.03125 287.078125 275.804688 287.078125 278.160156 287.660156 C 280.515625 288.253906 278.160156 296.445312 276.394531 296.503906 C 274.628906 296.5625 263.0625 300.410156 263.0625 300.410156 L 242.953125 295.582031 " fill-opacity="1" fill-rule="nonzero"/><path fill="#18213a" d="M 200.304688 150.453125 L 196.851562 141.683594 C 196.851562 141.683594 191.617188 106.777344 200.058594 98.484375 C 200.058594 98.484375 217.519531 93.175781 223.082031 93.695312 C 228.644531 94.207031 253.023438 103.054688 256.3125 105.558594 C 266.382812 113.214844 261.054688 142.234375 261.054688 142.234375 L 252.296875 150.453125 C 252.296875 150.453125 254.695312 130.898438 252.296875 126.769531 C 249.894531 122.644531 227.785156 126.1875 220.890625 122.644531 C 213.984375 119.109375 213.003906 116.75 208.492188 119.703125 C 203.976562 122.644531 200.304688 150.453125 200.304688 150.453125 " fill-opacity="1" fill-rule="nonzero"/><path fill="#18213a" d="M 255.039062 143.570312 C 255.039062 143.570312 255.171875 161.078125 255.039062 161.402344 C 254.902344 161.722656 254.316406 172.742188 253.433594 174.214844 C 252.546875 175.683594 240.722656 195.230469 231.351562 196.3125 L 224.984375 196.3125 C 224.984375 196.3125 203.386719 179.519531 202.503906 177.160156 C 201.625 174.804688 200.304688 144.746094 200.304688 144.746094 C 200.304688 144.746094 205.742188 170.382812 207.21875 169.941406 C 208.6875 169.496094 217.480469 164.488281 220.890625 164.195312 C 224.292969 163.902344 238.066406 166.550781 238.390625 166.847656 C 238.714844 167.140625 247.554688 171.5625 247.992188 169.941406 C 248.429688 168.324219 252.503906 148.570312 252.503906 148.570312 L 255.039062 143.570312 " fill-opacity="1" fill-rule="nonzero"/><path fill="#18100f" d="M 484.066406 225.066406 C 484.066406 225.066406 480.984375 223.058594 478.507812 222.558594 C 476.03125 222.054688 449.84375 229.597656 442.605469 249.195312 C 435.363281 268.796875 428.332031 318.121094 433.355469 326.878906 C 438.378906 335.636719 491.546875 350.214844 514.414062 330.109375 C 514.414062 330.109375 520.214844 326.515625 521.21875 320.265625 C 522.222656 314.027344 520.09375 251.484375 510.917969 237.386719 C 499.628906 220.046875 484.066406 225.066406 484.066406 225.066406 " fill-opacity="1" fill-rule="nonzero"/><path fill="#f5866c" d="M 528.785156 349.65625 C 515.136719 345.746094 511.941406 344.683594 498.542969 340.421875 C 498.476562 340.355469 498.394531 340.273438 498.347656 340.210938 C 491.984375 330.734375 493.578125 319.125 492.5625 302.480469 C 492.4375 300.507812 485.640625 295.367188 478.542969 290.507812 L 478.542969 290.40625 L 478.632812 290.40625 C 478.589844 290.375 478.550781 290.351562 478.507812 290.320312 C 478.464844 290.347656 478.429688 290.375 478.390625 290.402344 C 478.351562 290.375 478.316406 290.347656 478.273438 290.320312 C 478.230469 290.351562 478.195312 290.375 478.148438 290.40625 L 478.242188 290.40625 L 478.242188 290.507812 C 471.144531 295.367188 464.34375 300.507812 464.222656 302.480469 C 463.207031 319.125 464.792969 330.734375 458.433594 340.210938 C 458.386719 340.273438 458.308594 340.355469 458.246094 340.421875 C 444.839844 344.683594 441.648438 345.746094 427.992188 349.65625 C 427.992188 349.65625 422.402344 383.457031 423.171875 392.75 C 424.046875 403.308594 424.699219 404.699219 432.710938 409.832031 C 432.710938 409.832031 438.105469 425.722656 438.617188 442.59375 C 439.035156 456.425781 437.210938 472.269531 434.914062 483.523438 C 433.957031 488.222656 433.957031 488.222656 432.71875 499.597656 L 524.058594 499.597656 C 522.820312 488.222656 522.820312 488.222656 521.867188 483.523438 C 519.566406 472.269531 515.304688 458.789062 515.722656 444.949219 C 516.238281 428.078125 520.414062 411.40625 520.414062 411.40625 C 531.242188 407.257812 532.738281 403.308594 533.609375 392.75 C 534.378906 383.457031 528.785156 349.65625 528.785156 349.65625 " fill-opacity="1" fill-rule="nonzero"/><path fill="#5f322f" d="M 494.433594 330.796875 C 494.007812 328.902344 493.722656 326.925781 493.523438 324.84375 C 493.722656 326.925781 494.011719 328.902344 494.433594 330.789062 C 494.433594 330.796875 494.433594 330.796875 494.433594 330.796875 M 463.039062 326.808594 C 463.265625 325.023438 463.417969 323.160156 463.527344 321.207031 C 463.417969 323.160156 463.269531 325.023438 463.039062 326.808594 " fill-opacity="1" fill-rule="nonzero"/><path fill="#de6b58" d="M 481.707031 333.550781 C 473.613281 333.546875 467.246094 330.089844 463.039062 326.808594 C 463.269531 325.023438 463.417969 323.160156 463.527344 321.207031 C 463.765625 316.921875 463.800781 312.21875 464.007812 306.988281 L 492.773438 306.988281 C 493.042969 313.738281 493.015625 319.613281 493.523438 324.84375 C 493.722656 326.925781 494.007812 328.902344 494.433594 330.796875 C 489.828125 332.765625 485.570312 333.550781 481.707031 333.550781 " fill-opacity="1" fill-rule="nonzero"/><path fill="#f5866c" d="M 506.839844 276.632812 C 507.191406 266.53125 506.683594 258.765625 506.683594 258.765625 C 505.761719 242.84375 492.171875 239.875 478.671875 240.261719 C 465.179688 239.875 451.582031 242.84375 450.664062 258.765625 C 450.664062 258.765625 450.164062 266.53125 450.503906 276.632812 C 442.632812 270.664062 441.199219 281.140625 443.769531 288.519531 C 445.996094 294.835938 450.21875 294.960938 452.140625 294.921875 C 452.363281 296.371094 452.617188 297.8125 452.902344 299.222656 C 455.082031 309.980469 468.0625 323.453125 475.238281 326.433594 C 475.238281 326.433594 476.109375 326.878906 478.671875 326.878906 C 481.242188 326.878906 482.113281 326.433594 482.113281 326.433594 C 489.292969 323.453125 502.265625 309.980469 504.449219 299.222656 C 504.734375 297.8125 504.984375 296.371094 505.214844 294.921875 C 507.132812 294.960938 510.957031 295.210938 513.183594 288.898438 C 515.753906 281.519531 514.601562 270.800781 506.839844 276.632812 " fill-opacity="1" fill-rule="nonzero"/><path fill="#18100f" d="M 448.027344 275.324219 C 448.027344 275.324219 450.894531 279.382812 452.089844 279.246094 C 453.265625 279.074219 452.925781 271.378906 455.179688 254.851562 C 455.179688 254.851562 480.640625 261.046875 499.835938 254.664062 C 499.835938 254.664062 501.914062 277.386719 503.355469 280.144531 C 505.1875 283.636719 507.625 275.558594 507.625 275.558594 C 507.625 275.558594 514.183594 230.800781 478.648438 232.226562 C 478.648438 232.226562 440.359375 229.6875 448.027344 275.324219 " fill-opacity="1" fill-rule="nonzero"/><g clip-path="url(#109c8ca3ca)"><path fill="#f5866c" d="M 470.578125 627.511719 C 474.21875 612.429688 477.167969 599.839844 478.039062 591.605469 L 484.304688 495.25 L 437.558594 471.839844 C 437.558594 471.839844 421.441406 509.183594 418.734375 550.777344 C 418.734375 550.777344 417.875 563.972656 423.949219 627.511719 L 470.578125 627.511719 " fill-opacity="1" fill-rule="nonzero"/></g><g clip-path="url(#e4b06447f2)"><path fill="#f5866c" d="M 527.453125 627.511719 C 536.824219 568.84375 536.828125 556.324219 536.828125 556.324219 C 536.828125 514.652344 520.5 479.621094 520.5 479.621094 L 475.003906 496.65625 L 475.003906 593.210938 C 475.320312 601.121094 477.269531 613.117188 479.765625 627.511719 L 527.453125 627.511719 " fill-opacity="1" fill-rule="nonzero"/></g><path fill="#f5866c" d="M 510.917969 445.207031 C 510.917969 445.207031 500.519531 448.902344 496.65625 448.058594 C 492.800781 447.214844 483.230469 446.714844 484.402344 441.003906 C 485.578125 435.292969 497.214844 436.917969 503.875 438.484375 C 510.539062 440.054688 510.917969 441.003906 510.917969 441.003906 L 510.917969 445.207031 " fill-opacity="1" fill-rule="nonzero"/><path fill="#f5866c" d="M 436.101562 347.308594 C 436.101562 347.308594 416.605469 351.449219 410.214844 356.425781 C 401.175781 363.457031 403.605469 383.734375 399.796875 418.628906 C 397.359375 440.972656 396.214844 458.101562 395.691406 476.925781 C 395.296875 491.023438 405.972656 493.070312 412.257812 471.839844 C 417.308594 454.746094 419.757812 436.546875 423.589844 420.101562 C 427.457031 403.511719 445.882812 355.457031 436.101562 347.308594 " fill-opacity="1" fill-rule="nonzero"/><path fill="#f5866c" d="M 515.28125 345.800781 C 515.28125 345.800781 534.785156 349.941406 541.175781 354.917969 C 550.210938 361.953125 547.785156 382.226562 551.589844 417.117188 C 554.027344 439.464844 558.160156 456.59375 558.6875 475.417969 C 559.082031 489.519531 539.953125 492.035156 535.574219 470.332031 C 531.195312 448.625 531.667969 435.1875 527.800781 418.59375 C 523.933594 402 505.503906 353.949219 515.28125 345.800781 " fill-opacity="1" fill-rule="nonzero"/><g clip-path="url(#8dca9c89c7)"><path fill="#2f3466" d="M 533.582031 627.511719 C 547.976562 528.335938 521.089844 487.828125 521.089844 487.828125 L 431.652344 487.828125 C 412.351562 530.457031 411.648438 586.015625 414.949219 627.511719 L 533.582031 627.511719 " fill-opacity="1" fill-rule="nonzero"/></g><path fill="#f25175" d="M 447.007812 343.988281 C 447.007812 343.988281 467.929688 381.621094 478.507812 386.148438 C 478.507812 386.148438 497.617188 367.296875 508.101562 342.046875 C 508.101562 342.046875 545.570312 349.960938 546.230469 358.644531 C 546.230469 358.644531 552.144531 404.988281 552.144531 421.886719 C 552.144531 421.886719 542.675781 429.777344 529.875 429.617188 L 523.378906 412.953125 C 523.378906 412.953125 510.917969 448.183594 523.84375 487.828125 C 523.84375 487.828125 536.289062 526.117188 538.371094 540.890625 C 538.371094 540.890625 512.457031 552.765625 484.304688 552.746094 L 478.390625 518.445312 L 472.515625 552.746094 C 472.515625 552.746094 427.523438 551.238281 415.8125 542.195312 C 415.8125 542.195312 425.070312 491.6875 429.589844 479.621094 C 434.113281 467.5625 437.960938 421.269531 431.847656 414.417969 L 427.78125 406.566406 L 423.097656 437.003906 C 423.097656 437.003906 404.140625 443.390625 395.703125 437.003906 C 395.703125 437.003906 394.570312 363.53125 411.515625 353.726562 C 411.515625 353.726562 432.230469 347.308594 447.007812 343.988281 " fill-opacity="1" fill-rule="nonzero"/><path fill="#edd9c7" d="M 471.496094 555.648438 L 396.652344 588.601562 L 374.707031 538.65625 L 449.542969 505.699219 L 471.496094 555.648438 " fill-opacity="1" fill-rule="nonzero"/><path fill="#f5866c" d="M 396.238281 481.085938 C 396.238281 481.085938 397.707031 502.238281 418.699219 555.261719 L 425.824219 552.746094 C 425.824219 552.746094 414.882812 480.675781 409.761719 471.839844 C 400.722656 456.253906 396.238281 481.085938 396.238281 481.085938 " fill-opacity="1" fill-rule="nonzero"/><path fill="#f5866c" d="M 425.582031 551.160156 C 425.582031 551.160156 438.125 560.285156 437.371094 561.792969 C 436.617188 563.300781 436.617188 563.300781 436.617188 563.300781 L 432.851562 562.046875 C 432.851562 562.046875 438.691406 571.34375 437.40625 572.597656 C 436.117188 573.859375 428.601562 578.378906 425.582031 577.875 C 422.566406 577.371094 417.308594 551.726562 417.308594 551.726562 L 425.582031 551.160156 " fill-opacity="1" fill-rule="nonzero"/><path fill="#ffffff" d="M 451.5 340.628906 C 451.5 340.628906 463.914062 368.304688 478.507812 386.148438 C 478.507812 386.148438 501.15625 353.664062 505.914062 340.628906 L 511.425781 342.046875 L 508.664062 377.351562 L 497.617188 377.351562 L 497.738281 388.386719 L 475.628906 405.496094 L 457.199219 388.273438 L 461.472656 376.34375 L 448.914062 373.058594 L 442.9375 343.71875 L 451.5 340.628906 " fill-opacity="1" fill-rule="nonzero"/><path fill="#f5866c" d="M 574.652344 378.113281 C 574.652344 378.113281 577.546875 372.066406 577 368.855469 C 575.859375 362.15625 569.917969 348.160156 569.414062 344.960938 C 569.414062 344.960938 571.210938 344.597656 573.160156 346.664062 C 575.101562 348.734375 577.394531 352.832031 578.707031 352.476562 C 578.707031 352.476562 583.722656 342.046875 586.730469 336.890625 C 588.648438 333.621094 593.046875 332.523438 594.019531 333.546875 C 594.019531 333.546875 593.8125 336.621094 593.96875 342.894531 C 593.96875 342.894531 596.160156 343.84375 596.191406 345.800781 C 596.226562 347.75 593.179688 365.710938 590.253906 368.304688 C 588.449219 369.898438 586.695312 373.925781 586.230469 376.109375 C 585.777344 378.292969 583.371094 388.390625 583.371094 388.390625 L 574.652344 378.113281 " fill-opacity="1" fill-rule="nonzero"/><path fill="#f5866c" d="M 556.613281 482.722656 C 556.613281 482.722656 571.332031 464.296875 584.683594 380.367188 L 575.929688 376.109375 C 575.929688 376.109375 534.171875 463.066406 534.875 466.695312 C 535.574219 470.332031 540.296875 496.113281 556.613281 482.722656 " fill-opacity="1" fill-rule="nonzero"/><path fill="#18100f" d="M 452.785156 277.464844 C 452.785156 277.464844 478.460938 268.851562 484.066406 251.203125 L 457.199219 245.132812 L 450.664062 258.765625 L 452.785156 277.464844 " fill-opacity="1" fill-rule="nonzero"/><path fill="#18100f" d="M 488.582031 247.183594 C 488.582031 247.183594 496.914062 269.066406 501.878906 272.847656 L 504.144531 253.214844 L 488.582031 247.183594 " fill-opacity="1" fill-rule="nonzero"/><path fill="#18100f" d="M 358.726562 325.078125 C 358.730469 293.273438 351.527344 254.4375 342.351562 240.34375 C 331.058594 223 315.492188 228.023438 315.492188 228.023438 C 315.492188 228.023438 312.417969 226.011719 309.9375 225.511719 C 307.464844 225.007812 283.753906 233.65625 274.03125 252.144531 C 257.300781 283.96875 274.03125 317.265625 268.285156 327.679688 C 268.285156 327.679688 258.457031 340.695312 240.542969 347.0625 C 222.628906 353.421875 205 364.707031 202.113281 386.109375 C 201.261719 392.371094 193.445312 444.199219 256.726562 443.382812 C 345.847656 442.21875 358.726562 337.808594 358.726562 325.078125 " fill-opacity="1" fill-rule="nonzero"/><path fill="#f5866c" d="M 329.972656 343.375 C 329.90625 343.304688 329.824219 343.226562 329.78125 343.160156 C 323.417969 333.6875 325.007812 322.078125 323.988281 305.433594 C 323.871094 303.457031 317.074219 298.316406 309.972656 293.460938 L 309.972656 293.359375 L 310.066406 293.359375 C 310.023438 293.328125 309.980469 293.300781 309.9375 293.273438 C 309.90625 293.296875 309.859375 293.324219 309.824219 293.355469 C 309.785156 293.324219 309.746094 293.296875 309.707031 293.273438 C 309.664062 293.300781 309.625 293.328125 309.582031 293.359375 L 309.671875 293.359375 L 309.671875 293.460938 C 302.574219 298.316406 295.773438 303.457031 295.65625 305.433594 C 294.640625 322.078125 296.226562 333.6875 289.867188 343.160156 C 289.820312 343.226562 289.738281 343.304688 289.675781 343.375 C 278.359375 346.96875 274.300781 348.292969 265.105469 350.96875 L 265.105469 415.914062 C 265.183594 416.1875 265.265625 416.46875 265.347656 416.769531 L 350.058594 416.769531 L 350.058594 349.65625 C 343.671875 347.75 339.28125 346.335938 329.972656 343.375 " fill-opacity="1" fill-rule="nonzero"/><g clip-path="url(#72a7a14249)"><g clip-path="url(#f00094b6a0)"><path fill="#5f322f" d="M 294.460938 333.746094 L 325.867188 333.746094 L 325.867188 321.214844 L 294.460938 321.214844 Z M 294.460938 333.746094 " fill-opacity="1" fill-rule="nonzero"/></g></g><path fill="#de6b58" d="M 313.144531 336.503906 C 305.050781 336.503906 298.683594 333.046875 294.472656 329.769531 C 294.816406 327.097656 294.980469 324.257812 295.09375 321.214844 C 295.222656 317.738281 295.28125 313.996094 295.4375 309.941406 L 324.210938 309.941406 C 324.460938 316.21875 324.453125 321.738281 324.855469 326.6875 C 325.058594 329.179688 325.367188 331.523438 325.863281 333.746094 C 321.257812 335.71875 317.003906 336.503906 313.144531 336.503906 " fill-opacity="1" fill-rule="nonzero"/><path fill="#f5866c" d="M 338.269531 279.585938 C 338.625 269.480469 338.117188 261.714844 338.117188 261.714844 C 337.199219 245.792969 323.605469 242.828125 310.113281 243.210938 C 296.609375 242.828125 283.019531 245.792969 282.101562 261.714844 C 282.101562 261.714844 281.597656 269.480469 281.9375 279.585938 C 274.0625 273.617188 272.628906 284.09375 275.207031 291.472656 C 277.433594 297.785156 281.652344 297.914062 283.574219 297.878906 C 283.796875 299.328125 284.050781 300.765625 284.335938 302.175781 C 286.523438 312.929688 299.492188 326.40625 306.671875 329.382812 C 306.671875 329.382812 307.546875 329.828125 310.113281 329.828125 C 312.667969 329.828125 313.546875 329.382812 313.546875 329.382812 C 320.71875 326.40625 333.699219 312.929688 335.882812 302.175781 C 336.167969 300.765625 336.410156 299.328125 336.648438 297.878906 C 338.570312 297.914062 342.386719 298.160156 344.617188 291.847656 C 347.1875 284.46875 346.03125 273.757812 338.269531 279.585938 " fill-opacity="1" fill-rule="nonzero"/><path fill="#18100f" d="M 279.453125 278.277344 C 279.453125 278.277344 282.328125 282.335938 283.523438 282.199219 C 284.695312 282.027344 284.359375 274.332031 286.613281 257.800781 C 286.613281 257.800781 312.074219 263.996094 331.265625 257.617188 C 331.265625 257.617188 333.339844 280.339844 334.789062 283.097656 C 336.621094 286.585938 339.054688 278.511719 339.054688 278.511719 C 339.054688 278.511719 345.613281 233.753906 310.078125 235.175781 C 310.078125 235.175781 271.792969 232.632812 279.453125 278.277344 " fill-opacity="1" fill-rule="nonzero"/><g clip-path="url(#45b17b24d4)"><path fill="#f5866c" d="M 302.71875 627.511719 C 306.03125 613.742188 308.652344 602.25 309.46875 594.558594 L 315.738281 498.203125 L 268.992188 474.792969 C 268.992188 474.792969 252.875 512.140625 250.164062 553.730469 C 250.164062 553.730469 249.335938 566.511719 255.101562 627.511719 L 302.71875 627.511719 " fill-opacity="1" fill-rule="nonzero"/></g><g clip-path="url(#827faca016)"><path fill="#f5866c" d="M 359.359375 627.511719 C 368.257812 571.378906 368.261719 559.277344 368.261719 559.277344 C 368.261719 517.605469 351.933594 482.578125 351.933594 482.578125 L 306.4375 499.605469 L 306.4375 596.160156 C 306.734375 603.523438 308.445312 614.429688 310.691406 627.511719 L 359.359375 627.511719 " fill-opacity="1" fill-rule="nonzero"/></g><g clip-path="url(#f0e8630f37)"><path fill="#edd9c7" d="M 376.445312 627.511719 C 374.042969 546.757812 361.042969 508.652344 361.042969 508.652344 L 254.910156 529.863281 C 248.933594 556.347656 239.65625 591.695312 229.800781 627.511719 L 376.445312 627.511719 " fill-opacity="1" fill-rule="nonzero"/></g><path fill="#343f6a" d="M 377.664062 361.589844 C 377 352.914062 339.53125 344.996094 339.53125 344.996094 C 329.042969 370.25 309.9375 389.097656 309.9375 389.097656 C 299.363281 384.574219 278.441406 346.941406 278.441406 346.941406 C 263.652344 350.257812 242.949219 356.679688 242.949219 356.679688 C 247.875 383.933594 263.285156 417.367188 263.285156 417.367188 C 269.394531 424.222656 265.539062 470.511719 261.019531 482.578125 C 256.503906 494.636719 245.070312 544.234375 245.070312 544.234375 C 309.824219 557.34375 373.367188 543.460938 373.367188 543.460938 C 371.289062 528.691406 357.1875 490.609375 357.1875 490.609375 C 344.265625 450.964844 354.808594 415.90625 354.808594 415.90625 L 377.664062 361.589844 " fill-opacity="1" fill-rule="nonzero"/><path fill="#ffffff" d="M 282.933594 343.582031 C 282.933594 343.582031 295.347656 371.257812 309.9375 389.097656 C 309.9375 389.097656 332.589844 356.617188 337.351562 343.582031 L 342.859375 344.996094 L 347.558594 383.019531 L 320.011719 381.09375 L 321.742188 389.195312 L 307.585938 399.21875 L 294.460938 389.96875 L 297.085938 378.785156 L 269.757812 383.40625 L 278.441406 345.203125 L 282.933594 343.582031 " fill-opacity="1" fill-rule="nonzero"/><path fill="#18100f" d="M 284.210938 280.414062 C 284.210938 280.414062 322.195312 273.597656 327.796875 255.945312 L 288.628906 248.085938 L 282.101562 261.714844 L 284.210938 280.414062 " fill-opacity="1" fill-rule="nonzero"/><path fill="#18100f" d="M 320.011719 250.136719 C 320.011719 250.136719 328.34375 272.015625 333.308594 275.796875 L 335.582031 256.167969 L 320.011719 250.136719 " fill-opacity="1" fill-rule="nonzero"/><path fill="#edd9c7" d="M 266.703125 349.855469 C 266.703125 349.855469 243.015625 355.625 239.097656 358.628906 C 235.183594 361.636719 233.515625 372.171875 239.386719 399.414062 C 239.386719 399.414062 234.191406 428.628906 232.453125 440.199219 C 232.453125 440.199219 236.417969 448.867188 239.675781 451.480469 C 242.941406 454.089844 304.125 461.855469 309.941406 458.421875 C 315.753906 454.988281 316.105469 447.121094 316.105469 447.121094 C 316.105469 447.121094 270.652344 424.640625 266.082031 423.140625 L 263.796875 412.738281 L 266.703125 349.855469 " fill-opacity="1" fill-rule="nonzero"/><path fill="#f5866c" d="M 277.21875 417.699219 C 277.21875 417.699219 265.488281 418.152344 261.828125 419.6875 C 258.171875 421.21875 253.402344 425.007812 253.402344 425.007812 L 251.28125 434.746094 L 253.402344 434.746094 L 257.183594 432.632812 C 257.183594 432.632812 267.71875 438.304688 275.148438 434.746094 L 277.21875 417.699219 " fill-opacity="1" fill-rule="nonzero"/><path fill="#edd9c7" d="M 359.875 350.550781 C 359.875 350.550781 375.5625 355.9375 381.84375 360.65625 C 385.648438 363.511719 374.84375 447.339844 361.328125 455.527344 C 351.21875 461.65625 276.257812 441.03125 276.257812 441.03125 L 269.757812 434.5 C 269.757812 434.5 271.5 421.773438 276.257812 415.746094 L 333.667969 423.140625 C 333.667969 423.140625 337.714844 418.496094 342.820312 414.652344 L 359.875 350.550781 " fill-opacity="1" fill-rule="nonzero"/><path fill="#f5866c" d="M 319.894531 421.371094 C 319.894531 421.371094 335.808594 415.277344 336.609375 414.785156 C 337.417969 414.300781 347.207031 414.300781 349.164062 414.785156 C 351.121094 415.277344 349.164062 422.085938 347.695312 422.132812 C 346.226562 422.183594 336.609375 425.382812 336.609375 425.382812 L 319.894531 421.371094 " fill-opacity="1" fill-rule="nonzero"/></svg>