<svg xmlns="http://www.w3.org/2000/svg" xmlns:xlink="http://www.w3.org/1999/xlink" width="579" zoomAndPan="magnify" viewBox="0 0 434.25 435.749987" height="581" preserveAspectRatio="xMidYMid meet" version="1.0"><defs><clipPath id="fbee8b6325"><path d="M 3 0.25 L 396 0.25 L 396 417 L 3 417 Z M 3 0.25 " clip-rule="nonzero"/></clipPath><clipPath id="d4775189cf"><path d="M 303 175 L 392.507812 175 L 392.507812 275 L 303 275 Z M 303 175 " clip-rule="nonzero"/></clipPath><clipPath id="01eee37ed1"><path d="M 72.0625 175 L 162 175 L 162 275 L 72.0625 275 Z M 72.0625 175 " clip-rule="nonzero"/></clipPath><clipPath id="7917cf6b73"><path d="M 158 38.089844 L 307 38.089844 L 307 187 L 158 187 Z M 158 38.089844 " clip-rule="nonzero"/></clipPath></defs><path fill="#00ff00" d="M 305.675781 27.835938 C 338.925781 38.011719 360.296875 73.542969 364.207031 112.300781 C 368.113281 151.058594 354.554688 193.066406 362.371094 221.515625 C 370.210938 249.996094 399.394531 264.941406 414.527344 291.609375 C 429.65625 318.253906 430.730469 356.617188 422.367188 383.652344 C 414 410.660156 396.144531 426.339844 377.527344 430.640625 C 358.882812 434.96875 339.425781 427.941406 318.605469 408.511719 C 297.808594 389.054688 275.652344 357.167969 252.417969 346.625 C 229.183594 336.082031 204.851562 346.886719 177.289062 358.503906 C 149.730469 370.121094 118.945312 382.550781 95.710938 370.933594 C 72.480469 359.316406 56.796875 323.652344 54.804688 292.082031 C 52.839844 260.511719 64.535156 233.027344 79.664062 212.496094 C 94.792969 191.964844 113.359375 178.378906 131.007812 152.132812 C 148.65625 125.882812 165.410156 86.96875 196.355469 59.933594 C 227.296875 32.871094 272.425781 17.6875 305.675781 27.835938 Z M 305.675781 27.835938 " fill-opacity="1" fill-rule="evenodd"/><g clip-path="url(#fbee8b6325)"><path fill="#1a1a1d" d="M 366.199219 220.335938 C 369.34375 202.164062 372.464844 183.964844 374.667969 165.503906 C 376.871094 147.070312 378.128906 128.375 377.578125 109.152344 C 377 90.011719 374.617188 70.292969 368.769531 53.300781 C 363.023438 36.570312 353.898438 22.515625 339.871094 14.386719 C 326.917969 6.886719 309.664062 4.339844 291.9375 5.15625 C 270.90625 6.074219 249.296875 11.710938 233.328125 19.316406 C 209.175781 30.800781 198.03125 46.953125 185.917969 64.546875 C 183.269531 68.378906 180.570312 72.285156 177.738281 76.164062 C 169.554688 87.363281 159.878906 98.820312 149.808594 109.390625 C 139.765625 119.929688 129.382812 129.527344 119.730469 137.054688 C 111.601562 143.347656 104.050781 148.171875 96.707031 152.8125 C 86.691406 159.1875 77.121094 165.296875 67.261719 174.527344 C 58.554688 182.734375 49.558594 193.433594 41.300781 205.601562 C 33.433594 217.164062 26.222656 230.039062 20.507812 243.335938 C 14.394531 257.519531 10.015625 272.125 8.15625 286.023438 C 6.476562 298.691406 6.871094 310.777344 9.992188 321.398438 C 13.347656 332.882812 19.902344 342.71875 30.15625 349.667969 C 39.570312 356.066406 52.15625 360.078125 68.335938 360.785156 C 92.933594 361.859375 125.84375 355.277344 157.019531 349.089844 C 169.398438 346.597656 181.511719 344.1875 192.972656 342.296875 C 212.902344 338.996094 230.023438 337.445312 244.605469 338.207031 C 259.394531 338.996094 271.5625 342.140625 281.394531 348.277344 C 294.296875 356.328125 302.921875 369.308594 310.867188 381.292969 C 314.878906 387.375 318.734375 393.171875 322.800781 397.8125 C 328.648438 404.472656 335.046875 408.878906 341.496094 410.921875 C 347.816406 412.914062 354.136719 412.601562 359.957031 409.820312 C 365.882812 406.988281 371.363281 401.585938 376.582031 394.875 C 381.90625 388.054688 386.992188 379.824219 392.105469 371.613281 L 395.59375 373.765625 C 390.429688 382.050781 385.289062 390.339844 379.808594 397.390625 C 374.195312 404.578125 368.296875 410.398438 361.714844 413.546875 C 354.949219 416.769531 347.582031 417.136719 340.265625 414.828125 C 333.132812 412.574219 326.078125 407.75 319.730469 400.511719 C 315.457031 395.636719 311.523438 389.734375 307.460938 383.574219 C 299.75 371.929688 291.386719 359.316406 279.21875 351.738281 C 270.015625 345.996094 258.476562 343.03125 244.394531 342.296875 C 230.128906 341.539062 213.292969 343.085938 193.628906 346.335938 C 182.5625 348.171875 170.316406 350.609375 157.808594 353.101562 C 126.445312 359.34375 93.300781 365.949219 68.152344 364.851562 C 51.1875 364.117188 37.890625 359.867188 27.847656 353.050781 C 16.757812 345.523438 9.675781 334.929688 6.058594 322.527344 C 2.78125 311.328125 2.359375 298.691406 4.117188 285.5 C 6.03125 271.183594 10.515625 256.210938 16.730469 241.707031 C 22.550781 228.230469 29.894531 215.09375 37.917969 203.292969 C 46.363281 190.890625 55.566406 179.929688 64.480469 171.5625 C 74.628906 162.019531 84.359375 155.828125 94.53125 149.378906 C 101.769531 144.761719 109.242188 140.015625 117.214844 133.800781 C 126.734375 126.40625 136.988281 116.941406 146.847656 106.558594 C 156.785156 96.148438 166.355469 84.792969 174.433594 73.753906 C 177.316406 69.820312 179.964844 65.992188 182.5625 62.214844 C 195.015625 44.148438 206.449219 27.574219 231.570312 15.617188 C 247.960938 7.804688 270.171875 2.035156 291.753906 1.0625 C 310.214844 0.25 328.226562 2.925781 341.917969 10.84375 C 356.914062 19.523438 366.589844 34.367188 372.648438 51.988281 C 378.628906 69.375 381.066406 89.511719 381.644531 109.046875 C 382.21875 128.558594 380.933594 147.410156 378.734375 166.003906 C 376.53125 184.542969 373.382812 202.792969 370.238281 221.046875 Z M 366.199219 220.335938 " fill-opacity="1" fill-rule="nonzero"/></g><path fill="#57c1ef" d="M 306.003906 201.316406 L 336.5 178.207031 L 389.882812 248.734375 L 359.386719 271.839844 Z M 306.003906 201.316406 " fill-opacity="1" fill-rule="nonzero"/><g clip-path="url(#d4775189cf)"><path fill="#000000" d="M 359.386719 274.46875 C 359.265625 274.46875 359.144531 274.460938 359.027344 274.445312 C 358.308594 274.34375 357.730469 274.007812 357.292969 273.425781 L 303.910156 202.898438 C 303.699219 202.621094 303.550781 202.316406 303.460938 201.976562 C 303.375 201.640625 303.355469 201.300781 303.402344 200.953125 C 303.449219 200.609375 303.5625 200.285156 303.738281 199.984375 C 303.914062 199.683594 304.140625 199.429688 304.417969 199.21875 L 334.914062 176.109375 C 335.191406 175.902344 335.5 175.75 335.835938 175.664062 C 336.171875 175.574219 336.515625 175.554688 336.859375 175.601562 C 337.203125 175.652344 337.527344 175.761719 337.828125 175.9375 C 338.128906 176.117188 338.382812 176.34375 338.59375 176.621094 L 391.972656 247.148438 C 392.183594 247.425781 392.332031 247.734375 392.421875 248.070312 C 392.511719 248.410156 392.53125 248.75 392.484375 249.09375 C 392.433594 249.441406 392.324219 249.765625 392.148438 250.0625 C 391.972656 250.363281 391.742188 250.621094 391.464844 250.832031 L 360.96875 273.9375 C 360.5 274.292969 359.972656 274.46875 359.386719 274.46875 Z M 309.683594 201.824219 L 359.894531 268.160156 L 386.199219 248.226562 L 335.992188 181.886719 Z M 309.683594 201.824219 " fill-opacity="1" fill-rule="nonzero"/></g><path fill="#57c1ef" d="M 74.6875 248.734375 L 128.070312 178.207031 L 158.566406 201.3125 L 105.183594 271.839844 Z M 74.6875 248.734375 " fill-opacity="1" fill-rule="nonzero"/><g clip-path="url(#01eee37ed1)"><path fill="#000000" d="M 105.183594 274.46875 C 104.59375 274.46875 104.066406 274.292969 103.597656 273.9375 L 73.101562 250.832031 C 72.824219 250.621094 72.597656 250.363281 72.421875 250.0625 C 72.246094 249.761719 72.132812 249.441406 72.085938 249.09375 C 72.039062 248.75 72.058594 248.410156 72.144531 248.070312 C 72.234375 247.734375 72.382812 247.425781 72.59375 247.148438 L 125.976562 176.621094 C 126.1875 176.34375 126.441406 176.117188 126.742188 175.9375 C 127.042969 175.761719 127.363281 175.652344 127.710938 175.601562 C 128.054688 175.554688 128.394531 175.574219 128.730469 175.664062 C 129.070312 175.75 129.375 175.902344 129.652344 176.109375 L 160.148438 199.21875 C 160.425781 199.429688 160.65625 199.683594 160.832031 199.984375 C 161.007812 200.285156 161.117188 200.609375 161.167969 200.953125 C 161.214844 201.300781 161.195312 201.640625 161.105469 201.976562 C 161.015625 202.316406 160.867188 202.621094 160.65625 202.898438 L 107.277344 273.425781 C 106.839844 274.007812 106.261719 274.34375 105.542969 274.445312 C 105.421875 274.460938 105.304688 274.46875 105.183594 274.46875 Z M 78.367188 248.226562 L 104.675781 268.160156 L 154.882812 201.824219 L 128.578125 181.886719 Z M 78.367188 248.226562 " fill-opacity="1" fill-rule="nonzero"/></g><path fill="#fbcbbd" d="M 359.386719 271.839844 L 335.449219 292.324219 C 334.195312 295.550781 332.699219 298.660156 330.957031 301.652344 C 329.21875 304.648438 327.257812 307.488281 325.074219 310.175781 C 322.890625 312.863281 320.515625 315.363281 317.941406 317.679688 C 315.367188 319.996094 312.632812 322.101562 309.730469 323.988281 L 246.011719 257.296875 L 215.304688 279.613281 C 214.953125 279.875 214.585938 280.117188 214.207031 280.339844 C 213.828125 280.558594 213.441406 280.761719 213.039062 280.941406 C 212.636719 281.117188 212.230469 281.277344 211.8125 281.410156 C 211.394531 281.542969 210.96875 281.65625 210.539062 281.742188 C 210.109375 281.832031 209.675781 281.894531 209.242188 281.933594 C 208.804688 281.976562 208.367188 281.992188 207.925781 281.984375 C 207.488281 281.976562 207.050781 281.945312 206.617188 281.890625 C 206.179688 281.835938 205.75 281.757812 205.324219 281.65625 C 204.898438 281.550781 204.476562 281.425781 204.0625 281.277344 C 203.652344 281.128906 203.246094 280.960938 202.851562 280.769531 C 202.460938 280.574219 202.078125 280.363281 201.707031 280.128906 C 201.335938 279.894531 200.976562 279.640625 200.632812 279.367188 C 200.289062 279.09375 199.964844 278.800781 199.652344 278.492188 C 199.339844 278.183594 199.046875 277.859375 198.769531 277.515625 C 198.496094 277.175781 198.238281 276.820312 198 276.453125 C 197.765625 276.082031 197.546875 275.699219 197.351562 275.308594 C 194.046875 268.269531 193.050781 258.34375 202.601562 247.160156 C 210.527344 237.863281 225.855469 226.679688 235.878906 219.800781 C 236.675781 219.257812 237.4375 218.742188 238.164062 218.257812 C 239.847656 217.085938 241.628906 216.082031 243.503906 215.25 C 245.378906 214.414062 247.3125 213.765625 249.308594 213.300781 C 251.308594 212.832031 253.332031 212.558594 255.378906 212.476562 C 257.429688 212.394531 259.46875 212.503906 261.496094 212.808594 C 264.761719 213.285156 267.753906 214.460938 270.46875 216.332031 C 279.761719 223.109375 306.003906 201.3125 306.003906 201.3125 Z M 359.386719 271.839844 " fill-opacity="1" fill-rule="nonzero"/><path fill="#000000" d="M 309.730469 326.617188 C 308.980469 326.617188 308.347656 326.347656 307.832031 325.804688 L 245.695312 260.773438 L 216.847656 281.738281 C 215.949219 282.390625 214.992188 282.933594 213.976562 283.371094 C 212.960938 283.808594 211.90625 284.128906 210.816406 284.332031 C 209.730469 284.535156 208.632812 284.621094 207.523438 284.578125 C 206.417969 284.539062 205.328125 284.378906 204.257812 284.097656 C 203.25 283.839844 202.28125 283.476562 201.351562 283.003906 C 200.421875 282.53125 199.554688 281.964844 198.753906 281.300781 C 197.949219 280.636719 197.230469 279.890625 196.59375 279.066406 C 195.953125 278.242188 195.414062 277.359375 194.972656 276.417969 C 191.605469 269.25 189.84375 258.050781 200.601562 245.453125 C 208.480469 236.214844 223.328125 225.226562 234.394531 217.632812 L 236.699219 216.074219 C 238.523438 214.804688 240.445312 213.722656 242.472656 212.820312 C 244.5 211.917969 246.59375 211.21875 248.753906 210.714844 C 250.917969 210.214844 253.105469 209.921875 255.320312 209.839844 C 257.539062 209.753906 259.742188 209.882812 261.9375 210.21875 C 265.605469 210.757812 268.96875 212.089844 272.015625 214.207031 C 277.277344 218.050781 294.078125 207.796875 304.328125 199.292969 C 304.601562 199.0625 304.910156 198.898438 305.253906 198.796875 C 305.597656 198.691406 305.949219 198.664062 306.304688 198.703125 C 306.660156 198.746094 306.996094 198.855469 307.304688 199.03125 C 307.617188 199.210938 307.878906 199.441406 308.097656 199.726562 L 361.476562 270.253906 C 361.679688 270.523438 361.828125 270.816406 361.914062 271.140625 C 362.003906 271.460938 362.03125 271.789062 361.996094 272.125 C 361.960938 272.457031 361.863281 272.769531 361.707031 273.066406 C 361.554688 273.363281 361.347656 273.621094 361.09375 273.839844 L 337.699219 293.859375 C 336.375 297.148438 334.8125 300.320312 333.003906 303.371094 C 331.199219 306.421875 329.171875 309.316406 326.921875 312.058594 C 324.675781 314.796875 322.230469 317.351562 319.589844 319.71875 C 316.953125 322.085938 314.148438 324.242188 311.183594 326.179688 C 310.742188 326.472656 310.257812 326.617188 309.730469 326.617188 Z M 246.011719 254.667969 C 246.757812 254.667969 247.390625 254.9375 247.90625 255.480469 L 310.085938 320.554688 C 315.230469 316.9375 319.753906 312.65625 323.644531 307.714844 C 327.539062 302.769531 330.640625 297.371094 332.949219 291.515625 C 333.101562 291.046875 333.367188 290.648438 333.742188 290.324219 L 355.796875 271.453125 L 305.542969 205.0625 C 298.066406 210.964844 278.199219 225.222656 268.921875 218.457031 C 266.539062 216.824219 263.917969 215.804688 261.054688 215.402344 C 259.191406 215.121094 257.320312 215.019531 255.433594 215.09375 C 253.550781 215.171875 251.691406 215.425781 249.859375 215.855469 C 248.023438 216.289062 246.246094 216.890625 244.523438 217.660156 C 242.804688 218.429688 241.171875 219.355469 239.628906 220.4375 L 237.359375 221.972656 C 226.558594 229.382812 212.101562 240.066406 204.597656 248.863281 C 197.421875 257.269531 195.785156 265.789062 199.730469 274.191406 C 200.289062 275.398438 201.082031 276.421875 202.109375 277.269531 C 203.136719 278.113281 204.292969 278.695312 205.585938 279.011719 C 206.996094 279.382812 208.414062 279.433594 209.847656 279.167969 C 211.28125 278.898438 212.585938 278.335938 213.765625 277.484375 L 244.464844 255.167969 C 244.925781 254.835938 245.441406 254.667969 246.011719 254.667969 Z M 246.011719 254.667969 " fill-opacity="1" fill-rule="nonzero"/><path fill="#000000" d="M 279.804688 295.292969 C 279.496094 295.292969 279.199219 295.242188 278.914062 295.136719 C 278.625 295.035156 278.363281 294.882812 278.125 294.6875 C 277.890625 294.492188 277.695312 294.261719 277.539062 293.996094 C 277.382812 293.734375 277.277344 293.449219 277.222656 293.148438 C 277.164062 292.847656 277.164062 292.542969 277.210938 292.242188 C 277.261719 291.941406 277.359375 291.652344 277.507812 291.386719 C 277.660156 291.117188 277.847656 290.882812 278.078125 290.683594 C 278.3125 290.480469 278.570312 290.324219 278.855469 290.214844 C 292.65625 284.867188 298.546875 269 298.601562 268.839844 C 298.722656 268.515625 298.898438 268.222656 299.136719 267.964844 C 299.371094 267.710938 299.644531 267.507812 299.960938 267.359375 C 300.277344 267.214844 300.609375 267.132812 300.957031 267.117188 C 301.304688 267.101562 301.640625 267.152344 301.96875 267.273438 C 302.296875 267.390625 302.585938 267.566406 302.84375 267.800781 C 303.101562 268.035156 303.304688 268.3125 303.453125 268.628906 C 303.597656 268.941406 303.679688 269.273438 303.695312 269.621094 C 303.714844 269.96875 303.660156 270.308594 303.542969 270.636719 C 303.273438 271.378906 296.753906 288.914062 280.753906 295.117188 C 280.449219 295.234375 280.132812 295.292969 279.804688 295.292969 Z M 279.804688 295.292969 " fill-opacity="1" fill-rule="nonzero"/><path fill="#fbcbbd" d="M 309.730469 323.988281 C 309.730469 323.988281 304.953125 344.363281 288.054688 345.46875 L 277.1875 336.75 C 277.1875 336.75 270.941406 355.339844 253.199219 350.824219 C 253.199219 350.824219 241.652344 362.0625 229.320312 356.757812 L 217.769531 348.304688 C 217.769531 348.304688 206.539062 360.699219 196.671875 355.605469 C 186.855469 350.5625 153.105469 301.304688 153.105469 301.304688 L 105.183594 271.839844 L 158.5625 201.3125 L 194.992188 226.257812 C 194.992188 226.257812 216.511719 216.332031 235.878906 219.800781 C 225.855469 226.679688 210.527344 237.863281 202.601562 247.160156 C 193.050781 258.34375 194.046875 268.269531 197.351562 275.308594 C 197.546875 275.699219 197.765625 276.082031 198 276.453125 C 198.238281 276.820312 198.496094 277.175781 198.769531 277.515625 C 199.046875 277.859375 199.339844 278.183594 199.652344 278.492188 C 199.964844 278.800781 200.289062 279.09375 200.632812 279.367188 C 200.976562 279.640625 201.335938 279.894531 201.707031 280.128906 C 202.078125 280.363281 202.460938 280.574219 202.851562 280.769531 C 203.246094 280.960938 203.652344 281.128906 204.0625 281.277344 C 204.476562 281.425781 204.898438 281.550781 205.324219 281.65625 C 205.75 281.757812 206.179688 281.835938 206.617188 281.890625 C 207.050781 281.945312 207.488281 281.976562 207.925781 281.984375 C 208.367188 281.992188 208.804688 281.976562 209.242188 281.933594 C 209.675781 281.894531 210.109375 281.832031 210.539062 281.742188 C 210.96875 281.65625 211.394531 281.542969 211.8125 281.410156 C 212.230469 281.277344 212.636719 281.117188 213.039062 280.941406 C 213.4375 280.761719 213.828125 280.5625 214.207031 280.339844 C 214.585938 280.117188 214.953125 279.875 215.304688 279.613281 L 246.007812 257.296875 Z M 309.730469 323.988281 " fill-opacity="1" fill-rule="nonzero"/><path fill="#000000" d="M 236.261719 360.828125 C 233.488281 360.828125 230.828125 360.277344 228.28125 359.171875 C 228.101562 359.09375 227.929688 358.996094 227.765625 358.878906 L 218.027344 351.746094 C 214.21875 355.269531 204.644531 362.667969 195.464844 357.9375 C 185.609375 352.878906 155.980469 310.128906 151.257812 303.25 L 103.808594 274.082031 C 103.492188 273.886719 103.230469 273.636719 103.019531 273.332031 C 102.8125 273.027344 102.671875 272.691406 102.601562 272.328125 C 102.535156 271.964844 102.542969 271.601562 102.628906 271.238281 C 102.710938 270.878906 102.867188 270.550781 103.089844 270.253906 L 156.472656 199.726562 C 156.675781 199.457031 156.921875 199.238281 157.210938 199.0625 C 157.5 198.886719 157.808594 198.773438 158.140625 198.71875 C 158.476562 198.664062 158.808594 198.675781 159.136719 198.75 C 159.464844 198.820312 159.769531 198.953125 160.046875 199.144531 L 195.277344 223.269531 C 200.460938 221.097656 219.023438 214.113281 236.34375 217.210938 C 236.867188 217.304688 237.320312 217.539062 237.703125 217.910156 C 238.085938 218.277344 238.335938 218.726562 238.449219 219.246094 C 238.558594 219.765625 238.519531 220.277344 238.320312 220.769531 C 238.125 221.265625 237.804688 221.664062 237.367188 221.96875 C 226.558594 229.382812 212.101562 240.066406 204.601562 248.863281 C 197.421875 257.269531 195.785156 265.789062 199.730469 274.191406 C 200.289062 275.398438 201.082031 276.421875 202.109375 277.269531 C 203.136719 278.113281 204.292969 278.695312 205.585938 279.011719 C 206.996094 279.382812 208.414062 279.433594 209.847656 279.167969 C 211.28125 278.898438 212.585938 278.335938 213.765625 277.484375 L 244.464844 255.167969 C 244.722656 254.980469 245.003906 254.847656 245.3125 254.761719 C 245.617188 254.675781 245.929688 254.648438 246.246094 254.675781 C 246.5625 254.707031 246.863281 254.789062 247.148438 254.925781 C 247.4375 255.066406 247.6875 255.25 247.90625 255.480469 L 311.628906 322.171875 C 311.9375 322.496094 312.148438 322.867188 312.265625 323.296875 C 312.382812 323.726562 312.390625 324.15625 312.289062 324.589844 C 312.074219 325.496094 306.851562 346.875 288.226562 348.089844 C 287.546875 348.136719 286.941406 347.945312 286.410156 347.519531 L 278.238281 340.960938 C 274.707031 347.84375 266.738281 356.246094 253.933594 353.683594 C 251.46875 355.832031 248.722656 357.515625 245.695312 358.738281 C 242.667969 359.960938 239.523438 360.65625 236.261719 360.828125 Z M 230.621094 354.457031 C 241.144531 358.742188 251.265625 349.039062 251.367188 348.941406 C 251.695312 348.625 252.078125 348.40625 252.519531 348.289062 C 252.960938 348.167969 253.402344 348.167969 253.847656 348.277344 C 269.070312 352.160156 274.476562 336.578125 274.695312 335.914062 C 274.765625 335.710938 274.855469 335.523438 274.96875 335.34375 C 275.082031 335.167969 275.214844 335.003906 275.367188 334.855469 C 275.519531 334.710938 275.6875 334.585938 275.871094 334.476562 C 276.054688 334.371094 276.246094 334.289062 276.449219 334.230469 C 276.652344 334.171875 276.859375 334.136719 277.070312 334.125 C 277.28125 334.117188 277.492188 334.132812 277.699219 334.171875 C 277.90625 334.214844 278.105469 334.28125 278.296875 334.367188 C 278.488281 334.457031 278.667969 334.570312 278.832031 334.699219 L 288.871094 342.753906 C 300.535156 341.339844 305.464844 328.855469 306.789062 324.710938 L 245.695312 260.773438 L 216.847656 281.738281 C 215.949219 282.390625 214.992188 282.933594 213.976562 283.371094 C 212.960938 283.808594 211.90625 284.128906 210.816406 284.332031 C 209.730469 284.535156 208.632812 284.621094 207.523438 284.578125 C 206.417969 284.539062 205.328125 284.378906 204.257812 284.097656 C 203.25 283.839844 202.28125 283.476562 201.351562 283.003906 C 200.421875 282.53125 199.554688 281.964844 198.753906 281.300781 C 197.949219 280.636719 197.230469 279.890625 196.59375 279.066406 C 195.953125 278.242188 195.414062 277.359375 194.972656 276.417969 C 191.605469 269.25 189.84375 258.050781 200.601562 245.453125 C 207.160156 237.765625 218.546875 228.863281 228.5625 221.710938 C 222.972656 221.777344 217.445312 222.390625 211.980469 223.558594 C 206.515625 224.726562 201.21875 226.421875 196.089844 228.644531 C 195.667969 228.835938 195.230469 228.914062 194.769531 228.875 C 194.308594 228.835938 193.890625 228.6875 193.507812 228.425781 L 159.148438 204.898438 L 109.027344 271.117188 L 154.480469 299.0625 C 154.796875 299.257812 155.0625 299.511719 155.273438 299.816406 C 168.6875 319.398438 191.101562 349.789062 197.871094 353.265625 C 205.824219 357.375 215.730469 346.644531 215.828125 346.535156 C 216.046875 346.296875 216.300781 346.101562 216.589844 345.957031 C 216.878906 345.8125 217.183594 345.722656 217.507812 345.691406 C 217.832031 345.65625 218.148438 345.683594 218.460938 345.769531 C 218.773438 345.855469 219.0625 345.992188 219.324219 346.183594 Z M 230.621094 354.457031 " fill-opacity="1" fill-rule="nonzero"/><path fill="#000000" d="M 217.769531 350.933594 C 217.089844 350.933594 216.496094 350.703125 215.996094 350.242188 L 201.65625 337.085938 C 201.398438 336.851562 201.195312 336.574219 201.046875 336.257812 C 200.898438 335.941406 200.816406 335.609375 200.800781 335.261719 C 200.785156 334.914062 200.839844 334.574219 200.957031 334.246094 C 201.078125 333.917969 201.253906 333.625 201.488281 333.367188 C 201.726562 333.113281 202 332.910156 202.316406 332.761719 C 202.632812 332.613281 202.964844 332.535156 203.3125 332.519531 C 203.664062 332.503906 204 332.558594 204.328125 332.675781 C 204.65625 332.796875 204.949219 332.972656 205.203125 333.210938 L 219.546875 346.367188 C 219.945312 346.730469 220.207031 347.179688 220.328125 347.707031 C 220.453125 348.234375 220.417969 348.75 220.21875 349.257812 C 220.023438 349.761719 219.703125 350.167969 219.253906 350.472656 C 218.808594 350.777344 218.3125 350.933594 217.769531 350.933594 Z M 217.769531 350.933594 " fill-opacity="1" fill-rule="nonzero"/><path fill="#000000" d="M 253.199219 353.453125 C 252.394531 353.453125 251.730469 353.148438 251.207031 352.535156 L 229.273438 326.941406 C 229.046875 326.675781 228.882812 326.378906 228.773438 326.046875 C 228.664062 325.71875 228.625 325.378906 228.648438 325.03125 C 228.675781 324.683594 228.769531 324.355469 228.925781 324.042969 C 229.082031 323.730469 229.292969 323.464844 229.558594 323.238281 C 229.824219 323.011719 230.121094 322.84375 230.453125 322.734375 C 230.78125 322.625 231.121094 322.585938 231.46875 322.613281 C 231.816406 322.636719 232.144531 322.730469 232.457031 322.886719 C 232.765625 323.046875 233.035156 323.257812 233.261719 323.519531 L 255.191406 349.113281 C 255.527344 349.503906 255.730469 349.953125 255.800781 350.460938 C 255.871094 350.96875 255.800781 351.457031 255.585938 351.921875 C 255.371094 352.390625 255.046875 352.761719 254.617188 353.039062 C 254.183594 353.3125 253.710938 353.453125 253.199219 353.453125 Z M 253.199219 353.453125 " fill-opacity="1" fill-rule="nonzero"/><path fill="#000000" d="M 277.1875 339.378906 C 276.449219 339.378906 275.824219 339.117188 275.308594 338.589844 L 256.804688 319.683594 C 256.5625 319.4375 256.378906 319.148438 256.25 318.828125 C 256.121094 318.503906 256.058594 318.167969 256.0625 317.820312 C 256.066406 317.472656 256.136719 317.136719 256.273438 316.820312 C 256.410156 316.5 256.605469 316.21875 256.851562 315.972656 C 257.101562 315.730469 257.386719 315.542969 257.707031 315.414062 C 258.03125 315.285156 258.367188 315.222656 258.714844 315.222656 C 259.0625 315.226562 259.394531 315.296875 259.714844 315.433594 C 260.035156 315.566406 260.316406 315.757812 260.5625 316.007812 L 279.066406 334.914062 C 279.433594 335.289062 279.667969 335.738281 279.769531 336.257812 C 279.867188 336.777344 279.8125 337.28125 279.609375 337.769531 C 279.402344 338.257812 279.082031 338.648438 278.640625 338.941406 C 278.199219 339.230469 277.714844 339.378906 277.1875 339.378906 Z M 277.1875 339.378906 " fill-opacity="1" fill-rule="nonzero"/><path fill="#ffcb29" d="M 303.671875 112.609375 C 303.671875 121.402344 289.679688 127.351562 286.511719 134.996094 C 283.226562 142.925781 288.792969 157 282.820312 162.972656 C 276.847656 168.949219 262.78125 163.378906 254.859375 166.664062 C 247.214844 169.835938 241.273438 183.835938 232.484375 183.835938 C 223.691406 183.835938 217.75 169.835938 210.105469 166.664062 C 202.183594 163.378906 188.113281 168.945312 182.144531 162.972656 C 176.171875 157 181.738281 142.925781 178.453125 134.996094 C 175.285156 127.351562 161.292969 121.402344 161.292969 112.609375 C 161.292969 103.816406 175.285156 97.867188 178.453125 90.21875 C 181.738281 82.292969 176.171875 68.21875 182.144531 62.246094 C 188.117188 56.269531 202.183594 61.839844 210.105469 58.550781 C 217.75 55.382812 223.691406 41.382812 232.484375 41.382812 C 241.273438 41.382812 247.214844 55.382812 254.859375 58.550781 C 262.78125 61.839844 276.851562 56.269531 282.820312 62.246094 C 288.792969 68.21875 283.226562 82.292969 286.511719 90.222656 C 289.679688 97.867188 303.671875 103.816406 303.671875 112.609375 Z M 303.671875 112.609375 " fill-opacity="1" fill-rule="nonzero"/><g clip-path="url(#7917cf6b73)"><path fill="#000000" d="M 232.480469 186.460938 C 226.253906 186.460938 221.714844 181.363281 217.328125 176.429688 C 215.070312 173.4375 212.328125 170.996094 209.101562 169.09375 C 205.320312 168.082031 201.492188 167.832031 197.613281 168.347656 C 191.167969 168.6875 184.492188 169.039062 180.285156 164.832031 C 176.082031 160.625 176.433594 153.949219 176.773438 147.496094 C 177.289062 143.617188 177.039062 139.785156 176.027344 136.003906 C 174.128906 132.777344 171.683594 130.03125 168.695312 127.773438 C 163.765625 123.382812 158.667969 118.839844 158.667969 112.609375 C 158.667969 106.378906 163.765625 101.835938 168.695312 97.445312 C 171.683594 95.1875 174.128906 92.441406 176.027344 89.214844 C 177.039062 85.433594 177.289062 81.601562 176.773438 77.722656 C 176.433594 71.269531 176.082031 64.59375 180.289062 60.386719 C 184.496094 56.175781 191.164062 56.53125 197.613281 56.871094 C 201.492188 57.386719 205.320312 57.140625 209.101562 56.125 C 212.328125 54.222656 215.070312 51.777344 217.328125 48.789062 C 221.714844 43.855469 226.253906 38.757812 232.480469 38.757812 C 238.710938 38.757812 243.246094 43.855469 247.636719 48.789062 C 249.894531 51.777344 252.636719 54.222656 255.863281 56.125 C 259.644531 57.136719 263.472656 57.386719 267.351562 56.871094 C 273.808594 56.53125 280.472656 56.179688 284.679688 60.386719 C 288.882812 64.59375 288.53125 71.265625 288.191406 77.71875 C 287.675781 81.601562 287.925781 85.433594 288.9375 89.210938 C 290.839844 92.441406 293.28125 95.1875 296.269531 97.445312 C 301.199219 101.835938 306.296875 106.378906 306.296875 112.609375 C 306.296875 118.839844 301.203125 123.378906 296.273438 127.769531 C 293.285156 130.03125 290.839844 132.777344 288.9375 136.003906 C 287.925781 139.785156 287.675781 143.617188 288.191406 147.496094 C 288.53125 153.949219 288.882812 160.625 284.679688 164.832031 C 280.472656 169.039062 273.796875 168.691406 267.351562 168.347656 C 263.472656 167.832031 259.644531 168.082031 255.863281 169.09375 C 252.636719 170.996094 249.894531 173.441406 247.636719 176.429688 C 243.246094 181.363281 238.710938 186.460938 232.480469 186.460938 Z M 202.648438 162.910156 C 205.554688 162.796875 208.378906 163.242188 211.113281 164.238281 C 215.121094 166.402344 218.5 169.300781 221.25 172.933594 C 224.867188 177 228.609375 181.207031 232.480469 181.207031 C 236.351562 181.207031 240.09375 177 243.714844 172.933594 C 246.464844 169.300781 249.84375 166.402344 253.855469 164.238281 C 258.363281 162.863281 262.957031 162.484375 267.628906 163.097656 C 272.925781 163.378906 278.410156 163.667969 280.964844 161.117188 C 283.511719 158.5625 283.226562 153.078125 282.945312 147.773438 C 282.332031 143.097656 282.710938 138.503906 284.085938 133.992188 C 286.25 129.980469 289.148438 126.597656 292.777344 123.847656 C 296.839844 120.226562 301.046875 116.480469 301.046875 112.609375 C 301.046875 108.734375 296.839844 104.992188 292.777344 101.371094 C 289.144531 98.621094 286.25 95.238281 284.085938 91.226562 C 282.710938 86.714844 282.332031 82.121094 282.945312 77.445312 C 283.226562 72.140625 283.511719 66.65625 280.964844 64.105469 C 278.410156 61.554688 272.933594 61.839844 267.628906 62.121094 C 262.953125 62.734375 258.363281 62.355469 253.855469 60.980469 C 249.84375 58.816406 246.464844 55.917969 243.714844 52.285156 C 240.09375 48.214844 236.351562 44.011719 232.480469 44.011719 C 228.609375 44.011719 224.867188 48.21875 221.25 52.285156 C 218.5 55.917969 215.121094 58.816406 211.113281 60.980469 C 206.601562 62.351562 202.011719 62.734375 197.339844 62.121094 C 192.027344 61.839844 186.550781 61.554688 184.003906 64.101562 C 181.453125 66.65625 181.738281 72.140625 182.019531 77.445312 C 182.632812 82.121094 182.253906 86.714844 180.878906 91.226562 C 178.71875 95.238281 175.820312 98.621094 172.1875 101.371094 C 168.125 104.992188 163.921875 108.734375 163.921875 112.609375 C 163.921875 116.480469 168.125 120.226562 172.1875 123.847656 C 175.820312 126.597656 178.71875 129.980469 180.878906 133.988281 C 182.253906 138.503906 182.632812 143.097656 182.019531 147.773438 C 181.738281 153.078125 181.449219 158.5625 184 161.113281 C 186.550781 163.667969 192.035156 163.378906 197.335938 163.097656 C 199.101562 163.003906 200.894531 162.910156 202.648438 162.910156 Z M 202.648438 162.910156 " fill-opacity="1" fill-rule="nonzero"/></g><path fill="#f78c1f" d="M 235.308594 82.265625 L 241.273438 100.632812 C 241.371094 100.929688 241.511719 101.207031 241.695312 101.460938 C 241.878906 101.714844 242.097656 101.933594 242.351562 102.117188 C 242.605469 102.300781 242.882812 102.441406 243.179688 102.539062 C 243.476562 102.636719 243.785156 102.683594 244.097656 102.683594 L 263.398438 102.683594 C 263.710938 102.683594 264.019531 102.734375 264.316406 102.832031 C 264.613281 102.925781 264.890625 103.070312 265.144531 103.253906 C 265.398438 103.4375 265.617188 103.65625 265.800781 103.910156 C 265.988281 104.164062 266.128906 104.441406 266.222656 104.738281 C 266.320312 105.039062 266.371094 105.34375 266.371094 105.65625 C 266.371094 105.972656 266.320312 106.277344 266.222656 106.578125 C 266.128906 106.875 265.988281 107.152344 265.800781 107.40625 C 265.617188 107.660156 265.398438 107.878906 265.144531 108.0625 L 249.53125 119.414062 C 249.277344 119.597656 249.058594 119.816406 248.875 120.070312 C 248.6875 120.324219 248.546875 120.601562 248.449219 120.898438 C 248.355469 121.199219 248.304688 121.503906 248.304688 121.816406 C 248.304688 122.132812 248.355469 122.4375 248.449219 122.734375 L 254.414062 141.101562 C 254.511719 141.398438 254.558594 141.707031 254.558594 142.019531 C 254.558594 142.332031 254.511719 142.640625 254.414062 142.9375 C 254.316406 143.238281 254.175781 143.511719 253.992188 143.765625 C 253.808594 144.019531 253.589844 144.242188 253.335938 144.425781 C 253.082031 144.609375 252.804688 144.75 252.507812 144.847656 C 252.210938 144.945312 251.902344 144.992188 251.589844 144.992188 C 251.277344 144.992188 250.96875 144.945312 250.671875 144.847656 C 250.371094 144.75 250.097656 144.609375 249.84375 144.425781 L 234.230469 133.074219 C 233.976562 132.890625 233.699219 132.75 233.402344 132.652344 C 233.101562 132.554688 232.796875 132.507812 232.484375 132.507812 C 232.167969 132.507812 231.863281 132.554688 231.5625 132.652344 C 231.265625 132.75 230.988281 132.890625 230.734375 133.074219 L 215.121094 144.425781 C 214.867188 144.609375 214.59375 144.75 214.292969 144.847656 C 213.996094 144.945312 213.6875 144.992188 213.375 144.992188 C 213.0625 144.992188 212.753906 144.945312 212.457031 144.847656 C 212.160156 144.75 211.882812 144.609375 211.628906 144.425781 C 211.375 144.242188 211.15625 144.019531 210.972656 143.765625 C 210.789062 143.511719 210.648438 143.238281 210.550781 142.9375 C 210.453125 142.640625 210.40625 142.332031 210.40625 142.019531 C 210.40625 141.707031 210.453125 141.398438 210.550781 141.101562 L 216.515625 122.734375 C 216.609375 122.4375 216.660156 122.132812 216.660156 121.816406 C 216.660156 121.503906 216.609375 121.199219 216.515625 120.898438 C 216.417969 120.601562 216.277344 120.324219 216.09375 120.070312 C 215.90625 119.816406 215.6875 119.597656 215.433594 119.414062 L 199.820312 108.0625 C 199.566406 107.878906 199.347656 107.660156 199.164062 107.40625 C 198.980469 107.152344 198.839844 106.875 198.742188 106.578125 C 198.644531 106.277344 198.597656 105.972656 198.597656 105.65625 C 198.597656 105.34375 198.644531 105.039062 198.742188 104.738281 C 198.839844 104.441406 198.980469 104.164062 199.164062 103.910156 C 199.347656 103.65625 199.566406 103.4375 199.820312 103.253906 C 200.074219 103.070312 200.351562 102.929688 200.648438 102.832031 C 200.945312 102.734375 201.253906 102.683594 201.566406 102.683594 L 220.867188 102.683594 C 221.179688 102.683594 221.488281 102.636719 221.785156 102.539062 C 222.082031 102.441406 222.359375 102.300781 222.613281 102.117188 C 222.867188 101.933594 223.085938 101.714844 223.269531 101.460938 C 223.457031 101.207031 223.597656 100.929688 223.691406 100.632812 L 229.65625 82.265625 C 229.753906 81.96875 229.894531 81.691406 230.078125 81.4375 C 230.261719 81.183594 230.480469 80.964844 230.734375 80.78125 C 230.988281 80.59375 231.265625 80.453125 231.5625 80.359375 C 231.863281 80.261719 232.167969 80.210938 232.484375 80.210938 C 232.796875 80.210938 233.101562 80.261719 233.402344 80.355469 C 233.699219 80.453125 233.976562 80.59375 234.230469 80.78125 C 234.484375 80.964844 234.703125 81.183594 234.886719 81.4375 C 235.070312 81.691406 235.210938 81.96875 235.308594 82.265625 Z M 235.308594 82.265625 " fill-opacity="1" fill-rule="nonzero"/><path fill="#000000" d="M 251.589844 147.640625 C 250.375 147.636719 249.277344 147.273438 248.300781 146.550781 L 232.683594 135.199219 C 232.550781 135.101562 232.414062 135.101562 232.28125 135.199219 L 216.664062 146.550781 C 216.1875 146.898438 215.667969 147.164062 215.105469 147.347656 C 214.542969 147.53125 213.964844 147.621094 213.375 147.621094 C 212.785156 147.621094 212.207031 147.53125 211.644531 147.347656 C 211.082031 147.164062 210.5625 146.898438 210.085938 146.550781 C 209.605469 146.203125 209.195312 145.789062 208.847656 145.3125 C 208.5 144.832031 208.234375 144.3125 208.050781 143.75 C 207.867188 143.1875 207.777344 142.609375 207.777344 142.019531 C 207.777344 141.429688 207.871094 140.851562 208.050781 140.289062 L 214.015625 121.925781 C 214.066406 121.765625 214.023438 121.636719 213.890625 121.539062 L 198.277344 110.1875 C 197.796875 109.839844 197.386719 109.429688 197.039062 108.949219 C 196.691406 108.472656 196.425781 107.949219 196.242188 107.386719 C 196.058594 106.824219 195.96875 106.25 195.96875 105.65625 C 195.96875 105.066406 196.058594 104.488281 196.242188 103.925781 C 196.425781 103.363281 196.691406 102.84375 197.039062 102.367188 C 197.386719 101.886719 197.796875 101.472656 198.277344 101.125 C 198.753906 100.777344 199.277344 100.515625 199.835938 100.332031 C 200.398438 100.148438 200.976562 100.058594 201.566406 100.058594 L 220.867188 100.058594 C 221.035156 100.058594 221.144531 99.980469 221.195312 99.820312 L 227.160156 81.453125 C 227.34375 80.890625 227.605469 80.371094 227.953125 79.890625 C 228.300781 79.414062 228.714844 79 229.191406 78.652344 C 229.671875 78.304688 230.191406 78.039062 230.753906 77.859375 C 231.316406 77.675781 231.890625 77.582031 232.484375 77.582031 C 233.074219 77.582031 233.652344 77.675781 234.210938 77.859375 C 234.773438 78.039062 235.296875 78.304688 235.773438 78.652344 C 236.25 79 236.664062 79.414062 237.011719 79.890625 C 237.359375 80.371094 237.625 80.890625 237.808594 81.453125 L 243.769531 99.820312 C 243.820312 99.980469 243.929688 100.058594 244.097656 100.058594 L 263.398438 100.058594 C 263.988281 100.058594 264.566406 100.148438 265.128906 100.332031 C 265.691406 100.515625 266.210938 100.777344 266.6875 101.125 C 267.167969 101.472656 267.578125 101.886719 267.925781 102.367188 C 268.273438 102.84375 268.539062 103.363281 268.722656 103.925781 C 268.90625 104.488281 268.996094 105.066406 268.996094 105.65625 C 268.996094 106.25 268.90625 106.824219 268.722656 107.386719 C 268.539062 107.949219 268.273438 108.472656 267.929688 108.949219 C 267.582031 109.429688 267.167969 109.839844 266.6875 110.1875 L 251.074219 121.539062 C 250.941406 121.636719 250.898438 121.765625 250.949219 121.921875 L 256.914062 140.289062 C 257.101562 140.851562 257.199219 141.429688 257.203125 142.019531 C 257.207031 142.613281 257.117188 143.191406 256.933594 143.757812 C 256.75 144.320312 256.480469 144.839844 256.132812 145.320312 C 255.78125 145.796875 255.363281 146.207031 254.878906 146.550781 C 253.902344 147.273438 252.804688 147.632812 251.589844 147.640625 Z M 201.566406 105.3125 C 201.402344 105.3125 201.292969 105.390625 201.238281 105.550781 C 201.1875 105.710938 201.230469 105.839844 201.363281 105.9375 L 216.980469 117.285156 C 217.457031 117.632812 217.871094 118.046875 218.21875 118.523438 C 218.566406 119.003906 218.832031 119.523438 219.015625 120.085938 C 219.199219 120.648438 219.289062 121.226562 219.289062 121.816406 C 219.289062 122.410156 219.195312 122.984375 219.011719 123.546875 L 213.050781 141.914062 C 212.972656 142.078125 213.011719 142.207031 213.171875 142.296875 C 213.230469 142.351562 213.296875 142.378906 213.375 142.378906 C 213.453125 142.378906 213.519531 142.351562 213.578125 142.296875 L 229.191406 130.949219 C 229.671875 130.601562 230.191406 130.335938 230.753906 130.152344 C 231.316406 129.96875 231.890625 129.875 232.484375 129.875 C 233.074219 129.875 233.652344 129.96875 234.210938 130.152344 C 234.773438 130.335938 235.292969 130.601562 235.773438 130.949219 L 251.390625 142.296875 C 251.523438 142.425781 251.65625 142.425781 251.792969 142.296875 C 251.953125 142.207031 251.996094 142.082031 251.917969 141.914062 L 245.953125 123.546875 C 245.769531 122.984375 245.675781 122.410156 245.675781 121.816406 C 245.675781 121.226562 245.769531 120.648438 245.949219 120.085938 C 246.132812 119.523438 246.398438 119.003906 246.746094 118.523438 C 247.09375 118.046875 247.507812 117.632812 247.988281 117.285156 L 263.601562 105.9375 C 263.734375 105.839844 263.777344 105.710938 263.726562 105.550781 C 263.675781 105.390625 263.566406 105.3125 263.398438 105.3125 L 244.097656 105.3125 C 243.507812 105.3125 242.929688 105.222656 242.367188 105.042969 C 241.804688 104.859375 241.285156 104.59375 240.804688 104.246094 C 240.328125 103.898438 239.914062 103.484375 239.566406 103.003906 C 239.21875 102.527344 238.957031 102.003906 238.773438 101.441406 L 232.808594 83.078125 C 232.757812 82.917969 232.648438 82.839844 232.484375 82.839844 C 232.316406 82.839844 232.207031 82.917969 232.15625 83.078125 L 226.191406 101.441406 C 226.011719 102.007812 225.746094 102.527344 225.398438 103.007812 C 225.050781 103.484375 224.640625 103.898438 224.160156 104.246094 C 223.683594 104.59375 223.160156 104.859375 222.597656 105.042969 C 222.035156 105.222656 221.457031 105.3125 220.867188 105.3125 Z M 201.566406 105.3125 " fill-opacity="1" fill-rule="nonzero"/></svg>