<svg xmlns="http://www.w3.org/2000/svg" xmlns:xlink="http://www.w3.org/1999/xlink" width="668" zoomAndPan="magnify" viewBox="0 0 501 557.249982" height="743" preserveAspectRatio="xMidYMid meet" version="1.0"><defs><clipPath id="ceac163bb9"><path d="M 68 75 L 499.914062 75 L 499.914062 551 L 68 551 Z M 68 75 " clip-rule="nonzero"/></clipPath><clipPath id="34f73602f8"><path d="M 412 373 L 473.148438 373 L 473.148438 435 L 412 435 Z M 412 373 " clip-rule="nonzero"/></clipPath><clipPath id="fb9a029d83"><path d="M 150 147.015625 L 383 147.015625 L 383 449 L 150 449 Z M 150 147.015625 " clip-rule="nonzero"/></clipPath><clipPath id="7d01c98fb8"><path d="M 127.113281 184 L 360 184 L 360 470 L 127.113281 470 Z M 127.113281 184 " clip-rule="nonzero"/></clipPath><clipPath id="9f45ad95a0"><path d="M 330 147.015625 L 383 147.015625 L 383 200 L 330 200 Z M 330 147.015625 " clip-rule="nonzero"/></clipPath></defs><path fill="#00ff00" d="M 398.324219 272.867188 C 477.207031 323.121094 485.574219 417.644531 404.300781 417.644531 C 331.398438 417.644531 337.371094 539.691406 271.636719 546.871094 C 201.125 556.445312 207.101562 488.242188 128.21875 496.617188 C 66.070312 502.601562 0.335938 453.542969 55.3125 396.109375 C 79.21875 370.980469 137.78125 305.171875 112.683594 269.277344 C 1.53125 108.941406 348.128906 0.0585938 370.835938 143.640625 C 378.007812 190.304688 348.128906 240.558594 398.324219 272.867188 Z M 398.324219 272.867188 " fill-opacity="1" fill-rule="evenodd"/><g clip-path="url(#ceac163bb9)"><path fill="#000000" d="M 435.375 270.472656 C 465.253906 290.8125 485.574219 315.941406 493.9375 339.871094 C 498.71875 353.035156 499.914062 366.195312 498.71875 378.160156 C 496.328125 388.929688 491.546875 399.699219 481.988281 406.878906 C 472.425781 414.054688 458.082031 418.84375 440.15625 418.84375 C 403.105469 418.84375 386.375 452.34375 370.835938 484.652344 C 355.300781 514.566406 339.761719 545.675781 308.6875 549.265625 C 272.832031 554.050781 256.101562 539.691406 238.175781 524.136719 C 221.441406 509.777344 203.515625 494.222656 164.074219 499.011719 C 142.5625 500.207031 121.046875 496.617188 103.121094 487.046875 C 91.167969 481.0625 81.609375 473.882812 75.632812 464.3125 C 69.65625 454.738281 67.265625 442.773438 69.65625 430.808594 C 70.851562 418.84375 78.023438 406.878906 89.972656 394.914062 C 101.925781 381.75 122.242188 360.210938 136.585938 336.28125 C 150.925781 312.351562 159.292969 288.421875 147.339844 270.472656 C 115.070312 223.808594 121.046875 181.929688 144.953125 148.425781 C 164.074219 123.300781 193.953125 104.15625 226.222656 90.992188 C 259.6875 77.832031 295.542969 73.046875 326.617188 76.636719 C 368.445312 80.226562 401.910156 101.761719 407.886719 143.640625 C 410.277344 158 409.082031 173.554688 407.886719 189.109375 C 404.300781 220.21875 401.910156 248.933594 435.375 270.472656 Z M 490.351562 341.066406 C 481.988281 318.335938 462.863281 293.207031 432.984375 274.0625 C 397.128906 251.328125 400.714844 220.21875 404.300781 187.914062 C 405.496094 173.554688 406.691406 158 404.300781 143.640625 C 398.324219 104.15625 366.054688 83.8125 325.421875 80.226562 C 295.542969 76.636719 259.6875 82.617188 227.417969 94.582031 C 195.148438 107.746094 166.464844 126.890625 148.535156 150.820312 C 124.632812 183.125 119.851562 223.808594 150.925781 268.078125 C 164.074219 287.222656 154.511719 313.546875 140.171875 337.480469 C 124.632812 362.605469 104.316406 385.339844 92.363281 397.304688 C 81.609375 409.269531 75.632812 421.234375 73.242188 432.003906 C 70.851562 442.773438 73.242188 452.34375 79.21875 461.917969 C 85.191406 470.292969 93.558594 478.667969 105.511719 483.457031 C 122.242188 493.027344 142.5625 496.617188 162.878906 494.222656 C 204.710938 490.632812 222.636719 506.1875 241.757812 521.746094 C 257.296875 536.101562 274.027344 549.265625 307.492188 545.675781 C 337.371094 542.085938 352.910156 512.171875 367.25 482.257812 C 383.984375 448.757812 400.714844 415.253906 440.15625 415.253906 C 458.082031 415.253906 471.230469 410.46875 479.597656 403.289062 C 487.960938 397.304688 492.742188 387.734375 495.132812 376.964844 C 496.328125 366.195312 495.132812 354.230469 490.351562 341.066406 Z M 490.351562 341.066406 " fill-opacity="1" fill-rule="nonzero"/></g><path fill="#ffcb29" d="M 412.929688 364.777344 C 411.519531 366.472656 410.105469 368.171875 408.40625 369.867188 C 406.710938 371.5625 405.015625 372.976562 403.320312 374.390625 C 395.96875 380.328125 388.054688 384.570312 379.570312 387.113281 C 355.824219 394.464844 328.96875 388.527344 310.308594 369.867188 C 292.496094 352.054688 286.277344 326.894531 291.933594 304.273438 C 294.476562 294.097656 299.28125 284.199219 306.632812 276 C 307.765625 274.589844 309.179688 273.175781 310.308594 272.042969 C 314.832031 267.519531 319.636719 263.84375 325.007812 261.015625 C 332.925781 256.492188 341.40625 253.667969 350.171875 252.535156 C 360.066406 251.121094 370.242188 251.96875 379.855469 254.796875 C 390.316406 257.90625 400.210938 263.84375 408.691406 272.042969 C 433.851562 297.207031 435.265625 337.636719 412.929688 364.777344 Z M 412.929688 364.777344 " fill-opacity="1" fill-rule="nonzero"/><path fill="#000000" d="M 359.21875 393.050781 C 340.277344 393.050781 321.898438 385.699219 308.328125 371.847656 C 290.238281 353.75 283.167969 328.304688 289.386719 303.425781 C 291.933594 292.683594 297.304688 282.222656 304.65625 273.738281 C 305.785156 272.328125 307.199219 270.914062 308.613281 269.5 C 313.136719 264.976562 318.222656 261.015625 323.878906 257.90625 C 332.078125 253.382812 340.839844 250.273438 349.886719 249.144531 C 360.066406 247.730469 370.808594 248.578125 380.703125 251.6875 C 392.011719 255.078125 402.1875 261.300781 410.667969 269.78125 C 437.246094 296.359375 439.222656 337.917969 415.476562 366.757812 C 414.0625 368.453125 412.367188 370.433594 410.667969 372.128906 C 408.972656 373.824219 407.277344 375.523438 405.582031 376.933594 C 398.230469 382.871094 389.75 387.394531 380.703125 390.222656 C 373.351562 391.917969 366.285156 393.050781 359.21875 393.050781 Z M 359.21875 254.230469 C 356.105469 254.230469 353.28125 254.515625 350.171875 254.796875 C 341.6875 255.929688 333.492188 258.753906 326.140625 262.996094 C 321.050781 265.824219 316.246094 269.5 312.289062 273.738281 C 310.875 274.871094 309.742188 276.285156 308.613281 277.699219 C 301.828125 285.613281 297.019531 294.945312 294.757812 304.839844 C 289.105469 327.742188 295.609375 351.207031 312.289062 367.886719 C 329.816406 385.417969 355.257812 391.636719 378.722656 384.570312 C 387.203125 382.023438 394.839844 377.785156 401.625 372.410156 C 403.320312 370.996094 404.734375 369.585938 406.429688 368.171875 C 408.125 366.757812 409.539062 365.0625 410.667969 363.363281 C 432.4375 336.789062 430.742188 298.335938 406.144531 274.023438 C 398.511719 266.390625 388.902344 260.734375 378.441406 257.34375 C 372.503906 255.078125 365.71875 254.230469 359.21875 254.230469 Z M 359.21875 254.230469 " fill-opacity="1" fill-rule="nonzero"/><path fill="#ffffff" d="M 410.667969 320.957031 C 410.667969 322.640625 410.585938 324.320312 410.421875 326 C 410.257812 327.675781 410.011719 329.339844 409.679688 330.992188 C 409.351562 332.648438 408.945312 334.28125 408.453125 335.890625 C 407.964844 337.503906 407.398438 339.089844 406.753906 340.648438 C 406.109375 342.203125 405.386719 343.726562 404.59375 345.210938 C 403.800781 346.699219 402.933594 348.140625 402 349.542969 C 401.0625 350.945312 400.058594 352.296875 398.992188 353.597656 C 397.921875 354.902344 396.792969 356.148438 395.597656 357.339844 C 394.40625 358.53125 393.160156 359.664062 391.859375 360.730469 C 390.554688 361.800781 389.203125 362.804688 387.800781 363.738281 C 386.402344 364.675781 384.957031 365.542969 383.472656 366.335938 C 381.984375 367.128906 380.464844 367.851562 378.90625 368.496094 C 377.351562 369.140625 375.765625 369.707031 374.152344 370.195312 C 372.539062 370.683594 370.90625 371.09375 369.253906 371.421875 C 367.601562 371.75 365.9375 372 364.261719 372.164062 C 362.582031 372.328125 360.902344 372.410156 359.21875 372.410156 C 357.53125 372.410156 355.851562 372.328125 354.171875 372.164062 C 352.496094 372 350.832031 371.75 349.179688 371.421875 C 347.527344 371.09375 345.894531 370.683594 344.28125 370.195312 C 342.667969 369.707031 341.082031 369.140625 339.527344 368.496094 C 337.96875 367.851562 336.449219 367.128906 334.960938 366.335938 C 333.476562 365.542969 332.03125 364.675781 330.632812 363.738281 C 329.230469 362.804688 327.878906 361.800781 326.574219 360.730469 C 325.273438 359.664062 324.027344 358.53125 322.835938 357.339844 C 321.644531 356.148438 320.511719 354.902344 319.445312 353.597656 C 318.375 352.296875 317.371094 350.945312 316.433594 349.542969 C 315.5 348.140625 314.632812 346.699219 313.839844 345.210938 C 313.046875 343.726562 312.324219 342.203125 311.679688 340.648438 C 311.035156 339.089844 310.46875 337.503906 309.980469 335.890625 C 309.492188 334.28125 309.082031 332.648438 308.753906 330.992188 C 308.425781 329.339844 308.175781 327.675781 308.011719 326 C 307.847656 324.320312 307.765625 322.640625 307.765625 320.957031 C 307.765625 319.269531 307.847656 317.589844 308.011719 315.910156 C 308.175781 314.234375 308.425781 312.570312 308.753906 310.917969 C 309.082031 309.265625 309.492188 307.632812 309.980469 306.019531 C 310.46875 304.40625 311.035156 302.820312 311.679688 301.265625 C 312.324219 299.707031 313.046875 298.183594 313.839844 296.699219 C 314.632812 295.210938 315.5 293.769531 316.433594 292.367188 C 317.371094 290.964844 318.375 289.613281 319.445312 288.3125 C 320.511719 287.007812 321.644531 285.761719 322.835938 284.570312 C 324.027344 283.378906 325.273438 282.25 326.574219 281.179688 C 327.878906 280.109375 329.230469 279.105469 330.632812 278.171875 C 332.03125 277.234375 333.476562 276.371094 334.960938 275.574219 C 336.449219 274.78125 337.96875 274.0625 339.527344 273.414062 C 341.082031 272.769531 342.667969 272.203125 344.28125 271.714844 C 345.894531 271.226562 347.527344 270.816406 349.179688 270.488281 C 350.832031 270.160156 352.496094 269.910156 354.171875 269.746094 C 355.851562 269.582031 357.53125 269.5 359.21875 269.5 C 360.902344 269.5 362.582031 269.582031 364.261719 269.746094 C 365.9375 269.910156 367.601562 270.160156 369.253906 270.488281 C 370.90625 270.816406 372.539062 271.226562 374.152344 271.714844 C 375.765625 272.203125 377.351562 272.769531 378.90625 273.414062 C 380.464844 274.0625 381.984375 274.78125 383.472656 275.574219 C 384.957031 276.371094 386.402344 277.234375 387.800781 278.171875 C 389.203125 279.105469 390.554688 280.109375 391.859375 281.179688 C 393.160156 282.25 394.40625 283.378906 395.601562 284.570312 C 396.792969 285.761719 397.921875 287.007812 398.992188 288.3125 C 400.058594 289.613281 401.0625 290.964844 402 292.367188 C 402.933594 293.769531 403.800781 295.210938 404.59375 296.699219 C 405.386719 298.183594 406.109375 299.707031 406.753906 301.265625 C 407.398438 302.820312 407.964844 304.40625 408.453125 306.019531 C 408.945312 307.632812 409.351562 309.265625 409.679688 310.917969 C 410.011719 312.570312 410.257812 314.234375 410.421875 315.910156 C 410.585938 317.589844 410.667969 319.269531 410.667969 320.957031 Z M 410.667969 320.957031 " fill-opacity="1" fill-rule="nonzero"/><path fill="#000000" d="M 359.21875 374.957031 C 345.363281 374.957031 331.511719 369.585938 320.769531 359.125 C 299.566406 337.917969 299.566406 303.710938 320.769531 282.503906 C 330.945312 272.328125 344.515625 266.671875 359.21875 266.671875 C 373.636719 266.671875 387.207031 272.328125 397.664062 282.503906 C 407.84375 292.683594 413.496094 306.253906 413.496094 320.957031 C 413.496094 335.65625 407.84375 348.945312 397.664062 359.40625 C 386.921875 369.867188 373.070312 374.957031 359.21875 374.957031 Z M 359.21875 272.328125 C 346.210938 272.328125 334.054688 277.414062 325.007812 286.460938 C 306.066406 305.40625 306.066406 336.222656 325.007812 355.164062 C 343.949219 374.109375 374.765625 374.109375 393.707031 355.164062 C 402.753906 346.117188 407.84375 333.679688 407.84375 320.957031 C 407.84375 308.234375 402.753906 295.792969 393.707031 286.746094 C 384.378906 277.414062 372.222656 272.328125 359.21875 272.328125 Z M 359.21875 272.328125 " fill-opacity="1" fill-rule="nonzero"/><path fill="#57c1ef" d="M 468.058594 423.300781 L 461.558594 429.804688 C 458.730469 432.632812 454.488281 432.632812 451.945312 429.804688 L 415.191406 393.050781 L 431.589844 376.652344 L 468.34375 413.40625 C 470.886719 416.234375 470.886719 420.476562 468.058594 423.300781 Z M 468.058594 423.300781 " fill-opacity="1" fill-rule="nonzero"/><g clip-path="url(#34f73602f8)"><path fill="#000000" d="M 456.75 434.613281 C 454.207031 434.613281 451.664062 433.761719 449.964844 431.785156 L 413.214844 395.03125 C 412.082031 393.898438 412.082031 392.203125 413.214844 391.070312 L 429.609375 374.671875 C 430.742188 373.542969 432.4375 373.542969 433.570312 374.671875 L 470.320312 411.429688 C 473.996094 415.101562 473.996094 421.324219 470.320312 425.28125 L 463.820312 431.785156 C 461.839844 433.761719 459.296875 434.613281 456.75 434.613281 Z M 419.152344 393.050781 L 453.925781 427.824219 C 455.621094 429.523438 458.164062 429.523438 459.578125 427.824219 L 466.082031 421.324219 C 467.777344 419.628906 467.777344 417.082031 466.082031 415.667969 L 431.308594 380.894531 Z M 419.152344 393.050781 " fill-opacity="1" fill-rule="nonzero"/></g><path fill="#f78c1f" d="M 412.929688 364.777344 L 427.914062 379.761719 L 418.304688 389.375 L 403.320312 374.390625 C 405.015625 372.976562 406.710938 371.5625 408.40625 369.867188 C 409.820312 368.171875 411.519531 366.472656 412.929688 364.777344 Z M 412.929688 364.777344 " fill-opacity="1" fill-rule="nonzero"/><path fill="#000000" d="M 418.304688 392.484375 C 417.453125 392.484375 416.890625 392.203125 416.324219 391.636719 L 401.339844 376.652344 C 400.773438 376.085938 400.492188 375.238281 400.492188 374.390625 C 400.492188 373.542969 400.773438 372.976562 401.625 372.410156 C 403.320312 370.996094 405.015625 369.585938 406.429688 367.886719 C 407.84375 366.472656 409.539062 364.777344 410.667969 363.082031 C 411.234375 362.515625 411.800781 361.949219 412.648438 361.949219 C 413.496094 361.949219 414.34375 362.234375 414.910156 362.800781 L 429.894531 377.785156 C 431.023438 378.914062 431.023438 380.609375 429.894531 381.742188 L 420.28125 391.355469 C 420 392.203125 419.152344 392.484375 418.304688 392.484375 Z M 407.558594 374.671875 L 418.585938 385.699219 L 424.238281 380.046875 L 413.214844 369.019531 C 412.367188 369.867188 411.519531 370.996094 410.386719 371.847656 C 409.257812 372.976562 408.40625 373.824219 407.558594 374.671875 Z M 407.558594 374.671875 " fill-opacity="1" fill-rule="nonzero"/><path fill="#57c1ef" d="M 354.128906 339.332031 C 352.433594 339.332031 351.019531 338.765625 349.605469 337.636719 L 335.753906 324.628906 C 333.207031 322.085938 333.207031 318.128906 335.46875 315.582031 C 338.015625 313.039062 341.972656 313.039062 344.515625 315.300781 L 353.84375 324.066406 L 373.351562 304.558594 C 375.898438 302.011719 379.855469 302.011719 382.398438 304.558594 C 384.945312 307.101562 384.945312 311.058594 382.398438 313.605469 L 358.367188 337.636719 C 357.238281 338.484375 355.824219 339.332031 354.128906 339.332031 Z M 354.128906 339.332031 " fill-opacity="1" fill-rule="nonzero"/><path fill="#000000" d="M 354.128906 342.160156 C 351.867188 342.160156 349.605469 341.3125 347.625 339.617188 L 333.773438 326.609375 C 332.078125 324.914062 330.945312 322.652344 330.945312 320.105469 C 330.945312 317.5625 331.792969 315.300781 333.492188 313.605469 C 335.1875 311.90625 337.449219 310.777344 339.992188 310.777344 C 342.253906 310.777344 344.800781 311.625 346.496094 313.320312 L 353.5625 320.105469 L 371.089844 302.578125 C 374.484375 299.183594 380.703125 299.183594 384.09375 302.578125 C 385.792969 304.273438 386.921875 306.535156 386.921875 309.082031 C 386.921875 311.625 386.074219 313.886719 384.09375 315.582031 L 360.066406 339.617188 C 358.933594 341.027344 356.671875 342.160156 354.128906 342.160156 Z M 340.277344 316.148438 C 339.144531 316.148438 338.296875 316.433594 337.730469 317.28125 C 336.316406 318.695312 336.316406 320.957031 337.730469 322.367188 L 351.582031 335.375 C 352.996094 336.789062 355.257812 336.503906 356.671875 335.375 L 380.703125 311.34375 C 381.269531 310.777344 381.832031 309.644531 381.832031 308.796875 C 381.832031 307.949219 381.550781 306.820312 380.703125 306.253906 C 379.289062 304.839844 377.027344 304.839844 375.613281 306.253906 L 355.824219 325.761719 C 354.695312 326.894531 352.996094 326.894531 351.867188 325.761719 L 342.820312 317.28125 C 342.253906 316.433594 341.40625 316.148438 340.277344 316.148438 Z M 340.277344 316.148438 " fill-opacity="1" fill-rule="nonzero"/><path fill="#e0e0e0" d="M 291.933594 304.273438 C 286.277344 327.175781 292.496094 352.054688 310.308594 369.867188 C 328.96875 388.527344 355.824219 394.464844 379.570312 387.113281 L 379.570312 445.355469 L 153.125 445.355469 L 153.125 150.753906 L 333.492188 150.753906 L 379.289062 196.554688 L 379.289062 254.515625 C 369.675781 251.6875 359.5 250.839844 349.605469 252.253906 C 340.839844 253.382812 332.359375 256.210938 324.445312 260.734375 C 319.074219 263.5625 314.265625 267.519531 309.742188 271.761719 C 308.328125 273.175781 307.199219 274.304688 306.066406 275.71875 C 299.28125 284.199219 294.195312 294.097656 291.933594 304.273438 Z M 291.933594 304.273438 " fill-opacity="1" fill-rule="nonzero"/><g clip-path="url(#fb9a029d83)"><path fill="#000000" d="M 379.570312 448.183594 L 153.125 448.183594 C 151.425781 448.183594 150.296875 447.050781 150.296875 445.355469 L 150.296875 150.753906 C 150.296875 149.058594 151.425781 147.925781 153.125 147.925781 L 333.492188 147.925781 C 334.339844 147.925781 334.902344 148.210938 335.46875 148.773438 L 381.550781 194.578125 C 382.117188 195.140625 382.398438 195.707031 382.398438 196.554688 L 382.398438 254.515625 C 382.398438 255.363281 381.832031 256.210938 381.269531 256.777344 C 380.421875 257.34375 379.570312 257.34375 378.722656 257.34375 C 369.675781 254.515625 359.78125 253.667969 350.171875 255.078125 C 341.6875 256.210938 333.492188 259.039062 326.140625 263.277344 C 321.050781 266.105469 316.246094 269.78125 312.289062 274.023438 C 310.875 274.871094 309.742188 276.285156 308.613281 277.699219 C 301.828125 285.613281 297.019531 294.945312 294.757812 304.839844 C 289.105469 327.742188 295.609375 351.207031 312.289062 367.886719 C 329.816406 385.417969 355.257812 391.636719 378.722656 384.570312 C 379.570312 384.285156 380.421875 384.570312 381.269531 385.132812 C 382.117188 385.699219 382.398438 386.546875 382.398438 387.394531 L 382.398438 445.636719 C 382.398438 447.050781 380.984375 448.183594 379.570312 448.183594 Z M 155.949219 442.527344 L 376.746094 442.527344 L 376.746094 390.789062 C 352.148438 397.007812 326.140625 389.65625 308.328125 371.847656 C 290.234375 353.75 283.167969 328.304688 289.386719 303.425781 C 291.933594 292.683594 297.304688 282.222656 304.65625 273.738281 C 305.785156 272.328125 307.199219 270.914062 308.613281 269.5 C 313.136719 264.976562 318.222656 261.015625 323.878906 257.90625 C 332.078125 253.382812 340.839844 250.273438 349.886719 249.144531 C 358.933594 248.011719 368.261719 248.292969 377.027344 250.554688 L 377.027344 197.6875 L 332.359375 153.582031 L 155.949219 153.582031 Z M 291.933594 304.273438 Z M 291.933594 304.273438 " fill-opacity="1" fill-rule="nonzero"/></g><path fill="#bdbdbd" d="M 356.390625 445.355469 L 356.390625 466.84375 L 129.941406 466.84375 L 129.941406 187.792969 L 153.125 187.792969 L 153.125 445.355469 Z M 356.390625 445.355469 " fill-opacity="1" fill-rule="nonzero"/><g clip-path="url(#7d01c98fb8)"><path fill="#000000" d="M 356.390625 469.667969 L 129.941406 469.667969 C 128.246094 469.667969 127.113281 468.539062 127.113281 466.84375 L 127.113281 187.792969 C 127.113281 186.09375 128.246094 184.964844 129.941406 184.964844 L 153.125 184.964844 C 154.820312 184.964844 155.949219 186.09375 155.949219 187.792969 L 155.949219 442.527344 L 356.390625 442.527344 C 358.085938 442.527344 359.21875 443.660156 359.21875 445.355469 L 359.21875 466.84375 C 359.21875 468.539062 358.085938 469.667969 356.390625 469.667969 Z M 132.769531 464.015625 L 353.5625 464.015625 L 353.5625 448.183594 L 153.125 448.183594 C 151.425781 448.183594 150.296875 447.050781 150.296875 445.355469 L 150.296875 190.617188 L 132.769531 190.617188 Z M 132.769531 464.015625 " fill-opacity="1" fill-rule="nonzero"/></g><path fill="#bdbdbd" d="M 333.492188 196.554688 L 333.492188 150.753906 L 379.570312 196.554688 Z M 333.492188 196.554688 " fill-opacity="1" fill-rule="nonzero"/><g clip-path="url(#9f45ad95a0)"><path fill="#000000" d="M 379.570312 199.382812 L 333.492188 199.382812 C 331.792969 199.382812 330.664062 198.25 330.664062 196.554688 L 330.664062 150.753906 C 330.664062 149.621094 331.230469 148.492188 332.359375 148.210938 C 333.492188 147.644531 334.621094 147.925781 335.46875 148.492188 L 381.550781 194.578125 C 382.398438 195.425781 382.683594 196.554688 382.117188 197.6875 C 381.550781 198.535156 380.703125 199.382812 379.570312 199.382812 Z M 336.316406 193.726562 L 372.503906 193.726562 L 336.316406 157.539062 Z M 336.316406 193.726562 " fill-opacity="1" fill-rule="nonzero"/></g><path fill="#bdbdbd" d="M 182.242188 201.925781 L 212.773438 201.925781 L 212.773438 232.460938 L 182.242188 232.460938 Z M 182.242188 201.925781 " fill-opacity="1" fill-rule="nonzero"/><path fill="#000000" d="M 212.773438 235.289062 L 182.242188 235.289062 C 180.546875 235.289062 179.414062 234.160156 179.414062 232.460938 L 179.414062 201.925781 C 179.414062 200.230469 180.546875 199.101562 182.242188 199.101562 L 212.773438 199.101562 C 214.46875 199.101562 215.601562 200.230469 215.601562 201.925781 L 215.601562 232.460938 C 215.601562 233.875 214.46875 235.289062 212.773438 235.289062 Z M 185.070312 229.632812 L 209.949219 229.632812 L 209.949219 204.753906 L 185.070312 204.753906 Z M 185.070312 229.632812 " fill-opacity="1" fill-rule="nonzero"/><path fill="#bdbdbd" d="M 182.242188 264.128906 L 212.773438 264.128906 L 212.773438 294.660156 L 182.242188 294.660156 Z M 182.242188 264.128906 " fill-opacity="1" fill-rule="nonzero"/><path fill="#000000" d="M 212.773438 297.488281 L 182.242188 297.488281 C 180.546875 297.488281 179.414062 296.359375 179.414062 294.660156 L 179.414062 264.128906 C 179.414062 262.429688 180.546875 261.300781 182.242188 261.300781 L 212.773438 261.300781 C 214.46875 261.300781 215.601562 262.429688 215.601562 264.128906 L 215.601562 294.660156 C 215.601562 296.074219 214.46875 297.488281 212.773438 297.488281 Z M 185.070312 291.835938 L 209.949219 291.835938 L 209.949219 266.953125 L 185.070312 266.953125 Z M 185.070312 291.835938 " fill-opacity="1" fill-rule="nonzero"/><path fill="#bdbdbd" d="M 182.242188 326.328125 L 212.773438 326.328125 L 212.773438 356.863281 L 182.242188 356.863281 Z M 182.242188 326.328125 " fill-opacity="1" fill-rule="nonzero"/><path fill="#000000" d="M 212.773438 359.6875 L 182.242188 359.6875 C 180.546875 359.6875 179.414062 358.558594 179.414062 356.863281 L 179.414062 326.328125 C 179.414062 324.628906 180.546875 323.5 182.242188 323.5 L 212.773438 323.5 C 214.46875 323.5 215.601562 324.628906 215.601562 326.328125 L 215.601562 356.863281 C 215.601562 358.558594 214.46875 359.6875 212.773438 359.6875 Z M 185.070312 354.035156 L 209.949219 354.035156 L 209.949219 329.15625 L 185.070312 329.15625 Z M 185.070312 354.035156 " fill-opacity="1" fill-rule="nonzero"/><path fill="#bdbdbd" d="M 182.242188 388.527344 L 212.773438 388.527344 L 212.773438 419.0625 L 182.242188 419.0625 Z M 182.242188 388.527344 " fill-opacity="1" fill-rule="nonzero"/><path fill="#000000" d="M 212.773438 421.890625 L 182.242188 421.890625 C 180.546875 421.890625 179.414062 420.757812 179.414062 419.0625 L 179.414062 388.527344 C 179.414062 386.832031 180.546875 385.699219 182.242188 385.699219 L 212.773438 385.699219 C 214.46875 385.699219 215.601562 386.832031 215.601562 388.527344 L 215.601562 419.0625 C 215.601562 420.757812 214.46875 421.890625 212.773438 421.890625 Z M 185.070312 416.234375 L 209.949219 416.234375 L 209.949219 391.355469 L 185.070312 391.355469 Z M 185.070312 416.234375 " fill-opacity="1" fill-rule="nonzero"/><path fill="#000000" d="M 302.394531 220.023438 L 231.714844 220.023438 C 230.019531 220.023438 228.890625 218.890625 228.890625 217.195312 C 228.890625 215.5 230.019531 214.367188 231.714844 214.367188 L 302.394531 214.367188 C 304.089844 214.367188 305.21875 215.5 305.21875 217.195312 C 305.21875 218.890625 304.089844 220.023438 302.394531 220.023438 Z M 302.394531 220.023438 " fill-opacity="1" fill-rule="nonzero"/><path fill="#000000" d="M 267.054688 282.222656 L 231.714844 282.222656 C 230.019531 282.222656 228.890625 281.089844 228.890625 279.394531 C 228.890625 277.699219 230.019531 276.566406 231.714844 276.566406 L 267.054688 276.566406 C 268.75 276.566406 269.882812 277.699219 269.882812 279.394531 C 269.882812 281.089844 268.75 282.222656 267.054688 282.222656 Z M 267.054688 282.222656 " fill-opacity="1" fill-rule="nonzero"/><path fill="#000000" d="M 267.054688 344.421875 L 230.867188 344.421875 C 229.171875 344.421875 228.039062 343.289062 228.039062 341.59375 C 228.039062 339.898438 229.171875 338.765625 230.867188 338.765625 L 267.054688 338.765625 C 268.75 338.765625 269.882812 339.898438 269.882812 341.59375 C 269.882812 343.289062 268.75 344.421875 267.054688 344.421875 Z M 267.054688 344.421875 " fill-opacity="1" fill-rule="nonzero"/><path fill="#000000" d="M 301.542969 406.621094 L 230.867188 406.621094 C 229.171875 406.621094 228.039062 405.492188 228.039062 403.792969 C 228.039062 402.097656 229.171875 400.96875 230.867188 400.96875 L 301.542969 400.96875 C 303.242188 400.96875 304.371094 402.097656 304.371094 403.792969 C 304.371094 405.492188 303.242188 406.621094 301.542969 406.621094 Z M 301.542969 406.621094 " fill-opacity="1" fill-rule="nonzero"/></svg>