<svg xmlns="http://www.w3.org/2000/svg" xmlns:xlink="http://www.w3.org/1999/xlink" width="674" zoomAndPan="magnify" viewBox="0 0 505.5 473.999983" height="632" preserveAspectRatio="xMidYMid meet" version="1.0"><defs><clipPath id="6c77db1e91"><path d="M 52.777344 51.816406 L 238 51.816406 L 238 234 L 52.777344 234 Z M 52.777344 51.816406 " clip-rule="nonzero"/></clipPath><clipPath id="cbfdf431e5"><path d="M 219 213 L 401.929688 213 L 401.929688 375.496094 L 219 375.496094 Z M 219 213 " clip-rule="nonzero"/></clipPath><clipPath id="675c43bae1"><path d="M 333 311 L 401.929688 311 L 401.929688 375.496094 L 333 375.496094 Z M 333 311 " clip-rule="nonzero"/></clipPath></defs><path fill="#a3e635" d="M 168.714844 27.136719 C 123.613281 27 88.945312 45.777344 64.710938 83.472656 C 64.6875 83.503906 64.671875 83.542969 64.664062 83.582031 L 64.644531 83.582031 C 60.503906 90.535156 57.59375 99.214844 55.917969 109.617188 C 55.90625 109.683594 55.917969 109.753906 55.945312 109.8125 L 55.925781 109.8125 C 53.871094 165.972656 51.015625 197.355469 47.355469 203.96875 C 47.324219 204.027344 47.308594 204.09375 47.316406 204.15625 L 47.296875 204.15625 C 20.902344 270.886719 7.1875 307.976562 6.15625 315.4375 C 6.144531 315.527344 6.171875 315.621094 6.234375 315.691406 L 6.238281 315.695312 C 6.519531 316.277344 6.605469 316.945312 6.46875 317.601562 C 2.359375 337.304688 3.152344 354.996094 8.851562 370.671875 C 8.863281 370.707031 8.882812 370.742188 8.90625 370.769531 L 8.886719 370.769531 C 22.351562 406.835938 48.167969 425.160156 86.34375 425.742188 L 86.347656 425.742188 C 86.363281 425.742188 86.375 425.738281 86.390625 425.738281 L 86.378906 425.738281 C 96.171875 424.832031 106.480469 422.46875 117.304688 418.648438 L 117.289062 418.648438 L 117.402344 418.617188 C 181.839844 387.792969 222.464844 372.125 239.273438 371.613281 L 239.285156 371.613281 L 239.304688 371.609375 L 239.433594 371.574219 C 242.492188 369.964844 250.253906 369.179688 262.726562 369.21875 C 285.289062 369.289062 323.148438 372.070312 376.308594 377.5625 L 376.367188 377.5625 L 376.390625 377.566406 C 377.027344 377.574219 377.664062 377.582031 378.304688 377.582031 C 388.796875 377.613281 399.300781 376.402344 409.816406 373.941406 L 409.824219 373.9375 L 409.828125 373.941406 L 409.855469 373.925781 L 409.871094 373.929688 C 434.128906 367.683594 452.3125 353.992188 464.425781 332.855469 L 464.425781 332.859375 L 464.472656 332.777344 L 464.472656 332.78125 C 477.246094 311.894531 479.878906 289.113281 472.371094 264.429688 L 472.34375 264.429688 C 472.351562 264.382812 472.34375 264.335938 472.328125 264.292969 C 469.882812 257.152344 466.09375 248.960938 460.960938 239.71875 L 460.9375 239.71875 C 460.933594 239.65625 460.914062 239.597656 460.878906 239.546875 C 435.800781 202.800781 420.230469 177.179688 414.164062 162.6875 L 414.140625 162.6875 C 414.152344 162.609375 414.132812 162.53125 414.085938 162.460938 C 409.332031 155.511719 400.140625 127.640625 386.515625 78.84375 L 386.53125 78.847656 C 386.527344 78.832031 386.527344 78.824219 386.519531 78.8125 C 381.375 65.636719 375.363281 55.003906 368.488281 46.914062 L 368.414062 46.824219 C 361.773438 38.421875 351.886719 33.585938 338.75 32.3125 C 338.210938 32.261719 337.707031 32.066406 337.28125 31.761719 L 337.261719 31.765625 C 337.210938 31.671875 337.121094 31.609375 337.011719 31.597656 C 336.304688 31.515625 335.289062 31.472656 333.972656 31.46875 C 323.863281 31.4375 295.566406 33.695312 249.089844 38.238281 L 248.90625 38.25 L 248.902344 38.25 C 248.144531 38.28125 247.351562 38.292969 246.523438 38.289062 C 236.710938 38.257812 222.097656 36.011719 202.683594 31.539062 C 201.941406 31.371094 201.328125 30.9375 200.914062 30.367188 L 200.894531 30.367188 C 200.878906 30.226562 200.773438 30.109375 200.628906 30.085938 C 189.46875 28.152344 178.828125 27.167969 168.714844 27.136719 Z M 168.714844 27.136719 " fill-opacity="1" fill-rule="nonzero"/><path fill="#000000" d="M 158.179688 43.511719 C 96.15625 48.613281 56.78125 77.277344 40.066406 129.503906 L 40.09375 129.410156 C 37.867188 137.15625 37.292969 146.265625 38.367188 156.738281 L 38.300781 156.335938 C 50.917969 211.390625 56.257812 242.46875 54.332031 249.570312 L 54.425781 249.082031 C 45.871094 323.085938 42.273438 362.558594 43.636719 367.503906 C 43.347656 366.464844 42.550781 365.871094 41.238281 365.71875 C 40.5 365.632812 39.832031 365.792969 39.230469 366.191406 C 40.214844 365.535156 41.476562 365.457031 42.535156 365.988281 C 43.59375 366.519531 44.285156 367.574219 44.351562 368.757812 C 45.46875 388.640625 50.75 405.335938 60.199219 418.847656 L 60.183594 418.828125 C 82.304688 449.949219 111.722656 460.863281 148.4375 451.574219 L 148.109375 451.675781 C 157.375 448.269531 166.761719 443.292969 176.273438 436.742188 L 176 436.953125 C 231.144531 389.757812 266.476562 364.167969 282 360.1875 L 279.996094 361.671875 C 280.148438 361.425781 280.320312 361.183594 280.515625 360.949219 C 286.027344 354.324219 330.519531 344.335938 414.003906 330.980469 L 413.730469 331.035156 C 424.511719 328.367188 434.941406 324.332031 445.019531 318.929688 L 444.960938 318.960938 C 466.554688 306.792969 480.433594 289.0625 486.597656 265.761719 L 486.625 265.671875 C 493.5 242.394531 490.144531 219.902344 476.558594 198.1875 L 476.617188 198.277344 C 472.390625 191.992188 466.5625 185.015625 459.132812 177.359375 L 459.347656 177.5625 C 425.398438 148.367188 403.753906 127.621094 394.410156 115.328125 L 394.953125 115.890625 C 388.742188 110.84375 372.617188 86.296875 346.585938 42.253906 L 346.765625 42.53125 C 338.472656 31.25 330.003906 22.625 321.367188 16.65625 L 321.269531 16.585938 C 312.824219 10.289062 302.183594 8.210938 289.351562 10.347656 C 288.183594 10.542969 287 10.097656 286.253906 9.179688 C 285.503906 8.261719 285.300781 7.015625 285.726562 5.910156 C 284.992188 7.824219 285.578125 9.148438 287.484375 9.878906 C 287.769531 9.988281 288.015625 10.042969 288.21875 10.039062 C 284.066406 10.09375 256.324219 19.757812 204.996094 39.023438 L 204.808594 39.085938 C 195.527344 41.960938 180.15625 43.777344 158.691406 44.535156 C 156.867188 44.601562 155.339844 43.175781 155.273438 41.351562 C 155.210938 39.53125 156.636719 38 158.457031 37.9375 C 179.335938 37.199219 194.132812 35.476562 202.855469 32.777344 L 202.671875 32.839844 C 254.722656 13.300781 283.210938 3.5 288.132812 3.433594 C 288.773438 3.425781 289.347656 3.519531 289.851562 3.710938 C 292.054688 4.558594 292.734375 6.078125 291.894531 8.273438 L 288.265625 3.832031 C 302.949219 1.386719 315.265625 3.871094 325.21875 11.289062 L 325.121094 11.222656 C 334.367188 17.609375 343.355469 26.742188 352.089844 38.617188 C 352.152344 38.707031 352.214844 38.796875 352.269531 38.894531 C 377.902344 82.257812 393.519531 106.214844 399.121094 110.765625 C 399.324219 110.929688 399.507812 111.121094 399.667969 111.328125 C 408.730469 123.253906 430.058594 143.660156 463.65625 172.554688 C 463.730469 172.621094 463.800781 172.6875 463.871094 172.761719 C 471.578125 180.699219 477.652344 187.980469 482.097656 194.59375 L 482.15625 194.683594 C 496.796875 218.078125 500.394531 242.363281 492.957031 267.542969 L 492.984375 267.453125 C 486.34375 292.546875 471.414062 311.636719 448.203125 324.714844 L 448.140625 324.75 C 437.574219 330.414062 426.636719 334.644531 415.320312 337.445312 C 415.226562 337.46875 415.136719 337.484375 415.046875 337.5 C 333.195312 350.597656 290.046875 359.820312 285.59375 365.171875 C 285.605469 365.15625 285.625 365.132812 285.644531 365.101562 C 285.195312 365.839844 284.476562 366.371094 283.640625 366.585938 C 269.109375 370.3125 234.664062 395.441406 180.296875 441.972656 C 180.207031 442.046875 180.117188 442.117188 180.019531 442.183594 C 170.050781 449.046875 160.171875 454.277344 150.386719 457.875 C 150.28125 457.914062 150.171875 457.949219 150.058594 457.976562 C 110.421875 468.007812 78.667969 456.234375 54.800781 422.65625 L 54.785156 422.632812 C 44.621094 408.09375 38.945312 390.257812 37.757812 369.125 L 42.882812 371.691406 C 42.140625 372.183594 41.339844 372.378906 40.480469 372.28125 C 38.839844 372.089844 37.769531 371.082031 37.265625 369.253906 C 35.679688 363.484375 39.210938 323.175781 47.863281 248.324219 C 47.882812 248.160156 47.914062 248 47.957031 247.839844 C 49.597656 241.800781 44.230469 211.792969 31.863281 157.8125 C 31.832031 157.679688 31.808594 157.542969 31.796875 157.410156 C 30.636719 146.089844 31.285156 136.148438 33.746094 127.585938 L 33.773438 127.492188 C 51.390625 72.457031 92.679688 42.269531 157.636719 36.929688 C 159.457031 36.78125 161.050781 38.132812 161.199219 39.949219 C 161.351562 41.769531 159.996094 43.363281 158.179688 43.511719 Z M 158.179688 43.511719 " fill-opacity="1" fill-rule="nonzero"/><path fill="#801522" d="M 217.816406 252.039062 C 217.660156 251.804688 217.542969 251.542969 217.492188 251.257812 L 217.292969 251.042969 C 217.222656 251.117188 217.164062 251.195312 217.09375 251.261719 C 214.652344 253.613281 212.917969 253.144531 211.054688 250.664062 C 208.085938 246.714844 203.929688 243.949219 199.832031 241.125 C 194.175781 253.503906 190.734375 267.035156 189.609375 280.359375 C 187.433594 306.019531 193.238281 331.929688 203.417969 355.589844 C 206.816406 351.199219 210.21875 346.804688 213.617188 342.414062 C 219.097656 345.121094 224.957031 347.054688 230.972656 348.140625 C 223.285156 330.40625 217.382812 311.714844 215.402344 292.527344 C 215.445312 292.628906 215.484375 292.734375 215.523438 292.839844 C 225.203125 316.710938 242.101562 337.191406 261.890625 353.691406 C 262.933594 348.238281 263.976562 342.78125 265.023438 337.328125 C 271.132812 337.265625 277.234375 336.339844 283.09375 334.585938 C 266.523438 320.847656 251.375 305.054688 240.597656 286.425781 C 236.820312 279.902344 233.625 273.023438 231.121094 265.90625 L 219.113281 253 C 218.597656 252.84375 218.125 252.5 217.816406 252.039062 " fill-opacity="1" fill-rule="nonzero"/><path fill="#feefd8" d="M 324.453125 352.554688 C 324.449219 352.554688 324.449219 352.558594 324.449219 352.558594 C 324.417969 352.773438 324.433594 352.734375 324.453125 352.554688 " fill-opacity="1" fill-rule="nonzero"/><g clip-path="url(#6c77db1e91)"><path fill="#feefd8" d="M 72.179688 119.855469 C 72.167969 120.136719 72.082031 120.398438 71.929688 120.640625 C 71.234375 122.273438 70.542969 123.910156 69.847656 125.542969 C 69.640625 126.035156 69.070312 126.355469 68.585938 126.515625 C 68.042969 126.691406 67.449219 126.558594 66.960938 126.300781 C 66.503906 126.058594 66.125 125.53125 65.992188 125.039062 C 65.902344 124.757812 65.890625 124.480469 65.953125 124.199219 C 65.964844 123.917969 66.046875 123.65625 66.203125 123.414062 C 66.894531 121.78125 67.589844 120.144531 68.285156 118.511719 C 68.492188 118.019531 69.0625 117.699219 69.546875 117.542969 C 70.089844 117.367188 70.683594 117.496094 71.171875 117.753906 C 71.628906 117.996094 72.007812 118.527344 72.140625 119.015625 C 72.230469 119.296875 72.242188 119.574219 72.179688 119.855469 Z M 64.128906 123.15625 C 62.988281 123.207031 62.015625 122.148438 62.019531 121.046875 C 62.019531 117.054688 63.5 113.242188 66.082031 110.222656 C 66.847656 109.328125 68.28125 109.5 69.066406 110.222656 C 69.953125 111.03125 69.785156 112.367188 69.066406 113.207031 C 68.9375 113.359375 68.785156 113.511719 68.675781 113.679688 C 68.984375 113.199219 68.609375 113.777344 68.546875 113.871094 C 68.308594 114.207031 68.089844 114.550781 67.882812 114.90625 C 67.675781 115.261719 67.488281 115.628906 67.3125 116 C 67.257812 116.117188 66.921875 116.683594 67.214844 116.199219 C 67.128906 116.34375 67.082031 116.542969 67.023438 116.703125 C 66.75 117.449219 66.542969 118.222656 66.398438 119.003906 C 66.390625 119.042969 66.367188 119.144531 66.347656 119.242188 C 66.316406 119.429688 66.304688 119.628906 66.289062 119.8125 C 66.253906 120.222656 66.238281 120.632812 66.238281 121.046875 C 66.238281 122.226562 65.273438 123.101562 64.128906 123.15625 Z M 227.625 198.445312 C 229.433594 197.230469 234.042969 193.605469 237.578125 191.898438 L 122.71875 51.882812 C 58.628906 59.402344 53.148438 118.253906 52.773438 120.15625 L 196.691406 233.140625 C 201.324219 224.132812 207.460938 215.90625 214.742188 208.867188 C 218.71875 205.023438 223.03125 201.53125 227.625 198.445312 " fill-opacity="1" fill-rule="nonzero"/></g><g clip-path="url(#cbfdf431e5)"><path fill="#feefd8" d="M 329.371094 343 C 328.976562 343.375 328.59375 343.769531 328.230469 344.179688 C 328.074219 344.363281 327.917969 344.550781 327.765625 344.742188 C 327.746094 344.765625 327.734375 344.777344 327.71875 344.792969 C 327.640625 344.898438 327.5625 345.003906 327.488281 345.113281 C 326.898438 345.925781 326.382812 346.789062 325.933594 347.6875 C 325.8125 347.9375 325.703125 348.1875 325.585938 348.433594 C 325.585938 348.4375 325.585938 348.4375 325.582031 348.445312 C 325.542969 348.554688 325.492188 348.664062 325.453125 348.773438 C 325.265625 349.257812 325.101562 349.746094 324.960938 350.242188 C 324.816406 350.742188 324.691406 351.246094 324.59375 351.75 C 324.539062 352.015625 324.492188 352.285156 324.453125 352.550781 C 324.441406 352.667969 324.425781 352.785156 324.414062 352.90625 C 324.292969 354.085938 323.542969 354.957031 322.304688 355.011719 C 321.246094 355.0625 320.078125 354.007812 320.191406 352.90625 C 320.695312 348.019531 322.820312 343.425781 326.382812 340.015625 C 327.238281 339.195312 328.511719 339.226562 329.371094 340.015625 C 330.199219 340.773438 330.171875 342.230469 329.371094 343 Z M 319.59375 341.347656 C 319.011719 343.210938 318.433594 345.074219 317.851562 346.933594 C 317.5 348.066406 316.402344 348.671875 315.253906 348.410156 C 314.171875 348.164062 313.453125 346.867188 313.78125 345.816406 C 314.359375 343.949219 314.941406 342.089844 315.523438 340.226562 C 315.878906 339.097656 316.972656 338.492188 318.121094 338.753906 C 319.207031 339 319.921875 340.292969 319.59375 341.347656 Z M 333.101562 372.351562 C 335.804688 341.0625 366.210938 322.085938 393.164062 311.898438 C 396.507812 310.507812 399.390625 311.46875 401.914062 313.339844 L 401.9375 313.222656 L 261.476562 213.441406 C 261.492188 213.828125 261.410156 214.230469 261.230469 214.636719 C 260.820312 215.578125 259.378906 216.128906 258.539062 216.632812 C 257.6875 217.140625 256.835938 217.65625 255.992188 218.171875 C 254.199219 219.273438 252.429688 220.394531 250.671875 221.550781 C 238.714844 229.4375 227.929688 239.113281 221.351562 252.035156 C 220.84375 253.03125 219.929688 253.25 219.113281 253 L 231.121094 265.90625 L 333.042969 375.433594 C 333.398438 375.390625 333.742188 375.339844 334.097656 375.292969 C 333.324219 374.351562 332.914062 373.292969 333.101562 372.351562 " fill-opacity="1" fill-rule="nonzero"/></g><path fill="#feefd8" d="M 217.292969 251.042969 L 217.492188 251.257812 C 217.46875 251.128906 217.457031 250.996094 217.460938 250.859375 C 217.40625 250.921875 217.351562 250.980469 217.292969 251.042969 " fill-opacity="1" fill-rule="nonzero"/><path fill="#e6bfac" d="M 256.992188 213.253906 C 242.339844 221.9375 228.816406 233.125 219.792969 247.566406 C 219.078125 248.707031 218.371094 249.871094 217.460938 250.859375 C 217.457031 250.996094 217.46875 251.128906 217.492188 251.257812 C 217.542969 251.542969 217.660156 251.804688 217.816406 252.039062 C 218.125 252.5 218.597656 252.84375 219.113281 253 C 219.929688 253.25 220.84375 253.03125 221.351562 252.035156 C 227.929688 239.113281 238.714844 229.4375 250.671875 221.550781 C 252.429688 220.394531 254.203125 219.273438 255.992188 218.175781 C 256.835938 217.65625 257.683594 217.140625 258.535156 216.632812 C 259.378906 216.128906 260.820312 215.578125 261.230469 214.636719 C 261.40625 214.230469 261.492188 213.828125 261.476562 213.441406 C 261.457031 212.957031 261.28125 212.496094 260.898438 212.082031 C 260.566406 211.71875 260.183594 211.511719 259.710938 211.382812 C 259.527344 211.332031 259.324219 211.3125 259.117188 211.316406 C 258.730469 212.183594 257.828125 212.753906 256.992188 213.253906 " fill-opacity="1" fill-rule="nonzero"/><g clip-path="url(#675c43bae1)"><path fill="#e6bfac" d="M 366.074219 359.140625 C 359.789062 363.027344 352.878906 365.917969 345.699219 367.671875 C 345.050781 367.828125 344.5 367.703125 344.070312 367.414062 C 343.828125 368.007812 343.582031 368.589844 343.359375 369.1875 C 342.957031 370.261719 341.941406 370.988281 340.761719 370.664062 C 339.730469 370.378906 338.886719 369.136719 339.285156 368.066406 C 341.136719 363.117188 343.472656 358.363281 346.320312 353.910156 C 356.398438 338.160156 372.214844 326.207031 390.253906 321.175781 C 392.882812 320.445312 393.992188 324.515625 391.378906 325.246094 C 386.574219 326.585938 381.941406 328.417969 377.523438 330.746094 C 363.941406 337.921875 352.628906 349.429688 345.90625 363.25 C 349.203125 362.378906 352.449219 361.292969 355.566406 359.914062 C 361.867188 357.125 367.769531 353.402344 372.921875 348.824219 C 377.03125 345.171875 381.136719 340.917969 382.964844 335.671875 C 382.351562 336.027344 381.765625 336.410156 381.527344 336.542969 C 380.335938 337.207031 379.15625 337.910156 378 338.644531 C 375.667969 340.125 373.425781 341.742188 371.300781 343.503906 C 366.964844 347.09375 363.035156 351.199219 359.699219 355.738281 C 359.023438 356.660156 357.882812 357.121094 356.8125 356.496094 C 355.898438 355.960938 355.378906 354.527344 356.054688 353.609375 C 359.9375 348.328125 364.441406 343.550781 369.589844 339.488281 C 372.148438 337.464844 374.816406 335.59375 377.617188 333.925781 C 380.339844 332.304688 383.625 329.859375 386.855469 331.3125 C 387.757812 331.71875 387.957031 332.84375 387.824219 333.695312 C 387.171875 337.867188 385.109375 341.589844 382.539062 344.882812 C 378.085938 350.585938 372.203125 355.347656 366.074219 359.140625 Z M 401.914062 313.339844 C 399.390625 311.46875 396.511719 310.507812 393.167969 311.898438 C 366.210938 322.085938 335.808594 341.0625 333.101562 372.351562 C 332.914062 373.292969 333.324219 374.351562 334.097656 375.292969 C 389.914062 367.941406 401.355469 316.0625 401.914062 313.339844 " fill-opacity="1" fill-rule="nonzero"/></g><path fill="#bf1b2c" d="M 197.375 234.019531 C 199.253906 230.511719 201.351562 227.125 203.671875 223.890625 C 211.855469 212.480469 222.511719 202.921875 234.808594 196.125 C 237.1875 194.804688 239.316406 198.453125 236.9375 199.765625 C 233.570312 201.628906 230.316406 203.691406 227.210938 205.957031 C 216.347656 213.882812 207.371094 224.3125 201.019531 236.148438 C 199.734375 238.542969 196.089844 236.410156 197.375 234.019531 Z M 211.054688 250.664062 C 212.917969 253.144531 214.652344 253.613281 217.09375 251.261719 C 217.164062 251.195312 217.222656 251.117188 217.292969 251.042969 C 217.351562 250.980469 217.40625 250.921875 217.460938 250.859375 C 218.371094 249.871094 219.078125 248.707031 219.792969 247.566406 C 228.816406 233.125 242.339844 221.9375 256.992188 213.253906 C 257.828125 212.753906 258.730469 212.183594 259.117188 211.316406 C 259.160156 211.226562 259.199219 211.132812 259.226562 211.035156 C 259.804688 209.042969 258.015625 207.871094 256.582031 207.09375 C 254.527344 205.980469 252.785156 204.253906 251.230469 202.515625 C 248.257812 199.1875 246.175781 195.078125 242.839844 192.117188 C 242.457031 191.777344 242.046875 191.445312 241.589844 191.230469 C 241.402344 191.140625 241.207031 191.070312 241.003906 191.023438 C 240.183594 190.84375 238.960938 191.230469 237.582031 191.898438 C 234.042969 193.605469 229.433594 197.230469 227.625 198.445312 C 223.03125 201.527344 218.71875 205.023438 214.742188 208.867188 C 207.460938 215.90625 201.328125 224.132812 196.691406 233.136719 C 196.261719 233.964844 195.832031 234.792969 195.429688 235.632812 C 195.210938 236.09375 194.992188 236.589844 195.074219 237.09375 C 195.175781 237.726562 195.71875 238.179688 196.230469 238.5625 C 197.402344 239.445312 198.613281 240.285156 199.832031 241.125 C 203.929688 243.949219 208.085938 246.714844 211.054688 250.664062 " fill-opacity="1" fill-rule="nonzero"/><path fill="#f03a29" d="M 227.210938 205.957031 C 230.316406 203.691406 233.570312 201.628906 236.9375 199.765625 C 239.316406 198.453125 237.1875 194.804688 234.808594 196.125 C 222.511719 202.921875 211.855469 212.480469 203.671875 223.890625 C 201.351562 227.125 199.253906 230.511719 197.375 234.019531 C 196.089844 236.410156 199.734375 238.542969 201.019531 236.148438 C 207.371094 224.3125 216.347656 213.882812 227.210938 205.957031 " fill-opacity="1" fill-rule="nonzero"/><path fill="#feefd8" d="M 387.824219 333.695312 C 387.957031 332.84375 387.757812 331.71875 386.855469 331.3125 C 383.628906 329.859375 380.339844 332.304688 377.617188 333.921875 C 374.816406 335.59375 372.148438 337.464844 369.589844 339.488281 C 364.441406 343.550781 359.9375 348.328125 356.054688 353.609375 C 355.378906 354.527344 355.898438 355.960938 356.8125 356.496094 C 357.882812 357.121094 359.023438 356.660156 359.699219 355.738281 C 363.035156 351.199219 366.964844 347.09375 371.296875 343.503906 C 373.425781 341.742188 375.671875 340.125 378 338.644531 C 379.15625 337.910156 380.332031 337.207031 381.527344 336.542969 C 381.765625 336.410156 382.351562 336.027344 382.964844 335.671875 C 381.136719 340.917969 377.03125 345.171875 372.921875 348.824219 C 367.769531 353.402344 361.867188 357.125 355.570312 359.914062 C 352.449219 361.292969 349.203125 362.378906 345.910156 363.25 C 352.628906 349.429688 363.941406 337.921875 377.527344 330.746094 C 381.941406 328.414062 386.574219 326.585938 391.378906 325.246094 C 393.992188 324.515625 392.882812 320.441406 390.257812 321.175781 C 372.214844 326.207031 356.398438 338.160156 346.320312 353.910156 C 343.46875 358.363281 341.136719 363.117188 339.285156 368.066406 C 338.886719 369.136719 339.730469 370.378906 340.757812 370.660156 C 341.941406 370.988281 342.957031 370.261719 343.355469 369.1875 C 343.582031 368.589844 343.828125 368.007812 344.070312 367.414062 C 344.5 367.703125 345.054688 367.828125 345.699219 367.671875 C 352.878906 365.917969 359.792969 363.027344 366.074219 359.140625 C 372.203125 355.347656 378.085938 350.585938 382.539062 344.882812 C 385.109375 341.589844 387.171875 337.867188 387.824219 333.695312 " fill-opacity="1" fill-rule="nonzero"/><path fill="#e6bfac" d="M 324.449219 352.558594 C 324.449219 352.558594 324.449219 352.554688 324.453125 352.554688 C 324.433594 352.734375 324.417969 352.773438 324.449219 352.558594 Z M 326.386719 340.015625 C 322.820312 343.425781 320.695312 348.019531 320.191406 352.90625 C 320.078125 354.007812 321.246094 355.0625 322.304688 355.011719 C 323.542969 354.957031 324.292969 354.085938 324.414062 352.90625 C 324.425781 352.785156 324.441406 352.667969 324.453125 352.550781 C 324.492188 352.285156 324.539062 352.015625 324.59375 351.75 C 324.691406 351.246094 324.8125 350.742188 324.960938 350.242188 C 325.101562 349.746094 325.265625 349.257812 325.453125 348.773438 C 325.496094 348.664062 325.542969 348.554688 325.582031 348.445312 C 325.585938 348.4375 325.585938 348.4375 325.585938 348.433594 C 325.703125 348.1875 325.8125 347.9375 325.9375 347.6875 C 326.382812 346.789062 326.898438 345.925781 327.484375 345.113281 C 327.5625 345.003906 327.640625 344.898438 327.71875 344.792969 C 327.734375 344.777344 327.746094 344.765625 327.765625 344.742188 C 327.917969 344.550781 328.074219 344.363281 328.234375 344.179688 C 328.59375 343.769531 328.976562 343.375 329.371094 343 C 330.171875 342.230469 330.199219 340.773438 329.371094 340.015625 C 328.511719 339.226562 327.238281 339.195312 326.386719 340.015625 " fill-opacity="1" fill-rule="nonzero"/><path fill="#e6bfac" d="M 318.121094 338.753906 C 316.972656 338.492188 315.875 339.097656 315.523438 340.226562 C 314.941406 342.089844 314.363281 343.949219 313.78125 345.816406 C 313.453125 346.867188 314.171875 348.164062 315.253906 348.410156 C 316.402344 348.671875 317.5 348.066406 317.851562 346.933594 C 318.433594 345.074219 319.011719 343.210938 319.59375 341.347656 C 319.921875 340.292969 319.207031 339 318.121094 338.753906 " fill-opacity="1" fill-rule="nonzero"/><path fill="#e6bfac" d="M 66.289062 119.8125 C 66.304688 119.625 66.316406 119.425781 66.347656 119.238281 C 66.367188 119.144531 66.390625 119.042969 66.398438 119 C 66.542969 118.21875 66.75 117.453125 67.023438 116.703125 C 67.082031 116.542969 67.128906 116.34375 67.214844 116.199219 C 66.921875 116.683594 67.257812 116.117188 67.3125 116 C 67.488281 115.625 67.675781 115.261719 67.882812 114.90625 C 68.089844 114.550781 68.308594 114.207031 68.546875 113.871094 C 68.609375 113.777344 68.984375 113.199219 68.675781 113.679688 C 68.785156 113.511719 68.9375 113.355469 69.066406 113.207031 C 69.785156 112.367188 69.953125 111.03125 69.066406 110.222656 C 68.28125 109.496094 66.847656 109.324219 66.082031 110.222656 C 63.5 113.242188 62.019531 117.054688 62.019531 121.042969 C 62.015625 122.148438 62.988281 123.207031 64.128906 123.152344 C 65.273438 123.101562 66.238281 122.226562 66.238281 121.042969 C 66.238281 120.632812 66.253906 120.222656 66.289062 119.8125 " fill-opacity="1" fill-rule="nonzero"/><path fill="#e6bfac" d="M 71.171875 117.753906 C 70.683594 117.496094 70.089844 117.363281 69.546875 117.539062 C 69.0625 117.695312 68.492188 118.019531 68.285156 118.511719 C 67.589844 120.144531 66.894531 121.777344 66.203125 123.414062 C 66.046875 123.65625 65.964844 123.917969 65.953125 124.199219 C 65.890625 124.480469 65.902344 124.761719 65.992188 125.039062 C 66.125 125.527344 66.503906 126.058594 66.960938 126.300781 C 67.449219 126.558594 68.042969 126.691406 68.585938 126.511719 C 69.070312 126.355469 69.640625 126.035156 69.847656 125.542969 C 70.542969 123.90625 71.234375 122.273438 71.929688 120.640625 C 72.082031 120.398438 72.167969 120.136719 72.179688 119.855469 C 72.242188 119.574219 72.230469 119.292969 72.140625 119.011719 C 72.007812 118.523438 71.628906 117.996094 71.171875 117.753906 " fill-opacity="1" fill-rule="nonzero"/></svg>