<svg xmlns="http://www.w3.org/2000/svg" xmlns:xlink="http://www.w3.org/1999/xlink" width="711" zoomAndPan="magnify" viewBox="0 0 533.25 428.250001" height="571" preserveAspectRatio="xMidYMid meet" version="1.0"><defs><clipPath id="004b4a8bf8"><path d="M 240 51.710938 L 337 51.710938 L 337 228 L 240 228 Z M 240 51.710938 " clip-rule="nonzero"/></clipPath><clipPath id="bb8dd9d2cc"><path d="M 118 310 L 329 310 L 329 375.144531 L 118 375.144531 Z M 118 310 " clip-rule="nonzero"/></clipPath><clipPath id="71521b192e"><path d="M 309 157 L 383.863281 157 L 383.863281 232 L 309 232 Z M 309 157 " clip-rule="nonzero"/></clipPath><clipPath id="31ad739044"><path d="M 306 154 L 383.863281 154 L 383.863281 235 L 306 235 Z M 306 154 " clip-rule="nonzero"/></clipPath><clipPath id="406cf63d07"><path d="M 75.402344 244 L 150 244 L 150 318 L 75.402344 318 Z M 75.402344 244 " clip-rule="nonzero"/></clipPath></defs><path fill="#a3e635" d="M 182.578125 17.65625 C 162.519531 21.96875 141.769531 32.101562 120.378906 47.867188 L 120.378906 47.871094 C 120.289062 47.933594 120.207031 47.988281 120.113281 48.046875 C 120.039062 48.089844 119.984375 48.15625 119.957031 48.230469 L 119.933594 48.234375 C 77.75 95.675781 20.113281 185.175781 18.253906 255.863281 C 16.347656 328.421875 36.496094 380.21875 76.265625 409.644531 C 93.773438 422.597656 113.785156 426.847656 134.757812 424.679688 C 139.992188 424.140625 145.214844 423.527344 150.3125 422.429688 C 154.109375 421.613281 157.847656 420.527344 161.476562 419.003906 C 203.796875 401.269531 234.9375 389.625 255.269531 385.253906 C 257.535156 384.765625 259.664062 384.371094 261.660156 384.066406 C 272.566406 382.398438 287.316406 380.28125 305.542969 382.554688 C 375.460938 391.28125 413.710938 394.625 422.367188 393.691406 C 428.699219 393.011719 434.839844 392.078125 440.761719 390.804688 C 458.398438 387.011719 474.136719 380.183594 487.441406 367.886719 C 514.765625 342.632812 529.152344 310.589844 530.4375 272.980469 C 531.746094 234.726562 518.933594 204.804688 493.648438 182.972656 C 484.910156 175.425781 476.207031 168.898438 466.304688 166.191406 C 399.863281 148.023438 359.414062 135.363281 347.625 124.816406 L 347.601562 124.820312 C 347.570312 124.738281 347.507812 124.667969 347.421875 124.628906 C 328.261719 115.003906 298.089844 83.625 254.375 33.96875 C 247.351562 25.996094 238.644531 21.183594 230.261719 18.824219 L 230.257812 18.824219 C 230.246094 18.820312 230.234375 18.816406 230.222656 18.8125 C 214.824219 14.492188 198.933594 14.136719 182.578125 17.65625 Z M 182.578125 17.65625 " fill-opacity="0.996" fill-rule="nonzero"/><path fill="#000000" d="M 158.914062 22.183594 C 202.296875 2.636719 240.929688 0.0703125 273.421875 17.210938 C 281.714844 21.585938 289.820312 28.632812 295.425781 38.648438 C 327.066406 95.207031 348.660156 129.761719 363.71875 141.660156 C 363.964844 141.851562 364.175781 142.082031 364.347656 142.339844 C 371.585938 153.089844 405.402344 172.597656 466.277344 204.191406 C 476.285156 209.386719 483.820312 218.230469 490.578125 227.183594 C 511.140625 254.414062 517.371094 287.035156 508 324.363281 C 498.796875 361.015625 477.808594 389.605469 445.566406 408.683594 C 423.988281 421.449219 400.371094 423.199219 375.460938 420.585938 C 366.261719 419.617188 330 408.359375 266.195312 386.082031 C 250.230469 380.503906 236.53125 379.539062 225.992188 378.902344 C 207.398438 377.78125 174.292969 382.371094 125.730469 391.460938 C 116.074219 393.269531 106.515625 392.421875 97.710938 391.457031 C 76.300781 389.117188 56.90625 380.503906 41.949219 363.519531 C 8.710938 325.773438 0.398438 270.628906 17.164062 201.558594 C 33.847656 132.820312 108.542969 58.609375 158.210938 22.441406 C 159.550781 21.46875 161.425781 21.761719 162.402344 23.101562 C 163.375 24.441406 163.082031 26.316406 161.742188 27.289062 C 112.300781 63.289062 39.144531 136.417969 22.988281 202.976562 C 6.480469 271 14.996094 323.835938 46.449219 359.554688 C 60.273438 375.253906 78.207031 383.292969 98.363281 385.496094 C 107.171875 386.460938 115.933594 387.195312 124.628906 385.566406 C 173.015625 376.507812 206.882812 371.742188 226.351562 372.917969 C 236.988281 373.558594 251.382812 374.554688 268.175781 380.417969 C 332.414062 402.851562 367.777344 413.75 376.085938 414.621094 C 400.367188 417.167969 422.496094 415.363281 442.511719 403.519531 C 473.339844 385.28125 493.359375 358.042969 502.183594 322.902344 C 511.160156 287.160156 505.15625 256.4375 485.792969 230.796875 C 479.078125 221.90625 472.234375 214.039062 463.515625 209.515625 C 403.621094 178.433594 367.714844 158.074219 359.375 145.6875 L 360.003906 146.367188 C 343.773438 133.546875 321.550781 97.628906 290.191406 41.574219 C 285.214844 32.679688 278.011719 26.410156 270.621094 22.515625 C 240.34375 6.542969 203.777344 8.546875 161.378906 27.652344 C 159.867188 28.332031 158.09375 27.660156 157.410156 26.152344 C 156.730469 24.640625 157.402344 22.867188 158.914062 22.183594 Z M 158.914062 22.183594 " fill-opacity="0.996" fill-rule="nonzero"/><g clip-path="url(#004b4a8bf8)"><path fill="#bf6015" d="M 273.535156 227.730469 C 273.15625 227.730469 272.589844 227.730469 272.019531 227.539062 L 244.175781 220.152344 C 242.660156 219.773438 241.523438 218.824219 240.765625 217.5 C 240.007812 216.175781 239.820312 214.660156 240.199219 213.144531 C 248.722656 181.132812 248.53125 145.332031 248.53125 119.378906 C 248.34375 103.089844 248.34375 91.347656 250.238281 84.148438 C 255.351562 65.207031 272.777344 51.757812 292.476562 51.757812 C 296.265625 51.757812 300.054688 52.324219 303.84375 53.273438 C 315.207031 56.304688 324.488281 63.5 330.363281 73.730469 C 336.234375 83.769531 337.75 95.511719 334.71875 106.878906 C 332.824219 113.886719 326.953125 124.117188 318.808594 138.132812 C 305.546875 160.671875 287.554688 191.550781 279.027344 223.5625 C 278.269531 226.214844 276 227.730469 273.535156 227.730469 Z M 273.535156 227.730469 " fill-opacity="1" fill-rule="evenodd"/></g><path fill="#fe9923" d="M 333.203125 315.242188 C 332.636719 315.242188 332.257812 315.050781 331.6875 315.050781 L 148.898438 265.992188 C 145.867188 265.234375 143.972656 262.015625 144.917969 258.984375 L 150.601562 237.390625 C 154.011719 225.078125 165.1875 216.554688 177.878906 216.554688 C 180.339844 216.554688 182.804688 216.742188 185.078125 217.5 L 202.503906 222.046875 L 204.207031 215.984375 C 206.292969 208.21875 213.300781 202.914062 221.253906 202.914062 C 222.769531 202.914062 224.285156 203.105469 225.800781 203.484375 L 296.265625 222.425781 C 305.738281 224.886719 311.417969 234.546875 308.769531 244.019531 L 307.253906 250.082031 L 324.679688 254.816406 C 339.644531 258.792969 348.546875 274.324219 344.570312 289.289062 L 338.695312 311.074219 C 337.9375 313.535156 335.664062 315.242188 333.203125 315.242188 Z M 333.203125 315.242188 " fill-opacity="1" fill-rule="evenodd"/><path fill="#e61e14" d="M 309.527344 238.90625 C 309.527344 240.609375 309.335938 242.3125 308.769531 244.019531 L 307.253906 250.082031 L 253.078125 241.175781 L 218.605469 259.929688 C 217.847656 260.308594 216.898438 260.5 215.953125 260.5 C 213.867188 260.5 211.972656 259.550781 211.027344 257.65625 C 209.511719 254.816406 210.457031 251.40625 213.300781 249.890625 L 249.667969 230.191406 C 250.996094 229.433594 252.511719 229.242188 253.835938 229.621094 Z M 309.527344 238.90625 " fill-opacity="1" fill-rule="evenodd"/><path fill="#e61e14" d="M 318.808594 311.640625 L 292.097656 304.445312 L 245.121094 268.453125 L 149.464844 241.746094 L 150.601562 237.390625 C 151.167969 235.117188 152.117188 233.03125 153.253906 230.949219 L 249.101562 257.847656 C 249.667969 258.035156 250.425781 258.414062 250.996094 258.792969 L 317.101562 309.179688 C 317.859375 309.746094 318.429688 310.695312 318.808594 311.640625 Z M 318.808594 311.640625 " fill-opacity="1" fill-rule="evenodd"/><path fill="#e61e14" d="M 292.476562 116.347656 C 290.773438 116.347656 288.878906 115.96875 287.175781 115.589844 C 281.871094 114.078125 277.324219 110.667969 274.671875 105.929688 C 271.832031 101.195312 271.074219 95.511719 272.589844 90.210938 C 274.863281 81.117188 283.195312 74.867188 292.476562 74.867188 C 294.371094 74.867188 296.078125 75.054688 297.78125 75.625 C 303.273438 76.949219 307.632812 80.359375 310.472656 85.285156 C 313.125 90.019531 313.882812 95.511719 312.554688 101.007812 C 310.09375 109.910156 301.949219 116.347656 292.476562 116.347656 Z M 292.476562 116.347656 " fill-opacity="1" fill-rule="evenodd"/><g clip-path="url(#bb8dd9d2cc)"><path fill="#000000" d="M 282.628906 375.097656 C 264.066406 375.097656 242.09375 373.015625 218.984375 369.035156 C 192.085938 364.679688 167.269531 358.238281 148.898438 351.042969 C 126.925781 342.519531 117.261719 334.371094 118.777344 325.46875 C 119.347656 321.871094 121.242188 310.882812 164.050781 310.882812 C 182.613281 310.882812 204.585938 312.777344 227.695312 316.757812 C 254.59375 321.300781 279.40625 327.742188 297.78125 334.75 C 319.753906 343.464844 329.414062 351.609375 327.898438 360.511719 C 327.140625 364.113281 325.4375 375.097656 282.628906 375.097656 Z M 282.628906 375.097656 " fill-opacity="1" fill-rule="evenodd"/></g><path fill="#000000" d="M 142.835938 162.1875 C 140.371094 162.1875 138.289062 160.671875 137.53125 158.402344 L 129.953125 138.132812 L 109.6875 130.554688 C 107.414062 129.796875 105.898438 127.714844 105.898438 125.253906 C 105.898438 122.980469 107.414062 120.707031 109.6875 119.949219 L 129.953125 112.371094 L 137.53125 92.105469 C 138.289062 89.832031 140.371094 88.316406 142.835938 88.316406 C 145.296875 88.316406 147.382812 89.832031 148.140625 92.105469 L 155.714844 112.371094 L 175.984375 119.949219 C 178.257812 120.707031 179.773438 122.980469 179.773438 125.253906 C 179.773438 127.714844 178.257812 129.796875 175.984375 130.554688 L 155.714844 138.132812 L 148.140625 158.402344 C 147.382812 160.671875 145.296875 162.1875 142.835938 162.1875 Z M 142.835938 162.1875 " fill-opacity="1" fill-rule="evenodd"/><g clip-path="url(#71521b192e)"><path fill="#000000" d="M 346.652344 231.136719 C 344.191406 231.136719 342.105469 229.621094 341.347656 227.539062 L 333.769531 207.082031 L 313.3125 199.695312 C 311.230469 198.746094 309.714844 196.664062 309.714844 194.203125 C 309.714844 191.929688 311.230469 189.84375 313.3125 188.898438 L 333.769531 181.511719 L 341.347656 161.050781 C 342.105469 158.78125 344.191406 157.265625 346.652344 157.265625 C 348.925781 157.265625 351.007812 158.78125 351.957031 161.050781 L 359.53125 181.511719 L 379.800781 188.898438 C 382.074219 189.84375 383.589844 191.929688 383.589844 194.203125 C 383.589844 196.664062 382.074219 198.746094 379.800781 199.695312 L 359.53125 207.082031 L 351.957031 227.539062 C 351.007812 229.621094 348.925781 231.136719 346.652344 231.136719 Z M 346.652344 231.136719 " fill-opacity="1" fill-rule="evenodd"/></g><g clip-path="url(#31ad739044)"><path stroke-linecap="butt" transform="matrix(0.189421, 0, 0, 0.189421, 67.82483, 51.756923)" fill="none" stroke-linejoin="miter" d="M 1472.001856 946.991885 C 1459.009937 946.991885 1447.997738 938.990512 1443.997052 927.998936 L 1403.990189 820.001028 L 1295.992282 781.004648 C 1285.000706 775.993479 1276.999333 765.001903 1276.999333 752.009984 C 1276.999333 740.007925 1285.000706 728.995727 1295.992282 724.00518 L 1403.990189 685.0088 L 1443.997052 576.99027 C 1447.997738 565.008833 1459.009937 557.007461 1472.001856 557.007461 C 1484.003915 557.007461 1494.995491 565.008833 1500.00666 576.99027 L 1539.992901 685.0088 L 1647.000948 724.00518 C 1659.003006 728.995727 1667.004379 740.007925 1667.004379 752.009984 C 1667.004379 765.001903 1659.003006 775.993479 1647.000948 781.004648 L 1539.992901 820.001028 L 1500.00666 927.998936 C 1494.995491 938.990512 1484.003915 946.991885 1472.001856 946.991885 Z M 1472.001856 946.991885 " stroke="#713708" stroke-width="3" stroke-opacity="1" stroke-miterlimit="4"/></g><g clip-path="url(#406cf63d07)"><path fill="#000000" d="M 112.339844 317.894531 C 109.875 317.894531 107.792969 316.378906 107.035156 314.105469 L 99.457031 293.835938 L 79.191406 286.257812 C 76.917969 285.503906 75.402344 283.230469 75.402344 280.957031 C 75.402344 278.492188 76.917969 276.410156 79.191406 275.652344 L 99.457031 268.074219 L 107.035156 247.617188 C 107.792969 245.535156 109.875 244.019531 112.339844 244.019531 C 114.800781 244.019531 116.886719 245.535156 117.640625 247.617188 L 125.21875 268.074219 L 145.488281 275.652344 C 147.761719 276.410156 149.277344 278.492188 149.277344 280.957031 C 149.277344 283.230469 147.761719 285.503906 145.488281 286.257812 L 125.21875 293.835938 L 117.640625 314.105469 C 116.886719 316.378906 114.800781 317.894531 112.339844 317.894531 Z M 112.339844 317.894531 " fill-opacity="1" fill-rule="evenodd"/></g></svg>