<svg xmlns="http://www.w3.org/2000/svg" xmlns:xlink="http://www.w3.org/1999/xlink" width="711" zoomAndPan="magnify" viewBox="0 0 533.25 428.99999" height="572" preserveAspectRatio="xMidYMid meet" version="1.0"><defs><clipPath id="7bbc52e94a"><path d="M 348 49.507812 L 368 49.507812 L 368 68 L 348 68 Z M 348 49.507812 " clip-rule="nonzero"/></clipPath><clipPath id="244dfd0f10"><path d="M 385 49.507812 L 404 49.507812 L 404 68 L 385 68 Z M 385 49.507812 " clip-rule="nonzero"/></clipPath><clipPath id="f5f334b2be"><path d="M 136 122 L 408.519531 122 L 408.519531 334.105469 L 136 334.105469 Z M 136 122 " clip-rule="nonzero"/></clipPath><clipPath id="9d7aedd7a5"><path d="M 123.917969 149 L 322 149 L 322 289 L 123.917969 289 Z M 123.917969 149 " clip-rule="nonzero"/></clipPath></defs><path fill="#a3e635" d="M 326.132812 4.097656 C 319.589844 1.167969 311.355469 0.289062 300.753906 1.929688 L 300.753906 1.933594 C 300.609375 1.953125 300.464844 1.964844 300.324219 1.964844 C 300.25 1.964844 300.179688 1.996094 300.128906 2.042969 L 300.105469 2.035156 C 300.019531 2.058594 299.933594 2.082031 299.847656 2.097656 L 299.84375 2.097656 C 272.746094 7.410156 243.882812 13.976562 227.484375 28.34375 C 222.242188 32.9375 217.210938 37.976562 213.261719 44.15625 C 182.8125 91.800781 163.011719 120.589844 153.078125 129 C 153.027344 129.042969 152.992188 129.105469 152.980469 129.175781 L 152.964844 129.167969 C 146.003906 138.605469 113.667969 165.425781 58.253906 210.757812 C 47.046875 219.925781 39.472656 228.570312 33.808594 235.042969 C 33.097656 235.851562 32.726562 236.273438 32.058594 237.035156 C 4.867188 267.871094 0.0820312 298.558594 17.195312 330.679688 C 25.425781 346.125 38.082031 357.855469 55.382812 365.601562 C 74.988281 374.378906 100.546875 378.039062 132.390625 376.230469 C 154.910156 374.949219 175.15625 372.578125 192.664062 367.640625 C 244.289062 353.089844 316.03125 336.078125 408.171875 317.152344 C 425.925781 313.507812 440.410156 308.152344 452.121094 303.066406 C 510.582031 277.6875 531.976562 245.082031 517.417969 206.238281 C 514.289062 197.890625 507.554688 190.113281 497.820312 185.210938 C 446.65625 159.449219 415.972656 143.738281 410.085938 134.953125 L 410.070312 134.945312 C 410.058594 134.882812 410.027344 134.828125 409.980469 134.785156 C 402.566406 128.054688 394.359375 119.558594 388.589844 107.679688 C 363.144531 55.253906 346.4375 24.222656 337.820312 13.359375 C 334.636719 9.351562 330.828125 6.199219 326.132812 4.097656 Z M 326.132812 4.097656 " fill-opacity="1" fill-rule="nonzero"/><path fill="#000000" d="M 210.660156 25.289062 C 189.109375 38.65625 166.535156 53.625 157.164062 71.203125 C 154.15625 76.835938 151.488281 82.773438 150.113281 89.324219 C 139.355469 140.515625 131.65625 171.800781 125.816406 182.019531 L 126.09375 181.320312 C 123.730469 191.039062 104.554688 224.78125 71.109375 282.710938 C 64.476562 294.199219 60.789062 304.058594 58.023438 311.449219 C 57.746094 312.195312 57.429688 313.039062 57.171875 313.726562 C 43.871094 348.933594 49.714844 376.707031 74.738281 398.644531 C 100.402344 421.140625 137.816406 422.667969 188.117188 400.308594 C 207.023438 391.902344 223.613281 383.304688 237.019531 373.402344 C 276.613281 344.152344 332.671875 306.265625 405.621094 260.109375 C 419.65625 251.230469 430.339844 241.945312 438.730469 233.789062 C 480.644531 193.058594 488.296875 158.292969 463.335938 129.84375 C 457.988281 123.746094 449.742188 119.285156 439.859375 118.246094 C 386.472656 112.621094 354.683594 109.058594 347.613281 103.144531 L 348.355469 103.582031 C 339.71875 100.199219 329.738281 95.542969 320.785156 87.074219 C 281.921875 50.328125 257.53125 29.140625 246.640625 22.632812 C 237.066406 16.914062 226.046875 16.550781 211.378906 24.855469 C 210.089844 25.585938 208.449219 25.132812 207.71875 23.84375 C 206.988281 22.554688 207.445312 20.917969 208.734375 20.1875 C 224.6875 11.152344 237.808594 11.105469 249.394531 18.027344 C 260.910156 24.90625 285.785156 46.59375 324.472656 83.175781 C 332.6875 90.941406 341.917969 95.292969 350.3125 98.585938 C 350.582031 98.691406 350.835938 98.839844 351.054688 99.027344 C 356.472656 103.554688 385.460938 107.117188 440.421875 112.90625 C 451.574219 114.082031 461.085938 119.136719 467.371094 126.304688 C 495.324219 158.167969 484.960938 196.347656 442.46875 237.640625 C 433.898438 245.972656 422.925781 255.511719 408.492188 264.644531 C 335.601562 310.765625 279.65625 348.574219 240.207031 377.71875 C 226.339844 387.964844 209.332031 396.753906 190.296875 405.214844 C 139.195312 427.933594 99.179688 427.210938 71.199219 402.679688 C 44.234375 379.042969 38.1875 348.792969 52.148438 311.832031 C 52.414062 311.132812 52.710938 310.335938 52.996094 309.570312 C 55.773438 302.144531 59.589844 291.929688 66.460938 280.027344 C 100.269531 221.464844 118.753906 188.78125 120.878906 180.050781 C 120.9375 179.808594 121.03125 179.574219 121.15625 179.355469 C 126.460938 170.074219 133.996094 139.925781 144.859375 88.21875 C 146.386719 80.953125 149.316406 74.503906 152.425781 68.675781 C 162.609375 49.578125 186.609375 33.890625 207.832031 20.726562 C 209.09375 19.945312 210.746094 20.335938 211.527344 21.59375 C 212.308594 22.851562 211.921875 24.507812 210.660156 25.289062 Z M 210.660156 25.289062 " fill-opacity="1" fill-rule="nonzero"/><path fill="#ecbd83" d="M 353.433594 63.277344 L 362.617188 63.277344 L 362.617188 136.722656 L 353.433594 136.722656 Z M 353.433594 63.277344 " fill-opacity="1" fill-rule="nonzero"/><path fill="#ecbd83" d="M 390.15625 63.277344 L 399.339844 63.277344 L 399.339844 136.722656 L 390.15625 136.722656 Z M 390.15625 63.277344 " fill-opacity="1" fill-rule="nonzero"/><g clip-path="url(#7bbc52e94a)"><path fill="#f6d190" d="M 367.207031 58.6875 C 367.207031 59.289062 367.148438 59.886719 367.027344 60.480469 C 366.910156 61.070312 366.738281 61.644531 366.507812 62.203125 C 366.277344 62.757812 365.992188 63.289062 365.660156 63.789062 C 365.324219 64.289062 364.941406 64.753906 364.515625 65.179688 C 364.089844 65.605469 363.625 65.988281 363.125 66.320312 C 362.625 66.65625 362.09375 66.9375 361.539062 67.167969 C 360.980469 67.402344 360.40625 67.574219 359.816406 67.691406 C 359.226562 67.808594 358.628906 67.867188 358.023438 67.867188 C 357.421875 67.867188 356.824219 67.808594 356.234375 67.691406 C 355.644531 67.574219 355.070312 67.402344 354.511719 67.167969 C 353.953125 66.9375 353.425781 66.65625 352.925781 66.320312 C 352.421875 65.988281 351.960938 65.605469 351.535156 65.179688 C 351.105469 64.753906 350.726562 64.289062 350.390625 63.789062 C 350.058594 63.289062 349.773438 62.757812 349.542969 62.203125 C 349.3125 61.644531 349.136719 61.070312 349.019531 60.480469 C 348.902344 59.886719 348.84375 59.289062 348.84375 58.6875 C 348.84375 58.085938 348.902344 57.488281 349.019531 56.898438 C 349.136719 56.304688 349.3125 55.730469 349.542969 55.175781 C 349.773438 54.617188 350.058594 54.089844 350.390625 53.585938 C 350.726562 53.085938 351.105469 52.621094 351.535156 52.195312 C 351.960938 51.769531 352.421875 51.390625 352.925781 51.054688 C 353.425781 50.71875 353.953125 50.4375 354.511719 50.207031 C 355.070312 49.976562 355.644531 49.800781 356.234375 49.683594 C 356.824219 49.566406 357.421875 49.507812 358.023438 49.507812 C 358.628906 49.507812 359.226562 49.566406 359.816406 49.683594 C 360.40625 49.800781 360.980469 49.976562 361.539062 50.207031 C 362.09375 50.4375 362.625 50.71875 363.125 51.054688 C 363.625 51.390625 364.089844 51.769531 364.515625 52.195312 C 364.941406 52.621094 365.324219 53.085938 365.660156 53.585938 C 365.992188 54.089844 366.277344 54.617188 366.507812 55.175781 C 366.738281 55.730469 366.910156 56.304688 367.027344 56.898438 C 367.148438 57.488281 367.207031 58.085938 367.207031 58.6875 Z M 367.207031 58.6875 " fill-opacity="1" fill-rule="nonzero"/></g><g clip-path="url(#244dfd0f10)"><path fill="#f6d190" d="M 403.929688 58.6875 C 403.929688 59.289062 403.871094 59.886719 403.753906 60.480469 C 403.632812 61.070312 403.460938 61.644531 403.230469 62.203125 C 403 62.757812 402.714844 63.289062 402.382812 63.789062 C 402.046875 64.289062 401.664062 64.753906 401.238281 65.179688 C 400.8125 65.605469 400.347656 65.988281 399.847656 66.320312 C 399.347656 66.65625 398.816406 66.9375 398.261719 67.167969 C 397.703125 67.402344 397.128906 67.574219 396.539062 67.691406 C 395.949219 67.808594 395.351562 67.867188 394.746094 67.867188 C 394.144531 67.867188 393.546875 67.808594 392.957031 67.691406 C 392.367188 67.574219 391.792969 67.402344 391.234375 67.167969 C 390.679688 66.9375 390.148438 66.65625 389.648438 66.320312 C 389.144531 65.988281 388.683594 65.605469 388.257812 65.179688 C 387.828125 64.753906 387.449219 64.289062 387.113281 63.789062 C 386.78125 63.289062 386.496094 62.757812 386.265625 62.203125 C 386.035156 61.644531 385.863281 61.070312 385.742188 60.480469 C 385.625 59.886719 385.566406 59.289062 385.566406 58.6875 C 385.566406 58.085938 385.625 57.488281 385.742188 56.898438 C 385.863281 56.304688 386.035156 55.730469 386.265625 55.175781 C 386.496094 54.617188 386.78125 54.089844 387.113281 53.585938 C 387.449219 53.085938 387.828125 52.621094 388.257812 52.195312 C 388.683594 51.769531 389.144531 51.390625 389.648438 51.054688 C 390.148438 50.71875 390.679688 50.4375 391.234375 50.207031 C 391.792969 49.976562 392.367188 49.800781 392.957031 49.683594 C 393.546875 49.566406 394.144531 49.507812 394.746094 49.507812 C 395.351562 49.507812 395.949219 49.566406 396.539062 49.683594 C 397.128906 49.800781 397.703125 49.976562 398.261719 50.207031 C 398.816406 50.4375 399.347656 50.71875 399.847656 51.054688 C 400.347656 51.390625 400.8125 51.769531 401.238281 52.195312 C 401.664062 52.621094 402.046875 53.085938 402.382812 53.585938 C 402.714844 54.089844 403 54.617188 403.230469 55.175781 C 403.460938 55.730469 403.632812 56.304688 403.753906 56.898438 C 403.871094 57.488281 403.929688 58.085938 403.929688 58.6875 Z M 403.929688 58.6875 " fill-opacity="1" fill-rule="nonzero"/></g><g clip-path="url(#f5f334b2be)"><path fill="#f6d190" d="M 382.40625 122.972656 C 366.808594 122.5 352.890625 129.8125 344.25 141.3125 L 338.109375 170.871094 L 338.296875 234.238281 L 160.640625 297.382812 L 139.589844 318.433594 C 133.808594 324.21875 137.902344 334.105469 146.082031 334.105469 L 321.300781 334.105469 C 359.328125 334.105469 390.15625 303.28125 390.15625 265.253906 L 390.15625 199.738281 C 390.15625 188.78125 394.507812 178.273438 402.257812 170.527344 L 405.828125 166.953125 C 407.550781 165.234375 408.519531 162.898438 408.519531 160.460938 L 408.519531 150.492188 C 408.519531 135.839844 397.054688 123.417969 382.40625 122.972656 Z M 382.40625 122.972656 " fill-opacity="1" fill-rule="nonzero"/></g><path fill="#ecbd83" d="M 312.121094 297.382812 C 329.867188 297.382812 344.253906 283 344.253906 265.253906 L 344.253906 141.316406 C 338.515625 148.980469 335.074219 158.542969 335.074219 168.855469 L 335.074219 228.53125 L 169.824219 288.203125 L 160.640625 297.382812 Z M 312.121094 297.382812 " fill-opacity="1" fill-rule="nonzero"/><path fill="#e2a975" d="M 334.703125 219.578125 C 330.441406 167.917969 288.070312 126.429688 236.335938 123.167969 C 206.804688 121.308594 179.675781 131.59375 159.46875 149.515625 C 137.664062 168.859375 127.4375 197.089844 127.4375 228.53125 C 127.4375 245.546875 131.472656 261.621094 138.628906 275.855469 C 142.476562 283.503906 146.929688 284.636719 155.488281 284.636719 L 303.488281 284.636719 L 321.917969 279.023438 C 322.683594 277.992188 323.367188 276.886719 323.953125 275.714844 C 332.304688 259.039062 336.375 239.851562 334.703125 219.578125 Z M 334.703125 219.578125 " fill-opacity="1" fill-rule="nonzero"/><path fill="#e5646e" d="M 306.035156 259.488281 C 311.636719 245.742188 313.710938 230.191406 310.824219 213.855469 C 304.460938 177.890625 274.265625 149.921875 237.921875 146.324219 C 188.507812 141.429688 146.871094 180.117188 146.871094 228.53125 C 146.871094 239.492188 149.058594 249.921875 152.953125 259.484375 C 154.371094 262.964844 157.75 265.253906 161.507812 265.253906 L 297.484375 265.253906 C 301.238281 265.253906 304.617188 262.96875 306.035156 259.488281 Z M 306.035156 259.488281 " fill-opacity="1" fill-rule="nonzero"/><path fill="#ff8086" d="M 301.78125 215.453125 C 296.101562 183.339844 269.46875 158.671875 237.019531 155.457031 C 234.515625 155.210938 231.984375 155.085938 229.496094 155.085938 C 189 155.085938 156.050781 188.03125 156.050781 228.53125 C 156.050781 235.65625 157.089844 242.679688 159.144531 249.484375 C 160.316406 253.363281 163.917969 256.019531 167.972656 256.019531 L 290.988281 256.070312 C 295.027344 256.070312 298.625 253.433594 299.808594 249.574219 C 303.1875 238.539062 303.84375 227.097656 301.78125 215.453125 Z M 301.78125 215.453125 " fill-opacity="1" fill-rule="nonzero"/><path fill="#ffffff" d="M 253.304688 238.621094 C 252.964844 238.621094 252.613281 238.585938 252.269531 238.503906 L 174.214844 220.484375 C 171.746094 219.914062 170.203125 217.449219 170.773438 214.980469 C 171.347656 212.507812 173.824219 210.957031 176.277344 211.535156 L 254.332031 229.554688 C 256.800781 230.125 258.34375 232.589844 257.773438 235.0625 C 257.28125 237.1875 255.394531 238.621094 253.304688 238.621094 Z M 253.304688 238.621094 " fill-opacity="1" fill-rule="nonzero"/><path fill="#f6d190" d="M 238.675781 228.53125 C 238.675781 229.132812 238.617188 229.730469 238.5 230.320312 C 238.382812 230.914062 238.207031 231.488281 237.976562 232.042969 C 237.746094 232.601562 237.464844 233.128906 237.128906 233.628906 C 236.792969 234.132812 236.414062 234.59375 235.988281 235.023438 C 235.5625 235.449219 235.097656 235.828125 234.597656 236.164062 C 234.09375 236.5 233.566406 236.78125 233.007812 237.011719 C 232.453125 237.242188 231.878906 237.417969 231.289062 237.535156 C 230.695312 237.652344 230.097656 237.710938 229.496094 237.710938 C 228.894531 237.710938 228.296875 237.652344 227.703125 237.535156 C 227.113281 237.417969 226.539062 237.242188 225.984375 237.011719 C 225.425781 236.78125 224.898438 236.5 224.394531 236.164062 C 223.894531 235.828125 223.429688 235.449219 223.003906 235.023438 C 222.578125 234.59375 222.199219 234.132812 221.863281 233.628906 C 221.527344 233.128906 221.246094 232.601562 221.015625 232.042969 C 220.785156 231.488281 220.609375 230.914062 220.492188 230.320312 C 220.375 229.730469 220.316406 229.132812 220.316406 228.53125 C 220.316406 227.925781 220.375 227.332031 220.492188 226.738281 C 220.609375 226.148438 220.785156 225.574219 221.015625 225.015625 C 221.246094 224.460938 221.527344 223.929688 221.863281 223.429688 C 222.199219 222.929688 222.578125 222.464844 223.003906 222.039062 C 223.429688 221.613281 223.894531 221.230469 224.394531 220.898438 C 224.898438 220.5625 225.425781 220.277344 225.984375 220.046875 C 226.539062 219.816406 227.113281 219.644531 227.703125 219.527344 C 228.296875 219.410156 228.894531 219.351562 229.496094 219.351562 C 230.097656 219.351562 230.695312 219.410156 231.289062 219.527344 C 231.878906 219.644531 232.453125 219.816406 233.007812 220.046875 C 233.566406 220.277344 234.09375 220.5625 234.597656 220.898438 C 235.097656 221.230469 235.5625 221.613281 235.988281 222.039062 C 236.414062 222.464844 236.792969 222.929688 237.128906 223.429688 C 237.464844 223.929688 237.746094 224.460938 237.976562 225.015625 C 238.207031 225.574219 238.382812 226.148438 238.5 226.738281 C 238.617188 227.332031 238.675781 227.925781 238.675781 228.53125 Z M 238.675781 228.53125 " fill-opacity="1" fill-rule="nonzero"/><path fill="#5d5360" d="M 160.640625 233.121094 L 156.050781 233.121094 C 153.515625 233.121094 151.460938 231.066406 151.460938 228.53125 C 151.460938 225.992188 153.515625 223.941406 156.050781 223.941406 L 160.640625 223.941406 C 163.179688 223.941406 165.230469 225.992188 165.230469 228.53125 C 165.230469 231.066406 163.179688 233.121094 160.640625 233.121094 Z M 160.640625 233.121094 " fill-opacity="1" fill-rule="nonzero"/><path fill="#5d5360" d="M 302.941406 233.121094 L 298.351562 233.121094 C 295.8125 233.121094 293.761719 231.066406 293.761719 228.53125 C 293.761719 225.992188 295.816406 223.941406 298.351562 223.941406 L 302.941406 223.941406 C 305.480469 223.941406 307.53125 225.992188 307.53125 228.53125 C 307.53125 231.066406 305.480469 233.121094 302.941406 233.121094 Z M 302.941406 233.121094 " fill-opacity="1" fill-rule="nonzero"/><path fill="#5d5360" d="M 229.496094 164.265625 C 226.957031 164.265625 224.90625 162.210938 224.90625 159.675781 L 224.90625 155.085938 C 224.90625 152.546875 226.960938 150.496094 229.496094 150.496094 C 232.03125 150.496094 234.085938 152.546875 234.085938 155.085938 L 234.085938 159.675781 C 234.085938 162.210938 232.035156 164.265625 229.496094 164.265625 Z M 229.496094 164.265625 " fill-opacity="1" fill-rule="nonzero"/><path fill="#5d5360" d="M 180.808594 184.433594 C 179.636719 184.433594 178.460938 183.984375 177.5625 183.089844 L 174.316406 179.84375 C 172.523438 178.050781 172.523438 175.144531 174.316406 173.351562 C 176.113281 171.558594 179.015625 171.558594 180.808594 173.351562 L 184.054688 176.597656 C 185.847656 178.390625 185.847656 181.296875 184.054688 183.089844 C 183.160156 183.984375 181.984375 184.433594 180.808594 184.433594 Z M 180.808594 184.433594 " fill-opacity="1" fill-rule="nonzero"/><path fill="#5d5360" d="M 278.183594 184.433594 C 277.007812 184.433594 275.835938 183.984375 274.9375 183.089844 C 273.144531 181.296875 273.144531 178.390625 274.9375 176.597656 L 278.183594 173.351562 C 279.976562 171.558594 282.882812 171.558594 284.675781 173.351562 C 286.46875 175.144531 286.46875 178.050781 284.675781 179.84375 L 281.429688 183.089844 C 280.53125 183.984375 279.359375 184.433594 278.183594 184.433594 Z M 278.183594 184.433594 " fill-opacity="1" fill-rule="nonzero"/><path fill="#5d5360" d="M 293.109375 206.769531 C 291.3125 206.769531 289.601562 205.703125 288.871094 203.9375 C 287.902344 201.597656 289.011719 198.90625 291.355469 197.941406 L 295.59375 196.183594 C 297.925781 195.222656 300.625 196.324219 301.59375 198.667969 C 302.558594 201.007812 301.449219 203.695312 299.109375 204.664062 L 294.867188 206.421875 C 294.292969 206.660156 293.699219 206.769531 293.109375 206.769531 Z M 293.109375 206.769531 " fill-opacity="1" fill-rule="nonzero"/><path fill="#5d5360" d="M 203.148438 169.503906 C 201.347656 169.503906 199.636719 168.4375 198.90625 166.671875 L 197.148438 162.433594 C 196.179688 160.089844 197.292969 157.402344 199.632812 156.433594 C 201.96875 155.476562 204.65625 156.574219 205.628906 158.917969 L 207.386719 163.160156 C 208.355469 165.5 207.242188 168.1875 204.902344 169.15625 C 204.332031 169.394531 203.734375 169.503906 203.148438 169.503906 Z M 203.148438 169.503906 " fill-opacity="1" fill-rule="nonzero"/><path fill="#5d5360" d="M 165.882812 206.769531 C 165.296875 206.769531 164.699219 206.660156 164.125 206.421875 L 159.882812 204.664062 C 157.542969 203.695312 156.433594 201.003906 157.402344 198.667969 C 158.367188 196.328125 161.066406 195.21875 163.398438 196.183594 L 167.640625 197.941406 C 169.980469 198.90625 171.089844 201.597656 170.121094 203.9375 C 169.390625 205.703125 167.679688 206.769531 165.882812 206.769531 Z M 165.882812 206.769531 " fill-opacity="1" fill-rule="nonzero"/><path fill="#5d5360" d="M 255.847656 169.503906 C 255.257812 169.503906 254.664062 169.394531 254.089844 169.15625 C 251.75 168.1875 250.636719 165.5 251.605469 163.160156 L 253.363281 158.917969 C 254.332031 156.574219 257.023438 155.46875 259.359375 156.433594 C 261.699219 157.402344 262.8125 160.09375 261.84375 162.433594 L 260.085938 166.671875 C 259.355469 168.4375 257.644531 169.503906 255.847656 169.503906 Z M 255.847656 169.503906 " fill-opacity="1" fill-rule="nonzero"/><g clip-path="url(#9d7aedd7a5)"><path fill="#d19a6e" d="M 164.671875 279.023438 C 156.109375 279.023438 148.136719 274.324219 144.289062 266.671875 C 137.132812 252.4375 133.101562 236.367188 133.101562 219.347656 C 133.101562 192.574219 143.046875 168.128906 159.46875 149.515625 C 137.65625 168.859375 123.917969 197.082031 123.917969 228.53125 C 123.917969 245.546875 127.953125 261.621094 135.109375 275.855469 C 138.953125 283.503906 146.929688 288.203125 155.488281 288.203125 L 303.488281 288.203125 C 310.785156 288.203125 317.644531 284.75 321.917969 279.023438 Z M 164.671875 279.023438 " fill-opacity="1" fill-rule="nonzero"/></g></svg>