<svg xmlns="http://www.w3.org/2000/svg" xmlns:xlink="http://www.w3.org/1999/xlink" width="674" zoomAndPan="magnify" viewBox="0 0 505.5 473.999983" height="632" preserveAspectRatio="xMidYMid meet" version="1.0"><defs><clipPath id="964337a2c9"><path d="M 0 0.234375 L 505 0.234375 L 505 473.765625 L 0 473.765625 Z M 0 0.234375 " clip-rule="nonzero"/></clipPath><clipPath id="e49a92bb9a"><path d="M 93.996094 75 L 410.183594 75 L 410.183594 398.507812 L 93.996094 398.507812 Z M 93.996094 75 " clip-rule="nonzero"/></clipPath></defs><g clip-path="url(#964337a2c9)"><path fill="#ffffff" d="M 0 0.234375 L 505 0.234375 L 505 473.765625 L 0 473.765625 Z M 0 0.234375 " fill-opacity="1" fill-rule="nonzero"/></g><path fill="#a3e635" d="M 168.714844 27.136719 C 123.613281 27 88.945312 45.777344 64.710938 83.472656 C 64.6875 83.503906 64.671875 83.542969 64.664062 83.582031 L 64.644531 83.582031 C 60.503906 90.535156 57.59375 99.214844 55.917969 109.617188 C 55.90625 109.683594 55.917969 109.753906 55.945312 109.8125 L 55.925781 109.8125 C 53.871094 165.972656 51.015625 197.355469 47.355469 203.96875 C 47.324219 204.027344 47.308594 204.09375 47.316406 204.15625 L 47.296875 204.15625 C 20.902344 270.886719 7.1875 307.976562 6.15625 315.4375 C 6.144531 315.527344 6.171875 315.621094 6.234375 315.691406 L 6.238281 315.695312 C 6.519531 316.277344 6.605469 316.945312 6.46875 317.601562 C 2.359375 337.304688 3.152344 354.996094 8.851562 370.671875 C 8.863281 370.707031 8.882812 370.742188 8.90625 370.769531 L 8.886719 370.769531 C 22.351562 406.835938 48.167969 425.160156 86.34375 425.742188 L 86.347656 425.742188 C 86.363281 425.742188 86.375 425.738281 86.390625 425.738281 L 86.378906 425.738281 C 96.171875 424.832031 106.480469 422.46875 117.304688 418.648438 L 117.289062 418.648438 L 117.402344 418.617188 C 181.839844 387.792969 222.464844 372.125 239.273438 371.613281 L 239.285156 371.613281 L 239.304688 371.609375 L 239.433594 371.574219 C 242.492188 369.964844 250.253906 369.179688 262.726562 369.21875 C 285.289062 369.289062 323.148438 372.070312 376.308594 377.5625 L 376.367188 377.5625 L 376.390625 377.566406 C 377.027344 377.574219 377.664062 377.582031 378.304688 377.582031 C 388.796875 377.613281 399.300781 376.402344 409.816406 373.941406 L 409.824219 373.9375 L 409.828125 373.941406 L 409.855469 373.925781 L 409.871094 373.929688 C 434.128906 367.683594 452.3125 353.992188 464.425781 332.855469 L 464.425781 332.859375 L 464.472656 332.777344 L 464.472656 332.78125 C 477.246094 311.894531 479.878906 289.113281 472.371094 264.429688 L 472.34375 264.429688 C 472.351562 264.382812 472.34375 264.335938 472.328125 264.292969 C 469.882812 257.152344 466.09375 248.960938 460.960938 239.71875 L 460.9375 239.71875 C 460.933594 239.65625 460.914062 239.597656 460.878906 239.546875 C 435.800781 202.800781 420.230469 177.179688 414.164062 162.6875 L 414.140625 162.6875 C 414.152344 162.609375 414.132812 162.53125 414.085938 162.460938 C 409.332031 155.511719 400.140625 127.640625 386.515625 78.84375 L 386.53125 78.847656 C 386.527344 78.832031 386.527344 78.824219 386.519531 78.8125 C 381.375 65.636719 375.363281 55.003906 368.488281 46.914062 L 368.414062 46.824219 C 361.773438 38.421875 351.886719 33.585938 338.75 32.3125 C 338.210938 32.261719 337.707031 32.066406 337.28125 31.761719 L 337.261719 31.765625 C 337.210938 31.671875 337.121094 31.609375 337.011719 31.597656 C 336.304688 31.515625 335.289062 31.472656 333.972656 31.46875 C 323.863281 31.4375 295.566406 33.695312 249.089844 38.238281 L 248.90625 38.25 L 248.902344 38.25 C 248.144531 38.28125 247.351562 38.292969 246.523438 38.289062 C 236.710938 38.257812 222.097656 36.011719 202.683594 31.539062 C 201.941406 31.371094 201.328125 30.9375 200.914062 30.367188 L 200.894531 30.367188 C 200.878906 30.226562 200.773438 30.109375 200.628906 30.085938 C 189.46875 28.152344 178.828125 27.167969 168.714844 27.136719 Z M 168.714844 27.136719 " fill-opacity="1" fill-rule="nonzero"/><path fill="#000000" d="M 158.179688 43.511719 C 96.15625 48.613281 56.78125 77.277344 40.066406 129.503906 L 40.09375 129.410156 C 37.867188 137.15625 37.292969 146.265625 38.367188 156.738281 L 38.300781 156.335938 C 50.917969 211.390625 56.257812 242.46875 54.332031 249.570312 L 54.425781 249.082031 C 45.871094 323.085938 42.273438 362.558594 43.636719 367.503906 C 43.347656 366.464844 42.550781 365.871094 41.238281 365.71875 C 40.5 365.632812 39.832031 365.792969 39.230469 366.191406 C 40.214844 365.535156 41.476562 365.457031 42.535156 365.988281 C 43.59375 366.519531 44.285156 367.574219 44.351562 368.757812 C 45.46875 388.640625 50.75 405.335938 60.199219 418.847656 L 60.183594 418.828125 C 82.304688 449.949219 111.722656 460.863281 148.4375 451.574219 L 148.109375 451.675781 C 157.375 448.269531 166.761719 443.292969 176.273438 436.742188 L 176 436.953125 C 231.144531 389.757812 266.476562 364.167969 282 360.1875 L 279.996094 361.671875 C 280.148438 361.425781 280.320312 361.183594 280.515625 360.949219 C 286.027344 354.324219 330.519531 344.335938 414.003906 330.980469 L 413.730469 331.035156 C 424.511719 328.367188 434.941406 324.332031 445.019531 318.929688 L 444.960938 318.960938 C 466.554688 306.792969 480.433594 289.0625 486.597656 265.761719 L 486.625 265.671875 C 493.5 242.394531 490.144531 219.902344 476.558594 198.1875 L 476.617188 198.277344 C 472.390625 191.992188 466.5625 185.015625 459.132812 177.359375 L 459.347656 177.5625 C 425.398438 148.367188 403.753906 127.621094 394.410156 115.328125 L 394.953125 115.890625 C 388.742188 110.84375 372.617188 86.296875 346.585938 42.253906 L 346.765625 42.53125 C 338.472656 31.25 330.003906 22.625 321.367188 16.65625 L 321.269531 16.585938 C 312.824219 10.289062 302.183594 8.210938 289.351562 10.347656 C 288.183594 10.542969 287 10.097656 286.253906 9.179688 C 285.503906 8.261719 285.300781 7.015625 285.726562 5.910156 C 284.992188 7.824219 285.578125 9.148438 287.484375 9.878906 C 287.769531 9.988281 288.015625 10.042969 288.21875 10.039062 C 284.066406 10.09375 256.324219 19.757812 204.996094 39.023438 L 204.808594 39.085938 C 195.527344 41.960938 180.15625 43.777344 158.691406 44.535156 C 156.867188 44.601562 155.339844 43.175781 155.273438 41.351562 C 155.210938 39.53125 156.636719 38 158.457031 37.9375 C 179.335938 37.199219 194.132812 35.476562 202.855469 32.777344 L 202.671875 32.839844 C 254.722656 13.300781 283.210938 3.5 288.132812 3.433594 C 288.773438 3.425781 289.347656 3.519531 289.851562 3.710938 C 292.054688 4.558594 292.734375 6.078125 291.894531 8.273438 L 288.265625 3.832031 C 302.949219 1.386719 315.265625 3.871094 325.21875 11.289062 L 325.121094 11.222656 C 334.367188 17.609375 343.355469 26.742188 352.089844 38.617188 C 352.152344 38.707031 352.214844 38.796875 352.269531 38.894531 C 377.902344 82.257812 393.519531 106.214844 399.121094 110.765625 C 399.324219 110.929688 399.507812 111.121094 399.667969 111.328125 C 408.730469 123.253906 430.058594 143.660156 463.65625 172.554688 C 463.730469 172.621094 463.800781 172.6875 463.871094 172.761719 C 471.578125 180.699219 477.652344 187.980469 482.097656 194.59375 L 482.15625 194.683594 C 496.796875 218.078125 500.394531 242.363281 492.957031 267.542969 L 492.984375 267.453125 C 486.34375 292.546875 471.414062 311.636719 448.203125 324.714844 L 448.140625 324.75 C 437.574219 330.414062 426.636719 334.644531 415.320312 337.445312 C 415.226562 337.46875 415.136719 337.484375 415.046875 337.5 C 333.195312 350.597656 290.046875 359.820312 285.59375 365.171875 C 285.605469 365.15625 285.625 365.132812 285.644531 365.101562 C 285.195312 365.839844 284.476562 366.371094 283.640625 366.585938 C 269.109375 370.3125 234.664062 395.441406 180.296875 441.972656 C 180.207031 442.046875 180.117188 442.117188 180.019531 442.183594 C 170.050781 449.046875 160.171875 454.277344 150.386719 457.875 C 150.28125 457.914062 150.171875 457.949219 150.058594 457.976562 C 110.421875 468.007812 78.667969 456.234375 54.800781 422.65625 L 54.785156 422.632812 C 44.621094 408.09375 38.945312 390.257812 37.757812 369.125 L 42.882812 371.691406 C 42.140625 372.183594 41.339844 372.378906 40.480469 372.28125 C 38.839844 372.089844 37.769531 371.082031 37.265625 369.253906 C 35.679688 363.484375 39.210938 323.175781 47.863281 248.324219 C 47.882812 248.160156 47.914062 248 47.957031 247.839844 C 49.597656 241.800781 44.230469 211.792969 31.863281 157.8125 C 31.832031 157.679688 31.808594 157.542969 31.796875 157.410156 C 30.636719 146.089844 31.285156 136.148438 33.746094 127.585938 L 33.773438 127.492188 C 51.390625 72.457031 92.679688 42.269531 157.636719 36.929688 C 159.457031 36.78125 161.050781 38.132812 161.199219 39.949219 C 161.351562 41.769531 159.996094 43.363281 158.179688 43.511719 Z M 158.179688 43.511719 " fill-opacity="1" fill-rule="nonzero"/><path fill="#d3d0f2" d="M 98.472656 100.503906 L 307.035156 100.503906 L 307.035156 378.738281 L 98.472656 378.738281 Z M 98.472656 100.503906 " fill-opacity="1" fill-rule="nonzero"/><path fill="#eceafd" d="M 327.761719 79.566406 L 167.167969 79.566406 L 119.199219 128.011719 L 119.199219 357.800781 L 327.761719 357.800781 Z M 327.761719 79.566406 " fill-opacity="1" fill-rule="evenodd"/><path fill="#b0acf7" d="M 167.167969 128.011719 L 119.199219 128.011719 L 167.167969 79.566406 Z M 167.167969 128.011719 " fill-opacity="1" fill-rule="evenodd"/><path fill="#ff656f" d="M 235.972656 124.941406 L 286.144531 211.921875 C 288.800781 216.503906 288.800781 221.746094 286.144531 226.34375 C 283.507812 230.921875 278.96875 233.542969 273.671875 233.542969 L 173.304688 233.542969 C 168.011719 233.542969 163.472656 230.921875 160.816406 226.34375 C 158.175781 221.746094 158.175781 216.503906 160.816406 211.921875 L 211.007812 124.941406 C 213.644531 120.363281 218.1875 117.722656 223.480469 117.722656 C 228.773438 117.722656 233.3125 120.363281 235.96875 124.941406 Z M 235.972656 124.941406 " fill-opacity="1" fill-rule="evenodd"/><path fill="#ff656f" d="M 345.113281 393.769531 C 378.457031 393.769531 405.644531 366.566406 405.644531 333.203125 C 405.644531 299.839844 378.457031 272.652344 345.113281 272.652344 C 311.773438 272.652344 284.601562 299.855469 284.601562 333.203125 C 284.601562 366.546875 311.789062 393.769531 345.113281 393.769531 Z M 345.113281 393.769531 " fill-opacity="1" fill-rule="evenodd"/><path fill="#e1effb" d="M 345.113281 374.429688 C 367.816406 374.429688 386.316406 355.917969 386.316406 333.203125 C 386.316406 310.488281 367.816406 291.992188 345.113281 291.992188 C 322.414062 291.992188 303.929688 310.503906 303.929688 333.203125 C 303.929688 355.898438 322.429688 374.429688 345.113281 374.429688 Z M 345.113281 374.429688 " fill-opacity="1" fill-rule="evenodd"/><g clip-path="url(#e49a92bb9a)"><path fill="#000000" d="M 327.488281 75.082031 L 167.472656 75.082031 C 167.300781 75.082031 167.132812 75.089844 166.964844 75.105469 C 166.816406 75.121094 166.667969 75.144531 166.523438 75.171875 C 166.507812 75.175781 166.492188 75.175781 166.476562 75.179688 C 165.644531 75.347656 164.886719 75.714844 164.261719 76.234375 C 164.242188 76.253906 164.222656 76.273438 164.203125 76.289062 C 164.097656 76.378906 163.996094 76.472656 163.898438 76.570312 C 163.894531 76.570312 163.890625 76.574219 163.886719 76.578125 L 144.710938 95.960938 L 99.023438 95.960938 C 96.238281 95.960938 93.980469 98.21875 93.980469 101.007812 L 93.980469 378.230469 C 93.980469 381.019531 96.238281 383.277344 99.023438 383.277344 L 303.222656 383.277344 C 314.527344 392.628906 329.019531 398.253906 344.796875 398.253906 C 380.824219 398.253906 410.136719 368.917969 410.136719 332.859375 C 410.136719 296.796875 380.828125 267.476562 344.796875 267.476562 C 340.605469 267.476562 336.507812 267.878906 332.53125 268.636719 L 332.53125 80.125 C 332.53125 77.339844 330.273438 75.082031 327.488281 75.082031 Z M 322.449219 271.417969 C 297.382812 280.570312 279.445312 304.65625 279.445312 332.859375 C 279.445312 339.632812 280.480469 346.171875 282.398438 352.324219 L 124.734375 352.324219 L 124.734375 133.464844 L 167.472656 133.464844 C 170.257812 133.464844 172.515625 131.203125 172.515625 128.417969 L 172.515625 85.171875 L 322.445312 85.171875 L 322.445312 271.417969 Z M 150.328125 104.628906 C 150.367188 104.585938 150.410156 104.546875 150.449219 104.503906 L 162.429688 92.394531 L 162.429688 123.371094 L 131.78125 123.371094 Z M 104.066406 106.054688 L 134.726562 106.054688 L 116.109375 124.867188 C 116.066406 124.914062 116.027344 124.960938 115.988281 125.003906 C 115.921875 125.078125 115.851562 125.148438 115.789062 125.226562 C 115.75 125.273438 115.714844 125.328125 115.675781 125.378906 C 115.613281 125.457031 115.554688 125.535156 115.496094 125.621094 C 115.46875 125.664062 115.441406 125.714844 115.414062 125.757812 C 115.355469 125.851562 115.296875 125.945312 115.242188 126.046875 C 115.222656 126.082031 115.207031 126.121094 115.1875 126.160156 C 115.132812 126.269531 115.078125 126.378906 115.03125 126.492188 C 115.019531 126.519531 115.011719 126.554688 114.996094 126.585938 C 114.949219 126.707031 114.90625 126.828125 114.867188 126.953125 C 114.859375 126.984375 114.851562 127.019531 114.84375 127.050781 C 114.808594 127.175781 114.773438 127.300781 114.746094 127.429688 C 114.738281 127.484375 114.730469 127.539062 114.722656 127.59375 C 114.703125 127.703125 114.683594 127.808594 114.675781 127.914062 C 114.660156 128.082031 114.648438 128.25 114.648438 128.417969 L 114.648438 357.367188 C 114.648438 360.15625 116.90625 362.414062 119.691406 362.414062 L 286.507812 362.414062 C 288.453125 366.234375 290.757812 369.839844 293.382812 373.1875 L 104.066406 373.1875 Z M 400.050781 332.859375 C 400.050781 363.351562 375.265625 388.164062 344.796875 388.164062 C 314.332031 388.164062 289.527344 363.351562 289.527344 332.859375 C 289.527344 302.363281 314.324219 277.570312 344.796875 277.570312 C 375.273438 277.570312 400.050781 302.371094 400.050781 332.859375 Z M 156.773438 209.492188 C 153.226562 215.648438 153.226562 222.71875 156.78125 228.910156 C 160.351562 235.066406 166.476562 238.597656 173.585938 238.597656 L 273.59375 238.597656 C 280.71875 238.597656 286.839844 235.0625 290.386719 228.90625 C 293.960938 222.722656 293.957031 215.640625 290.390625 209.488281 L 240.394531 122.816406 C 240.390625 122.816406 240.390625 122.8125 240.386719 122.808594 C 236.816406 116.652344 230.691406 113.121094 223.582031 113.121094 C 216.5625 113.121094 210.285156 116.746094 206.789062 122.816406 Z M 215.523438 127.859375 C 217.25 124.863281 220.113281 123.210938 223.582031 123.210938 C 227.050781 123.210938 229.921875 124.867188 231.664062 127.871094 L 281.660156 214.542969 C 283.398438 217.539062 283.398438 220.84375 281.65625 223.859375 C 279.925781 226.859375 277.066406 228.507812 273.597656 228.507812 L 173.585938 228.507812 C 170.117188 228.507812 167.246094 226.851562 165.515625 223.867188 C 163.78125 220.847656 163.78125 217.535156 165.507812 214.535156 Z M 214.070312 155.578125 C 214 154.378906 214.375 153.324219 215.195312 152.449219 C 216 151.570312 217.039062 151.125 218.238281 151.125 L 228.949219 151.125 C 230.144531 151.125 231.164062 151.570312 231.988281 152.449219 C 232.808594 153.324219 233.183594 154.378906 233.09375 155.578125 L 230.894531 188.179688 C 230.71875 190.917969 228.445312 193.027344 225.691406 193.027344 L 221.472656 193.027344 C 218.738281 193.027344 216.464844 190.917969 216.285156 188.179688 Z M 231.84375 207.109375 C 231.84375 211.671875 228.160156 215.375 223.582031 215.375 C 219.003906 215.375 215.320312 211.671875 215.320312 207.109375 C 215.320312 202.546875 219.023438 198.84375 223.582031 198.84375 C 228.144531 198.84375 231.84375 202.546875 231.84375 207.109375 Z M 344.796875 378.984375 C 370.207031 378.984375 390.878906 358.292969 390.878906 332.859375 C 390.878906 307.421875 370.207031 286.746094 344.796875 286.746094 C 319.390625 286.746094 298.699219 307.433594 298.699219 332.859375 C 298.699219 358.28125 319.378906 378.984375 344.796875 378.984375 Z M 344.796875 296.839844 C 364.644531 296.839844 380.792969 312.996094 380.792969 332.859375 C 380.792969 352.71875 364.644531 368.890625 344.796875 368.890625 C 324.949219 368.890625 308.785156 352.726562 308.785156 332.859375 C 308.785156 312.988281 324.941406 296.839844 344.796875 296.839844 Z M 324.300781 346.234375 L 337.667969 332.859375 L 324.300781 319.480469 C 322.332031 317.511719 322.332031 314.316406 324.300781 312.34375 C 326.269531 310.375 329.460938 310.375 331.429688 312.34375 L 344.800781 325.722656 L 358.167969 312.34375 C 360.136719 310.375 363.328125 310.375 365.296875 312.34375 C 367.265625 314.316406 367.265625 317.511719 365.296875 319.480469 L 351.929688 332.859375 L 365.296875 346.234375 C 367.265625 348.203125 367.265625 351.398438 365.296875 353.371094 C 364.3125 354.355469 363.023438 354.847656 361.734375 354.847656 C 360.441406 354.847656 359.152344 354.355469 358.167969 353.371094 L 344.800781 339.992188 L 331.429688 353.371094 C 330.445312 354.355469 329.15625 354.847656 327.867188 354.847656 C 326.574219 354.847656 325.285156 354.355469 324.300781 353.371094 C 322.332031 351.398438 322.332031 348.203125 324.300781 346.234375 Z M 138.574219 262.378906 C 138.574219 259.589844 140.832031 257.332031 143.617188 257.332031 L 256.789062 257.332031 C 259.574219 257.332031 261.832031 259.589844 261.832031 262.378906 C 261.832031 265.164062 259.574219 267.425781 256.789062 267.425781 L 143.617188 267.425781 C 140.832031 267.425781 138.574219 265.164062 138.574219 262.378906 Z M 283.554688 262.378906 C 283.554688 265.164062 281.296875 267.425781 278.511719 267.425781 L 271.21875 267.425781 C 268.433594 267.425781 266.175781 265.164062 266.175781 262.378906 C 266.175781 259.589844 268.433594 257.332031 271.21875 257.332031 L 278.511719 257.332031 C 281.300781 257.332031 283.554688 259.589844 283.554688 262.378906 Z M 283.554688 285.226562 C 283.554688 288.015625 281.296875 290.273438 278.511719 290.273438 L 165.363281 290.273438 C 162.578125 290.273438 160.320312 288.015625 160.320312 285.226562 C 160.320312 282.441406 162.578125 280.179688 165.363281 280.179688 L 278.511719 280.179688 C 281.300781 280.179688 283.554688 282.441406 283.554688 285.226562 Z M 138.574219 285.226562 C 138.574219 282.441406 140.832031 280.179688 143.617188 280.179688 L 150.929688 280.179688 C 153.714844 280.179688 155.972656 282.441406 155.972656 285.226562 C 155.972656 288.015625 153.714844 290.273438 150.929688 290.273438 L 143.617188 290.273438 C 140.832031 290.273438 138.574219 288.015625 138.574219 285.226562 Z M 138.574219 308.078125 C 138.574219 305.289062 140.832031 303.03125 143.617188 303.03125 L 224.871094 303.03125 C 227.65625 303.03125 229.914062 305.289062 229.914062 308.078125 C 229.914062 310.863281 227.65625 313.121094 224.871094 313.121094 L 143.617188 313.121094 C 140.832031 313.121094 138.574219 310.863281 138.574219 308.078125 Z M 251.636719 308.078125 C 251.636719 310.863281 249.378906 313.121094 246.597656 313.121094 L 239.300781 313.121094 C 236.515625 313.121094 234.257812 310.863281 234.257812 308.078125 C 234.257812 305.289062 236.515625 303.03125 239.300781 303.03125 L 246.597656 303.03125 C 249.378906 303.03125 251.636719 305.289062 251.636719 308.078125 Z M 251.636719 330.925781 C 251.636719 333.710938 249.378906 335.972656 246.597656 335.972656 L 165.363281 335.972656 C 162.578125 335.972656 160.320312 333.710938 160.320312 330.925781 C 160.320312 328.136719 162.578125 325.878906 165.363281 325.878906 L 246.597656 325.878906 C 249.378906 325.878906 251.636719 328.136719 251.636719 330.925781 Z M 155.972656 330.925781 C 155.972656 333.710938 153.714844 335.972656 150.929688 335.972656 L 143.617188 335.972656 C 140.832031 335.972656 138.574219 333.710938 138.574219 330.925781 C 138.574219 328.136719 140.832031 325.878906 143.617188 325.878906 L 150.929688 325.878906 C 153.714844 325.878906 155.972656 328.136719 155.972656 330.925781 Z M 155.972656 330.925781 " fill-opacity="1" fill-rule="nonzero"/></g></svg>