<svg xmlns="http://www.w3.org/2000/svg" xmlns:xlink="http://www.w3.org/1999/xlink" width="711" zoomAndPan="magnify" viewBox="0 0 533.25 428.250001" height="571" preserveAspectRatio="xMidYMid meet" version="1.0"><path fill="#a3e635" d="M 182.578125 17.65625 C 162.519531 21.96875 141.769531 32.101562 120.378906 47.867188 L 120.378906 47.871094 C 120.289062 47.933594 120.207031 47.988281 120.113281 48.046875 C 120.039062 48.089844 119.984375 48.15625 119.957031 48.230469 L 119.933594 48.234375 C 77.75 95.675781 20.113281 185.175781 18.253906 255.863281 C 16.347656 328.421875 36.496094 380.21875 76.265625 409.644531 C 93.773438 422.597656 113.785156 426.847656 134.757812 424.679688 C 139.992188 424.140625 145.214844 423.527344 150.3125 422.429688 C 154.109375 421.613281 157.847656 420.527344 161.476562 419.003906 C 203.796875 401.269531 234.9375 389.625 255.269531 385.253906 C 257.535156 384.765625 259.664062 384.371094 261.660156 384.066406 C 272.566406 382.398438 287.316406 380.28125 305.542969 382.554688 C 375.460938 391.28125 413.710938 394.625 422.367188 393.691406 C 428.699219 393.011719 434.839844 392.078125 440.761719 390.804688 C 458.398438 387.011719 474.136719 380.183594 487.441406 367.886719 C 514.765625 342.632812 529.152344 310.589844 530.4375 272.980469 C 531.746094 234.726562 518.933594 204.804688 493.648438 182.972656 C 484.910156 175.425781 476.207031 168.898438 466.304688 166.191406 C 399.863281 148.023438 359.414062 135.363281 347.625 124.816406 L 347.601562 124.820312 C 347.570312 124.738281 347.507812 124.667969 347.421875 124.628906 C 328.261719 115.003906 298.089844 83.625 254.375 33.96875 C 247.351562 25.996094 238.644531 21.183594 230.261719 18.824219 L 230.257812 18.824219 C 230.246094 18.820312 230.234375 18.816406 230.222656 18.8125 C 214.824219 14.492188 198.933594 14.136719 182.578125 17.65625 Z M 182.578125 17.65625 " fill-opacity="0.996" fill-rule="nonzero"/><path fill="#000000" d="M 158.914062 22.183594 C 202.296875 2.636719 240.929688 0.0703125 273.421875 17.210938 C 281.714844 21.585938 289.820312 28.632812 295.425781 38.648438 C 327.066406 95.207031 348.660156 129.761719 363.71875 141.660156 C 363.964844 141.851562 364.175781 142.082031 364.347656 142.339844 C 371.585938 153.089844 405.402344 172.597656 466.277344 204.191406 C 476.285156 209.386719 483.820312 218.230469 490.578125 227.183594 C 511.140625 254.414062 517.371094 287.035156 508 324.363281 C 498.796875 361.015625 477.808594 389.605469 445.566406 408.683594 C 423.988281 421.449219 400.371094 423.199219 375.460938 420.585938 C 366.261719 419.617188 330 408.359375 266.195312 386.082031 C 250.230469 380.503906 236.53125 379.539062 225.992188 378.902344 C 207.398438 377.78125 174.292969 382.371094 125.730469 391.460938 C 116.074219 393.269531 106.515625 392.421875 97.710938 391.457031 C 76.300781 389.117188 56.90625 380.503906 41.949219 363.519531 C 8.710938 325.773438 0.398438 270.628906 17.164062 201.558594 C 33.847656 132.820312 108.542969 58.609375 158.210938 22.441406 C 159.550781 21.46875 161.425781 21.761719 162.402344 23.101562 C 163.375 24.441406 163.082031 26.316406 161.742188 27.289062 C 112.300781 63.289062 39.144531 136.417969 22.988281 202.976562 C 6.480469 271 14.996094 323.835938 46.449219 359.554688 C 60.273438 375.253906 78.207031 383.292969 98.363281 385.496094 C 107.171875 386.460938 115.933594 387.195312 124.628906 385.566406 C 173.015625 376.507812 206.882812 371.742188 226.351562 372.917969 C 236.988281 373.558594 251.382812 374.554688 268.175781 380.417969 C 332.414062 402.851562 367.777344 413.75 376.085938 414.621094 C 400.367188 417.167969 422.496094 415.363281 442.511719 403.519531 C 473.339844 385.28125 493.359375 358.042969 502.183594 322.902344 C 511.160156 287.160156 505.15625 256.4375 485.792969 230.796875 C 479.078125 221.90625 472.234375 214.039062 463.515625 209.515625 C 403.621094 178.433594 367.714844 158.074219 359.375 145.6875 L 360.003906 146.367188 C 343.773438 133.546875 321.550781 97.628906 290.191406 41.574219 C 285.214844 32.679688 278.011719 26.410156 270.621094 22.515625 C 240.34375 6.542969 203.777344 8.546875 161.378906 27.652344 C 159.867188 28.332031 158.09375 27.660156 157.410156 26.152344 C 156.730469 24.640625 157.402344 22.867188 158.914062 22.183594 Z M 158.914062 22.183594 " fill-opacity="0.996" fill-rule="nonzero"/><path fill="#000000" d="M 240.453125 390.699219 C 214.910156 392.695312 175.378906 390.851562 166.613281 386.082031 C 157.84375 381.3125 164.542969 355.320312 179.65625 340.253906 C 194.765625 325.183594 220.542969 325.21875 223.960938 347.035156 C 223.960938 347.035156 235.746094 349.53125 249.84375 359.785156 C 260.570312 367.597656 265.996094 388.703125 240.453125 390.699219 Z M 352.417969 340.261719 C 337.304688 325.191406 311.527344 325.230469 308.113281 347.046875 C 308.113281 347.046875 296.328125 349.539062 282.226562 359.792969 C 271.5 367.597656 266.078125 388.703125 291.609375 390.699219 C 317.140625 392.695312 356.683594 390.851562 365.449219 386.082031 C 374.226562 381.320312 367.527344 355.328125 352.417969 340.261719 Z M 352.417969 340.261719 " fill-opacity="1" fill-rule="nonzero"/><path fill="#033d68" d="M 262.261719 258.613281 C 262.496094 259.535156 270.34375 296.4375 248.878906 320.195312 C 227.421875 343.957031 223.960938 347.046875 223.960938 347.046875 C 223.960938 347.046875 200.1875 347.40625 179.65625 340.261719 C 179.65625 340.261719 223.960938 299.664062 211.269531 264.375 Z M 274.644531 256.644531 C 274.410156 257.566406 272.835938 290.925781 288.570312 318.804688 C 302.726562 343.894531 308.300781 348.101562 308.300781 348.101562 C 308.300781 348.101562 334.378906 349.539062 354.921875 342.394531 C 354.921875 342.394531 318.578125 291.9375 331.269531 256.644531 Z M 274.644531 256.644531 " fill-opacity="1" fill-rule="nonzero"/><path fill="#b3dec1" d="M 287.296875 119.960938 C 298.296875 117.871094 345.296875 122.046875 353.113281 163.992188 C 360.941406 205.9375 332.839844 216.957031 332.839844 216.957031 L 337.042969 276.320312 C 301.777344 277.386719 199.132812 278.449219 199.132812 278.449219 C 200.550781 261.386719 209.445312 213.757812 209.445312 213.757812 C 209.445312 213.757812 178.859375 196.695312 188.105469 159.375 C 197.351562 122.054688 240.742188 119.960938 240.742188 119.960938 C 240.742188 119.960938 276.296875 122.046875 287.296875 119.960938 Z M 329.007812 52.636719 C 329.007812 52.636719 337.179688 34.183594 347.625 37.878906 C 358.082031 41.570312 342.167969 51.480469 329.007812 52.636719 Z M 360.398438 67.398438 C 350.933594 61.863281 335.246094 71.09375 335.246094 71.09375 C 359.703125 83.777344 369.859375 72.9375 360.398438 67.398438 Z M 211.097656 52.636719 C 211.097656 52.636719 202.332031 35.113281 191.945312 39.257812 C 181.5625 43.40625 194.015625 55.636719 211.097656 52.636719 Z M 213.167969 75.015625 C 213.167969 75.015625 192.6875 56.414062 182.230469 66.9375 C 172.242188 77.003906 196.09375 85.394531 213.167969 75.015625 Z M 213.167969 75.015625 " fill-opacity="1" fill-rule="nonzero"/><path fill="#eaaa75" d="M 249.90625 50.96875 C 262.542969 45.863281 276.695312 45.644531 289.539062 50.207031 C 303.023438 54.996094 319.164062 65.503906 321.035156 88.421875 C 324.308594 128.53125 293.804688 141.867188 269.355469 141.902344 C 240.183594 141.949219 225.613281 119.914062 222.648438 104.167969 C 220.164062 91.042969 220.984375 62.640625 249.90625 50.96875 Z M 249.90625 50.96875 " fill-opacity="1" fill-rule="nonzero"/><path fill="#000000" d="M 324.894531 89.507812 L 315.777344 92.675781 C 315.777344 92.675781 311.746094 70.410156 298.332031 59.59375 C 298.332031 59.59375 258.105469 57.617188 241.855469 59.59375 C 241.855469 59.59375 228.777344 79.992188 226.996094 89.902344 L 218.871094 89.902344 C 218.871094 89.902344 220.253906 42.953125 262.867188 39.792969 C 305.480469 36.628906 324.5 59.792969 324.894531 89.507812 Z M 324.894531 89.507812 " fill-opacity="1" fill-rule="nonzero"/><path fill="#eaaa75" d="M 350.222656 205.566406 C 345.601562 217.328125 331.757812 227.671875 314.457031 207.164062 C 304.460938 195.3125 302.011719 180.296875 301.722656 169.738281 C 301.476562 160.746094 298.929688 151.984375 294.292969 144.277344 C 292.097656 140.628906 290.199219 137.0625 289.773438 134.984375 C 288.617188 129.445312 296.117188 125.984375 296.117188 125.984375 C 296.117188 125.984375 298.082031 120.90625 304.082031 121.828125 C 304.082031 121.828125 306.847656 116.292969 312.847656 117.214844 C 312.847656 117.214844 312.921875 116.988281 313.066406 116.644531 C 309.359375 115.324219 306.675781 111.828125 306.59375 105.1875 C 306.484375 95.957031 312.46875 91.269531 318.984375 88.890625 C 328.917969 85.277344 338.707031 94.84375 335.28125 104.835938 C 335.246094 104.953125 335.199219 105.0625 335.164062 105.179688 C 333.617188 109.542969 329.171875 113.492188 324.234375 115.625 C 327.363281 119.535156 328.3125 126.941406 328.3125 136.121094 C 328.3125 136.121094 327.851562 151.804688 338.234375 167.488281 C 348.601562 183.1875 354.832031 193.804688 350.222656 205.566406 Z M 246.988281 125.984375 C 246.988281 125.984375 245.027344 120.90625 239.027344 121.828125 C 239.027344 121.828125 236.261719 116.292969 230.257812 117.214844 C 230.257812 117.214844 230.214844 117.078125 230.132812 116.859375 C 234.179688 115.742188 237.191406 112.21875 237.273438 105.1875 C 237.378906 95.957031 231.398438 91.269531 224.882812 88.890625 C 214.949219 85.277344 205.160156 94.84375 208.585938 104.835938 C 208.621094 104.953125 208.667969 105.0625 208.703125 105.179688 C 210.195312 109.378906 214.371094 113.191406 219.085938 115.371094 C 215.796875 119.210938 214.792969 126.734375 214.792969 136.113281 C 214.792969 136.113281 215.253906 151.796875 204.871094 167.476562 C 194.484375 183.160156 188.257812 193.777344 192.867188 205.539062 C 197.488281 217.300781 211.332031 227.644531 228.632812 207.136719 C 240.6875 192.855469 241.773438 173.964844 241.320312 163.820312 C 241.105469 158.96875 242.414062 154.171875 245.089844 150.113281 C 248.46875 144.984375 252.65625 138.171875 253.324219 134.957031 C 254.488281 129.445312 246.988281 125.984375 246.988281 125.984375 Z M 246.988281 125.984375 " fill-opacity="1" fill-rule="nonzero"/><path fill="#033d68" d="M 287.035156 86.398438 C 285.996094 85.882812 284.667969 85.964844 283.71875 86.660156 C 283.175781 87.058594 282.734375 87.582031 282.554688 88.25 C 282.542969 88.277344 282.554688 88.296875 282.542969 88.324219 C 282.542969 88.332031 282.535156 88.339844 282.535156 88.351562 C 282.34375 88.917969 282.363281 89.605469 282.589844 90.164062 C 282.734375 90.519531 282.90625 90.84375 283.183594 91.113281 C 283.476562 91.394531 283.808594 91.582031 284.179688 91.71875 C 284.820312 91.964844 285.554688 91.945312 286.222656 91.828125 C 286.828125 91.71875 287.46875 91.394531 287.867188 90.914062 C 288.28125 90.417969 288.5 89.847656 288.554688 89.199219 C 288.644531 88.105469 288.039062 86.894531 287.035156 86.398438 Z M 285.175781 88.242188 C 285.246094 88.207031 285.363281 88.1875 285.175781 88.242188 Z M 285.121094 88.828125 C 285.109375 88.828125 285.109375 88.828125 285.121094 88.828125 C 285.128906 88.820312 285.136719 88.820312 285.148438 88.808594 C 285.136719 88.820312 285.128906 88.820312 285.121094 88.828125 Z M 259.894531 86.535156 C 259.359375 86.171875 258.703125 86.035156 258.070312 85.984375 C 257.410156 85.917969 256.722656 85.992188 256.097656 86.246094 C 255.429688 86.523438 254.976562 87.050781 254.714844 87.71875 C 254.5 88.285156 254.507812 88.9375 254.679688 89.542969 C 254.726562 89.742188 254.796875 89.929688 254.894531 90.113281 C 255.039062 90.410156 255.230469 90.679688 255.464844 90.898438 C 256 91.414062 256.703125 91.675781 257.4375 91.726562 C 257.492188 91.726562 257.542969 91.71875 257.589844 91.71875 C 257.914062 92.007812 258.394531 92.125 258.78125 91.871094 C 259.40625 91.464844 259.984375 91.023438 260.4375 90.425781 C 260.84375 89.886719 261.105469 89.144531 261.03125 88.457031 C 260.96875 87.644531 260.570312 86.996094 259.894531 86.535156 Z M 256.929688 88.765625 C 256.9375 88.757812 256.9375 88.757812 256.964844 88.738281 C 256.949219 88.746094 256.929688 88.765625 256.910156 88.773438 C 256.910156 88.773438 256.921875 88.765625 256.929688 88.765625 Z M 257.554688 88.890625 C 257.554688 88.890625 257.554688 88.882812 257.554688 88.882812 C 257.554688 88.882812 257.554688 88.882812 257.554688 88.890625 C 257.554688 88.882812 257.554688 88.890625 257.554688 88.890625 Z M 257.542969 88.882812 C 257.542969 88.882812 257.542969 88.875 257.542969 88.882812 C 257.542969 88.875 257.542969 88.875 257.542969 88.882812 C 257.542969 88.875 257.542969 88.882812 257.542969 88.882812 Z M 257.515625 88.765625 Z M 272.78125 91.703125 C 272.78125 92.28125 272.3125 92.675781 271.769531 92.714844 C 271.527344 92.730469 271.597656 92.722656 271.363281 92.777344 C 271.183594 92.820312 271.011719 92.875 270.839844 92.9375 C 270.8125 92.949219 270.765625 92.976562 270.757812 92.976562 C 270.675781 93.011719 270.585938 93.054688 270.503906 93.109375 C 270.351562 93.191406 270.207031 93.28125 270.070312 93.382812 C 269.609375 93.707031 269.183594 94.222656 268.886719 94.773438 C 268.15625 96.117188 268.191406 97.734375 268.554688 99.179688 C 268.871094 100.457031 266.90625 100.988281 266.589844 99.722656 C 266.085938 97.707031 266.128906 95.488281 267.1875 93.644531 C 268.144531 91.972656 269.84375 90.816406 271.78125 90.679688 C 272.3125 90.644531 272.78125 91.1875 272.78125 91.703125 Z M 285.761719 80.617188 C 284.25 80.425781 282.445312 80.226562 281.171875 79.324219 C 280.03125 78.519531 279.453125 76.957031 280.265625 75.71875 C 280.980469 74.628906 282.742188 75.648438 282.019531 76.75 C 281.015625 78.296875 287.515625 78.765625 288.273438 78.808594 C 291.003906 78.972656 293.722656 79.054688 296.382812 79.765625 C 297.644531 80.101562 297.105469 82.0625 295.839844 81.726562 C 292.53125 80.832031 289.132812 81.03125 285.761719 80.617188 Z M 262.035156 74.574219 C 262.515625 75.855469 261.992188 77.300781 261.03125 78.222656 C 259.949219 79.261719 258.4375 79.578125 257.019531 79.875 C 253.675781 80.582031 250.386719 81.492188 247.160156 82.585938 C 245.914062 83.011719 245.386719 81.042969 246.617188 80.625 C 249.328125 79.703125 252.085938 78.917969 254.878906 78.269531 C 256.253906 77.953125 260.988281 77.554688 260.074219 75.113281 C 259.613281 73.878906 261.585938 73.351562 262.035156 74.574219 Z M 252.746094 125.75 C 254.769531 129.347656 254.589844 134.117188 253.078125 137.847656 C 252.601562 139.046875 250.628906 138.515625 251.117188 137.304688 C 252.292969 134.394531 252.566406 131.125 251.570312 128.125 C 251.15625 126.878906 250.414062 125.496094 249.148438 124.945312 C 248.074219 124.484375 246.878906 124.667969 246.148438 125.597656 C 245.613281 126.285156 244.339844 125.714844 244.414062 124.875 C 244.546875 123.328125 243.96875 121.578125 242.433594 120.933594 C 241.160156 120.402344 239.421875 120.972656 238.925781 122.316406 C 238.617188 123.148438 237.128906 123.410156 236.964844 122.316406 C 236.640625 120.183594 235.574219 117.84375 233.394531 117.050781 C 231.632812 116.410156 229.527344 117.097656 228.722656 118.832031 C 228.296875 119.742188 226.769531 119.292969 226.824219 118.316406 C 226.988281 115.570312 224.628906 113.5 221.925781 114.195312 C 220.652344 114.519531 220.117188 112.5625 221.382812 112.234375 C 224.5 111.441406 227.519531 113.15625 228.515625 115.949219 C 229.953125 114.882812 231.921875 114.519531 233.65625 115.007812 C 235.96875 115.660156 237.570312 117.59375 238.382812 119.789062 C 239.539062 118.839844 241.132812 118.441406 242.667969 118.875 C 244.574219 119.410156 245.847656 121.078125 246.28125 122.941406 C 248.605469 121.972656 251.515625 123.5625 252.746094 125.75 Z M 323.621094 114.902344 C 323.9375 116.175781 321.976562 116.707031 321.660156 115.441406 C 321.234375 113.734375 319.582031 112.390625 317.773438 112.613281 C 315.964844 112.832031 314.683594 114.539062 314.691406 116.292969 C 314.699219 117.367188 313.355469 117.59375 312.792969 116.808594 C 311.910156 115.542969 309.945312 115.578125 308.761719 116.375 C 307.171875 117.429688 306.621094 119.5 306.511719 121.289062 C 306.457031 122.171875 305.445312 122.617188 304.777344 122.011719 C 301.785156 119.273438 297.039062 122.011719 297.933594 125.976562 C 298.117188 126.789062 297.222656 127.648438 296.445312 127.125 C 294.402344 125.75 292.0625 127.222656 291.257812 129.273438 C 290.296875 131.695312 291.011719 134.339844 291.726562 136.726562 C 292.097656 137.980469 290.136719 138.515625 289.765625 137.269531 C 288.816406 134.050781 288.046875 130.332031 289.992188 127.304688 C 291.246094 125.34375 293.632812 124.195312 295.847656 124.675781 C 295.972656 122.644531 297.023438 120.710938 298.839844 119.644531 C 300.664062 118.578125 302.898438 118.640625 304.722656 119.5625 C 305.15625 117.421875 306.207031 115.34375 308.238281 114.359375 C 309.785156 113.609375 311.566406 113.636719 312.992188 114.414062 C 313.679688 112.453125 315.378906 110.890625 317.511719 110.617188 C 320.296875 110.257812 322.953125 112.226562 323.621094 114.902344 Z M 358.082031 243.34375 C 358.328125 256.679688 354.910156 270.023438 348.277344 281.585938 C 347.625 282.722656 345.875 281.695312 346.523438 280.554688 C 354.785156 266.15625 357.859375 248.972656 355.027344 232.605469 C 354.8125 231.320312 356.765625 230.777344 356.988281 232.0625 C 357.632812 235.792969 358.011719 239.558594 358.082031 243.34375 Z M 369.238281 264.429688 C 368.984375 265.714844 367.023438 265.171875 367.277344 263.886719 C 369.660156 251.792969 372.09375 239.070312 368.496094 226.964844 C 368.125 225.710938 370.085938 225.179688 370.457031 226.425781 C 374.152344 238.890625 371.695312 251.980469 369.238281 264.429688 Z M 192.695312 115.722656 C 182.910156 128.578125 177.0625 144.226562 176.101562 160.359375 C 176.019531 161.660156 173.988281 161.667969 174.070312 160.359375 C 174.285156 156.746094 174.71875 153.148438 175.398438 149.601562 C 177.792969 136.96875 183.152344 124.929688 190.933594 114.703125 C 191.71875 113.671875 193.484375 114.683594 192.695312 115.722656 Z M 170.898438 117.230469 C 169.242188 119.816406 167.777344 122.523438 166.457031 125.296875 C 163.71875 131.035156 161.714844 137.097656 160.402344 143.3125 C 160.132812 144.59375 158.171875 144.042969 158.441406 142.769531 C 159.816406 136.246094 161.976562 129.90625 164.878906 123.90625 C 167.535156 118.398438 170.699219 112.378906 175.867188 108.828125 C 176.953125 108.089844 177.964844 109.851562 176.898438 110.582031 C 174.394531 112.296875 172.503906 114.703125 170.898438 117.230469 Z M 170.898438 117.230469 " fill-opacity="1" fill-rule="nonzero"/><path fill="#fff5f8" d="M 293.707031 112.875 C 293.878906 114.519531 292.523438 116.542969 291.046875 117.304688 C 288.90625 118.40625 286.375 118.710938 284.035156 118.144531 C 282.355469 117.738281 280.699219 116.898438 278.984375 117.148438 C 276.957031 117.449219 275.414062 119.199219 273.425781 119.699219 C 269.4375 120.683594 265.867188 116.382812 261.765625 116.5 C 260.636719 116.535156 259.558594 116.90625 258.457031 117.160156 C 256.621094 117.582031 254.660156 117.683594 252.871094 117.078125 C 251.082031 116.472656 249.5 115.089844 248.984375 113.273438 C 248.246094 110.683594 249.925781 107.816406 252.347656 106.644531 C 254.769531 105.46875 257.699219 105.75 260.183594 106.789062 C 261.050781 107.148438 261.917969 107.601562 262.859375 107.664062 C 264.945312 107.808594 266.617188 106.074219 268.515625 105.199219 C 271.054688 104.03125 274.121094 104.476562 276.578125 105.804688 C 278.496094 106.84375 280.238281 108.421875 282.417969 108.585938 C 284.675781 108.75 286.808594 107.304688 289.070312 107.421875 C 291.753906 107.546875 294.023438 110.222656 293.707031 112.875 " fill-opacity="1" fill-rule="nonzero"/></svg>