<svg xmlns="http://www.w3.org/2000/svg" xmlns:xlink="http://www.w3.org/1999/xlink" width="1072" zoomAndPan="magnify" viewBox="0 0 804 546.000001" height="728" preserveAspectRatio="xMidYMid meet" version="1.0"><defs><clipPath id="1e30e1757a"><path d="M 599 0.121094 L 706 0.121094 L 706 93 L 599 93 Z M 599 0.121094 " clip-rule="nonzero"/></clipPath><clipPath id="9248577217"><path d="M 123 385 L 307 385 L 307 544.371094 L 123 544.371094 Z M 123 385 " clip-rule="nonzero"/></clipPath><clipPath id="b7f69dd4bb"><path d="M 615 142 L 802.515625 142 L 802.515625 306 L 615 306 Z M 615 142 " clip-rule="nonzero"/></clipPath><clipPath id="adc3203230"><path d="M 144.933594 245 L 349 245 L 349 428 L 144.933594 428 Z M 144.933594 245 " clip-rule="nonzero"/></clipPath><clipPath id="576a35e6ed"><path d="M 296 496 L 336 496 L 336 544.621094 L 296 544.621094 Z M 296 496 " clip-rule="nonzero"/></clipPath><clipPath id="f55e9165e6"><path d="M 258 496 L 297 496 L 297 544.621094 L 258 544.621094 Z M 258 496 " clip-rule="nonzero"/></clipPath><clipPath id="9923c6f5c8"><path d="M 453 165 L 720.632812 165 L 720.632812 401 L 453 401 Z M 453 165 " clip-rule="nonzero"/></clipPath><clipPath id="c646501423"><path d="M 581 79.722656 L 651 79.722656 L 651 159 L 581 159 Z M 581 79.722656 " clip-rule="nonzero"/></clipPath></defs><path fill="#a3e635" d="M 325.195312 293.191406 L 190.738281 293.191406 L 123.511719 409.859375 L 190.738281 526.527344 L 325.195312 526.527344 L 392.421875 409.859375 Z M 325.195312 293.191406 " fill-opacity="1" fill-rule="nonzero"/><path fill="#a3e635" d="M 689.269531 106.910156 L 554.8125 106.910156 L 487.582031 223.578125 L 554.8125 340.246094 L 689.269531 340.246094 L 756.496094 223.578125 Z M 689.269531 106.910156 " fill-opacity="1" fill-rule="nonzero"/><path fill="#a3e635" d="M 95.515625 363.34375 L 42.328125 363.34375 L 15.738281 409.492188 L 42.328125 455.640625 L 95.515625 455.640625 L 122.105469 409.492188 Z M 95.515625 363.34375 " fill-opacity="1" fill-rule="nonzero"/><path fill="#a3e635" d="M 711.613281 371.15625 L 658.429688 371.15625 L 631.835938 417.304688 L 658.429688 463.453125 L 711.613281 463.453125 L 738.203125 417.304688 Z M 711.613281 371.15625 " fill-opacity="1" fill-rule="nonzero"/><g clip-path="url(#1e30e1757a)"><path fill="#a3e635" d="M 679.117188 0.00390625 L 625.933594 0.00390625 L 599.339844 46.152344 L 625.933594 92.300781 L 679.117188 92.300781 L 705.710938 46.152344 Z M 679.117188 0.00390625 " fill-opacity="1" fill-rule="nonzero"/></g><g clip-path="url(#9248577217)"><path fill="#000000" d="M 306.570312 464.921875 L 260.789062 544.371094 L 169.203125 544.371094 L 123.425781 464.921875 L 169.203125 385.476562 L 260.789062 385.476562 Z M 255.734375 535.617188 L 296.46875 464.921875 L 255.734375 394.226562 L 174.273438 394.226562 L 133.535156 464.921875 L 174.273438 535.617188 Z M 255.734375 535.617188 " fill-opacity="1" fill-rule="nonzero"/></g><path fill="#000000" d="M 428.75 286.507812 L 382.96875 365.957031 L 291.394531 365.957031 L 245.613281 286.507812 L 291.394531 207.0625 L 382.96875 207.0625 Z M 377.910156 357.203125 L 418.648438 286.507812 L 377.910156 215.8125 L 296.453125 215.8125 L 255.714844 286.507812 L 296.453125 357.203125 Z M 377.910156 357.203125 " fill-opacity="1" fill-rule="nonzero"/><g clip-path="url(#b7f69dd4bb)"><path fill="#000000" d="M 802.398438 224 L 755.660156 305.101562 L 662.179688 305.101562 L 615.441406 224 L 662.179688 142.894531 L 755.660156 142.894531 Z M 750.605469 296.347656 L 792.296875 224 L 750.605469 151.644531 L 667.234375 151.644531 L 625.542969 223.992188 L 667.234375 296.347656 Z M 750.605469 296.347656 " fill-opacity="1" fill-rule="nonzero"/></g><path fill="#ffffff" d="M 482.464844 342.503906 L 394.664062 342.503906 L 350.765625 418.691406 L 394.664062 494.875 L 482.464844 494.875 L 526.367188 418.691406 Z M 482.464844 342.503906 " fill-opacity="1" fill-rule="nonzero"/><path fill="#ffffff" d="M 132.824219 197.953125 L 45.023438 197.953125 L 1.121094 274.136719 L 45.023438 350.320312 L 132.824219 350.320312 L 176.722656 274.136719 Z M 132.824219 197.953125 " fill-opacity="1" fill-rule="nonzero"/><path fill="#ffffff" d="M 609.84375 234.414062 L 522.042969 234.414062 L 478.144531 310.601562 L 522.042969 386.785156 L 609.84375 386.785156 L 653.742188 310.601562 Z M 609.84375 234.414062 " fill-opacity="1" fill-rule="nonzero"/><path fill="#113d75" d="M 288.777344 519.375 L 287.878906 527.070312 C 287.878906 527.070312 251.914062 537.246094 210.566406 526.171875 C 209.847656 522.226562 210.320312 519.359375 210.320312 519.359375 L 288.777344 519.359375 Z M 288.777344 519.375 " fill-opacity="1" fill-rule="nonzero"/><path fill="#0077b4" d="M 210.320312 519.375 C 230.78125 528.667969 290.910156 523.613281 288.777344 519.375 C 286.640625 515.136719 257.652344 510.914062 257.652344 510.914062 L 257.960938 459.242188 L 258.011719 450.730469 L 240.417969 451.96875 L 239.929688 510.914062 C 239.929688 510.914062 208.167969 515.527344 210.320312 519.375 Z M 210.320312 519.375 " fill-opacity="1" fill-rule="nonzero"/><path fill="#40cef4" d="M 239.929688 510.914062 C 239.929688 510.914062 246.777344 466.921875 247.609375 462.746094 C 248.246094 459.585938 254.832031 459.226562 257.976562 459.257812 L 258.027344 450.746094 L 240.433594 451.984375 L 239.945312 510.929688 Z M 239.929688 510.914062 " fill-opacity="1" fill-rule="nonzero"/><path fill="#113d75" d="M 237.84375 424.316406 L 261.890625 424.316406 L 261.890625 449.703125 C 261.890625 452.050781 259.984375 453.957031 257.636719 453.957031 L 242.082031 453.957031 C 239.734375 453.957031 237.824219 452.050781 237.824219 449.703125 L 237.824219 424.316406 Z M 237.84375 424.316406 " fill-opacity="1" fill-rule="nonzero"/><g clip-path="url(#adc3203230)"><path fill="#113d75" d="M 288.382812 425.898438 C 332.175781 412.480469 352.460938 381.320312 348.480469 314.191406 C 344.503906 247.0625 275.195312 245.957031 275.195312 245.957031 C 275.195312 245.957031 183.613281 237.328125 155.75 273.773438 C 127.886719 310.214844 157.347656 413.765625 204.320312 422.410156 C 251.292969 431.050781 288.402344 425.898438 288.402344 425.898438 Z M 288.382812 425.898438 " fill-opacity="1" fill-rule="nonzero"/></g><path fill="#0077b4" d="M 299.730469 287.597656 C 299.730469 287.597656 347.894531 347.078125 328.019531 383.894531 C 308.144531 420.710938 206.113281 414.257812 183.679688 392.914062 C 161.246094 371.570312 140.277344 315.121094 183.191406 291.414062 C 226.101562 267.691406 280.234375 253.945312 299.730469 287.613281 Z M 299.730469 287.597656 " fill-opacity="1" fill-rule="nonzero"/><path fill="#000000" d="M 262.671875 238.355469 C 254.488281 237.328125 246.222656 238.699219 237.988281 239.105469 C 229.753906 239.53125 221.03125 238.863281 214.136719 234.328125 C 207.238281 229.796875 203.015625 220.390625 206.605469 212.953125 C 209.472656 207.003906 216.792969 202.664062 216.078125 196.09375 C 215.457031 190.421875 208.722656 186.328125 209.425781 180.652344 C 210.027344 175.777344 215.636719 173.382812 218.308594 169.273438 C 221.847656 163.828125 219.664062 156.652344 220.378906 150.195312 C 221.621094 139.074219 233.277344 130.269531 244.296875 132.128906 C 259.476562 126.40625 277.753906 135.894531 280.984375 151.792969 C 281.910156 156.390625 281.714844 161.285156 283.671875 165.539062 C 287.195312 173.234375 297.367188 178.894531 295.332031 187.09375 C 293.929688 192.769531 286.820312 196.304688 287.046875 202.144531 C 287.195312 205.78125 290.195312 208.535156 291.988281 211.699219 C 295.738281 218.320312 293.863281 227.105469 289.003906 232.976562 C 284.144531 238.847656 270.238281 239.320312 262.691406 238.375 Z M 262.671875 238.355469 " fill-opacity="1" fill-rule="nonzero"/><path fill="#000000" d="M 241.640625 180.6875 C 240.351562 177 240.238281 176.921875 239.652344 173.121094 C 239.046875 169.304688 239.441406 165.765625 241.65625 162.605469 C 243.46875 160.027344 247.085938 159.734375 250.054688 156.75 C 254.277344 152.496094 258.269531 137.640625 248.441406 137.183594 C 243.371094 136.957031 237.402344 139.191406 233.796875 143.121094 C 230.195312 147.050781 228.875 153.652344 230.128906 158.855469 C 231.09375 162.847656 229.984375 168.113281 232.003906 171.6875 C 234.191406 172.746094 238.25 175.925781 241.640625 180.703125 Z M 241.640625 180.6875 " fill-opacity="1" fill-rule="nonzero"/><path fill="#000000" d="M 280.835938 173.675781 C 282.222656 165.488281 284.78125 153.945312 279.042969 143.558594 C 273.304688 133.15625 253.332031 128.214844 248.636719 138.375 C 243.957031 148.550781 268.28125 152.003906 274.28125 153.539062 C 279.433594 154.859375 279.90625 163.257812 280.492188 168.964844 L 280.820312 173.675781 Z M 280.835938 173.675781 " fill-opacity="1" fill-rule="nonzero"/><path fill="#383838" d="M 230.554688 165.589844 C 235.296875 159.277344 242.914062 156.359375 245.929688 149.070312 C 247.445312 145.664062 247.886719 141.765625 247.199219 138.015625 C 248.683594 143.183594 247.691406 149.558594 243.824219 154.453125 C 240.371094 158.855469 234.988281 162.097656 231.824219 166.515625 C 227.488281 172.46875 227.929688 180.832031 231.140625 187.402344 C 232.722656 190.714844 235.445312 194.367188 235.070312 198.328125 C 234.582031 203.675781 228.777344 205.910156 227.308594 210.28125 C 226.347656 213.101562 227.113281 216.148438 228.84375 218.15625 C 227.472656 216.816406 226.640625 215.058594 226.445312 213.019531 C 225.808594 206.1875 233.503906 203.726562 233.765625 198.230469 C 233.976562 194.773438 231.304688 191.253906 229.722656 188.121094 C 226.101562 180.914062 225.777344 171.929688 230.554688 165.605469 Z M 230.554688 165.589844 " fill-opacity="1" fill-rule="nonzero"/><path fill="#383838" d="M 284.375 175.289062 C 287.226562 178.046875 288.695312 182.382812 287.863281 186.492188 C 286.738281 192.410156 280.851562 196.109375 279.859375 202.046875 C 278.992188 206.742188 282.726562 208.585938 284.261719 212.121094 C 285.042969 214.09375 285.089844 216.621094 283.332031 217.765625 C 284.734375 216.425781 284.4375 214.160156 283.511719 212.464844 C 282.1875 210.035156 279.222656 208.273438 278.4375 205.03125 C 277.65625 201.914062 278.863281 198.734375 280.542969 196.03125 C 282.792969 192.554688 285.582031 189.867188 286.574219 186.199219 C 287.535156 182.59375 286.671875 178.5 284.359375 175.289062 Z M 284.375 175.289062 " fill-opacity="1" fill-rule="nonzero"/><path fill="#fbc5a9" d="M 311.683594 259.765625 L 315.058594 285.820312 L 293.699219 285.820312 L 289.753906 267.199219 Z M 311.683594 259.765625 " fill-opacity="1" fill-rule="nonzero"/><path fill="#ca3253" d="M 292.25 207.328125 C 292.25 207.328125 302.015625 212.808594 306.027344 226.503906 C 310.035156 240.199219 316.851562 259.082031 316.851562 259.082031 C 316.851562 259.082031 290.03125 270.429688 290.210938 269.84375 C 290.390625 269.253906 282.1875 249.640625 282.1875 247.519531 C 282.1875 245.402344 292.265625 207.3125 292.265625 207.3125 Z M 292.25 207.328125 " fill-opacity="1" fill-rule="nonzero"/><path fill="#232033" d="M 283.183594 395.816406 C 292.296875 393.351562 272.488281 318.96875 272.488281 318.96875 L 214.429688 317.796875 C 214.429688 317.796875 193.363281 352.492188 190.511719 361.6875 C 185.636719 377.4375 188.683594 391.136719 200.816406 395.914062 C 230.277344 407.539062 283.183594 395.816406 283.183594 395.816406 Z M 283.183594 395.816406 " fill-opacity="1" fill-rule="nonzero"/><path fill="#232033" d="M 241.65625 398.195312 L 293.765625 398.441406 C 293.765625 398.441406 325.410156 358.070312 315.613281 355.230469 C 303.335938 351.675781 267.207031 349.820312 267.207031 349.820312 C 267.207031 349.820312 202.496094 355.835938 241.640625 398.179688 Z M 241.65625 398.195312 " fill-opacity="1" fill-rule="nonzero"/><path fill="#fbc5a9" d="M 307.589844 354.578125 C 317.570312 354.285156 322.542969 361.605469 323.210938 369.679688 C 323.210938 369.679688 325.6875 391.640625 322.574219 414.710938 C 319.753906 435.566406 315.792969 474.78125 313.753906 502.792969 L 301.347656 502.304688 C 300.710938 493.628906 293.554688 432.730469 291.90625 417.140625 C 288.007812 380.390625 292.835938 355.003906 307.589844 354.5625 Z M 307.589844 354.578125 " fill-opacity="1" fill-rule="nonzero"/><path fill="#fbc5a9" d="M 307.589844 354.578125 C 304.640625 354.578125 285.386719 360.402344 285.386719 360.402344 L 279.402344 398.601562 L 293.503906 398.601562 C 293.503906 398.601562 310.558594 354.578125 307.605469 354.578125 Z M 307.589844 354.578125 " fill-opacity="1" fill-rule="nonzero"/><path fill="#e57075" d="M 293.667969 375.875 C 296.113281 362.894531 293.667969 359.339844 288.957031 359.339844 C 286.820312 359.960938 285.386719 360.402344 285.386719 360.402344 L 279.402344 398.601562 L 288.269531 398.601562 C 288.269531 398.601562 291.238281 388.851562 293.683594 375.875 Z M 293.667969 375.875 " fill-opacity="1" fill-rule="nonzero"/><g clip-path="url(#576a35e6ed)"><path fill="#232033" d="M 296.4375 503.332031 C 296.519531 497.394531 300.824219 496.15625 300.824219 496.15625 L 315.007812 501.03125 C 315.007812 501.03125 338.371094 543.210938 334.851562 544.140625 L 309.613281 544.140625 C 302.339844 544.289062 304.230469 534 301.410156 528.636719 L 301.542969 544.140625 L 298.378906 544.140625 L 296.910156 522.539062 C 296.667969 521.769531 296.503906 521.136719 296.4375 520.644531 C 296.097656 518.101562 296.339844 511.269531 296.4375 503.332031 Z M 296.4375 503.332031 " fill-opacity="1" fill-rule="nonzero"/></g><path fill="#fbc5a9" d="M 312.695312 494.980469 C 313.933594 498.03125 319.230469 509.789062 320.601562 513.519531 C 321.597656 516.261719 323.796875 522.246094 325.363281 526.484375 C 326.226562 528.816406 324.300781 531.226562 321.5 531.308594 L 310.6875 531.636719 L 299.472656 498.734375 C 299.339844 497.769531 299.257812 492.765625 301.640625 491.527344 C 304.019531 490.285156 311.453125 491.949219 312.695312 494.980469 Z M 312.695312 494.980469 " fill-opacity="1" fill-rule="nonzero"/><path fill="#fbc5a9" d="M 277.917969 354.578125 C 287.894531 354.285156 294.417969 359.667969 292.476562 372.140625 C 291.089844 381.074219 287.4375 391.625 284.324219 414.710938 C 281.503906 435.566406 277.542969 474.78125 275.503906 502.792969 L 263.097656 502.304688 C 262.460938 493.628906 255.304688 432.730469 253.65625 417.140625 C 249.761719 380.390625 263.179688 355.003906 277.933594 354.5625 Z M 277.917969 354.578125 " fill-opacity="1" fill-rule="nonzero"/><g clip-path="url(#f55e9165e6)"><path fill="#232033" d="M 258.191406 503.332031 C 258.269531 497.394531 262.574219 496.15625 262.574219 496.15625 L 276.761719 501.03125 C 276.761719 501.03125 300.125 543.210938 296.601562 544.140625 L 271.363281 544.140625 C 264.089844 544.289062 265.984375 534 263.164062 528.636719 L 263.292969 544.140625 L 260.128906 544.140625 L 258.664062 522.539062 C 258.417969 521.769531 258.253906 521.136719 258.191406 520.644531 C 257.847656 518.101562 258.09375 511.269531 258.191406 503.332031 Z M 258.191406 503.332031 " fill-opacity="1" fill-rule="nonzero"/></g><path fill="#fbc5a9" d="M 274.445312 494.980469 C 275.683594 498.03125 280.984375 509.789062 282.351562 513.519531 C 283.347656 516.261719 285.546875 522.246094 287.113281 526.484375 C 287.976562 528.816406 286.054688 531.226562 283.25 531.308594 L 272.4375 531.636719 L 261.222656 498.734375 C 261.089844 497.769531 261.011719 492.765625 263.390625 491.527344 C 265.769531 490.285156 273.207031 491.949219 274.445312 494.980469 Z M 274.445312 494.980469 " fill-opacity="1" fill-rule="nonzero"/><path fill="#ffffff" d="M 292.820312 241.339844 C 291.5 236.855469 283.492188 206.269531 283.492188 206.269531 L 254.472656 199.40625 L 224.40625 204.835938 C 224.40625 204.835938 214.347656 208.386719 213.417969 212.953125 C 211.183594 223.925781 210.957031 269.941406 214.835938 277.210938 C 219.109375 297.511719 212.652344 309.757812 210.84375 327.984375 C 210.84375 327.984375 220.804688 336.039062 230.621094 337.246094 C 240.5 337.914062 258.824219 340.523438 272.894531 338.566406 C 270.839844 317.941406 272.308594 306.542969 280.769531 287.453125 C 286.101562 281.058594 296.832031 254.972656 292.835938 241.355469 Z M 292.820312 241.339844 " fill-opacity="1" fill-rule="nonzero"/><path fill="#dbd9d0" d="M 272.878906 267.414062 C 272.914062 267.558594 272.472656 267.789062 271.640625 268.066406 C 271.429688 268.128906 271.199219 268.210938 270.957031 268.292969 C 270.695312 268.359375 270.417969 268.441406 270.125 268.503906 C 269.519531 268.652344 268.835938 268.816406 268.070312 268.960938 C 267.679688 269.027344 267.289062 269.109375 266.863281 269.175781 C 266.441406 269.238281 266 269.304688 265.542969 269.371094 C 264.628906 269.5 263.652344 269.597656 262.625 269.695312 C 260.570312 269.859375 258.289062 269.941406 255.890625 269.875 C 253.492188 269.808594 251.226562 269.597656 249.191406 269.320312 C 248.164062 269.175781 247.199219 269.027344 246.304688 268.847656 C 245.847656 268.765625 245.421875 268.683594 245 268.585938 C 244.59375 268.488281 244.183594 268.390625 243.808594 268.308594 C 243.042969 268.128906 242.375 267.933594 241.789062 267.753906 C 241.496094 267.65625 241.21875 267.574219 240.972656 267.496094 C 240.726562 267.398438 240.5 267.316406 240.289062 267.234375 C 239.472656 266.90625 239.046875 266.664062 239.097656 266.515625 C 239.277344 265.878906 246.695312 267.445312 255.972656 267.65625 C 265.234375 267.933594 272.75 266.777344 272.878906 267.429688 Z M 272.878906 267.414062 " fill-opacity="1" fill-rule="nonzero"/><path fill="#fbc5a9" d="M 239.03125 200.398438 C 239.03125 200.398438 229.445312 203.433594 230.71875 213.753906 C 231.042969 216.410156 248.734375 240.117188 259.625 240.117188 C 270.515625 240.117188 276.15625 218.660156 276.824219 217.015625 C 277.753906 214.683594 277.214844 212.726562 276.1875 210.441406 C 274.738281 207.214844 268.199219 202.746094 268.199219 202.746094 L 239.03125 200.414062 Z M 239.03125 200.398438 " fill-opacity="1" fill-rule="nonzero"/><path fill="#ffb2a6" d="M 242.226562 200.578125 L 265.152344 204.65625 L 265.347656 195.019531 L 265.691406 179.007812 L 265.707031 178.453125 L 243.191406 176.9375 L 243.171875 177.492188 L 242.847656 185.285156 Z M 242.226562 200.578125 " fill-opacity="1" fill-rule="nonzero"/><path fill="#e57075" d="M 242.847656 185.285156 C 245.734375 189.230469 249.289062 192.769531 254.585938 194.839844 C 259.445312 196.746094 263.210938 197.351562 265.347656 195.003906 L 265.691406 178.992188 L 243.171875 177.472656 L 242.847656 185.269531 Z M 242.847656 185.285156 " fill-opacity="1" fill-rule="nonzero"/><path fill="#fe4565" d="M 202.183594 209.675781 C 202.183594 209.675781 207.988281 250.519531 209.015625 261.609375 C 210.109375 273.363281 213.011719 292.488281 210.828125 305.289062 C 209.03125 315.757812 193.363281 347.878906 193.363281 347.878906 C 193.363281 347.878906 223.152344 353.976562 238.363281 350.421875 C 229.023438 317.777344 240.335938 242.402344 242.210938 199.386719 Z M 202.183594 209.675781 " fill-opacity="1" fill-rule="nonzero"/><path fill="#fe4565" d="M 292.25 207.328125 L 265.199219 200.789062 L 265.199219 202.503906 C 273.839844 249.964844 274.574219 314.125 267.222656 350.4375 C 267.222656 350.4375 284.945312 353.828125 299.519531 352.492188 C 299.519531 352.492188 280.214844 324.578125 281.617188 316.261719 C 283.003906 307.929688 289.964844 279.023438 293.667969 270.28125 C 298.019531 259.945312 292.265625 207.34375 292.265625 207.34375 Z M 292.25 207.328125 " fill-opacity="1" fill-rule="nonzero"/><path fill="#c16900" d="M 337.671875 285.820312 L 266.390625 285.820312 C 264.042969 285.820312 262.019531 287.46875 261.53125 289.75 L 248.113281 352.753906 C 247.460938 355.851562 249.808594 358.753906 252.972656 358.753906 L 325.425781 358.753906 C 327.808594 358.753906 329.847656 357.074219 330.300781 354.726562 L 342.53125 291.722656 C 343.132812 288.660156 340.785156 285.804688 337.65625 285.804688 Z M 337.671875 285.820312 " fill-opacity="1" fill-rule="nonzero"/><path fill="#f68b00" d="M 341.78125 285.820312 L 270.5 285.820312 C 268.152344 285.820312 266.128906 287.46875 265.640625 289.75 L 252.222656 352.753906 C 251.570312 355.851562 253.917969 358.753906 257.082031 358.753906 L 329.535156 358.753906 C 331.917969 358.753906 333.953125 357.074219 334.410156 354.726562 L 346.640625 291.722656 C 347.226562 288.660156 344.894531 285.804688 341.765625 285.804688 Z M 341.78125 285.820312 " fill-opacity="1" fill-rule="nonzero"/><path fill="#c16900" d="M 250.039062 353.371094 L 201.335938 353.371094 C 199.855469 353.371094 198.648438 354.578125 198.648438 356.0625 C 198.648438 357.546875 199.855469 358.753906 201.335938 358.753906 L 250.984375 358.753906 Z M 250.039062 353.371094 " fill-opacity="1" fill-rule="nonzero"/><path fill="#ffffff" d="M 297.644531 320.632812 C 297.644531 324.921875 301.117188 328.394531 305.40625 328.394531 C 309.695312 328.394531 313.167969 324.921875 313.167969 320.632812 C 313.167969 316.34375 309.695312 312.855469 305.40625 312.855469 C 301.117188 312.855469 297.644531 316.328125 297.644531 320.632812 Z M 297.644531 320.632812 " fill-opacity="1" fill-rule="nonzero"/><path fill="#fbc5a9" d="M 225.402344 341.941406 C 225.402344 341.941406 231.027344 348.644531 231.011719 350.863281 L 230.292969 351.757812 L 229.609375 352.621094 C 229.609375 352.621094 224.734375 346.167969 221.503906 345.398438 C 218.277344 344.632812 216.613281 347.160156 214.21875 345.546875 C 211.820312 343.933594 204.09375 339.316406 204.09375 339.316406 C 204.09375 339.316406 204.011719 338.078125 204.320312 336.1875 C 204.777344 333.382812 206.097656 329.046875 209.800781 324.644531 L 210.238281 324.773438 L 230.246094 329.160156 C 230.246094 329.160156 232.753906 329.144531 233.847656 330.464844 C 234.941406 331.800781 241.265625 336.757812 241.265625 336.757812 L 233.898438 347.046875 C 233.898438 347.046875 230.976562 344.4375 229.722656 343.605469 C 228.46875 342.773438 225.402344 341.925781 225.402344 341.925781 Z M 225.402344 341.941406 " fill-opacity="1" fill-rule="nonzero"/><path fill="#ffb2a6" d="M 241.25 336.789062 C 241.25 336.789062 250.085938 342.855469 249.859375 343.996094 C 249.628906 345.140625 239.066406 339.839844 239.066406 339.839844 C 239.066406 339.839844 246.074219 346.558594 244.65625 348.300781 C 243.238281 350.046875 237.042969 342.675781 237.042969 342.675781 C 237.042969 342.675781 241.625 351.285156 240.726562 352.425781 C 239.832031 353.570312 233.878906 347.078125 233.878906 347.078125 Z M 241.25 336.789062 " fill-opacity="1" fill-rule="nonzero"/><path fill="#ee6a4a" d="M 238.234375 339.5625 C 236.667969 337.117188 232.820312 335.828125 232.773438 335.828125 L 233.03125 334.996094 C 233.195312 335.046875 237.222656 336.382812 238.949219 339.089844 L 238.21875 339.5625 Z M 238.234375 339.5625 " fill-opacity="1" fill-rule="nonzero"/><path fill="#ee6a4a" d="M 235.949219 343.199219 C 234.90625 340.539062 230.148438 339.105469 230.097656 339.089844 L 230.34375 338.257812 C 230.554688 338.324219 235.558594 339.824219 236.765625 342.871094 Z M 235.949219 343.199219 " fill-opacity="1" fill-rule="nonzero"/><path fill="#fbc5a9" d="M 173.734375 257.613281 C 173.734375 257.613281 156.597656 290.042969 156.597656 296.535156 C 156.597656 303.023438 204.09375 339.335938 204.09375 339.335938 L 210.238281 324.789062 L 182.898438 292.441406 L 195.679688 270.691406 L 173.75 257.628906 Z M 173.734375 257.613281 " fill-opacity="1" fill-rule="nonzero"/><path fill="#ca3253" d="M 202.183594 209.675781 C 192.207031 214.453125 173.410156 241.929688 168.304688 257.613281 C 172.984375 264.152344 188.703125 275.726562 198.648438 275.46875 C 198.648438 275.46875 216.695312 250.519531 218.390625 237.492188 C 218.390625 237.492188 206.03125 207.835938 202.183594 209.675781 Z M 202.183594 209.675781 " fill-opacity="1" fill-rule="nonzero"/><path fill="#fbc5a9" d="M 260.277344 225.949219 C 264.890625 222.65625 265.886719 208.160156 265.886719 208.160156 L 266.066406 189.929688 L 240.859375 179.871094 C 240.859375 179.871094 242.097656 203.808594 242.945312 208.191406 C 242.945312 208.191406 247.902344 234.769531 260.277344 225.949219 Z M 260.277344 225.949219 " fill-opacity="1" fill-rule="nonzero"/><path fill="#f7a18a" d="M 266.144531 190.046875 C 256.640625 188.9375 244.820312 183.230469 243.09375 182.707031 C 241.363281 182.1875 254.359375 201.261719 265.964844 205.355469 L 266.144531 190.0625 Z M 266.144531 190.046875 " fill-opacity="1" fill-rule="nonzero"/><path fill="#fbc5a9" d="M 267.433594 138.441406 C 267.433594 138.441406 288.433594 180.570312 270.957031 191.253906 C 259.234375 198.410156 239.082031 180.539062 239.082031 180.539062 L 242.148438 170.917969 C 241.101562 169.207031 222.761719 136.613281 267.433594 138.441406 Z M 267.433594 138.441406 " fill-opacity="1" fill-rule="nonzero"/><path fill="#000000" d="M 267.433594 137.820312 C 267.824219 138.832031 268.136719 139.824219 268.378906 140.789062 C 268.511719 141.082031 268.589844 141.390625 268.671875 141.699219 C 268.835938 142.351562 268.984375 143.003906 269.097656 143.65625 C 269.308594 144.945312 269.40625 146.25 269.40625 147.554688 C 269.40625 148.859375 269.292969 150.230469 269.03125 151.53125 C 268.804688 152.773438 268.511719 154.125 267.941406 155.25 C 267.875 155.382812 267.644531 155.332031 267.679688 155.183594 C 267.792969 154.566406 267.988281 153.945312 268.101562 153.34375 C 268.234375 152.722656 268.347656 152.085938 268.445312 151.46875 C 268.558594 150.734375 268.625 149.984375 268.671875 149.25 C 265.476562 164.917969 241.398438 172.84375 241.398438 172.84375 C 241.398438 172.84375 240.90625 167.691406 238.121094 165.765625 C 235.199219 163.746094 229.984375 134.070312 267.433594 137.835938 Z M 267.433594 137.820312 " fill-opacity="1" fill-rule="nonzero"/><path fill="#000000" d="M 269.40625 148.710938 C 269.40625 148.710938 274.574219 157.207031 275.78125 160.957031 C 276.957031 164.609375 277.445312 153.667969 274.964844 148.175781 C 272.488281 142.679688 269.421875 139.371094 267.808594 139.371094 C 266.179688 139.371094 269.40625 148.710938 269.40625 148.710938 Z M 269.40625 148.710938 " fill-opacity="1" fill-rule="nonzero"/><path fill="#f57977" d="M 269.519531 180.410156 C 269.292969 180.410156 269.082031 180.246094 269.046875 180 C 269 179.742188 269.179688 179.480469 269.4375 179.445312 C 269.4375 179.445312 270.726562 179.203125 273.011719 178.046875 C 273.402344 177.847656 273.484375 177.636719 273.5 177.507812 C 273.644531 176.578125 271.867188 174.847656 270.792969 173.820312 C 270.304688 173.347656 269.894531 172.941406 269.652344 172.632812 C 268.558594 171.246094 268.542969 169.042969 268.542969 168.945312 C 268.542969 168.6875 268.753906 168.457031 269.03125 168.457031 C 269.292969 168.457031 269.519531 168.667969 269.519531 168.945312 C 269.519531 168.945312 269.539062 170.902344 270.417969 172.027344 C 270.613281 172.289062 271.019531 172.664062 271.476562 173.121094 C 272.894531 174.507812 274.671875 176.21875 274.460938 177.652344 C 274.414062 178.027344 274.183594 178.550781 273.449219 178.925781 C 271.019531 180.164062 269.667969 180.410156 269.601562 180.410156 C 269.570312 180.410156 269.554688 180.410156 269.519531 180.410156 Z M 269.519531 180.410156 " fill-opacity="1" fill-rule="nonzero"/><path fill="#5b1e13" d="M 263.714844 170.757812 C 263.832031 171.375 263.539062 171.945312 263.046875 172.042969 C 262.558594 172.125 262.085938 171.703125 261.972656 171.082031 C 261.859375 170.464844 262.152344 169.890625 262.640625 169.792969 C 263.128906 169.714844 263.601562 170.136719 263.714844 170.757812 Z M 263.714844 170.757812 " fill-opacity="1" fill-rule="nonzero"/><path fill="#5b1e13" d="M 272.617188 169.925781 C 272.636719 170.5625 272.261719 171.082031 271.769531 171.097656 C 271.28125 171.117188 270.859375 170.609375 270.839844 169.992188 C 270.824219 169.371094 271.199219 168.832031 271.6875 168.816406 C 272.179688 168.816406 272.601562 169.304688 272.617188 169.925781 Z M 272.617188 169.925781 " fill-opacity="1" fill-rule="nonzero"/><path fill="#5b1e13" d="M 260.277344 167.511719 C 260.097656 167.511719 259.917969 167.429688 259.789062 167.300781 C 259.542969 167.023438 259.558594 166.597656 259.835938 166.355469 C 259.933594 166.273438 262.070312 164.347656 264.777344 165.472656 C 265.117188 165.621094 265.28125 166.011719 265.136719 166.355469 C 264.988281 166.695312 264.597656 166.859375 264.253906 166.714844 C 262.347656 165.914062 260.78125 167.300781 260.714844 167.347656 C 260.585938 167.464844 260.421875 167.527344 260.261719 167.527344 Z M 260.277344 167.511719 " fill-opacity="1" fill-rule="nonzero"/><path fill="#5b1e13" d="M 269.601562 166.8125 C 269.40625 166.8125 269.226562 166.730469 269.097656 166.566406 C 268.851562 166.289062 268.886719 165.863281 269.179688 165.621094 C 269.976562 164.9375 272 164.039062 273.957031 165.570312 C 274.25 165.800781 274.296875 166.222656 274.070312 166.515625 C 273.839844 166.8125 273.417969 166.859375 273.125 166.632812 C 271.574219 165.425781 270.1875 166.515625 270.042969 166.648438 C 269.914062 166.746094 269.765625 166.8125 269.617188 166.8125 Z M 269.601562 166.8125 " fill-opacity="1" fill-rule="nonzero"/><path fill="#f3888a" d="M 262.363281 175.761719 C 262.363281 176.9375 260.308594 177.882812 257.765625 177.898438 C 255.222656 177.898438 253.152344 176.96875 253.152344 175.792969 C 253.152344 174.621094 255.207031 173.675781 257.75 173.660156 C 260.292969 173.660156 262.363281 174.589844 262.363281 175.761719 Z M 262.363281 175.761719 " fill-opacity="1" fill-rule="nonzero"/><path fill="#3e2312" d="M 269.945312 182.644531 C 269.945312 182.644531 269.421875 184.777344 268.019531 186.050781 C 267.5 186.523438 266.878906 186.882812 266.128906 186.980469 C 264.566406 187.207031 263.992188 185.921875 263.78125 184.714844 C 263.601562 183.71875 263.699219 182.757812 263.699219 182.757812 C 263.699219 182.757812 266.570312 183.816406 269.945312 182.644531 Z M 269.945312 182.644531 " fill-opacity="1" fill-rule="nonzero"/><path fill="#ef4623" d="M 268.003906 186.050781 C 267.484375 186.523438 266.863281 186.882812 266.113281 186.980469 C 264.546875 187.207031 263.976562 185.921875 263.765625 184.714844 C 265.347656 184.242188 267.269531 184.632812 268.003906 186.050781 Z M 268.003906 186.050781 " fill-opacity="1" fill-rule="nonzero"/><path fill="#eef6f9" d="M 261.53125 177.652344 C 260.082031 177.652344 258.695312 177.050781 257.636719 175.957031 C 256.527344 174.816406 255.875 173.269531 255.808594 171.589844 C 255.742188 169.910156 256.265625 168.328125 257.292969 167.089844 C 258.320312 165.847656 259.722656 165.132812 261.253906 165.066406 C 264.386719 164.9375 267.058594 167.660156 267.207031 171.132812 C 267.269531 172.8125 266.75 174.394531 265.722656 175.632812 C 264.695312 176.871094 263.292969 177.589844 261.761719 177.652344 C 261.695312 177.652344 261.613281 177.652344 261.546875 177.652344 Z M 261.449219 165.863281 C 261.449219 165.863281 261.335938 165.863281 261.269531 165.863281 C 259.964844 165.914062 258.761719 166.535156 257.878906 167.59375 C 256.984375 168.667969 256.527344 170.070312 256.574219 171.554688 C 256.640625 173.039062 257.210938 174.394531 258.191406 175.402344 C 259.152344 176.398438 260.40625 176.917969 261.710938 176.855469 C 263.015625 176.804688 264.222656 176.1875 265.101562 175.125 C 266 174.050781 266.457031 172.648438 266.40625 171.164062 C 266.292969 168.195312 264.089844 165.847656 261.449219 165.847656 Z M 261.449219 165.863281 " fill-opacity="1" fill-rule="nonzero"/><path fill="#eef6f9" d="M 275.4375 176.527344 C 272.539062 176.527344 270.089844 173.984375 269.976562 170.757812 C 269.914062 169.160156 270.417969 167.640625 271.378906 166.46875 C 272.359375 165.277344 273.710938 164.609375 275.164062 164.542969 C 276.613281 164.480469 278.015625 165.066406 279.089844 166.160156 C 280.152344 167.25 280.769531 168.71875 280.835938 170.316406 C 280.902344 171.914062 280.394531 173.429688 279.433594 174.605469 C 278.457031 175.792969 277.101562 176.464844 275.652344 176.527344 C 275.585938 176.527344 275.519531 176.527344 275.457031 176.527344 Z M 275.375 165.328125 C 275.375 165.328125 275.261719 165.328125 275.210938 165.328125 C 273.972656 165.375 272.832031 165.964844 272 166.972656 C 271.152344 168 270.710938 169.320312 270.777344 170.722656 C 270.890625 173.59375 273.074219 175.84375 275.636719 175.746094 C 276.875 175.695312 278.015625 175.109375 278.847656 174.097656 C 279.695312 173.070312 280.136719 171.75 280.070312 170.347656 C 280.019531 168.945312 279.464844 167.660156 278.554688 166.714844 C 277.671875 165.816406 276.5625 165.328125 275.390625 165.328125 Z M 275.375 165.328125 " fill-opacity="1" fill-rule="nonzero"/><path fill="#eef6f9" d="M 266.894531 170.609375 C 266.765625 170.609375 266.617188 170.542969 266.554688 170.414062 C 266.457031 170.21875 266.519531 169.992188 266.699219 169.875 C 266.816406 169.8125 269.390625 168.375 270.664062 169.84375 C 270.808594 170.007812 270.792969 170.25 270.628906 170.398438 C 270.464844 170.542969 270.222656 170.527344 270.074219 170.367188 C 269.242188 169.402344 267.109375 170.5625 267.089844 170.5625 C 267.027344 170.59375 266.960938 170.609375 266.894531 170.609375 Z M 266.894531 170.609375 " fill-opacity="1" fill-rule="nonzero"/><path fill="#eef6f9" d="M 243.777344 172.257812 C 243.582031 172.257812 243.417969 172.109375 243.386719 171.914062 C 243.351562 171.703125 243.5 171.507812 243.726562 171.472656 L 256.25 169.746094 C 256.460938 169.714844 256.65625 169.859375 256.691406 170.089844 C 256.722656 170.300781 256.574219 170.496094 256.347656 170.527344 L 243.824219 172.257812 C 243.824219 172.257812 243.792969 172.257812 243.777344 172.257812 Z M 243.777344 172.257812 " fill-opacity="1" fill-rule="nonzero"/><path fill="#fbc5a9" d="M 233.734375 178.289062 C 236.292969 181.324219 240.351562 182.089844 242.832031 180.019531 C 245.292969 177.929688 245.226562 173.789062 242.683594 170.773438 C 240.125 167.738281 236.066406 166.972656 233.585938 169.042969 C 231.109375 171.117188 231.191406 175.273438 233.734375 178.289062 Z M 233.734375 178.289062 " fill-opacity="1" fill-rule="nonzero"/><path fill="#f7a18a" d="M 241.023438 176.542969 C 240.941406 176.542969 240.859375 176.511719 240.792969 176.445312 L 235.460938 170.886719 C 235.347656 170.757812 235.347656 170.5625 235.460938 170.445312 C 235.59375 170.332031 235.789062 170.332031 235.902344 170.445312 L 241.234375 176.007812 C 241.347656 176.136719 241.347656 176.332031 241.234375 176.445312 C 241.167969 176.511719 241.085938 176.527344 241.023438 176.527344 Z M 241.023438 176.542969 " fill-opacity="1" fill-rule="nonzero"/><path fill="#f7a18a" d="M 235.691406 175.5 C 235.59375 175.5 235.496094 175.453125 235.429688 175.355469 C 235.332031 175.207031 235.378906 175.011719 235.511719 174.914062 L 238.167969 173.152344 C 238.316406 173.054688 238.511719 173.105469 238.609375 173.234375 C 238.707031 173.367188 238.65625 173.578125 238.527344 173.675781 L 235.871094 175.4375 C 235.871094 175.4375 235.753906 175.484375 235.691406 175.484375 Z M 235.691406 175.5 " fill-opacity="1" fill-rule="nonzero"/><path fill="#383838" d="M 265.804688 142.238281 C 265.804688 142.238281 261.304688 157.746094 247.917969 160.925781 C 247.917969 160.925781 252.222656 158.152344 254.617188 149.28125 C 254.617188 149.28125 244.511719 156.148438 233.488281 153.507812 C 233.488281 153.507812 255.09375 149.96875 260.390625 137.25 C 260.390625 137.25 260.308594 143.59375 258.859375 148.613281 C 258.859375 148.613281 263.308594 145.550781 265.820312 142.238281 Z M 265.804688 142.238281 " fill-opacity="1" fill-rule="nonzero"/><g clip-path="url(#9923c6f5c8)"><path fill="#64a9c6" d="M 719.664062 286.375 C 717.480469 306.285156 710.910156 322.867188 701.503906 336.644531 C 683.570312 362.910156 655.328125 378.9375 627.597656 388.347656 C 604.867188 396.058594 582.46875 399.304688 566.375 400.101562 C 563.554688 400.25 560.945312 400.316406 558.550781 400.316406 C 556.28125 400.316406 554.230469 400.265625 552.402344 400.152344 C 516.828125 398.097656 459.648438 387.90625 454.171875 339.15625 C 452.246094 321.96875 458.3125 309.234375 466.96875 299.972656 C 482.882812 282.953125 507.550781 277.570312 507.550781 277.570312 C 507.550781 277.570312 549.761719 214.390625 584.128906 183.375 C 584.128906 183.359375 584.164062 183.34375 584.179688 183.34375 C 592.671875 175.679688 600.679688 169.992188 607.460938 167.707031 C 633.660156 158.902344 691.964844 174.75 712.914062 227.398438 C 719.324219 243.507812 722.242188 263.058594 719.664062 286.390625 Z M 719.664062 286.375 " fill-opacity="1" fill-rule="nonzero"/></g><path fill="#4f9ab7" d="M 636.367188 195.914062 C 636.367188 195.914062 678.367188 199.175781 666.710938 240.804688 C 655.054688 282.429688 636.464844 282.003906 626.519531 310.71875 C 616.589844 339.433594 522.011719 343.851562 522.011719 343.851562 C 522.011719 343.851562 480.859375 345.367188 493.21875 316.425781 C 505.578125 287.484375 485.066406 283.472656 485.066406 283.472656 L 531.125 255.722656 L 560.328125 226.8125 Z M 636.367188 195.914062 " fill-opacity="1" fill-rule="nonzero"/><path fill="#76c2dd" d="M 712.898438 227.382812 C 694.980469 187.761719 660.253906 176.105469 632 171.492188 C 604.527344 166.988281 585.191406 182.464844 584.164062 183.3125 C 592.65625 175.648438 600.664062 169.957031 607.445312 167.675781 C 633.644531 158.871094 691.949219 174.71875 712.898438 227.367188 Z M 712.898438 227.382812 " fill-opacity="1" fill-rule="nonzero"/><path fill="#76c2dd" d="M 568.332031 400.300781 L 558.550781 400.300781 C 556.28125 400.300781 554.230469 400.25 552.402344 400.136719 C 516.828125 398.082031 459.648438 387.890625 454.171875 339.140625 C 452.246094 321.953125 458.3125 309.21875 466.96875 299.957031 L 466.984375 299.957031 C 466.609375 300.542969 446.378906 332.273438 474.535156 363.238281 C 500.035156 391.296875 555.304688 398.847656 566.375 400.101562 C 567.648438 400.25 568.332031 400.316406 568.332031 400.316406 Z M 568.332031 400.300781 " fill-opacity="1" fill-rule="nonzero"/><path fill="#7a452d" d="M 537.875 218.628906 L 519.402344 250.539062 L 545.425781 255.722656 L 563.066406 228.703125 Z M 537.875 218.628906 " fill-opacity="1" fill-rule="nonzero"/><path fill="#681e37" d="M 604.117188 80.800781 C 604.117188 80.800781 580.609375 78.289062 572.996094 103.613281 C 567.433594 122.039062 567.828125 148.191406 564.746094 152.804688 C 564.746094 152.804688 581.097656 156.605469 593.914062 155.984375 C 606.726562 155.382812 604.117188 80.785156 604.117188 80.785156 Z M 604.117188 80.800781 " fill-opacity="1" fill-rule="nonzero"/><path fill="#561931" d="M 581.898438 93.617188 C 581.898438 93.617188 575.847656 104.035156 574.933594 125.835938 C 574.28125 141.148438 570.695312 149.640625 570.695312 149.640625 C 570.695312 149.640625 584.796875 153.765625 593.261719 153.097656 C 601.722656 152.429688 581.898438 93.617188 581.898438 93.617188 Z M 581.898438 93.617188 " fill-opacity="1" fill-rule="nonzero"/><path fill="#9b5f41" d="M 613.867188 159.847656 C 603.792969 161.660156 595.789062 174.832031 588.289062 173.804688 C 580.789062 172.761719 589.332031 159.328125 589.332031 159.328125 C 589.691406 158.429688 589.984375 157.238281 590.210938 155.917969 C 590.996094 151.53125 591.140625 145.890625 591.140625 145.890625 C 595.019531 136.074219 613.609375 131.019531 613.609375 131.019531 L 613.769531 148.402344 Z M 613.867188 159.847656 " fill-opacity="1" fill-rule="nonzero"/><path fill="#7a452d" d="M 613.753906 148.402344 C 610.640625 150.277344 604.214844 156.113281 598.671875 158.152344 C 590.261719 161.21875 590.195312 155.953125 590.195312 155.953125 C 590.976562 151.550781 591.125 145.90625 591.125 145.90625 C 595.003906 136.09375 613.589844 131.039062 613.589844 131.039062 L 613.753906 148.417969 Z M 613.753906 148.402344 " fill-opacity="1" fill-rule="nonzero"/><path fill="#9b5f41" d="M 613.625 129.699219 L 613.296875 133.433594 L 611.339844 137.835938 C 609.027344 141.148438 604.085938 146.121094 597.84375 148.273438 C 591.5 150.457031 583.511719 150.246094 578.03125 146.101562 C 573.941406 143.023438 572.832031 137.542969 572.914062 130.726562 C 572.960938 126.421875 573.53125 121.824219 574.28125 117.585938 C 575.765625 109.042969 577.949219 102 577.949219 102 C 577.949219 102 578.734375 98.132812 581.699219 94.335938 C 587.457031 88.90625 591.335938 92.949219 591.335938 92.949219 C 591.335938 92.949219 599.144531 90.160156 603.09375 97.125 C 605.765625 101.820312 604.949219 127.988281 613.625 129.699219 Z M 613.625 129.699219 " fill-opacity="1" fill-rule="nonzero"/><g clip-path="url(#c646501423)"><path fill="#7b2840" d="M 650.945312 151.222656 C 644.945312 156.847656 636.9375 156.457031 636.9375 156.457031 C 634.28125 154.5 632.878906 150.75 632.878906 150.75 C 632.015625 153.359375 632.226562 158.085938 632.226562 158.085938 C 623.390625 160.140625 611.292969 156.246094 611.292969 156.246094 L 611.796875 150.441406 L 613.625 129.683594 C 604.949219 127.972656 605.765625 101.800781 603.09375 97.105469 C 599.128906 90.144531 591.335938 92.933594 591.335938 92.933594 C 591.335938 92.933594 591.253906 92.835938 591.074219 92.703125 C 590.128906 91.921875 586.574219 89.6875 581.683594 94.320312 C 581.683594 94.320312 585.792969 78.175781 600.582031 80.265625 C 600.90625 80.3125 601.21875 80.363281 601.527344 80.410156 C 637.363281 75.585938 641.015625 113.738281 641.488281 126.292969 C 641.960938 138.929688 650.945312 151.207031 650.945312 151.207031 Z M 650.945312 151.222656 " fill-opacity="1" fill-rule="nonzero"/></g><path fill="#7a452d" d="M 583.265625 130.808594 C 581.359375 130.644531 580.28125 130.191406 579.90625 129.421875 C 579.433594 128.445312 580.167969 127.351562 580.886719 126.292969 C 581 126.128906 581.113281 125.949219 581.226562 125.789062 C 582.386719 124.011719 583.804688 119.347656 583.820312 119.296875 C 583.886719 119.054688 584.148438 118.921875 584.375 119.003906 C 584.621094 119.070312 584.75 119.332031 584.667969 119.558594 C 584.601562 119.753906 583.183594 124.386719 581.960938 126.277344 C 581.847656 126.441406 581.734375 126.617188 581.621094 126.796875 C 581.066406 127.613281 580.445312 128.527344 580.691406 129.03125 C 580.820312 129.308594 581.375 129.796875 583.65625 129.945312 C 583.933594 129.976562 584.097656 130.171875 584.082031 130.417969 C 584.066406 130.664062 583.851562 130.859375 583.609375 130.84375 C 583.496094 130.84375 583.363281 130.824219 583.25 130.808594 Z M 583.265625 130.808594 " fill-opacity="1" fill-rule="nonzero"/><path fill="#4f1919" d="M 580.167969 118.109375 C 581.195312 118.058594 581.960938 116.933594 581.898438 115.582031 C 581.832031 114.242188 580.949219 113.199219 579.921875 113.25 C 579.484375 113.28125 579.074219 113.507812 578.78125 113.882812 C 578.503906 113.753906 578.097656 113.492188 577.933594 112.972656 C 577.933594 112.972656 577.96875 113.949219 578.40625 114.554688 C 578.261719 114.910156 578.195312 115.335938 578.210938 115.792969 C 578.277344 117.128906 579.15625 118.171875 580.183594 118.125 Z M 580.167969 118.109375 " fill-opacity="1" fill-rule="nonzero"/><path fill="#4f1919" d="M 594.777344 120.667969 C 593.832031 120.261719 593.503906 118.9375 594.042969 117.699219 C 594.566406 116.476562 595.753906 115.808594 596.699219 116.199219 C 597.109375 116.378906 597.402344 116.738281 597.546875 117.195312 C 597.84375 117.160156 598.332031 117.0625 598.671875 116.625 C 598.671875 116.625 598.296875 117.535156 597.679688 117.945312 C 597.679688 118.335938 597.613281 118.761719 597.433594 119.167969 C 596.894531 120.40625 595.707031 121.074219 594.777344 120.667969 Z M 594.777344 120.667969 " fill-opacity="1" fill-rule="nonzero"/><path fill="#791e38" d="M 594.921875 107.558594 C 594.921875 107.558594 599.242188 105.878906 601.625 109.988281 C 604.003906 114.097656 601.085938 111.488281 599.03125 110.347656 C 596.976562 109.207031 593.914062 108.910156 594.941406 107.558594 Z M 594.921875 107.558594 " fill-opacity="1" fill-rule="nonzero"/><path fill="#791e38" d="M 584.082031 105.878906 C 584.082031 105.878906 581.421875 103.125 578.40625 105.257812 C 575.40625 107.394531 578.34375 106.53125 580.199219 106.449219 C 582.058594 106.351562 584.40625 107.230469 584.082031 105.878906 Z M 584.082031 105.878906 " fill-opacity="1" fill-rule="nonzero"/><path fill="#7a452d" d="M 605.242188 121.574219 C 605.644531 121.832031 606.015625 122.136719 606.351562 122.476562 C 606.691406 122.820312 606.988281 123.195312 607.25 123.609375 C 607.507812 124.019531 607.726562 124.457031 607.898438 124.921875 C 608.074219 125.386719 608.199219 125.871094 608.277344 126.371094 C 608.359375 126.871094 608.390625 127.378906 608.371094 127.894531 C 608.355469 128.410156 608.289062 128.925781 608.175781 129.4375 C 608.0625 129.953125 607.902344 130.453125 607.695312 130.945312 C 607.492188 131.433594 607.242188 131.902344 606.953125 132.351562 C 606.664062 132.796875 606.339844 133.214844 605.976562 133.605469 C 605.613281 133.992188 605.222656 134.34375 604.800781 134.65625 C 604.378906 134.972656 603.9375 135.242188 603.472656 135.472656 C 603.007812 135.699219 602.53125 135.878906 602.042969 136.011719 C 601.554688 136.144531 601.0625 136.226562 600.566406 136.261719 C 600.074219 136.292969 599.585938 136.273438 599.101562 136.207031 C 598.621094 136.136719 598.15625 136.019531 597.703125 135.851562 C 597.253906 135.683594 596.828125 135.46875 596.425781 135.210938 C 596.023438 134.949219 595.652344 134.648438 595.316406 134.308594 C 594.976562 133.964844 594.679688 133.589844 594.417969 133.175781 C 594.160156 132.765625 593.941406 132.328125 593.769531 131.863281 C 593.59375 131.398438 593.46875 130.914062 593.390625 130.414062 C 593.308594 129.914062 593.277344 129.40625 593.296875 128.890625 C 593.3125 128.375 593.378906 127.859375 593.492188 127.34375 C 593.605469 126.832031 593.765625 126.332031 593.972656 125.839844 C 594.175781 125.351562 594.425781 124.882812 594.714844 124.433594 C 595.003906 123.988281 595.328125 123.570312 595.691406 123.179688 C 596.054688 122.792969 596.445312 122.441406 596.867188 122.125 C 597.289062 121.8125 597.730469 121.542969 598.195312 121.3125 C 598.660156 121.085938 599.136719 120.90625 599.625 120.773438 C 600.113281 120.640625 600.605469 120.558594 601.101562 120.523438 C 601.59375 120.492188 602.082031 120.511719 602.566406 120.578125 C 603.046875 120.648438 603.511719 120.765625 603.964844 120.933594 C 604.414062 121.101562 604.839844 121.3125 605.242188 121.574219 Z M 605.242188 121.574219 " fill-opacity="1" fill-rule="nonzero"/><path fill="#7a452d" d="M 575.554688 128.101562 C 574.835938 129.210938 573.90625 130.109375 572.878906 130.761719 C 572.929688 126.457031 573.5 121.859375 574.25 117.617188 C 577.265625 119.933594 577.871094 124.5 575.539062 128.101562 Z M 575.554688 128.101562 " fill-opacity="1" fill-rule="nonzero"/><path fill="#9f3e5e" d="M 643.085938 149.640625 C 643.085938 149.640625 641.210938 150.847656 638 151.890625 C 638 151.890625 630.808594 145.777344 630.207031 142.628906 C 630.207031 142.628906 629.929688 147.488281 630.761719 153.097656 C 630.761719 153.097656 618.890625 153.441406 611.796875 150.472656 L 613.609375 129.878906 L 613.609375 129.734375 C 604.949219 128.019531 605.765625 101.851562 603.074219 97.15625 C 599.113281 90.195312 591.320312 92.980469 591.320312 92.980469 C 591.320312 92.980469 591.238281 92.882812 591.058594 92.753906 C 593.667969 89.214844 599.503906 84.160156 599.503906 84.160156 C 599.503906 84.160156 609.664062 79.203125 620.472656 88.140625 C 637.984375 102.617188 632.667969 131.054688 643.070312 149.675781 Z M 643.085938 149.640625 " fill-opacity="1" fill-rule="nonzero"/><path fill="#7b2840" d="M 613.625 129.863281 L 613.625 129.71875 C 604.964844 128.003906 605.78125 101.835938 603.09375 97.140625 C 599.128906 90.175781 591.335938 92.964844 591.335938 92.964844 C 591.335938 92.964844 591.253906 92.867188 591.074219 92.738281 C 591.074219 92.738281 597.566406 87.601562 603.320312 91.515625 C 609.074219 95.425781 608.832031 120.976562 615.726562 123.097656 C 619.804688 124.351562 616.769531 127.5 613.609375 129.863281 Z M 613.625 129.863281 " fill-opacity="1" fill-rule="nonzero"/><path fill="#7b2840" d="M 614.8125 95.148438 C 614.8125 95.148438 623.570312 108.714844 623.4375 124.1875 C 623.308594 139.679688 622.003906 152.886719 624.613281 155.933594 L 618.335938 154.550781 C 618.335938 154.550781 618.464844 144.703125 619.707031 126.734375 C 620.945312 108.765625 614.8125 95.132812 614.8125 95.132812 Z M 614.8125 95.148438 " fill-opacity="1" fill-rule="nonzero"/><path fill="#9b5f41" d="M 620.84375 120.910156 C 621.265625 121.078125 621.664062 121.296875 622.035156 121.570312 C 622.40625 121.839844 622.746094 122.15625 623.050781 122.519531 C 623.359375 122.878906 623.628906 123.28125 623.859375 123.722656 C 624.089844 124.164062 624.277344 124.636719 624.425781 125.136719 C 624.570312 125.640625 624.671875 126.160156 624.726562 126.707031 C 624.78125 127.25 624.789062 127.804688 624.75 128.371094 C 624.714844 128.933594 624.628906 129.5 624.5 130.0625 C 624.371094 130.628906 624.199219 131.183594 623.984375 131.722656 C 623.769531 132.265625 623.511719 132.785156 623.21875 133.285156 C 622.925781 133.785156 622.597656 134.253906 622.238281 134.6875 C 621.878906 135.125 621.488281 135.523438 621.078125 135.878906 C 620.664062 136.238281 620.230469 136.550781 619.78125 136.8125 C 619.328125 137.078125 618.867188 137.292969 618.398438 137.453125 C 617.925781 137.617188 617.457031 137.722656 616.984375 137.773438 C 616.511719 137.828125 616.046875 137.824219 615.59375 137.765625 C 615.136719 137.707031 614.699219 137.59375 614.277344 137.425781 C 613.855469 137.257812 613.457031 137.039062 613.085938 136.769531 C 612.714844 136.5 612.375 136.183594 612.066406 135.820312 C 611.761719 135.457031 611.492188 135.054688 611.261719 134.613281 C 611.03125 134.175781 610.839844 133.703125 610.695312 133.199219 C 610.550781 132.699219 610.449219 132.175781 610.394531 131.632812 C 610.339844 131.085938 610.332031 130.53125 610.367188 129.96875 C 610.40625 129.402344 610.488281 128.839844 610.621094 128.273438 C 610.75 127.710938 610.921875 127.15625 611.136719 126.613281 C 611.351562 126.070312 611.605469 125.550781 611.902344 125.050781 C 612.195312 124.554688 612.523438 124.085938 612.882812 123.648438 C 613.242188 123.210938 613.628906 122.8125 614.042969 122.457031 C 614.457031 122.097656 614.890625 121.789062 615.339844 121.523438 C 615.789062 121.257812 616.25 121.046875 616.722656 120.882812 C 617.191406 120.722656 617.664062 120.613281 618.136719 120.5625 C 618.609375 120.511719 619.070312 120.511719 619.527344 120.570312 C 619.984375 120.628906 620.421875 120.742188 620.84375 120.910156 Z M 620.84375 120.910156 " fill-opacity="1" fill-rule="nonzero"/><path fill="#7a452d" d="M 614.75 133.824219 C 614.585938 133.824219 614.457031 133.710938 614.421875 133.546875 C 613.394531 127.546875 617.796875 125.054688 617.847656 125.019531 C 618.011719 124.941406 618.207031 124.988281 618.304688 125.152344 C 618.386719 125.316406 618.335938 125.511719 618.171875 125.609375 C 618.011719 125.707031 614.144531 127.90625 615.089844 133.433594 C 615.125 133.613281 614.992188 133.792969 614.8125 133.808594 C 614.796875 133.808594 614.78125 133.808594 614.765625 133.808594 Z M 614.75 133.824219 " fill-opacity="1" fill-rule="nonzero"/><path fill="#dc4460" d="M 582.191406 134.96875 C 582.191406 134.96875 585.988281 134.769531 591.320312 135.765625 C 591.320312 135.765625 589.917969 140.085938 586.234375 140.136719 C 582.546875 140.183594 582.191406 134.96875 582.191406 134.96875 Z M 582.191406 134.96875 " fill-opacity="1" fill-rule="nonzero"/><path fill="#9b5f41" d="M 519.402344 251.972656 L 516.875 272.664062 L 514.820312 289.488281 L 497.898438 285.804688 L 497.898438 297.640625 C 497.898438 304.246094 496.269531 310.6875 493.203125 316.410156 C 492.796875 317.191406 492.339844 317.976562 491.867188 318.742188 C 490.234375 321.367188 488.277344 323.828125 486.046875 326.046875 L 457.203125 354.613281 C 457.203125 354.613281 461.785156 332.324219 466.074219 310.703125 C 469.804688 291.820312 472.9375 273.398438 473.3125 270.886719 C 474.535156 262.585938 477.976562 255.804688 477.976562 255.804688 C 490.070312 243.6875 519.402344 251.957031 519.402344 251.957031 Z M 519.402344 251.972656 " fill-opacity="1" fill-rule="nonzero"/><path fill="#7a452d" d="M 516.875 272.664062 L 514.820312 289.488281 L 497.898438 285.804688 L 497.898438 297.640625 C 497.898438 304.246094 496.269531 310.6875 493.203125 316.410156 C 487.742188 316.050781 471.175781 327.628906 471.941406 318.480469 C 473.082031 304.507812 478.121094 291.363281 480.421875 283.425781 C 481.839844 278.53125 491.261719 275.746094 497.605469 276.789062 C 502.59375 277.605469 494.816406 258.851562 494.671875 258.492188 L 516.890625 272.664062 Z M 516.875 272.664062 " fill-opacity="1" fill-rule="nonzero"/><path fill="#43649e" d="M 491.882812 318.757812 C 490.25 321.398438 488.296875 323.84375 486.0625 326.0625 L 457.203125 354.628906 C 457.203125 354.628906 461.785156 332.339844 466.074219 310.71875 C 470.082031 312.96875 479.230469 317.339844 491.882812 318.757812 Z M 491.882812 318.757812 " fill-opacity="1" fill-rule="nonzero"/><path fill="#9b5f41" d="M 551.945312 327.609375 C 551.78125 329.078125 551.636719 329.925781 551.636719 329.925781 L 509.898438 330.351562 C 505.542969 330.398438 501.746094 333.234375 500.457031 337.394531 C 499.25 341.292969 497.554688 346.71875 495.371094 353.40625 C 494.539062 355.980469 493.625 358.738281 492.664062 361.671875 C 492.5 362.179688 492.304688 362.714844 492.09375 363.238281 C 484.609375 382.886719 455.476562 417.191406 455.476562 417.191406 C 455.476562 417.191406 455.476562 432.0625 448.039062 435.535156 C 440.605469 439.007812 432.175781 450.40625 420.78125 453.386719 C 409.382812 456.355469 398.964844 451.886719 394.007812 448.921875 C 389.050781 445.953125 381.128906 444.957031 381.617188 439.511719 C 382.105469 434.066406 397.988281 430.59375 402.925781 428.097656 C 407.882812 425.621094 436.136719 409.265625 436.136719 409.265625 C 436.136719 409.265625 450.46875 371.113281 463.398438 339.15625 C 471.566406 318.96875 479.164062 301.261719 482.230469 297.234375 C 490.171875 286.816406 533.800781 283.457031 533.800781 283.457031 C 554.503906 289.882812 552.875 319.148438 551.945312 327.644531 Z M 551.945312 327.609375 " fill-opacity="1" fill-rule="nonzero"/><path fill="#7a452d" d="M 551.945312 327.609375 C 551.78125 329.078125 551.636719 329.925781 551.636719 329.925781 L 509.898438 330.351562 C 505.542969 330.398438 501.746094 333.234375 500.457031 337.394531 C 499.25 341.292969 497.554688 346.71875 495.371094 353.40625 C 494.539062 355.980469 493.625 358.738281 492.664062 361.671875 C 492.5 362.179688 492.304688 362.714844 492.09375 363.238281 C 492.09375 363.238281 494.375 348.496094 497.605469 335.664062 C 499.9375 326.355469 514.316406 322.34375 522.0625 320.828125 C 525.175781 320.226562 527.179688 317.242188 526.660156 314.109375 C 525.042969 304.554688 519.125 293.304688 518.914062 292.898438 L 551.960938 327.609375 Z M 551.945312 327.609375 " fill-opacity="1" fill-rule="nonzero"/><path fill="#fe973a" d="M 650.257812 217.226562 C 650.257812 217.226562 649.3125 217.453125 648.125 217.960938 C 647.195312 218.367188 646.117188 218.9375 645.253906 219.703125 C 643.085938 221.613281 639.660156 223.519531 634.835938 223.113281 C 625.6875 222.328125 615.628906 216.65625 612.042969 221.773438 C 612.011719 221.808594 611.992188 221.839844 611.960938 221.871094 C 611.960938 221.871094 611.976562 221.9375 612.011719 222.050781 C 612.710938 224.953125 621.515625 261.316406 624.15625 277.390625 C 624.5 279.445312 624.742188 281.15625 624.839844 282.445312 C 625.820312 294.203125 620.339844 304.964844 610.542969 312.203125 C 600.742188 319.457031 597.027344 318.089844 579.792969 337.65625 C 579.792969 337.65625 569.210938 340.589844 558.648438 341.175781 C 558.648438 341.175781 546.890625 343.328125 544.738281 346.851562 C 544.738281 346.851562 538.085938 345.871094 535.917969 330.59375 C 535.234375 325.769531 533.554688 319.734375 531.191406 313.734375 C 526.953125 302.972656 520.496094 292.292969 513.550781 288.757812 C 512.082031 288.007812 510.597656 287.566406 509.097656 287.535156 C 509.097656 287.535156 506.75 286.75 507.339844 282.835938 C 507.632812 280.898438 505.804688 273.789062 501.011719 267.332031 C 496.429688 261.152344 489.144531 255.558594 478.382812 255.625 C 477.648438 255.625 477.304688 254.742188 477.859375 254.253906 C 480.304688 252.152344 484.855469 248.449219 487.367188 247.78125 C 498.566406 244.796875 519.289062 248.875 539.261719 251.957031 L 546.371094 251.957031 C 550.152344 251.957031 553.773438 250.503906 556.527344 247.910156 C 557.375 247.097656 558.140625 246.296875 558.648438 245.644531 C 560.40625 243.296875 560.015625 230.367188 560.015625 230.367188 C 560.015625 230.367188 543.859375 229.273438 534.808594 218.023438 C 534.453125 217.585938 534.109375 217.144531 533.785156 216.671875 C 533.785156 216.671875 530.164062 214.4375 528.484375 210.703125 C 527.734375 209.007812 527.359375 206.984375 527.914062 204.71875 C 527.914062 204.71875 530.425781 203.15625 534.011719 200.546875 C 534.957031 199.859375 535.984375 199.109375 537.058594 198.28125 C 543.027344 193.714844 550.511719 187.257812 554.929688 180.621094 C 563.148438 168.292969 564.726562 164.773438 572.75 162.410156 C 580.773438 160.058594 589.296875 159.328125 589.296875 159.328125 C 589.296875 159.328125 583.039062 173.054688 588.269531 173.804688 C 588.269531 173.804688 591.761719 175.648438 599.292969 168.539062 C 606.824219 161.429688 614.847656 156.34375 627.972656 157.125 C 631.558594 157.335938 634.6875 158.773438 637.332031 161.300781 C 644.355469 168 647.894531 182.382812 647.308594 201.800781 C 647.308594 201.800781 647.910156 212.742188 650.257812 217.242188 Z M 650.257812 217.226562 " fill-opacity="1" fill-rule="nonzero"/><path fill="#ff811a" d="M 573.761719 178.402344 C 573.761719 178.402344 565.691406 196.144531 556.105469 200.660156 C 546.515625 205.175781 545.277344 226.160156 545.277344 226.160156 C 545.277344 226.160156 550.398438 229.847656 560.03125 230.351562 L 559.070312 222.085938 C 558.207031 214.765625 559.773438 207.34375 563.503906 200.984375 C 567.941406 193.421875 573.351562 183.296875 573.777344 178.386719 Z M 573.761719 178.402344 " fill-opacity="1" fill-rule="nonzero"/><path fill="#f26600" d="M 600.84375 255.722656 C 608.457031 249.363281 610.214844 243.882812 612.140625 221.53125 C 612.140625 221.53125 614.390625 197.984375 615.089844 183.621094 C 615.972656 165.507812 626.519531 162 626.519531 162 C 626.519531 162 612.402344 164.820312 609.304688 183.359375 C 606.222656 201.898438 604.378906 215.367188 593.78125 216.085938 C 583.183594 216.785156 560.71875 216.183594 560.71875 216.183594 C 560.71875 216.183594 557.308594 211.273438 559.902344 232.015625 C 559.902344 232.015625 560.210938 236.285156 559.789062 240.6875 C 559.789062 240.6875 561.46875 240.753906 563.195312 242.546875 C 564.347656 243.742188 564.347656 243.742188 563.195312 242.546875 C 567.824219 250.472656 576.515625 255.25 584.554688 257.125 C 588.304688 262.914062 598.316406 277.277344 607.039062 280.570312 C 618.042969 284.730469 624.140625 277.425781 624.140625 277.425781 L 599.570312 256.570312 C 600.027344 256.324219 600.449219 256.046875 600.824219 255.738281 Z M 600.84375 255.722656 " fill-opacity="1" fill-rule="nonzero"/><path fill="#7a452d" d="M 535.738281 207.378906 C 535.738281 207.378906 539.960938 202.242188 544.542969 201.882812 C 549.125 201.523438 551.425781 205.828125 551.425781 205.828125 L 538.347656 208.339844 Z M 535.738281 207.378906 " fill-opacity="1" fill-rule="nonzero"/><path fill="#7a452d" d="M 531.175781 210.933594 L 518.164062 211.730469 L 506.390625 206.285156 C 506.390625 206.285156 506.980469 203.855469 510.910156 204.914062 C 510.910156 204.914062 513.566406 203.921875 516.222656 204.636719 C 518.882812 205.355469 529.984375 206.886719 529.984375 206.886719 L 544.96875 205.910156 L 531.175781 210.914062 Z M 531.175781 210.933594 " fill-opacity="1" fill-rule="nonzero"/><path fill="#1543a3" d="M 496.121094 202.84375 L 497.507812 205.371094 L 540.257812 213.671875 L 544.136719 197.726562 L 542.929688 195.914062 Z M 496.121094 202.84375 " fill-opacity="1" fill-rule="nonzero"/><path fill="#3875ce" d="M 496.121094 202.84375 L 504.792969 188.023438 L 542.929688 195.914062 L 539.179688 211.160156 Z M 496.121094 202.84375 " fill-opacity="1" fill-rule="nonzero"/><path fill="#ffffff" d="M 498.355469 201.996094 L 505.644531 189.554688 L 541.445312 196.859375 L 538.300781 209.808594 Z M 498.355469 201.996094 " fill-opacity="1" fill-rule="nonzero"/><path fill="#9b5f41" d="M 645.253906 219.703125 C 645.253906 219.703125 641.960938 249.476562 635.195312 265.78125 L 635.195312 265.796875 C 633.269531 270.445312 631.054688 274 628.558594 275.433594 C 627.058594 276.300781 625.589844 276.953125 624.171875 277.40625 C 614.929688 280.40625 607.429688 275.664062 602.992188 272.710938 C 598.085938 269.449219 556.917969 218.464844 553.445312 214.160156 C 553.316406 213.980469 553.085938 213.898438 552.859375 213.964844 C 550.933594 214.4375 541.542969 216.753906 534.828125 218.023438 C 531.859375 218.578125 529.382812 218.9375 528.320312 218.839844 C 524.800781 218.53125 518.898438 212.515625 518.164062 211.746094 C 518.113281 211.699219 518.066406 211.648438 517.984375 211.632812 L 514.757812 210.183594 C 514.152344 209.90625 514.398438 208.992188 515.066406 209.074219 L 528.484375 210.6875 L 530.898438 210.980469 C 530.996094 210.980469 531.078125 210.980469 531.175781 210.949219 L 544.953125 205.941406 C 545.390625 205.78125 545.472656 205.175781 545.082031 204.914062 L 542.132812 202.960938 C 542 202.878906 541.871094 202.84375 541.707031 202.859375 C 540.566406 203.058594 535.234375 203.742188 533.996094 200.546875 C 533.847656 200.1875 533.765625 199.746094 533.734375 199.273438 C 533.734375 198.980469 533.945312 198.703125 534.238281 198.671875 L 537.042969 198.296875 L 553.820312 196.03125 C 553.820312 196.03125 553.871094 196.03125 553.902344 196.03125 C 554.703125 196.03125 566.457031 196.4375 569.457031 207.816406 C 569.488281 207.933594 569.554688 208.046875 569.652344 208.113281 L 609.597656 240.332031 C 609.957031 240.625 610.511719 240.394531 610.542969 239.921875 L 611.75 225.035156 L 611.976562 222.085938 L 612.011719 221.792969 C 615.597656 216.671875 625.671875 222.347656 634.804688 223.128906 C 639.628906 223.535156 643.070312 221.628906 645.222656 219.71875 Z M 645.253906 219.703125 " fill-opacity="1" fill-rule="nonzero"/><path fill="#7a452d" d="M 635.195312 265.78125 C 635.359375 265.277344 638.765625 254.5 636.484375 242.464844 C 634.152344 230.140625 627.742188 226.910156 621.628906 225.019531 C 615.515625 223.113281 611.765625 225.019531 611.765625 225.019531 L 611.992188 222.070312 L 612.027344 221.773438 C 615.613281 216.65625 625.6875 222.328125 634.820312 223.113281 C 639.644531 223.519531 643.085938 221.613281 645.238281 219.703125 C 645.238281 219.703125 641.945312 249.476562 635.179688 265.765625 Z M 635.195312 265.78125 " fill-opacity="1" fill-rule="nonzero"/><path fill="#9f3e5e" d="M 584.699219 86.265625 C 584.699219 86.265625 592.917969 79.058594 599.539062 84.128906 L 591.09375 92.722656 C 591.09375 92.722656 586.820312 89.542969 580.640625 95.851562 C 580.640625 95.851562 578.082031 92.019531 584.71875 86.265625 Z M 584.699219 86.265625 " fill-opacity="1" fill-rule="nonzero"/><path fill="#9f3e5e" d="M 584.699219 86.265625 C 584.699219 86.265625 578.390625 88.726562 573.449219 101.410156 C 569.929688 110.476562 566.195312 110.980469 565.59375 111.472656 C 564.988281 111.976562 566.914062 112.207031 566.914062 112.207031 C 566.914062 112.207031 572.375 111.652344 574.917969 106.679688 C 578.441406 99.8125 583.820312 89.101562 591.320312 92.933594 L 584.683594 86.246094 Z M 584.699219 86.265625 " fill-opacity="1" fill-rule="nonzero"/><path fill="#ff811a" d="M 650.257812 217.226562 C 650.257812 217.226562 649.3125 217.453125 648.125 217.960938 C 645.957031 214.960938 643.183594 209.316406 645.089844 201.800781 C 648.027344 190.289062 641.960938 172.09375 639.660156 167.285156 C 637.363281 162.472656 631.507812 161.984375 631.507812 161.984375 C 633.367188 161.023438 635.40625 160.941406 637.332031 161.285156 C 644.355469 167.984375 647.894531 182.367188 647.308594 201.785156 C 647.308594 201.785156 647.910156 212.726562 650.257812 217.226562 Z M 650.257812 217.226562 " fill-opacity="1" fill-rule="nonzero"/><path fill="#ff811a" d="M 558.925781 274.816406 C 558.597656 278.664062 520.429688 288.25 513.566406 288.789062 C 512.097656 288.039062 510.617188 287.597656 509.117188 287.566406 C 509.117188 287.566406 506.765625 286.785156 507.355469 282.871094 C 507.648438 280.929688 505.820312 273.820312 501.027344 267.363281 C 501.222656 267.25 501.4375 267.183594 501.679688 267.167969 C 501.679688 267.167969 513.566406 267.820312 525.648438 273.773438 C 537.730469 279.738281 559.234375 270.984375 558.90625 274.847656 Z M 558.925781 274.816406 " fill-opacity="1" fill-rule="nonzero"/><path fill="#ff811a" d="M 610.558594 312.21875 C 600.761719 319.476562 597.042969 318.105469 579.808594 337.671875 C 579.808594 337.671875 569.226562 340.605469 558.664062 341.191406 C 558.664062 341.191406 546.90625 343.34375 544.757812 346.867188 C 544.757812 346.867188 538.105469 345.890625 535.933594 330.609375 C 535.25 325.785156 533.570312 319.753906 531.207031 313.75 C 533.785156 316.882812 537.386719 322.28125 538.789062 329.308594 C 541.085938 340.769531 551.113281 333.105469 563.929688 332.664062 C 576.726562 332.226562 591.417969 313.492188 604.316406 309.707031 C 617.226562 305.925781 624.367188 295.621094 624.839844 282.445312 C 625.820312 294.203125 620.339844 304.964844 610.542969 312.203125 Z M 610.558594 312.21875 " fill-opacity="1" fill-rule="nonzero"/><path fill="#5270b2" d="M 495.371094 353.40625 C 494.539062 355.980469 493.625 358.738281 492.648438 361.671875 C 486.207031 381.011719 455.476562 417.191406 455.476562 417.191406 C 455.476562 417.191406 455.476562 432.0625 448.023438 435.535156 C 440.589844 439.007812 432.160156 450.421875 420.765625 453.386719 C 409.367188 456.371094 398.949219 451.90625 393.992188 448.921875 C 389.035156 445.953125 381.113281 444.957031 381.601562 439.511719 C 381.632812 439.152344 381.730469 438.796875 381.894531 438.4375 C 384.160156 433.59375 398.28125 430.414062 402.910156 428.097656 C 407.867188 425.621094 436.121094 409.265625 436.121094 409.265625 C 436.121094 409.265625 450.453125 371.113281 463.382812 339.15625 C 463.382812 339.15625 468.078125 349.445312 486.730469 352.574219 C 489.320312 353.015625 492.191406 353.308594 495.355469 353.421875 Z M 495.371094 353.40625 " fill-opacity="1" fill-rule="nonzero"/><path fill="#3f66aa" d="M 495.371094 353.40625 C 494.539062 355.980469 493.625 358.738281 492.648438 361.671875 C 486.207031 381.011719 455.476562 417.191406 455.476562 417.191406 C 455.476562 417.191406 455.476562 432.0625 448.023438 435.535156 C 440.589844 439.007812 432.160156 450.421875 420.765625 453.386719 C 409.367188 456.371094 398.949219 451.90625 393.992188 448.921875 C 389.035156 445.953125 381.113281 444.957031 381.601562 439.511719 C 381.632812 439.152344 381.730469 438.796875 381.894531 438.4375 C 384.519531 442.660156 396.8125 441.46875 396.8125 441.46875 C 396.8125 441.46875 403.253906 447.796875 415.15625 448.464844 C 427.039062 449.132812 443.867188 432.160156 446.523438 424.820312 C 449.183594 417.5 447.519531 415.167969 457.203125 404.523438 C 465.304688 395.601562 481.625 362.960938 486.746094 352.558594 C 489.339844 352.996094 492.207031 353.292969 495.371094 353.40625 Z M 495.371094 353.40625 " fill-opacity="1" fill-rule="nonzero"/></svg>