<svg xmlns="http://www.w3.org/2000/svg" xmlns:xlink="http://www.w3.org/1999/xlink" width="711" zoomAndPan="magnify" viewBox="0 0 533.25 428.99999" height="572" preserveAspectRatio="xMidYMid meet" version="1.0"><defs><clipPath id="1a4251f109"><path d="M 139.773438 70 L 392.167969 70 L 392.167969 313 L 139.773438 313 Z M 139.773438 70 " clip-rule="nonzero"/></clipPath></defs><path fill="#a3e635" d="M 326.132812 4.097656 C 319.589844 1.167969 311.355469 0.289062 300.753906 1.929688 L 300.753906 1.933594 C 300.609375 1.953125 300.464844 1.964844 300.324219 1.964844 C 300.25 1.964844 300.179688 1.996094 300.128906 2.042969 L 300.105469 2.035156 C 300.019531 2.058594 299.933594 2.082031 299.847656 2.097656 L 299.84375 2.097656 C 272.746094 7.410156 243.882812 13.976562 227.484375 28.34375 C 222.242188 32.9375 217.210938 37.976562 213.261719 44.15625 C 182.8125 91.800781 163.011719 120.589844 153.078125 129 C 153.027344 129.042969 152.992188 129.105469 152.980469 129.175781 L 152.964844 129.167969 C 146.003906 138.605469 113.667969 165.425781 58.253906 210.757812 C 47.046875 219.925781 39.472656 228.570312 33.808594 235.042969 C 33.097656 235.851562 32.726562 236.273438 32.058594 237.035156 C 4.867188 267.871094 0.0820312 298.558594 17.195312 330.679688 C 25.425781 346.125 38.082031 357.855469 55.382812 365.601562 C 74.988281 374.378906 100.546875 378.039062 132.390625 376.230469 C 154.910156 374.949219 175.15625 372.578125 192.664062 367.640625 C 244.289062 353.089844 316.03125 336.078125 408.171875 317.152344 C 425.925781 313.507812 440.410156 308.152344 452.121094 303.066406 C 510.582031 277.6875 531.976562 245.082031 517.417969 206.238281 C 514.289062 197.890625 507.554688 190.113281 497.820312 185.210938 C 446.65625 159.449219 415.972656 143.738281 410.085938 134.953125 L 410.070312 134.945312 C 410.058594 134.882812 410.027344 134.828125 409.980469 134.785156 C 402.566406 128.054688 394.359375 119.558594 388.589844 107.679688 C 363.144531 55.253906 346.4375 24.222656 337.820312 13.359375 C 334.636719 9.351562 330.828125 6.199219 326.132812 4.097656 Z M 326.132812 4.097656 " fill-opacity="1" fill-rule="nonzero"/><path fill="#000000" d="M 210.660156 25.289062 C 189.109375 38.65625 166.535156 53.625 157.164062 71.203125 C 154.15625 76.835938 151.488281 82.773438 150.113281 89.324219 C 139.355469 140.515625 131.65625 171.800781 125.816406 182.019531 L 126.09375 181.320312 C 123.730469 191.039062 104.554688 224.78125 71.109375 282.710938 C 64.476562 294.199219 60.789062 304.058594 58.023438 311.449219 C 57.746094 312.195312 57.429688 313.039062 57.171875 313.726562 C 43.871094 348.933594 49.714844 376.707031 74.738281 398.644531 C 100.402344 421.140625 137.816406 422.667969 188.117188 400.308594 C 207.023438 391.902344 223.613281 383.304688 237.019531 373.402344 C 276.613281 344.152344 332.671875 306.265625 405.621094 260.109375 C 419.65625 251.230469 430.339844 241.945312 438.730469 233.789062 C 480.644531 193.058594 488.296875 158.292969 463.335938 129.84375 C 457.988281 123.746094 449.742188 119.285156 439.859375 118.246094 C 386.472656 112.621094 354.683594 109.058594 347.613281 103.144531 L 348.355469 103.582031 C 339.71875 100.199219 329.738281 95.542969 320.785156 87.074219 C 281.921875 50.328125 257.53125 29.140625 246.640625 22.632812 C 237.066406 16.914062 226.046875 16.550781 211.378906 24.855469 C 210.089844 25.585938 208.449219 25.132812 207.71875 23.84375 C 206.988281 22.554688 207.445312 20.917969 208.734375 20.1875 C 224.6875 11.152344 237.808594 11.105469 249.394531 18.027344 C 260.910156 24.90625 285.785156 46.59375 324.472656 83.175781 C 332.6875 90.941406 341.917969 95.292969 350.3125 98.585938 C 350.582031 98.691406 350.835938 98.839844 351.054688 99.027344 C 356.472656 103.554688 385.460938 107.117188 440.421875 112.90625 C 451.574219 114.082031 461.085938 119.136719 467.371094 126.304688 C 495.324219 158.167969 484.960938 196.347656 442.46875 237.640625 C 433.898438 245.972656 422.925781 255.511719 408.492188 264.644531 C 335.601562 310.765625 279.65625 348.574219 240.207031 377.71875 C 226.339844 387.964844 209.332031 396.753906 190.296875 405.214844 C 139.195312 427.933594 99.179688 427.210938 71.199219 402.679688 C 44.234375 379.042969 38.1875 348.792969 52.148438 311.832031 C 52.414062 311.132812 52.710938 310.335938 52.996094 309.570312 C 55.773438 302.144531 59.589844 291.929688 66.460938 280.027344 C 100.269531 221.464844 118.753906 188.78125 120.878906 180.050781 C 120.9375 179.808594 121.03125 179.574219 121.15625 179.355469 C 126.460938 170.074219 133.996094 139.925781 144.859375 88.21875 C 146.386719 80.953125 149.316406 74.503906 152.425781 68.675781 C 162.609375 49.578125 186.609375 33.890625 207.832031 20.726562 C 209.09375 19.945312 210.746094 20.335938 211.527344 21.59375 C 212.308594 22.851562 211.921875 24.507812 210.660156 25.289062 Z M 210.660156 25.289062 " fill-opacity="1" fill-rule="nonzero"/><g clip-path="url(#1a4251f109)"><path fill="#d3dce5" d="M 392.167969 304.617188 C 392.167969 304.617188 369.8125 319.996094 349.035156 308.046875 C 348.8125 307.910156 348.585938 307.777344 348.316406 307.683594 C 345.386719 306.152344 342.050781 305.609375 338.941406 306.332031 C 337.859375 306.601562 336.777344 307.007812 335.785156 307.550781 C 332.496094 309.445312 328.03125 311.113281 322.667969 311.113281 C 317.125 311.15625 312.574219 309.488281 309.238281 307.59375 C 308.699219 307.28125 308.15625 307.054688 307.570312 306.875 C 304.6875 305.746094 301.488281 305.746094 298.601562 306.875 C 297.925781 307.054688 297.25 307.371094 296.617188 307.730469 C 293.328125 309.625 288.910156 311.25 283.546875 311.066406 C 279.132812 310.886719 275.4375 309.535156 272.550781 307.957031 C 271.785156 307.550781 271.019531 307.1875 270.207031 306.964844 C 267.503906 306.015625 264.617188 306.015625 261.914062 306.917969 C 261.058594 307.144531 260.203125 307.503906 259.390625 307.957031 C 256.507812 309.535156 252.808594 310.886719 248.394531 311.066406 C 243.03125 311.25 238.613281 309.625 235.324219 307.730469 C 234.738281 307.414062 234.105469 307.097656 233.476562 306.917969 C 230.636719 305.792969 227.4375 305.746094 224.550781 306.785156 C 223.921875 307.007812 223.289062 307.28125 222.703125 307.59375 C 219.367188 309.488281 214.816406 311.15625 209.273438 311.113281 C 203.910156 311.113281 199.445312 309.445312 196.15625 307.550781 C 195.210938 307.007812 194.21875 306.648438 193.183594 306.378906 C 190.117188 305.609375 186.738281 306.105469 183.808594 307.59375 C 183.492188 307.730469 183.175781 307.867188 182.90625 308.046875 C 162.128906 319.996094 139.773438 304.617188 139.773438 304.617188 C 187.144531 251.535156 166.996094 217.574219 181.554688 141.671875 C 196.15625 65.8125 265.972656 70.773438 265.972656 70.773438 C 265.972656 70.773438 335.785156 65.8125 350.386719 141.671875 C 364.945312 217.574219 344.800781 251.535156 392.167969 304.617188 Z M 392.167969 304.617188 " fill-opacity="1" fill-rule="nonzero"/></g><path fill="#536882" d="M 253.679688 152.183594 C 253.679688 153.027344 253.648438 153.863281 253.582031 154.699219 C 253.515625 155.535156 253.417969 156.367188 253.285156 157.191406 C 253.15625 158.015625 252.992188 158.828125 252.800781 159.632812 C 252.605469 160.4375 252.378906 161.226562 252.121094 162.003906 C 251.867188 162.78125 251.578125 163.539062 251.265625 164.28125 C 250.949219 165.019531 250.605469 165.742188 250.230469 166.441406 C 249.859375 167.136719 249.460938 167.8125 249.035156 168.460938 C 248.609375 169.113281 248.160156 169.734375 247.6875 170.328125 C 247.214844 170.921875 246.71875 171.484375 246.199219 172.019531 C 245.679688 172.550781 245.144531 173.050781 244.585938 173.519531 C 244.027344 173.984375 243.453125 174.417969 242.863281 174.8125 C 242.273438 175.210938 241.667969 175.566406 241.046875 175.890625 C 240.429688 176.210938 239.800781 176.492188 239.15625 176.738281 C 238.515625 176.980469 237.867188 177.1875 237.210938 177.347656 C 236.554688 177.511719 235.890625 177.636719 235.222656 177.71875 C 234.558594 177.800781 233.886719 177.84375 233.21875 177.84375 C 232.546875 177.84375 231.878906 177.800781 231.210938 177.71875 C 230.546875 177.636719 229.882812 177.511719 229.226562 177.347656 C 228.570312 177.1875 227.917969 176.980469 227.277344 176.738281 C 226.636719 176.492188 226.007812 176.210938 225.386719 175.890625 C 224.769531 175.566406 224.164062 175.210938 223.574219 174.8125 C 222.980469 174.417969 222.40625 173.984375 221.851562 173.519531 C 221.292969 173.050781 220.753906 172.550781 220.238281 172.019531 C 219.71875 171.484375 219.222656 170.921875 218.75 170.328125 C 218.277344 169.734375 217.824219 169.113281 217.402344 168.460938 C 216.976562 167.8125 216.578125 167.136719 216.203125 166.441406 C 215.832031 165.742188 215.488281 165.019531 215.171875 164.28125 C 214.855469 163.539062 214.570312 162.78125 214.3125 162.003906 C 214.058594 161.226562 213.832031 160.4375 213.636719 159.632812 C 213.441406 158.828125 213.28125 158.015625 213.148438 157.191406 C 213.019531 156.367188 212.921875 155.535156 212.855469 154.699219 C 212.789062 153.863281 212.757812 153.027344 212.757812 152.183594 C 212.757812 151.34375 212.789062 150.507812 212.855469 149.671875 C 212.921875 148.835938 213.019531 148.003906 213.148438 147.179688 C 213.28125 146.355469 213.441406 145.542969 213.636719 144.738281 C 213.832031 143.933594 214.058594 143.144531 214.3125 142.367188 C 214.570312 141.589844 214.855469 140.832031 215.171875 140.089844 C 215.488281 139.347656 215.832031 138.628906 216.203125 137.929688 C 216.578125 137.230469 216.976562 136.558594 217.402344 135.910156 C 217.824219 135.257812 218.277344 134.636719 218.75 134.042969 C 219.222656 133.449219 219.71875 132.886719 220.238281 132.351562 C 220.753906 131.820312 221.292969 131.320312 221.851562 130.851562 C 222.40625 130.386719 222.980469 129.953125 223.574219 129.558594 C 224.164062 129.160156 224.769531 128.800781 225.386719 128.480469 C 226.007812 128.160156 226.636719 127.875 227.277344 127.632812 C 227.917969 127.386719 228.570312 127.183594 229.226562 127.019531 C 229.882812 126.855469 230.546875 126.734375 231.210938 126.652344 C 231.878906 126.570312 232.546875 126.527344 233.21875 126.527344 C 233.886719 126.527344 234.558594 126.570312 235.222656 126.652344 C 235.890625 126.734375 236.554688 126.855469 237.210938 127.019531 C 237.867188 127.183594 238.515625 127.386719 239.15625 127.632812 C 239.800781 127.875 240.429688 128.160156 241.046875 128.480469 C 241.667969 128.800781 242.273438 129.160156 242.863281 129.558594 C 243.453125 129.953125 244.027344 130.386719 244.585938 130.851562 C 245.144531 131.320312 245.679688 131.820312 246.199219 132.351562 C 246.71875 132.886719 247.214844 133.449219 247.6875 134.042969 C 248.160156 134.636719 248.609375 135.257812 249.035156 135.910156 C 249.460938 136.558594 249.859375 137.230469 250.230469 137.929688 C 250.605469 138.628906 250.949219 139.347656 251.265625 140.089844 C 251.578125 140.832031 251.867188 141.589844 252.121094 142.367188 C 252.378906 143.144531 252.605469 143.933594 252.800781 144.738281 C 252.992188 145.542969 253.15625 146.355469 253.285156 147.179688 C 253.417969 148.003906 253.515625 148.835938 253.582031 149.671875 C 253.648438 150.507812 253.679688 151.34375 253.679688 152.183594 Z M 253.679688 152.183594 " fill-opacity="1" fill-rule="nonzero"/><path fill="#536882" d="M 319.1875 152.183594 C 319.1875 153.027344 319.152344 153.863281 319.085938 154.699219 C 319.023438 155.535156 318.921875 156.367188 318.792969 157.191406 C 318.660156 158.015625 318.5 158.828125 318.304688 159.632812 C 318.109375 160.4375 317.882812 161.226562 317.628906 162.003906 C 317.371094 162.78125 317.085938 163.539062 316.769531 164.28125 C 316.453125 165.019531 316.109375 165.742188 315.738281 166.441406 C 315.363281 167.136719 314.964844 167.8125 314.542969 168.460938 C 314.117188 169.113281 313.667969 169.734375 313.191406 170.328125 C 312.71875 170.921875 312.222656 171.484375 311.703125 172.019531 C 311.1875 172.550781 310.648438 173.050781 310.089844 173.519531 C 309.535156 173.984375 308.960938 174.417969 308.371094 174.8125 C 307.777344 175.210938 307.171875 175.566406 306.554688 175.890625 C 305.933594 176.210938 305.304688 176.492188 304.664062 176.738281 C 304.023438 176.980469 303.371094 177.1875 302.714844 177.347656 C 302.058594 177.511719 301.394531 177.636719 300.730469 177.71875 C 300.0625 177.800781 299.394531 177.84375 298.722656 177.84375 C 298.054688 177.84375 297.386719 177.800781 296.71875 177.71875 C 296.050781 177.636719 295.390625 177.511719 294.730469 177.347656 C 294.074219 177.1875 293.425781 176.980469 292.785156 176.738281 C 292.140625 176.492188 291.511719 176.210938 290.894531 175.890625 C 290.273438 175.566406 289.667969 175.210938 289.078125 174.8125 C 288.488281 174.417969 287.914062 173.984375 287.355469 173.519531 C 286.796875 173.050781 286.261719 172.550781 285.742188 172.019531 C 285.226562 171.484375 284.730469 170.921875 284.253906 170.328125 C 283.78125 169.734375 283.332031 169.113281 282.90625 168.460938 C 282.480469 167.8125 282.082031 167.136719 281.710938 166.441406 C 281.335938 165.742188 280.992188 165.019531 280.679688 164.28125 C 280.363281 163.539062 280.074219 162.78125 279.820312 162.003906 C 279.5625 161.226562 279.335938 160.4375 279.144531 159.632812 C 278.949219 158.828125 278.785156 158.015625 278.65625 157.191406 C 278.523438 156.367188 278.425781 155.535156 278.359375 154.699219 C 278.292969 153.863281 278.261719 153.027344 278.261719 152.183594 C 278.261719 151.34375 278.292969 150.507812 278.359375 149.671875 C 278.425781 148.835938 278.523438 148.003906 278.65625 147.179688 C 278.785156 146.355469 278.949219 145.542969 279.144531 144.738281 C 279.335938 143.933594 279.5625 143.144531 279.820312 142.367188 C 280.074219 141.589844 280.363281 140.832031 280.679688 140.089844 C 280.992188 139.347656 281.335938 138.628906 281.710938 137.929688 C 282.082031 137.230469 282.480469 136.558594 282.90625 135.910156 C 283.332031 135.257812 283.78125 134.636719 284.253906 134.042969 C 284.730469 133.449219 285.226562 132.886719 285.742188 132.351562 C 286.261719 131.820312 286.796875 131.320312 287.355469 130.851562 C 287.914062 130.386719 288.488281 129.953125 289.078125 129.558594 C 289.667969 129.160156 290.273438 128.800781 290.894531 128.480469 C 291.511719 128.160156 292.140625 127.875 292.785156 127.632812 C 293.425781 127.386719 294.074219 127.183594 294.730469 127.019531 C 295.390625 126.855469 296.050781 126.734375 296.71875 126.652344 C 297.386719 126.570312 298.054688 126.527344 298.722656 126.527344 C 299.394531 126.527344 300.0625 126.570312 300.730469 126.652344 C 301.394531 126.734375 302.058594 126.855469 302.714844 127.019531 C 303.371094 127.183594 304.023438 127.386719 304.664062 127.632812 C 305.304688 127.875 305.933594 128.160156 306.554688 128.480469 C 307.171875 128.800781 307.777344 129.160156 308.371094 129.558594 C 308.960938 129.953125 309.535156 130.386719 310.089844 130.851562 C 310.648438 131.320312 311.1875 131.820312 311.703125 132.351562 C 312.222656 132.886719 312.71875 133.449219 313.191406 134.042969 C 313.667969 134.636719 314.117188 135.257812 314.542969 135.910156 C 314.964844 136.558594 315.363281 137.230469 315.738281 137.929688 C 316.109375 138.628906 316.453125 139.347656 316.769531 140.089844 C 317.085938 140.832031 317.371094 141.589844 317.628906 142.367188 C 317.882812 143.144531 318.109375 143.933594 318.304688 144.738281 C 318.5 145.542969 318.660156 146.355469 318.792969 147.179688 C 318.921875 148.003906 319.023438 148.835938 319.085938 149.671875 C 319.152344 150.507812 319.1875 151.34375 319.1875 152.183594 Z M 319.1875 152.183594 " fill-opacity="1" fill-rule="nonzero"/><path fill="#536882" d="M 285.285156 214.476562 C 285.285156 215.105469 285.253906 215.734375 285.191406 216.363281 C 285.128906 216.988281 285.039062 217.609375 284.914062 218.230469 C 284.792969 218.847656 284.640625 219.457031 284.457031 220.058594 C 284.273438 220.664062 284.0625 221.253906 283.820312 221.835938 C 283.578125 222.417969 283.3125 222.988281 283.015625 223.542969 C 282.71875 224.097656 282.394531 224.636719 282.042969 225.160156 C 281.695312 225.683594 281.320312 226.191406 280.921875 226.675781 C 280.523438 227.164062 280.101562 227.628906 279.65625 228.074219 C 279.210938 228.519531 278.742188 228.941406 278.257812 229.34375 C 277.769531 229.742188 277.265625 230.117188 276.742188 230.46875 C 276.21875 230.816406 275.679688 231.140625 275.125 231.4375 C 274.570312 231.734375 274 232.003906 273.421875 232.242188 C 272.839844 232.484375 272.246094 232.695312 271.644531 232.878906 C 271.042969 233.0625 270.433594 233.214844 269.816406 233.339844 C 269.199219 233.460938 268.574219 233.554688 267.949219 233.613281 C 267.324219 233.675781 266.695312 233.707031 266.066406 233.707031 C 265.4375 233.707031 264.808594 233.675781 264.183594 233.613281 C 263.554688 233.554688 262.933594 233.460938 262.316406 233.339844 C 261.699219 233.214844 261.089844 233.0625 260.488281 232.878906 C 259.882812 232.695312 259.292969 232.484375 258.710938 232.242188 C 258.128906 232.003906 257.5625 231.734375 257.007812 231.4375 C 256.449219 231.140625 255.910156 230.816406 255.386719 230.46875 C 254.867188 230.117188 254.359375 229.742188 253.875 229.34375 C 253.386719 228.941406 252.921875 228.519531 252.476562 228.074219 C 252.03125 227.628906 251.609375 227.164062 251.210938 226.675781 C 250.808594 226.191406 250.4375 225.683594 250.085938 225.160156 C 249.738281 224.636719 249.414062 224.097656 249.117188 223.542969 C 248.820312 222.988281 248.550781 222.417969 248.308594 221.835938 C 248.070312 221.253906 247.859375 220.664062 247.675781 220.058594 C 247.492188 219.457031 247.339844 218.847656 247.214844 218.230469 C 247.09375 217.609375 247 216.988281 246.941406 216.363281 C 246.878906 215.734375 246.847656 215.105469 246.847656 214.476562 C 246.847656 213.847656 246.878906 213.21875 246.941406 212.59375 C 247 211.964844 247.09375 211.34375 247.214844 210.726562 C 247.339844 210.109375 247.492188 209.496094 247.675781 208.894531 C 247.859375 208.292969 248.070312 207.699219 248.308594 207.117188 C 248.550781 206.535156 248.820312 205.96875 249.117188 205.410156 C 249.414062 204.855469 249.738281 204.316406 250.085938 203.792969 C 250.4375 203.269531 250.808594 202.765625 251.210938 202.277344 C 251.609375 201.789062 252.03125 201.324219 252.476562 200.878906 C 252.921875 200.433594 253.386719 200.011719 253.875 199.613281 C 254.359375 199.210938 254.867188 198.835938 255.386719 198.488281 C 255.910156 198.136719 256.449219 197.8125 257.007812 197.515625 C 257.5625 197.21875 258.128906 196.953125 258.710938 196.710938 C 259.292969 196.46875 259.882812 196.257812 260.488281 196.074219 C 261.089844 195.890625 261.699219 195.738281 262.316406 195.617188 C 262.933594 195.492188 263.554688 195.402344 264.183594 195.339844 C 264.808594 195.277344 265.4375 195.246094 266.066406 195.246094 C 266.695312 195.246094 267.324219 195.277344 267.949219 195.339844 C 268.574219 195.402344 269.199219 195.492188 269.816406 195.617188 C 270.433594 195.738281 271.042969 195.890625 271.644531 196.074219 C 272.246094 196.257812 272.839844 196.46875 273.421875 196.710938 C 274 196.953125 274.570312 197.21875 275.125 197.515625 C 275.679688 197.8125 276.21875 198.136719 276.742188 198.488281 C 277.265625 198.835938 277.769531 199.210938 278.257812 199.613281 C 278.742188 200.011719 279.210938 200.433594 279.65625 200.878906 C 280.101562 201.324219 280.523438 201.789062 280.921875 202.277344 C 281.320312 202.765625 281.695312 203.269531 282.042969 203.792969 C 282.394531 204.316406 282.71875 204.855469 283.015625 205.410156 C 283.3125 205.96875 283.578125 206.535156 283.820312 207.117188 C 284.0625 207.699219 284.273438 208.292969 284.457031 208.894531 C 284.640625 209.496094 284.792969 210.109375 284.914062 210.726562 C 285.039062 211.34375 285.128906 211.964844 285.191406 212.59375 C 285.253906 213.21875 285.285156 213.847656 285.285156 214.476562 Z M 285.285156 214.476562 " fill-opacity="1" fill-rule="nonzero"/><path fill="#b8c3d5" d="M 204.40625 272.550781 C 202.0625 288.789062 195.886719 301.417969 193.183594 306.378906 C 190.117188 305.609375 186.738281 306.105469 183.808594 307.59375 C 183.355469 306.378906 183.492188 304.980469 184.214844 303.808594 C 184.304688 303.671875 192.777344 289.960938 195.480469 271.246094 C 195.839844 268.808594 198.140625 267.050781 200.574219 267.410156 C 203.050781 267.773438 204.765625 270.070312 204.40625 272.550781 Z M 204.40625 272.550781 " fill-opacity="1" fill-rule="nonzero"/><path fill="#b8c3d5" d="M 240.234375 281.707031 C 238.613281 293.523438 235.1875 302.769531 233.476562 306.917969 C 230.636719 305.792969 227.4375 305.746094 224.550781 306.785156 C 224.371094 305.972656 224.460938 305.070312 224.820312 304.257812 C 226.265625 300.964844 229.6875 292.125 231.3125 280.488281 C 231.628906 278.007812 233.925781 276.25 236.40625 276.613281 C 238.839844 276.972656 240.597656 279.226562 240.234375 281.707031 Z M 240.234375 281.707031 " fill-opacity="1" fill-rule="nonzero"/><path fill="#b8c3d5" d="M 348.316406 307.683594 C 345.386719 306.152344 342.050781 305.609375 338.941406 306.332031 C 336.191406 301.324219 330.0625 288.742188 327.71875 272.550781 C 327.355469 270.070312 329.070312 267.773438 331.546875 267.410156 C 333.980469 267.050781 336.28125 268.765625 336.640625 271.246094 C 339.347656 289.960938 347.820312 303.671875 347.910156 303.808594 C 348.675781 305.023438 348.765625 306.421875 348.316406 307.683594 Z M 348.316406 307.683594 " fill-opacity="1" fill-rule="nonzero"/><path fill="#b8c3d5" d="M 307.570312 306.875 C 304.6875 305.746094 301.488281 305.746094 298.601562 306.875 C 296.890625 302.679688 293.507812 293.480469 291.886719 281.707031 C 291.527344 279.226562 293.285156 276.972656 295.71875 276.613281 C 298.195312 276.25 300.496094 278.007812 300.808594 280.488281 C 302.433594 292.125 305.859375 300.964844 307.300781 304.257812 C 307.660156 305.113281 307.75 306.015625 307.570312 306.875 Z M 307.570312 306.875 " fill-opacity="1" fill-rule="nonzero"/><path fill="#b8c3d5" d="M 270.566406 271.875 L 270.566406 305.203125 C 270.566406 305.835938 270.433594 306.421875 270.207031 306.964844 C 267.503906 306.015625 264.617188 306.015625 261.914062 306.917969 C 261.6875 306.421875 261.554688 305.835938 261.554688 305.203125 L 261.554688 271.875 C 261.554688 269.394531 263.582031 267.367188 266.0625 267.367188 C 268.539062 267.367188 270.566406 269.394531 270.566406 271.875 Z M 270.566406 271.875 " fill-opacity="1" fill-rule="nonzero"/></svg>