<svg xmlns="http://www.w3.org/2000/svg" xmlns:xlink="http://www.w3.org/1999/xlink" width="674" zoomAndPan="magnify" viewBox="0 0 505.5 473.999983" height="632" preserveAspectRatio="xMidYMid meet" version="1.0"><defs><clipPath id="6de218e306"><path d="M 79.679688 113 L 422 113 L 422 367 L 79.679688 367 Z M 79.679688 113 " clip-rule="nonzero"/></clipPath><clipPath id="fdc41f907a"><path d="M 82 366 L 425.085938 366 L 425.085938 394.253906 L 82 394.253906 Z M 82 366 " clip-rule="nonzero"/></clipPath><clipPath id="f579e4a0bc"><path d="M 174 78.816406 L 255 78.816406 L 255 160 L 174 160 Z M 174 78.816406 " clip-rule="nonzero"/></clipPath></defs><path fill="#a3e635" d="M 168.714844 27.136719 C 123.613281 27 88.945312 45.777344 64.710938 83.472656 C 64.6875 83.503906 64.671875 83.542969 64.664062 83.582031 L 64.644531 83.582031 C 60.503906 90.535156 57.59375 99.214844 55.917969 109.617188 C 55.90625 109.683594 55.917969 109.753906 55.945312 109.8125 L 55.925781 109.8125 C 53.871094 165.972656 51.015625 197.355469 47.355469 203.96875 C 47.324219 204.027344 47.308594 204.09375 47.316406 204.15625 L 47.296875 204.15625 C 20.902344 270.886719 7.1875 307.976562 6.15625 315.4375 C 6.144531 315.527344 6.171875 315.621094 6.234375 315.691406 L 6.238281 315.695312 C 6.519531 316.277344 6.605469 316.945312 6.46875 317.601562 C 2.359375 337.304688 3.152344 354.996094 8.851562 370.671875 C 8.863281 370.707031 8.882812 370.742188 8.90625 370.769531 L 8.886719 370.769531 C 22.351562 406.835938 48.167969 425.160156 86.34375 425.742188 L 86.347656 425.742188 C 86.363281 425.742188 86.375 425.738281 86.390625 425.738281 L 86.378906 425.738281 C 96.171875 424.832031 106.480469 422.46875 117.304688 418.648438 L 117.289062 418.648438 L 117.402344 418.617188 C 181.839844 387.792969 222.464844 372.125 239.273438 371.613281 L 239.285156 371.613281 L 239.304688 371.609375 L 239.433594 371.574219 C 242.492188 369.964844 250.253906 369.179688 262.726562 369.21875 C 285.289062 369.289062 323.148438 372.070312 376.308594 377.5625 L 376.367188 377.5625 L 376.390625 377.566406 C 377.027344 377.574219 377.664062 377.582031 378.304688 377.582031 C 388.796875 377.613281 399.300781 376.402344 409.816406 373.941406 L 409.824219 373.9375 L 409.828125 373.941406 L 409.855469 373.925781 L 409.871094 373.929688 C 434.128906 367.683594 452.3125 353.992188 464.425781 332.855469 L 464.425781 332.859375 L 464.472656 332.777344 L 464.472656 332.78125 C 477.246094 311.894531 479.878906 289.113281 472.371094 264.429688 L 472.34375 264.429688 C 472.351562 264.382812 472.34375 264.335938 472.328125 264.292969 C 469.882812 257.152344 466.09375 248.960938 460.960938 239.71875 L 460.9375 239.71875 C 460.933594 239.65625 460.914062 239.597656 460.878906 239.546875 C 435.800781 202.800781 420.230469 177.179688 414.164062 162.6875 L 414.140625 162.6875 C 414.152344 162.609375 414.132812 162.53125 414.085938 162.460938 C 409.332031 155.511719 400.140625 127.640625 386.515625 78.84375 L 386.53125 78.847656 C 386.527344 78.832031 386.527344 78.824219 386.519531 78.8125 C 381.375 65.636719 375.363281 55.003906 368.488281 46.914062 L 368.414062 46.824219 C 361.773438 38.421875 351.886719 33.585938 338.75 32.3125 C 338.210938 32.261719 337.707031 32.066406 337.28125 31.761719 L 337.261719 31.765625 C 337.210938 31.671875 337.121094 31.609375 337.011719 31.597656 C 336.304688 31.515625 335.289062 31.472656 333.972656 31.46875 C 323.863281 31.4375 295.566406 33.695312 249.089844 38.238281 L 248.90625 38.25 L 248.902344 38.25 C 248.144531 38.28125 247.351562 38.292969 246.523438 38.289062 C 236.710938 38.257812 222.097656 36.011719 202.683594 31.539062 C 201.941406 31.371094 201.328125 30.9375 200.914062 30.367188 L 200.894531 30.367188 C 200.878906 30.226562 200.773438 30.109375 200.628906 30.085938 C 189.46875 28.152344 178.828125 27.167969 168.714844 27.136719 Z M 168.714844 27.136719 " fill-opacity="1" fill-rule="nonzero"/><path fill="#000000" d="M 158.179688 43.511719 C 96.15625 48.613281 56.78125 77.277344 40.066406 129.503906 L 40.09375 129.410156 C 37.867188 137.15625 37.292969 146.265625 38.367188 156.738281 L 38.300781 156.335938 C 50.917969 211.390625 56.257812 242.46875 54.332031 249.570312 L 54.425781 249.082031 C 45.871094 323.085938 42.273438 362.558594 43.636719 367.503906 C 43.347656 366.464844 42.550781 365.871094 41.238281 365.71875 C 40.5 365.632812 39.832031 365.792969 39.230469 366.191406 C 40.214844 365.535156 41.476562 365.457031 42.535156 365.988281 C 43.59375 366.519531 44.285156 367.574219 44.351562 368.757812 C 45.46875 388.640625 50.75 405.335938 60.199219 418.847656 L 60.183594 418.828125 C 82.304688 449.949219 111.722656 460.863281 148.4375 451.574219 L 148.109375 451.675781 C 157.375 448.269531 166.761719 443.292969 176.273438 436.742188 L 176 436.953125 C 231.144531 389.757812 266.476562 364.167969 282 360.1875 L 279.996094 361.671875 C 280.148438 361.425781 280.320312 361.183594 280.515625 360.949219 C 286.027344 354.324219 330.519531 344.335938 414.003906 330.980469 L 413.730469 331.035156 C 424.511719 328.367188 434.941406 324.332031 445.019531 318.929688 L 444.960938 318.960938 C 466.554688 306.792969 480.433594 289.0625 486.597656 265.761719 L 486.625 265.671875 C 493.5 242.394531 490.144531 219.902344 476.558594 198.1875 L 476.617188 198.277344 C 472.390625 191.992188 466.5625 185.015625 459.132812 177.359375 L 459.347656 177.5625 C 425.398438 148.367188 403.753906 127.621094 394.410156 115.328125 L 394.953125 115.890625 C 388.742188 110.84375 372.617188 86.296875 346.585938 42.253906 L 346.765625 42.53125 C 338.472656 31.25 330.003906 22.625 321.367188 16.65625 L 321.269531 16.585938 C 312.824219 10.289062 302.183594 8.210938 289.351562 10.347656 C 288.183594 10.542969 287 10.097656 286.253906 9.179688 C 285.503906 8.261719 285.300781 7.015625 285.726562 5.910156 C 284.992188 7.824219 285.578125 9.148438 287.484375 9.878906 C 287.769531 9.988281 288.015625 10.042969 288.21875 10.039062 C 284.066406 10.09375 256.324219 19.757812 204.996094 39.023438 L 204.808594 39.085938 C 195.527344 41.960938 180.15625 43.777344 158.691406 44.535156 C 156.867188 44.601562 155.339844 43.175781 155.273438 41.351562 C 155.210938 39.53125 156.636719 38 158.457031 37.9375 C 179.335938 37.199219 194.132812 35.476562 202.855469 32.777344 L 202.671875 32.839844 C 254.722656 13.300781 283.210938 3.5 288.132812 3.433594 C 288.773438 3.425781 289.347656 3.519531 289.851562 3.710938 C 292.054688 4.558594 292.734375 6.078125 291.894531 8.273438 L 288.265625 3.832031 C 302.949219 1.386719 315.265625 3.871094 325.21875 11.289062 L 325.121094 11.222656 C 334.367188 17.609375 343.355469 26.742188 352.089844 38.617188 C 352.152344 38.707031 352.214844 38.796875 352.269531 38.894531 C 377.902344 82.257812 393.519531 106.214844 399.121094 110.765625 C 399.324219 110.929688 399.507812 111.121094 399.667969 111.328125 C 408.730469 123.253906 430.058594 143.660156 463.65625 172.554688 C 463.730469 172.621094 463.800781 172.6875 463.871094 172.761719 C 471.578125 180.699219 477.652344 187.980469 482.097656 194.59375 L 482.15625 194.683594 C 496.796875 218.078125 500.394531 242.363281 492.957031 267.542969 L 492.984375 267.453125 C 486.34375 292.546875 471.414062 311.636719 448.203125 324.714844 L 448.140625 324.75 C 437.574219 330.414062 426.636719 334.644531 415.320312 337.445312 C 415.226562 337.46875 415.136719 337.484375 415.046875 337.5 C 333.195312 350.597656 290.046875 359.820312 285.59375 365.171875 C 285.605469 365.15625 285.625 365.132812 285.644531 365.101562 C 285.195312 365.839844 284.476562 366.371094 283.640625 366.585938 C 269.109375 370.3125 234.664062 395.441406 180.296875 441.972656 C 180.207031 442.046875 180.117188 442.117188 180.019531 442.183594 C 170.050781 449.046875 160.171875 454.277344 150.386719 457.875 C 150.28125 457.914062 150.171875 457.949219 150.058594 457.976562 C 110.421875 468.007812 78.667969 456.234375 54.800781 422.65625 L 54.785156 422.632812 C 44.621094 408.09375 38.945312 390.257812 37.757812 369.125 L 42.882812 371.691406 C 42.140625 372.183594 41.339844 372.378906 40.480469 372.28125 C 38.839844 372.089844 37.769531 371.082031 37.265625 369.253906 C 35.679688 363.484375 39.210938 323.175781 47.863281 248.324219 C 47.882812 248.160156 47.914062 248 47.957031 247.839844 C 49.597656 241.800781 44.230469 211.792969 31.863281 157.8125 C 31.832031 157.679688 31.808594 157.542969 31.796875 157.410156 C 30.636719 146.089844 31.285156 136.148438 33.746094 127.585938 L 33.773438 127.492188 C 51.390625 72.457031 92.679688 42.269531 157.636719 36.929688 C 159.457031 36.78125 161.050781 38.132812 161.199219 39.949219 C 161.351562 41.769531 159.996094 43.363281 158.179688 43.511719 Z M 158.179688 43.511719 " fill-opacity="1" fill-rule="nonzero"/><g clip-path="url(#6de218e306)"><path fill="#ede9ff" d="M 415.894531 311.957031 C 410.28125 320.5 401.300781 326.203125 394.425781 333.769531 C 392.707031 335.660156 391.316406 338.101562 390.3125 340.835938 C 384.628906 356.328125 401.933594 366.492188 401.933594 366.492188 L 201.839844 366.851562 L 167.601562 366.933594 L 167.601562 366.851562 L 113.492188 366.851562 C 103.871094 367.019531 93.753906 362.570312 90.207031 353.648438 C 86.664062 344.722656 89.214844 333.730469 96.328125 327.269531 C 100.359375 323.617188 106.082031 320.589844 106.589844 315.179688 C 107.101562 309.71875 101.929688 305.671875 97.777344 302.078125 C 86.160156 292.039062 78.78125 276.789062 79.757812 261.480469 C 80.734375 246.175781 90.726562 231.394531 105.175781 226.175781 C 113.175781 223.285156 122.191406 223.214844 129.578125 219.003906 C 139.503906 213.34375 144.320312 201.890625 148.875 191.425781 C 156.035156 174.972656 161.433594 165.496094 166.851562 158.347656 C 176.558594 144.164062 189.523438 132.191406 204.503906 123.730469 C 219.371094 115.328125 237.144531 110.339844 253.65625 114.738281 C 270.164062 119.140625 284.210938 135.011719 282.34375 151.964844 C 281.710938 157.714844 279.398438 163.144531 278.226562 168.808594 C 277.054688 174.472656 277.21875 180.910156 280.929688 185.359375 C 285.542969 190.886719 294.113281 191.375 300.898438 188.957031 C 307.6875 186.535156 313.371094 181.839844 319.582031 178.183594 C 331.601562 171.105469 346.523438 167.976562 359.757812 172.398438 C 372.992188 176.820312 383.617188 189.851562 382.757812 203.753906 C 382.207031 212.605469 377.421875 220.570312 374.816406 229.050781 C 372.210938 237.53125 372.535156 248.285156 379.78125 253.425781 C 384.09375 256.488281 389.722656 256.722656 394.855469 258.019531 C 405.808594 260.777344 415.210938 269.066406 419.3125 279.578125 C 423.410156 290.082031 422.097656 302.535156 415.902344 311.964844 Z M 415.894531 311.957031 " fill-opacity="1" fill-rule="nonzero"/></g><path fill="#c1b6ff" d="M 176.332031 104.140625 C 176.332031 106.542969 174.382812 108.488281 171.976562 108.488281 C 169.570312 108.488281 167.621094 106.542969 167.621094 104.140625 C 167.621094 101.742188 169.570312 99.796875 171.976562 99.796875 C 174.382812 99.796875 176.332031 101.742188 176.332031 104.140625 Z M 120.359375 183.0625 C 112.746094 183.0625 106.578125 189.222656 106.578125 196.816406 C 106.578125 204.414062 112.746094 210.570312 120.359375 210.570312 C 127.96875 210.570312 134.136719 204.414062 134.136719 196.816406 C 134.136719 189.222656 127.96875 183.0625 120.359375 183.0625 Z M 196.984375 99.796875 C 193.015625 99.796875 189.792969 103.011719 189.792969 106.976562 C 189.792969 110.9375 193.015625 114.152344 196.984375 114.152344 C 200.957031 114.152344 204.179688 110.9375 204.179688 106.976562 C 204.179688 103.011719 200.957031 99.796875 196.984375 99.796875 Z M 92.414062 192.476562 C 90.007812 192.476562 88.058594 194.421875 88.058594 196.820312 C 88.058594 199.222656 90.007812 201.167969 92.414062 201.167969 C 94.816406 201.167969 96.765625 199.222656 96.765625 196.820312 C 96.765625 194.421875 94.816406 192.476562 92.414062 192.476562 Z M 141.335938 171.710938 C 138.929688 171.710938 136.980469 173.65625 136.980469 176.054688 C 136.980469 178.457031 138.929688 180.402344 141.335938 180.402344 C 143.738281 180.402344 145.6875 178.457031 145.6875 176.054688 C 145.6875 173.65625 143.738281 171.710938 141.335938 171.710938 Z M 399.574219 151.839844 C 399.574219 144.242188 393.40625 138.085938 385.792969 138.085938 C 378.183594 138.085938 372.015625 144.242188 372.015625 151.839844 C 372.015625 159.4375 378.183594 165.59375 385.792969 165.59375 C 393.40625 165.59375 399.574219 159.4375 399.574219 151.839844 Z M 282.464844 103.707031 C 277.316406 103.707031 273.144531 107.871094 273.144531 113.007812 C 273.144531 118.148438 277.316406 122.3125 282.464844 122.3125 C 287.613281 122.3125 291.785156 118.148438 291.785156 113.007812 C 291.785156 107.871094 287.613281 103.707031 282.464844 103.707031 Z M 401.933594 224.121094 C 395.015625 224.121094 389.410156 229.71875 389.410156 236.621094 C 389.410156 243.523438 395.015625 249.121094 401.933594 249.121094 C 408.847656 249.121094 414.453125 243.523438 414.453125 236.621094 C 414.453125 229.71875 408.847656 224.121094 401.933594 224.121094 Z M 316.800781 118.484375 C 304.59375 118.484375 294.699219 128.363281 294.699219 140.542969 C 294.699219 152.726562 304.59375 162.605469 316.800781 162.605469 C 329.007812 162.605469 338.902344 152.726562 338.902344 140.542969 C 338.902344 128.363281 329.007812 118.484375 316.800781 118.484375 Z M 316.800781 118.484375 " fill-opacity="1" fill-rule="nonzero"/><path fill="#e0d8ff" d="M 377.742188 324.648438 C 373.425781 331.214844 366.519531 335.601562 361.234375 341.425781 C 359.910156 342.878906 358.839844 344.753906 358.066406 346.859375 C 353.699219 358.773438 367.003906 366.589844 367.003906 366.589844 L 213.113281 366.867188 L 186.777344 366.929688 L 186.777344 366.867188 L 145.160156 366.867188 C 137.765625 366.992188 129.980469 363.574219 127.253906 356.710938 C 124.523438 349.847656 126.488281 341.390625 131.960938 336.425781 C 135.058594 333.613281 139.460938 331.285156 139.851562 327.125 C 140.242188 322.925781 136.265625 319.8125 133.074219 317.050781 C 124.140625 309.328125 118.46875 297.601562 119.21875 285.828125 C 119.96875 274.054688 127.652344 262.691406 138.765625 258.671875 C 144.921875 256.453125 151.855469 256.398438 157.535156 253.15625 C 165.171875 248.800781 168.867188 239.996094 172.375 231.945312 C 177.882812 219.292969 182.03125 212.003906 186.203125 206.503906 C 193.671875 195.597656 203.640625 186.390625 215.160156 179.882812 C 226.597656 173.417969 240.269531 169.582031 252.960938 172.96875 C 265.660156 176.355469 276.464844 188.558594 275.027344 201.601562 C 274.539062 206.023438 272.761719 210.195312 271.859375 214.554688 C 270.957031 218.910156 271.085938 223.863281 273.9375 227.28125 C 277.488281 231.53125 284.078125 231.90625 289.296875 230.050781 C 294.515625 228.1875 298.890625 224.578125 303.660156 221.765625 C 312.90625 216.320312 324.386719 213.914062 334.5625 217.3125 C 344.738281 220.714844 352.910156 230.738281 352.25 241.429688 C 351.824219 248.234375 348.144531 254.359375 346.140625 260.882812 C 344.136719 267.410156 344.386719 275.679688 349.957031 279.632812 C 353.277344 281.988281 357.605469 282.167969 361.554688 283.164062 C 369.976562 285.289062 377.210938 291.664062 380.363281 299.746094 C 383.515625 307.824219 382.507812 317.40625 377.738281 324.65625 Z M 377.742188 324.648438 " fill-opacity="1" fill-rule="nonzero"/><g clip-path="url(#fdc41f907a)"><path fill="#b29b84" d="M 96.160156 366 L 411 366 C 411.925781 366 412.84375 366.089844 413.75 366.269531 C 414.660156 366.453125 415.539062 366.71875 416.394531 367.070312 C 417.25 367.425781 418.0625 367.859375 418.832031 368.371094 C 419.601562 368.886719 420.3125 369.46875 420.96875 370.121094 C 421.625 370.773438 422.207031 371.484375 422.722656 372.253906 C 423.234375 373.019531 423.671875 373.832031 424.023438 374.683594 C 424.378906 375.539062 424.644531 376.417969 424.828125 377.324219 C 425.007812 378.230469 425.097656 379.144531 425.097656 380.070312 C 425.097656 380.992188 425.007812 381.90625 424.828125 382.8125 C 424.644531 383.71875 424.378906 384.597656 424.023438 385.453125 C 423.671875 386.304688 423.234375 387.117188 422.722656 387.886719 C 422.207031 388.652344 421.625 389.363281 420.96875 390.015625 C 420.3125 390.671875 419.601562 391.253906 418.832031 391.765625 C 418.0625 392.28125 417.25 392.714844 416.394531 393.066406 C 415.539062 393.421875 414.660156 393.6875 413.75 393.867188 C 412.84375 394.046875 411.925781 394.136719 411 394.136719 L 96.160156 394.136719 C 95.238281 394.136719 94.320312 394.046875 93.410156 393.867188 C 92.503906 393.6875 91.621094 393.421875 90.765625 393.066406 C 89.914062 392.714844 89.101562 392.28125 88.332031 391.765625 C 87.558594 391.253906 86.847656 390.671875 86.195312 390.015625 C 85.539062 389.363281 84.953125 388.652344 84.441406 387.886719 C 83.925781 387.117188 83.492188 386.304688 83.136719 385.453125 C 82.785156 384.597656 82.515625 383.71875 82.335938 382.8125 C 82.15625 381.90625 82.066406 380.992188 82.066406 380.070312 C 82.066406 379.144531 82.15625 378.230469 82.335938 377.324219 C 82.515625 376.417969 82.785156 375.539062 83.136719 374.683594 C 83.492188 373.832031 83.925781 373.019531 84.441406 372.253906 C 84.953125 371.484375 85.539062 370.773438 86.195312 370.121094 C 86.847656 369.46875 87.558594 368.886719 88.332031 368.371094 C 89.101562 367.859375 89.914062 367.425781 90.765625 367.070312 C 91.621094 366.71875 92.503906 366.453125 93.410156 366.269531 C 94.320312 366.089844 95.238281 366 96.160156 366 Z M 96.160156 366 " fill-opacity="1" fill-rule="nonzero"/></g><path fill="#998573" d="M 104.855469 373.535156 L 302.140625 373.535156 C 302.445312 373.535156 302.75 373.566406 303.050781 373.625 C 303.355469 373.6875 303.648438 373.773438 303.929688 373.890625 C 304.214844 374.007812 304.484375 374.152344 304.738281 374.324219 C 304.996094 374.492188 305.230469 374.6875 305.449219 374.90625 C 305.667969 375.121094 305.859375 375.359375 306.03125 375.613281 C 306.203125 375.867188 306.347656 376.136719 306.464844 376.421875 C 306.582031 376.703125 306.671875 376.996094 306.730469 377.296875 C 306.789062 377.597656 306.820312 377.902344 306.820312 378.210938 C 306.820312 378.515625 306.789062 378.820312 306.730469 379.121094 C 306.671875 379.421875 306.582031 379.714844 306.464844 379.996094 C 306.347656 380.28125 306.203125 380.550781 306.03125 380.804688 C 305.859375 381.058594 305.667969 381.296875 305.449219 381.511719 C 305.230469 381.730469 304.996094 381.925781 304.738281 382.09375 C 304.484375 382.265625 304.214844 382.410156 303.929688 382.527344 C 303.648438 382.644531 303.355469 382.734375 303.050781 382.792969 C 302.75 382.851562 302.445312 382.882812 302.140625 382.882812 L 104.855469 382.882812 C 104.546875 382.882812 104.242188 382.851562 103.941406 382.792969 C 103.640625 382.734375 103.347656 382.644531 103.0625 382.527344 C 102.78125 382.410156 102.511719 382.265625 102.253906 382.09375 C 102 381.925781 101.761719 381.730469 101.542969 381.511719 C 101.328125 381.296875 101.132812 381.058594 100.960938 380.804688 C 100.792969 380.550781 100.648438 380.28125 100.53125 379.996094 C 100.414062 379.714844 100.324219 379.421875 100.261719 379.121094 C 100.203125 378.820312 100.171875 378.515625 100.171875 378.210938 C 100.171875 377.902344 100.203125 377.597656 100.261719 377.296875 C 100.324219 376.996094 100.414062 376.703125 100.53125 376.421875 C 100.648438 376.136719 100.792969 375.867188 100.960938 375.613281 C 101.132812 375.359375 101.328125 375.121094 101.542969 374.90625 C 101.761719 374.6875 102 374.492188 102.253906 374.324219 C 102.511719 374.152344 102.78125 374.007812 103.0625 373.890625 C 103.347656 373.773438 103.640625 373.6875 103.941406 373.625 C 104.242188 373.566406 104.546875 373.535156 104.855469 373.535156 Z M 104.855469 373.535156 " fill-opacity="1" fill-rule="nonzero"/><path fill="#998573" d="M 318.667969 373.535156 L 407.050781 373.535156 C 407.359375 373.535156 407.664062 373.566406 407.964844 373.625 C 408.265625 373.6875 408.558594 373.773438 408.84375 373.890625 C 409.128906 374.007812 409.398438 374.152344 409.652344 374.324219 C 409.90625 374.492188 410.144531 374.6875 410.363281 374.90625 C 410.578125 375.121094 410.773438 375.359375 410.945312 375.613281 C 411.113281 375.867188 411.257812 376.136719 411.375 376.421875 C 411.496094 376.703125 411.582031 376.996094 411.644531 377.296875 C 411.703125 377.597656 411.734375 377.902344 411.734375 378.210938 C 411.734375 378.515625 411.703125 378.820312 411.644531 379.121094 C 411.582031 379.421875 411.496094 379.714844 411.375 379.996094 C 411.257812 380.28125 411.113281 380.550781 410.945312 380.804688 C 410.773438 381.058594 410.578125 381.296875 410.363281 381.511719 C 410.144531 381.730469 409.90625 381.925781 409.652344 382.09375 C 409.398438 382.265625 409.128906 382.410156 408.84375 382.527344 C 408.558594 382.644531 408.265625 382.734375 407.964844 382.792969 C 407.664062 382.851562 407.359375 382.882812 407.050781 382.882812 L 318.667969 382.882812 C 318.359375 382.882812 318.054688 382.851562 317.753906 382.792969 C 317.453125 382.734375 317.160156 382.644531 316.875 382.527344 C 316.589844 382.410156 316.320312 382.265625 316.066406 382.09375 C 315.808594 381.925781 315.574219 381.730469 315.355469 381.511719 C 315.136719 381.296875 314.945312 381.058594 314.773438 380.804688 C 314.601562 380.550781 314.457031 380.28125 314.339844 379.996094 C 314.222656 379.714844 314.132812 379.421875 314.074219 379.121094 C 314.015625 378.820312 313.984375 378.515625 313.984375 378.210938 C 313.984375 377.902344 314.015625 377.597656 314.074219 377.296875 C 314.132812 376.996094 314.222656 376.703125 314.339844 376.421875 C 314.457031 376.136719 314.601562 375.867188 314.773438 375.613281 C 314.945312 375.359375 315.136719 375.121094 315.355469 374.90625 C 315.574219 374.6875 315.808594 374.492188 316.066406 374.324219 C 316.320312 374.152344 316.589844 374.007812 316.875 373.890625 C 317.160156 373.773438 317.453125 373.6875 317.753906 373.625 C 318.054688 373.566406 318.359375 373.535156 318.667969 373.535156 Z M 318.667969 373.535156 " fill-opacity="1" fill-rule="nonzero"/><path fill="#93d337" d="M 106.097656 388.617188 C 102.371094 388.605469 98.808594 387.226562 95.9375 384.855469 C 95.011719 384.09375 94.015625 383.390625 93.050781 382.691406 C 90.308594 380.703125 87.496094 378.359375 87.148438 374.78125 C 86.980469 373.058594 87.652344 371.320312 89.042969 370.296875 C 92.511719 367.730469 96.21875 372.273438 99.460938 370.757812 C 100.078125 366.507812 96.242188 363.046875 92.777344 360.5 C 89.3125 357.949219 85.433594 354.589844 85.914062 350.320312 C 86.355469 346.394531 91.316406 343.761719 94.820312 345.59375 C 97.792969 347.140625 99.96875 351.191406 103.277344 350.273438 C 104.734375 349.867188 105.773438 348.589844 106.023438 347.101562 C 106.632812 343.484375 104.230469 340.695312 102.402344 337.84375 C 100.867188 335.445312 99.671875 332.34375 101.011719 329.832031 C 102.628906 326.796875 106.882812 326.4375 109.441406 324.148438 C 112.972656 320.988281 112.625 314.828125 116.414062 311.984375 C 120.15625 309.171875 125.921875 311.515625 128.390625 315.492188 C 130.855469 319.464844 130.972656 324.402344 131.140625 329.074219 C 131.25 332.0625 132.078125 335.855469 135.035156 336.347656 C 137.621094 336.777344 139.664062 334.199219 140.726562 331.808594 C 141.886719 329.207031 142.976562 326.097656 145.9375 325.449219 C 147.574219 325.089844 149.261719 325.660156 150.507812 326.789062 C 152.875 328.925781 153.398438 332.09375 153.546875 335.113281 C 153.746094 339.167969 153.363281 343.246094 152.414062 347.195312 C 154.710938 345.734375 157.902344 345.847656 160.089844 347.464844 C 162.273438 349.082031 163.304688 352.105469 162.566406 354.71875 C 162.023438 356.648438 160.664062 358.21875 159.40625 359.773438 C 158.136719 361.347656 156.890625 363.082031 156.683594 365.09375 C 156.5625 366.332031 156.949219 367.585938 157.777344 368.519531 C 160.1875 371.230469 162.878906 367.839844 165.21875 369.765625 C 165.757812 370.207031 166.105469 370.84375 166.246094 371.523438 C 166.609375 373.324219 165.78125 374.960938 164.875 376.441406 C 162.941406 379.597656 160.511719 382.453125 157.714844 384.878906 C 154.84375 387.375 151.164062 388.742188 147.359375 388.734375 L 106.105469 388.628906 Z M 106.097656 388.617188 " fill-opacity="1" fill-rule="nonzero"/><path fill="#5fa50e" d="M 111.652344 388.644531 C 110.757812 386.925781 109.085938 385.785156 107.519531 384.648438 C 105.953125 383.515625 104.351562 382.207031 103.75 380.371094 C 103.148438 378.53125 104.058594 376.089844 105.964844 375.765625 C 107.964844 375.425781 110.019531 377.4375 111.855469 376.578125 C 112.273438 373.703125 109.679688 371.367188 107.335938 369.644531 C 104.992188 367.921875 102.371094 365.648438 102.695312 362.761719 C 102.992188 360.109375 106.347656 358.328125 108.71875 359.5625 C 110.691406 360.59375 112.144531 363.253906 114.316406 362.757812 C 115.691406 362.445312 116.453125 360.855469 116.34375 359.457031 C 116.195312 357.535156 114.882812 355.945312 113.839844 354.324219 C 112.800781 352.703125 111.992188 350.605469 112.902344 348.90625 C 113.996094 346.855469 116.867188 346.609375 118.601562 345.0625 C 120.988281 342.921875 120.753906 338.761719 123.316406 336.835938 C 125.847656 334.933594 129.75 336.519531 131.417969 339.207031 C 133.085938 341.894531 133.164062 345.230469 133.277344 348.390625 C 133.351562 350.414062 133.914062 352.976562 135.914062 353.308594 C 137.660156 353.601562 139.042969 351.855469 139.761719 350.238281 C 140.476562 348.621094 141.164062 346.71875 142.8125 346.078125 C 144.367188 345.476562 146.195312 346.355469 147.144531 347.71875 C 148.097656 349.082031 148.347656 350.8125 148.429688 352.46875 C 148.5625 355.210938 148.304688 357.972656 147.664062 360.640625 C 149.214844 359.652344 151.371094 359.726562 152.851562 360.824219 C 154.328125 361.917969 155.027344 363.960938 154.527344 365.726562 C 154.160156 367.03125 153.242188 368.09375 152.390625 369.148438 C 151.535156 370.203125 150.703125 371.359375 150.554688 372.703125 C 150.402344 374.050781 151.207031 375.589844 152.550781 375.78125 C 153.605469 375.929688 154.691406 375.242188 155.707031 375.5625 C 156.605469 375.84375 157.109375 376.867188 157.070312 377.804688 C 157.035156 378.742188 156.578125 379.613281 156.085938 380.414062 C 154 383.820312 151.058594 386.703125 147.613281 388.734375 L 111.65625 388.640625 Z M 111.652344 388.644531 " fill-opacity="1" fill-rule="nonzero"/><path fill="#ffb0b8" d="M 257.566406 257.601562 L 111.085938 257.601562 C 111.085938 257.601562 100.609375 151.027344 100.609375 151.027344 C 100.289062 147.773438 102.6875 144.882812 105.949219 144.582031 L 258.691406 130.589844 C 262.296875 130.261719 265.351562 133.21875 265.125 136.828125 L 257.570312 257.601562 Z M 257.566406 257.601562 " fill-opacity="1" fill-rule="nonzero"/><path fill="#132d44" d="M 257.230469 261.738281 L 109.429688 261.738281 C 108.976562 261.738281 108.542969 261.652344 108.125 261.480469 C 107.707031 261.308594 107.339844 261.0625 107.019531 260.742188 C 106.699219 260.425781 106.453125 260.054688 106.28125 259.640625 C 106.109375 259.222656 106.019531 258.789062 106.019531 258.339844 L 106.019531 256.867188 C 106.019531 256.414062 106.109375 255.980469 106.28125 255.566406 C 106.453125 255.148438 106.699219 254.78125 107.019531 254.460938 C 107.339844 254.144531 107.707031 253.898438 108.125 253.722656 C 108.542969 253.550781 108.976562 253.464844 109.429688 253.464844 L 257.230469 253.464844 C 257.679688 253.464844 258.113281 253.550781 258.53125 253.722656 C 258.949219 253.898438 259.316406 254.144531 259.636719 254.460938 C 259.957031 254.78125 260.203125 255.148438 260.375 255.566406 C 260.550781 255.980469 260.636719 256.414062 260.636719 256.867188 L 260.636719 258.339844 C 260.636719 258.789062 260.550781 259.222656 260.375 259.640625 C 260.203125 260.054688 259.957031 260.425781 259.636719 260.742188 C 259.316406 261.0625 258.949219 261.308594 258.53125 261.480469 C 258.113281 261.652344 257.679688 261.738281 257.230469 261.738281 Z M 257.230469 261.738281 " fill-opacity="1" fill-rule="nonzero"/><g clip-path="url(#f579e4a0bc)"><path fill="#ffca36" d="M 253.980469 113.835938 C 251.125 92 236.140625 78.894531 214.140625 78.894531 C 192.140625 78.894531 174.300781 94.539062 174.300781 113.835938 C 174.300781 133.136719 192.140625 148.78125 214.140625 148.78125 C 223.257812 148.78125 231.65625 146.089844 238.367188 141.570312 C 239.09375 145.429688 239.121094 151.757812 233.75 157.441406 C 232.9375 158.296875 233.917969 159.660156 234.992188 159.160156 C 243.269531 155.332031 256.046875 137.949219 253.980469 113.835938 Z M 253.980469 113.835938 " fill-opacity="1" fill-rule="nonzero"/></g><path fill="#ffffff" d="M 199.832031 113.132812 C 199.832031 113.566406 199.789062 114 199.703125 114.425781 C 199.617188 114.851562 199.492188 115.269531 199.324219 115.671875 C 199.160156 116.074219 198.953125 116.453125 198.710938 116.816406 C 198.46875 117.179688 198.195312 117.515625 197.886719 117.820312 C 197.578125 118.128906 197.242188 118.40625 196.878906 118.648438 C 196.515625 118.890625 196.132812 119.09375 195.730469 119.261719 C 195.324219 119.425781 194.910156 119.550781 194.484375 119.636719 C 194.054688 119.722656 193.621094 119.765625 193.1875 119.765625 C 192.75 119.765625 192.316406 119.722656 191.890625 119.636719 C 191.460938 119.550781 191.046875 119.425781 190.644531 119.261719 C 190.238281 119.09375 189.855469 118.890625 189.492188 118.648438 C 189.132812 118.40625 188.796875 118.128906 188.488281 117.820312 C 188.179688 117.515625 187.902344 117.179688 187.660156 116.816406 C 187.417969 116.453125 187.214844 116.074219 187.046875 115.671875 C 186.878906 115.269531 186.753906 114.851562 186.667969 114.425781 C 186.582031 114 186.539062 113.566406 186.539062 113.132812 C 186.539062 112.695312 186.582031 112.265625 186.667969 111.835938 C 186.753906 111.410156 186.878906 110.996094 187.046875 110.59375 C 187.214844 110.191406 187.417969 109.808594 187.660156 109.445312 C 187.902344 109.085938 188.179688 108.75 188.488281 108.441406 C 188.796875 108.132812 189.132812 107.859375 189.492188 107.617188 C 189.855469 107.375 190.238281 107.171875 190.644531 107.003906 C 191.046875 106.835938 191.460938 106.710938 191.890625 106.625 C 192.316406 106.542969 192.75 106.5 193.1875 106.5 C 193.621094 106.5 194.054688 106.542969 194.484375 106.625 C 194.910156 106.710938 195.324219 106.835938 195.730469 107.003906 C 196.132812 107.171875 196.515625 107.375 196.878906 107.617188 C 197.242188 107.859375 197.578125 108.132812 197.886719 108.441406 C 198.195312 108.75 198.46875 109.085938 198.710938 109.445312 C 198.953125 109.808594 199.160156 110.191406 199.324219 110.59375 C 199.492188 110.996094 199.617188 111.410156 199.703125 111.835938 C 199.789062 112.265625 199.832031 112.695312 199.832031 113.132812 Z M 199.832031 113.132812 " fill-opacity="1" fill-rule="nonzero"/><path fill="#ffffff" d="M 220.648438 113.132812 C 220.648438 113.566406 220.605469 114 220.519531 114.425781 C 220.433594 114.851562 220.308594 115.269531 220.140625 115.671875 C 219.972656 116.074219 219.769531 116.453125 219.527344 116.816406 C 219.285156 117.179688 219.007812 117.515625 218.699219 117.820312 C 218.390625 118.128906 218.054688 118.40625 217.695312 118.648438 C 217.332031 118.890625 216.949219 119.09375 216.542969 119.261719 C 216.140625 119.425781 215.726562 119.550781 215.296875 119.636719 C 214.871094 119.722656 214.4375 119.765625 214 119.765625 C 213.566406 119.765625 213.132812 119.722656 212.703125 119.636719 C 212.277344 119.550781 211.863281 119.425781 211.457031 119.261719 C 211.054688 119.09375 210.671875 118.890625 210.308594 118.648438 C 209.945312 118.40625 209.609375 118.128906 209.300781 117.820312 C 208.992188 117.515625 208.71875 117.179688 208.476562 116.816406 C 208.234375 116.453125 208.027344 116.074219 207.863281 115.671875 C 207.695312 115.269531 207.570312 114.851562 207.484375 114.425781 C 207.398438 114 207.355469 113.566406 207.355469 113.132812 C 207.355469 112.695312 207.398438 112.265625 207.484375 111.835938 C 207.570312 111.410156 207.695312 110.996094 207.863281 110.59375 C 208.027344 110.191406 208.234375 109.808594 208.476562 109.445312 C 208.71875 109.085938 208.992188 108.75 209.300781 108.441406 C 209.609375 108.132812 209.945312 107.859375 210.308594 107.617188 C 210.671875 107.375 211.054688 107.171875 211.457031 107.003906 C 211.863281 106.835938 212.277344 106.710938 212.703125 106.625 C 213.132812 106.542969 213.566406 106.5 214 106.5 C 214.4375 106.5 214.871094 106.542969 215.296875 106.625 C 215.726562 106.710938 216.140625 106.835938 216.542969 107.003906 C 216.949219 107.171875 217.332031 107.375 217.695312 107.617188 C 218.054688 107.859375 218.390625 108.132812 218.699219 108.441406 C 219.007812 108.75 219.285156 109.085938 219.527344 109.445312 C 219.769531 109.808594 219.972656 110.191406 220.140625 110.59375 C 220.308594 110.996094 220.433594 111.410156 220.519531 111.835938 C 220.605469 112.265625 220.648438 112.695312 220.648438 113.132812 Z M 220.648438 113.132812 " fill-opacity="1" fill-rule="nonzero"/><path fill="#ffffff" d="M 241.464844 113.132812 C 241.464844 113.566406 241.421875 114 241.335938 114.425781 C 241.25 114.851562 241.125 115.269531 240.957031 115.671875 C 240.789062 116.074219 240.585938 116.453125 240.34375 116.816406 C 240.101562 117.179688 239.824219 117.515625 239.515625 117.820312 C 239.207031 118.128906 238.871094 118.40625 238.507812 118.648438 C 238.148438 118.890625 237.761719 119.09375 237.359375 119.261719 C 236.957031 119.425781 236.542969 119.550781 236.113281 119.636719 C 235.6875 119.722656 235.253906 119.765625 234.816406 119.765625 C 234.378906 119.765625 233.949219 119.722656 233.519531 119.636719 C 233.09375 119.550781 232.675781 119.425781 232.273438 119.261719 C 231.871094 119.09375 231.488281 118.890625 231.125 118.648438 C 230.761719 118.40625 230.425781 118.128906 230.117188 117.820312 C 229.808594 117.515625 229.535156 117.179688 229.292969 116.816406 C 229.050781 116.453125 228.84375 116.074219 228.675781 115.671875 C 228.511719 115.269531 228.382812 114.851562 228.300781 114.425781 C 228.214844 114 228.171875 113.566406 228.171875 113.132812 C 228.171875 112.695312 228.214844 112.265625 228.300781 111.835938 C 228.382812 111.410156 228.511719 110.996094 228.675781 110.59375 C 228.84375 110.191406 229.050781 109.808594 229.292969 109.445312 C 229.535156 109.085938 229.808594 108.75 230.117188 108.441406 C 230.425781 108.132812 230.761719 107.859375 231.125 107.617188 C 231.488281 107.375 231.871094 107.171875 232.273438 107.003906 C 232.675781 106.835938 233.09375 106.710938 233.519531 106.625 C 233.949219 106.542969 234.378906 106.5 234.816406 106.5 C 235.253906 106.5 235.6875 106.542969 236.113281 106.625 C 236.542969 106.710938 236.957031 106.835938 237.359375 107.003906 C 237.761719 107.171875 238.148438 107.375 238.507812 107.617188 C 238.871094 107.859375 239.207031 108.132812 239.515625 108.441406 C 239.824219 108.75 240.101562 109.085938 240.34375 109.445312 C 240.585938 109.808594 240.789062 110.191406 240.957031 110.59375 C 241.125 110.996094 241.25 111.410156 241.335938 111.835938 C 241.421875 112.265625 241.464844 112.695312 241.464844 113.132812 Z M 241.464844 113.132812 " fill-opacity="1" fill-rule="nonzero"/><path fill="#ffca36" d="M 272.398438 164.609375 C 275.25 142.769531 290.234375 129.664062 312.234375 129.664062 C 334.238281 129.664062 352.074219 145.308594 352.074219 164.609375 C 352.074219 183.90625 334.234375 199.550781 312.234375 199.550781 C 303.117188 199.550781 294.722656 196.863281 288.007812 192.339844 C 287.28125 196.199219 287.253906 202.527344 292.625 208.210938 C 293.4375 209.070312 292.457031 210.429688 291.382812 209.929688 C 283.105469 206.101562 270.328125 188.71875 272.398438 164.609375 Z M 272.398438 164.609375 " fill-opacity="1" fill-rule="nonzero"/><path fill="#ffffff" d="M 339.835938 163.898438 C 339.835938 164.335938 339.792969 164.765625 339.707031 165.191406 C 339.621094 165.621094 339.496094 166.035156 339.328125 166.4375 C 339.164062 166.839844 338.957031 167.222656 338.714844 167.585938 C 338.472656 167.945312 338.195312 168.28125 337.886719 168.589844 C 337.578125 168.898438 337.246094 169.171875 336.882812 169.414062 C 336.519531 169.65625 336.136719 169.859375 335.734375 170.027344 C 335.328125 170.195312 334.914062 170.320312 334.484375 170.40625 C 334.058594 170.488281 333.625 170.53125 333.1875 170.53125 C 332.753906 170.53125 332.320312 170.488281 331.894531 170.40625 C 331.464844 170.320312 331.050781 170.195312 330.644531 170.027344 C 330.242188 169.859375 329.859375 169.65625 329.496094 169.414062 C 329.132812 169.171875 328.796875 168.898438 328.488281 168.589844 C 328.179688 168.28125 327.90625 167.945312 327.664062 167.585938 C 327.421875 167.222656 327.214844 166.839844 327.050781 166.4375 C 326.882812 166.035156 326.757812 165.621094 326.671875 165.191406 C 326.585938 164.765625 326.542969 164.335938 326.542969 163.898438 C 326.542969 163.464844 326.585938 163.03125 326.671875 162.605469 C 326.757812 162.179688 326.882812 161.761719 327.050781 161.359375 C 327.214844 160.957031 327.421875 160.574219 327.664062 160.214844 C 327.90625 159.851562 328.179688 159.515625 328.488281 159.207031 C 328.796875 158.902344 329.132812 158.625 329.496094 158.382812 C 329.859375 158.140625 330.242188 157.9375 330.644531 157.769531 C 331.050781 157.605469 331.464844 157.476562 331.894531 157.394531 C 332.320312 157.308594 332.753906 157.265625 333.1875 157.265625 C 333.625 157.265625 334.058594 157.308594 334.484375 157.394531 C 334.914062 157.476562 335.328125 157.605469 335.734375 157.769531 C 336.136719 157.9375 336.519531 158.140625 336.882812 158.382812 C 337.246094 158.625 337.578125 158.902344 337.886719 159.207031 C 338.195312 159.515625 338.472656 159.851562 338.714844 160.214844 C 338.957031 160.574219 339.164062 160.957031 339.328125 161.359375 C 339.496094 161.761719 339.621094 162.179688 339.707031 162.605469 C 339.792969 163.03125 339.835938 163.464844 339.835938 163.898438 Z M 339.835938 163.898438 " fill-opacity="1" fill-rule="nonzero"/><path fill="#ffffff" d="M 319.019531 163.898438 C 319.019531 164.335938 318.976562 164.765625 318.890625 165.191406 C 318.808594 165.621094 318.679688 166.035156 318.511719 166.4375 C 318.347656 166.839844 318.140625 167.222656 317.898438 167.585938 C 317.65625 167.945312 317.382812 168.28125 317.074219 168.589844 C 316.765625 168.898438 316.429688 169.171875 316.066406 169.414062 C 315.703125 169.65625 315.320312 169.859375 314.917969 170.027344 C 314.515625 170.195312 314.097656 170.320312 313.671875 170.40625 C 313.242188 170.488281 312.808594 170.53125 312.375 170.53125 C 311.9375 170.53125 311.503906 170.488281 311.078125 170.40625 C 310.648438 170.320312 310.234375 170.195312 309.832031 170.027344 C 309.425781 169.859375 309.042969 169.65625 308.679688 169.414062 C 308.320312 169.171875 307.984375 168.898438 307.675781 168.589844 C 307.367188 168.28125 307.089844 167.945312 306.847656 167.585938 C 306.605469 167.222656 306.402344 166.839844 306.234375 166.4375 C 306.066406 166.035156 305.941406 165.621094 305.855469 165.191406 C 305.769531 164.765625 305.726562 164.335938 305.726562 163.898438 C 305.726562 163.464844 305.769531 163.03125 305.855469 162.605469 C 305.941406 162.179688 306.066406 161.761719 306.234375 161.359375 C 306.402344 160.957031 306.605469 160.574219 306.847656 160.214844 C 307.089844 159.851562 307.367188 159.515625 307.675781 159.207031 C 307.984375 158.902344 308.320312 158.625 308.679688 158.382812 C 309.042969 158.140625 309.425781 157.9375 309.832031 157.769531 C 310.234375 157.605469 310.648438 157.476562 311.078125 157.394531 C 311.503906 157.308594 311.9375 157.265625 312.375 157.265625 C 312.808594 157.265625 313.242188 157.308594 313.671875 157.394531 C 314.097656 157.476562 314.515625 157.605469 314.917969 157.769531 C 315.320312 157.9375 315.703125 158.140625 316.066406 158.382812 C 316.429688 158.625 316.765625 158.902344 317.074219 159.207031 C 317.382812 159.515625 317.65625 159.851562 317.898438 160.214844 C 318.140625 160.574219 318.347656 160.957031 318.511719 161.359375 C 318.679688 161.761719 318.808594 162.179688 318.890625 162.605469 C 318.976562 163.03125 319.019531 163.464844 319.019531 163.898438 Z M 319.019531 163.898438 " fill-opacity="1" fill-rule="nonzero"/><path fill="#ffffff" d="M 298.203125 163.898438 C 298.203125 164.335938 298.160156 164.765625 298.078125 165.191406 C 297.992188 165.621094 297.863281 166.035156 297.699219 166.4375 C 297.53125 166.839844 297.328125 167.222656 297.082031 167.585938 C 296.839844 167.945312 296.566406 168.28125 296.257812 168.589844 C 295.949219 168.898438 295.613281 169.171875 295.25 169.414062 C 294.886719 169.65625 294.503906 169.859375 294.101562 170.027344 C 293.699219 170.195312 293.28125 170.320312 292.855469 170.40625 C 292.425781 170.488281 291.996094 170.53125 291.558594 170.53125 C 291.121094 170.53125 290.691406 170.488281 290.261719 170.40625 C 289.832031 170.320312 289.417969 170.195312 289.015625 170.027344 C 288.613281 169.859375 288.230469 169.65625 287.867188 169.414062 C 287.503906 169.171875 287.167969 168.898438 286.859375 168.589844 C 286.550781 168.28125 286.273438 167.945312 286.03125 167.585938 C 285.789062 167.222656 285.585938 166.839844 285.417969 166.4375 C 285.25 166.035156 285.125 165.621094 285.039062 165.191406 C 284.953125 164.765625 284.914062 164.335938 284.914062 163.898438 C 284.914062 163.464844 284.953125 163.03125 285.039062 162.605469 C 285.125 162.179688 285.25 161.761719 285.417969 161.359375 C 285.585938 160.957031 285.789062 160.574219 286.03125 160.214844 C 286.273438 159.851562 286.550781 159.515625 286.859375 159.207031 C 287.167969 158.902344 287.503906 158.625 287.867188 158.382812 C 288.230469 158.140625 288.613281 157.9375 289.015625 157.769531 C 289.417969 157.605469 289.832031 157.476562 290.261719 157.394531 C 290.691406 157.308594 291.121094 157.265625 291.558594 157.265625 C 291.996094 157.265625 292.425781 157.308594 292.855469 157.394531 C 293.28125 157.476562 293.699219 157.605469 294.101562 157.769531 C 294.503906 157.9375 294.886719 158.140625 295.25 158.382812 C 295.613281 158.625 295.949219 158.902344 296.257812 159.207031 C 296.566406 159.515625 296.839844 159.851562 297.082031 160.214844 C 297.328125 160.574219 297.53125 160.957031 297.699219 161.359375 C 297.863281 161.761719 297.992188 162.179688 298.078125 162.605469 C 298.160156 163.03125 298.203125 163.464844 298.203125 163.898438 Z M 298.203125 163.898438 " fill-opacity="1" fill-rule="nonzero"/><path fill="#fffff3" d="M 188.234375 187.261719 C 188.234375 187.261719 201.371094 210.621094 207.097656 219.707031 C 212.824219 228.792969 227.324219 226.550781 221.367188 208.621094 C 215.410156 190.695312 208.253906 179.394531 200.601562 175.128906 C 192.949219 170.859375 183.707031 176.683594 188.230469 187.261719 Z M 188.234375 187.261719 " fill-opacity="1" fill-rule="nonzero"/><path fill="#ffdd99" d="M 248.125 192.453125 C 250.238281 192.304688 252.332031 191.988281 254.390625 191.511719 C 255.144531 191.335938 255.90625 191.136719 256.554688 190.730469 C 257.589844 190.082031 258.234375 188.996094 258.792969 187.925781 C 260.515625 184.613281 261.777344 181.03125 262.105469 177.316406 C 262.183594 176.410156 262.207031 175.484375 261.964844 174.605469 C 261.726562 173.726562 261.191406 172.890625 260.378906 172.441406 C 259.777344 172.109375 259.070312 172.015625 258.378906 172.015625 C 256.257812 172.019531 254.226562 172.882812 252.511719 174.082031 C 250.792969 175.28125 249.355469 176.8125 247.925781 178.332031 C 246.457031 179.898438 244.988281 181.460938 243.523438 183.027344 L 248.121094 192.457031 Z M 248.125 192.453125 " fill-opacity="1" fill-rule="nonzero"/><path fill="#f2f1cc" d="M 221.785156 222.679688 C 221.785156 222.679688 236.445312 212.570312 256.535156 191.996094 C 257.089844 191.429688 257.246094 190.59375 256.9375 189.859375 C 255.769531 187.128906 252.320312 180.671875 245.171875 178.722656 C 244.449219 178.527344 243.6875 178.757812 243.183594 179.289062 C 239.652344 183.042969 224.886719 198.496094 211.078125 209.34375 C 211.078125 209.34375 203.433594 215.03125 209.84375 221.886719 C 214.953125 227.351562 221.785156 222.679688 221.785156 222.679688 Z M 221.785156 222.679688 " fill-opacity="1" fill-rule="nonzero"/><path fill="#505659" d="M 159.707031 179.160156 C 155.851562 180.957031 153.046875 184.746094 151.839844 188.785156 C 150.582031 192.980469 150.179688 242.746094 155.148438 252.574219 C 156.664062 255.578125 161.992188 257.148438 165.316406 257.863281 C 174.777344 259.886719 184.851562 259.0625 193.84375 255.511719 C 196.226562 254.570312 198.667969 253.335938 199.984375 251.15625 C 200.777344 249.851562 201.425781 248.347656 201.375 246.828125 C 200.09375 213.277344 201.316406 216.375 204.300781 197.433594 C 205.140625 192.121094 205.957031 186.421875 203.820312 181.476562 C 201.6875 176.527344 191.621094 164.25 159.710938 179.160156 Z M 159.707031 179.160156 " fill-opacity="1" fill-rule="nonzero"/><path fill="#ffdd99" d="M 177.808594 174.859375 C 177.808594 174.859375 168.609375 176.261719 167.144531 179.902344 C 165.679688 183.542969 182.070312 194.503906 186.75 189.488281 C 191.433594 184.46875 197.964844 170.1875 177.808594 174.859375 Z M 177.808594 174.859375 " fill-opacity="1" fill-rule="nonzero"/><path fill="#4c1b1b" d="M 200.230469 142.179688 C 200.230469 142.179688 209.539062 141.203125 210.683594 128.996094 C 211.738281 117.722656 206.308594 124.285156 200.425781 124.839844 C 194.542969 125.394531 181.222656 109.855469 172.386719 127.640625 C 172.386719 127.640625 166.507812 124.742188 163.804688 135.484375 C 161.101562 146.222656 163.71875 158.59375 174.585938 157.011719 C 185.453125 155.429688 200.230469 142.183594 200.230469 142.183594 Z M 200.230469 142.179688 " fill-opacity="1" fill-rule="nonzero"/><path fill="#ffdd99" d="M 176.898438 154.972656 C 175.125 155.816406 172.878906 155.339844 171.414062 154.035156 C 169.945312 152.730469 169.210938 150.722656 169.210938 148.761719 C 169.210938 146.851562 169.894531 144.898438 171.285156 143.582031 C 172.671875 142.265625 174.800781 141.683594 176.597656 142.34375 C 178.035156 142.871094 179.261719 144.601562 179.332031 146.796875 C 179.363281 147.652344 180.136719 148.285156 180.96875 148.085938 L 181.03125 148.074219 C 181.503906 147.960938 181.878906 147.601562 182.007812 147.128906 L 184.203125 139.066406 C 184.203125 139.066406 190.984375 147.1875 200.230469 142.1875 C 200.230469 142.1875 205.925781 168.320312 189.210938 169.765625 C 172.496094 171.210938 176.898438 154.976562 176.898438 154.976562 Z M 176.898438 154.972656 " fill-opacity="1" fill-rule="nonzero"/><path fill="#ff9a7b" d="M 175.515625 152.628906 C 176.453125 152.519531 177.171875 151.742188 177.242188 150.800781 C 177.402344 148.59375 177.25 144.539062 173.832031 145.117188 C 169.625 145.828125 171.023438 153.152344 175.515625 152.628906 Z M 175.515625 152.628906 " fill-opacity="1" fill-rule="nonzero"/><path fill="#fffff3" d="M 150.492188 189.210938 C 150.492188 189.210938 146.125 214.296875 144.914062 224.417969 C 143.699219 234.535156 156.421875 241.480469 162.996094 224.675781 C 169.570312 207.871094 171.046875 195.261719 167.742188 187.5625 C 164.441406 179.867188 153.582031 178.691406 150.492188 189.210938 Z M 150.492188 189.210938 " fill-opacity="1" fill-rule="nonzero"/><path fill="#ffdd99" d="M 193.628906 243.523438 C 195 245.253906 196.503906 246.875 198.132812 248.371094 C 198.726562 248.917969 199.355469 249.453125 200.09375 249.777344 C 201.269531 250.289062 202.617188 250.207031 203.894531 250.058594 C 207.839844 249.597656 211.761719 248.574219 215.25 246.671875 C 216.101562 246.210938 216.933594 245.6875 217.574219 244.964844 C 218.21875 244.238281 218.648438 243.285156 218.570312 242.324219 C 218.511719 241.609375 218.179688 240.941406 217.78125 240.347656 C 216.539062 238.527344 214.582031 237.277344 212.511719 236.503906 C 210.441406 235.730469 208.242188 235.390625 206.054688 235.054688 C 203.808594 234.707031 201.558594 234.363281 199.3125 234.015625 Z M 193.628906 243.523438 " fill-opacity="1" fill-rule="nonzero"/><path fill="#f2f1cc" d="M 151.386719 238.59375 C 151.386719 238.59375 168.9375 245.28125 198.960938 250.5 C 199.789062 250.648438 200.621094 250.289062 201.089844 249.589844 C 202.832031 246.976562 206.546875 240.210938 204.089844 232.902344 C 203.84375 232.167969 203.191406 231.640625 202.421875 231.527344 C 197.027344 230.6875 174.664062 227.050781 156.960938 221.53125 C 156.960938 221.53125 147.441406 218.289062 145.105469 227.84375 C 143.242188 235.457031 151.386719 238.59375 151.386719 238.59375 Z M 151.386719 238.59375 " fill-opacity="1" fill-rule="nonzero"/><path fill="#a3a198" d="M 338.441406 329.628906 L 345.160156 329.628906 L 345.160156 362.148438 L 338.441406 362.148438 Z M 338.441406 329.628906 " fill-opacity="1" fill-rule="nonzero"/><path fill="#6781cf" d="M 278.078125 306.347656 L 316.582031 306.347656 L 316.582031 325.984375 L 278.078125 325.984375 C 276.402344 325.984375 275.042969 324.628906 275.042969 322.953125 L 275.042969 309.378906 C 275.042969 307.707031 276.402344 306.347656 278.078125 306.347656 Z M 278.078125 306.347656 " fill-opacity="1" fill-rule="nonzero"/><path fill="#6781cf" d="M 327.773438 218.214844 L 358.121094 218.214844 L 358.121094 307.3125 L 316.582031 307.3125 L 316.582031 229.386719 C 316.582031 223.21875 321.597656 218.214844 327.773438 218.214844 Z M 327.773438 218.214844 " fill-opacity="1" fill-rule="nonzero"/><path fill="#3548a0" d="M 357.542969 218.214844 L 357.542969 303.789062 C 357.542969 305.199219 356.394531 306.347656 354.980469 306.347656 L 316.582031 306.347656 L 316.582031 325.980469 L 370.027344 325.980469 C 374.089844 325.980469 377.382812 322.695312 377.382812 318.640625 L 377.382812 227.4375 C 377.382812 222.34375 373.242188 218.214844 368.140625 218.214844 Z M 357.542969 218.214844 " fill-opacity="1" fill-rule="nonzero"/><path fill="#16181e" d="M 315.257812 325.980469 L 368.34375 325.980469 L 368.34375 327.523438 C 368.34375 330.695312 365.761719 333.269531 362.582031 333.269531 L 321.019531 333.269531 C 317.839844 333.269531 315.257812 330.695312 315.257812 327.523438 Z M 315.257812 325.980469 " fill-opacity="1" fill-rule="nonzero"/><path fill="#16181e" d="M 368.34375 366.351562 L 315.257812 366.351562 L 315.257812 364.808594 C 315.257812 361.632812 317.839844 359.058594 321.019531 359.058594 L 362.582031 359.058594 C 365.761719 359.058594 368.34375 361.632812 368.34375 364.808594 Z M 368.34375 366.351562 " fill-opacity="1" fill-rule="nonzero"/><path fill="#454560" d="M 322.242188 236.722656 C 322.242188 236.722656 313.261719 254.835938 309.304688 261.902344 C 305.347656 268.972656 294.339844 267.851562 298.121094 254.109375 C 301.902344 240.371094 306.855469 231.582031 312.449219 228.0625 C 318.046875 224.550781 325.238281 228.574219 322.242188 236.71875 Z M 322.242188 236.722656 " fill-opacity="1" fill-rule="nonzero"/><path fill="#ffdd99" d="M 282.273438 238.308594 C 280.734375 237.898438 279.222656 237.363281 277.765625 236.71875 C 277.234375 236.484375 276.699219 236.222656 276.273438 235.832031 C 275.597656 235.207031 275.277344 234.308594 275.015625 233.433594 C 274.214844 230.738281 273.796875 227.902344 274.082031 225.105469 C 274.152344 224.421875 274.269531 223.734375 274.570312 223.117188 C 274.875 222.5 275.390625 221.953125 276.054688 221.738281 C 276.550781 221.578125 277.085938 221.609375 277.597656 221.710938 C 279.167969 222.015625 280.546875 222.945312 281.648438 224.078125 C 282.75 225.210938 283.59375 226.550781 284.433594 227.882812 C 285.296875 229.25 286.160156 230.617188 287.027344 231.988281 L 282.269531 238.316406 Z M 282.273438 238.308594 " fill-opacity="1" fill-rule="nonzero"/><path fill="#4b4b66" d="M 297.460938 264.453125 C 297.460938 264.453125 288.050781 254.871094 276.109375 236.769531 C 275.78125 236.273438 275.785156 235.628906 276.121094 235.128906 C 277.375 233.269531 280.851562 228.980469 286.429688 228.558594 C 286.988281 228.515625 287.523438 228.792969 287.820312 229.265625 C 289.898438 232.546875 298.625 246.097656 307.296875 256.097656 C 307.296875 256.097656 312.148438 261.402344 306.417969 265.566406 C 301.851562 268.886719 297.460938 264.453125 297.460938 264.453125 Z M 297.460938 264.453125 " fill-opacity="1" fill-rule="nonzero"/><path fill="#3d2b23" d="M 323.976562 303.542969 L 289.15625 308.835938 C 289.15625 308.835938 279.542969 310.757812 277.785156 302.480469 C 276.03125 294.203125 287.714844 290.757812 287.714844 290.757812 L 322.628906 281.101562 C 322.628906 281.101562 333.296875 278.648438 334.679688 289.804688 C 336.066406 300.964844 323.96875 303.539062 323.96875 303.539062 Z M 323.976562 303.542969 " fill-opacity="1" fill-rule="nonzero"/><path fill="#51392e" d="M 339.117188 304.660156 L 305.015625 310.882812 C 305.015625 310.882812 295.625 313.101562 293.507812 304.109375 C 291.390625 295.117188 302.757812 291.210938 302.757812 291.210938 L 336.753906 280.226562 C 336.753906 280.226562 345.984375 258.453125 349.046875 289.554688 C 350.25 301.78125 339.117188 304.65625 339.117188 304.65625 Z M 339.117188 304.660156 " fill-opacity="1" fill-rule="nonzero"/><path fill="#555273" d="M 344.960938 228.125 C 347.871094 229.382812 349.984375 232.039062 350.898438 234.859375 C 351.84375 237.796875 352.148438 272.621094 348.402344 279.5 C 347.257812 281.601562 343.238281 282.699219 340.730469 283.199219 C 333.59375 284.617188 325.996094 284.039062 319.210938 281.554688 C 317.414062 280.898438 315.574219 280.03125 314.582031 278.507812 C 313.984375 277.59375 313.492188 276.542969 313.535156 275.476562 C 314.5 252 313.578125 254.167969 311.328125 240.910156 C 310.699219 237.195312 310.082031 233.207031 311.691406 229.742188 C 313.304688 226.28125 320.890625 217.691406 344.964844 228.121094 Z M 344.960938 228.125 " fill-opacity="1" fill-rule="nonzero"/><path fill="#454560" d="M 352.710938 237.585938 C 352.710938 237.585938 353.207031 256.78125 353 264.46875 C 352.792969 272.15625 342.53125 275.941406 339.476562 262.675781 C 336.425781 249.414062 336.710938 239.84375 340.019531 234.460938 C 343.332031 229.078125 351.566406 229.394531 352.714844 237.582031 Z M 352.710938 237.585938 " fill-opacity="1" fill-rule="nonzero"/><path fill="#ffdd99" d="M 316.09375 280.097656 C 315.21875 281.511719 314.226562 282.859375 313.140625 284.117188 C 312.742188 284.582031 312.320312 285.035156 311.789062 285.339844 C 310.953125 285.824219 309.9375 285.878906 308.96875 285.878906 C 305.96875 285.875 302.945312 285.445312 300.164062 284.324219 C 299.488281 284.054688 298.816406 283.734375 298.273438 283.246094 C 297.730469 282.757812 297.320312 282.082031 297.300781 281.355469 C 297.28125 280.8125 297.472656 280.285156 297.722656 279.804688 C 298.496094 278.332031 299.851562 277.226562 301.335938 276.472656 C 302.820312 275.714844 304.441406 275.265625 306.046875 274.828125 C 307.703125 274.371094 309.355469 273.921875 311.011719 273.46875 L 316.09375 280.101562 Z M 316.09375 280.097656 " fill-opacity="1" fill-rule="nonzero"/><path fill="#4b4b66" d="M 347.320312 272.75 C 347.320312 272.75 334.75 279.28125 312.707031 285.789062 C 312.097656 285.964844 311.441406 285.773438 311.027344 285.289062 C 309.496094 283.480469 306.125 278.734375 307.332031 273.046875 C 307.453125 272.472656 307.894531 272.023438 308.460938 271.867188 C 312.433594 270.773438 328.867188 266.109375 341.65625 260.445312 C 341.65625 260.445312 348.511719 257.191406 351.089844 264.144531 C 353.148438 269.691406 347.320312 272.75 347.320312 272.75 Z M 347.320312 272.75 " fill-opacity="1" fill-rule="nonzero"/><path fill="#363f34" d="M 301.550781 352.683594 L 299.421875 367.066406 C 299.289062 367.949219 298.40625 368.515625 297.570312 368.253906 L 276.164062 361.613281 C 275.371094 361.367188 274.785156 360.6875 274.664062 359.855469 C 274.101562 356.070312 273.78125 346.242188 287.390625 353.675781 L 288.164062 347.0625 L 301.554688 352.683594 Z M 301.550781 352.683594 " fill-opacity="1" fill-rule="nonzero"/><path fill="#51392e" d="M 310.074219 308.546875 C 310.074219 308.546875 303.867188 352.378906 302.953125 353.796875 C 302.035156 355.214844 282.554688 351.085938 283.257812 348.539062 C 283.960938 345.988281 292.882812 303.214844 292.882812 303.214844 C 292.882812 303.214844 294.753906 292.84375 304.128906 295.636719 C 311.203125 297.746094 310.074219 308.546875 310.074219 308.546875 Z M 310.074219 308.546875 " fill-opacity="1" fill-rule="nonzero"/><path fill="#ddd4af" d="M 395.339844 369.941406 L 347.164062 369.941406 L 347.164062 283.382812 L 395.339844 283.382812 C 398.089844 283.382812 400.316406 285.609375 400.316406 288.351562 L 400.316406 364.972656 C 400.316406 367.714844 398.089844 369.9375 395.339844 369.9375 Z M 395.339844 369.941406 " fill-opacity="1" fill-rule="nonzero"/><path fill="#ddd4af" d="M 265.871094 369.9375 L 219.574219 369.9375 L 219.574219 292.433594 L 265.871094 292.433594 Z M 265.871094 369.9375 " fill-opacity="1" fill-rule="nonzero"/><path fill="#132d44" d="M 296.667969 267.546875 L 247.433594 267.546875 C 245.992188 267.546875 244.792969 266.429688 244.695312 264.992188 L 242.160156 228.351562 C 242.050781 226.765625 243.304688 225.417969 244.898438 225.417969 L 294.128906 225.417969 C 295.574219 225.417969 296.773438 226.535156 296.871094 227.972656 L 299.40625 264.617188 C 299.515625 266.199219 298.257812 267.546875 296.667969 267.546875 Z M 296.667969 267.546875 " fill-opacity="1" fill-rule="nonzero"/><path fill="#375d7f" d="M 294.558594 267.546875 L 245.324219 267.546875 C 243.882812 267.546875 242.683594 266.429688 242.585938 264.992188 L 240.050781 228.351562 C 239.941406 226.765625 241.195312 225.417969 242.789062 225.417969 L 292.019531 225.417969 C 293.464844 225.417969 294.664062 226.535156 294.761719 227.972656 L 297.296875 264.617188 C 297.40625 266.199219 296.148438 267.546875 294.558594 267.546875 Z M 294.558594 267.546875 " fill-opacity="1" fill-rule="nonzero"/><path fill="#132d44" d="M 261.613281 240.734375 L 274.902344 240.734375 C 275.050781 240.734375 275.1875 240.761719 275.324219 240.816406 C 275.457031 240.871094 275.574219 240.953125 275.679688 241.054688 C 275.78125 241.15625 275.859375 241.273438 275.917969 241.410156 C 275.972656 241.542969 276 241.683594 276 241.828125 L 276 241.867188 C 276 242.011719 275.972656 242.152344 275.917969 242.289062 C 275.859375 242.421875 275.78125 242.539062 275.679688 242.640625 C 275.574219 242.746094 275.457031 242.824219 275.324219 242.878906 C 275.1875 242.933594 275.050781 242.964844 274.902344 242.964844 L 261.613281 242.964844 C 261.464844 242.964844 261.328125 242.933594 261.191406 242.878906 C 261.058594 242.824219 260.9375 242.746094 260.835938 242.640625 C 260.734375 242.539062 260.652344 242.421875 260.597656 242.289062 C 260.542969 242.152344 260.515625 242.011719 260.515625 241.867188 L 260.515625 241.828125 C 260.515625 241.683594 260.542969 241.542969 260.597656 241.410156 C 260.652344 241.273438 260.734375 241.15625 260.835938 241.054688 C 260.9375 240.953125 261.058594 240.871094 261.191406 240.816406 C 261.328125 240.761719 261.464844 240.734375 261.613281 240.734375 Z M 261.613281 240.734375 " fill-opacity="1" fill-rule="nonzero"/><path fill="#132d44" d="M 269.804688 280.109375 L 274.847656 242.964844 L 261.632812 242.964844 L 256.484375 280.890625 C 256.3125 282.164062 257.300781 283.292969 258.585938 283.292969 L 281.078125 283.292969 C 281.417969 283.292969 281.691406 283.019531 281.691406 282.683594 C 281.691406 282.34375 281.417969 282.070312 281.078125 282.070312 L 271.519531 282.070312 C 270.472656 282.070312 269.664062 281.152344 269.804688 280.113281 Z M 269.804688 280.109375 " fill-opacity="1" fill-rule="nonzero"/><path fill="#262b24" d="M 270.171875 344.355469 L 261.601562 361.730469 C 261.246094 362.601562 260.238281 362.96875 259.480469 362.507812 L 240.210938 350.792969 C 239.496094 350.355469 239.09375 349.53125 239.1875 348.65625 C 239.609375 344.683594 241.808594 334.640625 253.238281 345.34375 L 257.394531 336.253906 L 270.167969 344.355469 Z M 270.171875 344.355469 " fill-opacity="1" fill-rule="nonzero"/><path fill="#3d2b23" d="M 290.628906 309.136719 C 290.628906 309.136719 271.125 347.890625 269.855469 348.929688 C 268.589844 349.972656 252.535156 340.335938 253.976562 338.1875 C 255.414062 336.039062 277.003906 299.070312 277.003906 299.070312 C 277.003906 299.070312 281.972656 290.015625 289.445312 295.402344 C 295.085938 299.464844 290.628906 309.136719 290.628906 309.136719 Z M 290.628906 309.136719 " fill-opacity="1" fill-rule="nonzero"/><path fill="#fffdf3" d="M 215.933594 283.386719 L 347.164062 283.386719 L 347.164062 369.941406 L 286.992188 369.941406 L 286.992188 292.4375 C 286.992188 292.4375 219.574219 292.4375 219.574219 292.4375 L 219.574219 369.941406 L 215.9375 369.941406 C 213.753906 369.941406 211.988281 368.179688 211.988281 366 L 211.988281 287.332031 C 211.988281 285.15625 213.753906 283.390625 215.9375 283.390625 Z M 215.933594 283.386719 " fill-opacity="1" fill-rule="nonzero"/><path fill="#3a3a4c" d="M 328.945312 223.28125 C 328.945312 223.28125 317.871094 221.453125 315.789062 226.203125 C 313.699219 230.953125 315.296875 240.871094 316.160156 241.90625 C 317.023438 242.9375 324.070312 237.402344 324.070312 237.402344 C 324.070312 237.402344 328.210938 244.550781 329.109375 244.246094 C 330.003906 243.941406 339.109375 234 338.03125 228.949219 C 336.953125 223.902344 328.945312 223.28125 328.945312 223.28125 Z M 328.945312 223.28125 " fill-opacity="1" fill-rule="nonzero"/><path fill="#3a3a4c" d="M 322.695312 253.144531 C 322.695312 253.144531 322.664062 253.144531 322.648438 253.148438 C 322.402344 253.15625 322.1875 252.964844 322.183594 252.714844 C 322.140625 251.570312 321.78125 241.488281 321.953125 240.550781 C 322.128906 239.589844 324.226562 235.957031 324.464844 235.546875 C 324.585938 235.332031 324.863281 235.261719 325.078125 235.382812 C 325.292969 235.507812 325.367188 235.785156 325.242188 236 C 324.371094 237.496094 322.949219 240.105469 322.839844 240.714844 C 322.722656 241.351562 322.921875 248.222656 323.082031 252.683594 C 323.089844 252.917969 322.921875 253.113281 322.695312 253.144531 Z M 322.695312 253.144531 " fill-opacity="1" fill-rule="nonzero"/><path fill="#ffdd99" d="M 327.757812 225.3125 C 327.757812 225.3125 334.402344 225.902344 335.648438 228.53125 C 336.894531 231.164062 325.792969 240.09375 322.175781 236.597656 C 318.558594 233.105469 313.105469 222.832031 327.757812 225.3125 Z M 327.757812 225.3125 " fill-opacity="1" fill-rule="nonzero"/><path fill="#454560" d="M 324.980469 240.960938 C 324.980469 241.195312 324.898438 241.398438 324.730469 241.5625 C 324.566406 241.726562 324.367188 241.808594 324.132812 241.808594 C 323.898438 241.808594 323.695312 241.726562 323.53125 241.5625 C 323.367188 241.398438 323.28125 241.195312 323.28125 240.960938 C 323.28125 240.730469 323.367188 240.527344 323.53125 240.363281 C 323.695312 240.199219 323.898438 240.117188 324.132812 240.117188 C 324.367188 240.117188 324.566406 240.199219 324.730469 240.363281 C 324.898438 240.527344 324.980469 240.730469 324.980469 240.960938 Z M 324.980469 240.960938 " fill-opacity="1" fill-rule="nonzero"/><path fill="#454560" d="M 324.988281 246.300781 C 324.988281 246.535156 324.90625 246.734375 324.738281 246.902344 C 324.574219 247.066406 324.375 247.148438 324.140625 247.148438 C 323.902344 247.148438 323.703125 247.066406 323.539062 246.902344 C 323.371094 246.734375 323.289062 246.535156 323.289062 246.300781 C 323.289062 246.066406 323.371094 245.867188 323.539062 245.703125 C 323.703125 245.535156 323.902344 245.453125 324.140625 245.453125 C 324.375 245.453125 324.574219 245.535156 324.738281 245.703125 C 324.90625 245.867188 324.988281 246.066406 324.988281 246.300781 Z M 324.988281 246.300781 " fill-opacity="1" fill-rule="nonzero"/><path fill="#4c1b1b" d="M 314.386719 199.238281 C 314.386719 199.238281 307.582031 197.359375 308.246094 188.136719 C 308.859375 179.621094 312.082031 185.171875 316.390625 186.3125 C 320.703125 187.449219 332.539062 177.53125 336.90625 191.859375 C 336.90625 191.859375 341.640625 190.429688 342.320312 198.753906 C 343 207.078125 339.519531 215.960938 331.625 213.441406 C 323.734375 210.921875 314.386719 199.238281 314.386719 199.238281 Z M 314.386719 199.238281 " fill-opacity="1" fill-rule="nonzero"/><path fill="#ffdd99" d="M 330.160156 211.640625 C 331.378906 212.488281 333.105469 212.410156 334.359375 211.621094 C 335.613281 210.832031 336.40625 209.429688 336.652344 207.972656 C 336.890625 206.550781 336.621094 205.011719 335.75 203.859375 C 334.878906 202.707031 333.371094 202.011719 331.949219 202.285156 C 330.8125 202.5 329.6875 203.636719 329.359375 205.257812 C 329.234375 205.890625 328.582031 206.265625 327.984375 206.019531 L 327.9375 206 C 327.601562 205.859375 327.367188 205.542969 327.332031 205.179688 L 326.695312 198.90625 C 326.695312 198.90625 320.640625 204.113281 314.386719 199.246094 C 314.386719 199.246094 306.902344 217.988281 319.160156 221.128906 C 331.421875 224.269531 330.15625 211.644531 330.15625 211.644531 Z M 330.160156 211.640625 " fill-opacity="1" fill-rule="nonzero"/><path fill="#ff9a7b" d="M 331.484375 210.070312 C 330.800781 209.875 330.363281 209.203125 330.425781 208.496094 C 330.578125 206.832031 331.191406 203.832031 333.667969 204.6875 C 336.710938 205.738281 334.757812 211.015625 331.484375 210.070312 Z M 331.484375 210.070312 " fill-opacity="1" fill-rule="nonzero"/><path fill="#ffffff" d="M 128.117188 242.09375 L 197.761719 242.09375 C 198.203125 242.09375 198.628906 242.179688 199.039062 242.347656 C 199.445312 242.515625 199.808594 242.757812 200.121094 243.070312 C 200.433594 243.378906 200.671875 243.742188 200.84375 244.148438 C 201.011719 244.554688 201.097656 244.980469 201.097656 245.421875 L 201.097656 285.625 C 201.097656 286.066406 201.011719 286.488281 200.84375 286.898438 C 200.671875 287.304688 200.433594 287.664062 200.121094 287.976562 C 199.808594 288.289062 199.445312 288.53125 199.039062 288.699219 C 198.628906 288.867188 198.203125 288.953125 197.761719 288.953125 L 128.117188 288.953125 C 127.671875 288.953125 127.25 288.867188 126.839844 288.699219 C 126.429688 288.53125 126.070312 288.289062 125.757812 287.976562 C 125.445312 287.664062 125.203125 287.304688 125.035156 286.898438 C 124.867188 286.488281 124.78125 286.066406 124.78125 285.625 L 124.78125 245.421875 C 124.78125 244.980469 124.867188 244.554688 125.035156 244.148438 C 125.203125 243.742188 125.445312 243.378906 125.757812 243.070312 C 126.070312 242.757812 126.429688 242.515625 126.839844 242.347656 C 127.25 242.179688 127.671875 242.09375 128.117188 242.09375 Z M 128.117188 242.09375 " fill-opacity="1" fill-rule="nonzero"/><path fill="#f8991c" d="M 132.566406 250.84375 L 138.707031 250.84375 C 139.382812 250.84375 139.925781 251.390625 139.925781 252.058594 L 139.925781 274.652344 L 131.351562 274.652344 L 131.351562 252.058594 C 131.351562 251.386719 131.898438 250.84375 132.566406 250.84375 Z M 132.566406 250.84375 " fill-opacity="1" fill-rule="nonzero"/><path fill="#f8991c" d="M 187.535156 259.570312 L 193.675781 259.570312 C 194.347656 259.570312 194.890625 260.117188 194.890625 260.785156 L 194.890625 274.648438 L 186.316406 274.648438 L 186.316406 260.785156 C 186.316406 260.113281 186.863281 259.570312 187.535156 259.570312 Z M 187.535156 259.570312 " fill-opacity="1" fill-rule="nonzero"/><path fill="#f8991c" d="M 143.738281 261.546875 L 149.878906 261.546875 C 150.554688 261.546875 151.097656 262.089844 151.097656 262.761719 L 151.097656 274.652344 L 142.523438 274.652344 L 142.523438 262.761719 C 142.523438 262.089844 143.070312 261.546875 143.738281 261.546875 Z M 143.738281 261.546875 " fill-opacity="1" fill-rule="nonzero"/><path fill="#f8991c" d="M 176.71875 250.84375 L 182.855469 250.84375 C 183.53125 250.84375 184.074219 251.390625 184.074219 252.058594 L 184.074219 274.652344 L 175.5 274.652344 L 175.5 252.058594 C 175.5 251.386719 176.046875 250.84375 176.71875 250.84375 Z M 176.71875 250.84375 " fill-opacity="1" fill-rule="nonzero"/><path fill="#f8991c" d="M 154.761719 266.09375 L 160.902344 266.09375 C 161.574219 266.09375 162.117188 266.636719 162.117188 267.304688 L 162.117188 274.648438 L 153.542969 274.648438 L 153.542969 267.304688 C 153.542969 266.632812 154.089844 266.09375 154.761719 266.09375 Z M 154.761719 266.09375 " fill-opacity="1" fill-rule="nonzero"/><path fill="#f8991c" d="M 165.648438 255.347656 L 171.789062 255.347656 C 172.460938 255.347656 173.003906 255.894531 173.003906 256.5625 L 173.003906 274.652344 L 164.429688 274.652344 L 164.429688 256.5625 C 164.429688 255.890625 164.976562 255.347656 165.648438 255.347656 Z M 165.648438 255.347656 " fill-opacity="1" fill-rule="nonzero"/><path fill="#209e8b" d="M 132.199219 278.007812 L 139.144531 278.007812 C 139.378906 278.007812 139.578125 278.09375 139.746094 278.257812 C 139.910156 278.421875 139.992188 278.621094 139.992188 278.855469 L 139.992188 279 C 139.992188 279.230469 139.910156 279.433594 139.746094 279.597656 C 139.578125 279.761719 139.378906 279.84375 139.144531 279.84375 L 132.199219 279.84375 C 131.964844 279.84375 131.765625 279.761719 131.601562 279.597656 C 131.433594 279.433594 131.351562 279.230469 131.351562 279 L 131.351562 278.855469 C 131.351562 278.621094 131.433594 278.421875 131.601562 278.257812 C 131.765625 278.09375 131.964844 278.007812 132.199219 278.007812 Z M 132.199219 278.007812 " fill-opacity="1" fill-rule="nonzero"/><path fill="#209e8b" d="M 132.199219 282.09375 L 139.144531 282.09375 C 139.378906 282.09375 139.578125 282.175781 139.746094 282.339844 C 139.910156 282.507812 139.992188 282.707031 139.992188 282.941406 L 139.992188 283.082031 C 139.992188 283.316406 139.910156 283.515625 139.746094 283.679688 C 139.578125 283.847656 139.378906 283.929688 139.144531 283.929688 L 132.199219 283.929688 C 131.964844 283.929688 131.765625 283.847656 131.601562 283.679688 C 131.433594 283.515625 131.351562 283.316406 131.351562 283.082031 L 131.351562 282.941406 C 131.351562 282.707031 131.433594 282.507812 131.601562 282.339844 C 131.765625 282.175781 131.964844 282.09375 132.199219 282.09375 Z M 132.199219 282.09375 " fill-opacity="1" fill-rule="nonzero"/><path fill="#000000" d="M 194.324219 279.253906 L 142.324219 279.253906 C 142.011719 279.253906 141.757812 279.109375 141.757812 278.929688 C 141.757812 278.75 142.011719 278.605469 142.324219 278.605469 L 194.324219 278.605469 C 194.636719 278.605469 194.890625 278.75 194.890625 278.929688 C 194.890625 279.109375 194.636719 279.253906 194.324219 279.253906 Z M 194.324219 279.253906 " fill-opacity="1" fill-rule="nonzero"/><path fill="#000000" d="M 194.324219 283.335938 L 142.324219 283.335938 C 142.011719 283.335938 141.757812 283.191406 141.757812 283.011719 C 141.757812 282.835938 142.011719 282.691406 142.324219 282.691406 L 194.324219 282.691406 C 194.636719 282.691406 194.890625 282.835938 194.890625 283.011719 C 194.890625 283.191406 194.636719 283.335938 194.324219 283.335938 Z M 194.324219 283.335938 " fill-opacity="1" fill-rule="nonzero"/><path fill="#f8991c" d="M 185.59375 316.351562 L 170.546875 333.546875 C 171.992188 334.800781 173.617188 335.898438 175.410156 336.789062 C 186.71875 342.402344 200.445312 337.800781 206.070312 326.515625 C 211.695312 315.226562 207.085938 301.527344 195.777344 295.914062 C 185.835938 290.976562 174.027344 293.9375 167.496094 302.394531 Z M 185.59375 316.351562 " fill-opacity="1" fill-rule="nonzero"/><path fill="#ffffff" d="M 167.738281 333.785156 L 182.785156 316.585938 L 164.6875 302.628906 C 163.785156 303.792969 162.988281 305.058594 162.308594 306.421875 C 157.574219 315.921875 160.089844 327.125 167.738281 333.785156 Z M 167.738281 333.785156 " fill-opacity="1" fill-rule="nonzero"/><path fill="#93d337" d="M 404.59375 387.789062 C 407.921875 387.78125 411.101562 386.546875 413.667969 384.429688 C 414.496094 383.746094 415.378906 383.121094 416.242188 382.496094 C 418.648438 380.753906 421.109375 378.703125 421.496094 375.609375 C 421.699219 374.011719 421.121094 372.378906 419.824219 371.421875 C 418.902344 370.742188 417.964844 370.625 417.019531 370.753906 C 413.527344 371.246094 411.429688 367.023438 414.039062 364.652344 C 414.828125 363.933594 415.667969 363.277344 416.488281 362.671875 C 419.582031 360.398438 423.050781 357.398438 422.621094 353.582031 C 422.226562 350.078125 417.792969 347.726562 414.664062 349.359375 C 412.015625 350.738281 410.078125 354.335938 407.140625 353.550781 C 405.789062 353.183594 404.855469 351.996094 404.644531 350.613281 C 404.15625 347.429688 406.273438 344.964844 407.894531 342.4375 C 409.265625 340.296875 410.335938 337.527344 409.136719 335.28125 C 407.6875 332.574219 403.890625 332.253906 401.605469 330.207031 C 398.449219 327.382812 398.761719 321.886719 395.378906 319.34375 C 392.03125 316.832031 386.882812 318.925781 384.679688 322.476562 C 382.476562 326.027344 382.375 330.433594 382.21875 334.609375 C 382.125 337.277344 381.382812 340.667969 378.742188 341.105469 C 376.429688 341.488281 374.609375 339.183594 373.65625 337.050781 C 372.617188 334.707031 371.632812 331.90625 368.949219 331.355469 C 367.515625 331.058594 366.042969 331.558594 364.949219 332.535156 C 362.816406 334.449219 362.339844 337.285156 362.210938 339.996094 C 362.035156 343.617188 362.375 347.261719 363.222656 350.789062 C 361.175781 349.484375 358.324219 349.585938 356.371094 351.027344 C 354.417969 352.472656 353.5 355.171875 354.15625 357.503906 C 354.640625 359.226562 355.855469 360.628906 356.980469 362.019531 C 358.15625 363.46875 359.304688 365.078125 359.429688 366.953125 C 359.5 368.007812 359.140625 369.039062 358.433594 369.832031 C 356.285156 372.25 353.878906 369.222656 351.789062 370.941406 C 351.277344 371.359375 350.960938 371.976562 350.847656 372.628906 C 350.582031 374.195312 351.304688 375.613281 352.09375 376.902344 C 353.839844 379.75 356.035156 382.320312 358.5625 384.503906 C 361.109375 386.699219 364.375 387.894531 367.742188 387.882812 L 404.589844 387.789062 Z M 404.59375 387.789062 " fill-opacity="1" fill-rule="nonzero"/><path fill="#5fa50e" d="M 399.632812 387.8125 C 400.425781 386.28125 401.925781 385.261719 403.324219 384.246094 C 404.722656 383.230469 406.152344 382.0625 406.691406 380.421875 C 407.226562 378.78125 406.417969 376.597656 404.710938 376.308594 C 402.925781 376.003906 401.09375 377.800781 399.453125 377.035156 C 399.078125 374.46875 401.398438 372.378906 403.492188 370.839844 C 405.582031 369.304688 407.929688 367.273438 407.636719 364.695312 C 407.371094 362.328125 404.375 360.734375 402.257812 361.839844 C 400.492188 362.761719 399.195312 365.136719 397.253906 364.691406 C 396.027344 364.410156 395.347656 362.992188 395.441406 361.742188 C 395.574219 360.03125 396.746094 358.609375 397.675781 357.160156 C 398.605469 355.714844 399.328125 353.839844 398.519531 352.324219 C 397.542969 350.496094 394.972656 350.277344 393.425781 348.890625 C 391.292969 346.980469 391.503906 343.265625 389.214844 341.542969 C 386.957031 339.847656 383.472656 341.265625 381.984375 343.664062 C 380.492188 346.066406 380.425781 349.046875 380.324219 351.867188 C 380.257812 353.671875 379.753906 355.964844 377.96875 356.261719 C 376.40625 356.519531 375.175781 354.964844 374.53125 353.519531 C 373.890625 352.078125 373.28125 350.375 371.804688 349.804688 C 370.414062 349.265625 368.78125 350.050781 367.933594 351.269531 C 367.085938 352.488281 366.859375 354.027344 366.789062 355.511719 C 366.667969 357.960938 366.902344 360.425781 367.476562 362.8125 C 366.089844 361.929688 364.160156 361.996094 362.839844 362.976562 C 361.523438 363.953125 360.898438 365.777344 361.34375 367.359375 C 361.671875 368.519531 362.492188 369.46875 363.253906 370.410156 C 364.015625 371.351562 364.761719 372.382812 364.890625 373.585938 C 365.027344 374.789062 364.304688 376.164062 363.105469 376.335938 C 362.164062 376.472656 361.195312 375.851562 360.28125 376.140625 C 359.480469 376.394531 359.03125 377.304688 359.066406 378.144531 C 359.097656 378.984375 359.507812 379.757812 359.945312 380.476562 C 361.808594 383.519531 364.433594 386.09375 367.511719 387.90625 L 399.625 387.820312 Z M 399.632812 387.8125 " fill-opacity="1" fill-rule="nonzero"/></svg>